<?xml version="1.0" encoding="UTF-8" standalone="no"?>
<svg
   width="357.44376pt"
   height="211.03343pt"
   viewBox="0 0 357.44376 211.03343"
   version="1.1"
   id="svg528"
   sodipodi:docname="gaussian_movement.svg"
   inkscape:version="1.2 (dc2aeda, 2022-05-15)"
   xmlns:inkscape="http://www.inkscape.org/namespaces/inkscape"
   xmlns:sodipodi="http://sodipodi.sourceforge.net/DTD/sodipodi-0.dtd"
   xmlns:xlink="http://www.w3.org/1999/xlink"
   xmlns="http://www.w3.org/2000/svg"
   xmlns:svg="http://www.w3.org/2000/svg"
   xmlns:rdf="http://www.w3.org/1999/02/22-rdf-syntax-ns#"
   xmlns:cc="http://creativecommons.org/ns#"
   xmlns:dc="http://purl.org/dc/elements/1.1/">
  <sodipodi:namedview
     id="namedview530"
     pagecolor="#ffffff"
     bordercolor="#000000"
     borderopacity="0.25"
     inkscape:showpageshadow="2"
     inkscape:pageopacity="0.0"
     inkscape:pagecheckerboard="0"
     inkscape:deskcolor="#d1d1d1"
     inkscape:document-units="pt"
     showgrid="false"
     inkscape:zoom="0.81944444"
     inkscape:cx="92.745763"
     inkscape:cy="129.35593"
     inkscape:window-width="1309"
     inkscape:window-height="456"
     inkscape:window-x="0"
     inkscape:window-y="25"
     inkscape:window-maximized="0"
     inkscape:current-layer="patch_1" />
  <metadata
     id="metadata132">
    <rdf:RDF>
      <cc:Work>
        <dc:type
           rdf:resource="http://purl.org/dc/dcmitype/StillImage" />
        <dc:date>2024-01-15T08:01:45.911199</dc:date>
        <dc:format>image/svg+xml</dc:format>
        <dc:creator>
          <cc:Agent>
            <dc:title>Matplotlib v3.6.1, https://matplotlib.org/</dc:title>
          </cc:Agent>
        </dc:creator>
      </cc:Work>
    </rdf:RDF>
  </metadata>
  <defs
     id="defs136">
    <style
       type="text/css"
       id="style134">*{stroke-linejoin: round; stroke-linecap: butt}</style>
  </defs>
  <g
     id="figure_1"
     transform="translate(-31.75625,-10.801875)">
    <g
       id="patch_1" />
    <g
       id="axes_1">
      <g
         id="patch_2">
        <path
           d="M 54,192.24 H 388.8 V 25.92 H 54 Z"
           style="fill:#ffffff"
           id="path141" />
      </g>
      <g
         id="matplotlib.axis_1">
        <g
           id="xtick_1">
          <g
             id="line2d_1">
            <defs
               id="defs145">
              <path
                 id="m07dfaad2c7"
                 d="M 0,0 V 3.5"
                 style="stroke:#000000;stroke-width:0.8" />
            </defs>
            <g
               id="g149">
              <use
                 xlink:href="#m07dfaad2c7"
                 x="69.218185"
                 y="192.24001"
                 style="stroke:#000000;stroke-width:0.8"
                 id="use147" />
            </g>
          </g>
          <g
             id="text_1">
            <!-- −1.00 -->
            <g
               transform="matrix(0.1,0,0,-0.1,53.895526,206.83844)"
               id="g168">
              <defs
                 id="defs156">
                <path
                   id="DejaVuSans-2212"
                   d="M 678,2272 H 4684 V 1741 H 678 Z"
                   transform="scale(0.015625)" />
                <path
                   id="DejaVuSans-31"
                   d="M 794,531 H 1825 V 4091 L 703,3866 v 575 l 1116,225 h 631 V 531 H 3481 V 0 H 794 Z"
                   transform="scale(0.015625)" />
                <path
                   id="DejaVuSans-2e"
                   d="m 684,794 h 660 V 0 H 684 Z"
                   transform="scale(0.015625)" />
                <path
                   id="DejaVuSans-30"
                   d="m 2034,4250 q -487,0 -733,-480 -245,-479 -245,-1442 0,-959 245,-1439 246,-480 733,-480 491,0 736,480 246,480 246,1439 0,963 -246,1442 -245,480 -736,480 z m 0,500 q 785,0 1199,-621 414,-620 414,-1801 0,-1178 -414,-1799 -414,-620 -1199,-620 -784,0 -1198,620 -414,621 -414,1799 0,1181 414,1801 414,621 1198,621 z"
                   transform="scale(0.015625)" />
              </defs>
              <use
                 xlink:href="#DejaVuSans-2212"
                 id="use158" />
              <use
                 xlink:href="#DejaVuSans-31"
                 x="83.789062"
                 id="use160" />
              <use
                 xlink:href="#DejaVuSans-2e"
                 x="147.41211"
                 id="use162" />
              <use
                 xlink:href="#DejaVuSans-30"
                 x="179.19922"
                 id="use164" />
              <use
                 xlink:href="#DejaVuSans-30"
                 x="242.82227"
                 id="use166" />
            </g>
          </g>
        </g>
        <g
           id="xtick_2">
          <g
             id="line2d_2">
            <g
               id="g174">
              <use
                 xlink:href="#m07dfaad2c7"
                 x="107.45482"
                 y="192.24001"
                 style="stroke:#000000;stroke-width:0.8"
                 id="use172" />
            </g>
          </g>
          <g
             id="text_2">
            <!-- −0.75 -->
            <g
               transform="matrix(0.1,0,0,-0.1,92.132163,206.83844)"
               id="g191">
              <defs
                 id="defs179">
                <path
                   id="DejaVuSans-37"
                   d="M 525,4666 H 3525 V 4397 L 1831,0 H 1172 L 2766,4134 H 525 Z"
                   transform="scale(0.015625)" />
                <path
                   id="DejaVuSans-35"
                   d="M 691,4666 H 3169 V 4134 H 1269 V 2991 q 137,47 274,70 138,23 276,23 781,0 1237,-428 457,-428 457,-1159 Q 3513,744 3044,326 2575,-91 1722,-91 1428,-91 1123,-41 819,9 494,109 v 635 q 281,-153 581,-228 300,-75 634,-75 541,0 856,284 316,284 316,772 0,487 -316,771 -315,285 -856,285 -253,0 -505,-56 -251,-56 -513,-175 z"
                   transform="scale(0.015625)" />
              </defs>
              <use
                 xlink:href="#DejaVuSans-2212"
                 id="use181" />
              <use
                 xlink:href="#DejaVuSans-30"
                 x="83.789062"
                 id="use183" />
              <use
                 xlink:href="#DejaVuSans-2e"
                 x="147.41211"
                 id="use185" />
              <use
                 xlink:href="#DejaVuSans-37"
                 x="179.19922"
                 id="use187" />
              <use
                 xlink:href="#DejaVuSans-35"
                 x="242.82227"
                 id="use189" />
            </g>
          </g>
        </g>
        <g
           id="xtick_3">
          <g
             id="line2d_3">
            <g
               id="g197">
              <use
                 xlink:href="#m07dfaad2c7"
                 x="145.69145"
                 y="192.24001"
                 style="stroke:#000000;stroke-width:0.8"
                 id="use195" />
            </g>
          </g>
          <g
             id="text_3">
            <!-- −0.50 -->
            <g
               transform="matrix(0.1,0,0,-0.1,130.3688,206.83844)"
               id="g210">
              <use
                 xlink:href="#DejaVuSans-2212"
                 id="use200" />
              <use
                 xlink:href="#DejaVuSans-30"
                 x="83.789062"
                 id="use202" />
              <use
                 xlink:href="#DejaVuSans-2e"
                 x="147.41211"
                 id="use204" />
              <use
                 xlink:href="#DejaVuSans-35"
                 x="179.19922"
                 id="use206" />
              <use
                 xlink:href="#DejaVuSans-30"
                 x="242.82227"
                 id="use208" />
            </g>
          </g>
        </g>
        <g
           id="xtick_4">
          <g
             id="line2d_4">
            <g
               id="g216">
              <use
                 xlink:href="#m07dfaad2c7"
                 x="183.9281"
                 y="192.24001"
                 style="stroke:#000000;stroke-width:0.8"
                 id="use214" />
            </g>
          </g>
          <g
             id="text_4">
            <!-- −0.25 -->
            <g
               transform="matrix(0.1,0,0,-0.1,168.60544,206.83844)"
               id="g232">
              <defs
                 id="defs220">
                <path
                   id="DejaVuSans-32"
                   d="M 1228,531 H 3431 V 0 H 469 v 531 q 359,372 979,998 621,627 780,809 303,340 423,576 121,236 121,464 0,372 -261,606 -261,235 -680,235 -297,0 -627,-103 -329,-103 -704,-313 v 638 q 381,153 712,231 332,78 607,78 725,0 1156,-363 431,-362 431,-968 0,-288 -108,-546 -107,-257 -392,-607 -78,-91 -497,-524 Q 1991,1309 1228,531 Z"
                   transform="scale(0.015625)" />
              </defs>
              <use
                 xlink:href="#DejaVuSans-2212"
                 id="use222" />
              <use
                 xlink:href="#DejaVuSans-30"
                 x="83.789062"
                 id="use224" />
              <use
                 xlink:href="#DejaVuSans-2e"
                 x="147.41211"
                 id="use226" />
              <use
                 xlink:href="#DejaVuSans-32"
                 x="179.19922"
                 id="use228" />
              <use
                 xlink:href="#DejaVuSans-35"
                 x="242.82227"
                 id="use230" />
            </g>
          </g>
        </g>
        <g
           id="xtick_5">
          <g
             id="line2d_5">
            <g
               id="g238">
              <use
                 xlink:href="#m07dfaad2c7"
                 x="222.16473"
                 y="192.24001"
                 style="stroke:#000000;stroke-width:0.8"
                 id="use236" />
            </g>
          </g>
          <g
             id="text_5">
            <!-- 0.00 -->
            <g
               transform="matrix(0.1,0,0,-0.1,211.03192,206.83844)"
               id="g249">
              <use
                 xlink:href="#DejaVuSans-30"
                 id="use241" />
              <use
                 xlink:href="#DejaVuSans-2e"
                 x="63.623047"
                 id="use243" />
              <use
                 xlink:href="#DejaVuSans-30"
                 x="95.410156"
                 id="use245" />
              <use
                 xlink:href="#DejaVuSans-30"
                 x="159.0332"
                 id="use247" />
            </g>
          </g>
        </g>
        <g
           id="xtick_6">
          <g
             id="line2d_6">
            <g
               id="g255">
              <use
                 xlink:href="#m07dfaad2c7"
                 x="260.40137"
                 y="192.24001"
                 style="stroke:#000000;stroke-width:0.8"
                 id="use253" />
            </g>
          </g>
          <g
             id="text_6">
            <!-- 0.25 -->
            <g
               transform="matrix(0.1,0,0,-0.1,249.26856,206.83844)"
               id="g266">
              <use
                 xlink:href="#DejaVuSans-30"
                 id="use258" />
              <use
                 xlink:href="#DejaVuSans-2e"
                 x="63.623047"
                 id="use260" />
              <use
                 xlink:href="#DejaVuSans-32"
                 x="95.410156"
                 id="use262" />
              <use
                 xlink:href="#DejaVuSans-35"
                 x="159.0332"
                 id="use264" />
            </g>
          </g>
        </g>
        <g
           id="xtick_7">
          <g
             id="line2d_7">
            <g
               id="g272">
              <use
                 xlink:href="#m07dfaad2c7"
                 x="298.638"
                 y="192.24001"
                 style="stroke:#000000;stroke-width:0.8"
                 id="use270" />
            </g>
          </g>
          <g
             id="text_7">
            <!-- 0.50 -->
            <g
               transform="matrix(0.1,0,0,-0.1,287.5052,206.83844)"
               id="g283">
              <use
                 xlink:href="#DejaVuSans-30"
                 id="use275" />
              <use
                 xlink:href="#DejaVuSans-2e"
                 x="63.623047"
                 id="use277" />
              <use
                 xlink:href="#DejaVuSans-35"
                 x="95.410156"
                 id="use279" />
              <use
                 xlink:href="#DejaVuSans-30"
                 x="159.0332"
                 id="use281" />
            </g>
          </g>
        </g>
        <g
           id="xtick_8">
          <g
             id="line2d_8">
            <g
               id="g289">
              <use
                 xlink:href="#m07dfaad2c7"
                 x="336.87463"
                 y="192.24001"
                 style="stroke:#000000;stroke-width:0.8"
                 id="use287" />
            </g>
          </g>
          <g
             id="text_8">
            <!-- 0.75 -->
            <g
               transform="matrix(0.1,0,0,-0.1,325.74183,206.83844)"
               id="g300">
              <use
                 xlink:href="#DejaVuSans-30"
                 id="use292" />
              <use
                 xlink:href="#DejaVuSans-2e"
                 x="63.623047"
                 id="use294" />
              <use
                 xlink:href="#DejaVuSans-37"
                 x="95.410156"
                 id="use296" />
              <use
                 xlink:href="#DejaVuSans-35"
                 x="159.0332"
                 id="use298" />
            </g>
          </g>
        </g>
        <g
           id="xtick_9">
          <g
             id="line2d_9">
            <g
               id="g306">
              <use
                 xlink:href="#m07dfaad2c7"
                 x="375.1113"
                 y="192.24001"
                 style="stroke:#000000;stroke-width:0.8"
                 id="use304" />
            </g>
          </g>
          <g
             id="text_9">
            <!-- 1.00 -->
            <g
               transform="matrix(0.1,0,0,-0.1,363.97847,206.83844)"
               id="g317">
              <use
                 xlink:href="#DejaVuSans-31"
                 id="use309" />
              <use
                 xlink:href="#DejaVuSans-2e"
                 x="63.623047"
                 id="use311" />
              <use
                 xlink:href="#DejaVuSans-30"
                 x="95.410156"
                 id="use313" />
              <use
                 xlink:href="#DejaVuSans-30"
                 x="159.0332"
                 id="use315" />
            </g>
          </g>
        </g>
        <g
           id="text_10">
          <!-- Time (sec) -->
          <g
             transform="matrix(0.1,0,0,-0.1,195.24531,220.51656)"
             id="g352">
            <defs
               id="defs330">
              <path
                 id="DejaVuSans-54"
                 d="M -19,4666 H 3928 V 4134 H 2272 V 0 H 1638 V 4134 H -19 Z"
                 transform="scale(0.015625)" />
              <path
                 id="DejaVuSans-69"
                 d="m 603,3500 h 575 V 0 H 603 Z m 0,1363 h 575 V 4134 H 603 Z"
                 transform="scale(0.015625)" />
              <path
                 id="DejaVuSans-6d"
                 d="m 3328,2828 q 216,388 516,572 300,184 706,184 547,0 844,-383 297,-382 297,-1088 V 0 h -578 v 2094 q 0,503 -179,746 -178,244 -543,244 -447,0 -707,-297 -259,-296 -259,-809 V 0 h -578 v 2094 q 0,506 -178,748 -178,242 -550,242 -441,0 -701,-298 -259,-298 -259,-808 V 0 H 581 v 3500 h 578 v -544 q 197,322 472,475 275,153 653,153 382,0 649,-194 267,-193 395,-562 z"
                 transform="scale(0.015625)" />
              <path
                 id="DejaVuSans-65"
                 d="M 3597,1894 V 1613 H 953 q 38,-594 358,-905 320,-311 892,-311 331,0 642,81 311,81 618,244 V 178 Q 3153,47 2828,-22 2503,-91 2169,-91 1331,-91 842,396 353,884 353,1716 q 0,859 464,1363 464,505 1252,505 706,0 1117,-455 411,-454 411,-1235 z m -575,169 q -6,471 -264,752 -258,282 -683,282 -481,0 -770,-272 -289,-272 -333,-766 z"
                 transform="scale(0.015625)" />
              <path
                 id="DejaVuSans-20"
                 transform="scale(0.015625)"
                 d="" />
              <path
                 id="DejaVuSans-28"
                 d="m 1984,4856 q -418,-718 -622,-1422 -203,-703 -203,-1425 0,-721 205,-1429 205,-708 620,-1424 h -500 q -468,735 -701,1444 -233,709 -233,1409 0,697 231,1403 232,707 703,1444 z"
                 transform="scale(0.015625)" />
              <path
                 id="DejaVuSans-73"
                 d="m 2834,3397 v -544 q -243,125 -506,187 -262,63 -544,63 -428,0 -642,-131 -214,-131 -214,-394 0,-200 153,-314 153,-114 616,-217 l 197,-44 q 612,-131 870,-370 258,-239 258,-667 0,-488 -386,-773 Q 2250,-91 1575,-91 1294,-91 989,-36 684,19 347,128 v 594 q 319,-166 628,-249 309,-82 613,-82 406,0 624,139 219,139 219,392 0,234 -158,359 -157,125 -692,241 l -200,47 q -534,112 -772,345 -237,233 -237,639 0,494 350,762 350,269 994,269 318,0 599,-47 282,-46 519,-140 z"
                 transform="scale(0.015625)" />
              <path
                 id="DejaVuSans-63"
                 d="m 3122,3366 v -538 q -244,135 -489,202 -245,67 -495,67 -560,0 -870,-355 -309,-354 -309,-995 0,-641 309,-996 310,-354 870,-354 250,0 495,67 245,67 489,202 V 134 Q 2881,22 2623,-34 2366,-91 2075,-91 1284,-91 818,406 353,903 353,1747 q 0,856 470,1346 471,491 1290,491 265,0 518,-55 253,-54 491,-163 z"
                 transform="scale(0.015625)" />
              <path
                 id="DejaVuSans-29"
                 d="m 513,4856 h 500 q 468,-737 701,-1444 233,-706 233,-1403 0,-700 -233,-1409 -233,-709 -701,-1444 H 513 q 415,716 620,1424 205,708 205,1429 0,722 -205,1425 -205,704 -620,1422 z"
                 transform="scale(0.015625)" />
            </defs>
            <use
               xlink:href="#DejaVuSans-54"
               id="use332" />
            <use
               xlink:href="#DejaVuSans-69"
               x="57.958984"
               id="use334" />
            <use
               xlink:href="#DejaVuSans-6d"
               x="85.742188"
               id="use336" />
            <use
               xlink:href="#DejaVuSans-65"
               x="183.1543"
               id="use338" />
            <use
               xlink:href="#DejaVuSans-20"
               x="244.67773"
               id="use340" />
            <use
               xlink:href="#DejaVuSans-28"
               x="276.46484"
               id="use342" />
            <use
               xlink:href="#DejaVuSans-73"
               x="315.47852"
               id="use344" />
            <use
               xlink:href="#DejaVuSans-65"
               x="367.57812"
               id="use346" />
            <use
               xlink:href="#DejaVuSans-63"
               x="429.10156"
               id="use348" />
            <use
               xlink:href="#DejaVuSans-29"
               x="484.08203"
               id="use350" />
          </g>
        </g>
      </g>
      <g
         id="matplotlib.axis_2">
        <g
           id="ytick_1">
          <g
             id="line2d_10">
            <defs
               id="defs357">
              <path
                 id="m2e456deb30"
                 d="M 0,0 H -3.5"
                 style="stroke:#000000;stroke-width:0.8" />
            </defs>
            <g
               id="g361">
              <use
                 xlink:href="#m2e456deb30"
                 x="54"
                 y="184.67999"
                 style="stroke:#000000;stroke-width:0.8"
                 id="use359" />
            </g>
          </g>
          <g
             id="text_11">
            <!-- 0.0 -->
            <g
               transform="matrix(0.1,0,0,-0.1,31.096875,188.47922)"
               id="g370">
              <use
                 xlink:href="#DejaVuSans-30"
                 id="use364" />
              <use
                 xlink:href="#DejaVuSans-2e"
                 x="63.623047"
                 id="use366" />
              <use
                 xlink:href="#DejaVuSans-30"
                 x="95.410156"
                 id="use368" />
            </g>
          </g>
        </g>
        <g
           id="ytick_2">
          <g
             id="line2d_11">
            <g
               id="g376">
              <use
                 xlink:href="#m2e456deb30"
                 x="54"
                 y="154.44"
                 style="stroke:#000000;stroke-width:0.8"
                 id="use374" />
            </g>
          </g>
          <g
             id="text_12">
            <!-- 0.2 -->
            <g
               transform="matrix(0.1,0,0,-0.1,31.096875,158.23922)"
               id="g385">
              <use
                 xlink:href="#DejaVuSans-30"
                 id="use379" />
              <use
                 xlink:href="#DejaVuSans-2e"
                 x="63.623047"
                 id="use381" />
              <use
                 xlink:href="#DejaVuSans-32"
                 x="95.410156"
                 id="use383" />
            </g>
          </g>
        </g>
        <g
           id="ytick_3">
          <g
             id="line2d_12">
            <g
               id="g391">
              <use
                 xlink:href="#m2e456deb30"
                 x="54"
                 y="124.2"
                 style="stroke:#000000;stroke-width:0.8"
                 id="use389" />
            </g>
          </g>
          <g
             id="text_13">
            <!-- 0.4 -->
            <g
               transform="matrix(0.1,0,0,-0.1,31.096875,127.99922)"
               id="g403">
              <defs
                 id="defs395">
                <path
                   id="DejaVuSans-34"
                   d="M 2419,4116 825,1625 h 1594 z m -166,550 h 794 V 1625 h 666 V 1100 H 3047 V 0 H 2419 V 1100 H 313 v 609 z"
                   transform="scale(0.015625)" />
              </defs>
              <use
                 xlink:href="#DejaVuSans-30"
                 id="use397" />
              <use
                 xlink:href="#DejaVuSans-2e"
                 x="63.623047"
                 id="use399" />
              <use
                 xlink:href="#DejaVuSans-34"
                 x="95.410156"
                 id="use401" />
            </g>
          </g>
        </g>
        <g
           id="ytick_4">
          <g
             id="line2d_13">
            <g
               id="g409">
              <use
                 xlink:href="#m2e456deb30"
                 x="54"
                 y="93.959999"
                 style="stroke:#000000;stroke-width:0.8"
                 id="use407" />
            </g>
          </g>
          <g
             id="text_14">
            <!-- 0.6 -->
            <g
               transform="matrix(0.1,0,0,-0.1,31.096875,97.759219)"
               id="g421">
              <defs
                 id="defs413">
                <path
                   id="DejaVuSans-36"
                   d="m 2113,2584 q -425,0 -674,-291 -248,-290 -248,-796 0,-503 248,-796 249,-292 674,-292 425,0 673,292 248,293 248,796 0,506 -248,796 -248,291 -673,291 z m 1253,1979 v -575 q -238,112 -480,171 -242,60 -480,60 -625,0 -955,-422 -329,-422 -376,-1275 184,272 462,417 279,145 613,145 703,0 1111,-427 408,-426 408,-1160 0,-719 -425,-1154 -425,-434 -1131,-434 -810,0 -1238,620 -428,621 -428,1799 0,1106 525,1764 525,658 1409,658 238,0 480,-47 242,-47 505,-140 z"
                   transform="scale(0.015625)" />
              </defs>
              <use
                 xlink:href="#DejaVuSans-30"
                 id="use415" />
              <use
                 xlink:href="#DejaVuSans-2e"
                 x="63.623047"
                 id="use417" />
              <use
                 xlink:href="#DejaVuSans-36"
                 x="95.410156"
                 id="use419" />
            </g>
          </g>
        </g>
        <g
           id="ytick_5">
          <g
             id="line2d_14">
            <g
               id="g427">
              <use
                 xlink:href="#m2e456deb30"
                 x="54"
                 y="63.720001"
                 style="stroke:#000000;stroke-width:0.8"
                 id="use425" />
            </g>
          </g>
          <g
             id="text_15">
            <!-- 0.8 -->
            <g
               transform="matrix(0.1,0,0,-0.1,31.096875,67.519219)"
               id="g439">
              <defs
                 id="defs431">
                <path
                   id="DejaVuSans-38"
                   d="m 2034,2216 q -450,0 -708,-241 -257,-241 -257,-662 0,-422 257,-663 258,-241 708,-241 450,0 709,242 260,243 260,662 0,421 -258,662 -257,241 -711,241 z m -631,268 q -406,100 -633,378 -226,279 -226,679 0,559 398,884 399,325 1092,325 697,0 1094,-325 397,-325 397,-884 0,-400 -227,-679 -226,-278 -629,-378 456,-106 710,-416 255,-309 255,-755 Q 3634,634 3220,271 2806,-91 2034,-91 1263,-91 848,271 434,634 434,1313 q 0,446 256,755 257,310 713,416 z m -231,997 q 0,-362 226,-565 227,-203 636,-203 407,0 636,203 230,203 230,565 0,363 -230,566 -229,203 -636,203 -409,0 -636,-203 -226,-203 -226,-566 z"
                   transform="scale(0.015625)" />
              </defs>
              <use
                 xlink:href="#DejaVuSans-30"
                 id="use433" />
              <use
                 xlink:href="#DejaVuSans-2e"
                 x="63.623047"
                 id="use435" />
              <use
                 xlink:href="#DejaVuSans-38"
                 x="95.410156"
                 id="use437" />
            </g>
          </g>
        </g>
        <g
           id="ytick_6">
          <g
             id="line2d_15">
            <g
               id="g445">
              <use
                 xlink:href="#m2e456deb30"
                 x="54"
                 y="33.48"
                 style="stroke:#000000;stroke-width:0.8"
                 id="use443" />
            </g>
          </g>
          <g
             id="text_16">
            <!-- 1.0 -->
            <g
               transform="matrix(0.1,0,0,-0.1,31.096875,37.279219)"
               id="g454">
              <use
                 xlink:href="#DejaVuSans-31"
                 id="use448" />
              <use
                 xlink:href="#DejaVuSans-2e"
                 x="63.623047"
                 id="use450" />
              <use
                 xlink:href="#DejaVuSans-30"
                 x="95.410156"
                 id="use452" />
            </g>
          </g>
        </g>
      </g>
      <g
         id="line2d_16">
        <path
           d="m 69.218182,184.68 70.355408,-0.10317 6.11787,-0.18872 4.58839,-0.31228 3.05893,-0.35288 3.05894,-0.52897 3.05893,-0.77565 3.05893,-1.11235 1.52946,-0.71622 1.52947,-0.84353 1.52946,-0.98781 1.52947,-1.15014 1.52946,-1.3314 1.52947,-1.53227 1.52947,-1.75309 1.52946,-1.99383 1.52947,-2.25405 1.52946,-2.53282 1.52947,-2.82861 1.52946,-3.13933 1.52947,-3.46223 1.52947,-3.79389 1.52946,-4.13024 3.05893,-9.26395 3.05893,-10.53594 3.05893,-11.63917 4.5884,-18.888623 6.11786,-25.580872 3.05893,-11.750961 1.52947,-5.361145 1.52946,-4.923392 1.52947,-4.418862 1.52946,-3.85286 1.52947,-3.232108 1.52947,-2.564624 1.52946,-1.859548 1.52947,-1.126937 1.52946,-0.377528 1.52947,0.377528 1.52946,1.126937 1.52947,1.859548 1.52946,2.564624 1.52947,3.232108 1.52947,3.85286 1.52946,4.418862 1.52947,4.923392 3.05893,11.089463 3.05893,12.266017 9.17679,38.226121 3.05893,11.63917 3.05893,10.53594 3.05894,9.26395 1.52946,4.13024 1.52947,3.79389 1.52946,3.46223 1.52947,3.13933 1.52946,2.82861 1.52947,2.53282 1.52946,2.25405 1.52947,1.99383 1.52946,1.75309 1.52947,1.53227 1.52947,1.3314 1.52946,1.15014 1.52947,0.98781 1.52946,0.84353 3.05893,1.32091 3.05893,0.93147 3.05893,0.64231 3.05894,0.43324 4.58839,0.38846 6.11786,0.23904 10.70626,0.11615 39.76611,0.0187 h 19.88305 v 0"
           clip-path="url(#p52a3afe1bf)"
           style="fill:none;stroke:#1f77b4;stroke-width:1.5;stroke-linecap:square"
           id="path459" />
      </g>
      <g
         id="patch_3">
        <path
           d="M 54,192.24 V 25.92"
           style="fill:none;stroke:#000000;stroke-width:0.8;stroke-linecap:square;stroke-linejoin:miter"
           id="path462" />
      </g>
      <g
         id="patch_4">
        <path
           d="M 388.8,192.24 V 25.92"
           style="fill:none;stroke:#000000;stroke-width:0.8;stroke-linecap:square;stroke-linejoin:miter"
           id="path465" />
      </g>
      <g
         id="patch_5">
        <path
           d="M 54,192.24 H 388.8"
           style="fill:none;stroke:#000000;stroke-width:0.8;stroke-linecap:square;stroke-linejoin:miter"
           id="path468" />
      </g>
      <g
         id="patch_6">
        <path
           d="M 54,25.92 H 388.8"
           style="fill:none;stroke:#000000;stroke-width:0.8;stroke-linecap:square;stroke-linejoin:miter"
           id="path471" />
      </g>
      <g
         id="text_17">
        <!-- Gaussian Movement -->
        <g
           transform="matrix(0.12,0,0,-0.12,160.185,19.92)"
           id="g518">
          <defs
             id="defs482">
            <path
               id="DejaVuSans-47"
               d="M 3809,666 V 1919 H 2778 v 519 H 4434 V 434 Q 4069,175 3628,42 3188,-91 2688,-91 1594,-91 976,548 359,1188 359,2328 q 0,1144 617,1783 618,639 1712,639 456,0 867,-113 411,-112 758,-331 v -672 q -350,297 -744,447 -394,150 -828,150 -857,0 -1287,-478 -429,-478 -429,-1425 0,-944 429,-1422 430,-478 1287,-478 334,0 596,58 263,58 472,180 z"
               transform="scale(0.015625)" />
            <path
               id="DejaVuSans-61"
               d="m 2194,1759 q -697,0 -966,-159 -269,-159 -269,-544 0,-306 202,-486 202,-179 548,-179 479,0 768,339 289,339 289,901 v 128 z m 1147,238 V 0 H 2766 V 531 Q 2569,213 2275,61 1981,-91 1556,-91 q -537,0 -855,302 -317,302 -317,808 0,590 395,890 396,300 1180,300 h 807 v 57 q 0,397 -261,614 -261,217 -733,217 -300,0 -585,-72 -284,-72 -546,-216 v 532 q 315,122 612,182 297,61 578,61 760,0 1135,-394 375,-393 375,-1193 z"
               transform="scale(0.015625)" />
            <path
               id="DejaVuSans-75"
               d="m 544,1381 v 2119 h 575 V 1403 q 0,-497 193,-746 194,-248 582,-248 465,0 735,297 271,297 271,810 v 1984 h 575 V 0 H 2900 V 538 Q 2691,219 2414,64 2138,-91 1772,-91 1169,-91 856,284 544,659 544,1381 Z m 1447,2203 z"
               transform="scale(0.015625)" />
            <path
               id="DejaVuSans-6e"
               d="M 3513,2113 V 0 h -575 v 2094 q 0,497 -194,743 -194,247 -581,247 -466,0 -735,-297 -269,-296 -269,-809 V 0 H 581 v 3500 h 578 v -544 q 207,316 486,472 280,156 646,156 603,0 912,-373 310,-373 310,-1098 z"
               transform="scale(0.015625)" />
            <path
               id="DejaVuSans-4d"
               d="m 628,4666 h 941 L 2759,1491 3956,4666 h 941 V 0 H 4281 V 4097 L 3078,897 H 2444 L 1241,4097 V 0 H 628 Z"
               transform="scale(0.015625)" />
            <path
               id="DejaVuSans-6f"
               d="m 1959,3097 q -462,0 -731,-361 -269,-361 -269,-989 0,-628 267,-989 268,-361 733,-361 460,0 728,362 269,363 269,988 0,622 -269,986 -268,364 -728,364 z m 0,487 q 750,0 1178,-488 429,-487 429,-1349 Q 3566,888 3137,398 2709,-91 1959,-91 1206,-91 779,398 353,888 353,1747 q 0,862 426,1349 427,488 1180,488 z"
               transform="scale(0.015625)" />
            <path
               id="DejaVuSans-76"
               d="M 191,3500 H 800 L 1894,563 2988,3500 h 609 L 2284,0 h -781 z"
               transform="scale(0.015625)" />
            <path
               id="DejaVuSans-74"
               d="M 1172,4494 V 3500 H 2356 V 3053 H 1172 V 1153 q 0,-428 117,-550 117,-122 477,-122 h 590 V 0 H 1766 Q 1100,0 847,248 594,497 594,1153 V 3053 H 172 v 447 h 422 v 994 z"
               transform="scale(0.015625)" />
          </defs>
          <use
             xlink:href="#DejaVuSans-47"
             id="use484" />
          <use
             xlink:href="#DejaVuSans-61"
             x="77.490234"
             id="use486" />
          <use
             xlink:href="#DejaVuSans-75"
             x="138.76953"
             id="use488" />
          <use
             xlink:href="#DejaVuSans-73"
             x="202.14844"
             id="use490" />
          <use
             xlink:href="#DejaVuSans-73"
             x="254.24805"
             id="use492" />
          <use
             xlink:href="#DejaVuSans-69"
             x="306.34766"
             id="use494" />
          <use
             xlink:href="#DejaVuSans-61"
             x="334.13086"
             id="use496" />
          <use
             xlink:href="#DejaVuSans-6e"
             x="395.41016"
             id="use498" />
          <use
             xlink:href="#DejaVuSans-20"
             x="458.78906"
             id="use500" />
          <use
             xlink:href="#DejaVuSans-4d"
             x="490.57617"
             id="use502" />
          <use
             xlink:href="#DejaVuSans-6f"
             x="576.85547"
             id="use504" />
          <use
             xlink:href="#DejaVuSans-76"
             x="638.03711"
             id="use506" />
          <use
             xlink:href="#DejaVuSans-65"
             x="697.2168"
             id="use508" />
          <use
             xlink:href="#DejaVuSans-6d"
             x="758.74023"
             id="use510" />
          <use
             xlink:href="#DejaVuSans-65"
             x="856.15234"
             id="use512" />
          <use
             xlink:href="#DejaVuSans-6e"
             x="917.67578"
             id="use514" />
          <use
             xlink:href="#DejaVuSans-74"
             x="981.05469"
             id="use516" />
        </g>
      </g>
    </g>
  </g>
  <defs
     id="defs526">
    <clipPath
       id="p52a3afe1bf">
      <rect
         x="54"
         y="25.92"
         width="334.79999"
         height="166.32001"
         id="rect523" />
    </clipPath>
  </defs>
</svg>
