<?xml version="1.0" encoding="utf-8" standalone="no"?>
<!DOCTYPE svg PUBLIC "-//W3C//DTD SVG 1.1//EN"
  "http://www.w3.org/Graphics/SVG/1.1/DTD/svg11.dtd">
<svg xmlns:xlink="http://www.w3.org/1999/xlink" width="504pt" height="576pt" viewBox="0 0 504 576" xmlns="http://www.w3.org/2000/svg" version="1.1">
 <metadata>
  <rdf:RDF xmlns:dc="http://purl.org/dc/elements/1.1/" xmlns:cc="http://creativecommons.org/ns#" xmlns:rdf="http://www.w3.org/1999/02/22-rdf-syntax-ns#">
   <cc:Work>
    <dc:type rdf:resource="http://purl.org/dc/dcmitype/StillImage"/>
    <dc:date>2024-07-09T11:08:24.598099</dc:date>
    <dc:format>image/svg+xml</dc:format>
    <dc:creator>
     <cc:Agent>
      <dc:title>Matplotlib v3.6.1, https://matplotlib.org/</dc:title>
     </cc:Agent>
    </dc:creator>
   </cc:Work>
  </rdf:RDF>
 </metadata>
 <defs>
  <style type="text/css">*{stroke-linejoin: round; stroke-linecap: butt}</style>
 </defs>
 <g id="figure_1">
  <g id="patch_1">
   <path d="M 0 576 
L 504 576 
L 504 0 
L 0 0 
z
" style="fill: #ffffff"/>
  </g>
  <g id="axes_1">
   <g id="patch_2">
    <path d="M 46.92 115.7 
L 486.9 115.7 
L 486.9 26.88 
L 46.92 26.88 
z
" style="fill: #ffffff"/>
   </g>
   <g id="matplotlib.axis_1">
    <g id="xtick_1">
     <g id="line2d_1">
      <defs>
       <path id="mc3d0b7040f" d="M 0 0 
L 0 3.5 
" style="stroke: #000000; stroke-width: 0.8"/>
      </defs>
      <g>
       <use xlink:href="#mc3d0b7040f" x="46.92" y="120.7" style="stroke: #000000; stroke-width: 0.8"/>
      </g>
     </g>
     <g id="text_1">
      <!-- 0 -->
      <g transform="translate(43.73875 135.298437) scale(0.1 -0.1)">
       <defs>
        <path id="DejaVuSans-30" d="M 2034 4250 
Q 1547 4250 1301 3770 
Q 1056 3291 1056 2328 
Q 1056 1369 1301 889 
Q 1547 409 2034 409 
Q 2525 409 2770 889 
Q 3016 1369 3016 2328 
Q 3016 3291 2770 3770 
Q 2525 4250 2034 4250 
z
M 2034 4750 
Q 2819 4750 3233 4129 
Q 3647 3509 3647 2328 
Q 3647 1150 3233 529 
Q 2819 -91 2034 -91 
Q 1250 -91 836 529 
Q 422 1150 422 2328 
Q 422 3509 836 4129 
Q 1250 4750 2034 4750 
z
" transform="scale(0.015625)"/>
       </defs>
       <use xlink:href="#DejaVuSans-30"/>
      </g>
     </g>
    </g>
    <g id="xtick_2">
     <g id="line2d_2">
      <g>
       <use xlink:href="#mc3d0b7040f" x="109.774286" y="120.7" style="stroke: #000000; stroke-width: 0.8"/>
      </g>
     </g>
     <g id="text_2">
      <!-- 10 -->
      <g transform="translate(103.411786 135.298437) scale(0.1 -0.1)">
       <defs>
        <path id="DejaVuSans-31" d="M 794 531 
L 1825 531 
L 1825 4091 
L 703 3866 
L 703 4441 
L 1819 4666 
L 2450 4666 
L 2450 531 
L 3481 531 
L 3481 0 
L 794 0 
L 794 531 
z
" transform="scale(0.015625)"/>
       </defs>
       <use xlink:href="#DejaVuSans-31"/>
       <use xlink:href="#DejaVuSans-30" x="63.623047"/>
      </g>
     </g>
    </g>
    <g id="xtick_3">
     <g id="line2d_3">
      <g>
       <use xlink:href="#mc3d0b7040f" x="172.628571" y="120.7" style="stroke: #000000; stroke-width: 0.8"/>
      </g>
     </g>
     <g id="text_3">
      <!-- 20 -->
      <g transform="translate(166.266071 135.298437) scale(0.1 -0.1)">
       <defs>
        <path id="DejaVuSans-32" d="M 1228 531 
L 3431 531 
L 3431 0 
L 469 0 
L 469 531 
Q 828 903 1448 1529 
Q 2069 2156 2228 2338 
Q 2531 2678 2651 2914 
Q 2772 3150 2772 3378 
Q 2772 3750 2511 3984 
Q 2250 4219 1831 4219 
Q 1534 4219 1204 4116 
Q 875 4013 500 3803 
L 500 4441 
Q 881 4594 1212 4672 
Q 1544 4750 1819 4750 
Q 2544 4750 2975 4387 
Q 3406 4025 3406 3419 
Q 3406 3131 3298 2873 
Q 3191 2616 2906 2266 
Q 2828 2175 2409 1742 
Q 1991 1309 1228 531 
z
" transform="scale(0.015625)"/>
       </defs>
       <use xlink:href="#DejaVuSans-32"/>
       <use xlink:href="#DejaVuSans-30" x="63.623047"/>
      </g>
     </g>
    </g>
    <g id="xtick_4">
     <g id="line2d_4">
      <g>
       <use xlink:href="#mc3d0b7040f" x="235.482857" y="120.7" style="stroke: #000000; stroke-width: 0.8"/>
      </g>
     </g>
     <g id="text_4">
      <!-- 30 -->
      <g transform="translate(229.120357 135.298437) scale(0.1 -0.1)">
       <defs>
        <path id="DejaVuSans-33" d="M 2597 2516 
Q 3050 2419 3304 2112 
Q 3559 1806 3559 1356 
Q 3559 666 3084 287 
Q 2609 -91 1734 -91 
Q 1441 -91 1130 -33 
Q 819 25 488 141 
L 488 750 
Q 750 597 1062 519 
Q 1375 441 1716 441 
Q 2309 441 2620 675 
Q 2931 909 2931 1356 
Q 2931 1769 2642 2001 
Q 2353 2234 1838 2234 
L 1294 2234 
L 1294 2753 
L 1863 2753 
Q 2328 2753 2575 2939 
Q 2822 3125 2822 3475 
Q 2822 3834 2567 4026 
Q 2313 4219 1838 4219 
Q 1578 4219 1281 4162 
Q 984 4106 628 3988 
L 628 4550 
Q 988 4650 1302 4700 
Q 1616 4750 1894 4750 
Q 2613 4750 3031 4423 
Q 3450 4097 3450 3541 
Q 3450 3153 3228 2886 
Q 3006 2619 2597 2516 
z
" transform="scale(0.015625)"/>
       </defs>
       <use xlink:href="#DejaVuSans-33"/>
       <use xlink:href="#DejaVuSans-30" x="63.623047"/>
      </g>
     </g>
    </g>
    <g id="xtick_5">
     <g id="line2d_5">
      <g>
       <use xlink:href="#mc3d0b7040f" x="298.337143" y="120.7" style="stroke: #000000; stroke-width: 0.8"/>
      </g>
     </g>
     <g id="text_5">
      <!-- 40 -->
      <g transform="translate(291.974643 135.298437) scale(0.1 -0.1)">
       <defs>
        <path id="DejaVuSans-34" d="M 2419 4116 
L 825 1625 
L 2419 1625 
L 2419 4116 
z
M 2253 4666 
L 3047 4666 
L 3047 1625 
L 3713 1625 
L 3713 1100 
L 3047 1100 
L 3047 0 
L 2419 0 
L 2419 1100 
L 313 1100 
L 313 1709 
L 2253 4666 
z
" transform="scale(0.015625)"/>
       </defs>
       <use xlink:href="#DejaVuSans-34"/>
       <use xlink:href="#DejaVuSans-30" x="63.623047"/>
      </g>
     </g>
    </g>
    <g id="xtick_6">
     <g id="line2d_6">
      <g>
       <use xlink:href="#mc3d0b7040f" x="361.191429" y="120.7" style="stroke: #000000; stroke-width: 0.8"/>
      </g>
     </g>
     <g id="text_6">
      <!-- 50 -->
      <g transform="translate(354.828929 135.298437) scale(0.1 -0.1)">
       <defs>
        <path id="DejaVuSans-35" d="M 691 4666 
L 3169 4666 
L 3169 4134 
L 1269 4134 
L 1269 2991 
Q 1406 3038 1543 3061 
Q 1681 3084 1819 3084 
Q 2600 3084 3056 2656 
Q 3513 2228 3513 1497 
Q 3513 744 3044 326 
Q 2575 -91 1722 -91 
Q 1428 -91 1123 -41 
Q 819 9 494 109 
L 494 744 
Q 775 591 1075 516 
Q 1375 441 1709 441 
Q 2250 441 2565 725 
Q 2881 1009 2881 1497 
Q 2881 1984 2565 2268 
Q 2250 2553 1709 2553 
Q 1456 2553 1204 2497 
Q 953 2441 691 2322 
L 691 4666 
z
" transform="scale(0.015625)"/>
       </defs>
       <use xlink:href="#DejaVuSans-35"/>
       <use xlink:href="#DejaVuSans-30" x="63.623047"/>
      </g>
     </g>
    </g>
    <g id="xtick_7">
     <g id="line2d_7">
      <g>
       <use xlink:href="#mc3d0b7040f" x="424.045714" y="120.7" style="stroke: #000000; stroke-width: 0.8"/>
      </g>
     </g>
     <g id="text_7">
      <!-- 60 -->
      <g transform="translate(417.683214 135.298437) scale(0.1 -0.1)">
       <defs>
        <path id="DejaVuSans-36" d="M 2113 2584 
Q 1688 2584 1439 2293 
Q 1191 2003 1191 1497 
Q 1191 994 1439 701 
Q 1688 409 2113 409 
Q 2538 409 2786 701 
Q 3034 994 3034 1497 
Q 3034 2003 2786 2293 
Q 2538 2584 2113 2584 
z
M 3366 4563 
L 3366 3988 
Q 3128 4100 2886 4159 
Q 2644 4219 2406 4219 
Q 1781 4219 1451 3797 
Q 1122 3375 1075 2522 
Q 1259 2794 1537 2939 
Q 1816 3084 2150 3084 
Q 2853 3084 3261 2657 
Q 3669 2231 3669 1497 
Q 3669 778 3244 343 
Q 2819 -91 2113 -91 
Q 1303 -91 875 529 
Q 447 1150 447 2328 
Q 447 3434 972 4092 
Q 1497 4750 2381 4750 
Q 2619 4750 2861 4703 
Q 3103 4656 3366 4563 
z
" transform="scale(0.015625)"/>
       </defs>
       <use xlink:href="#DejaVuSans-36"/>
       <use xlink:href="#DejaVuSans-30" x="63.623047"/>
      </g>
     </g>
    </g>
    <g id="xtick_8">
     <g id="line2d_8">
      <g>
       <use xlink:href="#mc3d0b7040f" x="486.9" y="120.7" style="stroke: #000000; stroke-width: 0.8"/>
      </g>
     </g>
     <g id="text_8">
      <!-- 70 -->
      <g transform="translate(480.5375 135.298437) scale(0.1 -0.1)">
       <defs>
        <path id="DejaVuSans-37" d="M 525 4666 
L 3525 4666 
L 3525 4397 
L 1831 0 
L 1172 0 
L 2766 4134 
L 525 4134 
L 525 4666 
z
" transform="scale(0.015625)"/>
       </defs>
       <use xlink:href="#DejaVuSans-37"/>
       <use xlink:href="#DejaVuSans-30" x="63.623047"/>
      </g>
     </g>
    </g>
   </g>
   <g id="matplotlib.axis_2">
    <g id="ytick_1">
     <g id="line2d_9">
      <defs>
       <path id="ma66f461f4c" d="M 0 0 
L -3.5 0 
" style="stroke: #000000; stroke-width: 0.8"/>
      </defs>
      <g>
       <use xlink:href="#ma66f461f4c" x="41.92" y="97.027614" style="stroke: #000000; stroke-width: 0.8"/>
      </g>
     </g>
     <g id="text_9">
      <!-- −0.5 -->
      <g transform="translate(10.637188 100.826832) scale(0.1 -0.1)">
       <defs>
        <path id="DejaVuSans-2212" d="M 678 2272 
L 4684 2272 
L 4684 1741 
L 678 1741 
L 678 2272 
z
" transform="scale(0.015625)"/>
        <path id="DejaVuSans-2e" d="M 684 794 
L 1344 794 
L 1344 0 
L 684 0 
L 684 794 
z
" transform="scale(0.015625)"/>
       </defs>
       <use xlink:href="#DejaVuSans-2212"/>
       <use xlink:href="#DejaVuSans-30" x="83.789062"/>
       <use xlink:href="#DejaVuSans-2e" x="147.412109"/>
       <use xlink:href="#DejaVuSans-35" x="179.199219"/>
      </g>
     </g>
    </g>
    <g id="ytick_2">
     <g id="line2d_10">
      <g>
       <use xlink:href="#ma66f461f4c" x="41.92" y="71.794659" style="stroke: #000000; stroke-width: 0.8"/>
      </g>
     </g>
     <g id="text_10">
      <!-- 0.0 -->
      <g transform="translate(19.016875 75.593878) scale(0.1 -0.1)">
       <use xlink:href="#DejaVuSans-30"/>
       <use xlink:href="#DejaVuSans-2e" x="63.623047"/>
       <use xlink:href="#DejaVuSans-30" x="95.410156"/>
      </g>
     </g>
    </g>
    <g id="ytick_3">
     <g id="line2d_11">
      <g>
       <use xlink:href="#ma66f461f4c" x="41.92" y="46.561705" style="stroke: #000000; stroke-width: 0.8"/>
      </g>
     </g>
     <g id="text_11">
      <!-- 0.5 -->
      <g transform="translate(19.016875 50.360923) scale(0.1 -0.1)">
       <use xlink:href="#DejaVuSans-30"/>
       <use xlink:href="#DejaVuSans-2e" x="63.623047"/>
       <use xlink:href="#DejaVuSans-35" x="95.410156"/>
      </g>
     </g>
    </g>
   </g>
   <g id="line2d_12">
    <path d="M 46.92 71.794659 
L 49.434171 59.638591 
L 50.816966 54.064724 
L 51.822634 50.836271 
L 52.702594 48.70042 
L 53.456846 47.435228 
L 54.085389 46.802391 
L 54.588223 46.579633 
L 55.091057 46.611496 
L 55.593891 46.897658 
L 56.096726 47.435228 
L 56.725269 48.452228 
L 57.47952 50.156728 
L 58.35948 52.762668 
L 59.365149 56.454782 
L 60.747943 62.505789 
L 63.010697 73.695377 
L 65.273451 84.50256 
L 66.530537 89.524594 
L 67.536206 92.753048 
L 68.416166 94.888898 
L 69.170417 96.15409 
L 69.79896 96.786927 
L 70.301794 97.009685 
L 70.804629 96.977822 
L 71.307463 96.691661 
L 71.810297 96.15409 
L 72.43884 95.13709 
L 73.193091 93.43259 
L 74.073051 90.82665 
L 75.07872 87.134537 
L 76.461514 81.083529 
L 78.724269 69.893941 
L 80.987023 59.086758 
L 82.244109 54.064724 
L 83.249777 50.836271 
L 84.129737 48.70042 
L 84.883989 47.435228 
L 85.512531 46.802391 
L 86.015366 46.579633 
L 86.5182 46.611496 
L 87.021034 46.897658 
L 87.523869 47.435228 
L 88.152411 48.452228 
L 88.906663 50.156728 
L 89.786623 52.762668 
L 90.792291 56.454782 
L 92.175086 62.505789 
L 94.43784 73.695377 
L 96.700594 84.50256 
L 97.95768 89.524594 
L 98.963349 92.753048 
L 99.843309 94.888898 
L 100.59756 96.15409 
L 101.226103 96.786927 
L 101.728937 97.009685 
L 102.231771 96.977822 
L 102.734606 96.691661 
L 103.23744 96.15409 
L 103.865983 95.13709 
L 104.620234 93.43259 
L 105.500194 90.82665 
L 106.505863 87.134537 
L 107.888657 81.083529 
L 110.151411 69.893941 
L 112.414166 59.086758 
L 113.671251 54.064724 
L 114.67692 50.836271 
L 115.55688 48.70042 
L 116.311131 47.435228 
L 116.939674 46.802391 
L 117.442509 46.579633 
L 117.945343 46.611496 
L 118.448177 46.897658 
L 118.951011 47.435228 
L 119.579554 48.452228 
L 120.333806 50.156728 
L 121.213766 52.762668 
L 122.219434 56.454782 
L 123.602229 62.505789 
L 125.864983 73.695377 
L 128.127737 84.50256 
L 129.384823 89.524594 
L 130.390491 92.753048 
L 131.270451 94.888898 
L 132.024703 96.15409 
L 132.653246 96.786927 
L 133.15608 97.009685 
L 133.658914 96.977822 
L 134.161749 96.691661 
L 134.664583 96.15409 
L 135.293126 95.13709 
L 136.047377 93.43259 
L 136.927337 90.82665 
L 137.933006 87.134537 
L 139.3158 81.083529 
L 141.578554 69.893941 
L 143.841309 59.086758 
L 145.098394 54.064724 
L 146.104063 50.836271 
L 146.984023 48.70042 
L 147.738274 47.435228 
L 148.366817 46.802391 
L 148.869651 46.579633 
L 149.372486 46.611496 
L 149.87532 46.897658 
L 150.378154 47.435228 
L 151.006697 48.452228 
L 151.760949 50.156728 
L 152.640909 52.762668 
L 153.646577 56.454782 
L 155.029371 62.505789 
L 157.292126 73.695377 
L 159.55488 84.50256 
L 160.811966 89.524594 
L 161.817634 92.753048 
L 162.697594 94.888898 
L 163.451846 96.15409 
L 164.080389 96.786927 
L 164.583223 97.009685 
L 165.086057 96.977822 
L 165.588891 96.691661 
L 166.091726 96.15409 
L 166.720269 95.13709 
L 167.47452 93.43259 
L 168.35448 90.82665 
L 169.360149 87.134537 
L 170.742943 81.083529 
L 173.005697 69.893941 
L 175.268451 59.086758 
L 176.525537 54.064724 
L 177.531206 50.836271 
L 178.411166 48.70042 
L 179.165417 47.435228 
L 179.79396 46.802391 
L 180.296794 46.579633 
L 180.799629 46.611496 
L 181.302463 46.897658 
L 181.805297 47.435228 
L 182.43384 48.452228 
L 183.188091 50.156728 
L 184.068051 52.762668 
L 185.07372 56.454782 
L 186.456514 62.505789 
L 188.719269 73.695377 
L 190.982023 84.50256 
L 192.239109 89.524594 
L 193.244777 92.753048 
L 194.124737 94.888898 
L 194.878989 96.15409 
L 195.507531 96.786927 
L 196.010366 97.009685 
L 196.5132 96.977822 
L 197.016034 96.691661 
L 197.518869 96.15409 
L 198.147411 95.13709 
L 198.901663 93.43259 
L 199.781623 90.82665 
L 200.787291 87.134537 
L 202.170086 81.083529 
L 204.43284 69.893941 
L 206.695594 59.086758 
L 207.95268 54.064724 
L 208.958349 50.836271 
L 209.838309 48.70042 
L 210.59256 47.435228 
L 211.221103 46.802391 
L 211.723937 46.579633 
L 212.226771 46.611496 
L 212.729606 46.897658 
L 213.23244 47.435228 
L 213.860983 48.452228 
L 214.615234 50.156728 
L 215.495194 52.762668 
L 216.500863 56.454782 
L 217.883657 62.505789 
L 220.146411 73.695377 
L 222.409166 84.50256 
L 223.666251 89.524594 
L 224.67192 92.753048 
L 225.55188 94.888898 
L 226.306131 96.15409 
L 226.934674 96.786927 
L 227.437509 97.009685 
L 227.940343 96.977822 
L 228.443177 96.691661 
L 228.946011 96.15409 
L 229.574554 95.13709 
L 230.328806 93.43259 
L 231.208766 90.82665 
L 232.214434 87.134537 
L 233.597229 81.083529 
L 235.859983 69.893941 
L 238.122737 59.086758 
L 239.379823 54.064724 
L 240.385491 50.836271 
L 241.265451 48.70042 
L 242.019703 47.435228 
L 242.648246 46.802391 
L 243.15108 46.579633 
L 243.653914 46.611496 
L 244.156749 46.897658 
L 244.659583 47.435228 
L 245.288126 48.452228 
L 246.042377 50.156728 
L 246.922337 52.762668 
L 247.928006 56.454782 
L 249.3108 62.505789 
L 251.573554 73.695377 
L 253.836309 84.50256 
L 255.093394 89.524594 
L 256.099063 92.753048 
L 256.979023 94.888898 
L 257.733274 96.15409 
L 258.361817 96.786927 
L 258.864651 97.009685 
L 259.367486 96.977822 
L 259.87032 96.691661 
L 260.373154 96.15409 
L 261.001697 95.13709 
L 261.755949 93.43259 
L 262.635909 90.82665 
L 263.641577 87.134537 
L 265.024371 81.083529 
L 267.287126 69.893941 
L 269.54988 59.086758 
L 270.806966 54.064724 
L 271.812634 50.836271 
L 272.692594 48.70042 
L 273.446846 47.435228 
L 274.075389 46.802391 
L 274.578223 46.579633 
L 275.081057 46.611496 
L 275.583891 46.897658 
L 276.086726 47.435228 
L 276.715269 48.452228 
L 277.46952 50.156728 
L 278.34948 52.762668 
L 279.355149 56.454782 
L 280.737943 62.505789 
L 283.000697 73.695377 
L 285.263451 84.50256 
L 286.520537 89.524594 
L 287.526206 92.753048 
L 288.406166 94.888898 
L 289.160417 96.15409 
L 289.78896 96.786927 
L 290.291794 97.009685 
L 290.794629 96.977822 
L 291.297463 96.691661 
L 291.800297 96.15409 
L 292.42884 95.13709 
L 293.183091 93.43259 
L 294.063051 90.82665 
L 295.06872 87.134537 
L 296.451514 81.083529 
L 298.714269 69.893941 
L 300.977023 59.086758 
L 302.234109 54.064724 
L 303.239777 50.836271 
L 304.119737 48.70042 
L 304.873989 47.435228 
L 305.502531 46.802391 
L 306.005366 46.579633 
L 306.5082 46.611496 
L 307.011034 46.897658 
L 307.513869 47.435228 
L 308.142411 48.452228 
L 308.896663 50.156728 
L 309.776623 52.762668 
L 310.782291 56.454782 
L 312.165086 62.505789 
L 314.42784 73.695377 
L 316.690594 84.50256 
L 317.94768 89.524594 
L 318.953349 92.753048 
L 319.833309 94.888898 
L 320.58756 96.15409 
L 321.216103 96.786927 
L 321.718937 97.009685 
L 322.221771 96.977822 
L 322.724606 96.691661 
L 323.22744 96.15409 
L 323.855983 95.13709 
L 324.610234 93.43259 
L 325.490194 90.82665 
L 326.495863 87.134537 
L 327.878657 81.083529 
L 330.141411 69.893941 
L 332.404166 59.086758 
L 333.661251 54.064724 
L 334.66692 50.836271 
L 335.54688 48.70042 
L 336.301131 47.435228 
L 336.929674 46.802391 
L 337.432509 46.579633 
L 337.935343 46.611496 
L 338.438177 46.897658 
L 338.941011 47.435228 
L 339.569554 48.452228 
L 340.323806 50.156728 
L 341.203766 52.762668 
L 342.209434 56.454782 
L 343.592229 62.505789 
L 345.854983 73.695377 
L 348.117737 84.50256 
L 349.374823 89.524594 
L 350.380491 92.753048 
L 351.260451 94.888898 
L 352.014703 96.15409 
L 352.643246 96.786927 
L 353.14608 97.009685 
L 353.648914 96.977822 
L 354.151749 96.691661 
L 354.654583 96.15409 
L 355.283126 95.13709 
L 356.037377 93.43259 
L 356.917337 90.82665 
L 357.923006 87.134537 
L 359.3058 81.083529 
L 361.568554 69.893941 
L 363.831309 59.086758 
L 365.088394 54.064724 
L 366.094063 50.836271 
L 366.974023 48.70042 
L 367.728274 47.435228 
L 368.356817 46.802391 
L 368.859651 46.579633 
L 369.362486 46.611496 
L 369.86532 46.897658 
L 370.368154 47.435228 
L 370.996697 48.452228 
L 371.750949 50.156728 
L 372.630909 52.762668 
L 373.636577 56.454782 
L 375.019371 62.505789 
L 377.282126 73.695377 
L 379.54488 84.50256 
L 380.801966 89.524594 
L 381.807634 92.753048 
L 382.687594 94.888898 
L 383.441846 96.15409 
L 384.070389 96.786927 
L 384.573223 97.009685 
L 385.076057 96.977822 
L 385.578891 96.691661 
L 386.081726 96.15409 
L 386.710269 95.13709 
L 387.46452 93.43259 
L 388.34448 90.82665 
L 389.350149 87.134537 
L 390.732943 81.083529 
L 392.995697 69.893941 
L 395.258451 59.086758 
L 396.515537 54.064724 
L 397.521206 50.836271 
L 398.401166 48.70042 
L 399.155417 47.435228 
L 399.78396 46.802391 
L 400.286794 46.579633 
L 400.789629 46.611496 
L 401.292463 46.897658 
L 401.795297 47.435228 
L 402.42384 48.452228 
L 403.178091 50.156728 
L 404.058051 52.762668 
L 405.06372 56.454782 
L 406.446514 62.505789 
L 408.709269 73.695377 
L 410.972023 84.50256 
L 412.229109 89.524594 
L 413.234777 92.753048 
L 414.114737 94.888898 
L 414.868989 96.15409 
L 415.497531 96.786927 
L 416.000366 97.009685 
L 416.5032 96.977822 
L 417.006034 96.691661 
L 417.508869 96.15409 
L 418.137411 95.13709 
L 418.891663 93.43259 
L 419.771623 90.82665 
L 420.777291 87.134537 
L 422.160086 81.083529 
L 423.920006 72.428766 
L 423.920006 72.428766 
" clip-path="url(#pc63a10c342)" style="fill: none; stroke: #1f77b4; stroke-linecap: square"/>
   </g>
   <g id="line2d_13">
    <path d="M 46.92 71.794659 
L 57.228103 69.308066 
L 62.884989 68.181621 
L 67.661914 67.450846 
L 72.061714 66.995066 
L 76.335806 66.773548 
L 80.484189 66.77683 
L 84.75828 67.004959 
L 89.15808 67.467073 
L 93.809297 68.181621 
L 99.089057 69.225735 
L 105.751611 70.786805 
L 121.968017 74.68349 
L 127.247777 75.662836 
L 131.898994 76.305511 
L 136.298794 76.690491 
L 140.572886 76.83876 
L 144.721269 76.763353 
L 148.99536 76.463145 
L 153.39516 75.932622 
L 158.172086 75.13203 
L 163.703263 73.972041 
L 171.371486 72.111537 
L 183.062383 69.280523 
L 188.59356 68.181621 
L 193.370486 67.450846 
L 197.770286 66.995066 
L 202.044377 66.773548 
L 206.19276 66.77683 
L 210.466851 67.004959 
L 214.866651 67.467073 
L 219.517869 68.181621 
L 224.797629 69.225735 
L 231.460183 70.786805 
L 247.676589 74.68349 
L 252.956349 75.662836 
L 257.607566 76.305511 
L 262.007366 76.690491 
L 266.281457 76.83876 
L 270.42984 76.763353 
L 274.703931 76.463145 
L 279.103731 75.932622 
L 283.880657 75.13203 
L 289.411834 73.972041 
L 297.080057 72.111537 
L 308.770954 69.280523 
L 314.302131 68.181621 
L 319.079057 67.450846 
L 323.478857 66.995066 
L 327.752949 66.773548 
L 331.901331 66.77683 
L 336.175423 67.004959 
L 340.575223 67.467073 
L 345.22644 68.181621 
L 350.5062 69.225735 
L 357.168754 70.786805 
L 373.38516 74.68349 
L 378.66492 75.662836 
L 383.316137 76.305511 
L 387.715937 76.690491 
L 391.990029 76.83876 
L 396.138411 76.763353 
L 400.412503 76.463145 
L 404.812303 75.932622 
L 409.589229 75.13203 
L 415.120406 73.972041 
L 422.788629 72.111537 
L 423.920006 71.826368 
L 423.920006 71.826368 
" clip-path="url(#pc63a10c342)" style="fill: none; stroke: #d62728; stroke-linecap: square"/>
   </g>
   <g id="line2d_14">
    <path d="M 46.92 71.29 
L 60.747943 60.270186 
L 68.164749 54.652927 
L 74.324469 50.260232 
L 79.855646 46.585378 
L 84.883989 43.505383 
L 89.660914 40.838815 
L 94.186423 38.56824 
L 98.460514 36.66931 
L 102.608897 35.067722 
L 106.631571 33.752388 
L 110.528537 32.709496 
L 114.299794 31.92306 
L 118.071051 31.360316 
L 121.842309 31.02446 
L 125.613566 30.9174 
L 129.384823 31.039746 
L 133.15608 31.390802 
L 136.927337 31.968573 
L 140.698594 32.769776 
L 144.59556 33.827567 
L 148.618234 35.157802 
L 152.640909 36.721618 
L 156.915 38.627778 
L 161.3148 40.838815 
L 165.966017 43.431854 
L 170.868651 46.425184 
L 176.148411 49.91484 
L 181.931006 54.008372 
L 188.59356 59.007301 
L 196.890326 65.526102 
L 222.283457 85.67932 
L 228.820303 90.472409 
L 234.602897 94.442227 
L 239.882657 97.798158 
L 244.785291 100.650899 
L 249.3108 103.034608 
L 253.7106 105.103291 
L 257.858983 106.814531 
L 261.881657 108.240782 
L 265.778623 109.39475 
L 269.675589 110.317531 
L 273.446846 110.98514 
L 277.218103 111.427194 
L 280.98936 111.64118 
L 284.760617 111.625883 
L 288.531874 111.381389 
L 292.303131 110.909088 
L 296.074389 110.211663 
L 299.971354 109.258707 
L 303.86832 108.07539 
L 307.890994 106.619896 
L 312.039377 104.879821 
L 316.313469 102.845629 
L 320.838977 100.441131 
L 325.615903 97.644759 
L 330.644246 94.442227 
L 336.175423 90.650732 
L 342.335143 86.152192 
L 349.62624 80.542073 
L 360.060051 72.203132 
L 375.019371 60.270186 
L 382.436177 54.652927 
L 388.595897 50.260232 
L 394.127074 46.585378 
L 399.155417 43.505383 
L 403.932343 40.838815 
L 408.457851 38.56824 
L 412.731943 36.66931 
L 416.880326 35.067722 
L 420.903 33.752388 
L 423.920006 32.924731 
L 423.920006 32.924731 
" clip-path="url(#pc63a10c342)" style="fill: none; stroke: #2ca02c; stroke-linecap: square"/>
   </g>
   <g id="patch_3">
    <path d="M 41.92 115.7 
L 41.92 26.88 
" style="fill: none; stroke: #7f7f7f; stroke-width: 0.8; stroke-linejoin: miter; stroke-linecap: square"/>
   </g>
   <g id="patch_4">
    <path d="M 46.92 120.7 
L 486.9 120.7 
" style="fill: none; stroke: #7f7f7f; stroke-width: 0.8; stroke-linejoin: miter; stroke-linecap: square"/>
   </g>
   <g id="text_12">
    <!-- Acceleration Components -->
    <g transform="translate(183.329141 20.88) scale(0.13 -0.13)">
     <defs>
      <path id="DejaVuSans-41" d="M 2188 4044 
L 1331 1722 
L 3047 1722 
L 2188 4044 
z
M 1831 4666 
L 2547 4666 
L 4325 0 
L 3669 0 
L 3244 1197 
L 1141 1197 
L 716 0 
L 50 0 
L 1831 4666 
z
" transform="scale(0.015625)"/>
      <path id="DejaVuSans-63" d="M 3122 3366 
L 3122 2828 
Q 2878 2963 2633 3030 
Q 2388 3097 2138 3097 
Q 1578 3097 1268 2742 
Q 959 2388 959 1747 
Q 959 1106 1268 751 
Q 1578 397 2138 397 
Q 2388 397 2633 464 
Q 2878 531 3122 666 
L 3122 134 
Q 2881 22 2623 -34 
Q 2366 -91 2075 -91 
Q 1284 -91 818 406 
Q 353 903 353 1747 
Q 353 2603 823 3093 
Q 1294 3584 2113 3584 
Q 2378 3584 2631 3529 
Q 2884 3475 3122 3366 
z
" transform="scale(0.015625)"/>
      <path id="DejaVuSans-65" d="M 3597 1894 
L 3597 1613 
L 953 1613 
Q 991 1019 1311 708 
Q 1631 397 2203 397 
Q 2534 397 2845 478 
Q 3156 559 3463 722 
L 3463 178 
Q 3153 47 2828 -22 
Q 2503 -91 2169 -91 
Q 1331 -91 842 396 
Q 353 884 353 1716 
Q 353 2575 817 3079 
Q 1281 3584 2069 3584 
Q 2775 3584 3186 3129 
Q 3597 2675 3597 1894 
z
M 3022 2063 
Q 3016 2534 2758 2815 
Q 2500 3097 2075 3097 
Q 1594 3097 1305 2825 
Q 1016 2553 972 2059 
L 3022 2063 
z
" transform="scale(0.015625)"/>
      <path id="DejaVuSans-6c" d="M 603 4863 
L 1178 4863 
L 1178 0 
L 603 0 
L 603 4863 
z
" transform="scale(0.015625)"/>
      <path id="DejaVuSans-72" d="M 2631 2963 
Q 2534 3019 2420 3045 
Q 2306 3072 2169 3072 
Q 1681 3072 1420 2755 
Q 1159 2438 1159 1844 
L 1159 0 
L 581 0 
L 581 3500 
L 1159 3500 
L 1159 2956 
Q 1341 3275 1631 3429 
Q 1922 3584 2338 3584 
Q 2397 3584 2469 3576 
Q 2541 3569 2628 3553 
L 2631 2963 
z
" transform="scale(0.015625)"/>
      <path id="DejaVuSans-61" d="M 2194 1759 
Q 1497 1759 1228 1600 
Q 959 1441 959 1056 
Q 959 750 1161 570 
Q 1363 391 1709 391 
Q 2188 391 2477 730 
Q 2766 1069 2766 1631 
L 2766 1759 
L 2194 1759 
z
M 3341 1997 
L 3341 0 
L 2766 0 
L 2766 531 
Q 2569 213 2275 61 
Q 1981 -91 1556 -91 
Q 1019 -91 701 211 
Q 384 513 384 1019 
Q 384 1609 779 1909 
Q 1175 2209 1959 2209 
L 2766 2209 
L 2766 2266 
Q 2766 2663 2505 2880 
Q 2244 3097 1772 3097 
Q 1472 3097 1187 3025 
Q 903 2953 641 2809 
L 641 3341 
Q 956 3463 1253 3523 
Q 1550 3584 1831 3584 
Q 2591 3584 2966 3190 
Q 3341 2797 3341 1997 
z
" transform="scale(0.015625)"/>
      <path id="DejaVuSans-74" d="M 1172 4494 
L 1172 3500 
L 2356 3500 
L 2356 3053 
L 1172 3053 
L 1172 1153 
Q 1172 725 1289 603 
Q 1406 481 1766 481 
L 2356 481 
L 2356 0 
L 1766 0 
Q 1100 0 847 248 
Q 594 497 594 1153 
L 594 3053 
L 172 3053 
L 172 3500 
L 594 3500 
L 594 4494 
L 1172 4494 
z
" transform="scale(0.015625)"/>
      <path id="DejaVuSans-69" d="M 603 3500 
L 1178 3500 
L 1178 0 
L 603 0 
L 603 3500 
z
M 603 4863 
L 1178 4863 
L 1178 4134 
L 603 4134 
L 603 4863 
z
" transform="scale(0.015625)"/>
      <path id="DejaVuSans-6f" d="M 1959 3097 
Q 1497 3097 1228 2736 
Q 959 2375 959 1747 
Q 959 1119 1226 758 
Q 1494 397 1959 397 
Q 2419 397 2687 759 
Q 2956 1122 2956 1747 
Q 2956 2369 2687 2733 
Q 2419 3097 1959 3097 
z
M 1959 3584 
Q 2709 3584 3137 3096 
Q 3566 2609 3566 1747 
Q 3566 888 3137 398 
Q 2709 -91 1959 -91 
Q 1206 -91 779 398 
Q 353 888 353 1747 
Q 353 2609 779 3096 
Q 1206 3584 1959 3584 
z
" transform="scale(0.015625)"/>
      <path id="DejaVuSans-6e" d="M 3513 2113 
L 3513 0 
L 2938 0 
L 2938 2094 
Q 2938 2591 2744 2837 
Q 2550 3084 2163 3084 
Q 1697 3084 1428 2787 
Q 1159 2491 1159 1978 
L 1159 0 
L 581 0 
L 581 3500 
L 1159 3500 
L 1159 2956 
Q 1366 3272 1645 3428 
Q 1925 3584 2291 3584 
Q 2894 3584 3203 3211 
Q 3513 2838 3513 2113 
z
" transform="scale(0.015625)"/>
      <path id="DejaVuSans-20" transform="scale(0.015625)"/>
      <path id="DejaVuSans-43" d="M 4122 4306 
L 4122 3641 
Q 3803 3938 3442 4084 
Q 3081 4231 2675 4231 
Q 1875 4231 1450 3742 
Q 1025 3253 1025 2328 
Q 1025 1406 1450 917 
Q 1875 428 2675 428 
Q 3081 428 3442 575 
Q 3803 722 4122 1019 
L 4122 359 
Q 3791 134 3420 21 
Q 3050 -91 2638 -91 
Q 1578 -91 968 557 
Q 359 1206 359 2328 
Q 359 3453 968 4101 
Q 1578 4750 2638 4750 
Q 3056 4750 3426 4639 
Q 3797 4528 4122 4306 
z
" transform="scale(0.015625)"/>
      <path id="DejaVuSans-6d" d="M 3328 2828 
Q 3544 3216 3844 3400 
Q 4144 3584 4550 3584 
Q 5097 3584 5394 3201 
Q 5691 2819 5691 2113 
L 5691 0 
L 5113 0 
L 5113 2094 
Q 5113 2597 4934 2840 
Q 4756 3084 4391 3084 
Q 3944 3084 3684 2787 
Q 3425 2491 3425 1978 
L 3425 0 
L 2847 0 
L 2847 2094 
Q 2847 2600 2669 2842 
Q 2491 3084 2119 3084 
Q 1678 3084 1418 2786 
Q 1159 2488 1159 1978 
L 1159 0 
L 581 0 
L 581 3500 
L 1159 3500 
L 1159 2956 
Q 1356 3278 1631 3431 
Q 1906 3584 2284 3584 
Q 2666 3584 2933 3390 
Q 3200 3197 3328 2828 
z
" transform="scale(0.015625)"/>
      <path id="DejaVuSans-70" d="M 1159 525 
L 1159 -1331 
L 581 -1331 
L 581 3500 
L 1159 3500 
L 1159 2969 
Q 1341 3281 1617 3432 
Q 1894 3584 2278 3584 
Q 2916 3584 3314 3078 
Q 3713 2572 3713 1747 
Q 3713 922 3314 415 
Q 2916 -91 2278 -91 
Q 1894 -91 1617 61 
Q 1341 213 1159 525 
z
M 3116 1747 
Q 3116 2381 2855 2742 
Q 2594 3103 2138 3103 
Q 1681 3103 1420 2742 
Q 1159 2381 1159 1747 
Q 1159 1113 1420 752 
Q 1681 391 2138 391 
Q 2594 391 2855 752 
Q 3116 1113 3116 1747 
z
" transform="scale(0.015625)"/>
      <path id="DejaVuSans-73" d="M 2834 3397 
L 2834 2853 
Q 2591 2978 2328 3040 
Q 2066 3103 1784 3103 
Q 1356 3103 1142 2972 
Q 928 2841 928 2578 
Q 928 2378 1081 2264 
Q 1234 2150 1697 2047 
L 1894 2003 
Q 2506 1872 2764 1633 
Q 3022 1394 3022 966 
Q 3022 478 2636 193 
Q 2250 -91 1575 -91 
Q 1294 -91 989 -36 
Q 684 19 347 128 
L 347 722 
Q 666 556 975 473 
Q 1284 391 1588 391 
Q 1994 391 2212 530 
Q 2431 669 2431 922 
Q 2431 1156 2273 1281 
Q 2116 1406 1581 1522 
L 1381 1569 
Q 847 1681 609 1914 
Q 372 2147 372 2553 
Q 372 3047 722 3315 
Q 1072 3584 1716 3584 
Q 2034 3584 2315 3537 
Q 2597 3491 2834 3397 
z
" transform="scale(0.015625)"/>
     </defs>
     <use xlink:href="#DejaVuSans-41"/>
     <use xlink:href="#DejaVuSans-63" x="66.658203"/>
     <use xlink:href="#DejaVuSans-63" x="121.638672"/>
     <use xlink:href="#DejaVuSans-65" x="176.619141"/>
     <use xlink:href="#DejaVuSans-6c" x="238.142578"/>
     <use xlink:href="#DejaVuSans-65" x="265.925781"/>
     <use xlink:href="#DejaVuSans-72" x="327.449219"/>
     <use xlink:href="#DejaVuSans-61" x="368.5625"/>
     <use xlink:href="#DejaVuSans-74" x="429.841797"/>
     <use xlink:href="#DejaVuSans-69" x="469.050781"/>
     <use xlink:href="#DejaVuSans-6f" x="496.833984"/>
     <use xlink:href="#DejaVuSans-6e" x="558.015625"/>
     <use xlink:href="#DejaVuSans-20" x="621.394531"/>
     <use xlink:href="#DejaVuSans-43" x="653.181641"/>
     <use xlink:href="#DejaVuSans-6f" x="723.005859"/>
     <use xlink:href="#DejaVuSans-6d" x="784.1875"/>
     <use xlink:href="#DejaVuSans-70" x="881.599609"/>
     <use xlink:href="#DejaVuSans-6f" x="945.076172"/>
     <use xlink:href="#DejaVuSans-6e" x="1006.257812"/>
     <use xlink:href="#DejaVuSans-65" x="1069.636719"/>
     <use xlink:href="#DejaVuSans-6e" x="1131.160156"/>
     <use xlink:href="#DejaVuSans-74" x="1194.539062"/>
     <use xlink:href="#DejaVuSans-73" x="1233.748047"/>
    </g>
   </g>
   <g id="legend_1">
    <g id="line2d_15">
     <path d="M 443.98125 39.978438 
L 453.98125 39.978438 
L 463.98125 39.978438 
" style="fill: none; stroke: #1f77b4; stroke-linecap: square"/>
    </g>
    <g id="text_13">
     <!-- x -->
     <g transform="translate(471.98125 43.478438) scale(0.1 -0.1)">
      <defs>
       <path id="DejaVuSans-78" d="M 3513 3500 
L 2247 1797 
L 3578 0 
L 2900 0 
L 1881 1375 
L 863 0 
L 184 0 
L 1544 1831 
L 300 3500 
L 978 3500 
L 1906 2253 
L 2834 3500 
L 3513 3500 
z
" transform="scale(0.015625)"/>
      </defs>
      <use xlink:href="#DejaVuSans-78"/>
     </g>
    </g>
    <g id="line2d_16">
     <path d="M 443.98125 54.656563 
L 453.98125 54.656563 
L 463.98125 54.656563 
" style="fill: none; stroke: #d62728; stroke-linecap: square"/>
    </g>
    <g id="text_14">
     <!-- y -->
     <g transform="translate(471.98125 58.156563) scale(0.1 -0.1)">
      <defs>
       <path id="DejaVuSans-79" d="M 2059 -325 
Q 1816 -950 1584 -1140 
Q 1353 -1331 966 -1331 
L 506 -1331 
L 506 -850 
L 844 -850 
Q 1081 -850 1212 -737 
Q 1344 -625 1503 -206 
L 1606 56 
L 191 3500 
L 800 3500 
L 1894 763 
L 2988 3500 
L 3597 3500 
L 2059 -325 
z
" transform="scale(0.015625)"/>
      </defs>
      <use xlink:href="#DejaVuSans-79"/>
     </g>
    </g>
    <g id="line2d_17">
     <path d="M 443.98125 69.334688 
L 453.98125 69.334688 
L 463.98125 69.334688 
" style="fill: none; stroke: #2ca02c; stroke-linecap: square"/>
    </g>
    <g id="text_15">
     <!-- z -->
     <g transform="translate(471.98125 72.834688) scale(0.1 -0.1)">
      <defs>
       <path id="DejaVuSans-7a" d="M 353 3500 
L 3084 3500 
L 3084 2975 
L 922 459 
L 3084 459 
L 3084 0 
L 275 0 
L 275 525 
L 2438 3041 
L 353 3041 
L 353 3500 
z
" transform="scale(0.015625)"/>
      </defs>
      <use xlink:href="#DejaVuSans-7a"/>
     </g>
    </g>
   </g>
  </g>
  <g id="axes_2">
   <g id="patch_5">
    <path d="M 46.92 253.48 
L 486.9 253.48 
L 486.9 164.66 
L 46.92 164.66 
z
" style="fill: #ffffff"/>
   </g>
   <g id="matplotlib.axis_3">
    <g id="xtick_9">
     <g id="line2d_18">
      <g>
       <use xlink:href="#mc3d0b7040f" x="46.92" y="258.48" style="stroke: #000000; stroke-width: 0.8"/>
      </g>
     </g>
     <g id="text_16">
      <!-- 0 -->
      <g transform="translate(43.73875 273.078437) scale(0.1 -0.1)">
       <use xlink:href="#DejaVuSans-30"/>
      </g>
     </g>
    </g>
    <g id="xtick_10">
     <g id="line2d_19">
      <g>
       <use xlink:href="#mc3d0b7040f" x="109.774286" y="258.48" style="stroke: #000000; stroke-width: 0.8"/>
      </g>
     </g>
     <g id="text_17">
      <!-- 10 -->
      <g transform="translate(103.411786 273.078437) scale(0.1 -0.1)">
       <use xlink:href="#DejaVuSans-31"/>
       <use xlink:href="#DejaVuSans-30" x="63.623047"/>
      </g>
     </g>
    </g>
    <g id="xtick_11">
     <g id="line2d_20">
      <g>
       <use xlink:href="#mc3d0b7040f" x="172.628571" y="258.48" style="stroke: #000000; stroke-width: 0.8"/>
      </g>
     </g>
     <g id="text_18">
      <!-- 20 -->
      <g transform="translate(166.266071 273.078437) scale(0.1 -0.1)">
       <use xlink:href="#DejaVuSans-32"/>
       <use xlink:href="#DejaVuSans-30" x="63.623047"/>
      </g>
     </g>
    </g>
    <g id="xtick_12">
     <g id="line2d_21">
      <g>
       <use xlink:href="#mc3d0b7040f" x="235.482857" y="258.48" style="stroke: #000000; stroke-width: 0.8"/>
      </g>
     </g>
     <g id="text_19">
      <!-- 30 -->
      <g transform="translate(229.120357 273.078437) scale(0.1 -0.1)">
       <use xlink:href="#DejaVuSans-33"/>
       <use xlink:href="#DejaVuSans-30" x="63.623047"/>
      </g>
     </g>
    </g>
    <g id="xtick_13">
     <g id="line2d_22">
      <g>
       <use xlink:href="#mc3d0b7040f" x="298.337143" y="258.48" style="stroke: #000000; stroke-width: 0.8"/>
      </g>
     </g>
     <g id="text_20">
      <!-- 40 -->
      <g transform="translate(291.974643 273.078437) scale(0.1 -0.1)">
       <use xlink:href="#DejaVuSans-34"/>
       <use xlink:href="#DejaVuSans-30" x="63.623047"/>
      </g>
     </g>
    </g>
    <g id="xtick_14">
     <g id="line2d_23">
      <g>
       <use xlink:href="#mc3d0b7040f" x="361.191429" y="258.48" style="stroke: #000000; stroke-width: 0.8"/>
      </g>
     </g>
     <g id="text_21">
      <!-- 50 -->
      <g transform="translate(354.828929 273.078437) scale(0.1 -0.1)">
       <use xlink:href="#DejaVuSans-35"/>
       <use xlink:href="#DejaVuSans-30" x="63.623047"/>
      </g>
     </g>
    </g>
    <g id="xtick_15">
     <g id="line2d_24">
      <g>
       <use xlink:href="#mc3d0b7040f" x="424.045714" y="258.48" style="stroke: #000000; stroke-width: 0.8"/>
      </g>
     </g>
     <g id="text_22">
      <!-- 60 -->
      <g transform="translate(417.683214 273.078437) scale(0.1 -0.1)">
       <use xlink:href="#DejaVuSans-36"/>
       <use xlink:href="#DejaVuSans-30" x="63.623047"/>
      </g>
     </g>
    </g>
    <g id="xtick_16">
     <g id="line2d_25">
      <g>
       <use xlink:href="#mc3d0b7040f" x="486.9" y="258.48" style="stroke: #000000; stroke-width: 0.8"/>
      </g>
     </g>
     <g id="text_23">
      <!-- 70 -->
      <g transform="translate(480.5375 273.078437) scale(0.1 -0.1)">
       <use xlink:href="#DejaVuSans-37"/>
       <use xlink:href="#DejaVuSans-30" x="63.623047"/>
      </g>
     </g>
    </g>
   </g>
   <g id="matplotlib.axis_4">
    <g id="ytick_4">
     <g id="line2d_26">
      <g>
       <use xlink:href="#ma66f461f4c" x="41.92" y="231.339013" style="stroke: #000000; stroke-width: 0.8"/>
      </g>
     </g>
     <g id="text_24">
      <!-- −50 -->
      <g transform="translate(13.815313 235.138231) scale(0.1 -0.1)">
       <use xlink:href="#DejaVuSans-2212"/>
       <use xlink:href="#DejaVuSans-35" x="83.789062"/>
       <use xlink:href="#DejaVuSans-30" x="147.412109"/>
      </g>
     </g>
    </g>
    <g id="ytick_5">
     <g id="line2d_27">
      <g>
       <use xlink:href="#ma66f461f4c" x="41.92" y="206.744949" style="stroke: #000000; stroke-width: 0.8"/>
      </g>
     </g>
     <g id="text_25">
      <!-- 0 -->
      <g transform="translate(28.5575 210.544168) scale(0.1 -0.1)">
       <use xlink:href="#DejaVuSans-30"/>
      </g>
     </g>
    </g>
    <g id="ytick_6">
     <g id="line2d_28">
      <g>
       <use xlink:href="#ma66f461f4c" x="41.92" y="182.150886" style="stroke: #000000; stroke-width: 0.8"/>
      </g>
     </g>
     <g id="text_26">
      <!-- 50 -->
      <g transform="translate(22.195 185.950105) scale(0.1 -0.1)">
       <use xlink:href="#DejaVuSans-35"/>
       <use xlink:href="#DejaVuSans-30" x="63.623047"/>
      </g>
     </g>
    </g>
   </g>
   <g id="line2d_29">
    <path d="M 46.92 206.744949 
L 47.171417 183.996789 
L 47.422834 176.877847 
L 47.79996 172.997731 
L 48.177086 171.329323 
L 48.67992 170.203307 
L 49.182754 169.590877 
L 49.811297 169.152783 
L 50.691257 168.840396 
L 51.822634 168.702118 
L 53.708263 168.758403 
L 54.83964 168.97468 
L 55.971017 169.40948 
L 57.102394 170.081042 
L 58.108063 170.928215 
L 59.113731 172.0955 
L 59.993691 173.484136 
L 60.747943 175.058078 
L 61.502194 177.126915 
L 62.256446 179.884937 
L 63.010697 183.595345 
L 63.764949 188.553634 
L 64.644909 196.093875 
L 67.033371 218.074516 
L 67.787623 222.614317 
L 68.541874 225.905072 
L 69.296126 228.238386 
L 70.050377 229.85683 
L 70.804629 230.932034 
L 71.433171 231.496106 
L 72.061714 231.804598 
L 72.690257 231.884256 
L 73.3188 231.749667 
L 73.947343 231.40549 
L 74.701594 230.709832 
L 75.455846 229.685357 
L 76.210097 228.297097 
L 77.090057 226.156209 
L 77.970017 223.379557 
L 78.975686 219.363197 
L 80.107063 213.856138 
L 83.249777 197.887207 
L 84.255446 194.193485 
L 85.135406 191.726041 
L 86.015366 189.907888 
L 86.769617 188.806653 
L 87.523869 188.080824 
L 88.152411 187.738199 
L 88.780954 187.61944 
L 89.409497 187.716585 
L 90.03804 188.026645 
L 90.792291 188.682011 
L 91.546543 189.655303 
L 92.426503 191.210915 
L 93.306463 193.238531 
L 94.312131 196.138253 
L 95.569217 200.542647 
L 99.7176 215.918959 
L 100.723269 218.530611 
L 101.603229 220.294504 
L 102.483189 221.588407 
L 103.23744 222.34364 
L 103.991691 222.789355 
L 104.620234 222.933305 
L 105.248777 222.875219 
L 105.87732 222.616857 
L 106.631571 222.0415 
L 107.385823 221.172561 
L 108.265783 219.780429 
L 109.145743 217.977229 
L 110.151411 215.429547 
L 111.408497 211.620617 
L 115.682589 198.016453 
L 116.813966 195.478766 
L 117.819634 193.7915 
L 118.699594 192.751665 
L 119.453846 192.175538 
L 120.208097 191.88257 
L 120.83664 191.851076 
L 121.465183 192.01162 
L 122.219434 192.458581 
L 122.973686 193.186176 
L 123.853646 194.395468 
L 124.733606 195.99596 
L 125.739274 198.29175 
L 126.99636 201.77809 
L 129.133406 208.573111 
L 130.893326 213.865526 
L 132.150411 216.940847 
L 133.15608 218.853886 
L 134.03604 220.109577 
L 134.916 220.977265 
L 135.670251 221.417465 
L 136.424503 221.581182 
L 137.053046 221.507062 
L 137.681589 221.240219 
L 138.43584 220.661521 
L 139.190091 219.794232 
L 140.070051 218.408283 
L 141.07572 216.325797 
L 142.207097 213.375611 
L 143.589891 209.068258 
L 146.984023 198.127667 
L 148.1154 195.313327 
L 149.121069 193.360313 
L 150.001029 192.087322 
L 150.880989 191.215781 
L 151.63524 190.782375 
L 152.263783 190.640338 
L 152.892326 190.698345 
L 153.520869 190.959766 
L 154.27512 191.550484 
L 155.029371 192.457247 
L 155.783623 193.697314 
L 156.663583 195.586605 
L 157.669251 198.34148 
L 158.800629 202.146537 
L 160.560549 209.011375 
L 162.446177 216.138199 
L 163.577554 219.633508 
L 164.583223 222.090973 
L 165.463183 223.732888 
L 166.343143 224.919711 
L 167.097394 225.591288 
L 167.851646 225.953577 
L 168.480189 226.020625 
L 169.108731 225.870056 
L 169.737274 225.492575 
L 170.365817 224.873236 
L 171.120069 223.781121 
L 171.87432 222.264429 
L 172.628571 220.270027 
L 173.508531 217.274589 
L 174.5142 212.938311 
L 175.771286 206.39921 
L 178.03404 194.441214 
L 179.039709 190.252078 
L 180.045377 186.993078 
L 180.925337 184.842815 
L 181.805297 183.25969 
L 182.559549 182.29657 
L 183.3138 181.66027 
L 184.068051 181.331564 
L 184.696594 181.290283 
L 185.325137 181.469215 
L 185.95368 181.887984 
L 186.582223 182.57989 
L 187.210766 183.595955 
L 187.839309 185.010507 
L 188.467851 186.927853 
L 189.096394 189.487159 
L 189.850646 193.641924 
L 190.604897 199.210895 
L 191.610566 208.624658 
L 193.119069 222.785281 
L 193.999029 228.821762 
L 194.75328 232.597011 
L 195.507531 235.380719 
L 196.261783 237.439231 
L 197.141743 239.184322 
L 198.021703 240.418785 
L 198.901663 241.272203 
L 199.781623 241.819169 
L 200.661583 242.093064 
L 201.415834 242.10803 
L 202.170086 241.889676 
L 202.798629 241.481868 
L 203.427171 240.791725 
L 204.055714 239.686302 
L 204.558549 238.341836 
L 205.061383 236.343888 
L 205.564217 233.269511 
L 206.067051 228.336169 
L 206.569886 220.277722 
L 207.198429 205.090221 
L 207.826971 190.550093 
L 208.329806 183.16559 
L 208.83264 178.656537 
L 209.335474 175.829985 
L 209.964017 173.626246 
L 210.59256 172.271661 
L 211.221103 171.42527 
L 211.849646 170.91021 
L 212.603897 170.595991 
L 213.358149 170.530389 
L 214.1124 170.670125 
L 214.99236 171.075064 
L 215.87232 171.755972 
L 216.75228 172.766755 
L 217.506531 173.971871 
L 218.260783 175.598993 
L 219.015034 177.809394 
L 219.769286 180.842984 
L 220.523537 185.028846 
L 221.277789 190.714511 
L 222.157749 199.289576 
L 223.917669 216.948313 
L 224.67192 222.234508 
L 225.426171 226.031256 
L 226.180423 228.692965 
L 226.934674 230.528993 
L 227.688926 231.757232 
L 228.443177 232.519688 
L 229.07172 232.864129 
L 229.700263 232.977742 
L 230.328806 232.877603 
L 230.957349 232.569848 
L 231.7116 231.921387 
L 232.465851 230.947442 
L 233.220103 229.610373 
L 233.974354 227.858345 
L 234.854314 225.208698 
L 235.734274 221.824485 
L 236.739943 217.034858 
L 238.248446 208.558279 
L 239.882657 199.685605 
L 240.888326 195.338773 
L 241.768286 192.387091 
L 242.648246 190.174776 
L 243.402497 188.795637 
L 244.156749 187.833104 
L 244.911 187.240927 
L 245.539543 187.0062 
L 246.168086 186.993486 
L 246.796629 187.196556 
L 247.425171 187.614426 
L 248.179423 188.404647 
L 248.933674 189.52213 
L 249.813634 191.261486 
L 250.693594 193.490738 
L 251.699263 196.635897 
L 252.956349 201.333537 
L 256.476189 214.987886 
L 257.607566 218.198523 
L 258.613234 220.353788 
L 259.493194 221.718906 
L 260.247446 222.526086 
L 261.001697 223.017748 
L 261.63024 223.196803 
L 262.258783 223.171883 
L 262.887326 222.945383 
L 263.641577 222.407043 
L 264.395829 221.573805 
L 265.275789 220.220631 
L 266.155749 218.450792 
L 267.161417 215.928422 
L 268.418503 212.118965 
L 272.944011 197.550852 
L 273.94968 195.2957 
L 274.955349 193.585226 
L 275.835309 192.530636 
L 276.58956 191.945016 
L 277.343811 191.644951 
L 277.972354 191.609235 
L 278.600897 191.767164 
L 279.355149 192.213454 
L 280.1094 192.943789 
L 280.98936 194.162089 
L 281.86932 195.780053 
L 282.874989 198.109399 
L 284.132074 201.66185 
L 286.143411 208.205093 
L 288.02904 214.049307 
L 289.286126 217.201019 
L 290.291794 219.159444 
L 291.171754 220.444676 
L 292.051714 221.334017 
L 292.805966 221.787472 
L 293.560217 221.960031 
L 294.18876 221.889943 
L 294.817303 221.623862 
L 295.571554 221.041067 
L 296.325806 220.162955 
L 297.205766 218.753458 
L 298.085726 216.921518 
L 299.091394 214.323166 
L 300.34848 210.423374 
L 304.622571 196.474105 
L 305.753949 193.882664 
L 306.759617 192.161759 
L 307.639577 191.102387 
L 308.393829 190.517648 
L 309.14808 190.225835 
L 309.776623 190.205553 
L 310.405166 190.390222 
L 311.033709 190.785012 
L 311.78796 191.547439 
L 312.542211 192.641723 
L 313.422171 194.363637 
L 314.302131 196.587065 
L 315.3078 199.737082 
L 316.564886 204.445957 
L 319.959017 217.661309 
L 321.090394 220.95227 
L 322.096063 223.193485 
L 322.976023 224.641019 
L 323.730274 225.520922 
L 324.484526 226.08311 
L 325.113069 226.314966 
L 325.741611 226.331972 
L 326.370154 226.12915 
L 326.998697 225.695957 
L 327.62724 225.01586 
L 328.381491 223.841499 
L 329.135743 222.228972 
L 329.889994 220.121937 
L 330.769954 216.972618 
L 331.775623 212.441045 
L 333.158417 204.973273 
L 335.044046 194.819825 
L 336.175423 189.98433 
L 337.181091 186.695319 
L 338.061051 184.526879 
L 338.941011 182.92709 
L 339.820971 181.816808 
L 340.575223 181.212124 
L 341.329474 180.908003 
L 341.958017 180.883016 
L 342.58656 181.07581 
L 343.215103 181.507905 
L 343.843646 182.215573 
L 344.472189 183.254754 
L 345.100731 184.708184 
L 345.729274 186.694624 
L 346.357817 189.377389 
L 346.98636 192.960855 
L 347.740611 198.721819 
L 348.620571 207.417362 
L 350.254783 224.06077 
L 351.009034 229.633034 
L 351.763286 233.74089 
L 352.517537 236.743034 
L 353.271789 238.96435 
L 354.151749 240.878337 
L 355.031709 242.293877 
L 356.037377 243.499502 
L 357.168754 244.502277 
L 358.551549 245.400173 
L 360.437177 246.313794 
L 362.071389 247.157965 
L 362.699931 247.71241 
L 363.202766 248.505261 
L 363.7056 249.42816 
L 363.831309 248.491623 
L 363.957017 246.060102 
L 364.082726 240.294841 
L 364.58556 175.86235 
L 364.836977 172.329713 
L 365.214103 170.455868 
L 365.591229 169.656973 
L 366.094063 169.138277 
L 366.722606 168.848015 
L 367.602566 168.740693 
L 368.608234 168.85071 
L 369.739611 169.18922 
L 370.870989 169.750262 
L 372.002366 170.578348 
L 373.008034 171.613115 
L 373.887994 172.838668 
L 374.767954 174.486168 
L 375.522206 176.37172 
L 376.276457 178.874141 
L 377.030709 182.234085 
L 377.78496 186.746491 
L 378.539211 192.643872 
L 379.670589 203.594165 
L 380.927674 215.261594 
L 381.807634 221.254004 
L 382.561886 224.928524 
L 383.316137 227.550519 
L 384.070389 229.384819 
L 384.82464 230.625989 
L 385.578891 231.404842 
L 386.207434 231.761869 
L 386.835977 231.885777 
L 387.46452 231.793372 
L 388.093063 231.491163 
L 388.847314 230.847858 
L 389.601566 229.880265 
L 390.355817 228.555581 
L 391.235777 226.499227 
L 392.115737 223.817718 
L 393.121406 219.914329 
L 394.252783 214.509339 
L 397.646914 197.3735 
L 398.652583 193.79843 
L 399.532543 191.428382 
L 400.412503 189.696526 
L 401.166754 188.660656 
L 401.921006 187.993829 
L 402.549549 187.696868 
L 403.178091 187.62176 
L 403.806634 187.761578 
L 404.435177 188.114261 
L 405.189429 188.821816 
L 405.94368 189.849357 
L 406.82364 191.471305 
L 407.7036 193.567353 
L 408.709269 196.542645 
L 409.966354 201.020706 
L 413.737611 215.167903 
L 414.868989 218.239031 
L 415.874657 220.294504 
L 416.754617 221.588407 
L 417.508869 222.34364 
L 418.26312 222.789355 
L 418.891663 222.933305 
L 419.520206 222.875219 
L 420.148749 222.616857 
L 420.903 222.0415 
L 421.657251 221.172561 
L 422.537211 219.780429 
L 423.417171 217.977229 
L 423.920006 216.765779 
L 423.920006 216.765779 
" clip-path="url(#pe808eea7b9)" style="fill: none; stroke: #1f77b4; stroke-linecap: square"/>
   </g>
   <g id="patch_6">
    <path d="M 41.92 253.48 
L 41.92 164.66 
" style="fill: none; stroke: #7f7f7f; stroke-width: 0.8; stroke-linejoin: miter; stroke-linecap: square"/>
   </g>
   <g id="patch_7">
    <path d="M 46.92 258.48 
L 486.9 258.48 
" style="fill: none; stroke: #7f7f7f; stroke-width: 0.8; stroke-linejoin: miter; stroke-linecap: square"/>
   </g>
   <g id="text_27">
    <!-- Forearm Pitch -->
    <g transform="translate(222.145312 158.66) scale(0.13 -0.13)">
     <defs>
      <path id="DejaVuSans-46" d="M 628 4666 
L 3309 4666 
L 3309 4134 
L 1259 4134 
L 1259 2759 
L 3109 2759 
L 3109 2228 
L 1259 2228 
L 1259 0 
L 628 0 
L 628 4666 
z
" transform="scale(0.015625)"/>
      <path id="DejaVuSans-50" d="M 1259 4147 
L 1259 2394 
L 2053 2394 
Q 2494 2394 2734 2622 
Q 2975 2850 2975 3272 
Q 2975 3691 2734 3919 
Q 2494 4147 2053 4147 
L 1259 4147 
z
M 628 4666 
L 2053 4666 
Q 2838 4666 3239 4311 
Q 3641 3956 3641 3272 
Q 3641 2581 3239 2228 
Q 2838 1875 2053 1875 
L 1259 1875 
L 1259 0 
L 628 0 
L 628 4666 
z
" transform="scale(0.015625)"/>
      <path id="DejaVuSans-68" d="M 3513 2113 
L 3513 0 
L 2938 0 
L 2938 2094 
Q 2938 2591 2744 2837 
Q 2550 3084 2163 3084 
Q 1697 3084 1428 2787 
Q 1159 2491 1159 1978 
L 1159 0 
L 581 0 
L 581 4863 
L 1159 4863 
L 1159 2956 
Q 1366 3272 1645 3428 
Q 1925 3584 2291 3584 
Q 2894 3584 3203 3211 
Q 3513 2838 3513 2113 
z
" transform="scale(0.015625)"/>
     </defs>
     <use xlink:href="#DejaVuSans-46"/>
     <use xlink:href="#DejaVuSans-6f" x="53.894531"/>
     <use xlink:href="#DejaVuSans-72" x="115.076172"/>
     <use xlink:href="#DejaVuSans-65" x="153.939453"/>
     <use xlink:href="#DejaVuSans-61" x="215.462891"/>
     <use xlink:href="#DejaVuSans-72" x="276.742188"/>
     <use xlink:href="#DejaVuSans-6d" x="316.105469"/>
     <use xlink:href="#DejaVuSans-20" x="413.517578"/>
     <use xlink:href="#DejaVuSans-50" x="445.304688"/>
     <use xlink:href="#DejaVuSans-69" x="503.357422"/>
     <use xlink:href="#DejaVuSans-74" x="531.140625"/>
     <use xlink:href="#DejaVuSans-63" x="570.349609"/>
     <use xlink:href="#DejaVuSans-68" x="625.330078"/>
    </g>
   </g>
  </g>
  <g id="axes_3">
   <g id="patch_8">
    <path d="M 46.92 391.26 
L 486.9 391.26 
L 486.9 302.44 
L 46.92 302.44 
z
" style="fill: #ffffff"/>
   </g>
   <g id="matplotlib.axis_5">
    <g id="xtick_17">
     <g id="line2d_30">
      <g>
       <use xlink:href="#mc3d0b7040f" x="46.92" y="396.26" style="stroke: #000000; stroke-width: 0.8"/>
      </g>
     </g>
     <g id="text_28">
      <!-- 0 -->
      <g transform="translate(43.73875 410.858437) scale(0.1 -0.1)">
       <use xlink:href="#DejaVuSans-30"/>
      </g>
     </g>
    </g>
    <g id="xtick_18">
     <g id="line2d_31">
      <g>
       <use xlink:href="#mc3d0b7040f" x="109.774286" y="396.26" style="stroke: #000000; stroke-width: 0.8"/>
      </g>
     </g>
     <g id="text_29">
      <!-- 10 -->
      <g transform="translate(103.411786 410.858437) scale(0.1 -0.1)">
       <use xlink:href="#DejaVuSans-31"/>
       <use xlink:href="#DejaVuSans-30" x="63.623047"/>
      </g>
     </g>
    </g>
    <g id="xtick_19">
     <g id="line2d_32">
      <g>
       <use xlink:href="#mc3d0b7040f" x="172.628571" y="396.26" style="stroke: #000000; stroke-width: 0.8"/>
      </g>
     </g>
     <g id="text_30">
      <!-- 20 -->
      <g transform="translate(166.266071 410.858437) scale(0.1 -0.1)">
       <use xlink:href="#DejaVuSans-32"/>
       <use xlink:href="#DejaVuSans-30" x="63.623047"/>
      </g>
     </g>
    </g>
    <g id="xtick_20">
     <g id="line2d_33">
      <g>
       <use xlink:href="#mc3d0b7040f" x="235.482857" y="396.26" style="stroke: #000000; stroke-width: 0.8"/>
      </g>
     </g>
     <g id="text_31">
      <!-- 30 -->
      <g transform="translate(229.120357 410.858437) scale(0.1 -0.1)">
       <use xlink:href="#DejaVuSans-33"/>
       <use xlink:href="#DejaVuSans-30" x="63.623047"/>
      </g>
     </g>
    </g>
    <g id="xtick_21">
     <g id="line2d_34">
      <g>
       <use xlink:href="#mc3d0b7040f" x="298.337143" y="396.26" style="stroke: #000000; stroke-width: 0.8"/>
      </g>
     </g>
     <g id="text_32">
      <!-- 40 -->
      <g transform="translate(291.974643 410.858437) scale(0.1 -0.1)">
       <use xlink:href="#DejaVuSans-34"/>
       <use xlink:href="#DejaVuSans-30" x="63.623047"/>
      </g>
     </g>
    </g>
    <g id="xtick_22">
     <g id="line2d_35">
      <g>
       <use xlink:href="#mc3d0b7040f" x="361.191429" y="396.26" style="stroke: #000000; stroke-width: 0.8"/>
      </g>
     </g>
     <g id="text_33">
      <!-- 50 -->
      <g transform="translate(354.828929 410.858437) scale(0.1 -0.1)">
       <use xlink:href="#DejaVuSans-35"/>
       <use xlink:href="#DejaVuSans-30" x="63.623047"/>
      </g>
     </g>
    </g>
    <g id="xtick_23">
     <g id="line2d_36">
      <g>
       <use xlink:href="#mc3d0b7040f" x="424.045714" y="396.26" style="stroke: #000000; stroke-width: 0.8"/>
      </g>
     </g>
     <g id="text_34">
      <!-- 60 -->
      <g transform="translate(417.683214 410.858437) scale(0.1 -0.1)">
       <use xlink:href="#DejaVuSans-36"/>
       <use xlink:href="#DejaVuSans-30" x="63.623047"/>
      </g>
     </g>
    </g>
    <g id="xtick_24">
     <g id="line2d_37">
      <g>
       <use xlink:href="#mc3d0b7040f" x="486.9" y="396.26" style="stroke: #000000; stroke-width: 0.8"/>
      </g>
     </g>
     <g id="text_35">
      <!-- 70 -->
      <g transform="translate(480.5375 410.858437) scale(0.1 -0.1)">
       <use xlink:href="#DejaVuSans-37"/>
       <use xlink:href="#DejaVuSans-30" x="63.623047"/>
      </g>
     </g>
    </g>
   </g>
   <g id="matplotlib.axis_6">
    <g id="ytick_7">
     <g id="line2d_38">
      <g>
       <use xlink:href="#ma66f461f4c" x="41.92" y="387.25646" style="stroke: #000000; stroke-width: 0.8"/>
      </g>
     </g>
     <g id="text_36">
      <!-- 0.0 -->
      <g transform="translate(19.016875 391.055678) scale(0.1 -0.1)">
       <use xlink:href="#DejaVuSans-30"/>
       <use xlink:href="#DejaVuSans-2e" x="63.623047"/>
       <use xlink:href="#DejaVuSans-30" x="95.410156"/>
      </g>
     </g>
    </g>
    <g id="ytick_8">
     <g id="line2d_39">
      <g>
       <use xlink:href="#ma66f461f4c" x="41.92" y="345.053442" style="stroke: #000000; stroke-width: 0.8"/>
      </g>
     </g>
     <g id="text_37">
      <!-- 0.5 -->
      <g transform="translate(19.016875 348.852661) scale(0.1 -0.1)">
       <use xlink:href="#DejaVuSans-30"/>
       <use xlink:href="#DejaVuSans-2e" x="63.623047"/>
       <use xlink:href="#DejaVuSans-35" x="95.410156"/>
      </g>
     </g>
    </g>
    <g id="ytick_9">
     <g id="line2d_40">
      <g>
       <use xlink:href="#ma66f461f4c" x="41.92" y="302.850425" style="stroke: #000000; stroke-width: 0.8"/>
      </g>
     </g>
     <g id="text_38">
      <!-- 1.0 -->
      <g transform="translate(19.016875 306.649643) scale(0.1 -0.1)">
       <use xlink:href="#DejaVuSans-31"/>
       <use xlink:href="#DejaVuSans-2e" x="63.623047"/>
       <use xlink:href="#DejaVuSans-30" x="95.410156"/>
      </g>
     </g>
    </g>
   </g>
   <g id="line2d_41">
    <path d="M 46.92 387.222727 
L 47.297126 386.929153 
L 47.674251 386.265097 
L 48.177086 384.797862 
L 48.805629 382.052366 
L 49.55988 377.488061 
L 52.576886 356.937938 
L 53.582554 352.241104 
L 54.336806 349.664638 
L 54.965349 348.177621 
L 55.468183 347.431927 
L 55.971017 347.083744 
L 56.348143 347.081967 
L 56.725269 347.299046 
L 57.228103 347.919732 
L 57.730937 348.902153 
L 58.35948 350.599499 
L 59.23944 353.721065 
L 60.747943 360.22078 
L 61.753611 364.19392 
L 62.382154 365.905005 
L 62.75928 366.498402 
L 63.136406 366.713831 
L 63.387823 366.63597 
L 63.764949 366.183706 
L 64.142074 365.341956 
L 64.644909 363.672827 
L 65.39916 360.257029 
L 66.907663 351.944991 
L 68.416166 344.136262 
L 69.421834 340.077646 
L 70.176086 337.841589 
L 70.804629 336.563453 
L 71.307463 335.939501 
L 71.810297 335.673488 
L 72.187423 335.707045 
L 72.564549 335.936255 
L 73.067383 336.53548 
L 73.695926 337.726245 
L 74.450177 339.725408 
L 75.455846 343.123048 
L 77.844309 351.632569 
L 78.472851 353.116781 
L 78.975686 353.854038 
L 79.352811 354.108225 
L 79.729937 354.093483 
L 80.107063 353.809663 
L 80.609897 353.032116 
L 81.23844 351.495032 
L 82.1184 348.564193 
L 85.261114 337.270756 
L 86.015366 335.556725 
L 86.643909 334.617288 
L 87.146743 334.207142 
L 87.649577 334.106664 
L 88.026703 334.233265 
L 88.529537 334.66378 
L 89.15808 335.598055 
L 89.912331 337.231251 
L 90.918 340.059801 
L 93.306463 347.094781 
L 93.935006 348.269806 
L 94.43784 348.819817 
L 94.814966 348.975037 
L 95.192091 348.898792 
L 95.569217 348.59025 
L 96.072051 347.831692 
L 96.700594 346.38429 
L 97.580554 343.646555 
L 100.974686 332.196581 
L 101.728937 330.692573 
L 102.35748 329.930619 
L 102.860314 329.665469 
L 103.23744 329.672646 
L 103.614566 329.856878 
L 104.1174 330.373972 
L 104.745943 331.439202 
L 105.500194 333.277873 
L 106.380154 336.059626 
L 108.014366 342.190579 
L 109.271451 346.549975 
L 110.025703 348.450279 
L 110.528537 349.273723 
L 111.031371 349.689505 
L 111.408497 349.722125 
L 111.785623 349.517568 
L 112.288457 348.896546 
L 112.917 347.631704 
L 113.79696 345.196286 
L 116.562549 336.934564 
L 117.3168 335.504617 
L 117.945343 334.780727 
L 118.448177 334.538108 
L 118.825303 334.560646 
L 119.328137 334.867167 
L 119.830971 335.48739 
L 120.459514 336.688236 
L 121.213766 338.702485 
L 122.219434 342.182265 
L 125.362149 353.856012 
L 125.990691 355.08807 
L 126.367817 355.484053 
L 126.744943 355.603266 
L 127.122069 355.442636 
L 127.499194 355.010455 
L 128.002029 354.046044 
L 128.630571 352.31882 
L 129.63624 348.775644 
L 131.647577 341.487501 
L 132.527537 339.147617 
L 133.15608 338.001671 
L 133.658914 337.444151 
L 134.161749 337.227194 
L 134.538874 337.295462 
L 134.916 337.564758 
L 135.418834 338.237044 
L 136.047377 339.573169 
L 136.801629 341.870435 
L 137.681589 345.411 
L 138.812966 351.021338 
L 141.201429 363.28498 
L 141.829971 365.364425 
L 142.332806 366.321591 
L 142.709931 366.576239 
L 142.961349 366.519992 
L 143.338474 366.10496 
L 143.7156 365.319781 
L 144.344143 363.321723 
L 145.224103 359.580119 
L 147.361149 350.19305 
L 148.241109 347.40757 
L 148.869651 346.026321 
L 149.372486 345.326772 
L 149.87532 345.006864 
L 150.252446 345.022926 
L 150.629571 345.261351 
L 151.132406 345.926213 
L 151.63524 346.984733 
L 152.263783 348.84902 
L 153.018034 351.843816 
L 153.897994 356.294249 
L 155.029371 363.281239 
L 157.040709 376.294653 
L 157.543543 377.961758 
L 157.920669 378.443138 
L 158.172086 378.387005 
L 158.423503 378.029233 
L 158.800629 376.93817 
L 159.303463 374.525171 
L 160.183423 368.650535 
L 161.943343 356.955048 
L 162.949011 351.61704 
L 163.828971 348.034897 
L 164.583223 345.866979 
L 165.211766 344.733811 
L 165.7146 344.279211 
L 166.091726 344.203522 
L 166.468851 344.354164 
L 166.845977 344.728422 
L 167.348811 345.567353 
L 167.977354 347.139342 
L 168.731606 349.732217 
L 169.611566 353.583164 
L 171.245777 362.036602 
L 172.251446 366.706029 
L 172.879989 368.65457 
L 173.257114 369.295744 
L 173.508531 369.475425 
L 173.759949 369.449679 
L 174.011366 369.21792 
L 174.388491 368.495016 
L 174.891326 366.892128 
L 175.519869 364.074237 
L 176.776954 357.087697 
L 178.411166 348.289321 
L 179.416834 344.04268 
L 180.171086 341.664543 
L 180.799629 340.264681 
L 181.302463 339.539045 
L 181.805297 339.165461 
L 182.182423 339.113108 
L 182.559549 339.250671 
L 183.062383 339.716474 
L 183.690926 340.717083 
L 184.445177 342.441603 
L 185.576554 345.753726 
L 187.210766 350.602711 
L 187.965017 352.14184 
L 188.467851 352.718418 
L 188.844977 352.871047 
L 189.222103 352.767221 
L 189.599229 352.402513 
L 190.102063 351.521451 
L 190.730606 349.844961 
L 191.610566 346.661959 
L 193.370486 339.02775 
L 194.75328 333.546919 
L 195.63324 330.850303 
L 196.387491 329.180457 
L 197.016034 328.283197 
L 197.518869 327.896859 
L 198.021703 327.801561 
L 198.524537 327.985971 
L 199.027371 328.431162 
L 199.655914 329.313129 
L 200.535874 331.027061 
L 203.55288 337.440634 
L 204.181423 338.054856 
L 204.684257 338.207896 
L 205.061383 338.109209 
L 205.564217 337.687758 
L 206.067051 336.944932 
L 206.695594 335.607023 
L 207.575554 333.127316 
L 209.209766 327.623409 
L 210.59256 323.285017 
L 211.47252 321.147452 
L 212.226771 319.848011 
L 212.855314 319.183176 
L 213.358149 318.933374 
L 213.860983 318.931111 
L 214.363817 319.165513 
L 214.99236 319.762839 
L 215.746611 320.855823 
L 216.877989 323.003264 
L 218.637909 326.389798 
L 219.39216 327.387289 
L 220.020703 327.847242 
L 220.523537 327.929569 
L 221.026371 327.741253 
L 221.529206 327.281658 
L 222.157749 326.347212 
L 222.912 324.772246 
L 224.043377 321.779592 
L 226.306131 315.605552 
L 227.186091 313.831752 
L 227.940343 312.791882 
L 228.568886 312.30777 
L 229.07172 312.180785 
L 229.574554 312.283594 
L 230.077389 312.607111 
L 230.705931 313.296622 
L 231.460183 314.478626 
L 232.59156 316.737886 
L 234.477189 320.56354 
L 235.23144 321.649206 
L 235.859983 322.207576 
L 236.362817 322.390429 
L 236.865651 322.32461 
L 237.368486 322.010281 
L 237.997029 321.288215 
L 238.75128 320.007387 
L 239.756949 317.810526 
L 242.145411 312.397907 
L 243.025371 311.022402 
L 243.653914 310.395555 
L 244.156749 310.133763 
L 244.659583 310.094588 
L 245.162417 310.279319 
L 245.665251 310.682138 
L 246.293794 311.472097 
L 247.048046 312.784928 
L 248.179423 315.282812 
L 250.442177 320.419324 
L 251.196429 321.602778 
L 251.824971 322.225363 
L 252.327806 322.454032 
L 252.83064 322.434021 
L 253.333474 322.17012 
L 253.962017 321.524241 
L 254.716269 320.363773 
L 255.847646 318.127143 
L 257.607566 314.621974 
L 258.487526 313.363668 
L 259.116069 312.805148 
L 259.618903 312.596236 
L 260.121737 312.613839 
L 260.624571 312.8643 
L 261.127406 313.346762 
L 261.755949 314.263107 
L 262.5102 315.778257 
L 263.515869 318.353773 
L 266.658583 326.937414 
L 267.412834 328.1956 
L 268.041377 328.802678 
L 268.544211 328.978229 
L 269.047046 328.880023 
L 269.54988 328.524973 
L 270.178423 327.766587 
L 271.058383 326.268533 
L 273.698263 321.362276 
L 274.452514 320.546928 
L 274.955349 320.267784 
L 275.458183 320.226321 
L 275.961017 320.436716 
L 276.463851 320.905723 
L 277.092394 321.853809 
L 277.846646 323.495921 
L 278.726606 326.018885 
L 279.983691 330.409504 
L 281.995029 337.523173 
L 282.874989 339.814865 
L 283.503531 340.898937 
L 284.006366 341.383059 
L 284.383491 341.514281 
L 284.760617 341.449707 
L 285.263451 341.076443 
L 285.766286 340.41137 
L 286.520537 338.986437 
L 287.903331 335.722304 
L 289.160417 333.005886 
L 289.914669 331.869216 
L 290.543211 331.328177 
L 291.046046 331.201431 
L 291.423171 331.297883 
L 291.926006 331.691515 
L 292.42884 332.392603 
L 293.057383 333.697443 
L 293.811634 335.861758 
L 294.691594 339.115515 
L 295.94868 344.73462 
L 297.960017 353.773337 
L 298.714269 356.175981 
L 299.217103 357.221628 
L 299.594229 357.668486 
L 299.971354 357.812431 
L 300.34848 357.654827 
L 300.725606 357.209786 
L 301.22844 356.215284 
L 301.856983 354.453249 
L 302.98836 350.459138 
L 304.496863 345.194396 
L 305.376823 342.885254 
L 306.005366 341.766091 
L 306.5082 341.237035 
L 306.885326 341.068526 
L 307.262451 341.102902 
L 307.639577 341.344313 
L 308.142411 341.991599 
L 308.645246 343.010003 
L 309.273789 344.794401 
L 310.02804 347.649447 
L 310.908 351.866567 
L 312.165086 359.162984 
L 314.050714 370.237362 
L 314.679257 372.530828 
L 315.056383 373.256351 
L 315.3078 373.440905 
L 315.559217 373.381315 
L 315.810634 373.079968 
L 316.18776 372.194438 
L 316.690594 370.297834 
L 317.444846 366.381826 
L 319.959017 352.473974 
L 320.838977 348.946485 
L 321.593229 346.766839 
L 322.221771 345.598586 
L 322.724606 345.105617 
L 323.101731 344.997565 
L 323.478857 345.114332 
L 323.855983 345.454538 
L 324.358817 346.250074 
L 324.98736 347.775569 
L 325.741611 350.333164 
L 326.621571 354.189858 
L 328.004366 361.514909 
L 329.261451 367.941356 
L 329.889994 370.152381 
L 330.26712 370.932304 
L 330.644246 371.237333 
L 330.895663 371.16511 
L 331.14708 370.872109 
L 331.524206 370.03294 
L 332.02704 368.241624 
L 332.781291 364.480656 
L 336.175423 345.935383 
L 337.055383 342.792778 
L 337.809634 340.930994 
L 338.438177 339.995548 
L 338.941011 339.654075 
L 339.318137 339.63224 
L 339.695263 339.806049 
L 340.198097 340.329565 
L 340.82664 341.418572 
L 341.580891 343.275478 
L 342.58656 346.420245 
L 344.597897 352.843832 
L 345.22644 354.160442 
L 345.729274 354.764109 
L 346.1064 354.913611 
L 346.483526 354.787179 
L 346.860651 354.382229 
L 347.363486 353.425205 
L 347.992029 351.630739 
L 348.871989 348.27353 
L 352.517537 333.223253 
L 353.271789 331.268006 
L 353.900331 330.126581 
L 354.528874 329.446199 
L 355.031709 329.232247 
L 355.534543 329.301334 
L 356.037377 329.63552 
L 356.66592 330.386158 
L 357.420171 331.683774 
L 358.677257 334.395069 
L 359.934343 336.991578 
L 360.688594 338.077479 
L 361.191429 338.484516 
L 361.694263 338.589073 
L 362.071389 338.453749 
L 362.574223 337.981643 
L 363.077057 337.184601 
L 363.7056 335.771822 
L 364.58556 333.170656 
L 366.219771 327.383051 
L 367.728274 322.378153 
L 368.608234 320.1183 
L 369.362486 318.718225 
L 369.991029 317.970132 
L 370.493863 317.65302 
L 370.996697 317.58211 
L 371.499531 317.745997 
L 372.128074 318.251979 
L 372.882326 319.230243 
L 373.887994 320.961303 
L 375.773623 324.301657 
L 376.527874 325.192846 
L 377.156417 325.577447 
L 377.659251 325.610255 
L 378.162086 325.382919 
L 378.66492 324.894934 
L 379.293463 323.938984 
L 380.047714 322.355194 
L 381.179091 319.370315 
L 383.567554 312.915863 
L 384.447514 311.195238 
L 385.201766 310.195891 
L 385.830309 309.736162 
L 386.333143 309.619567 
L 386.835977 309.722537 
L 387.338811 310.034196 
L 387.967354 310.689608 
L 388.721606 311.799362 
L 389.978691 314.128173 
L 391.612903 317.07975 
L 392.367154 318.028431 
L 392.995697 318.490771 
L 393.498531 318.612021 
L 394.001366 318.499802 
L 394.5042 318.15486 
L 395.132743 317.416077 
L 395.886994 316.143082 
L 397.018371 313.700877 
L 399.155417 308.961611 
L 400.035377 307.553765 
L 400.66392 306.882033 
L 401.292463 306.528619 
L 401.795297 306.48729 
L 402.298131 306.662228 
L 402.926674 307.175557 
L 403.555217 307.990971 
L 404.435177 309.556468 
L 405.692263 312.335398 
L 407.452183 316.169739 
L 408.332143 317.542151 
L 408.960686 318.153147 
L 409.46352 318.388022 
L 409.966354 318.38833 
L 410.469189 318.158193 
L 411.097731 317.570991 
L 411.851983 316.498905 
L 412.98336 314.411193 
L 414.868989 310.912706 
L 415.62324 309.918558 
L 416.251783 309.388156 
L 416.754617 309.18901 
L 417.257451 309.204568 
L 417.760286 309.440873 
L 418.388829 310.044457 
L 419.017371 310.973337 
L 419.897331 312.751341 
L 421.028709 315.626029 
L 423.417171 321.842113 
L 423.920006 322.816008 
L 423.920006 322.816008 
" clip-path="url(#pd47820ef05)" style="fill: none; stroke: #1f77b4; stroke-linecap: square"/>
   </g>
   <g id="patch_9">
    <path d="M 41.92 391.26 
L 41.92 302.44 
" style="fill: none; stroke: #7f7f7f; stroke-width: 0.8; stroke-linejoin: miter; stroke-linecap: square"/>
   </g>
   <g id="patch_10">
    <path d="M 46.92 396.26 
L 486.9 396.26 
" style="fill: none; stroke: #7f7f7f; stroke-width: 0.8; stroke-linejoin: miter; stroke-linecap: square"/>
   </g>
   <g id="text_39">
    <!-- Acclemeration Magnitude -->
    <g transform="translate(183.684609 296.44) scale(0.13 -0.13)">
     <defs>
      <path id="DejaVuSans-4d" d="M 628 4666 
L 1569 4666 
L 2759 1491 
L 3956 4666 
L 4897 4666 
L 4897 0 
L 4281 0 
L 4281 4097 
L 3078 897 
L 2444 897 
L 1241 4097 
L 1241 0 
L 628 0 
L 628 4666 
z
" transform="scale(0.015625)"/>
      <path id="DejaVuSans-67" d="M 2906 1791 
Q 2906 2416 2648 2759 
Q 2391 3103 1925 3103 
Q 1463 3103 1205 2759 
Q 947 2416 947 1791 
Q 947 1169 1205 825 
Q 1463 481 1925 481 
Q 2391 481 2648 825 
Q 2906 1169 2906 1791 
z
M 3481 434 
Q 3481 -459 3084 -895 
Q 2688 -1331 1869 -1331 
Q 1566 -1331 1297 -1286 
Q 1028 -1241 775 -1147 
L 775 -588 
Q 1028 -725 1275 -790 
Q 1522 -856 1778 -856 
Q 2344 -856 2625 -561 
Q 2906 -266 2906 331 
L 2906 616 
Q 2728 306 2450 153 
Q 2172 0 1784 0 
Q 1141 0 747 490 
Q 353 981 353 1791 
Q 353 2603 747 3093 
Q 1141 3584 1784 3584 
Q 2172 3584 2450 3431 
Q 2728 3278 2906 2969 
L 2906 3500 
L 3481 3500 
L 3481 434 
z
" transform="scale(0.015625)"/>
      <path id="DejaVuSans-75" d="M 544 1381 
L 544 3500 
L 1119 3500 
L 1119 1403 
Q 1119 906 1312 657 
Q 1506 409 1894 409 
Q 2359 409 2629 706 
Q 2900 1003 2900 1516 
L 2900 3500 
L 3475 3500 
L 3475 0 
L 2900 0 
L 2900 538 
Q 2691 219 2414 64 
Q 2138 -91 1772 -91 
Q 1169 -91 856 284 
Q 544 659 544 1381 
z
M 1991 3584 
L 1991 3584 
z
" transform="scale(0.015625)"/>
      <path id="DejaVuSans-64" d="M 2906 2969 
L 2906 4863 
L 3481 4863 
L 3481 0 
L 2906 0 
L 2906 525 
Q 2725 213 2448 61 
Q 2172 -91 1784 -91 
Q 1150 -91 751 415 
Q 353 922 353 1747 
Q 353 2572 751 3078 
Q 1150 3584 1784 3584 
Q 2172 3584 2448 3432 
Q 2725 3281 2906 2969 
z
M 947 1747 
Q 947 1113 1208 752 
Q 1469 391 1925 391 
Q 2381 391 2643 752 
Q 2906 1113 2906 1747 
Q 2906 2381 2643 2742 
Q 2381 3103 1925 3103 
Q 1469 3103 1208 2742 
Q 947 2381 947 1747 
z
" transform="scale(0.015625)"/>
     </defs>
     <use xlink:href="#DejaVuSans-41"/>
     <use xlink:href="#DejaVuSans-63" x="66.658203"/>
     <use xlink:href="#DejaVuSans-63" x="121.638672"/>
     <use xlink:href="#DejaVuSans-6c" x="176.619141"/>
     <use xlink:href="#DejaVuSans-65" x="204.402344"/>
     <use xlink:href="#DejaVuSans-6d" x="265.925781"/>
     <use xlink:href="#DejaVuSans-65" x="363.337891"/>
     <use xlink:href="#DejaVuSans-72" x="424.861328"/>
     <use xlink:href="#DejaVuSans-61" x="465.974609"/>
     <use xlink:href="#DejaVuSans-74" x="527.253906"/>
     <use xlink:href="#DejaVuSans-69" x="566.462891"/>
     <use xlink:href="#DejaVuSans-6f" x="594.246094"/>
     <use xlink:href="#DejaVuSans-6e" x="655.427734"/>
     <use xlink:href="#DejaVuSans-20" x="718.806641"/>
     <use xlink:href="#DejaVuSans-4d" x="750.59375"/>
     <use xlink:href="#DejaVuSans-61" x="836.873047"/>
     <use xlink:href="#DejaVuSans-67" x="898.152344"/>
     <use xlink:href="#DejaVuSans-6e" x="961.628906"/>
     <use xlink:href="#DejaVuSans-69" x="1025.007812"/>
     <use xlink:href="#DejaVuSans-74" x="1052.791016"/>
     <use xlink:href="#DejaVuSans-75" x="1092"/>
     <use xlink:href="#DejaVuSans-64" x="1155.378906"/>
     <use xlink:href="#DejaVuSans-65" x="1218.855469"/>
    </g>
   </g>
  </g>
  <g id="axes_4">
   <g id="patch_11">
    <path d="M 46.92 529.04 
L 486.9 529.04 
L 486.9 440.22 
L 46.92 440.22 
z
" style="fill: #ffffff"/>
   </g>
   <g id="matplotlib.axis_7">
    <g id="xtick_25">
     <g id="line2d_42">
      <g>
       <use xlink:href="#mc3d0b7040f" x="46.92" y="534.04" style="stroke: #000000; stroke-width: 0.8"/>
      </g>
     </g>
     <g id="text_40">
      <!-- 0 -->
      <g transform="translate(43.73875 548.638438) scale(0.1 -0.1)">
       <use xlink:href="#DejaVuSans-30"/>
      </g>
     </g>
    </g>
    <g id="xtick_26">
     <g id="line2d_43">
      <g>
       <use xlink:href="#mc3d0b7040f" x="109.774286" y="534.04" style="stroke: #000000; stroke-width: 0.8"/>
      </g>
     </g>
     <g id="text_41">
      <!-- 10 -->
      <g transform="translate(103.411786 548.638438) scale(0.1 -0.1)">
       <use xlink:href="#DejaVuSans-31"/>
       <use xlink:href="#DejaVuSans-30" x="63.623047"/>
      </g>
     </g>
    </g>
    <g id="xtick_27">
     <g id="line2d_44">
      <g>
       <use xlink:href="#mc3d0b7040f" x="172.628571" y="534.04" style="stroke: #000000; stroke-width: 0.8"/>
      </g>
     </g>
     <g id="text_42">
      <!-- 20 -->
      <g transform="translate(166.266071 548.638438) scale(0.1 -0.1)">
       <use xlink:href="#DejaVuSans-32"/>
       <use xlink:href="#DejaVuSans-30" x="63.623047"/>
      </g>
     </g>
    </g>
    <g id="xtick_28">
     <g id="line2d_45">
      <g>
       <use xlink:href="#mc3d0b7040f" x="235.482857" y="534.04" style="stroke: #000000; stroke-width: 0.8"/>
      </g>
     </g>
     <g id="text_43">
      <!-- 30 -->
      <g transform="translate(229.120357 548.638438) scale(0.1 -0.1)">
       <use xlink:href="#DejaVuSans-33"/>
       <use xlink:href="#DejaVuSans-30" x="63.623047"/>
      </g>
     </g>
    </g>
    <g id="xtick_29">
     <g id="line2d_46">
      <g>
       <use xlink:href="#mc3d0b7040f" x="298.337143" y="534.04" style="stroke: #000000; stroke-width: 0.8"/>
      </g>
     </g>
     <g id="text_44">
      <!-- 40 -->
      <g transform="translate(291.974643 548.638438) scale(0.1 -0.1)">
       <use xlink:href="#DejaVuSans-34"/>
       <use xlink:href="#DejaVuSans-30" x="63.623047"/>
      </g>
     </g>
    </g>
    <g id="xtick_30">
     <g id="line2d_47">
      <g>
       <use xlink:href="#mc3d0b7040f" x="361.191429" y="534.04" style="stroke: #000000; stroke-width: 0.8"/>
      </g>
     </g>
     <g id="text_45">
      <!-- 50 -->
      <g transform="translate(354.828929 548.638438) scale(0.1 -0.1)">
       <use xlink:href="#DejaVuSans-35"/>
       <use xlink:href="#DejaVuSans-30" x="63.623047"/>
      </g>
     </g>
    </g>
    <g id="xtick_31">
     <g id="line2d_48">
      <g>
       <use xlink:href="#mc3d0b7040f" x="424.045714" y="534.04" style="stroke: #000000; stroke-width: 0.8"/>
      </g>
     </g>
     <g id="text_46">
      <!-- 60 -->
      <g transform="translate(417.683214 548.638438) scale(0.1 -0.1)">
       <use xlink:href="#DejaVuSans-36"/>
       <use xlink:href="#DejaVuSans-30" x="63.623047"/>
      </g>
     </g>
    </g>
    <g id="xtick_32">
     <g id="line2d_49">
      <g>
       <use xlink:href="#mc3d0b7040f" x="486.9" y="534.04" style="stroke: #000000; stroke-width: 0.8"/>
      </g>
     </g>
     <g id="text_47">
      <!-- 70 -->
      <g transform="translate(480.5375 548.638438) scale(0.1 -0.1)">
       <use xlink:href="#DejaVuSans-37"/>
       <use xlink:href="#DejaVuSans-30" x="63.623047"/>
      </g>
     </g>
    </g>
    <g id="text_48">
     <!-- Time (s) -->
     <g transform="translate(246.581094 562.316562) scale(0.1 -0.1)">
      <defs>
       <path id="DejaVuSans-54" d="M -19 4666 
L 3928 4666 
L 3928 4134 
L 2272 4134 
L 2272 0 
L 1638 0 
L 1638 4134 
L -19 4134 
L -19 4666 
z
" transform="scale(0.015625)"/>
       <path id="DejaVuSans-28" d="M 1984 4856 
Q 1566 4138 1362 3434 
Q 1159 2731 1159 2009 
Q 1159 1288 1364 580 
Q 1569 -128 1984 -844 
L 1484 -844 
Q 1016 -109 783 600 
Q 550 1309 550 2009 
Q 550 2706 781 3412 
Q 1013 4119 1484 4856 
L 1984 4856 
z
" transform="scale(0.015625)"/>
       <path id="DejaVuSans-29" d="M 513 4856 
L 1013 4856 
Q 1481 4119 1714 3412 
Q 1947 2706 1947 2009 
Q 1947 1309 1714 600 
Q 1481 -109 1013 -844 
L 513 -844 
Q 928 -128 1133 580 
Q 1338 1288 1338 2009 
Q 1338 2731 1133 3434 
Q 928 4138 513 4856 
z
" transform="scale(0.015625)"/>
      </defs>
      <use xlink:href="#DejaVuSans-54"/>
      <use xlink:href="#DejaVuSans-69" x="57.958984"/>
      <use xlink:href="#DejaVuSans-6d" x="85.742188"/>
      <use xlink:href="#DejaVuSans-65" x="183.154297"/>
      <use xlink:href="#DejaVuSans-20" x="244.677734"/>
      <use xlink:href="#DejaVuSans-28" x="276.464844"/>
      <use xlink:href="#DejaVuSans-73" x="315.478516"/>
      <use xlink:href="#DejaVuSans-29" x="367.578125"/>
     </g>
    </g>
   </g>
   <g id="matplotlib.axis_8">
    <g id="ytick_10">
     <g id="line2d_50">
      <g>
       <use xlink:href="#ma66f461f4c" x="41.92" y="525.002727" style="stroke: #000000; stroke-width: 0.8"/>
      </g>
     </g>
     <g id="text_49">
      <!-- 0.0 -->
      <g transform="translate(19.016875 528.801946) scale(0.1 -0.1)">
       <use xlink:href="#DejaVuSans-30"/>
       <use xlink:href="#DejaVuSans-2e" x="63.623047"/>
       <use xlink:href="#DejaVuSans-30" x="95.410156"/>
      </g>
     </g>
    </g>
    <g id="ytick_11">
     <g id="line2d_51">
      <g>
       <use xlink:href="#ma66f461f4c" x="41.92" y="484.63" style="stroke: #000000; stroke-width: 0.8"/>
      </g>
     </g>
     <g id="text_50">
      <!-- 0.5 -->
      <g transform="translate(19.016875 488.429219) scale(0.1 -0.1)">
       <use xlink:href="#DejaVuSans-30"/>
       <use xlink:href="#DejaVuSans-2e" x="63.623047"/>
       <use xlink:href="#DejaVuSans-35" x="95.410156"/>
      </g>
     </g>
    </g>
    <g id="ytick_12">
     <g id="line2d_52">
      <g>
       <use xlink:href="#ma66f461f4c" x="41.92" y="444.257273" style="stroke: #000000; stroke-width: 0.8"/>
      </g>
     </g>
     <g id="text_51">
      <!-- 1.0 -->
      <g transform="translate(19.016875 448.056491) scale(0.1 -0.1)">
       <use xlink:href="#DejaVuSans-31"/>
       <use xlink:href="#DejaVuSans-2e" x="63.623047"/>
       <use xlink:href="#DejaVuSans-30" x="95.410156"/>
      </g>
     </g>
    </g>
   </g>
   <g id="line2d_53">
    <path d="M 46.92 525.002727 
L 49.308463 525.002727 
L 49.434171 444.257273 
L 67.536206 444.257273 
L 67.661914 525.002727 
L 82.369817 525.002727 
L 82.495526 444.257273 
L 102.35748 444.257273 
L 102.483189 525.002727 
L 114.299794 525.002727 
L 114.425503 444.257273 
L 135.79596 444.257273 
L 135.921669 525.002727 
L 145.726937 525.002727 
L 145.852646 444.257273 
L 164.206097 444.257273 
L 164.331806 525.002727 
L 176.525537 525.002727 
L 176.651246 444.257273 
L 192.867651 444.257273 
L 192.99336 525.002727 
L 207.198429 525.002727 
L 207.324137 444.257273 
L 224.546211 444.257273 
L 224.67192 525.002727 
L 239.379823 525.002727 
L 239.505531 444.257273 
L 259.241777 444.257273 
L 259.367486 525.002727 
L 271.435509 525.002727 
L 271.561217 444.257273 
L 292.177423 444.257273 
L 292.303131 525.002727 
L 302.736943 525.002727 
L 302.862651 444.257273 
L 321.216103 444.257273 
L 321.341811 525.002727 
L 333.661251 525.002727 
L 333.78696 444.257273 
L 349.877657 444.257273 
L 350.003366 525.002727 
L 364.208434 525.002727 
L 364.334143 444.257273 
L 381.807634 444.257273 
L 381.933343 525.002727 
L 396.641246 525.002727 
L 396.766954 444.257273 
L 416.628909 444.257273 
L 416.754617 525.002727 
L 423.920006 525.002727 
L 423.920006 525.002727 
" clip-path="url(#p85b0cdc92a)" style="fill: none; stroke: #000000; stroke-linecap: square"/>
   </g>
   <g id="patch_12">
    <path d="M 41.92 529.04 
L 41.92 440.22 
" style="fill: none; stroke: #7f7f7f; stroke-width: 0.8; stroke-linejoin: miter; stroke-linecap: square"/>
   </g>
   <g id="patch_13">
    <path d="M 46.92 534.04 
L 486.9 534.04 
" style="fill: none; stroke: #7f7f7f; stroke-width: 0.8; stroke-linejoin: miter; stroke-linecap: square"/>
   </g>
   <g id="text_52">
    <!-- UL use from GMAC -->
    <g transform="translate(206.189844 434.22) scale(0.13 -0.13)">
     <defs>
      <path id="DejaVuSans-55" d="M 556 4666 
L 1191 4666 
L 1191 1831 
Q 1191 1081 1462 751 
Q 1734 422 2344 422 
Q 2950 422 3222 751 
Q 3494 1081 3494 1831 
L 3494 4666 
L 4128 4666 
L 4128 1753 
Q 4128 841 3676 375 
Q 3225 -91 2344 -91 
Q 1459 -91 1007 375 
Q 556 841 556 1753 
L 556 4666 
z
" transform="scale(0.015625)"/>
      <path id="DejaVuSans-4c" d="M 628 4666 
L 1259 4666 
L 1259 531 
L 3531 531 
L 3531 0 
L 628 0 
L 628 4666 
z
" transform="scale(0.015625)"/>
      <path id="DejaVuSans-66" d="M 2375 4863 
L 2375 4384 
L 1825 4384 
Q 1516 4384 1395 4259 
Q 1275 4134 1275 3809 
L 1275 3500 
L 2222 3500 
L 2222 3053 
L 1275 3053 
L 1275 0 
L 697 0 
L 697 3053 
L 147 3053 
L 147 3500 
L 697 3500 
L 697 3744 
Q 697 4328 969 4595 
Q 1241 4863 1831 4863 
L 2375 4863 
z
" transform="scale(0.015625)"/>
      <path id="DejaVuSans-47" d="M 3809 666 
L 3809 1919 
L 2778 1919 
L 2778 2438 
L 4434 2438 
L 4434 434 
Q 4069 175 3628 42 
Q 3188 -91 2688 -91 
Q 1594 -91 976 548 
Q 359 1188 359 2328 
Q 359 3472 976 4111 
Q 1594 4750 2688 4750 
Q 3144 4750 3555 4637 
Q 3966 4525 4313 4306 
L 4313 3634 
Q 3963 3931 3569 4081 
Q 3175 4231 2741 4231 
Q 1884 4231 1454 3753 
Q 1025 3275 1025 2328 
Q 1025 1384 1454 906 
Q 1884 428 2741 428 
Q 3075 428 3337 486 
Q 3600 544 3809 666 
z
" transform="scale(0.015625)"/>
     </defs>
     <use xlink:href="#DejaVuSans-55"/>
     <use xlink:href="#DejaVuSans-4c" x="73.193359"/>
     <use xlink:href="#DejaVuSans-20" x="128.90625"/>
     <use xlink:href="#DejaVuSans-75" x="160.693359"/>
     <use xlink:href="#DejaVuSans-73" x="224.072266"/>
     <use xlink:href="#DejaVuSans-65" x="276.171875"/>
     <use xlink:href="#DejaVuSans-20" x="337.695312"/>
     <use xlink:href="#DejaVuSans-66" x="369.482422"/>
     <use xlink:href="#DejaVuSans-72" x="404.6875"/>
     <use xlink:href="#DejaVuSans-6f" x="443.550781"/>
     <use xlink:href="#DejaVuSans-6d" x="504.732422"/>
     <use xlink:href="#DejaVuSans-20" x="602.144531"/>
     <use xlink:href="#DejaVuSans-47" x="633.931641"/>
     <use xlink:href="#DejaVuSans-4d" x="711.421875"/>
     <use xlink:href="#DejaVuSans-41" x="797.701172"/>
     <use xlink:href="#DejaVuSans-43" x="864.359375"/>
    </g>
   </g>
  </g>
 </g>
 <defs>
  <clipPath id="pc63a10c342">
   <rect x="46.92" y="26.88" width="439.98" height="88.82"/>
  </clipPath>
  <clipPath id="pe808eea7b9">
   <rect x="46.92" y="164.66" width="439.98" height="88.82"/>
  </clipPath>
  <clipPath id="pd47820ef05">
   <rect x="46.92" y="302.44" width="439.98" height="88.82"/>
  </clipPath>
  <clipPath id="p85b0cdc92a">
   <rect x="46.92" y="440.22" width="439.98" height="88.82"/>
  </clipPath>
 </defs>
</svg>
