<?xml version="1.0" encoding="UTF-8" standalone="no"?>
<svg
   width="1420.73"
   height="440"
   version="1.1"
   id="svg593"
   sodipodi:docname="gmac_accl.svg"
   inkscape:version="1.2 (dc2aeda, 2022-05-15)"
   xmlns:inkscape="http://www.inkscape.org/namespaces/inkscape"
   xmlns:sodipodi="http://sodipodi.sourceforge.net/DTD/sodipodi-0.dtd"
   xmlns:xlink="http://www.w3.org/1999/xlink"
   xmlns="http://www.w3.org/2000/svg"
   xmlns:svg="http://www.w3.org/2000/svg"
   xmlns:lucid="lucid">
  <defs
     id="defs597" />
  <sodipodi:namedview
     id="namedview595"
     pagecolor="#ffffff"
     bordercolor="#000000"
     borderopacity="0.25"
     inkscape:showpageshadow="2"
     inkscape:pageopacity="0.0"
     inkscape:pagecheckerboard="0"
     inkscape:deskcolor="#d1d1d1"
     showgrid="false"
     inkscape:zoom="0.49166667"
     inkscape:cx="456.61017"
     inkscape:cy="220.67797"
     inkscape:window-width="1680"
     inkscape:window-height="923"
     inkscape:window-x="0"
     inkscape:window-y="25"
     inkscape:window-maximized="1"
     inkscape:current-layer="svg593" />
  <g
     transform="translate(-120,-80)"
     lucid:page-tab-id="0_0"
     id="g591">
    <path
       d="m 1362.5,289.46 h 39"
       stroke="#000000"
       stroke-width="2"
       fill="none"
       id="path132" />
    <path
       d="m 1362.53,290.46 h -1.03 v -2 h 1.03 z"
       stroke="#000000"
       stroke-width="0.05"
       id="path134" />
    <path
       d="m 1416.76,289.46 -14.26,4.63 v -9.28 z"
       stroke="#000000"
       stroke-width="2"
       id="path136" />
    <path
       d="m 1140,126 a 6,6 0 0 1 6,-6 h 228 a 6,6 0 0 1 6,6 v 348 a 6,6 0 0 1 -6,6 h -228 a 6,6 0 0 1 -6,-6 z"
       stroke="#000000"
       stroke-opacity="0"
       stroke-width="3"
       fill="#54c45e"
       fill-opacity="0.2"
       id="path138" />
    <path
       d="m 1187.92,443.8 h 100.5 v 29.54 h -100.5 z"
       fill="#ffffff"
       fill-opacity="0"
       id="path140" />
    <path
       d="m 1196.75,470.6 -0.35,0.47 c -4.6,-2.62 -7.08,-7.52 -7.08,-12.46 0,-5.36 2.52,-9.55 7.17,-12.3 l 0.25,0.46 c -4.04,3.46 -4.93,6.16 -4.93,11.76 0,5.4 0.87,8.68 4.93,12.08 m 14.62,-18.39 c 0,5.7 -4.15,14.03 -8.63,14.03 -2.76,0 -3.97,-1.72 -3.97,-5.2 0,-5.06 3.36,-14.52 8.88,-14.52 2.12,0 3.72,1.83 3.72,5.7 m -9.15,3.7 h 6 c 0.43,-2.03 0.72,-3.62 0.72,-4.8 0,-2.13 -0.3,-3.76 -1.48,-3.76 -2.1,0 -4.47,5.1 -5.23,8.57 m 5.73,1.04 h -6 c -0.47,1.45 -0.74,3.4 -0.74,4.8 0,2 0.43,3.62 1.68,3.62 1.94,0 3.7,-3.8 4.6,-6.67 0.2,-0.67 0.37,-1.5 0.45,-1.75 m 9.52,4.32 -0.2,0.77 h -1.44 l -1.6,6.57 c -0.03,0.06 -0.05,0.16 -0.05,0.23 0,0.12 0.07,0.24 0.33,0.24 0,0 0.47,-0.03 1.23,-1.06 l 0.27,0.23 c -0.5,0.64 -1.52,2.2 -2.73,2.2 -0.64,0 -0.8,-0.52 -0.8,-1.07 0,-0.27 0.04,-0.53 0.1,-0.76 l 1.67,-6.57 h -1.6 l 0.12,-0.6 c 1.54,-0.28 2.8,-1.04 3.63,-2.83 h 0.26 l -0.64,2.65 h 1.44 m 10.25,6.8 0.3,0.23 c -0.6,0.7 -1.6,2.18 -2.74,2.18 -0.37,0 -0.84,-0.2 -0.84,-0.85 0,-0.25 0.02,-0.54 1.3,-5.5 0.05,-0.13 0.16,-0.58 0.16,-0.9 0,-0.38 -0.15,-0.7 -0.5,-0.7 -0.74,0 -2.1,1.74 -2.75,2.72 -0.7,1.05 -1.27,2.1 -1.37,2.5 l -0.66,2.5 h -1.6 l 3.12,-12.3 0.04,-0.2 c 0,-0.28 -0.2,-0.46 -0.64,-0.46 -0.2,0 -0.43,0.03 -0.6,0.05 l -0.03,-0.3 3.25,-0.48 -2.24,8.54 h 0.1 c 1.08,-1.18 2.56,-3.87 4.43,-3.87 0.86,0 1.17,0.7 1.17,1.44 0,0.45 -0.12,0.88 -0.22,1.3 l -1.2,4.73 -0.04,0.2 c 0,0.13 0.06,0.3 0.27,0.3 0.46,0 1.02,-0.72 1.3,-1.1 m 6.24,1.89 -0.3,-0.55 c 1.6,-1.08 2.42,-2.15 2.42,-3.1 0,-0.2 -0.17,-0.4 -0.4,-0.4 -0.24,0 -0.53,0.13 -0.85,0.13 -1.07,0 -1.68,-0.5 -1.68,-1.48 0,-1 0.7,-1.66 1.74,-1.66 1.3,0 2.32,1.02 2.32,2.53 0,1.73 -1.25,3.56 -3.25,4.52 m 29.3,-4.08 h -18.2 l 8.68,-19.58 h 0.58 m 4.57,16.9 -5.6,-12.77 -5.67,12.77 h 11.27 m 19.52,-11.03 c 0,5.7 -4.14,14.03 -8.62,14.03 -2.75,0 -3.97,-1.72 -3.97,-5.2 0,-5.06 3.38,-14.52 8.9,-14.52 2.1,0 3.7,1.83 3.7,5.7 m -9.14,3.7 h 5.98 c 0.44,-2.03 0.73,-3.62 0.73,-4.8 0,-2.13 -0.3,-3.76 -1.48,-3.76 -2.1,0 -4.48,5.1 -5.24,8.57 m 5.72,1.04 h -6 c -0.47,1.45 -0.73,3.4 -0.73,4.8 0,2 0.43,3.62 1.68,3.62 1.95,0 3.7,-3.8 4.6,-6.67 0.2,-0.67 0.37,-1.5 0.45,-1.75 m 4.56,-10.22 0.35,-0.46 c 4.43,2.67 7.08,7.52 7.08,12.45 0,5.38 -2.56,9.5 -7.18,12.32 l -0.26,-0.47 c 4.13,-3.4 4.94,-6.13 4.94,-11.76 0,-5.43 -0.73,-8.77 -4.94,-12.08"
       id="path142" />
    <path
       d="m 1180,147.66 a 6,6 0 0 1 6,-6 h 104.34 a 6,6 0 0 1 6,6 v 68 a 6,6 0 0 1 -6,6 H 1186 a 6,6 0 0 1 -6,-6 z"
       stroke="#000000"
       stroke-width="3"
       fill="#ffffff"
       id="path144" />
    <path
       d="m 1206.62,167.8 h 63.1 v 25.87 h -63.1 z"
       fill="#ffffff"
       fill-opacity="0"
       id="path146" />
    <path
       d="m 1224.65,179.03 -16.4,7.92 v -1.83 l 12.54,-6.24 -12.55,-6.24 v -1.9 l 16.4,8 v 0.3 m 25.31,-5.21 -4.04,7 v 1.07 c 0,1.4 0.3,2.88 1,2.88 0.35,0 0.78,-0.56 1.33,-2.15 l 0.44,0.2 c -0.52,2.12 -1.48,3.72 -2.76,3.72 -1.03,0 -1.85,-1.2 -1.9,-2.53 h -0.06 c -1,1.45 -2.5,2.53 -4.45,2.53 -2.47,0 -3.75,-2.27 -3.75,-4.68 0,-0.64 0.03,-1.2 0.2,-1.9 0.82,-3.4 3.4,-6.52 6.53,-6.52 2.24,0 3.32,1.92 3.32,3.95 l 1.85,-3.57 h 2.3 m -6,4.5 c 0,-1.98 -0.13,-4 -1.8,-4 -1.67,0 -3.96,3.68 -3.96,8.3 0,1.65 0.1,3.05 1.56,3.05 1.85,0 3.48,-3.7 4.03,-5.3 0.1,-0.57 0.14,-1.27 0.14,-2.05 m 11.67,3.29 -0.2,0.78 h -1.43 l -1.6,6.57 c -0.02,0.06 -0.04,0.16 -0.04,0.23 0,0.12 0.06,0.24 0.33,0.24 0,0 0.47,-0.04 1.23,-1.06 l 0.26,0.22 c -0.5,0.64 -1.52,2.2 -2.74,2.2 -0.63,0 -0.8,-0.52 -0.8,-1.07 0,-0.27 0.05,-0.53 0.1,-0.76 l 1.67,-6.57 h -1.6 l 0.1,-0.6 c 1.55,-0.28 2.8,-1.04 3.65,-2.83 h 0.26 l -0.62,2.65 h 1.43 m 10.26,6.82 0.3,0.22 c -0.6,0.7 -1.62,2.18 -2.75,2.18 -0.35,0 -0.83,-0.2 -0.83,-0.86 0,-0.25 0.02,-0.54 1.32,-5.48 0.03,-0.15 0.13,-0.6 0.13,-0.9 0,-0.4 -0.14,-0.73 -0.5,-0.73 -0.73,0 -2.1,1.75 -2.74,2.73 -0.7,1.05 -1.3,2.1 -1.4,2.5 l -0.64,2.5 h -1.6 l 3.1,-12.3 c 0.03,-0.1 0.06,-0.15 0.06,-0.2 0,-0.28 -0.2,-0.46 -0.64,-0.46 -0.2,0 -0.43,0.02 -0.6,0.04 l -0.04,-0.3 3.27,-0.48 -2.23,8.54 h 0.08 c 1.1,-1.2 2.57,-3.88 4.43,-3.88 0.87,0 1.18,0.7 1.18,1.44 0,0.45 -0.13,0.88 -0.23,1.3 l -1.2,4.73 c 0,0.1 -0.03,0.15 -0.03,0.2 0,0.13 0.06,0.3 0.27,0.3 0.45,0 1,-0.72 1.3,-1.1"
       id="path148" />
    <path
       d="m 1180,366 a 6,6 0 0 1 6,-6 h 104.34 a 6,6 0 0 1 6,6 v 68 a 6,6 0 0 1 -6,6 H 1186 a 6,6 0 0 1 -6,-6 z"
       stroke="#000000"
       stroke-width="3"
       fill="#ffffff"
       id="path150" />
    <path
       d="m 1208.42,419.5 a 0.25,0.25 0 0 1 0.25,-0.25 h 40 a 0.25,0.25 0 0 1 0.25,0.25 0.25,0.25 0 0 1 -0.25,0.25 h -40 a 0.25,0.25 0 0 1 -0.25,-0.25 z"
       stroke="#e81313"
       stroke-width="0.5"
       fill="none"
       id="path152" />
    <path
       d="m 1228.67,380.25 a 0.25,0.25 0 0 1 0.25,0.25 v 39 a 0.25,0.25 0 0 1 -0.25,0.25 0.25,0.25 0 0 1 -0.25,-0.25 v -39 a 0.25,0.25 0 0 1 0.25,-0.25 z m 20,0 a 0.25,0.25 0 0 1 0.25,0.25 v 39 a 0.25,0.25 0 0 1 -0.25,0.25 0.25,0.25 0 0 1 -0.25,-0.25 v -39 a 0.25,0.25 0 0 1 0.25,-0.25 z"
       stroke="#e81313"
       stroke-width="0.5"
       fill="none"
       id="path154" />
    <path
       d="m 1228.42,380.5 a 0.25,0.25 0 0 1 0.25,-0.25 h 39 a 0.25,0.25 0 0 1 0.25,0.25 0.25,0.25 0 0 1 -0.25,0.25 h -39 a 0.25,0.25 0 0 1 -0.25,-0.25 z"
       stroke="#e81313"
       stroke-width="0.5"
       fill="none"
       id="path156" />
    <path
       d="m 1300,266.25 a 6,6 0 0 1 6,-6 h 48 a 6,6 0 0 1 6,6 v 46.42 a 6,6 0 0 1 -6,6 h -48 a 6,6 0 0 1 -6,-6 z"
       stroke="#000000"
       stroke-width="3"
       fill="#ffffff"
       id="path158" />
    <path
       d="m 1318.36,275.44 h 23.28 v 27.76 h -23.28 z"
       fill="#ffffff"
       fill-opacity="0"
       id="path160" />
    <path
       d="m 1340.06,297.73 -1.67,1.7 -8.4,-8.35 -8.4,8.36 -1.68,-1.68 8.36,-8.4 -8.36,-8.4 1.7,-1.66 8.37,8.36 8.4,-8.36 1.66,1.63 -8.36,8.44"
       id="path162" />
    <path
       d="M 1298.83,181.66 H 1324 a 6,6 0 0 1 6,6 v 52.58"
       stroke="#000000"
       stroke-width="2"
       fill="none"
       id="path164" />
    <path
       d="m 1298.86,182.66 h -1.03 v -2 h 1.03 z"
       stroke="#000000"
       stroke-width="0.05"
       id="path166" />
    <path
       d="m 1330,255.5 -4.63,-14.26 h 9.27 z"
       stroke="#000000"
       stroke-width="2"
       id="path168" />
    <path
       d="M 1298.83,400 H 1324 a 6,6 0 0 0 6,-6 v -55.33"
       stroke="#000000"
       stroke-width="2"
       fill="none"
       id="path170" />
    <path
       d="m 1298.86,401 h -1.03 v -2 h 1.03 z"
       stroke="#000000"
       stroke-width="0.05"
       id="path172" />
    <path
       d="m 1330,323.4 4.63,14.27 h -9.27 z"
       stroke="#000000"
       stroke-width="2"
       id="path174" />
    <path
       d="m 1210.92,225 h 54.5 v 29.54 h -54.5 z"
       fill="#ffffff"
       fill-opacity="0"
       id="path176" />
    <path
       d="m 1219.75,251.8 -0.35,0.46 c -4.6,-2.6 -7.08,-7.52 -7.08,-12.46 0,-5.37 2.52,-9.55 7.17,-12.3 l 0.25,0.46 c -4.03,3.45 -4.93,6.15 -4.93,11.76 0,5.4 0.87,8.68 4.93,12.08 m 16.22,-17.1 -4.04,7 v 1.07 c 0,1.4 0.3,2.87 1,2.87 0.34,0 0.77,-0.55 1.32,-2.15 l 0.44,0.2 c -0.53,2.12 -1.48,3.7 -2.76,3.7 -1.05,0 -1.86,-1.18 -1.92,-2.5 h -0.06 c -0.98,1.44 -2.5,2.5 -4.44,2.5 -2.47,0 -3.74,-2.25 -3.74,-4.66 0,-0.64 0.03,-1.2 0.2,-1.92 0.8,-3.4 3.4,-6.5 6.53,-6.5 2.23,0 3.3,1.9 3.3,3.94 l 1.86,-3.57 h 2.3 m -6.02,4.5 c 0,-1.98 -0.1,-4 -1.8,-4 -1.65,0 -3.95,3.68 -3.95,8.3 0,1.65 0.1,3.04 1.56,3.04 1.86,0 3.5,-3.7 4.04,-5.28 0.12,-0.58 0.14,-1.28 0.14,-2.07 m 11.7,3.33 -0.2,0.77 h -1.44 l -1.6,6.56 c -0.02,0.07 -0.04,0.17 -0.04,0.23 0,0.12 0.06,0.25 0.32,0.25 0,0 0.48,-0.03 1.24,-1.06 l 0.26,0.23 c -0.5,0.63 -1.52,2.2 -2.73,2.2 -0.63,0 -0.8,-0.52 -0.8,-1.07 0,-0.27 0.04,-0.54 0.1,-0.76 l 1.67,-6.57 h -1.58 l 0.1,-0.6 c 1.54,-0.3 2.8,-1.05 3.63,-2.83 h 0.27 l -0.64,2.65 h 1.44 m 10.25,6.8 0.28,0.23 c -0.6,0.7 -1.6,2.17 -2.73,2.17 -0.37,0 -0.84,-0.2 -0.84,-0.86 0,-0.25 0.02,-0.53 1.32,-5.48 0.04,-0.14 0.14,-0.6 0.14,-0.9 0,-0.4 -0.14,-0.72 -0.5,-0.72 -0.73,0 -2.1,1.74 -2.74,2.73 -0.7,1.04 -1.28,2.1 -1.38,2.5 l -0.66,2.5 h -1.6 l 3.12,-12.3 c 0.02,-0.1 0.04,-0.15 0.04,-0.22 0,-0.26 -0.2,-0.45 -0.63,-0.45 -0.22,0 -0.44,0.02 -0.6,0.04 l -0.05,-0.28 3.26,-0.5 -2.22,8.54 h 0.08 c 1.1,-1.2 2.56,-3.88 4.43,-3.88 0.86,0 1.16,0.7 1.16,1.44 0,0.45 -0.12,0.88 -0.22,1.3 l -1.2,4.74 c 0,0.1 -0.03,0.14 -0.03,0.2 0,0.13 0.07,0.3 0.27,0.3 0.45,0 1,-0.73 1.3,-1.1 m 4.68,-21.34 0.34,-0.47 c 4.44,2.66 7.08,7.5 7.08,12.45 0,5.37 -2.56,9.5 -7.17,12.3 l -0.25,-0.45 c 4.12,-3.4 4.93,-6.13 4.93,-11.76 0,-5.43 -0.72,-8.77 -4.93,-12.08"
       id="path178" />
    <path
       d="m 1140,486 a 6,6 0 0 1 6,-6 h 228 a 6,6 0 0 1 6,6 v 28 a 6,6 0 0 1 -6,6 h -228 a 6,6 0 0 1 -6,-6 z"
       fill="none"
       id="path180" />
    <use
       xlink:href="#a"
       transform="translate(1184.7994,504.88889)"
       id="use182" />
    <use
       xlink:href="#b"
       transform="translate(1285.0895,504.88889)"
       id="use184" />
    <path
       d="m 1306,144.58 h 60 v 28.88 h -60 z"
       fill="#ffffff"
       fill-opacity="0"
       id="path186" />
    <path
       d="m 1318.6,154.06 -2.52,9.88 c -0.03,0.1 -0.03,0.17 -0.03,0.25 0,0.22 0.1,0.4 0.4,0.4 0.6,0 1.13,-0.75 1.62,-1.32 l 0.14,-0.17 0.38,0.33 c -0.66,0.93 -2.1,3.03 -3.75,3.03 -0.82,0 -1.14,-0.54 -1.14,-1.47 0,-0.27 0.02,-0.72 0.1,-1.06 l 0.75,-2.7 h -0.03 c -0.2,0.14 -2.76,3.58 -3.9,4.43 -0.64,0.48 -1.38,0.8 -2.04,0.8 -1.33,0 -1.73,-1.03 -1.73,-2.1 0,-0.6 0.1,-1.14 0.23,-1.68 l 1.67,-6.57 c 0.12,-0.43 0.17,-0.6 0.17,-0.7 0,-0.35 -0.3,-0.66 -0.93,-0.66 -0.2,0 -0.55,0.02 -0.75,0.08 l -0.1,-0.42 4.47,-0.74 -2.38,9.24 c -0.06,0.26 -0.1,0.46 -0.1,0.68 0,0.6 0.24,0.97 0.75,0.97 0.7,0 1.83,-0.9 2.83,-2.2 1.22,-1.62 2.53,-4.14 3.1,-6.2 l 0.6,-2.14 h 2.17 m 11.52,7.88 -2.8,4.83 v 0.74 c 0,0.97 0.2,2 0.68,2 0.24,0 0.54,-0.4 0.92,-1.5 l 0.3,0.15 c -0.36,1.46 -1.02,2.56 -1.9,2.56 -0.73,0 -1.3,-0.82 -1.33,-1.74 h -0.04 c -0.68,1 -1.73,1.74 -3.07,1.74 -1.7,0 -2.6,-1.56 -2.6,-3.23 0,-0.44 0.03,-0.82 0.15,-1.32 0.57,-2.35 2.36,-4.5 4.53,-4.5 1.54,0 2.3,1.33 2.3,2.73 l 1.27,-2.47 h 1.6 m -4.17,3.1 c 0,-1.36 -0.08,-2.77 -1.24,-2.77 -1.16,0 -2.74,2.55 -2.74,5.74 0,1.15 0.08,2.1 1.08,2.1 1.3,0 2.4,-2.54 2.8,-3.64 0.07,-0.4 0.1,-0.88 0.1,-1.43 m 15.46,5.65 h -6 V 147.4 h 6 v 0.72 h -2.35 c -0.97,0 -1.48,0.34 -1.48,1.37 v 18.9 c 0,1.13 0.54,1.53 1.48,1.53 h 2.35 v 0.7 m 14.25,-7.14 -0.14,0.17 c -0.78,0.97 -2.14,2.78 -3.62,2.78 -0.9,0 -1.17,-0.65 -1.17,-1.3 0,-0.37 0.13,-0.82 0.2,-1.14 l 1.63,-6.28 c 0.06,-0.23 0.2,-0.8 0.2,-1.2 0,-0.53 -0.17,-1.07 -0.68,-1.07 -1.08,0 -2.87,2.44 -3.75,3.77 -1.02,1.54 -1.76,2.87 -1.93,3.47 l -0.94,3.5 h -2.18 l 2.7,-10.6 c 0,-0.52 -0.1,-0.92 -0.86,-0.92 -0.3,0 -0.6,0.06 -0.8,0.1 l -0.06,-0.44 4.52,-0.65 -1.45,5.35 h 0.1 c 0.13,0 1.53,-1.98 1.58,-2.07 1.14,-1.42 2.84,-3.3 4.55,-3.3 1.24,0 1.6,0.83 1.6,1.77 -0.02,0.7 -0.2,1.42 -0.33,2 l -1.67,6.54 c -0.03,0.05 -0.03,0.14 -0.03,0.28 0.03,0.17 0.1,0.4 0.43,0.4 0.68,0 1.36,-1.03 1.76,-1.5 m 8.15,7.5 h -6 v -0.7 h 2.5 c 1,0 1.34,-0.44 1.34,-1.32 v -18.96 c 0,-1 -0.37,-1.54 -1.44,-1.54 h -2.4 v -0.7 h 6 v 23.22"
       id="path188" />
    <path
       d="M 1306.9,409.12 H 1366 V 438 h -59.1 z"
       fill="#ffffff"
       fill-opacity="0"
       id="path190" />
    <path
       d="m 1319.5,418.6 -2.52,9.88 c -0.03,0.1 -0.03,0.17 -0.03,0.26 0,0.22 0.12,0.4 0.4,0.4 0.6,0 1.14,-0.74 1.62,-1.3 l 0.14,-0.18 0.38,0.3 c -0.65,0.95 -2.1,3.05 -3.75,3.05 -0.82,0 -1.13,-0.53 -1.13,-1.47 0,-0.25 0.03,-0.7 0.1,-1.05 l 0.75,-2.7 h -0.03 c -0.2,0.15 -2.75,3.58 -3.9,4.43 -0.64,0.5 -1.38,0.8 -2.03,0.8 -1.35,0 -1.74,-1 -1.74,-2.1 0,-0.6 0.08,-1.13 0.22,-1.67 l 1.68,-6.56 c 0.1,-0.42 0.17,-0.6 0.17,-0.7 0,-0.35 -0.3,-0.66 -0.94,-0.66 -0.2,0 -0.55,0.04 -0.75,0.1 l -0.08,-0.43 4.45,-0.74 -2.38,9.26 c -0.06,0.24 -0.1,0.44 -0.1,0.67 0,0.6 0.24,0.96 0.75,0.96 0.7,0 1.84,-0.88 2.83,-2.18 1.22,-1.62 2.53,-4.15 3.1,-6.22 l 0.6,-2.13 h 2.18 m 10.39,6.93 c 0,3.94 -2.87,9.7 -5.96,9.7 -1.9,0 -2.75,-1.2 -2.75,-3.6 0,-3.5 2.33,-10.03 6.15,-10.03 1.46,0 2.57,1.26 2.57,3.93 m -6.34,2.57 h 4.14 c 0.3,-1.4 0.5,-2.5 0.5,-3.33 0,-1.48 -0.2,-2.6 -1.03,-2.6 -1.44,0 -3.1,3.53 -3.6,5.92 m 3.95,0.73 h -4.16 c -0.32,1 -0.5,2.34 -0.5,3.3 0,1.4 0.3,2.52 1.16,2.52 1.35,0 2.55,-2.63 3.18,-4.62 0.14,-0.46 0.26,-1.02 0.32,-1.2 m 13.91,6.34 h -6 v -23.22 h 6 v 0.7 h -2.35 c -0.97,0 -1.48,0.35 -1.48,1.37 v 18.9 c 0,1.14 0.53,1.54 1.47,1.54 h 2.36 v 0.7 m 14.23,-7.14 -0.14,0.17 c -0.8,0.96 -2.15,2.78 -3.63,2.78 -0.9,0 -1.16,-0.65 -1.16,-1.3 0,-0.38 0.12,-0.83 0.2,-1.14 l 1.63,-6.28 c 0.05,-0.22 0.2,-0.8 0.2,-1.2 0,-0.53 -0.18,-1.07 -0.7,-1.07 -1.07,0 -2.85,2.43 -3.73,3.77 -1.03,1.53 -1.76,2.87 -1.93,3.46 l -0.94,3.52 h -2.2 l 2.7,-10.62 c 0,-0.5 -0.08,-0.9 -0.84,-0.9 -0.3,0 -0.6,0.05 -0.8,0.08 l -0.06,-0.42 4.5,-0.65 -1.44,5.37 h 0.1 c 0.13,0 1.52,-2 1.58,-2.08 1.13,-1.4 2.84,-3.3 4.54,-3.3 1.25,0 1.6,0.83 1.6,1.77 0,0.7 -0.18,1.4 -0.32,1.98 l -1.68,6.56 c -0.03,0.05 -0.03,0.14 -0.03,0.28 0.02,0.17 0.1,0.4 0.42,0.4 0.68,0 1.36,-1.02 1.76,-1.5 m 8.2,7.47 h -6 v -0.7 h 2.5 c 1,0 1.35,-0.44 1.35,-1.3 V 414.2 c 0,-1 -0.37,-1.53 -1.45,-1.53 h -2.4 v -0.7 h 6 v 23.2"
       id="path192" />
    <path
       d="M 982.5,400 H 1160"
       stroke="#000000"
       stroke-width="2"
       fill="none"
       id="path194" />
    <path
       d="m 982.53,401 h -1.03 v -2 h 1.03 z"
       stroke="#000000"
       stroke-width="0.05"
       id="path196" />
    <path
       d="m 1175.26,400 -14.26,4.63 v -9.26 z"
       stroke="#000000"
       stroke-width="2"
       id="path198" />
    <path
       d="m 490,486 a 6,6 0 0 1 6,-6 h 328 a 6,6 0 0 1 6,6 v 28 a 6,6 0 0 1 -6,6 H 496 a 6,6 0 0 1 -6,-6 z"
       fill="none"
       id="path200" />
    <use
       xlink:href="#c"
       transform="translate(553.63272,504.88889)"
       id="use202" />
    <use
       xlink:href="#d"
       transform="translate(652.49691,504.88889)"
       id="use204" />
    <path
       d="m 320,346 a 6,6 0 0 1 6,-6 h 668 a 6,6 0 0 1 6,6 v 126.34 a 6,6 0 0 1 -6,6 H 326 a 6,6 0 0 1 -6,-6 z"
       stroke="#000000"
       stroke-opacity="0"
       stroke-width="3"
       fill="#e81313"
       fill-opacity="0.1"
       id="path206" />
    <path
       d="m 861.16,443.56 h 57.05 v 33.2 h -57.04 z"
       fill="#ffffff"
       fill-opacity="0"
       id="path208" />
    <path
       d="m 870,470.35 -0.36,0.47 c -4.6,-2.62 -7.1,-7.52 -7.1,-12.46 0,-5.37 2.54,-9.55 7.2,-12.3 l 0.25,0.45 c -4.05,3.47 -4.95,6.17 -4.95,11.77 0,5.4 0.87,8.7 4.94,12.08 M 897,446.7 l -0.12,0.48 h -0.52 c -2.18,0 -2.85,0.75 -3.1,1.83 l -4.2,16.68 h -0.7 l -7.95,-15.28 h -0.16 l -3.14,13 c -0.06,0.25 -0.1,0.48 -0.1,0.8 0,0.58 0.5,1 2.22,1 h 0.55 l -0.1,0.48 h -7.74 l 0.12,-0.47 h 0.52 c 2.18,0 2.85,-0.8 3.08,-1.8 l 3.66,-14.77 c -0.54,-1.25 -1.8,-1.45 -2.66,-1.45 h -0.55 l 0.1,-0.47 h 5.8 l 6.86,13.52 h 0.15 l 2.83,-11.2 c 0.05,-0.27 0.1,-0.48 0.1,-0.77 0,-0.58 -0.48,-1.07 -2.2,-1.07 h -0.58 l 0.12,-0.47 H 897 m 3.74,15.71 0.3,-0.26 c 0.8,-0.77 1.6,-1.2 2.3,-1.2 1.26,0 1.94,1.1 1.94,3.18 0,2.65 -2.26,6.12 -5.2,6.12 -0.5,0 -0.88,-0.1 -1.27,-0.4 l -0.48,2.06 c -0.06,0.27 -0.1,0.5 -0.1,0.72 0,0.45 0.22,0.88 1.25,0.88 h 0.33 l -0.06,0.25 h -4.8 l 0.05,-0.24 c 1.27,-0.06 1.4,-0.68 1.66,-1.62 l 2.4,-9.53 c 0,-0.38 -0.02,-0.66 -0.64,-0.66 -0.16,0 -0.4,0.04 -0.57,0.08 l -0.04,-0.33 3.25,-0.5 -0.37,1.4 m -0.74,2.76 -0.94,4.1 c 0.28,0.34 0.7,0.44 0.94,0.44 2.08,0 3.6,-3.55 3.6,-5.85 0,-1.3 -0.56,-1.7 -1.03,-1.7 -1.08,0 -2.15,1.25 -2.56,3 m 9.4,-18.65 0.35,-0.45 c 4.46,2.67 7.1,7.52 7.1,12.45 0,5.38 -2.56,9.5 -7.17,12.32 l -0.27,-0.47 c 4.13,-3.4 4.94,-6.13 4.94,-11.76 0,-5.44 -0.72,-8.78 -4.94,-12.1"
       id="path210" />
    <path
       d="m 780,366 a 6,6 0 0 1 6,-6 h 188 a 6,6 0 0 1 6,6 v 68 a 6,6 0 0 1 -6,6 H 786 a 6,6 0 0 1 -6,-6 z"
       stroke="#000000"
       stroke-width="3"
       fill="#ffffff"
       id="path212" />
    <use
       xlink:href="#e"
       transform="translate(800.06173,393.27778)"
       id="use214" />
    <use
       xlink:href="#f"
       transform="translate(877.71605,393.27778)"
       id="use216" />
    <use
       xlink:href="#g"
       transform="translate(855.4321,419.94444)"
       id="use218" />
    <path
       d="m 360,366 a 6,6 0 0 1 6,-6 h 128 a 6,6 0 0 1 6,6 v 68 a 6,6 0 0 1 -6,6 H 366 a 6,6 0 0 1 -6,-6 z"
       stroke="#000000"
       stroke-width="3"
       fill="#ffffff"
       id="path220" />
    <path
       d="m 382.22,364.06 h 95.56 v 71.88 h -95.56 z"
       fill="#ffffff"
       fill-opacity="0"
       id="path222" />
    <path
       d="m 387.45,395.94 h 85.06 v -2.62 h -85.05 z m 40.35,-15.91 0.46,0.64 c -1.17,1.27 -2.12,1.76 -3.45,1.76 -1.5,0 -2.18,-0.56 -2.5,-2.13 -1.7,1.54 -3.12,2.13 -4.9,2.13 -1.98,0 -3.4,-1 -3.4,-3.26 0,-1.36 0.68,-2.53 2.07,-3.45 1.17,-0.77 2.6,-1.33 6.2,-2.34 v -2.1 c 0,-1.97 -0.7,-2.86 -2.5,-2.86 -1.12,0 -2,0.4 -2,1.14 0,0.18 0.05,0.4 0.33,0.7 0.4,0.5 0.58,0.87 0.58,1.3 0,1.05 -0.86,1.85 -2.1,1.85 -1.25,0 -2,-0.8 -2,-2.1 0,-2.45 2.4,-3.87 5.9,-3.87 3.75,0 6.02,1.48 6.02,4.13 v 8.04 c 0,0.52 0.22,0.86 0.65,0.86 0.16,0 0.25,-0.03 0.34,-0.13 m -5.24,-1.32 v -4.55 c -2.47,0.68 -3.76,1.94 -3.76,3.73 0,1.36 0.68,2.06 1.6,2.06 0.74,0 1.48,-0.27 2.16,-1.23 m 21.4,-7.15 -1.17,4.88 h -0.36 c 0.02,-0.17 0.02,-0.35 0.02,-0.52 0,-1.86 -1.06,-3.54 -3.53,-3.54 -0.95,0 -2.67,0.58 -2.67,2.14 0,1.53 1.34,2.46 2.58,3.52 1.3,1.08 2.6,2.36 2.6,4.28 0,2.2 -1.9,4.22 -5.38,4.22 -2.08,0 -2.76,-0.84 -4.44,-0.84 -0.55,0 -0.86,0.24 -1.22,0.84 h -0.35 l 1.33,-5.22 h 0.35 l 0.02,0.7 c 0.07,1.73 0.88,3.68 3.78,3.68 2.8,0 3.44,-1.57 3.44,-3 0,-0.78 -0.4,-1.5 -1,-2.13 -0.68,-0.7 -1.74,-1.48 -2.53,-2.26 -0.62,-0.62 -1.6,-1.8 -1.6,-2.9 0,-1.78 1.42,-3.86 4.9,-3.86 1.85,0 3.1,0.82 4.05,0.82 0.44,0 0.74,-0.48 0.8,-0.82 h 0.36 m -41.44,57.68 h -2.04 v -27.07 h 2.03 v 27.06 m -6.13,0 h -2.04 V 402.5 h 2.04 v 27.06 m 24.68,-7.81 0.46,0.65 c -1.17,1.26 -2.12,1.76 -3.44,1.76 -1.5,0 -2.2,-0.56 -2.53,-2.13 -1.7,1.54 -3.1,2.13 -4.9,2.13 -1.97,0 -3.38,-1 -3.38,-3.27 0,-1.36 0.67,-2.53 2.06,-3.46 1.18,-0.77 2.63,-1.32 6.2,-2.34 V 413 c 0,-1.96 -0.68,-2.86 -2.5,-2.86 -1.1,0 -2,0.4 -2,1.14 0,0.2 0.06,0.4 0.34,0.7 0.4,0.5 0.6,0.88 0.6,1.3 0,1.05 -0.88,1.85 -2.1,1.85 -1.27,0 -2,-0.8 -2,-2.1 0,-2.45 2.4,-3.87 5.87,-3.87 3.77,0 6.05,1.48 6.05,4.13 v 8.02 c 0,0.53 0.22,0.87 0.65,0.87 0.15,0 0.24,-0.05 0.33,-0.14 m -5.23,-1.32 v -4.56 c -2.46,0.68 -3.76,1.94 -3.76,3.73 0,1.36 0.68,2.07 1.6,2.07 0.74,0 1.48,-0.28 2.16,-1.23 m 21.38,-7.13 -1.16,4.9 h -0.36 c 0.03,-0.2 0.03,-0.36 0.03,-0.54 0,-1.85 -1.05,-3.53 -3.53,-3.53 -0.95,0 -2.67,0.57 -2.67,2.14 0,1.52 1.35,2.45 2.58,3.5 1.3,1.1 2.6,2.37 2.6,4.3 0,2.18 -1.9,4.2 -5.38,4.2 -2.07,0 -2.76,-0.83 -4.44,-0.83 -0.55,0 -0.86,0.25 -1.2,0.84 h -0.37 l 1.32,-5.2 h 0.35 l 0.02,0.68 c 0.06,1.74 0.88,3.68 3.77,3.68 2.8,0 3.45,-1.56 3.45,-3 0,-0.77 -0.4,-1.5 -1.02,-2.12 -0.66,-0.68 -1.72,-1.48 -2.52,-2.25 -0.62,-0.62 -1.6,-1.8 -1.6,-2.9 0,-1.78 1.43,-3.86 4.92,-3.86 1.83,0 3.1,0.83 4.04,0.83 0.44,0 0.75,-0.5 0.8,-0.82 h 0.37 m 15.2,15.93 h -2.03 v -27.07 h 2.03 v 27.06 m -6.12,0 h -2.04 V 402.5 h 2.04 v 27.06 m 20.58,-1.88 -1.2,3.02 h -8.63 v -0.26 l 3.93,-4.18 c 2.08,-2.18 2.87,-3.86 2.87,-5.74 0,-2 -1.2,-3.1 -3.07,-3.1 -1.6,0 -2.36,0.7 -3.24,2.86 l -0.47,-0.1 c 0.47,-2.6 1.88,-4.4 4.6,-4.4 2.5,0 4.08,1.7 4.08,3.88 0,1.75 -0.86,3.4 -2.82,5.48 l -3.64,3.88 h 5.17 c 0.93,0 1.4,-0.24 2.12,-1.47"
       id="path224" />
    <path
       d="M 502.5,400 H 560"
       stroke="#000000"
       stroke-width="2"
       fill="none"
       id="path226" />
    <path
       d="m 502.53,401 h -1.03 v -2 h 1.03 z"
       stroke="#000000"
       stroke-width="0.05"
       id="path228" />
    <path
       d="M 575.26,400 561,404.63 v -9.26 z"
       stroke="#000000"
       stroke-width="2"
       id="path230" />
    <path
       d="M 722.5,400 H 760"
       stroke="#000000"
       stroke-width="2"
       fill="none"
       id="path232" />
    <path
       d="m 722.53,401 h -1.03 v -2 h 1.03 z"
       stroke="#000000"
       stroke-width="0.05"
       id="path234" />
    <path
       d="M 775.26,400 761,404.63 v -9.26 z"
       stroke="#000000"
       stroke-width="2"
       id="path236" />
    <path
       d="m 580,366 a 6,6 0 0 1 6,-6 h 128 a 6,6 0 0 1 6,6 v 68 a 6,6 0 0 1 -6,6 H 586 a 6,6 0 0 1 -6,-6 z"
       stroke="#000000"
       stroke-width="3"
       fill="#ffffff"
       id="path238" />
    <path
       d="m 590.26,381.66 h 119.48 v 36.68 H 590.26 Z"
       fill="#ffffff"
       fill-opacity="0"
       id="path240" />
    <path
       d="m 602.35,405.84 0.43,0.28 c -0.98,1.88 -1.58,2.76 -2.5,3.5 -1.03,0.84 -2.18,1.27 -3.5,1.27 -3.36,0 -5.76,-2.84 -5.76,-6.76 0,-2.52 0.9,-4.62 2.55,-6 1.2,-1 2.67,-1.53 4.1,-1.53 2.55,0 4.68,1.43 4.68,3.14 0,0.7 -0.64,1.27 -1.43,1.27 -0.67,0 -1.2,-0.5 -1.46,-1.4 l -0.18,-0.66 c -0.3,-1.12 -0.7,-1.45 -1.8,-1.45 -2.45,0 -4.13,2.1 -4.13,5.27 0,3.5 1.92,5.93 4.72,5.93 1.73,0 2.82,-0.73 4.28,-2.86 m 15.68,-2.28 c 0,4.23 -2.73,7.33 -6.84,7.33 -3.68,0 -6.57,-3.02 -6.57,-7.24 0,-4.23 2.74,-7.06 6.84,-7.06 3.7,0 6.56,2.77 6.56,6.96 m -2.73,0.82 c 0,-2.06 -0.55,-4.16 -1.52,-5.4 -0.73,-0.92 -1.58,-1.52 -2.9,-1.52 -2.1,0 -3.5,1.8 -3.5,4.83 0,2.4 0.47,4.58 1.6,6.22 0.66,0.97 1.64,1.52 2.73,1.52 2.26,0 3.6,-2.13 3.6,-5.66 m 8.4,-2.92 3.17,1.9 c 1.95,1.2 2.68,2.02 2.68,3.75 0,2.03 -1.95,3.8 -4.25,3.8 -0.64,0 -1.52,-0.04 -2.22,-0.28 -0.73,-0.25 -1.07,-0.28 -1.4,-0.28 -0.37,0 -0.55,0.06 -0.73,0.37 h -0.4 v -4.76 h 0.5 c 0.63,2.94 1.75,4.28 3.85,4.28 1.55,0 2.52,-1 2.52,-2.25 0,-0.94 -0.6,-1.73 -1.6,-2.28 l -1.65,-0.92 c -2.52,-1.4 -3.65,-2.86 -3.65,-4.4 0,-2.4 1.7,-3.74 4.2,-3.74 0.73,0 1.4,0.03 2.03,0.33 0.34,0.15 0.64,0.24 0.85,0.24 0.13,0 0.25,-0.02 0.5,-0.3 h 0.32 l 0.16,4.14 h -0.46 c -0.7,-2.73 -1.6,-3.74 -3.43,-3.74 -1.32,0 -2.3,0.64 -2.3,2.07 0,0.67 0.46,1.55 1.32,2.07 m 20.43,-6.58 h -11.97 v -1.42 h 11.97 v 1.42 m 9.84,4.72 h -5.93 v -0.32 c 1.6,-0.08 2.04,-0.54 2.04,-1.72 v -9.64 c 0,-0.73 -0.2,-1.06 -0.65,-1.06 -0.22,0 -0.6,0.1 -0.97,0.26 l -0.58,0.2 V 387 l 3.84,-1.94 0.2,0.06 v 12.83 c 0,0.93 0.43,1.3 2.04,1.3 v 0.33 m 14.6,15.9 -0.37,0.48 c -4.8,-2.73 -7.4,-7.87 -7.4,-13.03 0,-5.63 2.63,-10 7.5,-12.9 l 0.27,0.5 c -4.23,3.6 -5.17,6.44 -5.17,12.3 0,5.66 0.92,9.1 5.17,12.65 m 15.23,-17.9 -2.77,10.48 c 0,0 -0.03,0.06 -0.03,0.34 0,0.33 0.18,0.5 0.42,0.5 0.3,0 0.76,-0.05 1.95,-1.63 l 0.36,0.37 c -0.94,1.43 -2.58,3.25 -4.04,3.25 -1,0 -1.28,-0.7 -1.28,-1.68 0,-0.4 0.18,-1.04 0.33,-1.52 h -0.12 c -2.2,2.8 -4.07,3.2 -5.26,3.2 -1.9,0 -2.7,-1.68 -2.7,-3.63 0,-4 4,-10.1 8.38,-10.1 1.3,0 1.95,0.74 2,1.4 h 0.04 l 0.26,-1 h 2.43 m -3.2,2.65 c 0,-1.24 -0.36,-2.16 -1.52,-2.16 -2.06,0 -3.9,2.65 -4.92,5.2 -0.55,1.37 -0.85,2.7 -0.85,3.77 0,1.6 0.95,2 1.77,2 2.1,0 4.23,-2.88 5.08,-5.77 0.24,-0.8 0.45,-2 0.45,-3.04 m 0.05,-5.95 h -1.03 l -3.7,-3.13 -3.68,3.13 h -1.04 l 3.77,-5.07 h 1.9 m 14.41,19.78 0.97,-1.48 c 0.55,-0.87 1.3,-1.8 2.38,-1.8 0.7,0 1.06,0.24 1.06,0.7 0,0.4 -0.28,0.9 -0.83,0.9 -0.48,0 -0.6,-0.2 -0.95,-0.2 -0.64,0 -0.88,0.35 -1.18,0.82 l -1.18,1.83 c 0.64,1.33 1.13,4.23 2.1,4.23 0.35,0 0.86,-0.3 1.3,-1.23 l 0.3,0.22 c -0.24,0.32 -1.2,2.38 -2.46,2.38 -0.88,0 -1.3,-0.88 -1.57,-1.65 l -0.87,-2.43 -1.35,2.1 c -0.7,1.06 -1.3,1.98 -2.5,1.98 -0.8,0 -1.13,-0.53 -1.13,-1 0,-0.35 0.28,-0.8 0.82,-0.8 0.56,0 0.47,0.43 1,0.43 0.26,0 0.82,-0.22 1.5,-1.27 l 1.4,-2.16 -0.7,-1.98 c -0.37,-1.03 -0.93,-1.9 -2.1,-1.9 -0.3,0 -0.6,0.04 -0.82,0.12 l -0.07,-0.38 2.84,-0.7 c 0.94,0.5 1.35,1.38 1.6,2.1 m 9.66,-17.27 0.36,-0.5 c 4.65,2.8 7.42,7.88 7.42,13.05 0,5.62 -2.68,9.94 -7.5,12.88 l -0.28,-0.48 c 4.3,-3.56 5.16,-6.42 5.16,-12.3 0,-5.7 -0.75,-9.2 -5.16,-12.65"
       id="path242" />
    <path
       d="M 982.5,181.66 H 1160"
       stroke="#000000"
       stroke-width="2"
       fill="none"
       id="path244" />
    <path
       d="m 982.53,182.66 h -1.03 v -2 h 1.03 z"
       stroke="#000000"
       stroke-width="0.05"
       id="path246" />
    <path
       d="M 1175.26,181.66 1161,186.3 V 177 Z"
       stroke="#000000"
       stroke-width="2"
       id="path248" />
    <path
       d="m 490,86 a 6,6 0 0 1 6,-6 h 328 a 6,6 0 0 1 6,6 v 29.66 a 6,6 0 0 1 -6,6 H 496 a 6,6 0 0 1 -6,-6 z"
       fill="none"
       id="path250" />
    <use
       xlink:href="#h"
       transform="translate(492.48765,105.88889)"
       id="use252" />
    <use
       xlink:href="#i"
       transform="translate(583.40741,105.88889)"
       id="use254" />
    <use
       xlink:href="#j"
       transform="translate(610.5679,105.88889)"
       id="use256" />
    <use
       xlink:href="#k"
       transform="translate(701.35185,105.88889)"
       id="use258" />
    <path
       d="m 320,127.66 a 6,6 0 0 1 6,-6 h 668 a 6,6 0 0 1 6,6 V 254 a 6,6 0 0 1 -6,6 H 326 a 6,6 0 0 1 -6,-6 z"
       stroke="#000000"
       stroke-opacity="0"
       stroke-width="3"
       fill="#1071e5"
       fill-opacity="0.1"
       id="path260" />
    <path
       d="m 360,147.66 a 6,6 0 0 1 6,-6 h 128 a 6,6 0 0 1 6,6 v 68 a 6,6 0 0 1 -6,6 H 366 a 6,6 0 0 1 -6,-6 z"
       stroke="#000000"
       stroke-width="3"
       fill="#ffffff"
       id="path262" />
    <use
       xlink:href="#l"
       transform="translate(383.76543,174.93766)"
       id="use264" />
    <use
       xlink:href="#g"
       transform="translate(405.4321,201.60432)"
       id="use266" />
    <path
       d="m 780,147.66 a 6,6 0 0 1 6,-6 h 188 a 6,6 0 0 1 6,6 v 68 a 6,6 0 0 1 -6,6 H 786 a 6,6 0 0 1 -6,-6 z"
       stroke="#000000"
       stroke-width="3"
       fill="#ffffff"
       id="path268" />
    <use
       xlink:href="#e"
       transform="translate(800.06173,174.93766)"
       id="use270" />
    <use
       xlink:href="#f"
       transform="translate(877.71605,174.93766)"
       id="use272" />
    <use
       xlink:href="#g"
       transform="translate(855.4321,201.60432)"
       id="use274" />
    <path
       d="M 502.5,181.66 H 560"
       stroke="#000000"
       stroke-width="2"
       fill="none"
       id="path276" />
    <path
       d="m 502.53,182.66 h -1.03 v -2 h 1.03 z"
       stroke="#000000"
       stroke-width="0.05"
       id="path278" />
    <path
       d="M 575.26,181.66 561,186.3 V 177 Z"
       stroke="#000000"
       stroke-width="2"
       id="path280" />
    <path
       d="M 722.5,181.66 H 760"
       stroke="#000000"
       stroke-width="2"
       fill="none"
       id="path282" />
    <path
       d="m 722.53,182.66 h -1.03 v -2 h 1.03 z"
       stroke="#000000"
       stroke-width="0.05"
       id="path284" />
    <path
       d="M 775.26,181.66 761,186.3 V 177 Z"
       stroke="#000000"
       stroke-width="2"
       id="path286" />
    <path
       d="m 580,147.66 a 6,6 0 0 1 6,-6 h 128 a 6,6 0 0 1 6,6 v 68 a 6,6 0 0 1 -6,6 H 586 a 6,6 0 0 1 -6,-6 z"
       stroke="#000000"
       stroke-width="3"
       fill="#ffffff"
       id="path288" />
    <path
       d="m 600,158.13 h 100 v 47.06 H 600 Z"
       fill="#ffffff"
       fill-opacity="0"
       id="path290" />
    <path
       d="m 617.16,199.54 h -2.87 v -38.28 h 2.86 v 38.28 m -8.67,0 h -2.88 v -38.28 h 2.87 v 38.28 m 37.48,-19.2 c 0,3.26 -2.6,5.88 -5.88,5.88 -3.3,0 -5.88,-2.62 -5.88,-5.97 0,-3.27 2.6,-5.8 5.96,-5.8 3.18,0 5.8,2.66 5.8,5.9 m 28.62,19.19 h -2.88 v -38.28 h 2.87 v 38.28 m -8.67,0 h -2.88 v -38.28 h 2.88 v 38.28 m 28.91,-5.89 -1.67,4.22 H 681.1 v -0.37 l 5.47,-5.82 c 2.9,-3.05 4,-5.4 4,-8 0,-2.8 -1.66,-4.35 -4.28,-4.35 -2.23,0 -3.3,1 -4.53,4 l -0.65,-0.15 c 0.64,-3.6 2.62,-6.13 6.4,-6.13 3.48,0 5.7,2.38 5.7,5.42 0,2.44 -1.2,4.75 -3.94,7.64 l -5.08,5.43 h 7.2 c 1.3,0 1.94,-0.34 2.96,-2.06"
       id="path292" />
    <path
       d="M 380.03,224.8 H 499.37 V 258 H 380.03 Z"
       fill="#ffffff"
       fill-opacity="0"
       id="path294" />
    <path
       d="m 388.86,251.6 -0.35,0.47 c -4.58,-2.62 -7.08,-7.53 -7.08,-12.46 0,-5.36 2.53,-9.55 7.18,-12.3 l 0.26,0.46 c -4.04,3.46 -4.94,6.16 -4.94,11.76 0,5.4 0.87,8.68 4.94,12.08 m 8.03,-17.37 h 1.08 c 1.82,0 1.68,-2.24 2.93,-4.1 0.9,-1.36 2.16,-2.6 4.37,-2.6 1.45,0 2.3,0.68 2.3,1.7 0,0.8 -0.62,1.16 -1.2,1.16 -0.8,0 -1.02,-0.32 -1.02,-0.72 0,-0.4 0.26,-0.85 0.26,-1.08 0,-0.14 -0.07,-0.23 -0.42,-0.23 -1.45,0 -2.6,1.57 -3.2,3.83 l -0.55,2.04 h 2.32 l -0.34,1.1 h -2.2 l -2.3,8.88 c -0.2,0.8 -0.43,1.9 -0.87,2.97 -0.95,2.4 -2.52,5.16 -5.08,5.16 -1.4,0 -2.1,-0.7 -2.1,-1.57 0,-0.7 0.42,-1.44 1.26,-1.44 0.8,0 1.08,0.53 1.08,0.96 0,0.55 -0.46,0.58 -0.46,0.93 0,0.18 0.17,0.26 0.43,0.26 1.9,0 2.76,-4.57 3.2,-6.23 l 2.53,-9.93 h -2.24 m 18.76,13.77 0.3,0.23 c -0.6,0.7 -1.6,2.18 -2.74,2.18 -0.37,0 -0.84,-0.2 -0.84,-0.86 0,-0.24 0.02,-0.53 1.3,-5.48 0.06,-0.14 0.16,-0.6 0.16,-0.9 0,-0.4 -0.15,-0.72 -0.5,-0.72 -0.73,0 -2.1,1.75 -2.75,2.73 -0.7,1.05 -1.27,2.1 -1.37,2.5 l -0.66,2.5 h -1.6 l 3.12,-12.3 0.04,-0.2 c 0,-0.28 -0.2,-0.47 -0.63,-0.47 -0.2,0 -0.44,0.03 -0.6,0.05 l -0.04,-0.3 3.26,-0.48 -2.24,8.54 h 0.08 c 1.1,-1.18 2.56,-3.87 4.43,-3.87 0.87,0 1.17,0.7 1.17,1.43 0,0.46 -0.12,0.9 -0.22,1.32 l -1.2,4.72 c 0,0.1 -0.04,0.14 -0.04,0.2 0,0.13 0.07,0.3 0.27,0.3 0.45,0 1,-0.73 1.3,-1.1 m 6.1,-5.44 0.3,-0.26 c 0.8,-0.76 1.6,-1.2 2.3,-1.2 1.26,0 1.94,1.12 1.94,3.2 0,2.64 -2.26,6.1 -5.2,6.1 -0.5,0 -0.88,-0.08 -1.27,-0.38 l -0.48,2.05 c -0.06,0.26 -0.1,0.48 -0.1,0.7 0,0.46 0.22,0.9 1.25,0.9 h 0.33 l -0.06,0.24 h -4.8 l 0.05,-0.25 c 1.27,-0.07 1.4,-0.7 1.66,-1.63 l 2.4,-9.53 c 0,-0.4 -0.02,-0.67 -0.64,-0.67 -0.16,0 -0.4,0.04 -0.57,0.08 l -0.04,-0.33 3.25,-0.5 -0.37,1.42 m -0.74,2.75 -0.94,4.1 c 0.28,0.33 0.7,0.43 0.94,0.43 2.08,0 3.62,-3.55 3.62,-5.85 0,-1.3 -0.58,-1.7 -1.05,-1.7 -1.08,0 -2.15,1.25 -2.56,3 m 10.99,4.67 -0.3,-0.55 c 1.6,-1.08 2.42,-2.15 2.42,-3.1 0,-0.2 -0.18,-0.4 -0.4,-0.4 -0.24,0 -0.53,0.13 -0.85,0.13 -1.07,0 -1.7,-0.5 -1.7,-1.48 0,-1 0.7,-1.66 1.76,-1.66 1.3,0 2.32,1.02 2.32,2.53 0,1.73 -1.25,3.56 -3.25,4.52 m 35.85,-23.05 -0.1,0.47 h -0.53 c -2.18,0 -2.84,0.75 -3.1,1.83 l -4.2,16.67 H 459 l -7.97,-15.28 h -0.17 l -3.14,13 c -0.06,0.24 -0.1,0.47 -0.1,0.8 0,0.58 0.5,1 2.22,1 h 0.55 l -0.12,0.48 h -7.73 l 0.12,-0.47 h 0.52 c 2.17,0 2.84,-0.8 3.07,-1.8 l 3.66,-14.78 c -0.56,-1.25 -1.8,-1.45 -2.68,-1.45 h -0.55 l 0.12,-0.47 h 5.8 l 6.86,13.5 h 0.15 l 2.8,-11.2 c 0.07,-0.26 0.13,-0.47 0.13,-0.76 0,-0.58 -0.5,-1.07 -2.2,-1.07 h -0.6 l 0.13,-0.47 h 7.7 m 8.23,21.14 0.28,0.23 c -0.6,0.7 -1.6,2.18 -2.73,2.18 -0.37,0 -0.85,-0.2 -0.85,-0.86 0,-0.24 0.02,-0.53 1.32,-5.48 0.04,-0.14 0.14,-0.6 0.14,-0.9 0,-0.4 -0.14,-0.72 -0.5,-0.72 -0.73,0 -2.08,1.75 -2.74,2.73 -0.7,1.05 -1.28,2.1 -1.38,2.5 l -0.65,2.5 h -1.62 l 3.12,-12.3 c 0.03,-0.1 0.05,-0.15 0.05,-0.2 0,-0.28 -0.2,-0.47 -0.64,-0.47 -0.2,0 -0.42,0.03 -0.6,0.05 l -0.03,-0.3 3.27,-0.48 -2.24,8.54 h 0.08 c 1.1,-1.18 2.57,-3.87 4.44,-3.87 0.86,0 1.17,0.7 1.17,1.43 0,0.46 -0.14,0.9 -0.24,1.32 l -1.2,4.72 c 0,0.1 -0.03,0.14 -0.03,0.2 0,0.13 0.06,0.3 0.26,0.3 0.45,0 1,-0.73 1.3,-1.1 m 6.12,-5.44 0.27,-0.26 c 0.8,-0.76 1.6,-1.2 2.32,-1.2 1.25,0 1.92,1.12 1.92,3.2 0,2.64 -2.25,6.1 -5.2,6.1 -0.5,0 -0.87,-0.08 -1.26,-0.38 l -0.5,2.05 c -0.06,0.26 -0.1,0.48 -0.1,0.7 0,0.46 0.23,0.9 1.25,0.9 h 0.34 l -0.06,0.24 h -4.8 l 0.06,-0.25 c 1.27,-0.07 1.4,-0.7 1.66,-1.63 l 2.4,-9.53 c 0,-0.4 -0.02,-0.67 -0.63,-0.67 -0.17,0 -0.4,0.04 -0.58,0.08 l -0.05,-0.33 3.24,-0.5 -0.38,1.42 m -0.73,2.75 -0.96,4.1 c 0.3,0.33 0.7,0.43 0.95,0.43 2.06,0 3.6,-3.55 3.6,-5.85 0,-1.3 -0.58,-1.7 -1.05,-1.7 -1.1,0 -2.15,1.25 -2.56,3 m 9.47,-18.59 0.35,-0.47 c 4.44,2.67 7.1,7.52 7.1,12.45 0,5.37 -2.57,9.5 -7.2,12.3 l -0.25,-0.45 c 4.13,-3.4 4.94,-6.13 4.94,-11.76 0,-5.43 -0.73,-8.77 -4.94,-12.08"
       id="path296" />
    <path
       d="m 853.73,224.8 h 71.9 v 29.54 h -71.9 z"
       fill="#ffffff"
       fill-opacity="0"
       id="path298" />
    <path
       d="m 862.56,251.6 -0.35,0.47 c -4.58,-2.62 -7.08,-7.53 -7.08,-12.46 0,-5.36 2.53,-9.55 7.18,-12.3 l 0.26,0.46 c -4.04,3.46 -4.94,6.16 -4.94,11.76 0,5.4 0.87,8.68 4.94,12.08 m 27,-23.65 -0.12,0.47 h -0.52 c -2.18,0 -2.85,0.75 -3.1,1.83 l -4.2,16.67 h -0.7 L 873,231.65 h -0.17 l -3.13,13 c -0.05,0.24 -0.08,0.47 -0.08,0.8 0,0.58 0.48,1 2.2,1 h 0.55 l -0.12,0.48 h -7.73 l 0.12,-0.47 h 0.52 c 2.18,0 2.85,-0.8 3.08,-1.8 l 3.66,-14.78 c -0.55,-1.25 -1.8,-1.45 -2.67,-1.45 h -0.54 l 0.1,-0.47 h 5.82 l 6.85,13.5 h 0.15 l 2.82,-11.2 c 0.06,-0.26 0.1,-0.47 0.1,-0.76 0,-0.58 -0.48,-1.07 -2.2,-1.07 h -0.57 l 0.1,-0.47 h 7.74 m 8.2,14.54 -1.86,7.08 c 0,0 -0.03,0.04 -0.03,0.22 0,0.23 0.14,0.35 0.3,0.35 0.2,0 0.52,-0.04 1.32,-1.1 l 0.24,0.24 c -0.63,0.95 -1.74,2.2 -2.73,2.2 -0.67,0 -0.86,-0.5 -0.86,-1.14 0,-0.27 0.12,-0.7 0.23,-1.03 h -0.1 c -1.46,1.9 -2.74,2.16 -3.54,2.16 -1.3,0 -1.83,-1.14 -1.83,-2.46 0,-2.7 2.72,-6.8 5.67,-6.8 0.88,0 1.3,0.48 1.36,0.93 h 0.02 l 0.18,-0.68 h 1.64 m -2.15,1.78 c 0,-0.84 -0.25,-1.46 -1.03,-1.46 -1.4,0 -2.63,1.8 -3.32,3.5 -0.37,0.94 -0.58,1.84 -0.58,2.56 0,1.1 0.64,1.35 1.2,1.35 1.4,0 2.85,-1.95 3.42,-3.9 0.16,-0.53 0.3,-1.35 0.3,-2.05 m 16.45,4.83 0.28,0.23 c -0.66,1.12 -1.72,2.14 -2.7,2.14 -0.44,0 -0.8,-0.2 -0.8,-1 0,-0.15 0.03,-0.35 0.13,-0.76 l 1.16,-4.54 c 0.1,-0.28 0.13,-0.47 0.13,-0.82 0,-0.4 -0.14,-0.78 -0.5,-0.78 -1.12,0 -3.37,3.72 -3.68,4.97 l -0.7,2.78 h -1.62 l 1.58,-6.14 c 0.04,-0.18 0.1,-0.5 0.1,-0.82 0,-0.4 -0.1,-0.78 -0.47,-0.78 -1.06,0 -3.32,3.72 -3.64,4.97 l -0.72,2.78 h -1.6 l 1.95,-7.68 c 0,-0.37 -0.14,-0.63 -0.7,-0.63 -0.15,0 -0.38,0.02 -0.55,0.04 l -0.04,-0.28 3.24,-0.5 -0.9,3.48 h 0.12 c 1.93,-2.94 3.16,-3.47 3.94,-3.47 0.76,0 1.13,0.76 1.13,1.66 0,0.34 -0.06,0.65 -0.2,1.06 l -0.2,0.74 h 0.1 c 0.6,-1.07 1.67,-2.34 2.68,-3.02 0.46,-0.3 0.85,-0.45 1.26,-0.45 0.74,0 1.1,0.53 1.1,1.45 0,0.37 0,0.76 -0.13,1.26 l -1.26,4.74 c -0.02,0.06 -0.04,0.18 -0.04,0.25 0,0.16 0.13,0.24 0.3,0.24 0.36,0 0.9,-0.33 1.28,-1.1 m 4.64,-21.34 0.35,-0.47 c 4.45,2.67 7.1,7.52 7.1,12.45 0,5.37 -2.57,9.5 -7.18,12.3 l -0.26,-0.45 c 4.12,-3.4 4.93,-6.13 4.93,-11.76 0,-5.43 -0.7,-8.77 -4.93,-12.08"
       id="path300" />
    <path
       d="m 1011,412 h 118.1 v 41.57 H 1011 Z"
       fill="#ffffff"
       fill-opacity="0"
       id="path302" />
    <path
       d="m 1028.23,422.54 c 0,7.12 -5.2,17.55 -10.8,17.55 -3.45,0 -4.98,-2.15 -4.98,-6.52 0,-6.32 4.22,-18.17 11.13,-18.17 2.65,0 4.65,2.3 4.65,7.14 m -11.45,4.65 h 7.5 c 0.53,-2.56 0.9,-4.56 0.9,-6.05 0,-2.65 -0.37,-4.7 -1.86,-4.7 -2.6,0 -5.6,6.4 -6.54,10.74 m 7.16,1.3 h -7.52 c -0.58,1.8 -0.9,4.25 -0.9,6 0,2.5 0.53,4.54 2.1,4.54 2.43,0 4.6,-4.76 5.74,-8.36 0.25,-0.84 0.47,-1.86 0.58,-2.18 m 17.3,6.05 -0.34,1.16 h -2.08 c 0.34,0.37 0.44,0.7 0.44,1.27 0,1.93 -1.36,3.52 -3.62,3.8 -1.52,0.2 -2.27,0.85 -2.27,1.5 0,1.62 6,0.6 6,3.8 0,1.82 -1.7,3.88 -5.53,3.88 -3.45,0 -4.73,-1.46 -4.73,-2.95 0,-1.5 1.42,-2.27 3.02,-2.78 -0.44,-0.28 -0.62,-0.77 -0.62,-1.2 0,-0.98 0.95,-2.24 2.18,-2.24 v -0.1 c -1.72,-0.4 -2.4,-1.6 -2.4,-2.8 0,-2.04 1.73,-4.07 4.46,-4.07 1.08,0 1.88,0.34 2.26,0.73 h 3.24 m -4,1.65 c 0,-0.95 -0.27,-1.6 -1.4,-1.6 -1.4,0 -2.52,1.83 -2.52,3.57 0,1.2 0.3,2.1 1.44,2.1 1.83,0 2.47,-2.63 2.47,-4.07 m 0.33,10.74 c 0,-2 -3.4,-1.88 -4.93,-2.44 -0.2,0.13 -0.46,0.25 -0.67,0.4 -0.67,0.5 -1.23,1.16 -1.23,1.86 0,1.2 1.13,2.5 3.57,2.5 2.34,0 3.26,-1.2 3.26,-2.32 m 20.81,-4.52 0.33,0.28 c -0.8,1.4 -2.14,2.67 -3.35,2.67 -0.57,0 -1,-0.26 -1,-1.26 0,-0.2 0.02,-0.45 0.15,-0.96 l 1.44,-5.68 c 0.1,-0.36 0.15,-0.6 0.15,-1.03 0,-0.5 -0.16,-0.97 -0.62,-0.97 -1.4,0 -4.22,4.65 -4.6,6.22 l -0.88,3.46 h -2.03 l 1.98,-7.68 c 0.05,-0.23 0.13,-0.64 0.13,-1.03 0,-0.5 -0.13,-0.97 -0.6,-0.97 -1.33,0 -4.15,4.65 -4.57,6.22 l -0.9,3.46 h -2 l 2.45,-9.6 c 0,-0.47 -0.15,-0.8 -0.85,-0.8 -0.2,0 -0.48,0.02 -0.7,0.05 l -0.04,-0.37 4.03,-0.62 -1.14,4.35 h 0.16 c 2.4,-3.67 3.95,-4.34 4.93,-4.34 0.95,0 1.4,0.96 1.4,2.1 0,0.43 -0.06,0.8 -0.22,1.33 l -0.25,0.92 h 0.12 c 0.75,-1.33 2.1,-2.92 3.34,-3.77 0.57,-0.4 1.06,-0.57 1.57,-0.57 0.94,0 1.4,0.68 1.4,1.84 0,0.46 -0.03,0.95 -0.18,1.56 l -1.57,5.94 c -0.02,0.08 -0.05,0.23 -0.05,0.3 0,0.2 0.16,0.32 0.4,0.32 0.42,0 1.1,-0.4 1.58,-1.37 m 13.25,-8.26 -2.34,8.87 c 0,0 -0.02,0.06 -0.02,0.3 0,0.28 0.15,0.43 0.36,0.43 0.25,0 0.64,-0.05 1.64,-1.4 l 0.3,0.32 c -0.8,1.2 -2.17,2.75 -3.4,2.75 -0.86,0 -1.1,-0.6 -1.1,-1.4 0,-0.35 0.17,-0.88 0.3,-1.3 h -0.1 c -1.86,2.37 -3.45,2.7 -4.45,2.7 -1.62,0 -2.3,-1.4 -2.3,-3.06 0,-3.4 3.4,-8.53 7.1,-8.53 1.1,0 1.65,0.63 1.7,1.2 h 0.03 l 0.23,-0.86 h 2.04 m -2.7,2.24 c 0,-1.05 -0.3,-1.82 -1.28,-1.82 -1.75,0 -3.3,2.23 -4.17,4.4 -0.47,1.15 -0.72,2.28 -0.72,3.18 0,1.36 0.8,1.7 1.5,1.7 1.76,0 3.56,-2.45 4.28,-4.9 0.2,-0.66 0.38,-1.7 0.38,-2.56 m 12.82,5.9 0.3,0.33 c -1.3,1.54 -2.9,2.8 -5.08,2.8 -2.5,0 -3.52,-2 -3.52,-4 0,-3.58 3.1,-7.62 6.76,-7.62 1.28,0 2.5,0.7 2.5,1.96 0,0.98 -0.42,1.8 -1.4,1.8 -0.66,0 -0.97,-0.54 -0.97,-0.97 0,-0.63 0.74,-0.94 0.74,-1.5 0,-0.3 -0.25,-0.54 -0.87,-0.54 -3.06,0 -4.52,4.6 -4.52,6.65 0,2.25 1.26,2.8 2.4,2.8 1.58,0 2.76,-0.83 3.66,-1.7 m 15.89,3.05 h -7.68 v -29.73 h 7.67 v 0.9 h -3 c -1.25,0 -1.9,0.44 -1.9,1.75 v 24.2 c 0,1.46 0.7,1.97 1.9,1.97 h 3 v 0.9 m 18.22,-9.15 -0.18,0.22 c -1.02,1.24 -2.77,3.56 -4.66,3.56 -1.16,0 -1.5,-0.83 -1.5,-1.67 0,-0.46 0.16,-1.04 0.27,-1.44 l 2.07,-8.04 c 0.07,-0.3 0.25,-1 0.25,-1.52 0,-0.7 -0.23,-1.38 -0.88,-1.38 -1.38,0 -3.67,3.12 -4.8,4.83 -1.3,1.96 -2.25,3.67 -2.47,4.44 l -1.2,4.5 h -2.8 l 3.45,-13.6 c 0,-0.66 -0.1,-1.17 -1.1,-1.17 -0.35,0 -0.75,0.08 -1,0.1 l -0.08,-0.53 5.78,-0.84 -1.85,6.87 h 0.1 c 0.2,0 1.97,-2.54 2.04,-2.65 1.45,-1.82 3.63,-4.22 5.8,-4.22 1.6,0 2.05,1.06 2.05,2.25 0,0.92 -0.22,1.83 -0.4,2.56 l -2.15,8.4 c -0.03,0.07 -0.03,0.18 -0.03,0.36 0.03,0.22 0.14,0.5 0.54,0.5 0.88,0 1.76,-1.3 2.26,-1.92 m 10.52,9.55 h -7.67 v -0.9 h 3.2 c 1.27,0 1.7,-0.55 1.7,-1.68 V 418.5 c 0,-1.27 -0.47,-1.96 -1.85,-1.96 h -3.05 v -0.9 h 7.67 v 29.72"
       id="path304" />
    <path
       d="m 1036.05,456.34 a 6,6 0 0 1 6,-6 h 56 a 6,6 0 0 1 6,6 v 28 a 6,6 0 0 1 -6,6 h -56 a 6,6 0 0 1 -6,-6 z"
       fill="none"
       id="path306" />
    <use
       xlink:href="#m"
       transform="translate(1042.4932,473.89568)"
       id="use308" />
    <path
       d="m 1011,135 h 116.34 v 40.46 H 1011 Z"
       fill="#ffffff"
       fill-opacity="0"
       id="path310" />
    <path
       d="m 1029.7,146.8 -4.9,8.53 v 1.3 c 0,1.7 0.35,3.5 1.2,3.5 0.42,0 0.95,-0.66 1.63,-2.6 l 0.53,0.24 c -0.64,2.58 -1.8,4.53 -3.37,4.53 -1.28,0 -2.27,-1.45 -2.34,-3.08 h -0.07 c -1.2,1.77 -3.05,3.08 -5.42,3.08 -3,0 -4.57,-2.76 -4.57,-5.7 0,-0.77 0.05,-1.44 0.26,-2.33 1,-4.14 4.14,-7.92 7.96,-7.92 2.73,0 4.03,2.33 4.03,4.8 l 2.27,-4.34 h 2.8 m -7.33,5.5 c 0,-2.42 -0.15,-4.9 -2.2,-4.9 -2.02,0 -4.8,4.5 -4.8,10.13 0,2 0.13,3.7 1.9,3.7 2.26,0 4.24,-4.48 4.9,-6.43 0.15,-0.7 0.2,-1.56 0.2,-2.5 m 19.46,4.61 -0.32,1.13 h -2.03 c 0.3,0.38 0.4,0.7 0.4,1.25 0,1.88 -1.3,3.43 -3.5,3.7 -1.5,0.2 -2.2,0.83 -2.2,1.45 0,1.58 5.8,0.58 5.8,3.7 0,1.78 -1.64,3.78 -5.36,3.78 -3.35,0 -4.6,-1.43 -4.6,-2.88 0,-1.45 1.37,-2.2 2.92,-2.7 -0.42,-0.27 -0.6,-0.75 -0.6,-1.17 0,-0.95 0.93,-2.18 2.13,-2.18 v -0.1 c -1.7,-0.37 -2.36,-1.55 -2.36,-2.72 0,-1.98 1.7,-3.96 4.35,-3.96 1.04,0 1.8,0.33 2.2,0.7 h 3.14 m -3.9,1.6 c 0,-0.92 -0.25,-1.55 -1.35,-1.55 -1.36,0 -2.46,1.78 -2.46,3.48 0,1.15 0.3,2.03 1.4,2.03 1.77,0 2.4,-2.55 2.4,-3.95 m 0.32,10.45 c 0,-1.95 -3.3,-1.83 -4.8,-2.38 -0.2,0.13 -0.45,0.25 -0.65,0.4 -0.64,0.48 -1.2,1.13 -1.2,1.8 0,1.18 1.1,2.43 3.5,2.43 2.26,0 3.16,-1.15 3.16,-2.25 m 20.29,-4.4 0.33,0.27 c -0.8,1.35 -2.1,2.6 -3.28,2.6 -0.55,0 -0.98,-0.25 -0.98,-1.22 0,-0.18 0.02,-0.43 0.14,-0.93 l 1.4,-5.53 c 0.1,-0.34 0.15,-0.57 0.15,-1 0,-0.5 -0.15,-0.95 -0.6,-0.95 -1.36,0 -4.1,4.53 -4.48,6.06 l -0.85,3.37 h -1.98 l 1.92,-7.47 c 0.05,-0.23 0.12,-0.63 0.12,-1 0,-0.5 -0.12,-0.96 -0.57,-0.96 -1.3,0 -4.05,4.53 -4.45,6.06 l -0.88,3.37 h -1.95 l 2.37,-9.35 c 0,-0.45 -0.15,-0.78 -0.83,-0.78 -0.2,0 -0.48,0.03 -0.68,0.06 l -0.05,-0.36 3.94,-0.6 -1.1,4.23 h 0.15 c 2.34,-3.58 3.84,-4.23 4.8,-4.23 0.92,0 1.37,0.93 1.37,2.03 0,0.43 -0.08,0.8 -0.23,1.3 l -0.25,0.9 h 0.12 c 0.72,-1.3 2.02,-2.85 3.25,-3.68 0.55,-0.37 1.02,-0.55 1.52,-0.55 0.9,0 1.35,0.65 1.35,1.78 0,0.45 -0.03,0.93 -0.18,1.53 l -1.53,5.77 c -0.02,0.08 -0.05,0.23 -0.05,0.3 0,0.2 0.14,0.3 0.37,0.3 0.42,0 1.08,-0.4 1.55,-1.32 m 12.97,-8.03 -2.27,8.63 c 0,0 -0.03,0.05 -0.03,0.27 0,0.28 0.15,0.43 0.35,0.43 0.25,0 0.63,-0.05 1.6,-1.35 l 0.3,0.3 c -0.77,1.17 -2.12,2.67 -3.32,2.67 -0.83,0 -1.05,-0.57 -1.05,-1.37 0,-0.33 0.15,-0.85 0.27,-1.25 h -0.1 c -1.8,2.3 -3.35,2.62 -4.32,2.62 -1.58,0 -2.23,-1.37 -2.23,-2.97 0,-3.3 3.3,-8.3 6.9,-8.3 1.08,0 1.6,0.6 1.65,1.15 h 0.03 l 0.22,-0.83 h 2 m -2.62,2.17 c 0,-1.02 -0.3,-1.77 -1.25,-1.77 -1.7,0 -3.2,2.18 -4.05,4.28 -0.45,1.12 -0.7,2.22 -0.7,3.1 0,1.32 0.77,1.65 1.45,1.65 1.72,0 3.47,-2.38 4.17,-4.75 0.2,-0.65 0.38,-1.66 0.38,-2.5 m 12.45,5.75 0.3,0.32 c -1.27,1.5 -2.82,2.73 -4.95,2.73 -2.42,0 -3.42,-1.95 -3.42,-3.88 0,-3.5 3.02,-7.43 6.57,-7.43 1.25,0 2.43,0.68 2.43,1.9 0,0.95 -0.4,1.75 -1.35,1.75 -0.65,0 -0.95,-0.52 -0.95,-0.94 0,-0.6 0.72,-0.9 0.72,-1.46 0,-0.3 -0.25,-0.52 -0.85,-0.52 -2.97,0 -4.4,4.48 -4.4,6.48 0,2.17 1.23,2.72 2.35,2.72 1.53,0 2.68,-0.82 3.55,-1.67 m 15.45,2.99 h -7.46 v -28.94 h 7.47 v 0.88 h -2.93 c -1.2,0 -1.84,0.44 -1.84,1.7 v 23.57 c 0,1.42 0.67,1.9 1.84,1.9 h 2.94 v 0.9 m 17.71,-8.93 -0.18,0.2 c -1,1.22 -2.68,3.48 -4.52,3.48 -1.14,0 -1.45,-0.8 -1.45,-1.63 0,-0.46 0.14,-1.02 0.24,-1.4 l 2.02,-7.83 c 0.07,-0.28 0.25,-1 0.25,-1.5 0,-0.66 -0.22,-1.33 -0.86,-1.33 -1.35,0 -3.58,3.04 -4.67,4.7 -1.28,1.9 -2.2,3.58 -2.4,4.32 l -1.17,4.4 h -2.73 l 3.36,-13.24 c 0,-0.64 -0.1,-1.13 -1.06,-1.13 -0.35,0 -0.74,0.06 -1,0.1 l -0.06,-0.54 5.63,-0.8 -1.8,6.67 h 0.1 c 0.18,0 1.92,-2.47 2,-2.58 1.4,-1.77 3.52,-4.1 5.65,-4.1 1.55,0 1.98,1.02 1.98,2.2 0,0.88 -0.2,1.76 -0.4,2.47 l -2.08,8.17 c -0.03,0.06 -0.03,0.17 -0.03,0.34 0.03,0.2 0.14,0.5 0.53,0.5 0.85,0 1.7,-1.28 2.2,-1.88 m 10.22,9.33 h -7.47 v -0.9 h 3.1 c 1.25,0 1.68,-0.52 1.68,-1.62 v -23.63 c 0,-1.23 -0.45,-1.9 -1.8,-1.9 h -2.97 v -0.9 h 7.46 v 28.94"
       id="path312" />
    <path
       d="m 1035.17,106 a 6,6 0 0 1 6,-6 h 56 a 6,6 0 0 1 6,6 v 28 a 6,6 0 0 1 -6,6 h -56 a 6,6 0 0 1 -6,-6 z"
       fill="none"
       id="path314" />
    <use
       xlink:href="#m"
       transform="translate(1041.6117,123.55556)"
       id="use316" />
    <path
       d="m 1423,270.25 h 117.73 v 41.57 H 1423 Z"
       fill="#ffffff"
       fill-opacity="0"
       id="path318" />
    <path
       d="m 1439.14,282.38 -3.24,12.65 c -0.03,0.15 -0.03,0.22 -0.03,0.33 0,0.3 0.14,0.5 0.5,0.5 0.77,0 1.46,-0.94 2.08,-1.67 l 0.18,-0.22 0.47,0.4 c -0.83,1.2 -2.7,3.88 -4.8,3.88 -1.05,0 -1.45,-0.7 -1.45,-1.9 0,-0.3 0.04,-0.9 0.15,-1.33 l 0.94,-3.45 h -0.04 c -0.25,0.18 -3.52,4.58 -4.98,5.67 -0.83,0.62 -1.78,1 -2.6,1 -1.72,0 -2.23,-1.3 -2.23,-2.68 0,-0.76 0.1,-1.45 0.28,-2.14 l 2.15,-8.4 c 0.14,-0.54 0.2,-0.76 0.2,-0.9 0,-0.44 -0.4,-0.84 -1.18,-0.84 -0.26,0 -0.7,0.02 -0.95,0.1 l -0.1,-0.55 5.7,-0.94 -3.06,11.86 c -0.07,0.32 -0.1,0.58 -0.1,0.87 0,0.76 0.3,1.24 0.94,1.24 0.9,0 2.36,-1.13 3.63,-2.8 1.58,-2.08 3.25,-5.3 3.98,-7.96 l 0.76,-2.72 h 2.8 m 13.74,10.4 -0.34,1.15 h -2.08 c 0.33,0.4 0.44,0.72 0.44,1.3 0,1.9 -1.37,3.5 -3.63,3.8 -1.5,0.2 -2.26,0.84 -2.26,1.48 0,1.63 6,0.6 6,3.8 0,1.84 -1.7,3.9 -5.53,3.9 -3.44,0 -4.73,-1.47 -4.73,-2.96 0,-1.5 1.42,-2.26 3,-2.78 -0.43,-0.28 -0.6,-0.77 -0.6,-1.2 0,-0.98 0.94,-2.24 2.18,-2.24 v -0.1 c -1.72,-0.4 -2.42,-1.6 -2.42,-2.8 0,-2.03 1.75,-4.06 4.47,-4.06 1.1,0 1.88,0.33 2.27,0.72 h 3.23 m -4,1.64 c 0,-0.95 -0.26,-1.6 -1.4,-1.6 -1.38,0 -2.5,1.83 -2.5,3.58 0,1.18 0.3,2.08 1.43,2.08 1.82,0 2.47,-2.62 2.47,-4.06 m 0.33,10.74 c 0,-2 -3.4,-1.87 -4.93,-2.44 -0.2,0.13 -0.47,0.26 -0.67,0.4 -0.67,0.5 -1.24,1.17 -1.24,1.86 0,1.2 1.13,2.5 3.58,2.5 2.34,0 3.26,-1.2 3.26,-2.32 m 20.81,-4.53 0.33,0.28 c -0.82,1.4 -2.16,2.68 -3.37,2.68 -0.56,0 -1,-0.26 -1,-1.26 0,-0.18 0.03,-0.44 0.16,-0.95 l 1.44,-5.7 c 0.1,-0.35 0.15,-0.58 0.15,-1.02 0,-0.52 -0.15,-0.98 -0.62,-0.98 -1.38,0 -4.2,4.65 -4.6,6.22 l -0.86,3.47 h -2.03 l 2,-7.7 c 0.04,-0.23 0.12,-0.64 0.12,-1.02 0,-0.52 -0.13,-0.98 -0.6,-0.98 -1.33,0 -4.16,4.65 -4.57,6.22 l -0.9,3.47 h -2 l 2.44,-9.62 c 0,-0.46 -0.17,-0.8 -0.86,-0.8 -0.2,0 -0.5,0.03 -0.7,0.05 l -0.05,-0.36 4.03,-0.6 -1.13,4.33 h 0.15 c 2.42,-3.67 3.96,-4.34 4.94,-4.34 0.94,0 1.4,0.95 1.4,2.08 0,0.44 -0.08,0.82 -0.23,1.33 l -0.26,0.93 h 0.14 c 0.75,-1.34 2.08,-2.93 3.34,-3.78 0.57,-0.38 1.05,-0.56 1.57,-0.56 0.92,0 1.4,0.67 1.4,1.82 0,0.46 -0.04,0.95 -0.2,1.57 l -1.56,5.94 c -0.04,0.06 -0.06,0.22 -0.06,0.3 0,0.2 0.15,0.3 0.38,0.3 0.44,0 1.1,-0.4 1.6,-1.36 m 13.27,-8.2 -2.34,8.86 c 0,0 -0.03,0.05 -0.03,0.28 0,0.28 0.17,0.44 0.37,0.44 0.26,0 0.65,-0.06 1.65,-1.4 l 0.3,0.32 c -0.8,1.2 -2.18,2.75 -3.4,2.75 -0.86,0 -1.1,-0.6 -1.1,-1.42 0,-0.33 0.16,-0.87 0.3,-1.28 h -0.1 c -1.86,2.36 -3.46,2.7 -4.46,2.7 -1.62,0 -2.28,-1.42 -2.28,-3.06 0,-3.4 3.4,-8.54 7.1,-8.54 1.1,0 1.63,0.6 1.68,1.18 h 0.03 l 0.22,-0.85 h 2.06 m -2.7,2.23 c 0,-1.06 -0.3,-1.83 -1.28,-1.83 -1.75,0 -3.3,2.24 -4.17,4.4 -0.46,1.15 -0.72,2.28 -0.72,3.18 0,1.37 0.8,1.7 1.5,1.7 1.78,0 3.57,-2.44 4.3,-4.88 0.2,-0.67 0.38,-1.7 0.38,-2.57 m 12.79,5.93 0.3,0.33 c -1.3,1.54 -2.9,2.8 -5.08,2.8 -2.5,0 -3.52,-2 -3.52,-3.98 0,-3.6 3.1,-7.64 6.76,-7.64 1.28,0 2.5,0.7 2.5,1.95 0,1 -0.42,1.8 -1.4,1.8 -0.67,0 -0.98,-0.53 -0.98,-0.97 0,-0.62 0.75,-0.92 0.75,-1.5 0,-0.3 -0.25,-0.53 -0.86,-0.53 -3.06,0 -4.53,4.6 -4.53,6.66 0,2.23 1.27,2.8 2.43,2.8 1.57,0 2.75,-0.85 3.65,-1.72 m 15.86,3.06 h -7.67 v -29.73 h 7.66 v 0.9 h -3.02 c -1.23,0 -1.9,0.45 -1.9,1.76 v 24.2 c 0,1.46 0.7,1.97 1.9,1.97 h 3.02 v 0.9 m 18.22,-9.15 -0.18,0.22 c -1.03,1.23 -2.77,3.56 -4.66,3.56 -1.17,0 -1.5,-0.84 -1.5,-1.67 0,-0.48 0.15,-1.06 0.26,-1.46 l 2.07,-8.03 c 0.08,-0.3 0.26,-1.02 0.26,-1.53 0,-0.7 -0.22,-1.38 -0.87,-1.38 -1.38,0 -3.67,3.13 -4.8,4.83 -1.3,1.96 -2.26,3.67 -2.47,4.43 l -1.2,4.5 h -2.8 l 3.44,-13.6 c 0,-0.64 -0.1,-1.15 -1.1,-1.15 -0.35,0 -0.75,0.07 -1,0.1 l -0.08,-0.54 5.78,-0.83 -1.85,6.88 h 0.1 c 0.18,0 1.96,-2.55 2.03,-2.66 1.45,-1.8 3.64,-4.2 5.82,-4.2 1.6,0 2.03,1.04 2.03,2.24 0,0.9 -0.22,1.82 -0.4,2.54 l -2.14,8.4 c -0.04,0.07 -0.04,0.18 -0.04,0.37 0.04,0.2 0.15,0.5 0.55,0.5 0.87,0 1.74,-1.3 2.25,-1.92 m 10.53,9.55 h -7.66 v -0.9 h 3.2 c 1.27,0 1.7,-0.55 1.7,-1.67 v -24.28 c 0,-1.28 -0.47,-1.97 -1.85,-1.97 h -3.06 v -0.9 h 7.67 v 29.73"
       id="path320" />
    <path
       d="m 1447.87,319.17 a 6,6 0 0 1 6,-6 h 56 a 6,6 0 0 1 6,6 v 28 a 6,6 0 0 1 -6,6 h -56 a 6,6 0 0 1 -6,-6 z"
       fill="none"
       id="path322" />
    <use
       xlink:href="#m"
       transform="translate(1454.3115,336.72356)"
       id="use324" />
    <path
       d="m 204.06,298.8 h 71.47 a 6,6 0 0 0 6,-6 V 186 a 6,6 0 0 1 6,-6 h 53.97"
       stroke="#000000"
       stroke-width="2"
       fill="none"
       id="path326" />
    <path
       d="m 204.1,299.8 h -1.04 v -2 h 1.03 z"
       stroke="#000000"
       stroke-width="0.05"
       id="path328" />
    <path
       d="m 356.76,180 -14.26,4.63 v -9.26 z"
       stroke="#000000"
       stroke-width="2"
       id="path330" />
    <path
       d="m 204.06,298.8 h 70.72 a 6,6 0 0 1 6,6 V 394 a 6,6 0 0 0 6,6 H 340"
       stroke="#000000"
       stroke-width="2"
       fill="none"
       id="path332" />
    <path
       d="m 204.1,299.8 h -1.04 v -2 h 1.03 z"
       stroke="#000000"
       stroke-width="0.05"
       id="path334" />
    <path
       d="M 355.26,400 341,404.63 v -9.26 z"
       stroke="#000000"
       stroke-width="2"
       id="path336" />
    <path
       d="m 120,280 h 83.06 v 37.6 H 120 Z"
       fill="#ffffff"
       fill-opacity="0"
       id="path338" />
    <path
       d="m 137.5,305.8 0.55,0.78 c -1.4,1.52 -2.56,2.1 -4.15,2.1 -1.8,0 -2.62,-0.66 -3.03,-2.54 -2.03,1.85 -3.73,2.55 -5.88,2.55 -2.38,0 -4.08,-1.2 -4.08,-3.93 0,-1.63 0.82,-3.03 2.48,-4.14 1.4,-0.93 3.14,-1.6 7.44,-2.8 v -2.53 c 0,-2.37 -0.82,-3.44 -3,-3.44 -1.33,0 -2.4,0.48 -2.4,1.37 0,0.22 0.07,0.48 0.4,0.85 0.48,0.6 0.7,1.04 0.7,1.56 0,1.25 -1.03,2.2 -2.5,2.2 -1.53,0 -2.4,-0.95 -2.4,-2.5 0,-2.96 2.87,-4.66 7.05,-4.66 4.5,0 7.24,1.77 7.24,4.95 v 9.66 c 0,0.62 0.26,1.02 0.77,1.02 0.2,0 0.3,-0.03 0.42,-0.15 m -6.28,-1.6 v -5.46 c -2.96,0.82 -4.52,2.34 -4.52,4.48 0,1.63 0.82,2.48 1.93,2.48 0.88,0 1.77,-0.33 2.6,-1.48 m 25.42,-8.3 -1.38,5.78 h -0.42 c 0.02,-0.2 0.02,-0.42 0.02,-0.63 0,-2.2 -1.25,-4.18 -4.18,-4.18 -1.12,0 -3.16,0.68 -3.16,2.54 0,1.8 1.6,2.9 3.06,4.16 1.54,1.28 3.08,2.8 3.08,5.07 0,2.6 -2.27,5 -6.38,5 -2.46,0 -3.27,-1 -5.25,-1 -0.66,0 -1.02,0.3 -1.44,1 h -0.4 l 1.56,-6.17 h 0.42 l 0.02,0.8 c 0.08,2.08 1.05,4.38 4.47,4.38 3.32,0 4.08,-1.85 4.08,-3.55 0,-0.9 -0.47,-1.78 -1.2,-2.5 -0.78,-0.82 -2.04,-1.76 -2.98,-2.68 -0.73,-0.73 -1.9,-2.14 -1.9,-3.42 0,-2.12 1.7,-4.58 5.82,-4.58 2.16,0 3.65,0.97 4.78,0.97 0.52,0 0.88,-0.57 0.96,-0.97 h 0.42 m 14.77,17.65 h -7.8 V 283.7 h 7.8 v 0.92 h -3.07 c -1.26,0 -1.92,0.44 -1.92,1.77 V 311 c 0,1.48 0.7,2 1.92,2 h 3.07 v 0.92 m 18.57,-9.3 -0.2,0.22 c -1.03,1.26 -2.8,3.63 -4.72,3.63 -1.2,0 -1.52,-0.85 -1.52,-1.7 0,-0.48 0.15,-1.08 0.26,-1.48 l 2.1,-8.2 c 0.08,-0.28 0.26,-1.02 0.26,-1.54 0,-0.7 -0.22,-1.4 -0.88,-1.4 -1.4,0 -3.74,3.18 -4.88,4.9 -1.34,2 -2.3,3.75 -2.52,4.52 l -1.22,4.6 h -2.85 l 3.52,-13.84 c 0,-0.66 -0.1,-1.18 -1.1,-1.18 -0.38,0 -0.8,0.07 -1.05,0.1 l -0.07,-0.55 5.88,-0.84 -1.88,7 h 0.1 c 0.2,0 2,-2.6 2.08,-2.7 1.48,-1.86 3.7,-4.3 5.92,-4.3 1.63,0 2.07,1.07 2.07,2.3 0,0.92 -0.23,1.84 -0.4,2.58 l -2.2,8.55 c -0.03,0.06 -0.03,0.17 -0.03,0.36 0.03,0.22 0.14,0.5 0.55,0.5 0.9,0 1.78,-1.32 2.3,-1.95 m 10.64,9.74 h -7.8 V 313 h 3.25 c 1.3,0 1.75,-0.54 1.75,-1.7 v -24.7 c 0,-1.28 -0.48,-2 -1.88,-2 h -3.1 v -0.9 h 7.8 v 30.24"
       id="path340" />
    <path
       d="m 127.53,324.34 a 6,6 0 0 1 6,-6 h 56 a 6,6 0 0 1 6,6 v 28 a 6,6 0 0 1 -6,6 h -56 a 6,6 0 0 1 -6,-6 z"
       fill="none"
       id="path342" />
    <g
       id="g346">
      <use
         xlink:href="#m"
         transform="translate(133.97537,341.89568)"
         id="use344" />
    </g>
    <defs
       id="defs589">
      <path
         fill="#008a0e"
         d="m 30,-248 c 118,-7 216,8 213,122 C 240,-48 200,0 122,0 H 30 Z m 33,221 c 89,8 146,-16 146,-99 0,-83 -60,-101 -146,-95 v 194"
         id="n" />
      <path
         fill="#008a0e"
         d="m 100,-194 c 63,0 86,42 84,106 H 49 c 0,40 14,67 53,68 26,1 43,-12 49,-29 l 28,8 C 168,-13 142,4 102,4 44,4 14,-33 15,-96 c 1,-61 26,-98 85,-98 z m 52,81 c 6,-60 -76,-77 -97,-28 -3,7 -6,17 -6,28 h 103"
         id="o" />
      <path
         fill="#008a0e"
         d="m 96,-169 c -40,0 -48,33 -48,73 0,40 9,75 48,75 24,0 41,-14 43,-38 l 32,2 C 165,-20 140,4 97,4 38,4 21,-37 15,-95 c -10,-93 101,-131 147,-64 4,7 5,14 7,22 l -32,3 c -4,-21 -16,-35 -41,-35"
         id="p" />
      <path
         fill="#008a0e"
         d="m 24,-231 v -30 h 32 v 30 z M 24,0 V -190 H 56 V 0 H 24"
         id="q" />
      <path
         fill="#008a0e"
         d="m 135,-143 c -3,-34 -86,-38 -87,0 15,53 115,12 119,90 4,78 -150,74 -157,8 l 28,-5 c 4,36 97,45 98,0 -10,-56 -113,-15 -118,-90 -4,-57 82,-63 122,-42 12,7 21,19 24,35"
         id="r" />
      <path
         fill="#008a0e"
         d="m 100,-194 c 62,-1 85,37 85,99 1,63 -27,99 -86,99 -59,0 -83,-39 -84,-99 0,-66 28,-99 85,-99 z m -1,174 c 44,1 53,-31 53,-75 0,-43 -8,-75 -51,-75 -43,0 -53,32 -53,75 0,43 10,74 51,75"
         id="s" />
      <path
         fill="#008a0e"
         d="m 117,-194 c 89,-4 53,116 60,194 h -32 v -121 c 0,-31 -8,-49 -39,-48 C 34,-167 62,-67 57,0 H 25 l -1,-190 h 30 c 1,10 -1,24 2,32 11,-22 29,-35 61,-36"
         id="t" />
      <g
         id="a">
        <use
           transform="scale(0.06790123)"
           xlink:href="#n"
           id="use355" />
        <use
           transform="matrix(0.06790123,0,0,0.06790123,17.58642,0)"
           xlink:href="#o"
           id="use357" />
        <use
           transform="matrix(0.06790123,0,0,0.06790123,31.166667,0)"
           xlink:href="#p"
           id="use359" />
        <use
           transform="matrix(0.06790123,0,0,0.06790123,43.388889,0)"
           xlink:href="#q"
           id="use361" />
        <use
           transform="matrix(0.06790123,0,0,0.06790123,48.753086,0)"
           xlink:href="#r"
           id="use363" />
        <use
           transform="matrix(0.06790123,0,0,0.06790123,60.975309,0)"
           xlink:href="#q"
           id="use365" />
        <use
           transform="matrix(0.06790123,0,0,0.06790123,66.339506,0)"
           xlink:href="#s"
           id="use367" />
        <use
           transform="matrix(0.06790123,0,0,0.06790123,79.919753,0)"
           xlink:href="#t"
           id="use369" />
      </g>
      <path
         fill="#008a0e"
         d="m 233,-177 c -1,41 -23,64 -60,70 L 243,0 H 205 L 140,-103 H 63 V 0 H 30 v -248 c 88,3 205,-21 203,71 z m -170,48 c 60,-2 137,13 137,-47 0,-61 -80,-42 -137,-45 v 92"
         id="u" />
      <path
         fill="#008a0e"
         d="M 84,4 C -5,8 30,-112 23,-190 h 32 v 120 c 0,31 7,50 39,49 72,-2 45,-101 50,-169 h 31 l 1,190 h -30 c -1,-10 1,-25 -2,-33 -11,22 -28,36 -60,37"
         id="v" />
      <path
         fill="#008a0e"
         d="M 24,0 V -261 H 56 V 0 H 24"
         id="w" />
      <g
         id="b">
        <use
           transform="scale(0.06790123)"
           xlink:href="#u"
           id="use375" />
        <use
           transform="matrix(0.06790123,0,0,0.06790123,17.58642,0)"
           xlink:href="#v"
           id="use377" />
        <use
           transform="matrix(0.06790123,0,0,0.06790123,31.166667,0)"
           xlink:href="#w"
           id="use379" />
        <use
           transform="matrix(0.06790123,0,0,0.06790123,36.530864,0)"
           xlink:href="#o"
           id="use381" />
      </g>
      <path
         fill="#e81313"
         d="m 63,-220 v 92 h 138 v 28 H 63 V 0 H 30 v -248 h 175 v 28 H 63"
         id="x" />
      <path
         fill="#e81313"
         d="m 100,-194 c 62,-1 85,37 85,99 1,63 -27,99 -86,99 -59,0 -83,-39 -84,-99 0,-66 28,-99 85,-99 z m -1,174 c 44,1 53,-31 53,-75 0,-43 -8,-75 -51,-75 -43,0 -53,32 -53,75 0,43 10,74 51,75"
         id="y" />
      <path
         fill="#e81313"
         d="M 114,-163 C 36,-179 61,-72 57,0 H 25 l -1,-190 h 30 c 1,12 -1,29 2,39 6,-27 23,-49 58,-41 v 29"
         id="z" />
      <path
         fill="#e81313"
         d="m 100,-194 c 63,0 86,42 84,106 H 49 c 0,40 14,67 53,68 26,1 43,-12 49,-29 l 28,8 C 168,-13 142,4 102,4 44,4 14,-33 15,-96 c 1,-61 26,-98 85,-98 z m 52,81 c 6,-60 -76,-77 -97,-28 -3,7 -6,17 -6,28 h 103"
         id="A" />
      <path
         fill="#e81313"
         d="M 141,-36 C 126,-15 110,5 73,4 37,3 15,-17 15,-53 c -1,-64 63,-63 125,-63 3,-35 -9,-54 -41,-54 -24,1 -41,7 -42,31 l -33,-3 c 5,-37 33,-52 76,-52 45,0 72,20 72,64 v 82 c -1,20 7,32 28,27 V -1 C 169,8 139,-3 141,-36 Z M 48,-53 c 0,20 12,33 32,33 41,-3 63,-29 60,-74 -43,2 -92,-5 -92,41"
         id="B" />
      <path
         fill="#e81313"
         d="m 210,-169 c -67,3 -38,105 -44,169 h -31 v -121 c 0,-29 -5,-50 -35,-48 C 34,-165 62,-65 56,0 H 25 l -1,-190 h 30 c 1,10 -1,24 2,32 10,-44 99,-50 107,0 11,-21 27,-35 58,-36 85,-2 47,119 55,194 h -31 v -121 c 0,-29 -5,-49 -35,-48"
         id="C" />
      <g
         id="c">
        <use
           transform="scale(0.06790123)"
           xlink:href="#x"
           id="use390" />
        <use
           transform="matrix(0.06790123,0,0,0.06790123,14.87037,0)"
           xlink:href="#y"
           id="use392" />
        <use
           transform="matrix(0.06790123,0,0,0.06790123,28.450617,0)"
           xlink:href="#z"
           id="use394" />
        <use
           transform="matrix(0.06790123,0,0,0.06790123,36.530864,0)"
           xlink:href="#A"
           id="use396" />
        <use
           transform="matrix(0.06790123,0,0,0.06790123,50.111111,0)"
           xlink:href="#B"
           id="use398" />
        <use
           transform="matrix(0.06790123,0,0,0.06790123,63.691358,0)"
           xlink:href="#z"
           id="use400" />
        <use
           transform="matrix(0.06790123,0,0,0.06790123,71.771605,0)"
           xlink:href="#C"
           id="use402" />
      </g>
      <path
         fill="#e81313"
         d="m 24,-231 v -30 h 32 v 30 z M 24,0 V -190 H 56 V 0 H 24"
         id="D" />
      <path
         fill="#e81313"
         d="m 117,-194 c 89,-4 53,116 60,194 h -32 v -121 c 0,-31 -8,-49 -39,-48 C 34,-167 62,-67 57,0 H 25 l -1,-190 h 30 c 1,10 -1,24 2,32 11,-22 29,-35 61,-36"
         id="E" />
      <path
         fill="#e81313"
         d="m 59,-47 c -2,24 18,29 38,22 V -1 C 64,9 27,4 27,-40 V -167 H 5 v -23 h 24 l 9,-43 h 21 v 43 h 35 v 23 H 59 v 120"
         id="F" />
      <g
         id="d">
        <use
           transform="scale(0.06790123)"
           xlink:href="#y"
           id="use408" />
        <use
           transform="matrix(0.06790123,0,0,0.06790123,13.580247,0)"
           xlink:href="#z"
           id="use410" />
        <use
           transform="matrix(0.06790123,0,0,0.06790123,21.660494,0)"
           xlink:href="#D"
           id="use412" />
        <use
           transform="matrix(0.06790123,0,0,0.06790123,27.024691,0)"
           xlink:href="#A"
           id="use414" />
        <use
           transform="matrix(0.06790123,0,0,0.06790123,40.604938,0)"
           xlink:href="#E"
           id="use416" />
        <use
           transform="matrix(0.06790123,0,0,0.06790123,54.185185,0)"
           xlink:href="#F"
           id="use418" />
        <use
           transform="matrix(0.06790123,0,0,0.06790123,60.975309,0)"
           xlink:href="#B"
           id="use420" />
        <use
           transform="matrix(0.06790123,0,0,0.06790123,74.555556,0)"
           xlink:href="#F"
           id="use422" />
        <use
           transform="matrix(0.06790123,0,0,0.06790123,81.345679,0)"
           xlink:href="#D"
           id="use424" />
        <use
           transform="matrix(0.06790123,0,0,0.06790123,86.709877,0)"
           xlink:href="#y"
           id="use426" />
        <use
           transform="matrix(0.06790123,0,0,0.06790123,100.29012,0)"
           xlink:href="#E"
           id="use428" />
      </g>
      <path
         fill="#333333"
         d="m 240,0 2,-218 C 219,-142 188,-73 162,0 H 139 L 58,-218 59,0 H 30 v -248 h 44 l 77,211 c 21,-75 51,-140 76,-211 h 43 V 0 h -30"
         id="G" />
      <path
         fill="#333333"
         d="m 100,-194 c 62,-1 85,37 85,99 1,63 -27,99 -86,99 -59,0 -83,-39 -84,-99 0,-66 28,-99 85,-99 z m -1,174 c 44,1 53,-31 53,-75 0,-43 -8,-75 -51,-75 -43,0 -53,32 -53,75 0,43 10,74 51,75"
         id="H" />
      <path
         fill="#333333"
         d="M 108,0 H 70 L 1,-190 h 34 l 54,165 56,-165 h 34"
         id="I" />
      <path
         fill="#333333"
         d="m 24,-231 v -30 h 32 v 30 z M 24,0 V -190 H 56 V 0 H 24"
         id="J" />
      <path
         fill="#333333"
         d="m 117,-194 c 89,-4 53,116 60,194 h -32 v -121 c 0,-31 -8,-49 -39,-48 C 34,-167 62,-67 57,0 H 25 l -1,-190 h 30 c 1,10 -1,24 2,32 11,-22 29,-35 61,-36"
         id="K" />
      <path
         fill="#333333"
         d="M 177,-190 C 167,-65 218,103 67,71 44,65 29,51 23,28 L 55,23 C 70,70 155,55 144,-5 V -35 C 133,-14 115,1 83,1 29,1 15,-40 15,-95 c 0,-56 16,-97 71,-98 29,-1 48,16 59,35 1,-10 0,-23 2,-32 z M 94,-22 c 36,0 50,-32 50,-73 0,-42 -14,-75 -50,-75 -39,0 -46,34 -46,75 0,41 6,73 46,73"
         id="L" />
      <g
         id="e">
        <use
           transform="scale(0.0617284)"
           xlink:href="#G"
           id="use437" />
        <use
           transform="matrix(0.0617284,0,0,0.0617284,18.45679,0)"
           xlink:href="#H"
           id="use439" />
        <use
           transform="matrix(0.0617284,0,0,0.0617284,30.802469,0)"
           xlink:href="#I"
           id="use441" />
        <use
           transform="matrix(0.0617284,0,0,0.0617284,41.91358,0)"
           xlink:href="#J"
           id="use443" />
        <use
           transform="matrix(0.0617284,0,0,0.0617284,46.790123,0)"
           xlink:href="#K"
           id="use445" />
        <use
           transform="matrix(0.0617284,0,0,0.0617284,59.135802,0)"
           xlink:href="#L"
           id="use447" />
      </g>
      <path
         fill="#333333"
         d="M 205,0 177,-72 H 64 L 36,0 H 1 l 101,-248 h 38 L 239,0 Z m -38,-99 -47,-123 c -12,45 -31,82 -46,123 h 93"
         id="M" />
      <path
         fill="#333333"
         d="m 100,-194 c 63,0 86,42 84,106 H 49 c 0,40 14,67 53,68 26,1 43,-12 49,-29 l 28,8 C 168,-13 142,4 102,4 44,4 14,-33 15,-96 c 1,-61 26,-98 85,-98 z m 52,81 c 6,-60 -76,-77 -97,-28 -3,7 -6,17 -6,28 h 103"
         id="N" />
      <path
         fill="#333333"
         d="M 114,-163 C 36,-179 61,-72 57,0 H 25 l -1,-190 h 30 c 1,12 -1,29 2,39 6,-27 23,-49 58,-41 v 29"
         id="O" />
      <path
         fill="#333333"
         d="M 141,-36 C 126,-15 110,5 73,4 37,3 15,-17 15,-53 c -1,-64 63,-63 125,-63 3,-35 -9,-54 -41,-54 -24,1 -41,7 -42,31 l -33,-3 c 5,-37 33,-52 76,-52 45,0 72,20 72,64 v 82 c -1,20 7,32 28,27 V -1 C 169,8 139,-3 141,-36 Z M 48,-53 c 0,20 12,33 32,33 41,-3 63,-29 60,-74 -43,2 -92,-5 -92,41"
         id="P" />
      <g
         id="f">
        <use
           transform="scale(0.0617284)"
           xlink:href="#M"
           id="use454" />
        <use
           transform="matrix(0.0617284,0,0,0.0617284,14.382716,0)"
           xlink:href="#I"
           id="use456" />
        <use
           transform="matrix(0.0617284,0,0,0.0617284,25.493827,0)"
           xlink:href="#N"
           id="use458" />
        <use
           transform="matrix(0.0617284,0,0,0.0617284,37.839506,0)"
           xlink:href="#O"
           id="use460" />
        <use
           transform="matrix(0.0617284,0,0,0.0617284,45.185185,0)"
           xlink:href="#P"
           id="use462" />
        <use
           transform="matrix(0.0617284,0,0,0.0617284,57.530864,0)"
           xlink:href="#L"
           id="use464" />
        <use
           transform="matrix(0.0617284,0,0,0.0617284,69.876543,0)"
           xlink:href="#N"
           id="use466" />
      </g>
      <path
         fill="#333333"
         d="m 63,-220 v 92 h 138 v 28 H 63 V 0 H 30 v -248 h 175 v 28 H 63"
         id="Q" />
      <path
         fill="#333333"
         d="M 24,0 V -261 H 56 V 0 H 24"
         id="R" />
      <path
         fill="#333333"
         d="m 59,-47 c -2,24 18,29 38,22 V -1 C 64,9 27,4 27,-40 V -167 H 5 v -23 h 24 l 9,-43 h 21 v 43 h 35 v 23 H 59 v 120"
         id="S" />
      <g
         id="g">
        <use
           transform="scale(0.0617284)"
           xlink:href="#Q"
           id="use472" />
        <use
           transform="matrix(0.0617284,0,0,0.0617284,13.518519,0)"
           xlink:href="#J"
           id="use474" />
        <use
           transform="matrix(0.0617284,0,0,0.0617284,18.395062,0)"
           xlink:href="#R"
           id="use476" />
        <use
           transform="matrix(0.0617284,0,0,0.0617284,23.271605,0)"
           xlink:href="#S"
           id="use478" />
        <use
           transform="matrix(0.0617284,0,0,0.0617284,29.444444,0)"
           xlink:href="#N"
           id="use480" />
        <use
           transform="matrix(0.0617284,0,0,0.0617284,41.790123,0)"
           xlink:href="#O"
           id="use482" />
      </g>
      <path
         fill="#1071e5"
         d="M 205,0 177,-72 H 64 L 36,0 H 1 l 101,-248 h 38 L 239,0 Z m -38,-99 -47,-123 c -12,45 -31,82 -46,123 h 93"
         id="T" />
      <path
         fill="#1071e5"
         d="m 210,-169 c -67,3 -38,105 -44,169 h -31 v -121 c 0,-29 -5,-50 -35,-48 C 34,-165 62,-65 56,0 H 25 l -1,-190 h 30 c 1,10 -1,24 2,32 10,-44 99,-50 107,0 11,-21 27,-35 58,-36 85,-2 47,119 55,194 h -31 v -121 c 0,-29 -5,-49 -35,-48"
         id="U" />
      <path
         fill="#1071e5"
         d="m 100,-194 c 62,-1 85,37 85,99 1,63 -27,99 -86,99 -59,0 -83,-39 -84,-99 0,-66 28,-99 85,-99 z m -1,174 c 44,1 53,-31 53,-75 0,-43 -8,-75 -51,-75 -43,0 -53,32 -53,75 0,43 10,74 51,75"
         id="V" />
      <path
         fill="#1071e5"
         d="M 84,4 C -5,8 30,-112 23,-190 h 32 v 120 c 0,31 7,50 39,49 72,-2 45,-101 50,-169 h 31 l 1,190 h -30 c -1,-10 1,-25 -2,-33 -11,22 -28,36 -60,37"
         id="W" />
      <path
         fill="#1071e5"
         d="m 117,-194 c 89,-4 53,116 60,194 h -32 v -121 c 0,-31 -8,-49 -39,-48 C 34,-167 62,-67 57,0 H 25 l -1,-190 h 30 c 1,10 -1,24 2,32 11,-22 29,-35 61,-36"
         id="X" />
      <path
         fill="#1071e5"
         d="m 59,-47 c -2,24 18,29 38,22 V -1 C 64,9 27,4 27,-40 V -167 H 5 v -23 h 24 l 9,-43 h 21 v 43 h 35 v 23 H 59 v 120"
         id="Y" />
      <g
         id="h">
        <use
           transform="scale(0.06790123)"
           xlink:href="#T"
           id="use491" />
        <use
           transform="matrix(0.06790123,0,0,0.06790123,16.296296,0)"
           xlink:href="#U"
           id="use493" />
        <use
           transform="matrix(0.06790123,0,0,0.06790123,36.598765,0)"
           xlink:href="#V"
           id="use495" />
        <use
           transform="matrix(0.06790123,0,0,0.06790123,50.179012,0)"
           xlink:href="#W"
           id="use497" />
        <use
           transform="matrix(0.06790123,0,0,0.06790123,63.759259,0)"
           xlink:href="#X"
           id="use499" />
        <use
           transform="matrix(0.06790123,0,0,0.06790123,77.339506,0)"
           xlink:href="#Y"
           id="use501" />
      </g>
      <path
         fill="#1071e5"
         d="m 101,-234 c -31,-9 -42,10 -38,44 h 38 v 23 H 63 V 0 H 32 V -167 H 5 v -23 h 27 c -7,-52 17,-82 69,-68 v 24"
         id="Z" />
      <g
         id="i">
        <use
           transform="scale(0.06790123)"
           xlink:href="#V"
           id="use505" />
        <use
           transform="matrix(0.06790123,0,0,0.06790123,13.580247,0)"
           xlink:href="#Z"
           id="use507" />
      </g>
      <path
         fill="#1071e5"
         d="M 114,-163 C 36,-179 61,-72 57,0 H 25 l -1,-190 h 30 c 1,12 -1,29 2,39 6,-27 23,-49 58,-41 v 29"
         id="aa" />
      <path
         fill="#1071e5"
         d="m 100,-194 c 63,0 86,42 84,106 H 49 c 0,40 14,67 53,68 26,1 43,-12 49,-29 l 28,8 C 168,-13 142,4 102,4 44,4 14,-33 15,-96 c 1,-61 26,-98 85,-98 z m 52,81 c 6,-60 -76,-77 -97,-28 -3,7 -6,17 -6,28 h 103"
         id="ab" />
      <path
         fill="#1071e5"
         d="M 141,-36 C 126,-15 110,5 73,4 37,3 15,-17 15,-53 c -1,-64 63,-63 125,-63 3,-35 -9,-54 -41,-54 -24,1 -41,7 -42,31 l -33,-3 c 5,-37 33,-52 76,-52 45,0 72,20 72,64 v 82 c -1,20 7,32 28,27 V -1 C 169,8 139,-3 141,-36 Z M 48,-53 c 0,20 12,33 32,33 41,-3 63,-29 60,-74 -43,2 -92,-5 -92,41"
         id="ac" />
      <g
         id="j">
        <use
           transform="scale(0.06790123)"
           xlink:href="#Z"
           id="use513" />
        <use
           transform="matrix(0.06790123,0,0,0.06790123,6.7901235,0)"
           xlink:href="#V"
           id="use515" />
        <use
           transform="matrix(0.06790123,0,0,0.06790123,20.37037,0)"
           xlink:href="#aa"
           id="use517" />
        <use
           transform="matrix(0.06790123,0,0,0.06790123,28.450617,0)"
           xlink:href="#ab"
           id="use519" />
        <use
           transform="matrix(0.06790123,0,0,0.06790123,42.030864,0)"
           xlink:href="#ac"
           id="use521" />
        <use
           transform="matrix(0.06790123,0,0,0.06790123,55.611111,0)"
           xlink:href="#aa"
           id="use523" />
        <use
           transform="matrix(0.06790123,0,0,0.06790123,63.691358,0)"
           xlink:href="#U"
           id="use525" />
      </g>
      <path
         fill="#1071e5"
         d="M 108,0 H 70 L 1,-190 h 34 l 54,165 56,-165 h 34"
         id="ad" />
      <path
         fill="#1071e5"
         d="m 135,-143 c -3,-34 -86,-38 -87,0 15,53 115,12 119,90 4,78 -150,74 -157,8 l 28,-5 c 4,36 97,45 98,0 -10,-56 -113,-15 -118,-90 -4,-57 82,-63 122,-42 12,7 21,19 24,35"
         id="ae" />
      <g
         id="k">
        <use
           transform="scale(0.06790123)"
           xlink:href="#U"
           id="use530" />
        <use
           transform="matrix(0.06790123,0,0,0.06790123,20.302469,0)"
           xlink:href="#V"
           id="use532" />
        <use
           transform="matrix(0.06790123,0,0,0.06790123,33.882716,0)"
           xlink:href="#ad"
           id="use534" />
        <use
           transform="matrix(0.06790123,0,0,0.06790123,46.104938,0)"
           xlink:href="#ab"
           id="use536" />
        <use
           transform="matrix(0.06790123,0,0,0.06790123,59.685185,0)"
           xlink:href="#U"
           id="use538" />
        <use
           transform="matrix(0.06790123,0,0,0.06790123,79.987654,0)"
           xlink:href="#ab"
           id="use540" />
        <use
           transform="matrix(0.06790123,0,0,0.06790123,93.567901,0)"
           xlink:href="#X"
           id="use542" />
        <use
           transform="matrix(0.06790123,0,0,0.06790123,107.14815,0)"
           xlink:href="#Y"
           id="use544" />
        <use
           transform="matrix(0.06790123,0,0,0.06790123,113.93827,0)"
           xlink:href="#ae"
           id="use546" />
      </g>
      <path
         fill="#333333"
         d="M 197,0 V -115 H 63 V 0 H 30 v -248 h 33 v 105 h 134 v -105 h 34 V 0 h -34"
         id="af" />
      <path
         fill="#333333"
         d="M 106,-169 C 34,-169 62,-67 57,0 H 25 v -261 h 32 l -1,103 c 12,-21 28,-36 61,-36 89,0 53,116 60,194 h -32 v -121 c 2,-32 -8,-49 -39,-48"
         id="ag" />
      <path
         fill="#333333"
         d="m 115,-194 c 55,1 70,41 70,98 C 185,-39 169,2 115,4 84,4 66,-9 55,-30 L 56,75 H 24 l -1,-265 h 31 l 2,30 c 10,-21 28,-34 59,-34 z m -8,174 c 40,0 45,-34 45,-75 0,-41 -6,-73 -45,-74 -42,0 -51,32 -51,76 0,43 10,73 51,73"
         id="ah" />
      <path
         fill="#333333"
         d="m 135,-143 c -3,-34 -86,-38 -87,0 15,53 115,12 119,90 4,78 -150,74 -157,8 l 28,-5 c 4,36 97,45 98,0 -10,-56 -113,-15 -118,-90 -4,-57 82,-63 122,-42 12,7 21,19 24,35"
         id="ai" />
      <g
         id="l">
        <use
           transform="scale(0.0617284)"
           xlink:href="#af"
           id="use553" />
        <use
           transform="matrix(0.0617284,0,0,0.0617284,15.987654,0)"
           xlink:href="#J"
           id="use555" />
        <use
           transform="matrix(0.0617284,0,0,0.0617284,20.864198,0)"
           xlink:href="#L"
           id="use557" />
        <use
           transform="matrix(0.0617284,0,0,0.0617284,33.209877,0)"
           xlink:href="#ag"
           id="use559" />
        <use
           transform="matrix(0.0617284,0,0,0.0617284,45.555556,0)"
           xlink:href="#ah"
           id="use561" />
        <use
           transform="matrix(0.0617284,0,0,0.0617284,57.901235,0)"
           xlink:href="#P"
           id="use563" />
        <use
           transform="matrix(0.0617284,0,0,0.0617284,70.246914,0)"
           xlink:href="#ai"
           id="use565" />
        <use
           transform="matrix(0.0617284,0,0,0.0617284,81.358025,0)"
           xlink:href="#ai"
           id="use567" />
      </g>
      <path
         fill="#4c535d"
         d="M 87,75 C 49,33 22,-17 22,-94 c 0,-76 28,-126 65,-167 h 31 c -38,41 -64,92 -64,168 0,76 26,127 64,168 H 87"
         id="aj" />
      <path
         fill="#4c535d"
         d="m 54,-142 c 48,-35 137,-8 131,61 C 196,18 31,33 14,-55 l 32,-4 c 7,23 22,37 52,37 35,-1 51,-22 54,-58 4,-55 -73,-65 -99,-34 H 22 l 8,-134 h 141 v 27 H 59"
         id="ak" />
      <path
         fill="#4c535d"
         d="m 101,-251 c 68,0 85,55 85,127 0,72 -20,128 -86,128 -67,0 -86,-56 -86,-128 0,-73 17,-127 87,-127 z m -1,229 c 47,0 54,-49 54,-102 0,-53 -4,-102 -53,-102 -51,0 -55,48 -55,102 0,53 5,102 54,102"
         id="al" />
      <path
         fill="#4c535d"
         d="M 197,0 V -115 H 63 V 0 H 30 v -248 h 33 v 105 h 134 v -105 h 34 V 0 h -34"
         id="am" />
      <path
         fill="#4c535d"
         d="M 209,0 H 11 V -25 L 162,-220 H 24 v -28 h 176 v 25 L 50,-27 H 209 V 0"
         id="an" />
      <path
         fill="#4c535d"
         d="m 33,-261 c 38,41 65,92 65,168 C 98,-17 71,34 33,75 H 2 C 39,34 66,-17 66,-93 66,-169 39,-220 2,-261 h 31"
         id="ao" />
      <g
         id="m">
        <use
           transform="scale(0.04938272)"
           xlink:href="#aj"
           id="use576" />
        <use
           transform="matrix(0.04938272,0,0,0.04938272,5.8765432,0)"
           xlink:href="#ak"
           id="use578" />
        <use
           transform="matrix(0.04938272,0,0,0.04938272,15.753086,0)"
           xlink:href="#al"
           id="use580" />
        <use
           transform="matrix(0.04938272,0,0,0.04938272,25.62963,0)"
           xlink:href="#am"
           id="use582" />
        <use
           transform="matrix(0.04938272,0,0,0.04938272,38.419753,0)"
           xlink:href="#an"
           id="use584" />
        <use
           transform="matrix(0.04938272,0,0,0.04938272,49.234568,0)"
           xlink:href="#ao"
           id="use586" />
      </g>
    </defs>
  </g>
</svg>
