<?xml version="1.0" encoding="UTF-8" standalone="no"?>
<svg
   width="472.27283pt"
   height="263.7789pt"
   viewBox="0 0 472.27283 263.7789"
   version="1.1"
   id="svg683"
   sodipodi:docname="latinx.svg"
   inkscape:version="1.2 (dc2aeda, 2022-05-15)"
   xmlns:inkscape="http://www.inkscape.org/namespaces/inkscape"
   xmlns:sodipodi="http://sodipodi.sourceforge.net/DTD/sodipodi-0.dtd"
   xmlns:xlink="http://www.w3.org/1999/xlink"
   xmlns="http://www.w3.org/2000/svg"
   xmlns:svg="http://www.w3.org/2000/svg"
   xmlns:rdf="http://www.w3.org/1999/02/22-rdf-syntax-ns#"
   xmlns:cc="http://creativecommons.org/ns#"
   xmlns:dc="http://purl.org/dc/elements/1.1/">
  <sodipodi:namedview
     id="namedview685"
     pagecolor="#ffffff"
     bordercolor="#000000"
     borderopacity="0.25"
     inkscape:showpageshadow="2"
     inkscape:pageopacity="0.0"
     inkscape:pagecheckerboard="0"
     inkscape:deskcolor="#d1d1d1"
     inkscape:document-units="pt"
     showgrid="false"
     inkscape:zoom="1.3458163"
     inkscape:cx="321.36629"
     inkscape:cy="41.610433"
     inkscape:window-width="1680"
     inkscape:window-height="934"
     inkscape:window-x="0"
     inkscape:window-y="25"
     inkscape:window-maximized="1"
     inkscape:current-layer="figure_1" />
  <metadata
     id="metadata132">
    <rdf:RDF>
      <cc:Work>
        <dc:type
           rdf:resource="http://purl.org/dc/dcmitype/StillImage" />
        <dc:date>2024-01-14T22:00:54.593319</dc:date>
        <dc:format>image/svg+xml</dc:format>
        <dc:creator>
          <cc:Agent>
            <dc:title>Matplotlib v3.6.1, https://matplotlib.org/</dc:title>
          </cc:Agent>
        </dc:creator>
      </cc:Work>
    </rdf:RDF>
  </metadata>
  <defs
     id="defs136">
    <style
       type="text/css"
       id="style134">*{stroke-linejoin: round; stroke-linecap: butt}</style>
  </defs>
  <g
     id="figure_1"
     transform="translate(-21.327188,-11.081719)">
    <g
       id="axes_1">
      <g
         id="patch_2">
        <path
           d="M 47.01,116.52 H 493.2 V 25.44 H 47.01 Z"
           style="fill:#ffffff"
           id="path141" />
      </g>
      <g
         id="matplotlib.axis_1">
        <g
           id="xtick_1">
          <g
             id="line2d_1">
            <defs
               id="defs145">
              <path
                 id="m9f241632e4"
                 d="M 0,0 V 3.5"
                 style="stroke:#000000;stroke-width:0.8" />
            </defs>
            <g
               id="g149">
              <use
                 xlink:href="#m9f241632e4"
                 x="67.291367"
                 y="121.52"
                 style="stroke:#000000;stroke-width:0.8"
                 id="use147" />
            </g>
          </g>
          <g
             id="text_1">
            <!-- 0 -->
            <g
               transform="matrix(0.1,0,0,-0.1,64.110114,136.11844)"
               id="g157">
              <defs
                 id="defs153">
                <path
                   id="DejaVuSans-30"
                   d="m 2034,4250 q -487,0 -733,-480 -245,-479 -245,-1442 0,-959 245,-1439 246,-480 733,-480 491,0 736,480 246,480 246,1439 0,963 -246,1442 -245,480 -736,480 z m 0,500 q 785,0 1199,-621 414,-620 414,-1801 0,-1178 -414,-1799 -414,-620 -1199,-620 -784,0 -1198,620 -414,621 -414,1799 0,1181 414,1801 414,621 1198,621 z"
                   transform="scale(0.015625)" />
              </defs>
              <use
                 xlink:href="#DejaVuSans-30"
                 id="use155" />
            </g>
          </g>
        </g>
        <g
           id="xtick_2">
          <g
             id="line2d_2">
            <g
               id="g163">
              <use
                 xlink:href="#m9f241632e4"
                 x="134.95229"
                 y="121.52"
                 style="stroke:#000000;stroke-width:0.8"
                 id="use161" />
            </g>
          </g>
          <g
             id="text_2">
            <!-- 2 -->
            <g
               transform="matrix(0.1,0,0,-0.1,131.77104,136.11844)"
               id="g171">
              <defs
                 id="defs167">
                <path
                   id="DejaVuSans-32"
                   d="M 1228,531 H 3431 V 0 H 469 v 531 q 359,372 979,998 621,627 780,809 303,340 423,576 121,236 121,464 0,372 -261,606 -261,235 -680,235 -297,0 -627,-103 -329,-103 -704,-313 v 638 q 381,153 712,231 332,78 607,78 725,0 1156,-363 431,-362 431,-968 0,-288 -108,-546 -107,-257 -392,-607 -78,-91 -497,-524 Q 1991,1309 1228,531 Z"
                   transform="scale(0.015625)" />
              </defs>
              <use
                 xlink:href="#DejaVuSans-32"
                 id="use169" />
            </g>
          </g>
        </g>
        <g
           id="xtick_3">
          <g
             id="line2d_3">
            <g
               id="g177">
              <use
                 xlink:href="#m9f241632e4"
                 x="202.61322"
                 y="121.52"
                 style="stroke:#000000;stroke-width:0.8"
                 id="use175" />
            </g>
          </g>
          <g
             id="text_3">
            <!-- 4 -->
            <g
               transform="matrix(0.1,0,0,-0.1,199.43197,136.11844)"
               id="g185">
              <defs
                 id="defs181">
                <path
                   id="DejaVuSans-34"
                   d="M 2419,4116 825,1625 h 1594 z m -166,550 h 794 V 1625 h 666 V 1100 H 3047 V 0 H 2419 V 1100 H 313 v 609 z"
                   transform="scale(0.015625)" />
              </defs>
              <use
                 xlink:href="#DejaVuSans-34"
                 id="use183" />
            </g>
          </g>
        </g>
        <g
           id="xtick_4">
          <g
             id="line2d_4">
            <g
               id="g191">
              <use
                 xlink:href="#m9f241632e4"
                 x="270.27414"
                 y="121.52"
                 style="stroke:#000000;stroke-width:0.8"
                 id="use189" />
            </g>
          </g>
          <g
             id="text_4">
            <!-- 6 -->
            <g
               transform="matrix(0.1,0,0,-0.1,267.0929,136.11844)"
               id="g199">
              <defs
                 id="defs195">
                <path
                   id="DejaVuSans-36"
                   d="m 2113,2584 q -425,0 -674,-291 -248,-290 -248,-796 0,-503 248,-796 249,-292 674,-292 425,0 673,292 248,293 248,796 0,506 -248,796 -248,291 -673,291 z m 1253,1979 v -575 q -238,112 -480,171 -242,60 -480,60 -625,0 -955,-422 -329,-422 -376,-1275 184,272 462,417 279,145 613,145 703,0 1111,-427 408,-426 408,-1160 0,-719 -425,-1154 -425,-434 -1131,-434 -810,0 -1238,620 -428,621 -428,1799 0,1106 525,1764 525,658 1409,658 238,0 480,-47 242,-47 505,-140 z"
                   transform="scale(0.015625)" />
              </defs>
              <use
                 xlink:href="#DejaVuSans-36"
                 id="use197" />
            </g>
          </g>
        </g>
        <g
           id="xtick_5">
          <g
             id="line2d_5">
            <g
               id="g205">
              <use
                 xlink:href="#m9f241632e4"
                 x="337.93509"
                 y="121.52"
                 style="stroke:#000000;stroke-width:0.8"
                 id="use203" />
            </g>
          </g>
          <g
             id="text_5">
            <!-- 8 -->
            <g
               transform="matrix(0.1,0,0,-0.1,334.75383,136.11844)"
               id="g213">
              <defs
                 id="defs209">
                <path
                   id="DejaVuSans-38"
                   d="m 2034,2216 q -450,0 -708,-241 -257,-241 -257,-662 0,-422 257,-663 258,-241 708,-241 450,0 709,242 260,243 260,662 0,421 -258,662 -257,241 -711,241 z m -631,268 q -406,100 -633,378 -226,279 -226,679 0,559 398,884 399,325 1092,325 697,0 1094,-325 397,-325 397,-884 0,-400 -227,-679 -226,-278 -629,-378 456,-106 710,-416 255,-309 255,-755 Q 3634,634 3220,271 2806,-91 2034,-91 1263,-91 848,271 434,634 434,1313 q 0,446 256,755 257,310 713,416 z m -231,997 q 0,-362 226,-565 227,-203 636,-203 407,0 636,203 230,203 230,565 0,363 -230,566 -229,203 -636,203 -409,0 -636,-203 -226,-203 -226,-566 z"
                   transform="scale(0.015625)" />
              </defs>
              <use
                 xlink:href="#DejaVuSans-38"
                 id="use211" />
            </g>
          </g>
        </g>
        <g
           id="xtick_6">
          <g
             id="line2d_6">
            <g
               id="g219">
              <use
                 xlink:href="#m9f241632e4"
                 x="405.59601"
                 y="121.52"
                 style="stroke:#000000;stroke-width:0.8"
                 id="use217" />
            </g>
          </g>
          <g
             id="text_6">
            <!-- 10 -->
            <g
               transform="matrix(0.1,0,0,-0.1,399.23351,136.11844)"
               id="g229">
              <defs
                 id="defs223">
                <path
                   id="DejaVuSans-31"
                   d="M 794,531 H 1825 V 4091 L 703,3866 v 575 l 1116,225 h 631 V 531 H 3481 V 0 H 794 Z"
                   transform="scale(0.015625)" />
              </defs>
              <use
                 xlink:href="#DejaVuSans-31"
                 id="use225" />
              <use
                 xlink:href="#DejaVuSans-30"
                 x="63.623047"
                 id="use227" />
            </g>
          </g>
        </g>
        <g
           id="xtick_7">
          <g
             id="line2d_7">
            <g
               id="g235">
              <use
                 xlink:href="#m9f241632e4"
                 x="473.25693"
                 y="121.52"
                 style="stroke:#000000;stroke-width:0.8"
                 id="use233" />
            </g>
          </g>
          <g
             id="text_7">
            <!-- 12 -->
            <g
               transform="matrix(0.1,0,0,-0.1,466.89444,136.11844)"
               id="g242">
              <use
                 xlink:href="#DejaVuSans-31"
                 id="use238" />
              <use
                 xlink:href="#DejaVuSans-32"
                 x="63.623047"
                 id="use240" />
            </g>
          </g>
        </g>
      </g>
      <g
         id="matplotlib.axis_2">
        <g
           id="ytick_1">
          <g
             id="line2d_8">
            <defs
               id="defs248">
              <path
                 id="m32e5b53ce4"
                 d="M 0,0 H -3.5"
                 style="stroke:#000000;stroke-width:0.8" />
            </defs>
            <g
               id="g252">
              <use
                 xlink:href="#m32e5b53ce4"
                 x="42.009998"
                 y="112.38"
                 style="stroke:#000000;stroke-width:0.8"
                 id="use250" />
            </g>
          </g>
          <g
             id="text_8">
            <!-- 0 -->
            <g
               transform="matrix(0.1,0,0,-0.1,28.6475,116.17922)"
               id="g257">
              <use
                 xlink:href="#DejaVuSans-30"
                 id="use255" />
            </g>
          </g>
        </g>
        <g
           id="ytick_2">
          <g
             id="line2d_9">
            <g
               id="g263">
              <use
                 xlink:href="#m32e5b53ce4"
                 x="42.009998"
                 y="70.246399"
                 style="stroke:#000000;stroke-width:0.8"
                 id="use261" />
            </g>
          </g>
          <g
             id="text_9">
            <!-- 1 -->
            <g
               transform="matrix(0.1,0,0,-0.1,28.6475,74.045615)"
               id="g268">
              <use
                 xlink:href="#DejaVuSans-31"
                 id="use266" />
            </g>
          </g>
        </g>
        <g
           id="ytick_3">
          <g
             id="line2d_10">
            <g
               id="g274">
              <use
                 xlink:href="#m32e5b53ce4"
                 x="42.009998"
                 y="28.112791"
                 style="stroke:#000000;stroke-width:0.8"
                 id="use272" />
            </g>
          </g>
          <g
             id="text_10">
            <!-- 2 -->
            <g
               transform="matrix(0.1,0,0,-0.1,28.6475,31.912011)"
               id="g279">
              <use
                 xlink:href="#DejaVuSans-32"
                 id="use277" />
            </g>
          </g>
        </g>
      </g>
      <g
         id="line2d_11">
        <path
           d="m 67.291364,112.38 h 67.660926 l 0.33831,-55.89433 0.3383,25.641217 0.67661,28.285873 0.33831,-3.38054 0.3383,-48.545219 0.33831,17.994057 0.3383,-6.448878 0.3383,-28.233314 0.33831,-7.164163 0.3383,60.764605 0.33831,-34.786527 0.3383,31.267749 0.33831,18.89646 0.3383,-57.091832 0.33831,34.001427 0.3383,-4.805274 0.67661,-34.030578 0.33831,15.601812 0.3383,-18.349329 0.3383,45.570807 0.33831,-39.498185 0.3383,46.248115 0.33831,-57.423895 0.3383,20.058719 0.33831,35.291597 0.3383,-54.178098 0.33831,16.247176 0.3383,35.282416 0.33831,3.048644 0.3383,-22.191471 0.33831,35.955369 0.67661,-28.758709 0.3383,3.754042 0.3383,-6.281147 0.33831,13.381755 0.67661,-41.212771 0.3383,52.72214 0.33831,-27.938807 0.3383,27.000737 0.33831,-40.500175 0.3383,22.368453 0.33831,-11.502535 0.3383,26.30533 0.33831,2.674817 0.3383,-23.18196 0.33831,9.084118 0.3383,-39.068594 0.3383,11.995202 0.33831,1.368171 0.3383,-9.971345 0.33831,54.151788 0.3383,-30.572005 0.33831,-1.901025 0.3383,-24.165295 0.33831,43.353595 0.3383,3.382041 0.33831,9.009969 0.3383,5.33064 0.33831,-57.300853 0.3383,16.540316 0.3383,-6.899019 0.33831,31.32819 0.3383,-18.563839 0.33831,32.037565 0.67661,-54.892402 0.3383,6.40826 0.33831,32.300662 0.3383,-36.644718 0.33831,43.14459 0.3383,-41.685577 0.33831,0.82965 0.67661,18.474233 0.3383,-13.56319 0.3383,33.041527 0.33831,-30.931878 0.3383,13.151696 0.33831,33.533247 0.3383,-18.247274 0.33831,10.939914 0.3383,-44.827539 0.33831,27.301107 0.3383,-0.814256 0.33831,-7.273977 0.67661,26.558685 0.3383,-35.15978 0.3383,32.57292 0.33831,-16.178509 0.3383,14.606389 0.33831,6.38396 0.3383,-37.663118 0.33831,-5.05774 0.3383,0.990979 0.33831,3.010205 0.3383,6.694021 0.33831,21.153561 0.3383,11.941532 0.33831,-15.101103 0.3383,8.218893 0.67661,8.26773 0.3383,-30.04162 0.33831,31.94741 0.3383,-33.311048 0.33831,27.430398 0.3383,2.96407 0.33831,-0.39617 0.3383,-24.541833 0.33831,18.109603 0.67661,-12.565639 0.3383,-12.048958 0.33831,5.715175 0.3383,18.425702 0.33831,5.56384 0.3383,3.0108 0.3383,-9.4351 0.33831,1.62654 0.67661,-15.429294 0.3383,-0.1678 0.33831,15.258444 0.3383,-3.343164 0.33831,7.212204 0.3383,-21.226924 0.33831,25.685314 0.3383,-21.896572 0.33831,-2.475551 0.3383,0.364361 0.3383,17.415852 0.33831,-3.6218 0.3383,-6.72717 0.33831,10.24222 0.3383,-2.96363 0.33831,5.53165 0.3383,-7.949762 0.33831,12.705502 0.3383,-22.445995 0.33831,21.532815 0.3383,-12.758673 0.33831,6.259313 0.3383,-7.49786 0.33831,-10.367998 0.3383,8.964621 0.3383,16.705457 0.33831,-10.48144 0.3383,-1.915892 0.33831,-0.476154 0.3383,-3.480732 0.33831,10.363668 0.3383,3.77004 0.33831,-6.34771 0.3383,-13.305314 0.33831,18.431454 0.3383,-16.497178 0.33831,8.528258 0.3383,2.14615 0.3383,-9.180158 0.33831,9.481738 0.3383,-5.476639 0.33831,7.057009 0.3383,-10.222663 0.33831,4.64241 0.3383,0.05722 0.33831,7.484003 0.3383,-8.078825 0.33831,2.529315 0.3383,7.50877 0.33831,1.51805 0.3383,-11.20383 0.33831,-2.554172 0.3383,8.855962 0.3383,-2.06253 0.33831,-4.164488 0.3383,6.701478 0.33831,-7.611721 0.3383,6.090421 0.33831,-3.4989 0.3383,-1.032794 0.33831,1.633524 0.3383,9.49952 0.33831,-6.41631 0.3383,3.29777 0.33831,4.53904 0.3383,-4.62427 0.33831,2.2029 0.3383,-7.15529 0.3383,10.0035 0.33831,-10.78651 0.3383,7.14286 0.33831,0.0869 0.3383,3.77848 0.33831,-1.77293 0.3383,1.94934 h 33.49216 l 0.33831,-0.53717 0.3383,-0.15377 0.33831,-0.34733 0.3383,-0.54349 0.33831,0.83439 0.3383,-1.45074 0.3383,0.025 0.33831,2.04329 0.67661,-1.19451 0.3383,0.99727 0.33831,-0.81837 0.3383,-1.40941 0.67661,0.19364 0.33831,-0.45991 0.3383,1.97047 0.33831,-0.63069 0.67661,-2.66424 1.01491,3.98491 0.3383,-3.75996 0.33831,3.87542 0.3383,-2.16988 0.33831,-1.05368 0.3383,-2.61649 0.33831,5.29392 0.3383,-2.18346 0.33831,2.60293 0.67661,-4.52061 0.3383,2.52029 0.33831,0.48801 0.3383,0.7263 0.3383,-3.96569 0.33831,-1.18564 0.3383,0.0307 0.33831,-2.75394 0.3383,8.80656 0.33831,-6.34467 0.3383,0.29724 0.33831,-0.0443 0.3383,-4.15484 0.33831,10.08769 0.3383,-7.64118 0.33831,-1.5512 0.3383,3.35355 0.3383,1.97944 0.33831,-5.76751 0.3383,8.57603 0.33831,-4.51512 0.3383,-1.17275 0.33831,-2.53127 0.3383,8.18819 0.33831,-1.97912 0.67661,-6.03383 0.3383,-4.211691 0.33831,3.877111 0.3383,7.49686 0.33831,-13.763127 0.3383,1.47133 0.33831,5.931127 0.3383,-7.388757 0.3383,6.369027 0.33831,-7.017288 0.3383,1.383814 0.33831,-2.860315 0.3383,0.578821 0.33831,16.717748 0.3383,-2.73751 0.33831,-4.34898 0.3383,-11.600638 0.33831,13.166018 0.3383,2.83303 0.33831,-15.626426 0.3383,9.270846 0.3383,-10.403701 0.33831,16.527721 0.3383,-11.546435 0.33831,4.899155 0.3383,8.45012 0.33831,-14.949337 0.3383,10.712747 0.33831,5.06459 0.3383,-0.52786 0.33831,-0.0522 0.3383,-22.028989 0.33831,4.073994 0.3383,-4.524525 0.33831,5.77225 0.3383,3.693399 0.3383,6.066491 0.33831,-19.784689 0.3383,17.882009 0.33831,-3.30684 0.3383,2.54196 0.33831,-18.164855 0.3383,24.040785 0.33831,-4.78809 0.3383,-11.117127 0.33831,19.211917 0.3383,-17.428639 0.33831,3.950173 0.3383,6.157096 0.33831,1.39754 0.3383,-9.383915 0.3383,4.777887 0.33831,-3.205037 0.3383,3.962085 0.33831,-22.478382 0.3383,29.482862 0.33831,1.26772 0.67661,-18.345595 0.3383,-2.794364 0.33831,9.622817 0.3383,-23.17164 0.33831,24.590868 0.3383,-14.578354 0.3383,3.005549 0.67661,-14.188766 0.33831,3.109846 0.3383,4.779385 0.33831,2.435105 0.3383,14.941108 0.33831,7.825791 0.3383,3.58148 0.67661,-16.200504 0.33831,-4.138878 0.67661,-20.069365 0.3383,37.769727 0.3383,0.42309 0.33831,-22.348283 0.67661,-12.65293 0.3383,-4.516295 0.33831,-2.669693 0.3383,27.777263 0.33831,0.781773 0.3383,11.265765 0.33831,-26.673083 0.3383,1.123641 0.3383,-10.613185 0.33831,38.485117 0.33831,-20.545587 0.3383,-4.50383 0.3383,17.423281 0.33831,3.703836 0.3383,-36.554865 0.33831,42.299905 0.3383,-22.13152 0.33831,18.98688 0.3383,-18.628704 0.33831,-28.869809 0.3383,30.345704 0.33831,-24.293291 0.3383,41.13081 0.67661,-16.379343 0.3383,0.06875 0.33831,-15.80953 0.3383,18.693263 0.33831,-21.693142 0.3383,4.108915 0.33831,13.960662 0.3383,-2.095549 0.33831,-11.123678 0.3383,32.619832 0.33831,-45.708911 0.3383,10.014062 0.33831,-4.727767 0.3383,11.443313 0.33831,26.332203 0.3383,-18.475771 0.3383,-0.170063 0.33831,5.191547 0.3383,18.420427 0.33831,-45.307811 0.3383,40.144891 0.33831,-32.192604 0.3383,-6.524729 0.33831,4.232201 0.3383,-21.568852 0.33831,56.289914 0.3383,-50.837013 0.3383,55.719963 0.33831,-33.988602 0.33831,8.643221 0.3383,-8.27458 1.01491,34.254661 0.33831,-34.525913 0.3383,-22.726935 0.33831,32.513442 0.67661,20.382966 0.3383,-0.36315 0.33831,-9.69689 0.3383,8.5953 0.33831,-11.857548 0.3383,14.234638 0.3383,0.0198 0.33831,-57.388548 0.3383,50.319378 0.33831,-29.12205 0.3383,-15.853703 0.67661,45.440143 0.33831,-3.474482 0.3383,-17.446641 0.33831,-7.2397 0.3383,13.27949 0.3383,-32.630655 0.33831,2.100208 0.33831,-13.55145 0.3383,68.10623 0.3383,-66.16317 0.33831,38.30611 0.3383,-37.41064 0.33831,14.245074 0.3383,-23.081504 0.33831,17.45096 0.3383,30.515396 0.33831,-10.725201 0.3383,9.637527 0.33831,0.818445 0.3383,8.098875 0.67661,-33.366127 0.3383,31.903222 0.33831,-19.676778 0.3383,32.304421 0.33831,-3.411604 0.3383,9.013214 0.33831,-74.090997 0.3383,77.525257 0.33831,-14.072009 0.3383,-35.081043 0.33831,42.882462 0.3383,-64.887438 0.33831,13.035768 0.3383,-20.188119 0.33831,37.244797 0.3383,16.84636 0.3383,-20.419155 0.33831,-31.321853 0.3383,33.528836 0.33831,20.775229 0.3383,-50.274666 0.67661,72.126811 0.33831,-20.368243 0.3383,-5.869687 0.33831,-44.853837 0.3383,33.14136 0.3383,1.110946 0.33831,8.985035 0.33831,-45.397349 0.6766,-9.433987 0.33831,51.320961 0.3383,-49.320965 0.33831,14.518108 0.3383,9.680299 0.33831,36.07221 0.3383,2.370874 0.33831,4.219828 0.3383,-63.567157 0.33831,52.791747 0.3383,-13.382645 0.3383,-3.454357 0.33831,-23.933565 0.3383,-5.583879 0.33831,59.357813 0.3383,-24.245916 0.33831,-35.047882 0.3383,2.081054 0.33831,60.293774 0.3383,-4.548238 0.33831,-12.455806 0.3383,19.283854 0.33831,-29.429222 0.3383,26.713412 0.3383,-38.791067 0.33831,27.096395 0.3383,-29.444636 0.33831,40.315748 0.3383,-72.193727 0.33831,3.679644 0.3383,45.480393 0.33831,12.58383 0.3383,-0.677579 0.33831,-19.529411 0.3383,37.19396 0.33831,-50.226638 0.3383,19.408775 0.33831,2.612711 0.3383,-36.057322 0.3383,8.438279 0.33831,-20.392399 0.3383,50.256689 0.33831,-45.359555 0.3383,10.688008 0.33831,34.31787 0.3383,-21.866544 0.33831,27.642961 0.3383,-48.399404 0.33831,63.007219 0.3383,-8.23045 0.33831,2.446531 0.3383,-18.055569 0.33831,-28.023756 0.3383,17.985286 0.3383,3.282176 0.33831,39.832722 0.3383,-34.615587 0.33831,29.491727 0.3383,-11.734838 0.33831,-58.626475 0.3383,58.116558 0.33831,-51.831871 0.3383,4.611134 0.33831,51.850456 0.3383,-35.761546 0.33831,39.296482 0.3383,-48.818227 0.3383,7.335541 0.33831,-13.727076 0.3383,26.496078 0.33831,-34.300163 0.3383,68.374607 0.33831,-19.124876 0.3383,-33.017405 0.67661,42.55361 0.33831,5.146561 0.3383,-54.988124 0.33831,26.773759 0.3383,-31.393742 0.33831,11.647651 0.3383,24.937075 0.3383,2.862845 0.33831,-10.712913 0.3383,-28.166751 0.33831,11.689745 0.3383,55.292495 0.33831,-51.674547 0.3383,-16.657477 0.33831,15.814357 0.3383,39.772512 0.33831,-22.608801 0.3383,25.408616 0.33831,-16.003019 0.3383,-42.144953 0.3383,1.274772 0.33831,46.701174 0.3383,-4.017763 0.33831,-18.637197 0.3383,-25.81294 0.33831,58.433986 0.3383,-7.702095 0.33831,-43.512383 0.3383,27.13376 0.33831,-28.367579 0.3383,50.04752 0.33831,-24.04355 0.3383,14.43554 0.33831,0.7751 0.3383,-8.81838 0.3383,1.087702 0.33831,5.278121 0.3383,-37.495634 0.33831,12.60721 0.3383,0.529444 0.33831,29.323844 0.67661,-31.964412 0.3383,-0.800309 0.33831,29.61713 0.3383,-27.455594 0.33831,2.525331 0.3383,38.286394 0.33831,-46.028242 0.3383,27.169512 0.3383,-2.673707 0.33831,2.556842 0.3383,-7.258502 0.33831,-3.082564 0.3383,7.783073 0.33831,-22.304956 0.67661,28.699681 0.3383,-0.760966 0.33831,-23.291208 0.3383,27.660354 0.67661,17.118313 0.3383,-47.300205 0.33831,-2.104512 0.3383,46.002437 0.33831,-12.121499 0.3383,9.101629 0.33831,3.39882 0.3383,-43.525477 0.33831,46.874727 0.3383,-50.569777 0.33831,48.463707 0.3383,-41.357736 0.33831,16.256822 0.3383,10.786978 0.33831,1.498968 0.3383,-21.58426 0.3383,23.306326 0.33831,-17.530829 0.3383,7.425821 0.33831,1.85391 0.3383,-20.729633 0.33831,17.655324 0.3383,-13.233959 0.33831,5.311041 0.3383,33.710697 0.33831,-35.398442 0.3383,26.908102 0.33831,-32.42347 0.3383,40.77313 0.3383,-13.485562 0.33831,10.901462 0.67661,-32.531931 0.3383,23.754719 0.33831,6.669382 0.3383,-7.830625 0.33831,-20.945826 0.3383,29.422631 0.33831,-3.65973 0.3383,6.80632 0.33831,-26.663998 0.3383,13.179712 0.33831,3.632609 0.3383,-16.445561 0.3383,15.696074 0.33831,-15.455177 0.3383,-3.137497 0.33831,23.626968 0.3383,-29.056312 0.33831,31.347702 0.3383,-4.77682 0.33831,4.26264 0.67661,-10.79543 0.3383,-1.31739 0.33831,-11.587934 0.3383,-0.906724 0.33831,23.654878 0.3383,-13.75431 0.3383,17.62497 0.33831,-11.61082 0.3383,4.71662 0.33831,0.3234 0.3383,-5.236985 0.33831,-7.69075 0.3383,21.105965 0.33831,-25.153958 0.3383,4.786418 0.33831,17.20242 0.3383,-22.713056 0.33831,13.135025 0.3383,-14.143301 0.3383,23.409812 0.33831,-9.467565 0.3383,7.032445 0.33831,-0.2678 0.67661,-16.244434 1.01491,10.330888 0.33831,-8.911886 0.3383,10.996812 0.33831,-9.107736 0.3383,1.289023 0.33831,14.957453 0.3383,-12.868333 0.3383,17.638603 0.33831,-6.97977 0.3383,2.18208 0.67661,-10.673038 0.33831,13.696958 0.67661,-16.981659 0.3383,14.478139 0.33831,-8.693953 0.3383,1.858983 0.33831,11.20064 0.3383,-8.61755 0.3383,-4.065279 0.33831,12.089139 0.3383,-14.58506 0.67661,14.85358 0.33831,-3.1789 0.3383,-11.686363 0.67661,13.717683 0.67661,-5.10693 0.33831,6.46564 0.3383,-5.53547 0.33831,-0.95066 0.3383,3.48537 0.3383,-4.4967 0.33831,-1.95148 0.3383,6.77057 0.33831,-4.67842 0.3383,-0.0464 0.33831,-3.4439 0.3383,2.22765 0.33831,-0.55958 0.67661,7.51585 0.3383,-8.32438 0.33831,8.99013 0.3383,-3.31343 0.33831,3.96649 0.3383,-8.08685 0.3383,0.0576 0.33831,2.39405 0.3383,3.31576 0.33831,0.87476 0.3383,-0.0239 0.33831,1.13236 0.3383,-2.95508 0.33831,2.91079 0.3383,-1.19457 0.33831,-2.03109 0.3383,-0.51898 0.33831,4.6196 0.3383,-2.47701 0.67661,-2.22117 0.3383,2.24867 0.33831,-2.50541 0.3383,3.76229 0.33831,1.28066 0.3383,-2.19603 0.33831,1.11327 0.3383,-2.39119 0.33831,2.58216 0.3383,-0.26447 0.33831,-1.75157 0.3383,0.40896 0.33831,0.65721 0.3383,-0.38627 0.67661,2.27813 0.3383,-0.016 0.33831,-1.31575 0.3383,1.1399 0.33831,0.0874 0.3383,-2.01703 0.33831,0.3498 0.3383,1.49053 0.33831,0.29553 0.3383,-1.60566 0.33831,1.1644 0.3383,0.16788 0.33831,-0.67179 0.3383,0.80871 0.3383,-0.17031 0.33831,-0.73286 0.3383,0.41721 0.67661,0.30401 0.33831,-0.24067 0.3383,0.46899 0.33831,-0.4661 0.67661,0.28214 0.3383,0.25867 0.33831,-0.21593 0.3383,-0.0242 0.67661,0.1886 0.3383,0.0496 0.67661,-0.0616 0.67661,0.0469 1.35322,0.0328 3.72135,-0.0462 0.67661,-0.07 0.33831,0.0543 0.3383,-0.13139 0.33831,0.0618 0.3383,-0.16491 0.33831,0.2742 0.3383,-0.62503 0.3383,-5.6e-4 0.33831,0.16328 0.67661,-0.5321 0.3383,0.88952 0.67661,-1.22627 0.33831,-0.0931 0.3383,0.49551 0.33831,0.73449 0.3383,-0.84065 0.33831,1.05336 0.3383,-0.40688 0.3383,-1.69062 0.33831,1.33017 0.3383,-0.80838 0.33831,0.8442 0.3383,-1.88709 0.33831,0.49586 0.3383,1.11301 0.33831,-1.54772 0.3383,2.1938 0.33831,-1.03164 0.3383,0.57231 0.33831,-1.84893 0.3383,2.2566 0.33831,-1.27837 0.3383,0.46304 0.3383,-1.1216 0.33831,0.66001 0.3383,-1.86822 0.33831,3.43548 0.3383,-3.32824 0.33831,2.15165 0.3383,-0.27312 0.33831,-3.29605 0.3383,-1.15633 0.33831,3.96237 0.3383,-3.52238 0.33831,4.86387 0.3383,-3.85469 0.33831,-1.02447 0.3383,4.40439 0.3383,-2.18503 0.33831,-3.93202 0.3383,6.44377 0.33831,0.71772 0.3383,-5.13591 0.33831,1.27588 0.3383,-3.56139 0.33831,-1.43143 0.3383,6.01032 0.67661,-2.14498 0.33831,-1.2431 0.3383,-4.57721 0.67661,6.3989 0.3383,1.39714 0.33831,-8.46063 0.3383,9.92056 0.33831,-7.59134 0.3383,-2.93105 1.01492,9.41602 0.3383,-2.50033 0.33831,-5.13548 0.3383,0.6387 0.33831,-4.507775 0.6766,1.189372 0.33831,-1.836363 0.3383,10.337096 0.33831,-1.68626 0.3383,-0.30648 0.33831,-3.33993 0.3383,-2.14634 0.67661,11.74327 0.33831,-7.2874 v 0"
           clip-path="url(#pe3336a0b9b)"
           style="fill:none;stroke:#1f77b4;stroke-linecap:square;stroke-opacity:0.7"
           id="path284" />
      </g>
      <g
         id="line2d_12">
        <path
           d="m 67.291364,99.380605 0.338304,-26.301273 0.338305,2.623327 0.338305,1.516628 0.338304,8.747715 0.338305,12.63186 0.676609,-18.164808 0.338305,28.123166 0.338304,-26.895796 0.338305,29.156736 0.338305,-29.060683 0.338304,0.670226 0.338305,28.081777 0.338305,-20.866658 0.338304,4.730648 0.338305,11.99136 0.338305,0.82112 0.338304,-21.553326 0.338305,7.345739 0.338305,-13.787313 0.338304,0.430557 0.338305,0.06113 0.338305,28.838923 0.338304,-26.276886 0.338305,22.380026 0.338304,-6.587702 0.338305,-9.057361 0.338305,17.191913 0.338304,-10.829365 0.338305,11.522255 0.338305,2.44875 0.338304,-0.29948 0.338305,-6.81955 0.338305,10.05502 0.338304,-11.63182 0.338305,-6.364077 0.676609,15.852597 0.338305,0.63691 0.338305,-5.51772 0.338304,2.86466 0.338305,-19.792025 0.338304,20.366565 0.338305,-15.766283 0.338305,5.528477 0.338304,0.615914 0.338305,1.533102 0.338305,-10.232429 0.338304,13.921499 0.338305,-9.166541 0.676609,8.895151 0.338305,-11.519115 0.676609,17.514325 0.67661,-12.76878 0.338304,1.949021 0.338305,-3.917044 0.338305,12.370523 0.338304,-8.887124 0.338305,5.526984 0.338304,-1.8117 0.338305,-6.279028 0.338305,-0.08167 0.338304,2.245743 0.338305,8.310105 0.338305,-8.149396 1.014914,13.359566 0.338304,-10.52805 0.338305,4.00483 0.338305,-3.74165 0.338304,0.75544 0.338305,-0.36742 0.338305,6.55197 0.338304,-6.1623 0.338305,3.31347 0.338304,1.06129 0.338305,-2.20604 0.338305,7.60084 0.338304,-0.88782 0.338305,-2.0138 0.338305,-7.15763 0.338304,8.87538 0.338305,-1.85689 0.338305,2.78956 0.338304,-2.61838 0.338305,0.1872 0.338305,-5.47287 0.338304,1.1187 0.67661,7.07767 0.338304,-6.3323 0.338305,1.50109 0.3383,3.90787 0.33831,-5.98953 0.3383,6.42121 0.33831,-5.09931 0.3383,3.89275 0.33831,-0.81373 0.3383,-2.06991 0.33831,0.8549 0.3383,-1.31106 0.33831,1.89828 0.3383,2.8345 0.33831,-3.89233 0.3383,0.72428 0.3383,0.41103 0.33831,3.02695 0.3383,-1.43161 0.33831,0.99341 0.3383,-2.48966 0.33831,0.58916 0.3383,-0.52069 0.33831,-0.13192 0.3383,0.76637 0.33831,-0.53959 0.67661,2.89995 0.3383,0.0641 0.67661,-1.8445 0.67661,-0.0584 0.3383,1.81631 0.33831,0.0443 0.3383,-1.42822 0.33831,1.03868 0.3383,-0.32661 0.33831,-0.50001 0.3383,0.80821 0.33831,-0.25712 0.3383,0.33387 0.33831,-0.30641 0.67661,0.53485 1.01491,-0.10773 0.67661,-0.10645 0.3383,0.14598 0.33831,0.01 0.3383,0.19621 1.01492,-0.0507 0.67661,0.0707 4.39796,-0.0312 0.6766,-0.1055 0.33831,0.10271 0.3383,-0.14151 0.67661,-0.005 0.67661,-0.23814 0.33831,0.42236 0.3383,-0.0691 0.33831,-0.4216 0.3383,0.44729 0.33831,-0.36704 0.3383,0.22806 0.33831,-0.0746 0.3383,-0.4968 0.3383,0.73713 0.33831,-1.10044 0.3383,0.51106 1.01492,-0.50394 0.67661,0.92751 0.3383,-0.47559 0.33831,0.29719 0.3383,-0.95472 0.33831,0.52642 0.3383,-1.7676 0.3383,-0.16556 0.33831,0.88574 0.3383,-0.0896 0.33831,-1.31869 0.67661,0.47336 0.3383,1.5927 0.33831,-0.26331 0.3383,0.62046 0.33831,-1.28502 0.3383,-2.38328 0.33831,0.18067 0.3383,3.74403 0.33831,0.45536 0.3383,-4.67403 0.67661,3.64976 0.3383,-2.87331 0.33831,0.0354 0.3383,3.20817 0.33831,-0.94104 0.3383,1.31171 0.33831,-1.07808 0.3383,0.51978 0.33831,-0.49351 0.3383,-3.89739 0.33831,4.96266 0.6766,-0.75066 0.33831,-1.64431 0.3383,0.0795 0.33831,0.32992 0.3383,-4.83283 0.33831,-2.64907 0.3383,4.44209 0.33831,-4.42815 0.3383,5.60353 0.33831,3.07627 0.3383,-3.43866 0.33831,1.18545 0.67661,-4.5611 0.3383,2.24543 0.3383,-6.18574 0.33831,0.37428 0.67661,4.85759 0.3383,4.85412 0.67661,-8.45561 0.33831,6.04146 0.3383,2.66884 0.33831,-12.56536 0.3383,2.86673 0.33831,1.28883 0.3383,-3.143955 0.33831,-0.99646 0.3383,5.794435 0.3383,-7.164205 0.33831,-0.935004 0.3383,11.475999 0.33831,-6.35637 0.3383,1.32405 0.33831,-0.40574 0.3383,-8.064061 0.33831,12.348031 0.3383,-13.955329 0.33831,1.33301 0.3383,9.045069 0.33831,-7.883055 0.3383,0.757716 0.3383,1.742813 0.33831,7.846046 0.3383,2.71709 0.33831,-11.175693 0.3383,-4.325193 0.33831,19.625576 0.3383,-15.361937 0.33831,4.730087 0.3383,-11.677204 0.33831,14.450824 0.3383,-4.10352 0.33831,-1.258162 0.3383,9.843352 0.33831,-15.64212 0.3383,-3.529502 0.3383,21.317722 0.33831,-6.65783 0.3383,7.18411 0.33831,-26.850565 0.3383,8.186539 0.33831,-9.186049 0.3383,12.77552 0.33831,-8.557389 0.3383,13.032664 0.33831,0.49913 0.3383,-0.92823 0.33831,-9.231342 0.3383,9.539602 0.3383,-18.152146 0.33831,-3.165036 0.3383,32.095742 0.33831,-5.64687 0.67661,5.18696 0.67661,-14.670656 0.3383,-14.469705 0.33831,22.425521 0.3383,-10.281468 0.33831,-16.70175 0.3383,9.654937 0.33831,-5.344467 0.3383,9.330627 0.3383,-17.213033 0.33831,15.244364 0.3383,21.6856 0.33831,-6.24043 1.01491,-24.394199 0.33831,14.921296 0.3383,-12.916849 0.33831,-3.757337 0.3383,20.344728 0.33831,-29.376109 0.3383,14.286493 0.33831,-10.68669 0.3383,14.398534 0.3383,-8.746863 0.33831,-1.65029 0.3383,-6.752648 0.33831,35.325054 0.3383,-19.451549 0.33831,5.995365 0.3383,-24.10801 0.33831,39.520784 0.3383,-43.211909 0.33831,4.906646 0.3383,39.738623 0.33831,-21.070438 0.3383,-11.725112 0.3383,-1.351082 0.33831,-9.002175 0.3383,5.182034 0.33831,25.338392 0.67661,-21.088744 0.3383,29.974435 0.33831,-3.06244 0.3383,-15.728534 0.33831,9.8463 0.3383,-31.339455 0.67661,28.152423 0.33831,-28.406848 0.3383,2.166064 0.3383,-11.404565 0.33831,8.32369 0.3383,24.813342 0.33831,16.619823 0.3383,-42.029863 0.33831,45.945093 0.3383,-17.348252 0.33831,-34.312896 0.3383,-2.828156 0.33831,19.097515 0.3383,-3.182011 0.33831,39.50237 0.3383,-29.235901 0.3383,-2.207853 0.33831,12.750843 0.3383,16.982831 0.67661,-18.495001 0.33831,-5.074862 0.67661,-18.92869 0.3383,26.121555 0.33831,-0.853494 0.3383,20.255762 0.33831,-1.40949 0.3383,-14.454077 0.33831,-32.363348 0.3383,7.275058 0.3383,-9.772528 0.33831,-0.198474 0.3383,-6.236827 0.33831,9.061063 0.3383,-18.05956 0.33831,5.233656 0.3383,21.417295 0.33831,-0.287562 0.3383,38.686954 0.33831,-67.985425 0.3383,61.074175 0.33831,-43.331175 0.3383,-5.98636 0.33831,31.879126 0.3383,12.578047 0.3383,7.035022 0.33831,-47.210394 0.3383,21.356342 0.67661,-34.253299 0.33831,56.439251 0.3383,10.80959 h 33.49216 l 0.33831,-74.338617 0.3383,10.889654 0.33831,-6.471541 0.3383,67.213714 0.67661,-39.50136 0.3383,8.205147 0.33831,15.132217 0.3383,-6.206236 0.33831,-51.785395 0.3383,52.992136 0.33831,-4.788983 0.3383,28.359454 0.33831,-67.852544 0.3383,55.691788 0.67661,-7.990297 0.33831,-50.258838 0.3383,54.246427 0.33831,-46.981758 0.3383,-0.679123 0.3383,-9.256449 0.33831,64.256514 0.3383,-7.986164 0.33831,-41.235162 0.3383,42.99393 0.33831,-7.012581 0.3383,9.37742 0.33831,-0.425001 0.3383,-23.875919 0.33831,28.820027 0.3383,-16.291821 0.33831,-7.971437 0.3383,30.853268 0.33831,-27.728182 0.3383,22.453462 0.67661,-55.174833 0.3383,0.764348 0.33831,55.532415 0.3383,-38.877158 0.33831,-17.205707 0.3383,44.467131 0.33831,-38.642157 0.3383,-9.269837 0.33831,6.45647 0.3383,51.265298 0.33831,7.17723 0.3383,-13.231697 0.3383,-5.626263 0.33831,-24.762244 0.3383,16.780478 0.33831,-22.624235 0.3383,25.071795 0.33831,14.142176 0.3383,-11.082777 0.33831,-39.92557 0.3383,-4.891693 0.33831,52.411987 0.3383,-40.051837 0.33831,35.66136 0.3383,-41.894927 0.33831,49.413427 0.3383,-33.842388 0.33831,39.435358 0.3383,-59.637776 0.3383,18.564948 0.33831,-9.131184 0.3383,18.460289 0.33831,6.100412 0.3383,-9.311878 0.33831,6.272016 0.3383,4.023907 0.33831,-18.47496 0.3383,37.421326 0.33831,0.51115 0.3383,-16.408264 0.33831,7.136957 0.3383,15.519987 0.3383,-47.796473 0.33831,4.810831 0.3383,14.253445 0.33831,-26.337179 0.3383,55.300356 0.33831,-41.7563 0.3383,30.220274 0.33831,-5.974005 0.3383,8.959456 0.33831,-33.339931 0.3383,37.882906 0.33831,-40.219731 0.3383,10.588238 0.33831,34.666953 0.3383,-42.61811 0.3383,10.638844 0.33831,-15.251224 0.67661,19.674883 0.3383,-14.84414 0.33831,30.669074 0.3383,-14.383097 0.33831,13.775234 0.3383,-35.697923 0.33831,39.489049 0.3383,11.09496 0.33831,-16.079226 0.3383,-8.956791 0.33831,24.410927 0.3383,-26.870086 0.3383,-15.590852 0.33831,8.806967 0.3383,4.33088 0.33831,-16.050815 0.3383,0.285202 0.33831,6.851504 0.3383,10.6784 0.33831,5.930174 0.3383,22.452076 0.33831,-27.550669 0.3383,-17.376528 0.33831,8.218018 0.3383,21.933361 0.3383,8.589438 0.33831,-27.980574 0.3383,2.09338 0.33831,-9.399064 0.3383,4.382257 0.33831,13.994047 0.3383,19.439694 0.33831,-15.951739 0.3383,7.237928 0.33831,-8.015895 0.3383,8.766866 0.33831,-22.368507 0.3383,1.057937 0.33831,21.150206 0.3383,-10.919633 0.3383,6.770375 0.33831,-18.047294 0.3383,27.548236 0.33831,-18.91894 0.3383,-9.742904 0.33831,29.336664 0.3383,-0.88697 0.33831,-17.399549 0.3383,-2.713359 0.33831,10.344539 0.3383,-3.884103 0.3383,13.708432 0.33831,-8.749103 0.33831,12.251673 0.3383,-6.79106 0.3383,1.31347 0.33831,-4.972935 0.3383,-15.078658 0.33831,23.611613 0.67661,-12.975927 0.3383,-9.617689 0.33831,24.301726 0.3383,-22.70941 0.33831,24.30632 0.3383,-11.242573 0.33831,0.918167 0.3383,6.896546 0.67661,-6.34786 0.3383,-10.607906 0.33831,-1.985748 0.3383,11.475277 0.33831,-8.605616 0.67661,13.332583 0.3383,3.83923 0.33831,-5.08219 0.3383,-2.38585 0.33831,11.10154 0.3383,-2.25704 0.33831,-9.964812 0.3383,8.356482 0.3383,-12.968946 0.33831,10.998166 0.3383,4.69114 0.33831,0.46872 0.3383,-16.928042 0.33831,16.314902 0.3383,-0.39665 0.33831,-13.522123 0.3383,11.528703 0.33831,-7.36557 0.3383,-2.44834 0.3383,3.92985 0.33831,-5.776603 0.33831,4.485273 0.3383,10.01813 0.3383,-7.12628 0.33831,-2.3315 0.3383,-1.0566 0.33831,11.96702 0.3383,-10.22159 0.33831,-1.3142 0.3383,1.37572 0.33831,3.4753 0.3383,0.89324 0.33831,-1.06588 0.3383,-1.83481 0.33831,-2.53689 0.3383,4.03779 0.3383,-3.06761 0.33831,2.44486 0.3383,7.43097 0.33831,-4.79516 0.3383,2.46748 0.33831,0.0943 0.3383,-0.64896 0.33831,0.51026 0.3383,-2.48623 0.33831,-0.84006 0.3383,4.00283 0.3383,1.31437 0.33831,0.65032 0.33831,-4.34746 0.3383,3.33475 0.3383,1.45053 0.33831,-7.06587 0.67661,6.47213 0.3383,-5.21864 0.33831,-0.75286 0.67661,6.37092 0.3383,-0.44714 0.33831,-1.52371 0.3383,-2.76717 0.3383,4.19986 0.33831,-3.51065 0.3383,4.24112 0.33831,-2.1379 0.3383,-0.77982 0.33831,2.7242 0.3383,-2.35472 0.33831,-1.23413 0.3383,3.23186 0.33831,-2.09593 0.3383,0.55401 0.33831,1.54003 0.3383,0.60782 0.33831,-0.008 0.67661,-2.57387 0.3383,0.91927 0.3383,-0.0799 0.33831,0.61327 0.3383,-0.12572 0.33831,1.01519 0.3383,-1.43348 0.33831,0.31855 0.3383,-0.30929 0.33831,1.21664 0.67661,0.2987 0.3383,-1.034 0.3383,0.30664 0.33831,0.72149 0.33831,-0.35605 1.01491,0.41585 0.3383,-0.49759 0.33831,0.44047 0.3383,-0.29695 0.33831,0.43636 0.3383,-0.14104 0.67661,0.17269 0.33831,-0.12471 0.3383,0.10484 0.67661,-0.0593 0.67661,0.0227 1.69152,0.0577 3.04474,-0.0645 0.67661,-0.10605 0.33831,0.0346 0.67661,-0.0593 0.3383,0.19527 h 134.98356 v 0"
           clip-path="url(#pe3336a0b9b)"
           style="fill:none;stroke:#d62728;stroke-linecap:square;stroke-opacity:0.7"
           id="path287" />
      </g>
      <g
         id="patch_3">
        <path
           d="M 42.01,116.52 V 25.44"
           style="fill:none;stroke:#7f7f7f;stroke-width:0.8;stroke-linecap:square;stroke-linejoin:miter"
           id="path290" />
      </g>
      <g
         id="patch_4">
        <path
           d="M 47.01,121.52 H 493.2"
           style="fill:none;stroke:#7f7f7f;stroke-width:0.8;stroke-linecap:square;stroke-linejoin:miter"
           id="path293" />
      </g>
      <g
         id="text_11">
        <!-- Intensity of Use (Right &amp; Left) -->
        <g
           transform="matrix(0.11,0,0,-0.11,188.43773,19.44)"
           id="g378">
          <defs
             id="defs314">
            <path
               id="DejaVuSans-49"
               d="m 628,4666 h 631 V 0 H 628 Z"
               transform="scale(0.015625)" />
            <path
               id="DejaVuSans-6e"
               d="M 3513,2113 V 0 h -575 v 2094 q 0,497 -194,743 -194,247 -581,247 -466,0 -735,-297 -269,-296 -269,-809 V 0 H 581 v 3500 h 578 v -544 q 207,316 486,472 280,156 646,156 603,0 912,-373 310,-373 310,-1098 z"
               transform="scale(0.015625)" />
            <path
               id="DejaVuSans-74"
               d="M 1172,4494 V 3500 H 2356 V 3053 H 1172 V 1153 q 0,-428 117,-550 117,-122 477,-122 h 590 V 0 H 1766 Q 1100,0 847,248 594,497 594,1153 V 3053 H 172 v 447 h 422 v 994 z"
               transform="scale(0.015625)" />
            <path
               id="DejaVuSans-65"
               d="M 3597,1894 V 1613 H 953 q 38,-594 358,-905 320,-311 892,-311 331,0 642,81 311,81 618,244 V 178 Q 3153,47 2828,-22 2503,-91 2169,-91 1331,-91 842,396 353,884 353,1716 q 0,859 464,1363 464,505 1252,505 706,0 1117,-455 411,-454 411,-1235 z m -575,169 q -6,471 -264,752 -258,282 -683,282 -481,0 -770,-272 -289,-272 -333,-766 z"
               transform="scale(0.015625)" />
            <path
               id="DejaVuSans-73"
               d="m 2834,3397 v -544 q -243,125 -506,187 -262,63 -544,63 -428,0 -642,-131 -214,-131 -214,-394 0,-200 153,-314 153,-114 616,-217 l 197,-44 q 612,-131 870,-370 258,-239 258,-667 0,-488 -386,-773 Q 2250,-91 1575,-91 1294,-91 989,-36 684,19 347,128 v 594 q 319,-166 628,-249 309,-82 613,-82 406,0 624,139 219,139 219,392 0,234 -158,359 -157,125 -692,241 l -200,47 q -534,112 -772,345 -237,233 -237,639 0,494 350,762 350,269 994,269 318,0 599,-47 282,-46 519,-140 z"
               transform="scale(0.015625)" />
            <path
               id="DejaVuSans-69"
               d="m 603,3500 h 575 V 0 H 603 Z m 0,1363 h 575 V 4134 H 603 Z"
               transform="scale(0.015625)" />
            <path
               id="DejaVuSans-79"
               d="m 2059,-325 q -243,-625 -475,-815 -231,-191 -618,-191 H 506 v 481 h 338 q 237,0 368,113 132,112 291,531 L 1606,56 191,3500 H 800 L 1894,763 2988,3500 h 609 z"
               transform="scale(0.015625)" />
            <path
               id="DejaVuSans-20"
               transform="scale(0.015625)"
               d="" />
            <path
               id="DejaVuSans-6f"
               d="m 1959,3097 q -462,0 -731,-361 -269,-361 -269,-989 0,-628 267,-989 268,-361 733,-361 460,0 728,362 269,363 269,988 0,622 -269,986 -268,364 -728,364 z m 0,487 q 750,0 1178,-488 429,-487 429,-1349 Q 3566,888 3137,398 2709,-91 1959,-91 1206,-91 779,398 353,888 353,1747 q 0,862 426,1349 427,488 1180,488 z"
               transform="scale(0.015625)" />
            <path
               id="DejaVuSans-66"
               d="m 2375,4863 v -479 h -550 q -309,0 -430,-125 -120,-125 -120,-450 v -309 h 947 V 3053 H 1275 V 0 H 697 V 3053 H 147 v 447 h 550 v 244 q 0,584 272,851 272,268 862,268 z"
               transform="scale(0.015625)" />
            <path
               id="DejaVuSans-55"
               d="m 556,4666 h 635 V 1831 q 0,-750 271,-1080 272,-329 882,-329 606,0 878,329 272,330 272,1080 v 2835 h 634 V 1753 Q 4128,841 3676,375 3225,-91 2344,-91 1459,-91 1007,375 556,841 556,1753 Z"
               transform="scale(0.015625)" />
            <path
               id="DejaVuSans-28"
               d="m 1984,4856 q -418,-718 -622,-1422 -203,-703 -203,-1425 0,-721 205,-1429 205,-708 620,-1424 h -500 q -468,735 -701,1444 -233,709 -233,1409 0,697 231,1403 232,707 703,1444 z"
               transform="scale(0.015625)" />
            <path
               id="DejaVuSans-52"
               d="m 2841,2188 q 203,-69 395,-294 192,-225 386,-619 L 4263,0 h -679 l -596,1197 q -232,469 -449,622 -217,153 -592,153 H 1259 V 0 H 628 v 4666 h 1425 q 800,0 1194,-335 394,-334 394,-1009 0,-441 -205,-732 -205,-290 -595,-402 z M 1259,4147 V 2491 h 794 q 456,0 689,211 233,211 233,620 0,409 -233,617 -233,208 -689,208 z"
               transform="scale(0.015625)" />
            <path
               id="DejaVuSans-67"
               d="m 2906,1791 q 0,625 -258,968 -257,344 -723,344 -462,0 -720,-344 -258,-343 -258,-968 0,-622 258,-966 258,-344 720,-344 466,0 723,344 258,344 258,966 z M 3481,434 q 0,-893 -397,-1329 -396,-436 -1215,-436 -303,0 -572,45 -269,45 -522,139 v 559 q 253,-137 500,-202 247,-66 503,-66 566,0 847,295 281,295 281,892 V 616 Q 2728,306 2450,153 2172,0 1784,0 1141,0 747,490 353,981 353,1791 q 0,812 394,1302 394,491 1037,491 388,0 666,-153 278,-153 456,-462 v 531 h 575 z"
               transform="scale(0.015625)" />
            <path
               id="DejaVuSans-68"
               d="M 3513,2113 V 0 h -575 v 2094 q 0,497 -194,743 -194,247 -581,247 -466,0 -735,-297 -269,-296 -269,-809 V 0 H 581 v 4863 h 578 V 2956 q 207,316 486,472 280,156 646,156 603,0 912,-373 310,-373 310,-1098 z"
               transform="scale(0.015625)" />
            <path
               id="DejaVuSans-26"
               d="m 1556,2509 q -284,-253 -417,-505 -133,-251 -133,-526 0,-456 331,-759 332,-303 832,-303 297,0 556,98 259,99 488,299 z m 441,350 1587,-1625 q 185,279 288,596 103,317 122,673 h 581 Q 4538,2091 4375,1687 4213,1284 3922,891 L 4794,0 H 4006 L 3559,459 Q 3234,181 2878,45 2522,-91 2113,-91 1359,-91 881,339 403,769 403,1441 q 0,400 209,751 210,352 629,661 -150,197 -229,392 -78,196 -78,383 0,506 347,814 347,308 922,308 260,0 517,-56 258,-56 524,-169 v -569 q -272,147 -519,223 -247,77 -459,77 -328,0 -533,-174 -205,-173 -205,-448 0,-159 92,-320 93,-161 377,-455 z"
               transform="scale(0.015625)" />
            <path
               id="DejaVuSans-4c"
               d="m 628,4666 h 631 V 531 H 3531 V 0 H 628 Z"
               transform="scale(0.015625)" />
            <path
               id="DejaVuSans-29"
               d="m 513,4856 h 500 q 468,-737 701,-1444 233,-706 233,-1403 0,-700 -233,-1409 -233,-709 -701,-1444 H 513 q 415,716 620,1424 205,708 205,1429 0,722 -205,1425 -205,704 -620,1422 z"
               transform="scale(0.015625)" />
          </defs>
          <use
             xlink:href="#DejaVuSans-49"
             id="use316" />
          <use
             xlink:href="#DejaVuSans-6e"
             x="29.492188"
             id="use318" />
          <use
             xlink:href="#DejaVuSans-74"
             x="92.871094"
             id="use320" />
          <use
             xlink:href="#DejaVuSans-65"
             x="132.08008"
             id="use322" />
          <use
             xlink:href="#DejaVuSans-6e"
             x="193.60352"
             id="use324" />
          <use
             xlink:href="#DejaVuSans-73"
             x="256.98242"
             id="use326" />
          <use
             xlink:href="#DejaVuSans-69"
             x="309.08203"
             id="use328" />
          <use
             xlink:href="#DejaVuSans-74"
             x="336.86523"
             id="use330" />
          <use
             xlink:href="#DejaVuSans-79"
             x="376.07422"
             id="use332" />
          <use
             xlink:href="#DejaVuSans-20"
             x="435.25391"
             id="use334" />
          <use
             xlink:href="#DejaVuSans-6f"
             x="467.04102"
             id="use336" />
          <use
             xlink:href="#DejaVuSans-66"
             x="528.22266"
             id="use338" />
          <use
             xlink:href="#DejaVuSans-20"
             x="563.42773"
             id="use340" />
          <use
             xlink:href="#DejaVuSans-55"
             x="595.21484"
             id="use342" />
          <use
             xlink:href="#DejaVuSans-73"
             x="668.4082"
             id="use344" />
          <use
             xlink:href="#DejaVuSans-65"
             x="720.50781"
             id="use346" />
          <use
             xlink:href="#DejaVuSans-20"
             x="782.03125"
             id="use348" />
          <use
             xlink:href="#DejaVuSans-28"
             x="813.81836"
             id="use350" />
          <use
             xlink:href="#DejaVuSans-52"
             x="852.83203"
             id="use352" />
          <use
             xlink:href="#DejaVuSans-69"
             x="922.31445"
             id="use354" />
          <use
             xlink:href="#DejaVuSans-67"
             x="950.09766"
             id="use356" />
          <use
             xlink:href="#DejaVuSans-68"
             x="1013.5742"
             id="use358" />
          <use
             xlink:href="#DejaVuSans-74"
             x="1076.9531"
             id="use360" />
          <use
             xlink:href="#DejaVuSans-20"
             x="1116.1621"
             id="use362" />
          <use
             xlink:href="#DejaVuSans-26"
             x="1147.9492"
             id="use364" />
          <use
             xlink:href="#DejaVuSans-20"
             x="1225.9277"
             id="use366" />
          <use
             xlink:href="#DejaVuSans-4c"
             x="1257.7148"
             id="use368" />
          <use
             xlink:href="#DejaVuSans-65"
             x="1311.6777"
             id="use370" />
          <use
             xlink:href="#DejaVuSans-66"
             x="1373.2012"
             id="use372" />
          <use
             xlink:href="#DejaVuSans-74"
             x="1406.6562"
             id="use374" />
          <use
             xlink:href="#DejaVuSans-29"
             x="1445.8652"
             id="use376" />
        </g>
      </g>
      <g
         id="legend_1">
        <g
           id="line2d_13">
          <path
             d="m 429.86719,38.538437 h 10 10"
             style="fill:none;stroke:#1f77b4;stroke-linecap:square;stroke-opacity:0.7"
             id="path381" />
        </g>
        <g
           id="text_12">
          <!-- Right -->
          <g
             transform="matrix(0.1,0,0,-0.1,457.86719,42.038437)"
             id="g394">
            <use
               xlink:href="#DejaVuSans-52"
               id="use384" />
            <use
               xlink:href="#DejaVuSans-69"
               x="69.482422"
               id="use386" />
            <use
               xlink:href="#DejaVuSans-67"
               x="97.265625"
               id="use388" />
            <use
               xlink:href="#DejaVuSans-68"
               x="160.74219"
               id="use390" />
            <use
               xlink:href="#DejaVuSans-74"
               x="224.12109"
               id="use392" />
          </g>
        </g>
        <g
           id="line2d_14">
          <path
             d="m 429.86719,53.216562 h 10 10"
             style="fill:none;stroke:#d62728;stroke-linecap:square;stroke-opacity:0.7"
             id="path397" />
        </g>
        <g
           id="text_13">
          <!-- Left -->
          <g
             transform="matrix(0.1,0,0,-0.1,457.86719,56.716562)"
             id="g408">
            <use
               xlink:href="#DejaVuSans-4c"
               id="use400" />
            <use
               xlink:href="#DejaVuSans-65"
               x="53.962891"
               id="use402" />
            <use
               xlink:href="#DejaVuSans-66"
               x="115.48633"
               id="use404" />
            <use
               xlink:href="#DejaVuSans-74"
               x="148.94141"
               id="use406" />
          </g>
        </g>
      </g>
    </g>
    <g
       id="axes_2">
      <g
         id="patch_5">
        <path
           d="M 47.01,255.12 H 493.2 V 164.04 H 47.01 Z"
           style="fill:#ffffff"
           id="path413" />
      </g>
      <g
         id="matplotlib.axis_3">
        <g
           id="xtick_8">
          <g
             id="line2d_15">
            <g
               id="g418">
              <use
                 xlink:href="#m9f241632e4"
                 x="67.291367"
                 y="260.12"
                 style="stroke:#000000;stroke-width:0.8"
                 id="use416" />
            </g>
          </g>
          <g
             id="text_14">
            <!-- 0 -->
            <g
               transform="matrix(0.1,0,0,-0.1,64.110114,274.71844)"
               id="g423">
              <use
                 xlink:href="#DejaVuSans-30"
                 id="use421" />
            </g>
          </g>
        </g>
        <g
           id="xtick_9">
          <g
             id="line2d_16">
            <g
               id="g429">
              <use
                 xlink:href="#m9f241632e4"
                 x="134.95229"
                 y="260.12"
                 style="stroke:#000000;stroke-width:0.8"
                 id="use427" />
            </g>
          </g>
          <g
             id="text_15">
            <!-- 2 -->
            <g
               transform="matrix(0.1,0,0,-0.1,131.77104,274.71844)"
               id="g434">
              <use
                 xlink:href="#DejaVuSans-32"
                 id="use432" />
            </g>
          </g>
        </g>
        <g
           id="xtick_10">
          <g
             id="line2d_17">
            <g
               id="g440">
              <use
                 xlink:href="#m9f241632e4"
                 x="202.61322"
                 y="260.12"
                 style="stroke:#000000;stroke-width:0.8"
                 id="use438" />
            </g>
          </g>
          <g
             id="text_16">
            <!-- 4 -->
            <g
               transform="matrix(0.1,0,0,-0.1,199.43197,274.71844)"
               id="g445">
              <use
                 xlink:href="#DejaVuSans-34"
                 id="use443" />
            </g>
          </g>
        </g>
        <g
           id="xtick_11">
          <g
             id="line2d_18">
            <g
               id="g451">
              <use
                 xlink:href="#m9f241632e4"
                 x="270.27414"
                 y="260.12"
                 style="stroke:#000000;stroke-width:0.8"
                 id="use449" />
            </g>
          </g>
          <g
             id="text_17">
            <!-- 6 -->
            <g
               transform="matrix(0.1,0,0,-0.1,267.0929,274.71844)"
               id="g456">
              <use
                 xlink:href="#DejaVuSans-36"
                 id="use454" />
            </g>
          </g>
        </g>
        <g
           id="xtick_12">
          <g
             id="line2d_19">
            <g
               id="g462">
              <use
                 xlink:href="#m9f241632e4"
                 x="337.93509"
                 y="260.12"
                 style="stroke:#000000;stroke-width:0.8"
                 id="use460" />
            </g>
          </g>
          <g
             id="text_18">
            <!-- 8 -->
            <g
               transform="matrix(0.1,0,0,-0.1,334.75383,274.71844)"
               id="g467">
              <use
                 xlink:href="#DejaVuSans-38"
                 id="use465" />
            </g>
          </g>
        </g>
        <g
           id="xtick_13">
          <g
             id="line2d_20">
            <g
               id="g473">
              <use
                 xlink:href="#m9f241632e4"
                 x="405.59601"
                 y="260.12"
                 style="stroke:#000000;stroke-width:0.8"
                 id="use471" />
            </g>
          </g>
          <g
             id="text_19">
            <!-- 10 -->
            <g
               transform="matrix(0.1,0,0,-0.1,399.23351,274.71844)"
               id="g480">
              <use
                 xlink:href="#DejaVuSans-31"
                 id="use476" />
              <use
                 xlink:href="#DejaVuSans-30"
                 x="63.623047"
                 id="use478" />
            </g>
          </g>
        </g>
        <g
           id="xtick_14">
          <g
             id="line2d_21">
            <g
               id="g486">
              <use
                 xlink:href="#m9f241632e4"
                 x="473.25693"
                 y="260.12"
                 style="stroke:#000000;stroke-width:0.8"
                 id="use484" />
            </g>
          </g>
          <g
             id="text_20">
            <!-- 12 -->
            <g
               transform="matrix(0.1,0,0,-0.1,466.89444,274.71844)"
               id="g493">
              <use
                 xlink:href="#DejaVuSans-31"
                 id="use489" />
              <use
                 xlink:href="#DejaVuSans-32"
                 x="63.623047"
                 id="use491" />
            </g>
          </g>
        </g>
      </g>
      <g
         id="matplotlib.axis_4">
        <g
           id="ytick_4">
          <g
             id="line2d_22">
            <g
               id="g500">
              <use
                 xlink:href="#m32e5b53ce4"
                 x="42.009998"
                 y="250.98"
                 style="stroke:#000000;stroke-width:0.8"
                 id="use498" />
            </g>
          </g>
          <g
             id="text_21">
            <!-- 1 -->
            <g
               transform="matrix(0.1,0,0,-0.1,20.267813,254.77922)"
               id="g510">
              <defs
                 id="defs504">
                <path
                   id="DejaVuSans-2212"
                   d="M 678,2272 H 4684 V 1741 H 678 Z"
                   transform="scale(0.015625)" />
              </defs>
              <use
                 xlink:href="#DejaVuSans-2212"
                 id="use506" />
              <use
                 xlink:href="#DejaVuSans-31"
                 x="83.789062"
                 id="use508" />
            </g>
          </g>
        </g>
        <g
           id="ytick_5">
          <g
             id="line2d_23">
            <g
               id="g516">
              <use
                 xlink:href="#m32e5b53ce4"
                 x="42.009998"
                 y="209.58"
                 style="stroke:#000000;stroke-width:0.8"
                 id="use514" />
            </g>
          </g>
          <g
             id="text_22">
            <!-- 0 -->
            <g
               transform="matrix(0.1,0,0,-0.1,28.6475,213.37922)"
               id="g521">
              <use
                 xlink:href="#DejaVuSans-30"
                 id="use519" />
            </g>
          </g>
        </g>
        <g
           id="ytick_6">
          <g
             id="line2d_24">
            <g
               id="g527">
              <use
                 xlink:href="#m32e5b53ce4"
                 x="42.009998"
                 y="168.17999"
                 style="stroke:#000000;stroke-width:0.8"
                 id="use525" />
            </g>
          </g>
          <g
             id="text_23">
            <!-- 1 -->
            <g
               transform="matrix(0.1,0,0,-0.1,28.6475,171.97922)"
               id="g532">
              <use
                 xlink:href="#DejaVuSans-31"
                 id="use530" />
            </g>
          </g>
        </g>
      </g>
      <g
         id="line2d_25">
        <path
           d="m 67.291364,250.98 h 67.660926 l 0.33831,-80.68981 0.3383,0.13003 0.33831,8.44481 0.3383,46.96572 0.33831,-20.6098 0.3383,-36.152 0.33831,-0.59128 0.3383,8.13758 0.3383,-5.07808 0.33831,-2.14633 0.3383,14.66156 0.33831,-9.94487 0.3383,-2.87926 0.33831,39.8641 0.3383,-42.33403 0.33831,4.13629 0.3383,-2.07555 0.33831,-0.0356 0.3383,3.84112 0.33831,-5.76031 0.3383,0.36082 0.3383,3.31179 0.33831,-0.68424 0.3383,9.81151 0.33831,-10.80707 0.3383,7.53206 0.33831,21.33864 0.3383,-25.60893 0.33831,6.84562 0.3383,2.56175 0.33831,-9.56522 0.3383,3.21808 0.33831,44.61106 0.3383,-30.39479 0.33831,-6.08688 0.3383,-2.54995 0.67661,15.96208 0.3383,-15.30508 0.33831,-7.04356 0.3383,6.90387 0.33831,-3.86981 0.3383,32.5078 0.33831,-37.20259 0.3383,-1.98686 0.67661,34.69709 0.33831,2.45974 0.3383,-18.1375 0.33831,7.16985 0.3383,-21.05348 0.3383,9.61902 0.33831,1.29775 0.3383,-14.23099 0.33831,49.4458 0.3383,-37.83235 0.33831,-0.16295 0.67661,2.5514 0.3383,26.51791 0.67661,27.91431 0.33831,-55.62598 0.3383,4.58772 0.3383,-4.18375 0.33831,4.76785 0.3383,-15.09987 0.33831,57.08981 0.67661,-65.78716 0.3383,18.59681 0.33831,10.20242 0.3383,-5.6818 0.33831,7.62885 0.3383,-16.16725 0.33831,1.4357 0.3383,-10.2808 0.33831,22.74377 0.3383,-2.81376 0.3383,-18.79172 0.33831,4.88958 0.3383,-9.74318 0.33831,78.12865 0.3383,-38.45761 0.33831,22.56977 0.3383,-45.41272 0.33831,21.3179 0.3383,-15.27759 0.33831,-4.76397 0.3383,11.33101 0.33831,30.15545 0.3383,-44.0625 0.3383,44.49089 0.33831,-16.08008 0.3383,-39.51355 0.33831,40.9214 0.3383,-40.92354 0.33831,-4.46425 0.67661,19.87734 0.3383,15.16176 0.33831,-9.17504 0.3383,40.30358 0.33831,-14.82154 0.3383,4.51347 0.33831,10.87542 0.3383,5.20523 0.3383,-29.39647 0.33831,35.98513 0.3383,-76.78757 0.33831,41.97268 0.3383,22.4657 0.33831,3.13657 0.3383,-27.64467 0.33831,8.07194 0.3383,0.44021 0.33831,-3.03029 0.3383,-26.10261 0.33831,25.88796 0.67661,23.79958 0.3383,3.03897 0.3383,-14.54493 0.33831,2.96348 0.3383,-5.75455 0.33831,-40.90635 0.3383,24.11628 0.33831,12.97222 0.3383,8.27289 0.33831,-26.68785 0.3383,15.93263 0.33831,26.53933 0.3383,-68.1114 0.33831,29.02553 0.3383,8.24493 0.3383,19.15569 0.33831,-1.81298 0.3383,-8.76 0.33831,-2.87097 0.3383,3.37563 0.33831,13.73698 0.3383,-42.53562 0.33831,44.7416 0.3383,-29.98029 0.33831,29.35201 0.3383,-9.78739 0.33831,2.31544 0.3383,-20.06843 0.67661,14.53435 0.3383,21.68078 0.67661,-28.17905 0.33831,-24.25645 0.3383,32.33742 0.33831,-33.38226 0.3383,43.91623 0.33831,-1.2596 0.3383,-11.19459 0.33831,14.97572 0.3383,-19.05601 0.33831,-40.90217 0.3383,48.24519 0.3383,-9.93508 0.33831,3.74893 0.3383,-38.34857 0.33831,34.43115 0.3383,-6.92289 0.33831,9.57821 0.3383,5.471 0.33831,12.16677 0.3383,-24.12188 0.33831,4.55151 0.3383,-34.50812 0.33831,21.18751 0.3383,5.46486 0.33831,16.51042 0.3383,7.93467 0.3383,-0.29177 0.33831,-4.33599 0.3383,8.3113 0.33831,-10.00443 0.3383,9.62483 0.33831,-4.10854 0.3383,-6.73576 0.33831,2.03907 0.3383,-21.57558 0.33831,30.9086 0.3383,-21.18212 0.33831,28.97708 0.3383,-5.76337 0.33831,-1.91887 0.3383,-26.08183 0.3383,30.66884 0.33831,-9.75818 0.3383,5.0951 0.33831,3.20747 0.3383,5.61172 0.33831,-12.43377 m 34.16877,12.05639 0.67661,-0.61751 0.3383,-29.32788 0.33831,28.17674 0.3383,-1.73593 0.3383,-0.87516 0.33831,4.40818 0.3383,-1.72668 0.33831,0.88982 0.3383,0.28337 0.33831,-2.06297 0.3383,-70.92188 0.33831,71.21468 0.3383,-10.30118 0.33831,1.0329 0.3383,8.85116 0.33831,1.60737 0.3383,-11.27424 0.33831,7.89485 0.6766,3.4799 0.33831,0.16599 0.3383,-14.00318 0.33831,15.37161 0.3383,-10.37661 0.33831,-0.11809 0.3383,-15.26253 0.33831,22.32493 0.3383,-2.23846 0.33831,4.08803 0.3383,-5.95222 0.33831,-2.78315 0.3383,-34.02975 0.33831,39.95529 0.3383,-5.32243 0.3383,0.14272 0.33831,2.24493 0.3383,-0.0493 0.33831,-41.76454 0.3383,49.15757 0.33831,-7.6546 0.3383,-13.49853 0.33831,13.08397 0.3383,-3.09974 0.33831,10.95854 0.67661,-77.1047 0.3383,52.31777 0.3383,10.83275 0.33831,-0.80705 0.3383,11.45871 0.33831,-4.96155 0.3383,-9.40661 0.33831,-20.51474 0.3383,33.93439 0.33831,0.38489 0.3383,-2.67535 0.33831,-25.65211 0.3383,16.00962 0.33831,-11.58621 0.3383,25.23669 0.33831,-45.64021 0.3383,28.38708 0.33831,-29.55055 0.3383,33.41203 0.3383,2.2018 1.01492,-16.22882 0.3383,5.371 0.33831,23.19787 0.3383,-6.77501 0.33831,-2.96866 0.3383,-40.76895 0.67661,43.02069 0.33831,-31.06171 0.3383,-15.92748 0.3383,33.14016 0.33831,17.1403 0.3383,-20.02911 0.33831,13.72599 0.3383,-12.01112 0.33831,2.0979 0.3383,-0.72326 0.33831,19.22363 0.3383,-5.09713 0.33831,5.9493 0.3383,-58.34322 0.33831,37.3324 0.3383,-8.35111 0.33831,-37.83736 0.3383,49.97599 0.3383,3.86183 0.33831,-13.62846 0.3383,13.10702 0.33831,-8.85713 0.3383,9.19271 0.33831,-38.41376 0.3383,42.0452 0.33831,-19.76327 0.3383,8.20227 0.33831,12.30424 0.3383,-67.55686 0.33831,39.86063 0.3383,17.64273 0.33831,-48.07058 0.3383,38.59745 0.3383,13.02728 0.33831,-7.24588 0.3383,2.71661 0.33831,-12.07142 0.3383,27.28874 0.33831,0.98495 0.67661,-33.55765 0.3383,-40.49082 0.33831,51.9694 0.3383,-8.97426 0.33831,15.6558 0.3383,-31.43334 0.3383,-11.62935 0.33831,25.21565 0.3383,-5.27619 0.33831,6.91735 0.3383,0.64709 0.33831,-7.90698 0.3383,-17.93752 0.33831,43.929 0.3383,5.40484 0.33831,-13.35819 0.3383,-22.70128 0.33831,17.15617 0.3383,-8.85351 0.33831,-22.3644 0.3383,48.90884 0.3383,-3.52557 0.33831,-17.56823 0.3383,-32.35426 0.33831,18.67793 0.3383,4.25815 0.33831,-27.02664 0.3383,12.75838 0.67661,42.80628 0.33831,-37.77076 0.3383,4.56404 0.3383,-20.44672 0.33831,51.4408 0.33831,-52.71667 0.6766,24.45043 0.33831,15.96067 0.3383,-18.49728 0.33831,20.84947 0.3383,-26.16703 0.33831,34.83807 0.3383,-17.95294 0.33831,-38.37256 0.3383,38.43529 0.33831,-40.21884 0.3383,51.92184 0.67661,-39.18201 0.3383,7.50907 0.33831,-4.37025 0.3383,24.30002 0.67661,-22.48079 0.33831,18.21681 0.3383,-9.23206 0.33831,-15.02082 0.3383,27.86167 0.33831,-29.85994 0.3383,5.77564 0.33831,-17.43987 0.3383,5.58617 0.33831,47.07418 0.3383,-41.13421 0.3383,20.71285 0.33831,-13.20842 0.3383,23.08731 0.33831,-41.09465 0.3383,57.15003 0.33831,-55.42357 0.3383,0.0226 0.33831,18.63747 0.3383,-17.51747 0.33831,47.11811 0.3383,-36.2061 0.3383,53.26203 0.33831,-44.00997 0.33831,-0.80271 0.3383,-20.99759 0.67661,34.33266 0.3383,36.40575 0.33831,-73.92393 1.35322,45.0656 0.3383,-4.05645 0.33831,-15.78607 0.3383,20.24856 0.33831,-14.942 0.3383,19.44299 0.3383,6.42478 0.33831,-47.6393 0.3383,-4.53377 0.33831,4.79439 0.3383,-5.62971 0.33831,2.51193 0.3383,13.39833 0.33831,-5.68349 0.3383,-2.20639 0.33831,-0.65156 0.6766,-10.06307 0.33831,-0.86327 0.33831,4.61287 0.3383,28.50773 0.3383,-33.77095 0.33831,15.80227 0.3383,-11.25267 0.33831,-3.6134 0.3383,4.90427 0.33831,2.4635 0.3383,-0.64137 0.33831,-7.18779 0.3383,1.40009 0.33831,4.0449 0.3383,10.23483 0.3383,-14.57104 0.33831,4.46935 0.3383,-5.85849 0.33831,3.89475 0.3383,15.90693 0.33831,-18.37541 0.3383,32.40402 0.33831,-30.2035 0.3383,51.45217 0.33831,-42.18578 0.3383,-9.69988 0.33831,3.73496 0.3383,-7.18835 0.33831,0.0172 0.3383,1.56008 0.33831,3.29917 0.3383,0.41694 0.67661,-4.08687 0.3383,1.16964 0.33831,-1.42963 0.3383,0.92719 0.33831,1.65671 0.3383,73.9879 0.33831,-75.69232 0.67661,-1.65291 0.3383,2.34076 0.3383,-0.57578 0.33831,-1.44622 0.33831,0.0801 0.6766,-0.47554 0.33831,0.18249 0.3383,0.32125 0.33831,-0.40851 0.3383,0.46613 0.33831,-0.54816 0.3383,0.65315 0.33831,-0.53762 0.3383,-0.24687 0.33831,0.41867 0.3383,-0.37407 0.3383,0.1671 0.67661,-0.19539 0.33831,0.38894 0.3383,-0.33905 0.67661,-0.0573 2.02983,0.21381 0.3383,-0.21077 0.33831,0.2167 0.3383,-0.22587 0.33831,0.66315 0.3383,-0.60227 0.33831,0.0968 0.3383,0.26501 0.33831,0.12306 0.3383,0.28901 0.67661,-0.83894 h 134.98356 v 0"
           clip-path="url(#p1f8d5bf94c)"
           style="fill:none;stroke:#000000;stroke-linecap:square;stroke-opacity:0.3"
           id="path537" />
      </g>
      <g
         id="line2d_26">
        <path
           d="m 67.291364,211.236 8.457616,39.744 h 8.457616 8.457616 8.457618 8.45762 8.45761 8.45762 8.45761 l 8.45762,-73.41687 8.45762,11.15702 8.45761,6.87986 8.45762,1.17363 8.45761,26.41308 8.45762,-2.02043 8.45762,-0.81651 m 50.74569,22.21749 8.45762,-8.35186 8.45762,-3.7683 8.45761,-4.83564 8.45762,-10.78838 8.45762,-7.35198 8.45761,-7.63244 8.45762,-5.80439 8.45761,-5.96385 8.45762,-11.44729 8.45762,-4.31096 8.45761,-3.95113 8.45762,-0.18105 h 8.45761 8.45762 8.45762 8.45761 8.45762 8.45761 8.45762 8.45762 8.45761 8.45762 8.45762 8.45761 8.45762 8.45761"
           clip-path="url(#p1f8d5bf94c)"
           style="fill:none;stroke:#000000;stroke-linecap:square"
           id="path540" />
      </g>
      <g
         id="patch_6">
        <path
           d="M 42.01,255.12 V 164.04"
           style="fill:none;stroke:#7f7f7f;stroke-width:0.8;stroke-linecap:square;stroke-linejoin:miter"
           id="path543" />
      </g>
      <g
         id="patch_7">
        <path
           d="M 47.01,260.12 H 493.2"
           style="fill:none;stroke:#7f7f7f;stroke-width:0.8;stroke-linecap:square;stroke-linejoin:miter"
           id="path546" />
      </g>
      <g
         id="text_24">
        <!-- Laterality Index -->
        <g
           transform="matrix(0.11,0,0,-0.11,227.13969,158.04)"
           id="g588">
          <defs
             id="defs554">
            <path
               id="DejaVuSans-61"
               d="m 2194,1759 q -697,0 -966,-159 -269,-159 -269,-544 0,-306 202,-486 202,-179 548,-179 479,0 768,339 289,339 289,901 v 128 z m 1147,238 V 0 H 2766 V 531 Q 2569,213 2275,61 1981,-91 1556,-91 q -537,0 -855,302 -317,302 -317,808 0,590 395,890 396,300 1180,300 h 807 v 57 q 0,397 -261,614 -261,217 -733,217 -300,0 -585,-72 -284,-72 -546,-216 v 532 q 315,122 612,182 297,61 578,61 760,0 1135,-394 375,-393 375,-1193 z"
               transform="scale(0.015625)" />
            <path
               id="DejaVuSans-72"
               d="m 2631,2963 q -97,56 -211,82 -114,27 -251,27 -488,0 -749,-317 -261,-317 -261,-911 V 0 H 581 v 3500 h 578 v -544 q 182,319 472,473 291,155 707,155 59,0 131,-8 72,-7 159,-23 z"
               transform="scale(0.015625)" />
            <path
               id="DejaVuSans-6c"
               d="m 603,4863 h 575 V 0 H 603 Z"
               transform="scale(0.015625)" />
            <path
               id="DejaVuSans-64"
               d="m 2906,2969 v 1894 h 575 V 0 H 2906 V 525 Q 2725,213 2448,61 2172,-91 1784,-91 1150,-91 751,415 353,922 353,1747 q 0,825 398,1331 399,506 1033,506 388,0 664,-152 277,-151 458,-463 z M 947,1747 q 0,-634 261,-995 261,-361 717,-361 456,0 718,361 263,361 263,995 0,634 -263,995 -262,361 -718,361 -456,0 -717,-361 -261,-361 -261,-995 z"
               transform="scale(0.015625)" />
            <path
               id="DejaVuSans-78"
               d="M 3513,3500 2247,1797 3578,0 H 2900 L 1881,1375 863,0 H 184 L 1544,1831 300,3500 h 678 l 928,-1247 928,1247 z"
               transform="scale(0.015625)" />
          </defs>
          <use
             xlink:href="#DejaVuSans-4c"
             id="use556" />
          <use
             xlink:href="#DejaVuSans-61"
             x="55.712891"
             id="use558" />
          <use
             xlink:href="#DejaVuSans-74"
             x="116.99219"
             id="use560" />
          <use
             xlink:href="#DejaVuSans-65"
             x="156.20117"
             id="use562" />
          <use
             xlink:href="#DejaVuSans-72"
             x="217.72461"
             id="use564" />
          <use
             xlink:href="#DejaVuSans-61"
             x="258.83789"
             id="use566" />
          <use
             xlink:href="#DejaVuSans-6c"
             x="320.11719"
             id="use568" />
          <use
             xlink:href="#DejaVuSans-69"
             x="347.90039"
             id="use570" />
          <use
             xlink:href="#DejaVuSans-74"
             x="375.68359"
             id="use572" />
          <use
             xlink:href="#DejaVuSans-79"
             x="414.89258"
             id="use574" />
          <use
             xlink:href="#DejaVuSans-20"
             x="474.07227"
             id="use576" />
          <use
             xlink:href="#DejaVuSans-49"
             x="505.85938"
             id="use578" />
          <use
             xlink:href="#DejaVuSans-6e"
             x="535.35156"
             id="use580" />
          <use
             xlink:href="#DejaVuSans-64"
             x="598.73047"
             id="use582" />
          <use
             xlink:href="#DejaVuSans-65"
             x="662.20703"
             id="use584" />
          <use
             xlink:href="#DejaVuSans-78"
             x="721.98047"
             id="use586" />
        </g>
      </g>
      <g
         id="legend_2">
        <g
           id="line2d_27">
          <path
             d="m 381.81406,177.13844 h 10 10"
             style="fill:none;stroke:#000000;stroke-linecap:square;stroke-opacity:0.3"
             id="path591" />
        </g>
        <g
           id="text_25">
          <!-- Inst. Lat. Index -->
          <g
             transform="matrix(0.1,0,0,-0.1,409.81406,180.63844)"
             id="g629">
            <defs
               id="defs595">
              <path
                 id="DejaVuSans-2e"
                 d="m 684,794 h 660 V 0 H 684 Z"
                 transform="scale(0.015625)" />
            </defs>
            <use
               xlink:href="#DejaVuSans-49"
               id="use597" />
            <use
               xlink:href="#DejaVuSans-6e"
               x="29.492188"
               id="use599" />
            <use
               xlink:href="#DejaVuSans-73"
               x="92.871094"
               id="use601" />
            <use
               xlink:href="#DejaVuSans-74"
               x="144.9707"
               id="use603" />
            <use
               xlink:href="#DejaVuSans-2e"
               x="184.17969"
               id="use605" />
            <use
               xlink:href="#DejaVuSans-20"
               x="215.9668"
               id="use607" />
            <use
               xlink:href="#DejaVuSans-4c"
               x="247.75391"
               id="use609" />
            <use
               xlink:href="#DejaVuSans-61"
               x="303.4668"
               id="use611" />
            <use
               xlink:href="#DejaVuSans-74"
               x="364.74609"
               id="use613" />
            <use
               xlink:href="#DejaVuSans-2e"
               x="403.95508"
               id="use615" />
            <use
               xlink:href="#DejaVuSans-20"
               x="435.74219"
               id="use617" />
            <use
               xlink:href="#DejaVuSans-49"
               x="467.5293"
               id="use619" />
            <use
               xlink:href="#DejaVuSans-6e"
               x="497.02148"
               id="use621" />
            <use
               xlink:href="#DejaVuSans-64"
               x="560.40039"
               id="use623" />
            <use
               xlink:href="#DejaVuSans-65"
               x="623.87695"
               id="use625" />
            <use
               xlink:href="#DejaVuSans-78"
               x="683.65039"
               id="use627" />
          </g>
        </g>
        <g
           id="line2d_28">
          <path
             d="m 381.81406,191.81656 h 10 10"
             style="fill:none;stroke:#000000;stroke-linecap:square"
             id="path632" />
        </g>
        <g
           id="text_26">
          <!-- Avg. Lat. Index -->
          <g
             transform="matrix(0.1,0,0,-0.1,409.81406,195.31656)"
             id="g669">
            <defs
               id="defs637">
              <path
                 id="DejaVuSans-41"
                 d="M 2188,4044 1331,1722 h 1716 z m -357,622 h 716 L 4325,0 H 3669 L 3244,1197 H 1141 L 716,0 H 50 Z"
                 transform="scale(0.015625)" />
              <path
                 id="DejaVuSans-76"
                 d="M 191,3500 H 800 L 1894,563 2988,3500 h 609 L 2284,0 h -781 z"
                 transform="scale(0.015625)" />
            </defs>
            <use
               xlink:href="#DejaVuSans-41"
               id="use639" />
            <use
               xlink:href="#DejaVuSans-76"
               x="62.533203"
               id="use641" />
            <use
               xlink:href="#DejaVuSans-67"
               x="121.71289"
               id="use643" />
            <use
               xlink:href="#DejaVuSans-2e"
               x="185.18945"
               id="use645" />
            <use
               xlink:href="#DejaVuSans-20"
               x="216.97656"
               id="use647" />
            <use
               xlink:href="#DejaVuSans-4c"
               x="248.76367"
               id="use649" />
            <use
               xlink:href="#DejaVuSans-61"
               x="304.47656"
               id="use651" />
            <use
               xlink:href="#DejaVuSans-74"
               x="365.75586"
               id="use653" />
            <use
               xlink:href="#DejaVuSans-2e"
               x="404.96484"
               id="use655" />
            <use
               xlink:href="#DejaVuSans-20"
               x="436.75195"
               id="use657" />
            <use
               xlink:href="#DejaVuSans-49"
               x="468.53906"
               id="use659" />
            <use
               xlink:href="#DejaVuSans-6e"
               x="498.03125"
               id="use661" />
            <use
               xlink:href="#DejaVuSans-64"
               x="561.41016"
               id="use663" />
            <use
               xlink:href="#DejaVuSans-65"
               x="624.88672"
               id="use665" />
            <use
               xlink:href="#DejaVuSans-78"
               x="684.66016"
               id="use667" />
          </g>
        </g>
      </g>
    </g>
  </g>
  <defs
     id="defs681">
    <clipPath
       id="pe3336a0b9b">
      <rect
         x="47.009998"
         y="25.440001"
         width="446.19"
         height="91.080002"
         id="rect675" />
    </clipPath>
    <clipPath
       id="p1f8d5bf94c">
      <rect
         x="47.009998"
         y="164.03999"
         width="446.19"
         height="91.080002"
         id="rect678" />
    </clipPath>
  </defs>
</svg>
