<?xml version="1.0" encoding="UTF-8" standalone="no"?>
<svg
   width="357.44376pt"
   height="211.03343pt"
   viewBox="0 0 357.44376 211.03343"
   version="1.1"
   id="svg1659"
   sodipodi:docname="mjt_movement.svg"
   inkscape:version="1.2 (dc2aeda, 2022-05-15)"
   xmlns:inkscape="http://www.inkscape.org/namespaces/inkscape"
   xmlns:sodipodi="http://sodipodi.sourceforge.net/DTD/sodipodi-0.dtd"
   xmlns:xlink="http://www.w3.org/1999/xlink"
   xmlns="http://www.w3.org/2000/svg"
   xmlns:svg="http://www.w3.org/2000/svg"
   xmlns:rdf="http://www.w3.org/1999/02/22-rdf-syntax-ns#"
   xmlns:cc="http://creativecommons.org/ns#"
   xmlns:dc="http://purl.org/dc/elements/1.1/">
  <sodipodi:namedview
     id="namedview1661"
     pagecolor="#ffffff"
     bordercolor="#000000"
     borderopacity="0.25"
     inkscape:showpageshadow="2"
     inkscape:pageopacity="0.0"
     inkscape:pagecheckerboard="0"
     inkscape:deskcolor="#d1d1d1"
     inkscape:document-units="pt"
     showgrid="false"
     inkscape:zoom="0.81944444"
     inkscape:cx="92.745763"
     inkscape:cy="129.35593"
     inkscape:window-width="1309"
     inkscape:window-height="456"
     inkscape:window-x="0"
     inkscape:window-y="25"
     inkscape:window-maximized="0"
     inkscape:current-layer="figure_1" />
  <metadata
     id="metadata1293">
    <rdf:RDF>
      <cc:Work>
        <dc:type
           rdf:resource="http://purl.org/dc/dcmitype/StillImage" />
        <dc:date>2024-01-15T08:01:38.770615</dc:date>
        <dc:format>image/svg+xml</dc:format>
        <dc:creator>
          <cc:Agent>
            <dc:title>Matplotlib v3.6.1, https://matplotlib.org/</dc:title>
          </cc:Agent>
        </dc:creator>
      </cc:Work>
    </rdf:RDF>
  </metadata>
  <defs
     id="defs1297">
    <style
       type="text/css"
       id="style1295">*{stroke-linejoin: round; stroke-linecap: butt}</style>
  </defs>
  <g
     id="figure_1"
     transform="translate(-31.75625,-10.801875)">
    <g
       id="axes_1">
      <g
         id="patch_2">
        <path
           d="M 54,192.24 H 388.8 V 25.92 H 54 Z"
           style="fill:#ffffff"
           id="path1302" />
      </g>
      <g
         id="matplotlib.axis_1">
        <g
           id="xtick_1">
          <g
             id="line2d_1">
            <defs
               id="defs1306">
              <path
                 id="m4394527634"
                 d="M 0,0 V 3.5"
                 style="stroke:#000000;stroke-width:0.8" />
            </defs>
            <g
               id="g1310">
              <use
                 xlink:href="#m4394527634"
                 x="69.218185"
                 y="192.24001"
                 style="stroke:#000000;stroke-width:0.8"
                 id="use1308" />
            </g>
          </g>
          <g
             id="text_1">
            <!-- −1.00 -->
            <g
               transform="matrix(0.1,0,0,-0.1,53.895526,206.83844)"
               id="g1329">
              <defs
                 id="defs1317">
                <path
                   id="DejaVuSans-2212"
                   d="M 678,2272 H 4684 V 1741 H 678 Z"
                   transform="scale(0.015625)" />
                <path
                   id="DejaVuSans-31"
                   d="M 794,531 H 1825 V 4091 L 703,3866 v 575 l 1116,225 h 631 V 531 H 3481 V 0 H 794 Z"
                   transform="scale(0.015625)" />
                <path
                   id="DejaVuSans-2e"
                   d="m 684,794 h 660 V 0 H 684 Z"
                   transform="scale(0.015625)" />
                <path
                   id="DejaVuSans-30"
                   d="m 2034,4250 q -487,0 -733,-480 -245,-479 -245,-1442 0,-959 245,-1439 246,-480 733,-480 491,0 736,480 246,480 246,1439 0,963 -246,1442 -245,480 -736,480 z m 0,500 q 785,0 1199,-621 414,-620 414,-1801 0,-1178 -414,-1799 -414,-620 -1199,-620 -784,0 -1198,620 -414,621 -414,1799 0,1181 414,1801 414,621 1198,621 z"
                   transform="scale(0.015625)" />
              </defs>
              <use
                 xlink:href="#DejaVuSans-2212"
                 id="use1319" />
              <use
                 xlink:href="#DejaVuSans-31"
                 x="83.789062"
                 id="use1321" />
              <use
                 xlink:href="#DejaVuSans-2e"
                 x="147.41211"
                 id="use1323" />
              <use
                 xlink:href="#DejaVuSans-30"
                 x="179.19922"
                 id="use1325" />
              <use
                 xlink:href="#DejaVuSans-30"
                 x="242.82227"
                 id="use1327" />
            </g>
          </g>
        </g>
        <g
           id="xtick_2">
          <g
             id="line2d_2">
            <g
               id="g1335">
              <use
                 xlink:href="#m4394527634"
                 x="107.45482"
                 y="192.24001"
                 style="stroke:#000000;stroke-width:0.8"
                 id="use1333" />
            </g>
          </g>
          <g
             id="text_2">
            <!-- −0.75 -->
            <g
               transform="matrix(0.1,0,0,-0.1,92.132163,206.83844)"
               id="g1352">
              <defs
                 id="defs1340">
                <path
                   id="DejaVuSans-37"
                   d="M 525,4666 H 3525 V 4397 L 1831,0 H 1172 L 2766,4134 H 525 Z"
                   transform="scale(0.015625)" />
                <path
                   id="DejaVuSans-35"
                   d="M 691,4666 H 3169 V 4134 H 1269 V 2991 q 137,47 274,70 138,23 276,23 781,0 1237,-428 457,-428 457,-1159 Q 3513,744 3044,326 2575,-91 1722,-91 1428,-91 1123,-41 819,9 494,109 v 635 q 281,-153 581,-228 300,-75 634,-75 541,0 856,284 316,284 316,772 0,487 -316,771 -315,285 -856,285 -253,0 -505,-56 -251,-56 -513,-175 z"
                   transform="scale(0.015625)" />
              </defs>
              <use
                 xlink:href="#DejaVuSans-2212"
                 id="use1342" />
              <use
                 xlink:href="#DejaVuSans-30"
                 x="83.789062"
                 id="use1344" />
              <use
                 xlink:href="#DejaVuSans-2e"
                 x="147.41211"
                 id="use1346" />
              <use
                 xlink:href="#DejaVuSans-37"
                 x="179.19922"
                 id="use1348" />
              <use
                 xlink:href="#DejaVuSans-35"
                 x="242.82227"
                 id="use1350" />
            </g>
          </g>
        </g>
        <g
           id="xtick_3">
          <g
             id="line2d_3">
            <g
               id="g1358">
              <use
                 xlink:href="#m4394527634"
                 x="145.69145"
                 y="192.24001"
                 style="stroke:#000000;stroke-width:0.8"
                 id="use1356" />
            </g>
          </g>
          <g
             id="text_3">
            <!-- −0.50 -->
            <g
               transform="matrix(0.1,0,0,-0.1,130.3688,206.83844)"
               id="g1371">
              <use
                 xlink:href="#DejaVuSans-2212"
                 id="use1361" />
              <use
                 xlink:href="#DejaVuSans-30"
                 x="83.789062"
                 id="use1363" />
              <use
                 xlink:href="#DejaVuSans-2e"
                 x="147.41211"
                 id="use1365" />
              <use
                 xlink:href="#DejaVuSans-35"
                 x="179.19922"
                 id="use1367" />
              <use
                 xlink:href="#DejaVuSans-30"
                 x="242.82227"
                 id="use1369" />
            </g>
          </g>
        </g>
        <g
           id="xtick_4">
          <g
             id="line2d_4">
            <g
               id="g1377">
              <use
                 xlink:href="#m4394527634"
                 x="183.9281"
                 y="192.24001"
                 style="stroke:#000000;stroke-width:0.8"
                 id="use1375" />
            </g>
          </g>
          <g
             id="text_4">
            <!-- −0.25 -->
            <g
               transform="matrix(0.1,0,0,-0.1,168.60544,206.83844)"
               id="g1393">
              <defs
                 id="defs1381">
                <path
                   id="DejaVuSans-32"
                   d="M 1228,531 H 3431 V 0 H 469 v 531 q 359,372 979,998 621,627 780,809 303,340 423,576 121,236 121,464 0,372 -261,606 -261,235 -680,235 -297,0 -627,-103 -329,-103 -704,-313 v 638 q 381,153 712,231 332,78 607,78 725,0 1156,-363 431,-362 431,-968 0,-288 -108,-546 -107,-257 -392,-607 -78,-91 -497,-524 Q 1991,1309 1228,531 Z"
                   transform="scale(0.015625)" />
              </defs>
              <use
                 xlink:href="#DejaVuSans-2212"
                 id="use1383" />
              <use
                 xlink:href="#DejaVuSans-30"
                 x="83.789062"
                 id="use1385" />
              <use
                 xlink:href="#DejaVuSans-2e"
                 x="147.41211"
                 id="use1387" />
              <use
                 xlink:href="#DejaVuSans-32"
                 x="179.19922"
                 id="use1389" />
              <use
                 xlink:href="#DejaVuSans-35"
                 x="242.82227"
                 id="use1391" />
            </g>
          </g>
        </g>
        <g
           id="xtick_5">
          <g
             id="line2d_5">
            <g
               id="g1399">
              <use
                 xlink:href="#m4394527634"
                 x="222.16473"
                 y="192.24001"
                 style="stroke:#000000;stroke-width:0.8"
                 id="use1397" />
            </g>
          </g>
          <g
             id="text_5">
            <!-- 0.00 -->
            <g
               transform="matrix(0.1,0,0,-0.1,211.03192,206.83844)"
               id="g1410">
              <use
                 xlink:href="#DejaVuSans-30"
                 id="use1402" />
              <use
                 xlink:href="#DejaVuSans-2e"
                 x="63.623047"
                 id="use1404" />
              <use
                 xlink:href="#DejaVuSans-30"
                 x="95.410156"
                 id="use1406" />
              <use
                 xlink:href="#DejaVuSans-30"
                 x="159.0332"
                 id="use1408" />
            </g>
          </g>
        </g>
        <g
           id="xtick_6">
          <g
             id="line2d_6">
            <g
               id="g1416">
              <use
                 xlink:href="#m4394527634"
                 x="260.40137"
                 y="192.24001"
                 style="stroke:#000000;stroke-width:0.8"
                 id="use1414" />
            </g>
          </g>
          <g
             id="text_6">
            <!-- 0.25 -->
            <g
               transform="matrix(0.1,0,0,-0.1,249.26856,206.83844)"
               id="g1427">
              <use
                 xlink:href="#DejaVuSans-30"
                 id="use1419" />
              <use
                 xlink:href="#DejaVuSans-2e"
                 x="63.623047"
                 id="use1421" />
              <use
                 xlink:href="#DejaVuSans-32"
                 x="95.410156"
                 id="use1423" />
              <use
                 xlink:href="#DejaVuSans-35"
                 x="159.0332"
                 id="use1425" />
            </g>
          </g>
        </g>
        <g
           id="xtick_7">
          <g
             id="line2d_7">
            <g
               id="g1433">
              <use
                 xlink:href="#m4394527634"
                 x="298.638"
                 y="192.24001"
                 style="stroke:#000000;stroke-width:0.8"
                 id="use1431" />
            </g>
          </g>
          <g
             id="text_7">
            <!-- 0.50 -->
            <g
               transform="matrix(0.1,0,0,-0.1,287.5052,206.83844)"
               id="g1444">
              <use
                 xlink:href="#DejaVuSans-30"
                 id="use1436" />
              <use
                 xlink:href="#DejaVuSans-2e"
                 x="63.623047"
                 id="use1438" />
              <use
                 xlink:href="#DejaVuSans-35"
                 x="95.410156"
                 id="use1440" />
              <use
                 xlink:href="#DejaVuSans-30"
                 x="159.0332"
                 id="use1442" />
            </g>
          </g>
        </g>
        <g
           id="xtick_8">
          <g
             id="line2d_8">
            <g
               id="g1450">
              <use
                 xlink:href="#m4394527634"
                 x="336.87463"
                 y="192.24001"
                 style="stroke:#000000;stroke-width:0.8"
                 id="use1448" />
            </g>
          </g>
          <g
             id="text_8">
            <!-- 0.75 -->
            <g
               transform="matrix(0.1,0,0,-0.1,325.74183,206.83844)"
               id="g1461">
              <use
                 xlink:href="#DejaVuSans-30"
                 id="use1453" />
              <use
                 xlink:href="#DejaVuSans-2e"
                 x="63.623047"
                 id="use1455" />
              <use
                 xlink:href="#DejaVuSans-37"
                 x="95.410156"
                 id="use1457" />
              <use
                 xlink:href="#DejaVuSans-35"
                 x="159.0332"
                 id="use1459" />
            </g>
          </g>
        </g>
        <g
           id="xtick_9">
          <g
             id="line2d_9">
            <g
               id="g1467">
              <use
                 xlink:href="#m4394527634"
                 x="375.1113"
                 y="192.24001"
                 style="stroke:#000000;stroke-width:0.8"
                 id="use1465" />
            </g>
          </g>
          <g
             id="text_9">
            <!-- 1.00 -->
            <g
               transform="matrix(0.1,0,0,-0.1,363.97847,206.83844)"
               id="g1478">
              <use
                 xlink:href="#DejaVuSans-31"
                 id="use1470" />
              <use
                 xlink:href="#DejaVuSans-2e"
                 x="63.623047"
                 id="use1472" />
              <use
                 xlink:href="#DejaVuSans-30"
                 x="95.410156"
                 id="use1474" />
              <use
                 xlink:href="#DejaVuSans-30"
                 x="159.0332"
                 id="use1476" />
            </g>
          </g>
        </g>
        <g
           id="text_10">
          <!-- Time (sec) -->
          <g
             transform="matrix(0.1,0,0,-0.1,195.24531,220.51656)"
             id="g1513">
            <defs
               id="defs1491">
              <path
                 id="DejaVuSans-54"
                 d="M -19,4666 H 3928 V 4134 H 2272 V 0 H 1638 V 4134 H -19 Z"
                 transform="scale(0.015625)" />
              <path
                 id="DejaVuSans-69"
                 d="m 603,3500 h 575 V 0 H 603 Z m 0,1363 h 575 V 4134 H 603 Z"
                 transform="scale(0.015625)" />
              <path
                 id="DejaVuSans-6d"
                 d="m 3328,2828 q 216,388 516,572 300,184 706,184 547,0 844,-383 297,-382 297,-1088 V 0 h -578 v 2094 q 0,503 -179,746 -178,244 -543,244 -447,0 -707,-297 -259,-296 -259,-809 V 0 h -578 v 2094 q 0,506 -178,748 -178,242 -550,242 -441,0 -701,-298 -259,-298 -259,-808 V 0 H 581 v 3500 h 578 v -544 q 197,322 472,475 275,153 653,153 382,0 649,-194 267,-193 395,-562 z"
                 transform="scale(0.015625)" />
              <path
                 id="DejaVuSans-65"
                 d="M 3597,1894 V 1613 H 953 q 38,-594 358,-905 320,-311 892,-311 331,0 642,81 311,81 618,244 V 178 Q 3153,47 2828,-22 2503,-91 2169,-91 1331,-91 842,396 353,884 353,1716 q 0,859 464,1363 464,505 1252,505 706,0 1117,-455 411,-454 411,-1235 z m -575,169 q -6,471 -264,752 -258,282 -683,282 -481,0 -770,-272 -289,-272 -333,-766 z"
                 transform="scale(0.015625)" />
              <path
                 id="DejaVuSans-20"
                 transform="scale(0.015625)"
                 d="" />
              <path
                 id="DejaVuSans-28"
                 d="m 1984,4856 q -418,-718 -622,-1422 -203,-703 -203,-1425 0,-721 205,-1429 205,-708 620,-1424 h -500 q -468,735 -701,1444 -233,709 -233,1409 0,697 231,1403 232,707 703,1444 z"
                 transform="scale(0.015625)" />
              <path
                 id="DejaVuSans-73"
                 d="m 2834,3397 v -544 q -243,125 -506,187 -262,63 -544,63 -428,0 -642,-131 -214,-131 -214,-394 0,-200 153,-314 153,-114 616,-217 l 197,-44 q 612,-131 870,-370 258,-239 258,-667 0,-488 -386,-773 Q 2250,-91 1575,-91 1294,-91 989,-36 684,19 347,128 v 594 q 319,-166 628,-249 309,-82 613,-82 406,0 624,139 219,139 219,392 0,234 -158,359 -157,125 -692,241 l -200,47 q -534,112 -772,345 -237,233 -237,639 0,494 350,762 350,269 994,269 318,0 599,-47 282,-46 519,-140 z"
                 transform="scale(0.015625)" />
              <path
                 id="DejaVuSans-63"
                 d="m 3122,3366 v -538 q -244,135 -489,202 -245,67 -495,67 -560,0 -870,-355 -309,-354 -309,-995 0,-641 309,-996 310,-354 870,-354 250,0 495,67 245,67 489,202 V 134 Q 2881,22 2623,-34 2366,-91 2075,-91 1284,-91 818,406 353,903 353,1747 q 0,856 470,1346 471,491 1290,491 265,0 518,-55 253,-54 491,-163 z"
                 transform="scale(0.015625)" />
              <path
                 id="DejaVuSans-29"
                 d="m 513,4856 h 500 q 468,-737 701,-1444 233,-706 233,-1403 0,-700 -233,-1409 -233,-709 -701,-1444 H 513 q 415,716 620,1424 205,708 205,1429 0,722 -205,1425 -205,704 -620,1422 z"
                 transform="scale(0.015625)" />
            </defs>
            <use
               xlink:href="#DejaVuSans-54"
               id="use1493" />
            <use
               xlink:href="#DejaVuSans-69"
               x="57.958984"
               id="use1495" />
            <use
               xlink:href="#DejaVuSans-6d"
               x="85.742188"
               id="use1497" />
            <use
               xlink:href="#DejaVuSans-65"
               x="183.1543"
               id="use1499" />
            <use
               xlink:href="#DejaVuSans-20"
               x="244.67773"
               id="use1501" />
            <use
               xlink:href="#DejaVuSans-28"
               x="276.46484"
               id="use1503" />
            <use
               xlink:href="#DejaVuSans-73"
               x="315.47852"
               id="use1505" />
            <use
               xlink:href="#DejaVuSans-65"
               x="367.57812"
               id="use1507" />
            <use
               xlink:href="#DejaVuSans-63"
               x="429.10156"
               id="use1509" />
            <use
               xlink:href="#DejaVuSans-29"
               x="484.08203"
               id="use1511" />
          </g>
        </g>
      </g>
      <g
         id="matplotlib.axis_2">
        <g
           id="ytick_1">
          <g
             id="line2d_10">
            <defs
               id="defs1518">
              <path
                 id="m010eaaaf8d"
                 d="M 0,0 H -3.5"
                 style="stroke:#000000;stroke-width:0.8" />
            </defs>
            <g
               id="g1522">
              <use
                 xlink:href="#m010eaaaf8d"
                 x="54"
                 y="184.67999"
                 style="stroke:#000000;stroke-width:0.8"
                 id="use1520" />
            </g>
          </g>
          <g
             id="text_11">
            <!-- 0.0 -->
            <g
               transform="matrix(0.1,0,0,-0.1,31.096875,188.47922)"
               id="g1531">
              <use
                 xlink:href="#DejaVuSans-30"
                 id="use1525" />
              <use
                 xlink:href="#DejaVuSans-2e"
                 x="63.623047"
                 id="use1527" />
              <use
                 xlink:href="#DejaVuSans-30"
                 x="95.410156"
                 id="use1529" />
            </g>
          </g>
        </g>
        <g
           id="ytick_2">
          <g
             id="line2d_11">
            <g
               id="g1537">
              <use
                 xlink:href="#m010eaaaf8d"
                 x="54"
                 y="144.36"
                 style="stroke:#000000;stroke-width:0.8"
                 id="use1535" />
            </g>
          </g>
          <g
             id="text_12">
            <!-- 0.5 -->
            <g
               transform="matrix(0.1,0,0,-0.1,31.096875,148.15922)"
               id="g1546">
              <use
                 xlink:href="#DejaVuSans-30"
                 id="use1540" />
              <use
                 xlink:href="#DejaVuSans-2e"
                 x="63.623047"
                 id="use1542" />
              <use
                 xlink:href="#DejaVuSans-35"
                 x="95.410156"
                 id="use1544" />
            </g>
          </g>
        </g>
        <g
           id="ytick_3">
          <g
             id="line2d_12">
            <g
               id="g1552">
              <use
                 xlink:href="#m010eaaaf8d"
                 x="54"
                 y="104.04"
                 style="stroke:#000000;stroke-width:0.8"
                 id="use1550" />
            </g>
          </g>
          <g
             id="text_13">
            <!-- 1.0 -->
            <g
               transform="matrix(0.1,0,0,-0.1,31.096875,107.83922)"
               id="g1561">
              <use
                 xlink:href="#DejaVuSans-31"
                 id="use1555" />
              <use
                 xlink:href="#DejaVuSans-2e"
                 x="63.623047"
                 id="use1557" />
              <use
                 xlink:href="#DejaVuSans-30"
                 x="95.410156"
                 id="use1559" />
            </g>
          </g>
        </g>
        <g
           id="ytick_4">
          <g
             id="line2d_13">
            <g
               id="g1567">
              <use
                 xlink:href="#m010eaaaf8d"
                 x="54"
                 y="63.720001"
                 style="stroke:#000000;stroke-width:0.8"
                 id="use1565" />
            </g>
          </g>
          <g
             id="text_14">
            <!-- 1.5 -->
            <g
               transform="matrix(0.1,0,0,-0.1,31.096875,67.519219)"
               id="g1576">
              <use
                 xlink:href="#DejaVuSans-31"
                 id="use1570" />
              <use
                 xlink:href="#DejaVuSans-2e"
                 x="63.623047"
                 id="use1572" />
              <use
                 xlink:href="#DejaVuSans-35"
                 x="95.410156"
                 id="use1574" />
            </g>
          </g>
        </g>
      </g>
      <g
         id="line2d_14">
        <path
           d="m 69.218182,184.68 h 76.473278 l 1.52946,-0.23711 1.52947,-0.69225 1.52946,-1.11924 1.52947,-1.51866 1.52946,-1.89106 1.52947,-2.23706 1.52947,-2.55721 1.52946,-2.85212 3.05893,-6.49081 3.05893,-7.38185 3.05893,-8.09174 4.5884,-13.09525 6.11786,-18.41882 7.64733,-22.970185 4.5884,-13.008159 3.05893,-8.124642 3.05893,-7.576934 3.05893,-6.94562 3.05893,-6.239988 3.05893,-5.469327 1.52947,-2.427885 1.52946,-2.215044 1.52947,-1.996686 1.52946,-1.773395 1.52947,-1.545748 1.52946,-1.314327 1.52947,-1.079713 1.52947,-0.842487 1.52946,-0.603227 1.52947,-0.362517 1.52946,-0.120936 1.52947,0.120936 1.52946,0.362517 1.52947,0.603227 1.52946,0.842487 1.52947,1.079713 1.52947,1.314327 1.52946,1.545748 1.52947,1.773395 1.52946,1.996686 1.52947,2.215044 3.05893,5.062515 3.05893,5.862205 3.05893,6.601513 3.05893,7.271148 3.05893,7.861819 3.05893,8.364239 4.5884,13.272481 7.64733,23.11848 6.11786,18.23264 3.05893,8.62977 3.05893,8.09174 3.05893,7.38185 3.05893,6.49081 1.52947,2.85212 1.52946,2.55721 1.52947,2.23706 1.52947,1.89106 1.52946,1.51866 1.52947,1.11924 1.52946,0.69225 1.52947,0.23711 h 74.94381 v 0"
           clip-path="url(#pa90cb9081e)"
           style="fill:none;stroke:#1f77b4;stroke-width:1.5;stroke-linecap:square"
           id="path1581" />
      </g>
      <g
         id="patch_3">
        <path
           d="M 54,192.24 V 25.92"
           style="fill:none;stroke:#000000;stroke-width:0.8;stroke-linecap:square;stroke-linejoin:miter"
           id="path1584" />
      </g>
      <g
         id="patch_4">
        <path
           d="M 388.8,192.24 V 25.92"
           style="fill:none;stroke:#000000;stroke-width:0.8;stroke-linecap:square;stroke-linejoin:miter"
           id="path1587" />
      </g>
      <g
         id="patch_5">
        <path
           d="M 54,192.24 H 388.8"
           style="fill:none;stroke:#000000;stroke-width:0.8;stroke-linecap:square;stroke-linejoin:miter"
           id="path1590" />
      </g>
      <g
         id="patch_6">
        <path
           d="M 54,25.92 H 388.8"
           style="fill:none;stroke:#000000;stroke-width:0.8;stroke-linecap:square;stroke-linejoin:miter"
           id="path1593" />
      </g>
      <g
         id="text_15">
        <!-- MJT Movement Velocity -->
        <g
           transform="matrix(0.12,0,0,-0.12,151.65375,19.92)"
           id="g1649">
          <defs
             id="defs1605">
            <path
               id="DejaVuSans-4d"
               d="m 628,4666 h 941 L 2759,1491 3956,4666 h 941 V 0 H 4281 V 4097 L 3078,897 H 2444 L 1241,4097 V 0 H 628 Z"
               transform="scale(0.015625)" />
            <path
               id="DejaVuSans-4a"
               d="m 628,4666 h 631 V 325 q 0,-844 -320,-1225 -320,-381 -1030,-381 h -240 v 531 h 197 q 418,0 590,235 172,234 172,840 z"
               transform="scale(0.015625)" />
            <path
               id="DejaVuSans-6f"
               d="m 1959,3097 q -462,0 -731,-361 -269,-361 -269,-989 0,-628 267,-989 268,-361 733,-361 460,0 728,362 269,363 269,988 0,622 -269,986 -268,364 -728,364 z m 0,487 q 750,0 1178,-488 429,-487 429,-1349 Q 3566,888 3137,398 2709,-91 1959,-91 1206,-91 779,398 353,888 353,1747 q 0,862 426,1349 427,488 1180,488 z"
               transform="scale(0.015625)" />
            <path
               id="DejaVuSans-76"
               d="M 191,3500 H 800 L 1894,563 2988,3500 h 609 L 2284,0 h -781 z"
               transform="scale(0.015625)" />
            <path
               id="DejaVuSans-6e"
               d="M 3513,2113 V 0 h -575 v 2094 q 0,497 -194,743 -194,247 -581,247 -466,0 -735,-297 -269,-296 -269,-809 V 0 H 581 v 3500 h 578 v -544 q 207,316 486,472 280,156 646,156 603,0 912,-373 310,-373 310,-1098 z"
               transform="scale(0.015625)" />
            <path
               id="DejaVuSans-74"
               d="M 1172,4494 V 3500 H 2356 V 3053 H 1172 V 1153 q 0,-428 117,-550 117,-122 477,-122 h 590 V 0 H 1766 Q 1100,0 847,248 594,497 594,1153 V 3053 H 172 v 447 h 422 v 994 z"
               transform="scale(0.015625)" />
            <path
               id="DejaVuSans-56"
               d="M 1831,0 50,4666 H 709 L 2188,738 3669,4666 h 656 L 2547,0 Z"
               transform="scale(0.015625)" />
            <path
               id="DejaVuSans-6c"
               d="m 603,4863 h 575 V 0 H 603 Z"
               transform="scale(0.015625)" />
            <path
               id="DejaVuSans-79"
               d="m 2059,-325 q -243,-625 -475,-815 -231,-191 -618,-191 H 506 v 481 h 338 q 237,0 368,113 132,112 291,531 L 1606,56 191,3500 H 800 L 1894,763 2988,3500 h 609 z"
               transform="scale(0.015625)" />
          </defs>
          <use
             xlink:href="#DejaVuSans-4d"
             id="use1607" />
          <use
             xlink:href="#DejaVuSans-4a"
             x="86.279297"
             id="use1609" />
          <use
             xlink:href="#DejaVuSans-54"
             x="115.77148"
             id="use1611" />
          <use
             xlink:href="#DejaVuSans-20"
             x="176.85547"
             id="use1613" />
          <use
             xlink:href="#DejaVuSans-4d"
             x="208.64258"
             id="use1615" />
          <use
             xlink:href="#DejaVuSans-6f"
             x="294.92188"
             id="use1617" />
          <use
             xlink:href="#DejaVuSans-76"
             x="356.10352"
             id="use1619" />
          <use
             xlink:href="#DejaVuSans-65"
             x="415.2832"
             id="use1621" />
          <use
             xlink:href="#DejaVuSans-6d"
             x="476.80664"
             id="use1623" />
          <use
             xlink:href="#DejaVuSans-65"
             x="574.21875"
             id="use1625" />
          <use
             xlink:href="#DejaVuSans-6e"
             x="635.74219"
             id="use1627" />
          <use
             xlink:href="#DejaVuSans-74"
             x="699.12109"
             id="use1629" />
          <use
             xlink:href="#DejaVuSans-20"
             x="738.33008"
             id="use1631" />
          <use
             xlink:href="#DejaVuSans-56"
             x="770.11719"
             id="use1633" />
          <use
             xlink:href="#DejaVuSans-65"
             x="830.77539"
             id="use1635" />
          <use
             xlink:href="#DejaVuSans-6c"
             x="892.29883"
             id="use1637" />
          <use
             xlink:href="#DejaVuSans-6f"
             x="920.08203"
             id="use1639" />
          <use
             xlink:href="#DejaVuSans-63"
             x="981.26367"
             id="use1641" />
          <use
             xlink:href="#DejaVuSans-69"
             x="1036.2441"
             id="use1643" />
          <use
             xlink:href="#DejaVuSans-74"
             x="1064.0273"
             id="use1645" />
          <use
             xlink:href="#DejaVuSans-79"
             x="1103.2363"
             id="use1647" />
        </g>
      </g>
    </g>
  </g>
  <defs
     id="defs1657">
    <clipPath
       id="pa90cb9081e">
      <rect
         x="54"
         y="25.92"
         width="334.79999"
         height="166.32001"
         id="rect1654" />
    </clipPath>
  </defs>
</svg>
