<?xml version="1.0" encoding="UTF-8" standalone="no"?>
<svg
   width="481.73657pt"
   height="336.55359pt"
   viewBox="0 0 481.73657 336.55359"
   version="1.1"
   id="svg972"
   sodipodi:docname="uluse_vec_mag_int.svg"
   inkscape:version="1.2 (dc2aeda, 2022-05-15)"
   xmlns:inkscape="http://www.inkscape.org/namespaces/inkscape"
   xmlns:sodipodi="http://sodipodi.sourceforge.net/DTD/sodipodi-0.dtd"
   xmlns:xlink="http://www.w3.org/1999/xlink"
   xmlns="http://www.w3.org/2000/svg"
   xmlns:svg="http://www.w3.org/2000/svg"
   xmlns:rdf="http://www.w3.org/1999/02/22-rdf-syntax-ns#"
   xmlns:cc="http://creativecommons.org/ns#"
   xmlns:dc="http://purl.org/dc/elements/1.1/">
  <sodipodi:namedview
     id="namedview974"
     pagecolor="#ffffff"
     bordercolor="#000000"
     borderopacity="0.25"
     inkscape:showpageshadow="2"
     inkscape:pageopacity="0.0"
     inkscape:pagecheckerboard="0"
     inkscape:deskcolor="#d1d1d1"
     inkscape:document-units="pt"
     showgrid="false"
     inkscape:zoom="1.4004289"
     inkscape:cx="496.63358"
     inkscape:cy="122.10545"
     inkscape:window-width="1680"
     inkscape:window-height="934"
     inkscape:window-x="0"
     inkscape:window-y="25"
     inkscape:window-maximized="1"
     inkscape:current-layer="figure_1" />
  <metadata
     id="metadata132">
    <rdf:RDF>
      <cc:Work>
        <dc:type
           rdf:resource="http://purl.org/dc/dcmitype/StillImage" />
        <dc:date>2024-01-13T19:49:03.670815</dc:date>
        <dc:format>image/svg+xml</dc:format>
        <dc:creator>
          <cc:Agent>
            <dc:title>Matplotlib v3.6.1, https://matplotlib.org/</dc:title>
          </cc:Agent>
        </dc:creator>
      </cc:Work>
    </rdf:RDF>
  </metadata>
  <defs
     id="defs136">
    <style
       type="text/css"
       id="style134">*{stroke-linejoin: round; stroke-linecap: butt}</style>
  </defs>
  <g
     id="figure_1"
     transform="translate(-11.863438,-11.081719)">
    <g
       id="axes_1">
      <g
         id="patch_2">
        <path
           d="M 35.49,121.72 H 493.2 V 25.44 H 35.49 Z"
           style="fill:#ffffff"
           id="path141" />
      </g>
      <g
         id="matplotlib.axis_1">
        <g
           id="xtick_1">
          <g
             id="line2d_1">
            <defs
               id="defs145">
              <path
                 id="m4fd2266b6c"
                 d="M 0,0 V 3.5"
                 style="stroke:#000000;stroke-width:0.8" />
            </defs>
            <g
               id="g149">
              <use
                 xlink:href="#m4fd2266b6c"
                 x="44.292114"
                 y="126.72"
                 style="stroke:#000000;stroke-width:0.8"
                 id="use147" />
            </g>
          </g>
          <g
             id="text_1">
            <!-- 0 -->
            <g
               transform="matrix(0.1,0,0,-0.1,41.110865,141.31844)"
               id="g157">
              <defs
                 id="defs153">
                <path
                   id="DejaVuSans-30"
                   d="m 2034,4250 q -487,0 -733,-480 -245,-479 -245,-1442 0,-959 245,-1439 246,-480 733,-480 491,0 736,480 246,480 246,1439 0,963 -246,1442 -245,480 -736,480 z m 0,500 q 785,0 1199,-621 414,-620 414,-1801 0,-1178 -414,-1799 -414,-620 -1199,-620 -784,0 -1198,620 -414,621 -414,1799 0,1181 414,1801 414,621 1198,621 z"
                   transform="scale(0.015625)" />
              </defs>
              <use
                 xlink:href="#DejaVuSans-30"
                 id="use155" />
            </g>
          </g>
        </g>
        <g
           id="xtick_2">
          <g
             id="line2d_2">
            <g
               id="g163">
              <use
                 xlink:href="#m4fd2266b6c"
                 x="132.31326"
                 y="126.72"
                 style="stroke:#000000;stroke-width:0.8"
                 id="use161" />
            </g>
          </g>
          <g
             id="text_2">
            <!-- 2 -->
            <g
               transform="matrix(0.1,0,0,-0.1,129.13202,141.31844)"
               id="g171">
              <defs
                 id="defs167">
                <path
                   id="DejaVuSans-32"
                   d="M 1228,531 H 3431 V 0 H 469 v 531 q 359,372 979,998 621,627 780,809 303,340 423,576 121,236 121,464 0,372 -261,606 -261,235 -680,235 -297,0 -627,-103 -329,-103 -704,-313 v 638 q 381,153 712,231 332,78 607,78 725,0 1156,-363 431,-362 431,-968 0,-288 -108,-546 -107,-257 -392,-607 -78,-91 -497,-524 Q 1991,1309 1228,531 Z"
                   transform="scale(0.015625)" />
              </defs>
              <use
                 xlink:href="#DejaVuSans-32"
                 id="use169" />
            </g>
          </g>
        </g>
        <g
           id="xtick_3">
          <g
             id="line2d_3">
            <g
               id="g177">
              <use
                 xlink:href="#m4fd2266b6c"
                 x="220.33443"
                 y="126.72"
                 style="stroke:#000000;stroke-width:0.8"
                 id="use175" />
            </g>
          </g>
          <g
             id="text_3">
            <!-- 4 -->
            <g
               transform="matrix(0.1,0,0,-0.1,217.15317,141.31844)"
               id="g185">
              <defs
                 id="defs181">
                <path
                   id="DejaVuSans-34"
                   d="M 2419,4116 825,1625 h 1594 z m -166,550 h 794 V 1625 h 666 V 1100 H 3047 V 0 H 2419 V 1100 H 313 v 609 z"
                   transform="scale(0.015625)" />
              </defs>
              <use
                 xlink:href="#DejaVuSans-34"
                 id="use183" />
            </g>
          </g>
        </g>
        <g
           id="xtick_4">
          <g
             id="line2d_4">
            <g
               id="g191">
              <use
                 xlink:href="#m4fd2266b6c"
                 x="308.35559"
                 y="126.72"
                 style="stroke:#000000;stroke-width:0.8"
                 id="use189" />
            </g>
          </g>
          <g
             id="text_4">
            <!-- 6 -->
            <g
               transform="matrix(0.1,0,0,-0.1,305.17433,141.31844)"
               id="g199">
              <defs
                 id="defs195">
                <path
                   id="DejaVuSans-36"
                   d="m 2113,2584 q -425,0 -674,-291 -248,-290 -248,-796 0,-503 248,-796 249,-292 674,-292 425,0 673,292 248,293 248,796 0,506 -248,796 -248,291 -673,291 z m 1253,1979 v -575 q -238,112 -480,171 -242,60 -480,60 -625,0 -955,-422 -329,-422 -376,-1275 184,272 462,417 279,145 613,145 703,0 1111,-427 408,-426 408,-1160 0,-719 -425,-1154 -425,-434 -1131,-434 -810,0 -1238,620 -428,621 -428,1799 0,1106 525,1764 525,658 1409,658 238,0 480,-47 242,-47 505,-140 z"
                   transform="scale(0.015625)" />
              </defs>
              <use
                 xlink:href="#DejaVuSans-36"
                 id="use197" />
            </g>
          </g>
        </g>
        <g
           id="xtick_5">
          <g
             id="line2d_5">
            <g
               id="g205">
              <use
                 xlink:href="#m4fd2266b6c"
                 x="396.37674"
                 y="126.72"
                 style="stroke:#000000;stroke-width:0.8"
                 id="use203" />
            </g>
          </g>
          <g
             id="text_5">
            <!-- 8 -->
            <g
               transform="matrix(0.1,0,0,-0.1,393.19548,141.31844)"
               id="g213">
              <defs
                 id="defs209">
                <path
                   id="DejaVuSans-38"
                   d="m 2034,2216 q -450,0 -708,-241 -257,-241 -257,-662 0,-422 257,-663 258,-241 708,-241 450,0 709,242 260,243 260,662 0,421 -258,662 -257,241 -711,241 z m -631,268 q -406,100 -633,378 -226,279 -226,679 0,559 398,884 399,325 1092,325 697,0 1094,-325 397,-325 397,-884 0,-400 -227,-679 -226,-278 -629,-378 456,-106 710,-416 255,-309 255,-755 Q 3634,634 3220,271 2806,-91 2034,-91 1263,-91 848,271 434,634 434,1313 q 0,446 256,755 257,310 713,416 z m -231,997 q 0,-362 226,-565 227,-203 636,-203 407,0 636,203 230,203 230,565 0,363 -230,566 -229,203 -636,203 -409,0 -636,-203 -226,-203 -226,-566 z"
                   transform="scale(0.015625)" />
              </defs>
              <use
                 xlink:href="#DejaVuSans-38"
                 id="use211" />
            </g>
          </g>
        </g>
        <g
           id="xtick_6">
          <g
             id="line2d_6">
            <g
               id="g219">
              <use
                 xlink:href="#m4fd2266b6c"
                 x="484.39789"
                 y="126.72"
                 style="stroke:#000000;stroke-width:0.8"
                 id="use217" />
            </g>
          </g>
          <g
             id="text_6">
            <!-- 10 -->
            <g
               transform="matrix(0.1,0,0,-0.1,478.03539,141.31844)"
               id="g229">
              <defs
                 id="defs223">
                <path
                   id="DejaVuSans-31"
                   d="M 794,531 H 1825 V 4091 L 703,3866 v 575 l 1116,225 h 631 V 531 H 3481 V 0 H 794 Z"
                   transform="scale(0.015625)" />
              </defs>
              <use
                 xlink:href="#DejaVuSans-31"
                 id="use225" />
              <use
                 xlink:href="#DejaVuSans-30"
                 x="63.623047"
                 id="use227" />
            </g>
          </g>
        </g>
      </g>
      <g
         id="matplotlib.axis_2">
        <g
           id="ytick_1">
          <g
             id="line2d_7">
            <defs
               id="defs235">
              <path
                 id="m1151748b0e"
                 d="M 0,0 H -3.5"
                 style="stroke:#000000;stroke-width:0.8" />
            </defs>
            <g
               id="g239">
              <use
                 xlink:href="#m1151748b0e"
                 x="30.49"
                 y="117.34479"
                 style="stroke:#000000;stroke-width:0.8"
                 id="use237" />
            </g>
          </g>
          <g
             id="text_7">
            <!-- 0 -->
            <g
               transform="matrix(0.1,0,0,-0.1,17.1275,121.14401)"
               id="g244">
              <use
                 xlink:href="#DejaVuSans-30"
                 id="use242" />
            </g>
          </g>
        </g>
        <g
           id="ytick_2">
          <g
             id="line2d_8">
            <g
               id="g250">
              <use
                 xlink:href="#m1151748b0e"
                 x="30.49"
                 y="88.687363"
                 style="stroke:#000000;stroke-width:0.8"
                 id="use248" />
            </g>
          </g>
          <g
             id="text_8">
            <!-- 5 -->
            <g
               transform="matrix(0.1,0,0,-0.1,17.1275,92.48658)"
               id="g258">
              <defs
                 id="defs254">
                <path
                   id="DejaVuSans-35"
                   d="M 691,4666 H 3169 V 4134 H 1269 V 2991 q 137,47 274,70 138,23 276,23 781,0 1237,-428 457,-428 457,-1159 Q 3513,744 3044,326 2575,-91 1722,-91 1428,-91 1123,-41 819,9 494,109 v 635 q 281,-153 581,-228 300,-75 634,-75 541,0 856,284 316,284 316,772 0,487 -316,771 -315,285 -856,285 -253,0 -505,-56 -251,-56 -513,-175 z"
                   transform="scale(0.015625)" />
              </defs>
              <use
                 xlink:href="#DejaVuSans-35"
                 id="use256" />
            </g>
          </g>
        </g>
        <g
           id="ytick_3">
          <g
             id="line2d_9">
            <g
               id="g264">
              <use
                 xlink:href="#m1151748b0e"
                 x="30.49"
                 y="60.029934"
                 style="stroke:#000000;stroke-width:0.8"
                 id="use262" />
            </g>
          </g>
          <g
             id="text_9">
            <!-- 10 -->
            <g
               transform="matrix(0.1,0,0,-0.1,10.765,63.829153)"
               id="g271">
              <use
                 xlink:href="#DejaVuSans-31"
                 id="use267" />
              <use
                 xlink:href="#DejaVuSans-30"
                 x="63.623047"
                 id="use269" />
            </g>
          </g>
        </g>
        <g
           id="ytick_4">
          <g
             id="line2d_10">
            <g
               id="g277">
              <use
                 xlink:href="#m1151748b0e"
                 x="30.49"
                 y="31.372507"
                 style="stroke:#000000;stroke-width:0.8"
                 id="use275" />
            </g>
          </g>
          <g
             id="text_10">
            <!-- 15 -->
            <g
               transform="matrix(0.1,0,0,-0.1,10.765,35.171725)"
               id="g284">
              <use
                 xlink:href="#DejaVuSans-31"
                 id="use280" />
              <use
                 xlink:href="#DejaVuSans-35"
                 x="63.623047"
                 id="use282" />
            </g>
          </g>
        </g>
      </g>
      <g
         id="line2d_11">
        <path
           d="m 44.292115,77.781037 0.880212,25.892093 0.880211,-31.001613 0.440106,35.699703 0.440106,-28.252387 0.440106,32.606317 0.440106,-34.830396 0.440105,23.005466 0.440106,10.74124 0.440106,-19.278672 0.440106,-26.306855 0.440105,-2.377763 0.440106,39.2451 0.440106,-4.780171 0.440106,17.205311 0.440105,-19.645429 0.440106,-38.525662 0.440106,49.651721 0.440106,-41.077564 0.440106,32.234415 0.440105,-40.447668 0.440106,0.740778 0.440106,16.541898 0.440106,39.644121 0.440105,-21.718409 0.440106,4.131245 0.440106,6.884334 0.440106,-26.606625 0.440105,32.838245 0.440106,-14.246758 0.440106,10.717358 0.440106,-3.91148 0.440106,-35.085336 0.440105,32.514324 0.440106,9.197252 0.440106,-67.254076 0.440106,8.544838 0.440105,37.488845 0.440106,-3.500494 0.440106,24.878137 0.440106,-37.747844 0.440105,1.509354 0.440106,-11.249826 0.440106,40.406246 0.440106,-12.359474 0.440106,-1.451934 0.440105,11.332474 0.440106,-12.549155 0.440106,-42.016934 0.440106,37.4953 0.440105,-44.305386 0.440106,53.43905 0.440106,12.132699 0.440106,7.50288 0.440105,-73.712188 0.440106,72.308668 0.440106,2.81213 0.440106,-79.129434 0.440106,80.168704 0.440105,-67.401296 0.440106,15.592383 0.440106,45.035393 0.440106,8.08615 0.440105,-65.127993 0.440106,54.924503 0.440106,-17.545521 0.440106,-24.812906 0.440105,-32.856099 0.440106,3.228809 0.440106,22.563019 0.440106,48.765878 0.440106,-5.107429 0.440105,-3.667807 0.440106,-25.031729 0.440106,8.104492 0.880211,-20.186057 0.440106,29.586262 0.440106,-47.044966 0.440106,-0.82328 0.440105,4.267428 0.440106,-10.768416 0.440106,78.664882 0.440106,-36.168938 0.440106,-9.569055 0.440105,42.832233 0.440106,-41.956431 0.440106,-25.98336 0.440106,71.035161 0.440105,-34.73213 0.440106,-45.801071 0.440106,55.117222 0.440106,-4.616609 0.440105,-25.01711 0.440106,3.794679 0.440106,31.321039 0.440106,-6.44598 0.440106,27.03864 0.440105,-16.562909 0.440106,-61.466133 0.440106,60.31912 0.440106,-50.155272 0.440105,69.705054 0.440106,-57.275598 0.440106,13.96485 0.440106,3.430244 0.440105,-15.519335 0.440106,-8.935118 0.440106,46.260893 0.440106,-48.836101 0.440106,15.640232 0.440105,6.663068 0.440106,-0.37354 0.440106,9.368429 0.440106,-0.427295 0.440105,3.174655 0.440106,-23.501463 0.440106,40.678001 0.440106,-2.145004 0.440105,-7.531313 0.880212,-18.97965 0.440106,17.756809 0.440106,-20.164021 0.440105,42.021687 0.440108,-26.175711 0.4401,-12.960689 0.44011,31.31169 0.44011,-28.092013 0.4401,25.091439 0.44011,1.723534 0.4401,-37.17951 0.44011,-2.652643 0.4401,50.942243 0.44011,-15.575246 0.44011,-7.729143 0.4401,2.228822 0.44011,1.312451 0.4401,5.383761 0.44011,-9.579781 0.44011,0.225543 0.4401,9.200922 0.44011,-18.517858 0.4401,-11.271803 0.44011,49.002132 0.4401,-0.45729 0.44011,-1.05158 0.4401,-30.79398 0.44011,1.802029 0.44011,11.083203 0.4401,0.587744 0.44011,-3.928062 0.4401,12.287596 0.44011,-26.37957 0.44011,25.71938 0.4401,-29.724696 0.44011,26.840916 0.4401,-0.74131 0.44011,-5.405527 0.88021,14.294507 0.44011,-22.245442 0.4401,-5.693053 0.44011,1.833511 0.4401,3.685555 0.44011,21.581449 0.4401,-0.40872 0.44011,-2.60987 0.44011,-13.238047 0.88021,15.531567 0.4401,-25.517211 0.44011,15.741125 0.44011,10.796676 0.4401,5.57534 0.44011,-25.819086 0.4401,4.522026 0.44011,-3.365895 0.4401,0.777627 0.44011,15.084398 0.4401,2.20483 0.44011,-10.260207 0.44011,14.191457 0.4401,-14.262029 0.44011,-0.866047 0.4401,13.414576 0.44011,-14.602655 0.44011,-5.475673 0.88021,17.710978 0.4401,4.20762 0.44011,-15.895674 0.44011,1.270383 0.4401,6.993891 0.44011,-8.724069 0.4401,17.260989 0.44011,1.76674 0.4401,-6.89858 0.44011,-13.150939 0.4401,15.751709 0.44011,-13.263486 0.88021,9.976426 0.44011,-9.059161 0.4401,0.549241 0.44011,15.63854 0.4401,-1.66799 0.44011,-13.04298 0.44011,-0.80243 0.4401,13.45299 0.44011,2.35485 0.4401,0.33557 0.44011,-7.64279 0.44011,5.69509 0.4401,-9.07531 0.44011,-0.83368 0.4401,8.45812 0.44011,2.76102 0.4401,-12.8042 0.44011,7.10617 0.88021,6.16492 0.44011,0.0951 0.4401,-5.04071 0.44011,-1.77878 0.4401,-2.77111 0.44011,8.36947 0.44011,-0.77629 0.4401,2.29262 0.44011,-9.51038 0.4401,3.98729 0.44011,2.37412 0.4401,-2.11082 0.44011,2.20117 0.44011,-7.55252 0.4401,-0.8719 0.44011,6.65017 0.4401,-6.94212 0.44011,4.04331 0.44011,-2.88742 0.4401,6.40457 0.44011,1.15358 0.4401,-1.24698 0.44011,-2.69601 0.4401,7.39739 0.44011,-4.79055 0.44011,-0.75729 0.4401,-6.55065 0.44011,0.67632 0.4401,5.01998 0.44011,0.93062 0.44011,1.79633 0.4401,-5.78258 0.44011,-2.862 0.4401,8.58384 0.44011,-2.75883 0.4401,-1.9429 0.44011,-5.61905 0.4401,9.76097 0.44011,-9.17183 0.44011,2.18614 0.4401,11.0029 0.44011,0.31783 0.4401,-14.41729 0.44011,13.67039 0.44011,-14.73273 0.4401,7.65447 0.44011,0.68367 0.4401,-7.58474 0.44011,9.03632 0.4401,-6.26295 0.44011,11.07771 0.44011,-3.56769 0.4401,-7.92645 0.44011,6.98916 0.4401,-5.16917 0.44011,-7.185729 0.4401,15.232719 0.44011,-2.57218 0.44011,-9.12683 0.4401,2.90426 0.44011,-5.78098 0.4401,5.23613 0.44011,-7.000049 0.4401,16.337029 0.44011,-13.04067 0.44011,9.31383 0.4401,-14.695712 0.44011,19.004212 0.4401,-2.05614 0.44011,-13.1436 0.44011,1.12278 0.4401,8.68045 0.44011,-5.73997 0.4401,-2.76857 0.44011,3.41039 0.4401,6.31222 0.44011,-3.00007 0.44011,-7.43489 0.4401,-3.959405 0.44011,10.946395 0.4401,-14.015684 0.88021,4.240191 0.44011,16.999743 0.44011,-9.97568 0.4401,-2.89485 0.44011,0.40578 0.4401,-11.294636 0.44011,4.289426 0.88021,20.40836 0.44011,-0.72901 0.4401,-15.768356 0.44011,11.837696 0.88021,-25.400431 0.44011,21.160281 0.4401,-15.616021 0.44011,-3.953618 0.4401,-0.738573 0.88021,29.681802 0.44011,-33.519178 0.44011,15.819852 0.4401,4.937746 0.44011,8.48647 0.88021,-27.141456 0.4401,26.976676 0.44011,-30.741017 0.44011,17.820033 0.4401,10.829634 0.44011,-21.515921 0.4401,-2.106282 0.44011,12.397192 0.4401,-1.506732 0.44011,-8.934744 0.44011,26.755587 0.4401,-11.786 0.44011,-26.362006 0.4401,20.817889 0.44011,3.076837 0.44011,-25.36129 0.4401,-0.913453 0.44011,34.493543 0.4401,8.48236 0.44011,-41.135283 0.4401,11.532894 0.44011,-6.803691 0.44011,18.424621 0.4401,-9.108944 0.44011,11.541143 0.4401,-29.544466 0.44011,17.268683 0.4401,23.704123 0.88022,-13.577867 0.4401,6.636937 0.44011,4.71422 0.4401,-39.683114 0.88021,43.893194 0.44011,-10.08383 0.44011,-20.425417 0.4401,2.917497 0.44011,12.78194 0.4401,-31.414835 0.44011,14.78082 0.44011,0.685464 0.88021,20.387761 0.4401,-3.60346 0.44011,-30.024997 0.4401,38.894717 0.44011,-25.773975 0.44011,3.105583 0.4401,26.422722 0.44011,-45.022677 0.4401,16.404846 0.44011,25.882711 0.4401,-16.310709 0.44011,22.470089 0.44011,-5.21805 0.4401,-41.526144 0.44011,29.654324 0.4401,-9.301306 0.44011,10.702186 0.4401,-29.087144 0.44011,21.507577 0.44011,-19.093256 0.4401,35.120103 0.44011,-36.559786 0.4401,4.787109 0.44011,22.221507 0.44011,-1.587885 0.4401,6.423595 0.44011,-1.86612 0.4401,2.45973 0.44011,-6.390966 0.4401,-31.738043 0.44011,34.769819 0.44011,-33.664405 0.88021,31.261525 0.4401,-13.637542 0.44011,27.707192 0.4401,-21.537808 0.44011,19.122158 0.44011,-1.45802 0.4401,-22.573484 0.44011,6.641879 0.88021,10.857385 0.4401,-32.735301 0.88022,27.152451 0.4401,4.46158 0.44011,-8.959607 0.4401,4.934027 0.44011,-15.979165 0.44011,7.985674 0.4401,-3.222803 0.44011,27.119874 0.4401,-25.795128 0.44011,11.250238 0.4401,3.78116 0.44011,-2.97775 0.44011,-7.831146 0.4401,18.363226 0.88021,-23.548819 0.44011,24.277049 0.4401,-30.179278 0.44011,12.314302 0.44011,0.718716 0.4401,-8.056834 0.44011,28.576124 0.4401,-22.333863 0.44011,19.609313 0.4401,-5.70225 0.44011,8.16139 0.44011,-3.77081 0.4401,-11.36083 0.44011,-0.24702 0.4401,14.42737 0.44011,-9.26038 0.44011,-16.853163 0.4401,14.560103 0.44011,-5.919132 0.4401,16.307152 0.44011,0.27178 0.4401,-2.73999 0.44011,-11.24068 0.44011,8.98803 0.4401,-13.397301 0.44011,11.790961 0.4401,-12.54178 0.44011,12.63931 0.4401,7.19175 0.44011,-15.34801 0.44011,9.03096 0.4401,-2.19541 0.44011,-0.53624 0.4401,8.99941 0.44011,-8.43623 0.4401,7.49006 0.44011,-0.78223 0.44011,-11.60065 0.4401,13.0189 0.44011,1.04991 0.4401,-4.38037 0.44011,-3.146 0.44011,-4.10157 0.4401,10.9962 0.44011,-4.63356 0.4401,-1.98018 0.88021,5.41339 0.44011,1.22138 0.44011,-9.76 0.4401,7.81853 0.44011,-0.94585 0.4401,-5.49683 0.44011,6.64402 0.4401,-4.69451 0.44011,0.7756 0.88021,6.4273 0.44011,-7.43558 0.4401,1.06814 0.44011,3.37781 0.4401,-2.19867 0.44011,-0.56925 0.44011,0.24826 0.4401,4.65571 0.44011,-4.38316 0.4401,2.93088 0.44011,-0.71668 0.44011,-1.40252 0.4401,0.0371 0.44011,4.8538 0.4401,-0.45011 0.44011,-0.77201 0.4401,0.61454 0.44011,-2.42349 0.88021,0.66293 0.44011,1.66794 0.4401,-0.12344 0.44011,-0.58948 0.4401,0.95246 0.44011,-1.98473 0.44011,2.518 0.4401,-1.67208 0.44011,0.15415 0.4401,0.95146 0.44011,-0.18607 0.4401,1.10472 0.44011,-1.92018 0.88021,0.23475 0.44011,1.36229 0.4401,-0.45097 0.44011,0.50553 0.44011,-0.63267 0.4401,0.0372 0.44011,0.33015 0.88021,-0.5225 0.4401,0.624 0.44011,-0.6389 0.44011,1.07169 0.4401,-0.78957 0.44011,0.67395 0.4401,-0.44578 0.44011,-0.16678 0.4401,0.76964 0.44011,-0.55851 0.44011,0.19328 0.4401,0.0186 0.44011,0.46833 0.4401,-0.10586 0.44011,-0.45589 0.4401,0.43785 0.44011,0.0974 0.88021,-0.16138 0.44011,-0.24207 0.4401,-0.39919 0.44011,0.68626 0.88021,-0.42679 0.88021,0.50594 0.44011,-0.31054 0.4401,-0.0661 0.44011,0.30856 0.44011,-0.34638 0.4401,0.4052 0.44011,-0.63285 0.4401,0.44781 0.44011,-0.49153 0.4401,0.32382 0.44011,0.14353 0.44011,-0.0621 0.4401,0.20488 0.44011,-0.0126 0.4401,-0.49413 0.44011,-0.0296 0.44011,-0.2551 0.88021,-0.14129 0.88021,0.15842 0.88021,0.79288 0.44011,-1.1332 0.4401,1.0014 0.44011,-0.62939 0.4401,-0.005 0.44011,0.51227 0.44011,-0.0309 0.4401,0.0994 0.44011,-0.87335 0.4401,1.17976 0.44011,-0.25283 0.4401,-1.59857 0.44011,0.71361 0.44011,0.45391 0.4401,-0.16447 0.44011,0.49144 0.4401,-1.94984 0.44011,1.52413 0.4401,-1.67124 0.44011,0.37527 0.4401,1.91247 0.44011,-0.91112 0.44011,0.36538 0.4401,-1.50147 0.44011,1.6422 0.4401,-0.64922 0.44011,-0.2541 0.44011,1.17087 0.4401,-2.20498 0.44011,0.20685 0.4401,2.01948 0.44011,-2.61078 0.44011,-1.08471 0.4401,2.45263 0.44011,0.81928 0.4401,0.28682 0.44011,-3.12815 0.4401,3.453 0.44011,-0.84789 0.4401,-1.51166 0.44011,-0.12318 0.44011,-3.24866 0.4401,0.0613 0.44011,1.9749 0.4401,0.98895 0.44011,1.60299 0.4401,0.85598 0.88022,-7.12846 0.4401,1.0141 0.44011,1.7778 0.4401,-1.54379 0.44011,4.24561 0.44011,-3.68503 0.4401,3.41097 0.44011,1.00452 0.4401,-1.6042 0.44011,-1.0156 0.4401,1.48184 0.44011,-6.84225 0.44011,2.8533 0.4401,-0.7807 0.44011,-1.86676 0.4401,7.38226 0.44011,-0.80616 0.4401,2.0918 0.44011,-2.34354 0.44011,-8.09592 0.4401,8.52584 0.44011,2.10271 0.4401,-6.50363 0.44011,-1.88025 0.88021,-5.18515 0.44011,10.08161 0.4401,-6.89889 0.44011,3.816 0.4401,-7.70488 0.44011,14.38711 0.44011,-9.27624 0.4401,-2.28312 0.44011,7.08376 0.4401,-10.76209 0.44011,14.90083 0.4401,-4.39857 0.44011,-2.08392 0.44011,-1.29912 0.4401,-9.952169 0.44011,2.970429 0.4401,14.42135 0.44011,-4.10477 0.4401,-2.18274 0.44011,-3.4557 0.44011,-8.123634 0.4401,14.178364 0.44011,-5.95608 0.4401,5.17588 0.44011,-8.40734 0.4401,-1.27226 0.44011,7.63535 0.44011,-13.752566 0.4401,6.356106 0.44011,11.46413 0.4401,-11.39263 0.44011,-0.26276 0.44011,-4.356209 0.4401,7.083549 0.44011,0.81218 0.4401,3.87971 0.44011,-14.066164 0.4401,21.127614 0.44011,-16.16219 0.44011,9.66339 0.4401,1.16083 0.44011,-13.482441 0.4401,3.056131 0.44011,-5.099057 0.4401,0.477259 0.44011,3.711508 0.44011,7.18075 0.4401,3.69127 0.44011,-7.367 0.4401,11.64302 0.44011,0.35737 0.44011,-21.191266 0.4401,1.54723 0.88021,13.261786 0.44011,-6.22216 0.4401,13.50024 0.44011,-16.956853 0.88021,12.711243 0.44011,-0.11238 0.88021,-15.527518 0.4401,8.558488 0.44011,-0.3123 0.44011,7.38877 0.4401,-9.17668 0.44011,10.72608 0.4401,-0.0721 0.44011,-2.05551 0.44011,-0.90839 0.4401,-15.319815 0.44011,18.915035 0.4401,-18.528071 0.44011,12.633251 0.4401,-4.40893 0.44011,4.20359 0.44011,8.41914 0.4401,-19.902141 0.44011,13.911921 0.4401,-12.10085 0.44011,5.73786 0.4401,-5.028721 0.44011,8.798021 0.44011,-6.36637 0.4401,1.84312 0.44011,-0.40496 0.4401,1.71193 0.44011,8.82375 0.44011,0.12949 0.4401,-9.30434 0.44011,-1.42293 0.4401,7.63598 0.44011,-2.14256 0.4401,4.79204 0.44011,-10.16546 0.44011,2.95656 0.4401,0.34214 0.44011,-0.83836 0.4401,11.36243 0.44011,-11.21234 0.4401,3.94563 0.44011,-2.35686 0.4401,-0.74794 0.44011,6.9914 0.44011,-8.0224 0.4401,10.98341 0.44011,-5.7772 0.4401,1.68137 0.44011,-5.47371 0.44011,4.79918 0.4401,1.52796 0.44011,-7.63867 0.4401,1.4407 0.44011,-0.0817 0.4401,8.3567 0.44011,-2.23072 0.44011,3.92706 0.4401,-2.87246 0.44011,-5.503 0.4401,5.80061 0.88021,1.75866 0.44011,-7.6318 0.44011,5.46949 0.4401,-1.85085 0.44011,-0.86485 0.4401,-1.66513 0.44011,2.58306 0.4401,1.4428 0.44011,0.43417 0.44011,-2.28594 0.4401,4.61041 0.44011,-0.48079 0.4401,-0.10062 0.44011,-3.97847 0.44011,3.00297 0.4401,-0.40588 0.44011,0.57685 0.4401,1.49514 0.44011,-1.53562 0.4401,0.60168 0.44011,0.29622 0.44011,-1.02177 0.4401,1.8037 0.44011,-0.003 0.4401,-1.97426 0.44011,1.61802 0.4401,-2.32716 0.44011,2.89108 0.44011,-0.54137 0.4401,-0.8256 0.44011,1.44606 0.88021,-1.54011 0.4401,1.27639 0.44011,-0.7101 0.44011,0.86039 0.4401,0.007 0.44011,-0.82445 0.4401,0.69811 0.44011,-0.68528 0.44011,0.94506 0.4401,-1.132 0.44011,0.52757 0.4401,0.12347 0.44011,-0.31556 0.4401,0.23067 0.44011,0.0396 0.44011,-0.1184 0.88021,0.62281 0.4401,-0.4152 0.44011,0.35388 0.4401,-0.12762 0.44011,0.11918 0.88021,-0.0488 1.32032,0.0558 0.4401,-0.12653 0.88022,0.11558 8.36201,0.10536 14.08338,-0.0801 0.44011,-0.0693 0.88021,0.15013 0.4401,-0.14526 1.32032,0.14871 0.44011,-0.28379 0.4401,0.19055 0.88022,0.0188 0.4401,-0.32736 0.44011,-0.0557 0.4401,0.12171 0.44011,-0.14636 0.4401,0.36647 0.44011,-0.0372 0.4401,-0.74001 0.44011,0.24793 0.44011,-0.40478 0.4401,0.38005 0.44011,-0.23635 0.4401,0.40209 0.44011,0.0753 0.4401,0.32193 0.44011,-0.54711 0.44011,-0.77476 0.88021,1.12935 0.4401,-1.29819 0.44011,0.44118 0.44011,-0.1827 0.4401,0.20886 0.44011,0.80841 0.4401,-2.41597 0.44011,1.75982 0.4401,-1.98713 0.44011,2.48303 0.44011,-1.92143 0.4401,0.74143 0.44011,1.28195 0.4401,-0.76614 0.44011,-0.49713 0.4401,-1.63626 0.44011,0.45589 0.44011,1.34274 0.4401,-2.9899 0.44011,0.008 0.4401,3.58964 0.44011,0.10046 0.4401,-5.16467 0.44011,1.73813 0.44011,-1.22275 0.4401,2.08519 0.88021,1.87999 0.44011,-1.50574 0.44011,-0.98406 0.4401,-1.55758 0.44011,2.27573 0.4401,-4.56874 0.44011,-1.06609 0.4401,7.09627 0.44011,-2.02986 0.44011,-3.82084 0.4401,6.98113 0.44011,-7.89376 0.4401,5.26528 0.44011,-3.12827 0.4401,-0.19898 0.44011,-2.18476 0.44011,1.03092 0.4401,2.7818 0.44011,-2.88831 0.4401,7.59554 0.44011,-6.7732 0.4401,6.24298 0.44011,-11.1506 0.44011,2.57555 0.4401,7.31353 0.44011,-14.46509 0.4401,7.43914 0.44011,-5.12562 0.44011,1.42893 0.4401,-4.27392 0.44011,-1.366059 0.4401,0.935544 0.44011,2.800355 0.4401,10.97327 0.44011,-14.222651 0.44011,4.161701 0.4401,2.06466 0.44011,11.28557 0.4401,-8.27876 0.44011,-13.489071 0.4401,8.503481 0.44011,-7.773844 0.44011,9.493184 0.4401,-9.140121 0.88021,7.628281 0.44011,-4.136656 0.44011,9.691316 0.4401,-9.12937 0.44011,2.92637 0.4401,8.84662 0.44011,-7.85769 0.4401,9.91754 0.44011,-4.37075 0.44011,-6.88321 0.4401,2.37043 0.44011,-5.358553 0.4401,4.095113 0.44011,-7.735374 v 0"
           clip-path="url(#p34b8fd2580)"
           style="fill:none;stroke:#1f77b4;stroke-linecap:square;stroke-opacity:0.5"
           id="path289" />
      </g>
      <g
         id="line2d_12">
        <path
           d="M 35.49,100.15033 H 493.2"
           clip-path="url(#p34b8fd2580)"
           style="fill:none;stroke:#000000;stroke-dasharray:5, 5;stroke-dashoffset:0"
           id="path292" />
      </g>
      <g
         id="line2d_13">
        <path
           d="M 35.49,111.6133 H 493.2"
           clip-path="url(#p34b8fd2580)"
           style="fill:none;stroke:#d62728;stroke-dasharray:2, 5;stroke-dashoffset:0"
           id="path295" />
      </g>
      <g
         id="line2d_14">
        <path
           d="M 35.49,94.418847 H 493.2"
           clip-path="url(#p34b8fd2580)"
           style="fill:none;stroke:#d62728;stroke-dasharray:2, 5;stroke-dashoffset:0"
           id="path298" />
      </g>
      <g
         id="patch_3">
        <path
           d="M 30.49,121.72 V 25.44"
           style="fill:none;stroke:#7f7f7f;stroke-width:0.8;stroke-linecap:square;stroke-linejoin:miter"
           id="path301" />
      </g>
      <g
         id="patch_4">
        <path
           d="M 35.49,126.72 H 493.2"
           style="fill:none;stroke:#7f7f7f;stroke-width:0.8;stroke-linecap:square;stroke-linejoin:miter"
           id="path304" />
      </g>
      <g
         id="text_11">
        <!-- Vector magnitude -->
        <g
           transform="matrix(0.11,0,0,-0.11,215.31937,19.44)"
           id="g355">
          <defs
             id="defs321">
            <path
               id="DejaVuSans-56"
               d="M 1831,0 50,4666 H 709 L 2188,738 3669,4666 h 656 L 2547,0 Z"
               transform="scale(0.015625)" />
            <path
               id="DejaVuSans-65"
               d="M 3597,1894 V 1613 H 953 q 38,-594 358,-905 320,-311 892,-311 331,0 642,81 311,81 618,244 V 178 Q 3153,47 2828,-22 2503,-91 2169,-91 1331,-91 842,396 353,884 353,1716 q 0,859 464,1363 464,505 1252,505 706,0 1117,-455 411,-454 411,-1235 z m -575,169 q -6,471 -264,752 -258,282 -683,282 -481,0 -770,-272 -289,-272 -333,-766 z"
               transform="scale(0.015625)" />
            <path
               id="DejaVuSans-63"
               d="m 3122,3366 v -538 q -244,135 -489,202 -245,67 -495,67 -560,0 -870,-355 -309,-354 -309,-995 0,-641 309,-996 310,-354 870,-354 250,0 495,67 245,67 489,202 V 134 Q 2881,22 2623,-34 2366,-91 2075,-91 1284,-91 818,406 353,903 353,1747 q 0,856 470,1346 471,491 1290,491 265,0 518,-55 253,-54 491,-163 z"
               transform="scale(0.015625)" />
            <path
               id="DejaVuSans-74"
               d="M 1172,4494 V 3500 H 2356 V 3053 H 1172 V 1153 q 0,-428 117,-550 117,-122 477,-122 h 590 V 0 H 1766 Q 1100,0 847,248 594,497 594,1153 V 3053 H 172 v 447 h 422 v 994 z"
               transform="scale(0.015625)" />
            <path
               id="DejaVuSans-6f"
               d="m 1959,3097 q -462,0 -731,-361 -269,-361 -269,-989 0,-628 267,-989 268,-361 733,-361 460,0 728,362 269,363 269,988 0,622 -269,986 -268,364 -728,364 z m 0,487 q 750,0 1178,-488 429,-487 429,-1349 Q 3566,888 3137,398 2709,-91 1959,-91 1206,-91 779,398 353,888 353,1747 q 0,862 426,1349 427,488 1180,488 z"
               transform="scale(0.015625)" />
            <path
               id="DejaVuSans-72"
               d="m 2631,2963 q -97,56 -211,82 -114,27 -251,27 -488,0 -749,-317 -261,-317 -261,-911 V 0 H 581 v 3500 h 578 v -544 q 182,319 472,473 291,155 707,155 59,0 131,-8 72,-7 159,-23 z"
               transform="scale(0.015625)" />
            <path
               id="DejaVuSans-20"
               transform="scale(0.015625)"
               d="" />
            <path
               id="DejaVuSans-6d"
               d="m 3328,2828 q 216,388 516,572 300,184 706,184 547,0 844,-383 297,-382 297,-1088 V 0 h -578 v 2094 q 0,503 -179,746 -178,244 -543,244 -447,0 -707,-297 -259,-296 -259,-809 V 0 h -578 v 2094 q 0,506 -178,748 -178,242 -550,242 -441,0 -701,-298 -259,-298 -259,-808 V 0 H 581 v 3500 h 578 v -544 q 197,322 472,475 275,153 653,153 382,0 649,-194 267,-193 395,-562 z"
               transform="scale(0.015625)" />
            <path
               id="DejaVuSans-61"
               d="m 2194,1759 q -697,0 -966,-159 -269,-159 -269,-544 0,-306 202,-486 202,-179 548,-179 479,0 768,339 289,339 289,901 v 128 z m 1147,238 V 0 H 2766 V 531 Q 2569,213 2275,61 1981,-91 1556,-91 q -537,0 -855,302 -317,302 -317,808 0,590 395,890 396,300 1180,300 h 807 v 57 q 0,397 -261,614 -261,217 -733,217 -300,0 -585,-72 -284,-72 -546,-216 v 532 q 315,122 612,182 297,61 578,61 760,0 1135,-394 375,-393 375,-1193 z"
               transform="scale(0.015625)" />
            <path
               id="DejaVuSans-67"
               d="m 2906,1791 q 0,625 -258,968 -257,344 -723,344 -462,0 -720,-344 -258,-343 -258,-968 0,-622 258,-966 258,-344 720,-344 466,0 723,344 258,344 258,966 z M 3481,434 q 0,-893 -397,-1329 -396,-436 -1215,-436 -303,0 -572,45 -269,45 -522,139 v 559 q 253,-137 500,-202 247,-66 503,-66 566,0 847,295 281,295 281,892 V 616 Q 2728,306 2450,153 2172,0 1784,0 1141,0 747,490 353,981 353,1791 q 0,812 394,1302 394,491 1037,491 388,0 666,-153 278,-153 456,-462 v 531 h 575 z"
               transform="scale(0.015625)" />
            <path
               id="DejaVuSans-6e"
               d="M 3513,2113 V 0 h -575 v 2094 q 0,497 -194,743 -194,247 -581,247 -466,0 -735,-297 -269,-296 -269,-809 V 0 H 581 v 3500 h 578 v -544 q 207,316 486,472 280,156 646,156 603,0 912,-373 310,-373 310,-1098 z"
               transform="scale(0.015625)" />
            <path
               id="DejaVuSans-69"
               d="m 603,3500 h 575 V 0 H 603 Z m 0,1363 h 575 V 4134 H 603 Z"
               transform="scale(0.015625)" />
            <path
               id="DejaVuSans-75"
               d="m 544,1381 v 2119 h 575 V 1403 q 0,-497 193,-746 194,-248 582,-248 465,0 735,297 271,297 271,810 v 1984 h 575 V 0 H 2900 V 538 Q 2691,219 2414,64 2138,-91 1772,-91 1169,-91 856,284 544,659 544,1381 Z m 1447,2203 z"
               transform="scale(0.015625)" />
            <path
               id="DejaVuSans-64"
               d="m 2906,2969 v 1894 h 575 V 0 H 2906 V 525 Q 2725,213 2448,61 2172,-91 1784,-91 1150,-91 751,415 353,922 353,1747 q 0,825 398,1331 399,506 1033,506 388,0 664,-152 277,-151 458,-463 z M 947,1747 q 0,-634 261,-995 261,-361 717,-361 456,0 718,361 263,361 263,995 0,634 -263,995 -262,361 -718,361 -456,0 -717,-361 -261,-361 -261,-995 z"
               transform="scale(0.015625)" />
          </defs>
          <use
             xlink:href="#DejaVuSans-56"
             id="use323" />
          <use
             xlink:href="#DejaVuSans-65"
             x="60.658203"
             id="use325" />
          <use
             xlink:href="#DejaVuSans-63"
             x="122.18164"
             id="use327" />
          <use
             xlink:href="#DejaVuSans-74"
             x="177.16211"
             id="use329" />
          <use
             xlink:href="#DejaVuSans-6f"
             x="216.37109"
             id="use331" />
          <use
             xlink:href="#DejaVuSans-72"
             x="277.55273"
             id="use333" />
          <use
             xlink:href="#DejaVuSans-20"
             x="318.66602"
             id="use335" />
          <use
             xlink:href="#DejaVuSans-6d"
             x="350.45312"
             id="use337" />
          <use
             xlink:href="#DejaVuSans-61"
             x="447.86523"
             id="use339" />
          <use
             xlink:href="#DejaVuSans-67"
             x="509.14453"
             id="use341" />
          <use
             xlink:href="#DejaVuSans-6e"
             x="572.62109"
             id="use343" />
          <use
             xlink:href="#DejaVuSans-69"
             x="636"
             id="use345" />
          <use
             xlink:href="#DejaVuSans-74"
             x="663.7832"
             id="use347" />
          <use
             xlink:href="#DejaVuSans-75"
             x="702.99219"
             id="use349" />
          <use
             xlink:href="#DejaVuSans-64"
             x="766.37109"
             id="use351" />
          <use
             xlink:href="#DejaVuSans-65"
             x="829.84766"
             id="use353" />
        </g>
      </g>
    </g>
    <g
       id="axes_2">
      <g
         id="patch_5">
        <path
           d="M 35.49,217.38 H 493.2 V 169.24 H 35.49 Z"
           style="fill:#ffffff"
           id="path359" />
      </g>
      <g
         id="matplotlib.axis_3">
        <g
           id="xtick_7">
          <g
             id="line2d_15">
            <g
               id="g364">
              <use
                 xlink:href="#m4fd2266b6c"
                 x="44.292114"
                 y="222.38"
                 style="stroke:#000000;stroke-width:0.8"
                 id="use362" />
            </g>
          </g>
          <g
             id="text_12">
            <!-- 0 -->
            <g
               transform="matrix(0.1,0,0,-0.1,41.110865,236.97844)"
               id="g369">
              <use
                 xlink:href="#DejaVuSans-30"
                 id="use367" />
            </g>
          </g>
        </g>
        <g
           id="xtick_8">
          <g
             id="line2d_16">
            <g
               id="g375">
              <use
                 xlink:href="#m4fd2266b6c"
                 x="132.31326"
                 y="222.38"
                 style="stroke:#000000;stroke-width:0.8"
                 id="use373" />
            </g>
          </g>
          <g
             id="text_13">
            <!-- 2 -->
            <g
               transform="matrix(0.1,0,0,-0.1,129.13202,236.97844)"
               id="g380">
              <use
                 xlink:href="#DejaVuSans-32"
                 id="use378" />
            </g>
          </g>
        </g>
        <g
           id="xtick_9">
          <g
             id="line2d_17">
            <g
               id="g386">
              <use
                 xlink:href="#m4fd2266b6c"
                 x="220.33443"
                 y="222.38"
                 style="stroke:#000000;stroke-width:0.8"
                 id="use384" />
            </g>
          </g>
          <g
             id="text_14">
            <!-- 4 -->
            <g
               transform="matrix(0.1,0,0,-0.1,217.15317,236.97844)"
               id="g391">
              <use
                 xlink:href="#DejaVuSans-34"
                 id="use389" />
            </g>
          </g>
        </g>
        <g
           id="xtick_10">
          <g
             id="line2d_18">
            <g
               id="g397">
              <use
                 xlink:href="#m4fd2266b6c"
                 x="308.35559"
                 y="222.38"
                 style="stroke:#000000;stroke-width:0.8"
                 id="use395" />
            </g>
          </g>
          <g
             id="text_15">
            <!-- 6 -->
            <g
               transform="matrix(0.1,0,0,-0.1,305.17433,236.97844)"
               id="g402">
              <use
                 xlink:href="#DejaVuSans-36"
                 id="use400" />
            </g>
          </g>
        </g>
        <g
           id="xtick_11">
          <g
             id="line2d_19">
            <g
               id="g408">
              <use
                 xlink:href="#m4fd2266b6c"
                 x="396.37674"
                 y="222.38"
                 style="stroke:#000000;stroke-width:0.8"
                 id="use406" />
            </g>
          </g>
          <g
             id="text_16">
            <!-- 8 -->
            <g
               transform="matrix(0.1,0,0,-0.1,393.19548,236.97844)"
               id="g413">
              <use
                 xlink:href="#DejaVuSans-38"
                 id="use411" />
            </g>
          </g>
        </g>
        <g
           id="xtick_12">
          <g
             id="line2d_20">
            <g
               id="g419">
              <use
                 xlink:href="#m4fd2266b6c"
                 x="484.39789"
                 y="222.38"
                 style="stroke:#000000;stroke-width:0.8"
                 id="use417" />
            </g>
          </g>
          <g
             id="text_17">
            <!-- 10 -->
            <g
               transform="matrix(0.1,0,0,-0.1,478.03539,236.97844)"
               id="g426">
              <use
                 xlink:href="#DejaVuSans-31"
                 id="use422" />
              <use
                 xlink:href="#DejaVuSans-30"
                 x="63.623047"
                 id="use424" />
            </g>
          </g>
        </g>
      </g>
      <g
         id="matplotlib.axis_4">
        <g
           id="ytick_5">
          <g
             id="line2d_21">
            <g
               id="g433">
              <use
                 xlink:href="#m1151748b0e"
                 x="30.49"
                 y="215.19182"
                 style="stroke:#000000;stroke-width:0.8"
                 id="use431" />
            </g>
          </g>
          <g
             id="text_18">
            <!-- 0 -->
            <g
               transform="matrix(0.1,0,0,-0.1,17.1275,218.99104)"
               id="g438">
              <use
                 xlink:href="#DejaVuSans-30"
                 id="use436" />
            </g>
          </g>
        </g>
        <g
           id="ytick_6">
          <g
             id="line2d_22">
            <g
               id="g444">
              <use
                 xlink:href="#m1151748b0e"
                 x="30.49"
                 y="186.53477"
                 style="stroke:#000000;stroke-width:0.8"
                 id="use442" />
            </g>
          </g>
          <g
             id="text_19">
            <!-- 10 -->
            <g
               transform="matrix(0.1,0,0,-0.1,10.765,190.33399)"
               id="g451">
              <use
                 xlink:href="#DejaVuSans-31"
                 id="use447" />
              <use
                 xlink:href="#DejaVuSans-30"
                 x="63.623047"
                 id="use449" />
            </g>
          </g>
        </g>
      </g>
      <g
         id="line2d_23">
        <path
           d="m 44.292115,195.4102 0.440106,7.29361 0.440106,12.48801 0.440106,-15.35548 0.440105,-6.98086 0.440106,22.33634 0.440106,-18.61274 0.440106,18.61274 0.440106,-19.72476 0.440105,19.72476 h 0.440106 l 0.880212,-25.64409 0.440105,-1.18887 0.440106,26.83296 0.440106,-9.60072 0.440106,9.60072 0.440105,-10.82076 0.440106,-19.26258 0.440106,30.08334 0.440106,-25.79632 0.440106,16.117 0.440105,-20.22357 0.440106,0.37038 0.440106,8.27084 0.440106,21.26167 0.440105,-12.29893 0.440106,2.0656 0.440106,10.23333 0.440106,-20.09435 0.440105,20.09435 0.440106,-10.79873 0.440106,10.79873 h 0.440106 l 0.440106,-24.93827 0.440105,16.25695 0.440106,8.68132 0.440106,-37.70935 0.440106,4.27236 0.440105,18.74418 0.440106,-1.75023 0.440106,16.44304 0.440106,-22.87781 0.440105,0.75467 0.440106,-5.62484 0.440106,27.74798 0.440106,-13.72478 0.440106,-0.72596 0.440105,5.66617 0.440106,-6.2745 0.440106,-21.00819 0.440106,18.7474 0.440105,-22.1524 0.440106,26.71918 0.440106,12.75308 h 0.440106 l 0.440105,-39.79103 0.440106,39.79103 h 0.440106 l 0.440106,-41.79532 0.440106,41.79532 0.440105,-35.4117 0.440106,7.79609 0.440106,27.61561 h 0.440106 l 0.440105,-33.61876 0.440106,33.61876 1.320317,-43.76364 0.440106,1.61438 0.440106,11.28137 0.440106,30.86789 0.440106,-9.03896 0.440105,-1.83388 0.440106,-12.5157 0.440106,4.0522 0.880211,-10.0929 0.440106,14.79294 0.440106,-23.52218 0.440106,-0.41163 0.440105,2.13369 0.440106,-5.38414 0.440106,41.82056 0.440106,-20.57287 0.440106,-4.78446 0.440105,25.35733 0.440106,-24.91944 0.440106,-12.99151 0.440106,37.91095 0.880211,-42.65991 0.440106,27.55825 0.440106,-2.30827 0.440105,-12.50839 0.440106,1.89731 0.440106,15.66032 0.440106,-3.22295 0.440106,15.58364 0.440105,-10.34584 0.440106,-30.73267 0.440106,30.15917 0.440106,-25.07731 0.440105,35.99665 0.440106,-29.782 0.440106,6.98233 0.440106,1.7151 0.440105,-7.75957 0.440106,-4.4675 0.440106,23.13015 0.440106,-24.41773 0.440106,7.82001 0.440105,3.33149 0.440106,-0.18677 0.440106,4.68416 0.440106,-0.21365 0.440105,1.58731 0.440106,-11.75058 0.440106,20.33873 0.440106,-1.07248 0.440105,-3.76561 0.880212,-9.4897 0.440106,8.87829 0.440106,-10.08188 0.440105,24.5199 0.440108,-16.59702 0.4401,-6.48026 0.44011,23.07728 0.44011,-21.46746 0.4401,12.54555 0.44011,8.92191 0.4401,-26.64966 0.44011,-1.3263 0.4401,27.97596 0.44011,-10.2927 0.44011,-3.86452 0.4401,1.1144 0.44011,0.65621 0.4401,2.69185 0.44011,-4.78983 0.44011,0.11277 0.4401,4.6004 0.44011,-9.25881 0.4401,-5.63582 0.44011,24.66605 h 0.88021 l 0.4401,-16.31652 0.44011,0.901 0.44011,5.54153 0.4401,0.29387 0.44011,-1.96401 0.4401,11.54413 0.44011,-18.59002 0.44011,18.59002 0.4401,-20.59265 0.44011,20.59265 h 0.4401 l 0.44011,-10.24575 0.4401,10.24575 h 0.44011 l 0.44011,-14.22117 0.4401,-2.84648 0.44011,0.91674 0.4401,1.84275 0.44011,14.30816 h 0.88021 l 0.44011,-11.64579 0.4401,11.64579 h 0.44011 l 0.4401,-16.63854 0.88022,16.63854 h 0.4401 l 0.44011,-13.49156 0.4401,2.26099 0.44011,-1.68293 0.4401,0.38881 0.44011,12.52469 h 0.4401 l 0.44011,-9.01023 0.44011,9.01023 0.4401,-9.04551 0.44011,-0.43302 0.4401,9.47853 0.44011,-10.07256 0.44011,-2.7378 0.4401,12.81036 h 0.88021 l 0.44011,-9.79894 0.44011,0.63518 0.4401,9.16376 0.44011,-10.02883 0.4401,10.02883 h 0.88021 l 0.44011,-10.53972 0.4401,10.53972 0.44011,-9.29563 0.44011,9.29563 h 0.4401 l 0.44011,-8.837 0.4401,8.837 h 31.24751 l 0.44011,-8.96944 0.4401,8.96944 h 1.32032 l 0.44011,-8.64095 0.4401,8.64095 0.44011,-9.5229 0.4401,9.5229 h 0.88022 l 0.4401,-10.56565 0.44011,10.56565 h 0.4401 l 0.44011,-8.66344 0.44011,8.66344 h 3.08074 l 0.4401,-10.35195 0.44011,10.35195 0.4401,-11.88657 0.88021,2.12007 0.44011,9.7665 h 1.32032 l 0.4401,-13.14628 0.44011,2.14468 0.4401,11.0016 h 0.88022 l 0.4401,-9.04613 0.44011,9.04613 0.4401,-10.13111 0.44011,-5.69629 0.44011,15.8274 0.4401,-13.05531 0.44011,-1.97678 0.4401,-0.36928 0.44011,15.40137 h 0.4401 l 0.44011,-17.32004 0.88021,17.32004 h 0.44011 l 0.4401,-9.95493 0.44011,-6.31382 0.4401,16.26875 0.44011,-18.15089 0.88021,18.15089 0.44011,-14.58407 0.4401,-1.05312 0.44011,6.19851 0.4401,-0.75335 0.44011,-4.46732 0.44011,14.65935 h 0.4401 l 0.44011,-20.35548 0.88021,20.35548 0.44011,-21.08875 0.4401,-0.45672 0.44011,21.54547 h 0.4401 l 0.44011,-20.62518 0.4401,5.76637 0.44011,-3.4018 0.44011,9.21219 0.4401,-4.55441 0.44011,13.60283 0.4401,-22.60437 0.44011,8.63423 0.4401,13.97014 h 0.44011 l 0.44011,-8.90708 0.4401,8.90708 h 0.44011 l 0.4401,-23.07288 0.88021,23.07288 h 0.44011 l 0.44011,-16.38099 0.4401,1.45873 0.44011,14.92226 0.4401,-24.23858 0.44011,7.39031 0.44011,0.34273 0.4401,4.66171 0.44011,11.84383 h 0.4401 l 0.44011,-23.12581 0.4401,23.12581 0.44011,-16.56552 0.44011,1.55277 0.4401,15.01275 0.44011,-24.31261 0.4401,8.20232 0.44011,16.11029 0.4401,-11.32435 0.44011,11.32435 h 0.44011 l 0.4401,-23.46124 0.44011,14.82696 0.4401,-4.65059 0.44011,13.28487 0.4401,-22.47723 0.44011,10.75365 0.44011,-9.5465 0.4401,21.27008 0.44011,-21.98992 0.4401,2.39353 0.44011,19.59639 0.44011,-9.27972 0.4401,9.27972 h 0.88021 l 0.44011,-8.9666 0.4401,-15.86881 0.44011,24.83541 0.44011,-24.28271 0.88021,15.63055 0.4401,-6.81868 0.44011,15.47084 0.4401,-12.38619 0.44011,12.38619 h 0.44011 l 0.4401,-14.84083 0.44011,3.3209 0.4401,2.42744 0.44011,9.09249 0.4401,-22.45875 1.32032,22.45875 0.44011,-11.13168 0.4401,2.46698 0.44011,-7.98948 0.44011,3.99278 0.4401,-1.61138 0.44011,14.27278 0.4401,-13.61041 0.44011,13.61041 h 0.88021 l 0.44011,-11.49919 0.4401,11.49919 h 0.44011 l 0.4401,-14.09195 0.44011,14.09195 0.4401,-17.04303 0.44011,6.15707 0.44011,0.35936 0.4401,-4.02837 0.44011,14.55497 0.4401,-11.43388 0.44011,11.43388 h 3.08074 l 0.44011,-13.93203 0.4401,13.93203 0.44011,-9.61161 0.4401,9.61161 h 1.76043 l 0.4401,-10.5171 0.44011,10.5171 0.4401,-10.8925 0.44011,10.8925 h 0.4401 l 0.44011,-8.65101 0.44011,8.65101 h 88.46126 l 0.4401,-9.08648 0.44011,9.08648 h 1.76042 l 0.44011,-9.32401 0.4401,9.32401 h 2.20053 l 0.44011,-10.52332 0.4401,10.52332 h 1.32032 l 0.44011,-9.61901 0.4401,9.61901 h 0.88021 l 0.44011,-10.76436 0.4401,10.76436 h 1.32032 l 0.44011,-9.61077 0.4401,9.61077 0.44011,-10.63222 0.4401,0.23863 0.44011,10.39359 h 2.20053 l 0.44011,-11.38075 0.4401,0.7736 0.44011,10.60715 h 1.32031 l 0.44011,-8.81567 0.44011,8.81567 h 1.32031 l 0.44011,-10.27998 0.4401,10.27998 h 3.08075 l 0.4401,-10.8657 0.44011,10.8657 0.4401,-10.67222 0.44011,10.67222 h 1.32032 l 0.4401,-10.19977 0.44011,10.19977 0.4401,-9.29424 0.44011,9.29424 0.4401,-8.93968 0.44011,8.93968 h 103.86496 l 0.44011,-9.21229 0.4401,0.46777 0.44011,8.74452 h 0.4401 l 0.44011,-8.96903 0.44011,8.96903 h 1.32031 l 0.44011,-11.09696 0.4401,11.09696 0.44011,-10.73214 0.44011,10.73214 0.4401,-10.55561 0.44011,1.77029 0.4401,8.78532 0.44011,-8.80982 0.44011,8.80982 h 3.52084 l 0.44011,-8.73347 0.4401,8.73347 0.44011,-10.55358 v 0"
           clip-path="url(#pf9b5165986)"
           style="fill:none;stroke:#000000;stroke-linecap:square;stroke-opacity:0.25"
           id="path456" />
      </g>
      <g
         id="line2d_24">
        <path
           d="m 44.292115,195.4102 2.200529,2.29126 2.200529,-0.55947 2.200529,-0.23693 4.401058,-1.72341 2.200528,0.47207 2.200529,0.79161 2.200529,-1.63021 2.200529,-0.3558 2.200529,1.27903 2.200529,-1.49548 2.200529,-3.41864 2.200528,-1.17072 2.200529,-1.75829 2.200529,-0.83615 4.401058,-0.006 2.200529,0.42292 2.200528,1.47829 2.200529,0.37415 2.200529,-0.86334 2.200529,2.28117 2.200529,0.4203 2.200529,1.72748 2.200529,-0.25622 2.200533,1.4818 2.20052,0.50145 2.20053,3.23033 2.20053,0.13301 2.20053,0.63361 2.20053,1.48036 2.20053,0.97868 2.20053,-1.00589 2.20053,0.8469 2.20053,0.48657 2.20052,-0.044 2.20053,0.98328 2.20053,1.15987 2.20053,0.53778 2.20053,0.37216 2.20053,0.95205 2.20053,-0.17726 2.20053,0.39216 2.20052,-0.0646 2.20053,0.60899 2.20053,9.06631 h 19.80476 l 2.20053,-8.96944 2.20053,-0.075 2.20053,-0.38031 2.20053,0.15226 h 2.20053 l 4.40105,-1.47469 2.20053,0.15814 4.40106,-1.93529 2.20053,-0.44195 4.40106,-0.42776 2.20053,-0.77356 2.20052,-0.57975 2.20053,-0.77265 2.20053,0.22367 2.20053,-1.05438 2.20053,-0.3099 2.20053,0.37029 2.20053,-0.61893 2.20053,-0.32553 2.20052,0.0442 2.20053,-0.13686 2.20053,0.53862 2.20053,-0.0942 2.20053,0.48802 4.40106,2.18583 2.20053,-0.0192 2.20053,1.2829 2.20052,-0.50475 2.20053,0.0939 2.20053,0.36472 2.20053,-0.0726 2.20053,0.30422 2.20053,1.21567 2.20053,0.82348 h 2.20053 l 2.20053,0.8028 2.20052,-0.10215 2.20053,1.36919 2.20053,8.65101 h 74.81798 l 2.20053,-9.08648 h 2.20053 l 2.20053,-0.11876 2.20053,-0.43936 2.20053,0.006 2.20053,-0.41947 4.40105,-0.19954 2.20053,-0.17248 4.40106,0.18396 2.20053,-0.0252 2.20053,-0.16602 2.20053,0.27025 4.40106,0.17234 h 2.20052 l 2.20053,0.51642 2.20053,0.36094 2.20053,9.11696 h 92.42221 l 2.20053,-8.97528 2.20053,-0.53042 2.20053,-0.22228 2.20053,0.11477 h 2.20053 v 0"
           clip-path="url(#pf9b5165986)"
           style="fill:none;stroke:#000000;stroke-linecap:square"
           id="path459" />
      </g>
      <g
         id="patch_6">
        <path
           d="M 30.49,217.38 V 169.24"
           style="fill:none;stroke:#7f7f7f;stroke-width:0.8;stroke-linecap:square;stroke-linejoin:miter"
           id="path462" />
      </g>
      <g
         id="patch_7">
        <path
           d="M 35.49,222.38 H 493.2"
           style="fill:none;stroke:#7f7f7f;stroke-width:0.8;stroke-linecap:square;stroke-linejoin:miter"
           id="path465" />
      </g>
      <g
         id="text_20">
        <!-- Instantaneous and Average inensity of use from u1 -->
        <g
           transform="matrix(0.11,0,0,-0.11,123.57164,163.24)"
           id="g574">
          <defs
             id="defs474">
            <path
               id="DejaVuSans-49"
               d="m 628,4666 h 631 V 0 H 628 Z"
               transform="scale(0.015625)" />
            <path
               id="DejaVuSans-73"
               d="m 2834,3397 v -544 q -243,125 -506,187 -262,63 -544,63 -428,0 -642,-131 -214,-131 -214,-394 0,-200 153,-314 153,-114 616,-217 l 197,-44 q 612,-131 870,-370 258,-239 258,-667 0,-488 -386,-773 Q 2250,-91 1575,-91 1294,-91 989,-36 684,19 347,128 v 594 q 319,-166 628,-249 309,-82 613,-82 406,0 624,139 219,139 219,392 0,234 -158,359 -157,125 -692,241 l -200,47 q -534,112 -772,345 -237,233 -237,639 0,494 350,762 350,269 994,269 318,0 599,-47 282,-46 519,-140 z"
               transform="scale(0.015625)" />
            <path
               id="DejaVuSans-41"
               d="M 2188,4044 1331,1722 h 1716 z m -357,622 h 716 L 4325,0 H 3669 L 3244,1197 H 1141 L 716,0 H 50 Z"
               transform="scale(0.015625)" />
            <path
               id="DejaVuSans-76"
               d="M 191,3500 H 800 L 1894,563 2988,3500 h 609 L 2284,0 h -781 z"
               transform="scale(0.015625)" />
            <path
               id="DejaVuSans-79"
               d="m 2059,-325 q -243,-625 -475,-815 -231,-191 -618,-191 H 506 v 481 h 338 q 237,0 368,113 132,112 291,531 L 1606,56 191,3500 H 800 L 1894,763 2988,3500 h 609 z"
               transform="scale(0.015625)" />
            <path
               id="DejaVuSans-66"
               d="m 2375,4863 v -479 h -550 q -309,0 -430,-125 -120,-125 -120,-450 v -309 h 947 V 3053 H 1275 V 0 H 697 V 3053 H 147 v 447 h 550 v 244 q 0,584 272,851 272,268 862,268 z"
               transform="scale(0.015625)" />
          </defs>
          <use
             xlink:href="#DejaVuSans-49"
             id="use476" />
          <use
             xlink:href="#DejaVuSans-6e"
             x="29.492188"
             id="use478" />
          <use
             xlink:href="#DejaVuSans-73"
             x="92.871094"
             id="use480" />
          <use
             xlink:href="#DejaVuSans-74"
             x="144.9707"
             id="use482" />
          <use
             xlink:href="#DejaVuSans-61"
             x="184.17969"
             id="use484" />
          <use
             xlink:href="#DejaVuSans-6e"
             x="245.45898"
             id="use486" />
          <use
             xlink:href="#DejaVuSans-74"
             x="308.83789"
             id="use488" />
          <use
             xlink:href="#DejaVuSans-61"
             x="348.04688"
             id="use490" />
          <use
             xlink:href="#DejaVuSans-6e"
             x="409.32617"
             id="use492" />
          <use
             xlink:href="#DejaVuSans-65"
             x="472.70508"
             id="use494" />
          <use
             xlink:href="#DejaVuSans-6f"
             x="534.22852"
             id="use496" />
          <use
             xlink:href="#DejaVuSans-75"
             x="595.41016"
             id="use498" />
          <use
             xlink:href="#DejaVuSans-73"
             x="658.78906"
             id="use500" />
          <use
             xlink:href="#DejaVuSans-20"
             x="710.88867"
             id="use502" />
          <use
             xlink:href="#DejaVuSans-61"
             x="742.67578"
             id="use504" />
          <use
             xlink:href="#DejaVuSans-6e"
             x="803.95508"
             id="use506" />
          <use
             xlink:href="#DejaVuSans-64"
             x="867.33398"
             id="use508" />
          <use
             xlink:href="#DejaVuSans-20"
             x="930.81055"
             id="use510" />
          <use
             xlink:href="#DejaVuSans-41"
             x="962.59766"
             id="use512" />
          <use
             xlink:href="#DejaVuSans-76"
             x="1025.1309"
             id="use514" />
          <use
             xlink:href="#DejaVuSans-65"
             x="1084.3105"
             id="use516" />
          <use
             xlink:href="#DejaVuSans-72"
             x="1145.834"
             id="use518" />
          <use
             xlink:href="#DejaVuSans-61"
             x="1186.9473"
             id="use520" />
          <use
             xlink:href="#DejaVuSans-67"
             x="1248.2266"
             id="use522" />
          <use
             xlink:href="#DejaVuSans-65"
             x="1311.7031"
             id="use524" />
          <use
             xlink:href="#DejaVuSans-20"
             x="1373.2266"
             id="use526" />
          <use
             xlink:href="#DejaVuSans-69"
             x="1405.0137"
             id="use528" />
          <use
             xlink:href="#DejaVuSans-6e"
             x="1432.7969"
             id="use530" />
          <use
             xlink:href="#DejaVuSans-65"
             x="1496.1758"
             id="use532" />
          <use
             xlink:href="#DejaVuSans-6e"
             x="1557.6992"
             id="use534" />
          <use
             xlink:href="#DejaVuSans-73"
             x="1621.0781"
             id="use536" />
          <use
             xlink:href="#DejaVuSans-69"
             x="1673.1777"
             id="use538" />
          <use
             xlink:href="#DejaVuSans-74"
             x="1700.9609"
             id="use540" />
          <use
             xlink:href="#DejaVuSans-79"
             x="1740.1699"
             id="use542" />
          <use
             xlink:href="#DejaVuSans-20"
             x="1799.3496"
             id="use544" />
          <use
             xlink:href="#DejaVuSans-6f"
             x="1831.1367"
             id="use546" />
          <use
             xlink:href="#DejaVuSans-66"
             x="1892.3184"
             id="use548" />
          <use
             xlink:href="#DejaVuSans-20"
             x="1927.5234"
             id="use550" />
          <use
             xlink:href="#DejaVuSans-75"
             x="1959.3105"
             id="use552" />
          <use
             xlink:href="#DejaVuSans-73"
             x="2022.6895"
             id="use554" />
          <use
             xlink:href="#DejaVuSans-65"
             x="2074.7891"
             id="use556" />
          <use
             xlink:href="#DejaVuSans-20"
             x="2136.3125"
             id="use558" />
          <use
             xlink:href="#DejaVuSans-66"
             x="2168.0996"
             id="use560" />
          <use
             xlink:href="#DejaVuSans-72"
             x="2203.3047"
             id="use562" />
          <use
             xlink:href="#DejaVuSans-6f"
             x="2242.168"
             id="use564" />
          <use
             xlink:href="#DejaVuSans-6d"
             x="2303.3496"
             id="use566" />
          <use
             xlink:href="#DejaVuSans-20"
             x="2400.7617"
             id="use568" />
          <use
             xlink:href="#DejaVuSans-75"
             x="2432.5488"
             id="use570" />
          <use
             xlink:href="#DejaVuSans-31"
             x="2495.9277"
             id="use572" />
        </g>
      </g>
      <g
         id="legend_1">
        <g
           id="line2d_25">
          <path
             d="m 387.79844,182.33844 h 10 10"
             style="fill:none;stroke:#000000;stroke-linecap:square;stroke-opacity:0.25"
             id="path577" />
        </g>
        <g
           id="text_21">
          <!-- Inst. Intensity -->
          <g
             transform="matrix(0.1,0,0,-0.1,415.79844,185.83844)"
             id="g613">
            <defs
               id="defs581">
              <path
                 id="DejaVuSans-2e"
                 d="m 684,794 h 660 V 0 H 684 Z"
                 transform="scale(0.015625)" />
            </defs>
            <use
               xlink:href="#DejaVuSans-49"
               id="use583" />
            <use
               xlink:href="#DejaVuSans-6e"
               x="29.492188"
               id="use585" />
            <use
               xlink:href="#DejaVuSans-73"
               x="92.871094"
               id="use587" />
            <use
               xlink:href="#DejaVuSans-74"
               x="144.9707"
               id="use589" />
            <use
               xlink:href="#DejaVuSans-2e"
               x="184.17969"
               id="use591" />
            <use
               xlink:href="#DejaVuSans-20"
               x="215.9668"
               id="use593" />
            <use
               xlink:href="#DejaVuSans-49"
               x="247.75391"
               id="use595" />
            <use
               xlink:href="#DejaVuSans-6e"
               x="277.24609"
               id="use597" />
            <use
               xlink:href="#DejaVuSans-74"
               x="340.625"
               id="use599" />
            <use
               xlink:href="#DejaVuSans-65"
               x="379.83398"
               id="use601" />
            <use
               xlink:href="#DejaVuSans-6e"
               x="441.35742"
               id="use603" />
            <use
               xlink:href="#DejaVuSans-73"
               x="504.73633"
               id="use605" />
            <use
               xlink:href="#DejaVuSans-69"
               x="556.83594"
               id="use607" />
            <use
               xlink:href="#DejaVuSans-74"
               x="584.61914"
               id="use609" />
            <use
               xlink:href="#DejaVuSans-79"
               x="623.82812"
               id="use611" />
          </g>
        </g>
        <g
           id="line2d_26">
          <path
             d="m 387.79844,197.01656 h 10 10"
             style="fill:none;stroke:#000000;stroke-linecap:square"
             id="path616" />
        </g>
        <g
           id="text_22">
          <!-- Avg. Intensity -->
          <g
             transform="matrix(0.1,0,0,-0.1,415.79844,200.51656)"
             id="g647">
            <use
               xlink:href="#DejaVuSans-41"
               id="use619" />
            <use
               xlink:href="#DejaVuSans-76"
               x="62.533203"
               id="use621" />
            <use
               xlink:href="#DejaVuSans-67"
               x="121.71289"
               id="use623" />
            <use
               xlink:href="#DejaVuSans-2e"
               x="185.18945"
               id="use625" />
            <use
               xlink:href="#DejaVuSans-20"
               x="216.97656"
               id="use627" />
            <use
               xlink:href="#DejaVuSans-49"
               x="248.76367"
               id="use629" />
            <use
               xlink:href="#DejaVuSans-6e"
               x="278.25586"
               id="use631" />
            <use
               xlink:href="#DejaVuSans-74"
               x="341.63477"
               id="use633" />
            <use
               xlink:href="#DejaVuSans-65"
               x="380.84375"
               id="use635" />
            <use
               xlink:href="#DejaVuSans-6e"
               x="442.36719"
               id="use637" />
            <use
               xlink:href="#DejaVuSans-73"
               x="505.74609"
               id="use639" />
            <use
               xlink:href="#DejaVuSans-69"
               x="557.8457"
               id="use641" />
            <use
               xlink:href="#DejaVuSans-74"
               x="585.62891"
               id="use643" />
            <use
               xlink:href="#DejaVuSans-79"
               x="624.83789"
               id="use645" />
          </g>
        </g>
      </g>
    </g>
    <g
       id="axes_3">
      <g
         id="patch_8">
        <path
           d="M 35.49,313.04 H 493.2 V 264.9 H 35.49 Z"
           style="fill:#ffffff"
           id="path652" />
      </g>
      <g
         id="matplotlib.axis_5">
        <g
           id="xtick_13">
          <g
             id="line2d_27">
            <g
               id="g657">
              <use
                 xlink:href="#m4fd2266b6c"
                 x="44.292114"
                 y="318.04001"
                 style="stroke:#000000;stroke-width:0.8"
                 id="use655" />
            </g>
          </g>
          <g
             id="text_23">
            <!-- 0 -->
            <g
               transform="matrix(0.1,0,0,-0.1,41.110865,332.63844)"
               id="g662">
              <use
                 xlink:href="#DejaVuSans-30"
                 id="use660" />
            </g>
          </g>
        </g>
        <g
           id="xtick_14">
          <g
             id="line2d_28">
            <g
               id="g668">
              <use
                 xlink:href="#m4fd2266b6c"
                 x="132.31326"
                 y="318.04001"
                 style="stroke:#000000;stroke-width:0.8"
                 id="use666" />
            </g>
          </g>
          <g
             id="text_24">
            <!-- 2 -->
            <g
               transform="matrix(0.1,0,0,-0.1,129.13202,332.63844)"
               id="g673">
              <use
                 xlink:href="#DejaVuSans-32"
                 id="use671" />
            </g>
          </g>
        </g>
        <g
           id="xtick_15">
          <g
             id="line2d_29">
            <g
               id="g679">
              <use
                 xlink:href="#m4fd2266b6c"
                 x="220.33443"
                 y="318.04001"
                 style="stroke:#000000;stroke-width:0.8"
                 id="use677" />
            </g>
          </g>
          <g
             id="text_25">
            <!-- 4 -->
            <g
               transform="matrix(0.1,0,0,-0.1,217.15317,332.63844)"
               id="g684">
              <use
                 xlink:href="#DejaVuSans-34"
                 id="use682" />
            </g>
          </g>
        </g>
        <g
           id="xtick_16">
          <g
             id="line2d_30">
            <g
               id="g690">
              <use
                 xlink:href="#m4fd2266b6c"
                 x="308.35559"
                 y="318.04001"
                 style="stroke:#000000;stroke-width:0.8"
                 id="use688" />
            </g>
          </g>
          <g
             id="text_26">
            <!-- 6 -->
            <g
               transform="matrix(0.1,0,0,-0.1,305.17433,332.63844)"
               id="g695">
              <use
                 xlink:href="#DejaVuSans-36"
                 id="use693" />
            </g>
          </g>
        </g>
        <g
           id="xtick_17">
          <g
             id="line2d_31">
            <g
               id="g701">
              <use
                 xlink:href="#m4fd2266b6c"
                 x="396.37674"
                 y="318.04001"
                 style="stroke:#000000;stroke-width:0.8"
                 id="use699" />
            </g>
          </g>
          <g
             id="text_27">
            <!-- 8 -->
            <g
               transform="matrix(0.1,0,0,-0.1,393.19548,332.63844)"
               id="g706">
              <use
                 xlink:href="#DejaVuSans-38"
                 id="use704" />
            </g>
          </g>
        </g>
        <g
           id="xtick_18">
          <g
             id="line2d_32">
            <g
               id="g712">
              <use
                 xlink:href="#m4fd2266b6c"
                 x="484.39789"
                 y="318.04001"
                 style="stroke:#000000;stroke-width:0.8"
                 id="use710" />
            </g>
          </g>
          <g
             id="text_28">
            <!-- 10 -->
            <g
               transform="matrix(0.1,0,0,-0.1,478.03539,332.63844)"
               id="g719">
              <use
                 xlink:href="#DejaVuSans-31"
                 id="use715" />
              <use
                 xlink:href="#DejaVuSans-30"
                 x="63.623047"
                 id="use717" />
            </g>
          </g>
        </g>
        <g
           id="text_29">
          <!-- Time (s) -->
          <g
             transform="matrix(0.1,0,0,-0.1,244.01609,346.31656)"
             id="g744">
            <defs
               id="defs726">
              <path
                 id="DejaVuSans-54"
                 d="M -19,4666 H 3928 V 4134 H 2272 V 0 H 1638 V 4134 H -19 Z"
                 transform="scale(0.015625)" />
              <path
                 id="DejaVuSans-28"
                 d="m 1984,4856 q -418,-718 -622,-1422 -203,-703 -203,-1425 0,-721 205,-1429 205,-708 620,-1424 h -500 q -468,735 -701,1444 -233,709 -233,1409 0,697 231,1403 232,707 703,1444 z"
                 transform="scale(0.015625)" />
              <path
                 id="DejaVuSans-29"
                 d="m 513,4856 h 500 q 468,-737 701,-1444 233,-706 233,-1403 0,-700 -233,-1409 -233,-709 -701,-1444 H 513 q 415,716 620,1424 205,708 205,1429 0,722 -205,1425 -205,704 -620,1422 z"
                 transform="scale(0.015625)" />
            </defs>
            <use
               xlink:href="#DejaVuSans-54"
               id="use728" />
            <use
               xlink:href="#DejaVuSans-69"
               x="57.958984"
               id="use730" />
            <use
               xlink:href="#DejaVuSans-6d"
               x="85.742188"
               id="use732" />
            <use
               xlink:href="#DejaVuSans-65"
               x="183.1543"
               id="use734" />
            <use
               xlink:href="#DejaVuSans-20"
               x="244.67773"
               id="use736" />
            <use
               xlink:href="#DejaVuSans-28"
               x="276.46484"
               id="use738" />
            <use
               xlink:href="#DejaVuSans-73"
               x="315.47852"
               id="use740" />
            <use
               xlink:href="#DejaVuSans-29"
               x="367.57812"
               id="use742" />
          </g>
        </g>
      </g>
      <g
         id="matplotlib.axis_6">
        <g
           id="ytick_7">
          <g
             id="line2d_33">
            <g
               id="g750">
              <use
                 xlink:href="#m1151748b0e"
                 x="30.49"
                 y="310.85181"
                 style="stroke:#000000;stroke-width:0.8"
                 id="use748" />
            </g>
          </g>
          <g
             id="text_30">
            <!-- 0 -->
            <g
               transform="matrix(0.1,0,0,-0.1,17.1275,314.65104)"
               id="g755">
              <use
                 xlink:href="#DejaVuSans-30"
                 id="use753" />
            </g>
          </g>
        </g>
        <g
           id="ytick_8">
          <g
             id="line2d_34">
            <g
               id="g761">
              <use
                 xlink:href="#m1151748b0e"
                 x="30.49"
                 y="282.19476"
                 style="stroke:#000000;stroke-width:0.8"
                 id="use759" />
            </g>
          </g>
          <g
             id="text_31">
            <!-- 10 -->
            <g
               transform="matrix(0.1,0,0,-0.1,10.765,285.99399)"
               id="g768">
              <use
                 xlink:href="#DejaVuSans-31"
                 id="use764" />
              <use
                 xlink:href="#DejaVuSans-30"
                 x="63.623047"
                 id="use766" />
            </g>
          </g>
        </g>
      </g>
      <g
         id="line2d_35">
        <path
           d="m 44.292115,291.0702 0.880212,12.94588 0.880211,-15.5006 0.440106,17.84961 0.440106,-14.12601 0.440106,18.61274 0.440106,-19.72476 0.440105,11.50258 0.440106,8.22218 0.880212,-25.64409 0.440105,-1.18887 0.440106,19.6223 0.440106,-2.39006 0.440106,9.60072 h 0.440105 l 0.440106,-30.08334 0.440106,24.82553 0.440106,-20.53851 0.440106,16.117 0.440105,-20.22357 0.440106,0.37038 0.440106,8.27084 0.440106,21.26167 0.440105,-12.29893 0.440106,2.0656 0.440106,3.44212 0.440106,-13.30314 0.440105,16.41891 0.440106,-7.12329 0.440106,5.35861 0.440106,-1.95571 0.440106,-17.54244 0.440105,16.25695 0.440106,4.59856 0.440106,-33.62659 0.440106,4.27236 0.440105,18.74418 0.440106,-1.75023 0.440106,12.43891 0.440106,-18.87368 0.440105,0.75467 0.440106,-5.62484 0.440106,20.20286 0.440106,-6.17966 0.440106,-0.72595 0.440105,5.66616 0.440106,-6.2745 0.440106,-21.00819 0.440106,18.74741 0.440105,-22.15241 0.440106,26.71918 0.440106,6.06627 0.440106,3.75139 0.440105,-36.85561 0.440106,36.15386 0.440106,3.63717 0.440106,-41.79532 0.440106,41.79532 0.440105,-35.4117 0.440106,7.79609 0.440106,22.51739 0.440106,5.09822 0.440105,-33.61876 0.440106,27.46189 0.440106,-8.77265 0.440106,-12.40629 0.440105,-16.42783 0.440106,1.61438 0.440106,11.28137 0.440106,24.38262 0.440106,-2.55369 0.440105,-1.83388 0.440106,-12.5157 0.440106,4.0522 0.880211,-10.0929 0.440106,14.79294 0.440106,-23.52218 0.440106,-0.41163 0.440105,2.13369 0.440106,-5.38414 0.440106,41.82056 0.440106,-20.57287 0.440106,-4.78446 0.440105,21.41583 0.440106,-20.97794 0.440106,-12.99151 0.440106,37.91095 0.880211,-42.65991 0.440106,27.55825 0.440106,-2.30827 0.440105,-12.50839 0.440106,1.89731 0.440106,15.66032 0.440106,-3.22295 0.440106,15.58364 h 0.440105 l 0.440106,-41.07851 0.440106,30.15917 0.440106,-25.07731 0.440105,35.99665 0.440106,-29.782 0.440106,6.98233 0.440106,1.7151 0.440105,-7.75957 0.440106,-4.4675 0.440106,23.13015 0.440106,-24.41773 0.440106,7.82001 0.440105,3.33149 0.440106,-0.18677 0.440106,4.68416 0.440106,-0.21365 0.440105,1.58731 0.440106,-11.75058 0.440106,20.33873 0.440106,-1.07248 0.440105,-3.76561 0.880212,-9.4897 0.440106,8.87829 0.440106,-10.08188 0.440105,21.01056 0.440108,-13.08768 0.4401,-6.48026 0.44011,15.65564 0.44011,-14.04582 0.4401,12.54555 0.44011,0.86176 0.4401,-18.58951 0.44011,-1.3263 0.4401,27.97596 h 0.44011 l 0.44011,-14.15722 0.4401,1.1144 0.44011,0.65621 0.4401,2.69185 0.44011,-4.78983 0.44011,0.11277 0.4401,4.6004 0.44011,-9.25881 0.4401,-5.63582 0.44011,24.66605 h 0.88021 l 0.4401,-16.31652 0.44011,0.901 0.44011,5.54153 0.4401,0.29387 0.44011,-1.96401 0.4401,6.14372 0.44011,-13.18961 0.44011,12.85952 0.4401,-14.86215 0.44011,13.42028 0.4401,-0.37065 0.44011,-2.70273 0.88021,7.14716 0.44011,-11.12258 0.4401,-2.84648 0.44011,0.91674 0.4401,1.84275 0.44011,10.79059 0.4401,-0.20436 0.44011,-1.30492 0.44011,-6.61894 0.88021,7.76568 0.4401,-12.75843 0.44011,7.87046 0.44011,5.39827 0.4401,3.36981 0.44011,-13.49156 0.4401,2.26099 0.44011,-1.68293 0.4401,0.38881 0.44011,7.5421 0.4401,1.1024 0.44011,-5.13004 0.44011,9.01023 h 1.76042 l 0.44011,-12.81036 0.88021,8.85537 0.4401,3.95499 h 48.41164 l 0.4401,-11.88657 0.88021,2.12007 0.44011,9.7665 h 1.32032 l 0.4401,-13.14628 0.44011,2.14468 0.4401,4.64549 0.44011,6.35611 h 1.76042 l 0.44011,-15.8274 0.44011,10.58 0.4401,-7.80791 0.44011,-1.97678 0.4401,-0.36928 0.88021,15.40137 0.44011,-17.32004 0.44011,7.90982 0.4401,2.46884 0.44011,6.94138 h 0.4401 l 0.44011,-16.26875 0.4401,16.26875 0.44011,-18.15089 0.44011,8.9099 0.4401,5.41474 0.44011,-10.75781 0.4401,-1.05313 0.44011,6.19851 0.4401,-0.75335 0.44011,-4.46732 0.44011,14.65935 h 0.4401 l 0.44011,-20.35548 0.4401,10.40881 0.44011,1.53839 0.44011,-12.68047 0.4401,-0.45672 0.44011,17.24654 0.4401,4.29893 0.44011,-20.62518 0.4401,5.76638 0.44011,-3.40181 0.44011,9.21219 0.4401,-4.55441 0.44011,5.7705 0.4401,-14.77204 0.44011,8.63423 0.4401,13.97014 h 1.76043 l 0.4401,-23.07287 0.88021,23.07287 h 0.44011 l 0.44011,-16.38099 0.4401,1.45873 0.44011,6.39089 0.4401,-15.70721 0.44011,7.39031 0.44011,0.34273 0.88021,10.19374 0.4401,-1.8017 0.44011,-15.0123 0.4401,19.4471 0.44011,-12.88682 0.44011,1.55277 0.4401,15.01275 0.44011,-24.3126 0.4401,8.20231 0.44011,12.94118 0.4401,-8.15524 0.44011,11.32435 h 0.44011 l 0.4401,-23.46124 0.44011,14.82696 0.4401,-4.65059 0.44011,5.35102 0.4401,-14.54338 0.44011,10.75365 0.44011,-9.5465 0.4401,17.55982 0.44011,-18.27966 0.4401,2.39353 0.44011,11.1106 0.44011,-0.79393 0.4401,3.21176 0.44011,-0.93305 0.4401,1.22985 0.44011,-3.19544 0.4401,-15.86881 0.44011,17.38468 0.44011,-16.83198 0.88021,15.63055 0.4401,-6.81868 0.44011,15.47084 0.4401,-12.38619 0.44011,12.38619 h 0.44011 l 0.4401,-14.84083 0.44011,3.3209 0.88021,5.42862 0.4401,-16.36744 0.88022,13.57605 0.4401,2.23076 0.44011,-4.47974 0.4401,2.46698 0.44011,-7.98948 0.44011,3.99278 0.4401,-1.61138 0.44011,14.27278 0.4401,-13.61041 0.44011,5.62505 0.4401,1.89055 0.44011,-1.48886 0.44011,-3.91552 0.4401,11.49919 h 0.44011 l 0.4401,-14.09195 0.44011,14.09195 0.4401,-17.04303 0.44011,6.15707 0.44011,0.35936 0.4401,-4.02837 0.44011,14.55497 h 3.96095 l 0.44011,-13.93203 0.4401,7.27995 0.44011,-2.95953 0.4401,9.61161 h 240.73786 v 0"
           clip-path="url(#pc6a9ea95c6)"
           style="fill:none;stroke:#d62728;stroke-linecap:square;stroke-opacity:0.25"
           id="path773" />
      </g>
      <g
         id="line2d_36">
        <path
           d="m 44.292115,291.0702 2.200529,6.2343 4.401058,-1.42574 2.200529,-0.95402 2.200529,-1.14068 2.200528,0.42046 2.200529,1.02727 2.200529,-1.11753 2.200529,0.42977 2.200529,0.74391 2.200529,-1.04297 2.200529,-2.66013 2.200528,-0.66574 2.200529,-2.2744 2.200529,0.33785 2.200529,-2.14569 2.200529,-1.22441 4.401057,0.83047 2.200529,-1.14903 2.200529,-0.8481 2.200529,2.26593 2.200529,-0.50644 2.200529,1.80601 2.200529,0.28702 2.200533,2.7303 2.20052,1.03294 2.20053,2.57997 2.20053,0.12145 4.40106,1.59215 2.20053,1.6581 2.20053,0.21443 2.20053,2.00472 2.20053,0.91715 2.20052,-0.20308 2.20053,0.61821 2.20053,0.46538 2.20053,-0.0681 2.20053,-0.37881 2.20053,2.1809 2.20053,-1.13017 2.20053,4.26301 2.20052,3.95499 h 35.20847 l 2.20052,-10.83429 2.20053,-0.578 2.20053,0.91115 2.20053,-0.29186 2.20053,-0.88466 2.20053,-0.009 2.20053,0.15026 2.20053,-0.52759 2.20053,-0.71605 2.20052,-0.35031 4.40106,-1.11258 2.20053,-0.79092 2.20053,-0.35814 2.20053,0.60111 2.20053,-0.17717 2.20053,0.70013 4.40105,0.16998 2.20053,1.33159 2.20053,-0.40032 2.20053,-0.25676 2.20053,0.94652 2.20053,0.62892 2.20053,-1.30931 2.20053,1.65571 4.40105,-0.63431 2.20053,0.26958 2.20053,0.66135 2.20053,-0.95727 2.20053,1.13507 2.20053,0.96197 h 2.20053 l 2.20053,0.45363 2.20052,9.61161 h 226.65448 v 0"
           clip-path="url(#pc6a9ea95c6)"
           style="fill:none;stroke:#d62728;stroke-linecap:square"
           id="path776" />
      </g>
      <g
         id="patch_9">
        <path
           d="M 30.49,313.04 V 264.9"
           style="fill:none;stroke:#7f7f7f;stroke-width:0.8;stroke-linecap:square;stroke-linejoin:miter"
           id="path779" />
      </g>
      <g
         id="patch_10">
        <path
           d="M 35.49,318.04 H 493.2"
           style="fill:none;stroke:#7f7f7f;stroke-width:0.8;stroke-linecap:square;stroke-linejoin:miter"
           id="path782" />
      </g>
      <g
         id="text_32">
        <!-- Instantaneous and Average intensity of use from u2 -->
        <g
           transform="matrix(0.11,0,0,-0.11,121.41547,258.9)"
           id="g885">
          <use
             xlink:href="#DejaVuSans-49"
             id="use785" />
          <use
             xlink:href="#DejaVuSans-6e"
             x="29.492188"
             id="use787" />
          <use
             xlink:href="#DejaVuSans-73"
             x="92.871094"
             id="use789" />
          <use
             xlink:href="#DejaVuSans-74"
             x="144.9707"
             id="use791" />
          <use
             xlink:href="#DejaVuSans-61"
             x="184.17969"
             id="use793" />
          <use
             xlink:href="#DejaVuSans-6e"
             x="245.45898"
             id="use795" />
          <use
             xlink:href="#DejaVuSans-74"
             x="308.83789"
             id="use797" />
          <use
             xlink:href="#DejaVuSans-61"
             x="348.04688"
             id="use799" />
          <use
             xlink:href="#DejaVuSans-6e"
             x="409.32617"
             id="use801" />
          <use
             xlink:href="#DejaVuSans-65"
             x="472.70508"
             id="use803" />
          <use
             xlink:href="#DejaVuSans-6f"
             x="534.22852"
             id="use805" />
          <use
             xlink:href="#DejaVuSans-75"
             x="595.41016"
             id="use807" />
          <use
             xlink:href="#DejaVuSans-73"
             x="658.78906"
             id="use809" />
          <use
             xlink:href="#DejaVuSans-20"
             x="710.88867"
             id="use811" />
          <use
             xlink:href="#DejaVuSans-61"
             x="742.67578"
             id="use813" />
          <use
             xlink:href="#DejaVuSans-6e"
             x="803.95508"
             id="use815" />
          <use
             xlink:href="#DejaVuSans-64"
             x="867.33398"
             id="use817" />
          <use
             xlink:href="#DejaVuSans-20"
             x="930.81055"
             id="use819" />
          <use
             xlink:href="#DejaVuSans-41"
             x="962.59766"
             id="use821" />
          <use
             xlink:href="#DejaVuSans-76"
             x="1025.1309"
             id="use823" />
          <use
             xlink:href="#DejaVuSans-65"
             x="1084.3105"
             id="use825" />
          <use
             xlink:href="#DejaVuSans-72"
             x="1145.834"
             id="use827" />
          <use
             xlink:href="#DejaVuSans-61"
             x="1186.9473"
             id="use829" />
          <use
             xlink:href="#DejaVuSans-67"
             x="1248.2266"
             id="use831" />
          <use
             xlink:href="#DejaVuSans-65"
             x="1311.7031"
             id="use833" />
          <use
             xlink:href="#DejaVuSans-20"
             x="1373.2266"
             id="use835" />
          <use
             xlink:href="#DejaVuSans-69"
             x="1405.0137"
             id="use837" />
          <use
             xlink:href="#DejaVuSans-6e"
             x="1432.7969"
             id="use839" />
          <use
             xlink:href="#DejaVuSans-74"
             x="1496.1758"
             id="use841" />
          <use
             xlink:href="#DejaVuSans-65"
             x="1535.3848"
             id="use843" />
          <use
             xlink:href="#DejaVuSans-6e"
             x="1596.9082"
             id="use845" />
          <use
             xlink:href="#DejaVuSans-73"
             x="1660.2871"
             id="use847" />
          <use
             xlink:href="#DejaVuSans-69"
             x="1712.3867"
             id="use849" />
          <use
             xlink:href="#DejaVuSans-74"
             x="1740.1699"
             id="use851" />
          <use
             xlink:href="#DejaVuSans-79"
             x="1779.3789"
             id="use853" />
          <use
             xlink:href="#DejaVuSans-20"
             x="1838.5586"
             id="use855" />
          <use
             xlink:href="#DejaVuSans-6f"
             x="1870.3457"
             id="use857" />
          <use
             xlink:href="#DejaVuSans-66"
             x="1931.5273"
             id="use859" />
          <use
             xlink:href="#DejaVuSans-20"
             x="1966.7324"
             id="use861" />
          <use
             xlink:href="#DejaVuSans-75"
             x="1998.5195"
             id="use863" />
          <use
             xlink:href="#DejaVuSans-73"
             x="2061.8984"
             id="use865" />
          <use
             xlink:href="#DejaVuSans-65"
             x="2113.998"
             id="use867" />
          <use
             xlink:href="#DejaVuSans-20"
             x="2175.5215"
             id="use869" />
          <use
             xlink:href="#DejaVuSans-66"
             x="2207.3086"
             id="use871" />
          <use
             xlink:href="#DejaVuSans-72"
             x="2242.5137"
             id="use873" />
          <use
             xlink:href="#DejaVuSans-6f"
             x="2281.377"
             id="use875" />
          <use
             xlink:href="#DejaVuSans-6d"
             x="2342.5586"
             id="use877" />
          <use
             xlink:href="#DejaVuSans-20"
             x="2439.9707"
             id="use879" />
          <use
             xlink:href="#DejaVuSans-75"
             x="2471.7578"
             id="use881" />
          <use
             xlink:href="#DejaVuSans-32"
             x="2535.1367"
             id="use883" />
        </g>
      </g>
      <g
         id="legend_2">
        <g
           id="line2d_37">
          <path
             d="m 387.79844,277.99844 h 10 10"
             style="fill:none;stroke:#d62728;stroke-linecap:square;stroke-opacity:0.25"
             id="path888" />
        </g>
        <g
           id="text_33">
          <!-- Inst. Intensity -->
          <g
             transform="matrix(0.1,0,0,-0.1,415.79844,281.49844)"
             id="g921">
            <use
               xlink:href="#DejaVuSans-49"
               id="use891" />
            <use
               xlink:href="#DejaVuSans-6e"
               x="29.492188"
               id="use893" />
            <use
               xlink:href="#DejaVuSans-73"
               x="92.871094"
               id="use895" />
            <use
               xlink:href="#DejaVuSans-74"
               x="144.9707"
               id="use897" />
            <use
               xlink:href="#DejaVuSans-2e"
               x="184.17969"
               id="use899" />
            <use
               xlink:href="#DejaVuSans-20"
               x="215.9668"
               id="use901" />
            <use
               xlink:href="#DejaVuSans-49"
               x="247.75391"
               id="use903" />
            <use
               xlink:href="#DejaVuSans-6e"
               x="277.24609"
               id="use905" />
            <use
               xlink:href="#DejaVuSans-74"
               x="340.625"
               id="use907" />
            <use
               xlink:href="#DejaVuSans-65"
               x="379.83398"
               id="use909" />
            <use
               xlink:href="#DejaVuSans-6e"
               x="441.35742"
               id="use911" />
            <use
               xlink:href="#DejaVuSans-73"
               x="504.73633"
               id="use913" />
            <use
               xlink:href="#DejaVuSans-69"
               x="556.83594"
               id="use915" />
            <use
               xlink:href="#DejaVuSans-74"
               x="584.61914"
               id="use917" />
            <use
               xlink:href="#DejaVuSans-79"
               x="623.82812"
               id="use919" />
          </g>
        </g>
        <g
           id="line2d_38">
          <path
             d="m 387.79844,292.67656 h 10 10"
             style="fill:none;stroke:#d62728;stroke-linecap:square"
             id="path924" />
        </g>
        <g
           id="text_34">
          <!-- Avg. Intensity -->
          <g
             transform="matrix(0.1,0,0,-0.1,415.79844,296.17656)"
             id="g955">
            <use
               xlink:href="#DejaVuSans-41"
               id="use927" />
            <use
               xlink:href="#DejaVuSans-76"
               x="62.533203"
               id="use929" />
            <use
               xlink:href="#DejaVuSans-67"
               x="121.71289"
               id="use931" />
            <use
               xlink:href="#DejaVuSans-2e"
               x="185.18945"
               id="use933" />
            <use
               xlink:href="#DejaVuSans-20"
               x="216.97656"
               id="use935" />
            <use
               xlink:href="#DejaVuSans-49"
               x="248.76367"
               id="use937" />
            <use
               xlink:href="#DejaVuSans-6e"
               x="278.25586"
               id="use939" />
            <use
               xlink:href="#DejaVuSans-74"
               x="341.63477"
               id="use941" />
            <use
               xlink:href="#DejaVuSans-65"
               x="380.84375"
               id="use943" />
            <use
               xlink:href="#DejaVuSans-6e"
               x="442.36719"
               id="use945" />
            <use
               xlink:href="#DejaVuSans-73"
               x="505.74609"
               id="use947" />
            <use
               xlink:href="#DejaVuSans-69"
               x="557.8457"
               id="use949" />
            <use
               xlink:href="#DejaVuSans-74"
               x="585.62891"
               id="use951" />
            <use
               xlink:href="#DejaVuSans-79"
               x="624.83789"
               id="use953" />
          </g>
        </g>
      </g>
    </g>
  </g>
  <defs
     id="defs970">
    <clipPath
       id="p34b8fd2580">
      <rect
         x="35.490002"
         y="25.440001"
         width="457.70999"
         height="96.279999"
         id="rect961" />
    </clipPath>
    <clipPath
       id="pf9b5165986">
      <rect
         x="35.490002"
         y="169.24001"
         width="457.70999"
         height="48.139999"
         id="rect964" />
    </clipPath>
    <clipPath
       id="pc6a9ea95c6">
      <rect
         x="35.490002"
         y="264.89999"
         width="457.70999"
         height="48.139999"
         id="rect967" />
    </clipPath>
  </defs>
</svg>
