<?xml version="1.0" encoding="UTF-8" standalone="no"?>
<svg
   width="478.58655pt"
   height="336.55359pt"
   viewBox="0 0 478.58655 336.55359"
   version="1.1"
   id="svg2737"
   sodipodi:docname="uluse_from_vec_mag.svg"
   inkscape:version="1.2 (dc2aeda, 2022-05-15)"
   xmlns:inkscape="http://www.inkscape.org/namespaces/inkscape"
   xmlns:sodipodi="http://sodipodi.sourceforge.net/DTD/sodipodi-0.dtd"
   xmlns:xlink="http://www.w3.org/1999/xlink"
   xmlns="http://www.w3.org/2000/svg"
   xmlns:svg="http://www.w3.org/2000/svg"
   xmlns:rdf="http://www.w3.org/1999/02/22-rdf-syntax-ns#"
   xmlns:cc="http://creativecommons.org/ns#"
   xmlns:dc="http://purl.org/dc/elements/1.1/">
  <sodipodi:namedview
     id="namedview2739"
     pagecolor="#ffffff"
     bordercolor="#000000"
     borderopacity="0.25"
     inkscape:showpageshadow="2"
     inkscape:pageopacity="0.0"
     inkscape:pagecheckerboard="0"
     inkscape:deskcolor="#d1d1d1"
     inkscape:document-units="pt"
     showgrid="false"
     inkscape:zoom="0.98333333"
     inkscape:cx="333.05085"
     inkscape:cy="229.83051"
     inkscape:window-width="1680"
     inkscape:window-height="934"
     inkscape:window-x="0"
     inkscape:window-y="25"
     inkscape:window-maximized="1"
     inkscape:current-layer="patch_1" />
  <metadata
     id="metadata2128">
    <rdf:RDF>
      <cc:Work>
        <dc:type
           rdf:resource="http://purl.org/dc/dcmitype/StillImage" />
        <dc:date>2024-01-13T12:17:21.891011</dc:date>
        <dc:format>image/svg+xml</dc:format>
        <dc:creator>
          <cc:Agent>
            <dc:title>Matplotlib v3.6.1, https://matplotlib.org/</dc:title>
          </cc:Agent>
        </dc:creator>
      </cc:Work>
    </rdf:RDF>
  </metadata>
  <defs
     id="defs2132">
    <style
       type="text/css"
       id="style2130">*{stroke-linejoin: round; stroke-linecap: butt}</style>
  </defs>
  <g
     id="figure_1"
     transform="translate(-15.013437,-11.081719)">
    <g
       id="patch_1" />
    <g
       id="axes_1">
      <g
         id="patch_2">
        <path
           d="M 38.64,121 H 493.2 V 25.44 H 38.64 Z"
           style="fill:#ffffff"
           id="path2137" />
      </g>
      <g
         id="matplotlib.axis_1">
        <g
           id="xtick_1">
          <g
             id="line2d_1">
            <defs
               id="defs2141">
              <path
                 id="m111339a6bb"
                 d="M 0,0 V 3.5"
                 style="stroke:#000000;stroke-width:0.8" />
            </defs>
            <g
               id="g2145">
              <use
                 xlink:href="#m111339a6bb"
                 x="47.381538"
                 y="126"
                 style="stroke:#000000;stroke-width:0.8"
                 id="use2143" />
            </g>
          </g>
          <g
             id="text_1">
            <!-- 0 -->
            <g
               transform="matrix(0.1,0,0,-0.1,44.200288,140.59844)"
               id="g2153">
              <defs
                 id="defs2149">
                <path
                   id="DejaVuSans-30"
                   d="m 2034,4250 q -487,0 -733,-480 -245,-479 -245,-1442 0,-959 245,-1439 246,-480 733,-480 491,0 736,480 246,480 246,1439 0,963 -246,1442 -245,480 -736,480 z m 0,500 q 785,0 1199,-621 414,-620 414,-1801 0,-1178 -414,-1799 -414,-620 -1199,-620 -784,0 -1198,620 -414,621 -414,1799 0,1181 414,1801 414,621 1198,621 z"
                   transform="scale(0.015625)" />
              </defs>
              <use
                 xlink:href="#DejaVuSans-30"
                 id="use2151" />
            </g>
          </g>
        </g>
        <g
           id="xtick_2">
          <g
             id="line2d_2">
            <g
               id="g2159">
              <use
                 xlink:href="#m111339a6bb"
                 x="134.79692"
                 y="126"
                 style="stroke:#000000;stroke-width:0.8"
                 id="use2157" />
            </g>
          </g>
          <g
             id="text_2">
            <!-- 2 -->
            <g
               transform="matrix(0.1,0,0,-0.1,131.61567,140.59844)"
               id="g2167">
              <defs
                 id="defs2163">
                <path
                   id="DejaVuSans-32"
                   d="M 1228,531 H 3431 V 0 H 469 v 531 q 359,372 979,998 621,627 780,809 303,340 423,576 121,236 121,464 0,372 -261,606 -261,235 -680,235 -297,0 -627,-103 -329,-103 -704,-313 v 638 q 381,153 712,231 332,78 607,78 725,0 1156,-363 431,-362 431,-968 0,-288 -108,-546 -107,-257 -392,-607 -78,-91 -497,-524 Q 1991,1309 1228,531 Z"
                   transform="scale(0.015625)" />
              </defs>
              <use
                 xlink:href="#DejaVuSans-32"
                 id="use2165" />
            </g>
          </g>
        </g>
        <g
           id="xtick_3">
          <g
             id="line2d_3">
            <g
               id="g2173">
              <use
                 xlink:href="#m111339a6bb"
                 x="222.21231"
                 y="126"
                 style="stroke:#000000;stroke-width:0.8"
                 id="use2171" />
            </g>
          </g>
          <g
             id="text_3">
            <!-- 4 -->
            <g
               transform="matrix(0.1,0,0,-0.1,219.03106,140.59844)"
               id="g2181">
              <defs
                 id="defs2177">
                <path
                   id="DejaVuSans-34"
                   d="M 2419,4116 825,1625 h 1594 z m -166,550 h 794 V 1625 h 666 V 1100 H 3047 V 0 H 2419 V 1100 H 313 v 609 z"
                   transform="scale(0.015625)" />
              </defs>
              <use
                 xlink:href="#DejaVuSans-34"
                 id="use2179" />
            </g>
          </g>
        </g>
        <g
           id="xtick_4">
          <g
             id="line2d_4">
            <g
               id="g2187">
              <use
                 xlink:href="#m111339a6bb"
                 x="309.62769"
                 y="126"
                 style="stroke:#000000;stroke-width:0.8"
                 id="use2185" />
            </g>
          </g>
          <g
             id="text_4">
            <!-- 6 -->
            <g
               transform="matrix(0.1,0,0,-0.1,306.44644,140.59844)"
               id="g2195">
              <defs
                 id="defs2191">
                <path
                   id="DejaVuSans-36"
                   d="m 2113,2584 q -425,0 -674,-291 -248,-290 -248,-796 0,-503 248,-796 249,-292 674,-292 425,0 673,292 248,293 248,796 0,506 -248,796 -248,291 -673,291 z m 1253,1979 v -575 q -238,112 -480,171 -242,60 -480,60 -625,0 -955,-422 -329,-422 -376,-1275 184,272 462,417 279,145 613,145 703,0 1111,-427 408,-426 408,-1160 0,-719 -425,-1154 -425,-434 -1131,-434 -810,0 -1238,620 -428,621 -428,1799 0,1106 525,1764 525,658 1409,658 238,0 480,-47 242,-47 505,-140 z"
                   transform="scale(0.015625)" />
              </defs>
              <use
                 xlink:href="#DejaVuSans-36"
                 id="use2193" />
            </g>
          </g>
        </g>
        <g
           id="xtick_5">
          <g
             id="line2d_5">
            <g
               id="g2201">
              <use
                 xlink:href="#m111339a6bb"
                 x="397.04309"
                 y="126"
                 style="stroke:#000000;stroke-width:0.8"
                 id="use2199" />
            </g>
          </g>
          <g
             id="text_5">
            <!-- 8 -->
            <g
               transform="matrix(0.1,0,0,-0.1,393.86183,140.59844)"
               id="g2209">
              <defs
                 id="defs2205">
                <path
                   id="DejaVuSans-38"
                   d="m 2034,2216 q -450,0 -708,-241 -257,-241 -257,-662 0,-422 257,-663 258,-241 708,-241 450,0 709,242 260,243 260,662 0,421 -258,662 -257,241 -711,241 z m -631,268 q -406,100 -633,378 -226,279 -226,679 0,559 398,884 399,325 1092,325 697,0 1094,-325 397,-325 397,-884 0,-400 -227,-679 -226,-278 -629,-378 456,-106 710,-416 255,-309 255,-755 Q 3634,634 3220,271 2806,-91 2034,-91 1263,-91 848,271 434,634 434,1313 q 0,446 256,755 257,310 713,416 z m -231,997 q 0,-362 226,-565 227,-203 636,-203 407,0 636,203 230,203 230,565 0,363 -230,566 -229,203 -636,203 -409,0 -636,-203 -226,-203 -226,-566 z"
                   transform="scale(0.015625)" />
              </defs>
              <use
                 xlink:href="#DejaVuSans-38"
                 id="use2207" />
            </g>
          </g>
        </g>
        <g
           id="xtick_6">
          <g
             id="line2d_6">
            <g
               id="g2215">
              <use
                 xlink:href="#m111339a6bb"
                 x="484.45847"
                 y="126"
                 style="stroke:#000000;stroke-width:0.8"
                 id="use2213" />
            </g>
          </g>
          <g
             id="text_6">
            <!-- 10 -->
            <g
               transform="matrix(0.1,0,0,-0.1,478.09596,140.59844)"
               id="g2225">
              <defs
                 id="defs2219">
                <path
                   id="DejaVuSans-31"
                   d="M 794,531 H 1825 V 4091 L 703,3866 v 575 l 1116,225 h 631 V 531 H 3481 V 0 H 794 Z"
                   transform="scale(0.015625)" />
              </defs>
              <use
                 xlink:href="#DejaVuSans-31"
                 id="use2221" />
              <use
                 xlink:href="#DejaVuSans-30"
                 x="63.623047"
                 id="use2223" />
            </g>
          </g>
        </g>
      </g>
      <g
         id="matplotlib.axis_2">
        <g
           id="ytick_1">
          <g
             id="line2d_7">
            <defs
               id="defs2231">
              <path
                 id="mc0de7ce073"
                 d="M 0,0 H -3.5"
                 style="stroke:#000000;stroke-width:0.8" />
            </defs>
            <g
               id="g2235">
              <use
                 xlink:href="#mc0de7ce073"
                 x="33.639999"
                 y="116.6567"
                 style="stroke:#000000;stroke-width:0.8"
                 id="use2233" />
            </g>
          </g>
          <g
             id="text_7">
            <!-- 0 -->
            <g
               transform="matrix(0.1,0,0,-0.1,20.2775,120.45592)"
               id="g2240">
              <use
                 xlink:href="#DejaVuSans-30"
                 id="use2238" />
            </g>
          </g>
        </g>
        <g
           id="ytick_2">
          <g
             id="line2d_8">
            <g
               id="g2246">
              <use
                 xlink:href="#mc0de7ce073"
                 x="33.639999"
                 y="87.540932"
                 style="stroke:#000000;stroke-width:0.8"
                 id="use2244" />
            </g>
          </g>
          <g
             id="text_8">
            <!-- 5 -->
            <g
               transform="matrix(0.1,0,0,-0.1,20.2775,91.340151)"
               id="g2254">
              <defs
                 id="defs2250">
                <path
                   id="DejaVuSans-35"
                   d="M 691,4666 H 3169 V 4134 H 1269 V 2991 q 137,47 274,70 138,23 276,23 781,0 1237,-428 457,-428 457,-1159 Q 3513,744 3044,326 2575,-91 1722,-91 1428,-91 1123,-41 819,9 494,109 v 635 q 281,-153 581,-228 300,-75 634,-75 541,0 856,284 316,284 316,772 0,487 -316,771 -315,285 -856,285 -253,0 -505,-56 -251,-56 -513,-175 z"
                   transform="scale(0.015625)" />
              </defs>
              <use
                 xlink:href="#DejaVuSans-35"
                 id="use2252" />
            </g>
          </g>
        </g>
        <g
           id="ytick_3">
          <g
             id="line2d_9">
            <g
               id="g2260">
              <use
                 xlink:href="#mc0de7ce073"
                 x="33.639999"
                 y="58.425167"
                 style="stroke:#000000;stroke-width:0.8"
                 id="use2258" />
            </g>
          </g>
          <g
             id="text_9">
            <!-- 10 -->
            <g
               transform="matrix(0.1,0,0,-0.1,13.915,62.224385)"
               id="g2267">
              <use
                 xlink:href="#DejaVuSans-31"
                 id="use2263" />
              <use
                 xlink:href="#DejaVuSans-30"
                 x="63.623047"
                 id="use2265" />
            </g>
          </g>
        </g>
        <g
           id="ytick_4">
          <g
             id="line2d_10">
            <g
               id="g2273">
              <use
                 xlink:href="#mc0de7ce073"
                 x="33.639999"
                 y="29.309401"
                 style="stroke:#000000;stroke-width:0.8"
                 id="use2271" />
            </g>
          </g>
          <g
             id="text_10">
            <!-- 15 -->
            <g
               transform="matrix(0.1,0,0,-0.1,13.915,33.10862)"
               id="g2280">
              <use
                 xlink:href="#DejaVuSans-31"
                 id="use2276" />
              <use
                 xlink:href="#DejaVuSans-35"
                 x="63.623047"
                 id="use2278" />
            </g>
          </g>
        </g>
      </g>
      <g
         id="line2d_11">
        <path
           d="m 47.381538,69.984405 0.874154,43.125155 0.437077,-43.091011 0.437077,21.634101 0.437077,11.11948 0.437077,-3.453975 0.437077,-9.812966 0.437077,-21.418445 0.437077,29.61249 0.437077,4.880746 0.437077,-6.730385 0.437077,-34.779768 0.437076,4.209838 0.437077,41.854245 0.437077,4.40177 0.437077,-29.81383 0.437077,-5.107317 0.437077,-7.231466 0.437077,-10.890007 0.437077,33.476346 0.437077,8.798204 0.437077,-36.422514 0.437077,31.708299 0.437077,-3.33745 0.437077,23.585035 0.437076,-12.80751 0.437077,-31.530046 0.437077,-21.556997 0.874154,62.116283 0.437077,-21.500116 0.437077,18.555556 0.437077,-66.608069 0.437077,53.942206 0.437077,-3.695438 0.437077,17.422671 0.437077,-37.765128 0.437077,-26.742024 0.437076,53.863989 0.437077,7.482663 0.437077,-25.097444 0.437077,-14.225508 0.437077,19.855171 0.437077,-49.270972 0.437077,28.724448 0.437077,-3.338011 0.437077,-0.726042 0.437077,-4.450718 0.437077,28.931378 0.874154,-35.474798 0.437076,47.522277 0.437077,-16.60649 0.437077,20.528439 0.874154,-43.088794 0.437077,49.299524 0.437077,5.15515 0.437077,-28.53079 0.437077,21.45682 0.437077,-73.388016 0.437077,51.790925 0.437077,21.072941 0.437077,-57.483008 0.437076,54.463348 0.437077,-57.818509 0.437077,20.34884 0.437077,38.129279 0.437077,-46.635614 0.437077,21.21723 0.437077,32.806404 0.437077,-65.510706 0.437077,-17.352138 0.874154,11.152738 0.437077,9.061913 0.437077,15.209912 0.437076,-26.610921 0.437077,48.751131 0.437077,2.232061 0.437077,-9.809385 0.437077,-36.383321 0.437077,15.725882 0.437077,-0.126405 0.437077,34.845719 0.437077,-40.688812 0.437077,-0.679849 0.437077,39.535236 0.437077,16.839395 0.437077,-76.916937 0.437076,17.15423 0.437077,52.625357 0.437077,-2.96044 0.437077,-8.025664 0.874154,12.471914 0.437077,-63.372134 0.437077,8.030374 0.437077,33.29791 0.437077,-32.555819 0.437077,21.101801 0.437077,46.914708 0.437077,-52.04226 0.437076,-11.507655 0.437077,-15.651499 0.437077,77.147984 0.437077,-6.40169 0.437077,-27.292665 0.437077,25.662315 0.437077,-2.33387 0.437077,-56.906147 0.874154,48.944848 0.437077,-27.472844 0.437077,43.885313 0.437077,-65.485643 0.437076,61.815443 0.437077,-65.257251 0.437077,26.624729 0.437077,-1.962029 0.437081,1.236389 0.43707,17.900881 0.43708,9.980269 0.43708,2.690882 0.87415,-10.561036 0.43708,22.427366 0.87415,-43.331344 0.43708,34.453054 0.43708,-43.495315 0.43707,-0.749688 0.43708,54.070793 0.43708,-24.088456 0.43707,20.634806 0.43708,-37.046093 0.43708,33.238313 0.43707,-37.847539 0.43708,0.297247 0.43708,-8.718789 0.43707,51.399431 0.43708,2.57237 0.43708,-44.615966 0.43708,3.609295 0.43707,17.799006 0.87416,-13.704962 0.43707,23.087869 0.43708,-12.897111 0.43708,19.797659 0.43707,-37.399529 0.43708,32.266299 0.43708,-12.554287 0.43707,20.890667 0.43708,-37.824404 0.43708,10.345006 0.43708,-11.536948 0.43707,25.664431 0.43708,5.419005 0.43708,-25.239567 0.43707,-1.452977 0.43708,1.042399 0.43708,16.458262 0.43707,24.063613 0.43708,-3.03517 0.43708,1.10499 0.43708,-19.784025 0.43707,-13.020232 0.43708,4.964772 0.43707,9.083078 0.43708,-11.765367 0.43708,18.256704 0.43708,-11.001965 0.43707,23.994405 0.43708,-16.107416 0.43708,0.871176 0.43707,-3.198118 0.43708,-7.259464 0.43708,-4.584426 0.43708,19.236238 0.43707,11.74328 0.43708,-19.093389 0.43707,14.668279 0.43708,-7.03719 0.43708,-9.50224 0.43708,10.16558 0.43707,-12.203787 0.43708,22.809567 0.43708,-22.228626 0.43707,8.692416 0.43708,-9.517221 0.43708,-0.573405 0.43707,5.630285 0.43708,15.017041 0.43708,-15.569885 0.43707,1.463912 0.43708,16.838353 0.43708,-7.78582 0.43708,-4.32274 0.43707,-2.54933 0.43708,4.73779 0.43708,-4.43151 0.43707,1.27089 0.43708,6.95568 0.87415,-9.04036 0.43708,10.23755 0.87415,-9.53413 0.43708,1.56829 0.43708,-3.945436 0.43708,0.256348 0.43707,13.409208 0.43708,-5.68226 0.43708,9.29438 0.43707,-8.29142 0.43708,3.32002 0.43708,-9.39497 0.43707,5.50853 0.43708,-6.612 0.43708,9.33738 0.43707,6.19231 0.43708,-10.52278 0.43708,2.33643 0.43708,-1.55902 0.43707,-3.16139 0.43708,3.54529 0.43708,7.64127 0.43707,1.81797 0.43708,-10.29532 0.43708,-0.56059 0.87415,9.35068 0.43708,1.44967 0.43707,-7.4519 0.43708,2.18301 0.43708,-3.49395 0.43708,8.83802 0.43707,-13.52514 0.43708,0.2745 0.43708,-0.61141 0.43707,9.75745 0.43708,0.46825 0.43708,-2.82987 0.43707,2.81314 0.43708,0.78002 0.43708,-2.0882 0.87415,-1.16449 0.43708,6.17107 0.43708,-7.37341 0.43707,3.34047 0.43708,2.29819 0.43708,-1.46951 0.43707,-8.16532 0.43708,5.92083 0.43708,1.15536 0.43708,-3.46482 0.43707,-2.33229 0.43708,7.44116 0.43707,-2.42756 0.43708,-7.04533 0.43708,-1.70486 0.43708,10.66683 0.43707,-8.42842 0.43708,-0.96142 0.43708,2.0899 0.43707,0.006 0.43708,1.03817 0.43708,-6.88832 0.43707,-0.27994 0.43708,5.41677 0.43708,-1.65973 0.43707,10.30721 0.43708,-2.59767 0.43708,-1.04011 0.43708,-8.19811 0.43707,13.99506 0.43708,-7.28128 0.43708,-2.72528 0.43707,-5.83497 0.43708,13.59846 0.43708,-2.78864 0.43707,-11.711521 0.43708,7.714421 0.43708,5.56107 0.43708,-3.89432 0.43707,3.04574 0.43708,1.94252 0.43708,-13.00811 0.87415,10.31362 0.43708,-9.31128 0.43707,5.689 0.43708,8.19816 0.43708,-5.67833 0.43707,2.45561 0.43708,-3.8173 0.43708,-8.4393 0.43707,0.93283 0.43708,-7.964669 0.87416,7.434079 0.43707,-4.502094 0.43708,4.831104 0.43708,6.09992 0.43707,-10.256684 0.43708,-7.496947 0.43708,2.690289 0.43707,-1.358371 0.43708,20.029703 0.43708,-7.90272 0.43707,9.92012 0.43708,-15.376774 0.43708,1.006672 0.43708,-5.183094 0.43707,15.916196 0.43708,6.54328 0.43708,-14.38668 0.43707,11.16475 0.43708,-22.946788 0.43708,17.358578 0.43707,-10.125499 0.43708,18.912849 0.43708,-8.1604 0.87415,-22.88115 0.43708,22.59292 0.43708,-18.259542 0.43707,-7.989069 0.43708,5.800763 0.43708,27.115658 0.43707,-23.694527 0.43708,22.328907 0.87415,-12.877571 0.43708,-15.610269 0.43708,26.22399 0.43707,-15.929135 0.43708,-9.194474 0.43708,28.349199 0.43708,-24.784972 0.43707,-1.096475 0.43708,-2.263996 0.43708,15.675473 0.43707,2.79539 0.43708,-19.481859 0.43708,12.10141 0.43707,-4.334773 0.43708,11.825022 0.43708,-17.541561 0.43707,5.724263 0.43708,11.003968 0.43708,-23.014312 0.43708,32.161132 0.43707,-43.154213 0.43708,24.239188 0.43708,-20.089385 0.43707,16.207186 0.43708,22.163764 0.43708,-38.554289 0.43707,27.326619 0.43708,-30.256222 0.43708,-0.802316 0.43707,0.997016 0.43708,-4.431093 0.43708,47.844095 0.43708,-38.998978 0.43707,3.549079 0.43708,32.997929 0.43708,-39.576842 0.43707,4.782435 0.43708,11.895477 0.43708,23.13197 0.43707,-5.70406 0.43708,-7.464267 0.43708,-27.267865 0.43708,15.139562 0.43707,0.622145 0.43708,22.763075 0.43708,-32.654101 0.43707,31.487581 0.43708,-36.43696 0.43708,5.853693 0.43707,0.08697 0.43708,6.324087 0.43708,26.5863 0.87415,-44.392723 0.43708,1.69422 0.43707,26.751148 0.43708,-22.172952 0.43708,40.614007 0.43708,-29.895913 0.43707,-0.387343 0.43708,-3.184202 0.43708,0.337006 0.87415,30.979202 0.43708,4.67771 0.43707,-45.129355 0.43708,27.611949 0.43708,-6.772885 0.43707,-13.477639 0.43708,24.62183 0.43708,-29.150432 0.43708,37.410902 0.43707,-19.15218 0.43708,4.269046 0.43708,-26.971909 0.43707,17.508419 0.43708,3.223993 0.43708,23.241891 0.43707,-0.43852 0.43708,-22.007115 0.43708,10.225595 0.43707,-0.995505 0.43708,15.749135 0.43708,-9.54698 0.43708,-29.094904 0.43707,15.043817 0.43708,9.045267 0.43708,-23.886454 0.43707,3.803532 0.43708,-2.432883 0.43708,10.250813 0.43707,21.700972 0.43708,-26.776679 0.43708,17.332029 0.43707,1.20464 0.43708,-20.194314 0.43708,24.946814 0.43708,3.79284 0.43707,-6.37486 0.43708,-8.366799 0.43708,14.757359 0.43707,-26.257417 0.43708,9.356152 0.43708,15.502975 0.87415,-17.756545 0.43708,16.455245 0.43707,-4.72512 0.43708,-9.477873 0.43708,-0.416269 0.43708,6.743329 0.43707,-11.200146 0.43708,0.663231 0.43708,17.157488 0.43707,-9.287559 0.43708,17.416039 0.43708,-3.45314 0.43707,-17.609129 0.43708,20.118069 0.43708,-0.11517 0.43707,-16.484829 0.43708,18.423369 0.43708,-11.09754 0.43708,8.91906 0.43707,-18.907505 0.43708,0.958145 0.43708,20.29879 0.43707,-16.349443 0.43708,0.01441 0.43708,4.193673 0.43707,7.528 0.43708,1.42116 0.43708,-4.08387 0.43707,4.59594 0.43708,-4.68821 0.43708,7.96603 0.43708,-14.10243 0.43707,11.23496 0.43708,-3.66519 0.43708,-5.39285 0.43707,10.29618 0.43708,-11.97449 0.43708,10.77038 0.43707,-0.43919 0.43708,-9.18834 0.43708,2.34981 0.43707,5.97564 0.43708,-0.81257 0.43708,0.29149 0.43708,-0.34302 0.43707,-4.06766 0.43708,8.54082 0.87415,-4.80148 0.43708,3.85917 0.43708,1.38152 0.43707,-4.43315 0.43708,-1.58903 0.43708,4.37438 0.43708,-0.70883 0.43707,-2.77552 0.43708,4.30388 0.43708,-2.40212 0.43707,-1.66799 0.43708,4.37962 0.43708,-4.05404 0.43707,3.23434 0.43708,-2.9834 0.43708,2.74077 0.43707,-1.76016 0.43708,0.74495 0.43708,-0.42502 0.43707,3.11657 0.43708,-1.37032 0.43708,-1.8525 0.43708,0.80964 0.43707,2.45117 0.43708,-0.66386 0.43708,0.67614 0.43707,-1.34478 0.43708,1.0339 0.43708,0.0451 0.43707,-1.14883 0.43708,0.74071 0.43708,-1.26817 0.43707,1.32192 0.43708,-1.13217 0.43708,0.0259 0.43708,1.15105 0.43707,-0.74842 0.43708,0.97546 0.43708,0.33442 0.43707,-0.20103 0.43708,-1.17155 0.43708,0.90338 0.43707,-0.16629 0.43708,0.0597 0.43708,0.27578 0.43707,-0.65813 0.87416,-0.0396 0.43708,0.22342 0.43707,0.5395 0.43708,0.32437 0.43708,-0.40444 0.87415,-0.11588 0.43708,-0.21277 0.43707,0.54883 0.43708,-0.64797 0.87416,0.74884 0.43707,0.0297 0.43708,-0.43833 0.43708,0.14209 0.43707,-0.4432 0.87416,0.90212 0.43707,-0.35709 0.43708,0.0872 0.43708,-0.56056 0.87415,0.48881 0.43708,0.1901 0.43707,-0.53412 0.43708,0.27729 0.43708,-0.0281 0.43708,-0.45349 0.43707,0.86123 0.43708,0.0429 0.87415,-0.82191 0.43708,0.11771 0.43708,0.59461 0.87415,-0.62092 0.43708,0.61964 0.43707,-0.0892 0.43708,-0.66497 0.43708,0.0417 0.43708,0.50123 0.43707,0.23128 0.43708,-0.49526 0.43708,0.10145 0.43707,-0.93221 1.31123,1.41702 0.43708,-1.07047 0.43708,0.86245 0.43708,-1.5341 0.43707,1.59722 0.43708,-1.59978 0.43708,0.58741 0.43707,0.30677 0.43708,-0.75869 0.43708,0.68647 0.43707,-1.09805 0.43708,1.05045 0.43708,0.66073 0.43708,-1.56969 0.43707,0.31809 0.43708,0.0748 0.87415,-0.98284 0.43708,1.54398 0.43708,-1.15173 0.43707,0.59236 0.43708,1.15561 0.43708,-2.20997 0.43707,0.26709 0.43708,-1.0401 0.43708,0.94455 0.43707,0.60814 0.43708,-0.51077 0.43708,0.54461 1.31123,-0.24712 0.43708,-1.39445 0.43707,-0.99439 0.43708,2.62026 0.43708,1.60254 0.43707,-3.72723 0.43708,2.70693 0.43708,-4.61598 0.43707,3.21351 0.43708,0.85646 0.43708,-1.85187 0.43707,2.14768 0.43708,1.20031 0.43708,-2.52711 0.43708,-4.32178 0.43707,3.99108 0.43708,-4.63461 0.43708,1.9057 0.43707,4.7056 0.43708,-3.76037 0.43708,0.77657 0.43707,0.43057 0.43708,-5.87457 0.43708,7.43483 0.43707,-4.42287 0.43708,5.0798 0.43708,0.0527 0.43708,-0.19993 0.43707,-8.12475 0.43708,0.50346 0.87415,7.67719 0.43708,-5.82809 0.43708,-2.14405 0.43708,1.74331 0.43707,-5.96571 0.43708,8.52433 0.43707,-1.20774 0.43708,6.32846 0.43708,-4.35146 0.43708,3.63389 0.43707,-4.41306 0.43708,-1.57245 0.43708,2.46689 0.43707,-4.25729 0.43708,0.34819 0.43708,5.29809 0.87415,-6.89751 0.87415,-8.117797 0.43708,12.199017 0.43708,-12.10222 0.43708,17.62917 0.43707,-12.85743 0.43708,-4.701175 0.43708,8.826165 0.43707,-6.57861 0.43708,-0.35442 0.87415,12.41473 0.43708,-7.87929 0.43708,4.59053 0.43708,-7.40349 0.43707,8.57027 0.43708,-7.47608 0.43708,11.93784 0.43707,-3.01868 0.43708,-13.476264 0.43708,12.081064 0.43707,-8.47842 0.43708,-6.093274 0.43708,6.663924 0.43708,0.68819 0.43707,12.42377 0.43708,-22.11792 0.43707,7.76283 0.43708,12.64298 0.43708,1.57619 0.43708,-5.32673 0.43707,-17.97386 0.43708,22.54768 0.43708,-14.95791 0.43707,10.47978 0.43708,-17.751216 0.43708,13.253856 0.43707,5.68672 0.43708,-6.29785 0.43708,3.411 0.43707,-14.72597 0.43708,0.475714 0.43708,14.073686 0.43708,-12.927046 0.43707,12.346836 0.43708,-8.60524 0.43708,-0.09229 0.43707,9.93564 0.43708,-15.181928 0.43708,2.998847 0.43707,15.507281 0.43708,-4.53506 0.43708,2.97503 0.43708,-14.5579 0.43707,13.74312 0.43708,-6.92599 0.43708,-9.32216 0.43707,20.6847 0.43708,-19.482048 0.43708,12.061178 0.43707,4.78995 0.43708,-13.342055 0.43708,2.532035 0.43707,8.22688 0.43708,3.76958 0.43708,-9.25932 0.43707,-5.446885 0.43708,12.909605 0.43708,-14.009707 0.43708,18.099857 0.87415,-18.351392 0.43708,-0.512571 0.87415,19.542213 0.43708,-7.46988 0.43708,-3.76888 0.43707,7.46048 0.43708,-11.9169 0.87415,10.83439 0.43708,-12.083229 0.87415,7.062589 0.43708,8.14666 0.43708,-5.51932 0.43707,-0.52535 0.43708,1.43891 0.87415,-8.28307 0.43708,3.49866 0.43708,-0.80998 1.31123,-1.76848 0.43708,10.81629 0.43707,-7.83508 0.43708,-1.93367 0.43708,0.92466 0.43707,8.49863 0.43708,2.6472 0.43708,-0.44077 0.43707,-7.07408 0.43708,6.86782 0.43708,-6.69021 0.43708,4.26307 0.43707,1.82282 0.43708,-6.99395 0.43708,-0.0869 0.43707,5.21798 0.43708,1.96398 0.43708,-7.01916 0.43707,0.84202 0.43708,6.97891 0.43708,-5.7357 0.43708,1.83953 0.43707,4.10924 0.43708,-6.09358 0.43707,6.44787 0.43708,0.35398 0.43708,-3.73666 0.43708,1.30616 0.43707,-0.13916 0.43708,1.43886 0.43708,0.659 0.43707,-2.95602 0.43708,0.61626 0.43708,0.84192 0.43707,-1.44578 0.43708,-0.45576 0.43708,2.76091 0.43707,-0.39606 0.43708,1.52757 0.87416,-0.32355 0.43707,-2.7201 0.43708,2.21307 0.43708,0.19498 0.43707,-0.82964 0.43708,0.7132 0.43708,-1.43469 0.43707,1.47751 0.43708,-0.35788 0.43708,0.71968 0.43708,-1.2407 0.43707,0.73286 0.43708,0.0616 0.43708,-0.19905 0.43707,0.55026 0.43708,0.008 0.43708,-0.20263 0.87415,0.30038 0.43708,0.0351 0.87415,-0.40668 0.43708,0.0469 0.43707,0.53607 0.43708,-0.26742 0.43708,0.189 0.43708,-0.0676 0.43707,0.0707 0.43708,-0.27843 1.31123,0.34017 0.87416,0.13188 0.43707,-0.01 0.43708,-0.2225 0.43707,0.23278 2.62247,-0.10963 8.74154,0.11637 5.68199,-0.004 3.49662,-0.0548 0.43708,-0.0286 0.43707,0.0878 1.31123,-0.10547 0.43708,0.0814 0.43708,-0.15669 0.87415,0.0503 2.18539,-0.0415 0.43707,0.17042 0.87416,-0.41917 0.43708,0.19036 0.43707,0.0569 0.43708,-0.35309 0.43708,0.1205 0.43707,-0.3128 0.43708,0.23704 1.31123,-0.23935 0.43708,0.244 0.43707,-0.46631 0.87416,0.1005 0.43707,-0.16241 0.43708,0.32849 0.43708,0.11604 0.43708,0.25622 0.43707,-0.47613 0.43708,0.5857 0.43708,-1.30286 0.43707,1.40247 0.43708,-2.5039 0.43708,1.49396 0.43708,-1.08718 0.43707,1.14331 0.43708,-1.66487 0.43707,0.33583 0.87416,1.14416 0.43708,-1.98011 0.43707,1.47113 0.43708,0.0158 0.43708,-0.96964 0.43707,-2.17412 0.43708,0.45024 0.43708,4.39625 0.43707,-0.776 0.43708,-4.3393 0.43708,-0.78278 0.43707,4.38695 0.43708,-3.21684 0.43708,4.0516 0.43708,-4.79798 0.43707,-1.11643 0.43708,1.57402 0.43708,-0.0556 0.43707,1.19088 0.43708,-1.29809 0.43708,-3.45166 0.43707,6.61534 0.43708,1.94652 0.43708,-8.96618 0.87415,8.80724 0.43708,-5.98363 0.43708,-1.47184 0.43707,-2.253 0.43708,0.53943 0.43708,-3.17608 0.43707,-0.61295 0.43708,0.37629 0.43708,3.28795 0.43708,-0.39148 0.43707,-3.07024 0.43708,13.00198 0.43707,-2.67832 0.43708,0.65876 0.43708,-14.38073 0.43708,4.32289 0.43707,-1.18957 0.43708,2.1492 0.43708,5.27378 0.43707,-2.32402 0.43708,2.27363 0.43708,-10.4525 0.43707,13.37983 0.43708,2.15237 0.43708,-18.134134 0.43707,0.729199 0.43708,8.191365 0.43708,-8.441734 0.43708,13.359004 0.43707,-3.02466 0.43708,-4.74901 0.43708,-2.68597 0.43707,9.31274 0.43708,-16.066198 0.43708,10.443728 0.43707,4.74581 0.43708,-9.25467 0.43708,-3.061284 0.43708,-0.838913 0.43707,-2.160463 0.43708,2.144089 0.43708,18.801331 0.43707,-3.69676 0.43708,-1.88432 0.43708,-18.841568 0.43707,25.422578 0.43708,-11.98507 0.43708,-2.8968 0.43707,-9.154608 v 0"
           clip-path="url(#p9253371157)"
           style="fill:none;stroke:#1f77b4;stroke-linecap:square;stroke-opacity:0.5"
           id="path2285" />
      </g>
      <g
         id="line2d_12">
        <path
           d="M 38.64,99.187238 H 493.2"
           clip-path="url(#p9253371157)"
           style="fill:none;stroke:#000000;stroke-dasharray:5, 5;stroke-dashoffset:0"
           id="path2288" />
      </g>
      <g
         id="line2d_13">
        <path
           d="M 38.64,110.83355 H 493.2"
           clip-path="url(#p9253371157)"
           style="fill:none;stroke:#d62728;stroke-dasharray:2, 5;stroke-dashoffset:0"
           id="path2291" />
      </g>
      <g
         id="line2d_14">
        <path
           d="M 38.64,93.364085 H 493.2"
           clip-path="url(#p9253371157)"
           style="fill:none;stroke:#d62728;stroke-dasharray:2, 5;stroke-dashoffset:0"
           id="path2294" />
      </g>
      <g
         id="patch_3">
        <path
           d="M 33.64,121 V 25.44"
           style="fill:none;stroke:#7f7f7f;stroke-width:0.8;stroke-linecap:square;stroke-linejoin:miter"
           id="path2297" />
      </g>
      <g
         id="patch_4">
        <path
           d="M 38.64,126 H 493.2"
           style="fill:none;stroke:#7f7f7f;stroke-width:0.8;stroke-linecap:square;stroke-linejoin:miter"
           id="path2300" />
      </g>
      <g
         id="text_11">
        <!-- Vector magnitude -->
        <g
           transform="matrix(0.11,0,0,-0.11,216.89437,19.44)"
           id="g2351">
          <defs
             id="defs2317">
            <path
               id="DejaVuSans-56"
               d="M 1831,0 50,4666 H 709 L 2188,738 3669,4666 h 656 L 2547,0 Z"
               transform="scale(0.015625)" />
            <path
               id="DejaVuSans-65"
               d="M 3597,1894 V 1613 H 953 q 38,-594 358,-905 320,-311 892,-311 331,0 642,81 311,81 618,244 V 178 Q 3153,47 2828,-22 2503,-91 2169,-91 1331,-91 842,396 353,884 353,1716 q 0,859 464,1363 464,505 1252,505 706,0 1117,-455 411,-454 411,-1235 z m -575,169 q -6,471 -264,752 -258,282 -683,282 -481,0 -770,-272 -289,-272 -333,-766 z"
               transform="scale(0.015625)" />
            <path
               id="DejaVuSans-63"
               d="m 3122,3366 v -538 q -244,135 -489,202 -245,67 -495,67 -560,0 -870,-355 -309,-354 -309,-995 0,-641 309,-996 310,-354 870,-354 250,0 495,67 245,67 489,202 V 134 Q 2881,22 2623,-34 2366,-91 2075,-91 1284,-91 818,406 353,903 353,1747 q 0,856 470,1346 471,491 1290,491 265,0 518,-55 253,-54 491,-163 z"
               transform="scale(0.015625)" />
            <path
               id="DejaVuSans-74"
               d="M 1172,4494 V 3500 H 2356 V 3053 H 1172 V 1153 q 0,-428 117,-550 117,-122 477,-122 h 590 V 0 H 1766 Q 1100,0 847,248 594,497 594,1153 V 3053 H 172 v 447 h 422 v 994 z"
               transform="scale(0.015625)" />
            <path
               id="DejaVuSans-6f"
               d="m 1959,3097 q -462,0 -731,-361 -269,-361 -269,-989 0,-628 267,-989 268,-361 733,-361 460,0 728,362 269,363 269,988 0,622 -269,986 -268,364 -728,364 z m 0,487 q 750,0 1178,-488 429,-487 429,-1349 Q 3566,888 3137,398 2709,-91 1959,-91 1206,-91 779,398 353,888 353,1747 q 0,862 426,1349 427,488 1180,488 z"
               transform="scale(0.015625)" />
            <path
               id="DejaVuSans-72"
               d="m 2631,2963 q -97,56 -211,82 -114,27 -251,27 -488,0 -749,-317 -261,-317 -261,-911 V 0 H 581 v 3500 h 578 v -544 q 182,319 472,473 291,155 707,155 59,0 131,-8 72,-7 159,-23 z"
               transform="scale(0.015625)" />
            <path
               id="DejaVuSans-20"
               transform="scale(0.015625)"
               d="" />
            <path
               id="DejaVuSans-6d"
               d="m 3328,2828 q 216,388 516,572 300,184 706,184 547,0 844,-383 297,-382 297,-1088 V 0 h -578 v 2094 q 0,503 -179,746 -178,244 -543,244 -447,0 -707,-297 -259,-296 -259,-809 V 0 h -578 v 2094 q 0,506 -178,748 -178,242 -550,242 -441,0 -701,-298 -259,-298 -259,-808 V 0 H 581 v 3500 h 578 v -544 q 197,322 472,475 275,153 653,153 382,0 649,-194 267,-193 395,-562 z"
               transform="scale(0.015625)" />
            <path
               id="DejaVuSans-61"
               d="m 2194,1759 q -697,0 -966,-159 -269,-159 -269,-544 0,-306 202,-486 202,-179 548,-179 479,0 768,339 289,339 289,901 v 128 z m 1147,238 V 0 H 2766 V 531 Q 2569,213 2275,61 1981,-91 1556,-91 q -537,0 -855,302 -317,302 -317,808 0,590 395,890 396,300 1180,300 h 807 v 57 q 0,397 -261,614 -261,217 -733,217 -300,0 -585,-72 -284,-72 -546,-216 v 532 q 315,122 612,182 297,61 578,61 760,0 1135,-394 375,-393 375,-1193 z"
               transform="scale(0.015625)" />
            <path
               id="DejaVuSans-67"
               d="m 2906,1791 q 0,625 -258,968 -257,344 -723,344 -462,0 -720,-344 -258,-343 -258,-968 0,-622 258,-966 258,-344 720,-344 466,0 723,344 258,344 258,966 z M 3481,434 q 0,-893 -397,-1329 -396,-436 -1215,-436 -303,0 -572,45 -269,45 -522,139 v 559 q 253,-137 500,-202 247,-66 503,-66 566,0 847,295 281,295 281,892 V 616 Q 2728,306 2450,153 2172,0 1784,0 1141,0 747,490 353,981 353,1791 q 0,812 394,1302 394,491 1037,491 388,0 666,-153 278,-153 456,-462 v 531 h 575 z"
               transform="scale(0.015625)" />
            <path
               id="DejaVuSans-6e"
               d="M 3513,2113 V 0 h -575 v 2094 q 0,497 -194,743 -194,247 -581,247 -466,0 -735,-297 -269,-296 -269,-809 V 0 H 581 v 3500 h 578 v -544 q 207,316 486,472 280,156 646,156 603,0 912,-373 310,-373 310,-1098 z"
               transform="scale(0.015625)" />
            <path
               id="DejaVuSans-69"
               d="m 603,3500 h 575 V 0 H 603 Z m 0,1363 h 575 V 4134 H 603 Z"
               transform="scale(0.015625)" />
            <path
               id="DejaVuSans-75"
               d="m 544,1381 v 2119 h 575 V 1403 q 0,-497 193,-746 194,-248 582,-248 465,0 735,297 271,297 271,810 v 1984 h 575 V 0 H 2900 V 538 Q 2691,219 2414,64 2138,-91 1772,-91 1169,-91 856,284 544,659 544,1381 Z m 1447,2203 z"
               transform="scale(0.015625)" />
            <path
               id="DejaVuSans-64"
               d="m 2906,2969 v 1894 h 575 V 0 H 2906 V 525 Q 2725,213 2448,61 2172,-91 1784,-91 1150,-91 751,415 353,922 353,1747 q 0,825 398,1331 399,506 1033,506 388,0 664,-152 277,-151 458,-463 z M 947,1747 q 0,-634 261,-995 261,-361 717,-361 456,0 718,361 263,361 263,995 0,634 -263,995 -262,361 -718,361 -456,0 -717,-361 -261,-361 -261,-995 z"
               transform="scale(0.015625)" />
          </defs>
          <use
             xlink:href="#DejaVuSans-56"
             id="use2319" />
          <use
             xlink:href="#DejaVuSans-65"
             x="60.658203"
             id="use2321" />
          <use
             xlink:href="#DejaVuSans-63"
             x="122.18164"
             id="use2323" />
          <use
             xlink:href="#DejaVuSans-74"
             x="177.16211"
             id="use2325" />
          <use
             xlink:href="#DejaVuSans-6f"
             x="216.37109"
             id="use2327" />
          <use
             xlink:href="#DejaVuSans-72"
             x="277.55273"
             id="use2329" />
          <use
             xlink:href="#DejaVuSans-20"
             x="318.66602"
             id="use2331" />
          <use
             xlink:href="#DejaVuSans-6d"
             x="350.45312"
             id="use2333" />
          <use
             xlink:href="#DejaVuSans-61"
             x="447.86523"
             id="use2335" />
          <use
             xlink:href="#DejaVuSans-67"
             x="509.14453"
             id="use2337" />
          <use
             xlink:href="#DejaVuSans-6e"
             x="572.62109"
             id="use2339" />
          <use
             xlink:href="#DejaVuSans-69"
             x="636"
             id="use2341" />
          <use
             xlink:href="#DejaVuSans-74"
             x="663.7832"
             id="use2343" />
          <use
             xlink:href="#DejaVuSans-75"
             x="702.99219"
             id="use2345" />
          <use
             xlink:href="#DejaVuSans-64"
             x="766.37109"
             id="use2347" />
          <use
             xlink:href="#DejaVuSans-65"
             x="829.84766"
             id="use2349" />
        </g>
      </g>
    </g>
    <g
       id="axes_2">
      <g
         id="patch_5">
        <path
           d="M 38.64,217.02 H 493.2 V 169.24 H 38.64 Z"
           style="fill:#ffffff"
           id="path2355" />
      </g>
      <g
         id="matplotlib.axis_3">
        <g
           id="xtick_7">
          <g
             id="line2d_15">
            <g
               id="g2360">
              <use
                 xlink:href="#m111339a6bb"
                 x="59.301819"
                 y="222.02"
                 style="stroke:#000000;stroke-width:0.8"
                 id="use2358" />
            </g>
          </g>
          <g
             id="text_12">
            <!-- 0 -->
            <g
               transform="matrix(0.1,0,0,-0.1,56.120568,236.61844)"
               id="g2365">
              <use
                 xlink:href="#DejaVuSans-30"
                 id="use2363" />
            </g>
          </g>
        </g>
        <g
           id="xtick_8">
          <g
             id="line2d_16">
            <g
               id="g2371">
              <use
                 xlink:href="#m111339a6bb"
                 x="142.03181"
                 y="222.02"
                 style="stroke:#000000;stroke-width:0.8"
                 id="use2369" />
            </g>
          </g>
          <g
             id="text_13">
            <!-- 2 -->
            <g
               transform="matrix(0.1,0,0,-0.1,138.85057,236.61844)"
               id="g2376">
              <use
                 xlink:href="#DejaVuSans-32"
                 id="use2374" />
            </g>
          </g>
        </g>
        <g
           id="xtick_9">
          <g
             id="line2d_17">
            <g
               id="g2382">
              <use
                 xlink:href="#m111339a6bb"
                 x="224.76183"
                 y="222.02"
                 style="stroke:#000000;stroke-width:0.8"
                 id="use2380" />
            </g>
          </g>
          <g
             id="text_14">
            <!-- 4 -->
            <g
               transform="matrix(0.1,0,0,-0.1,221.58057,236.61844)"
               id="g2387">
              <use
                 xlink:href="#DejaVuSans-34"
                 id="use2385" />
            </g>
          </g>
        </g>
        <g
           id="xtick_10">
          <g
             id="line2d_18">
            <g
               id="g2393">
              <use
                 xlink:href="#m111339a6bb"
                 x="307.49182"
                 y="222.02"
                 style="stroke:#000000;stroke-width:0.8"
                 id="use2391" />
            </g>
          </g>
          <g
             id="text_15">
            <!-- 6 -->
            <g
               transform="matrix(0.1,0,0,-0.1,304.31058,236.61844)"
               id="g2398">
              <use
                 xlink:href="#DejaVuSans-36"
                 id="use2396" />
            </g>
          </g>
        </g>
        <g
           id="xtick_11">
          <g
             id="line2d_19">
            <g
               id="g2404">
              <use
                 xlink:href="#m111339a6bb"
                 x="390.22183"
                 y="222.02"
                 style="stroke:#000000;stroke-width:0.8"
                 id="use2402" />
            </g>
          </g>
          <g
             id="text_16">
            <!-- 8 -->
            <g
               transform="matrix(0.1,0,0,-0.1,387.04058,236.61844)"
               id="g2409">
              <use
                 xlink:href="#DejaVuSans-38"
                 id="use2407" />
            </g>
          </g>
        </g>
        <g
           id="xtick_12">
          <g
             id="line2d_20">
            <g
               id="g2415">
              <use
                 xlink:href="#m111339a6bb"
                 x="472.95184"
                 y="222.02"
                 style="stroke:#000000;stroke-width:0.8"
                 id="use2413" />
            </g>
          </g>
          <g
             id="text_17">
            <!-- 10 -->
            <g
               transform="matrix(0.1,0,0,-0.1,466.58933,236.61844)"
               id="g2422">
              <use
                 xlink:href="#DejaVuSans-31"
                 id="use2418" />
              <use
                 xlink:href="#DejaVuSans-30"
                 x="63.623047"
                 id="use2420" />
            </g>
          </g>
        </g>
      </g>
      <g
         id="matplotlib.axis_4">
        <g
           id="ytick_5">
          <g
             id="line2d_21">
            <g
               id="g2429">
              <use
                 xlink:href="#mc0de7ce073"
                 x="33.639999"
                 y="214.84818"
                 style="stroke:#000000;stroke-width:0.8"
                 id="use2427" />
            </g>
          </g>
          <g
             id="text_18">
            <!-- 0 -->
            <g
               transform="matrix(0.1,0,0,-0.1,20.2775,218.6474)"
               id="g2434">
              <use
                 xlink:href="#DejaVuSans-30"
                 id="use2432" />
            </g>
          </g>
        </g>
        <g
           id="ytick_6">
          <g
             id="line2d_22">
            <g
               id="g2440">
              <use
                 xlink:href="#mc0de7ce073"
                 x="33.639999"
                 y="171.41182"
                 style="stroke:#000000;stroke-width:0.8"
                 id="use2438" />
            </g>
          </g>
          <g
             id="text_19">
            <!-- 1 -->
            <g
               transform="matrix(0.1,0,0,-0.1,20.2775,175.21104)"
               id="g2445">
              <use
                 xlink:href="#DejaVuSans-31"
                 id="use2443" />
            </g>
          </g>
        </g>
      </g>
      <g
         id="line2d_23">
        <path
           d="m 59.301818,171.41182 h 0.41365 v 43.43636 h 0.41365 v -43.43636 h 0.8273 v 43.43636 h 0.8273 v -43.43636 h 1.24095 v 43.43636 h 0.41365 v -43.43636 h 1.24095 v 43.43636 h 0.8273 v -43.43636 h 2.06825 v 43.43636 h 0.41365 v -43.43636 h 1.240951 v 43.43636 h 0.8273 v -43.43636 h 1.24095 v 43.43636 h 0.41365 v -43.43636 h 0.41365 v 43.43636 h 0.41365 v -43.43636 h 1.24095 v 43.43636 h 0.41365 v -43.43636 h 0.8273 v 43.43636 h 0.8273 v -43.43636 h 4.55015 v 43.43636 h 0.41365 v -43.43636 h 0.41365 v 43.43636 h 0.41365 v -43.43636 h 0.8273 v 43.43636 h 0.8273 v -43.43636 h 0.41365 v 43.43636 h 0.41365 v -43.43636 h 0.8273 v 43.43636 h 0.41365 v -43.43636 h 0.41365 v 43.43636 h 0.41365 v -43.43636 h 0.8273 v 43.43636 h 0.41365 v -43.43636 h 0.8273 v 43.43636 h 0.41365 v -43.43636 h 7.03205 v 43.43636 h 0.41365 v -43.43636 h 0.8273 v 43.43636 h 0.41365 v -43.43636 h 1.24095 v 43.43636 h 0.41365 v -43.43636 h 2.068251 v 43.43636 h 0.41365 v -43.43636 h 1.24095 v 43.43636 h 0.8273 v -43.43636 h 0.41365 v 43.43636 h 0.8273 v -43.43636 h 1.6546 v 43.43636 h 0.41365 v -43.43636 h 0.41365 v 43.43636 h 0.41365 v -43.43636 h 2.4819 v 43.43636 h 0.41365 v -43.43636 h 0.8273 v 43.43636 h 0.41365 v -43.43636 h 0.8273 v 43.43636 h 0.41365 v -43.43636 h 0.8273 v 43.43636 h 0.41365 v -43.43636 h 0.41365 v 43.43636 h 0.41365 v -43.43636 h 0.41365 v 43.43636 h 0.41365 v -43.43636 h 1.24095 v 43.43636 h 0.8273 v -43.43636 h 2.06825 v 43.43636 h 0.41365 v -43.43636 h 0.41365 v 43.43636 h 0.41365 v -43.43636 h 0.41365 v 43.43636 h 0.41365 v -43.43636 h 0.41365 v 43.43636 h 0.41365 v -43.43636 h 1.6546 v 43.43636 h 0.41365 v -43.43636 h 1.6546 v 43.43636 h 1.24095 v -43.43636 h 2.06825 v 43.43636 h 0.41365 v -43.43636 h 0.41365 v 43.43636 h 1.24095 v -43.43636 h 1.24095 v 43.43636 h 0.8273 v -43.43636 h 0.41365 v 43.43636 h 0.8273 v -43.43636 h 0.41365 v 43.43636 h 0.41365 v -43.43636 h 0.41365 v 43.43636 h 0.41365 v -43.43636 h 0.41365 v 43.43636 h 0.41365 v -43.43636 h 1.24095 v 43.43636 h 0.41365 v -43.43636 h 0.8273 v 43.43636 h 5.7911 v -43.43636 h 0.8273 v 43.43636 h 36.4012 v -43.43636 h 0.8273 v 43.43636 h 0.41365 v -43.43636 h 0.41365 v 43.43636 h 0.8273 v -43.43636 h 1.6546 v 43.43636 h 1.24095 v -43.43636 h 1.24095 v 43.43636 h 1.6546 v -43.43636 h 0.41365 v 43.43636 h 0.41365 v -43.43636 h 0.41365 v 43.43636 h 0.8273 v -43.43636 h 0.8273 v 43.43636 h 0.41365 v -43.43636 h 1.24095 v 43.43636 h 0.41365 v -43.43636 h 0.41365 v 43.43636 h 1.24095 v -43.43636 h 0.41365 v 43.43636 h 0.41365 v -43.43636 h 0.8273 v 43.43636 h 0.41365 v -43.43636 h 1.24095 v 43.43636 h 0.8273 v -43.43636 h 1.24095 v 43.43636 h 0.41365 v -43.43636 h 0.8273 v 43.43636 h 0.41365 v -43.43636 h 0.41365 v 43.43636 h 0.41365 v -43.43636 h 1.6546 v 43.43636 h 0.41365 v -43.43636 h 0.41365 v 43.43636 h 0.41365 v -43.43636 h 1.6546 v 43.43636 h 0.41365 v -43.43636 h 0.8273 v 43.43636 h 0.41365 v -43.43636 h 1.24095 v 43.43636 h 0.8273 v -43.43636 h 1.6546 v 43.43636 h 0.41365 v -43.43636 h 0.41365 v 43.43636 h 0.41365 v -43.43636 h 1.6546 v 43.43636 h 0.41365 v -43.43636 h 2.06825 v 43.43636 h 0.41365 v -43.43636 h 2.06825 v 43.43636 h 0.8273 v -43.43636 h 1.6546 v 43.43636 h 0.41365 v -43.43636 h 0.41365 v 43.43636 h 0.41365 v -43.43636 h 2.06825 v 43.43636 h 0.8273 v -43.43636 h 0.41365 v 43.43636 h 1.6546 v -43.43636 h 0.8273 v 43.43636 h 0.41365 v -43.43636 h 1.6546 v 43.43636 h 0.41365 v -43.43636 h 0.41365 v 43.43636 h 0.8273 v -43.43636 h 0.41365 v 43.43636 h 1.24095 v -43.43636 h 0.41365 v 43.43636 h 0.41365 v -43.43636 h 0.8273 v 43.43636 h 0.8273 v -43.43636 h 0.41365 v 43.43636 h 0.8273 v -43.43636 h 0.8273 v 43.43636 h 0.41365 v -43.43636 h 0.8273 v 43.43636 h 0.41365 v -43.43636 h 0.41365 v 43.43636 h 0.8273 v -43.43636 h 0.41365 v 43.43636 h 0.8273 v -43.43636 h 0.41365 v 43.43636 h 1.24095 v -43.43636 h 0.8273 v 43.43636 h 83.55731 v -43.43636 h 0.41365 v 43.43636 h 0.41365 v -43.43636 h 0.41365 v 43.43636 h 0.8273 v -43.43636 h 0.41365 v 43.43636 h 4.9638 v -43.43636 h 0.41365 v 43.43636 h 0.8273 v -43.43636 h 0.41365 v 43.43636 h 1.24095 v -43.43636 h 0.41365 v 43.43636 h 1.6546 v -43.43636 h 0.41365 v 43.43636 h 1.24095 v -43.43636 h 0.41365 v 43.43636 h 1.6546 v -43.43636 h 0.8273 v 43.43636 h 0.41365 v -43.43636 h 0.41365 v 43.43636 h 1.6546 v -43.43636 h 0.8273 v 43.43636 h 1.24095 v -43.43636 h 0.41365 v 43.43636 h 0.8273 v -43.43636 h 0.41365 v 43.43636 h 0.41365 v -43.43636 h 0.41365 v 43.43636 h 0.8273 v -43.43636 h 0.41365 v 43.43636 h 1.6546 v -43.43636 h 0.41365 v 43.43636 h 0.41365 v -43.43636 h 0.41365 v 43.43636 h 0.8273 v -43.43636 h 0.8273 v 43.43636 h 98.86235 v -43.43636 h 0.8273 v 43.43636 h 0.41365 v -43.43636 h 0.41365 v 43.43636 h 2.06825 v -43.43636 h 0.41365 v 43.43636 h 1.24095 v -43.43636 h 1.6546 v 43.43636 h 1.24095 v -43.43636 h 0.41365 v 43.43636 h 1.24095 v -43.43636 h 0.41365 v 0"
           clip-path="url(#p8402d2afc8)"
           style="fill:none;stroke:#000000;stroke-linecap:square"
           id="path2450" />
      </g>
      <g
         id="patch_6">
        <path
           d="M 33.64,217.02 V 169.24"
           style="fill:none;stroke:#7f7f7f;stroke-width:0.8;stroke-linecap:square;stroke-linejoin:miter"
           id="path2453" />
      </g>
      <g
         id="patch_7">
        <path
           d="M 38.64,222.02 H 493.2"
           style="fill:none;stroke:#7f7f7f;stroke-width:0.8;stroke-linecap:square;stroke-linejoin:miter"
           id="path2456" />
      </g>
      <g
         id="text_20">
        <!-- UL use from `from_vec_mag` -->
        <g
           transform="matrix(0.11,0,0,-0.11,185.37594,163.24)"
           id="g2520">
          <defs
             id="defs2466">
            <path
               id="DejaVuSans-55"
               d="m 556,4666 h 635 V 1831 q 0,-750 271,-1080 272,-329 882,-329 606,0 878,329 272,330 272,1080 v 2835 h 634 V 1753 Q 4128,841 3676,375 3225,-91 2344,-91 1459,-91 1007,375 556,841 556,1753 Z"
               transform="scale(0.015625)" />
            <path
               id="DejaVuSans-4c"
               d="m 628,4666 h 631 V 531 H 3531 V 0 H 628 Z"
               transform="scale(0.015625)" />
            <path
               id="DejaVuSans-73"
               d="m 2834,3397 v -544 q -243,125 -506,187 -262,63 -544,63 -428,0 -642,-131 -214,-131 -214,-394 0,-200 153,-314 153,-114 616,-217 l 197,-44 q 612,-131 870,-370 258,-239 258,-667 0,-488 -386,-773 Q 2250,-91 1575,-91 1294,-91 989,-36 684,19 347,128 v 594 q 319,-166 628,-249 309,-82 613,-82 406,0 624,139 219,139 219,392 0,234 -158,359 -157,125 -692,241 l -200,47 q -534,112 -772,345 -237,233 -237,639 0,494 350,762 350,269 994,269 318,0 599,-47 282,-46 519,-140 z"
               transform="scale(0.015625)" />
            <path
               id="DejaVuSans-66"
               d="m 2375,4863 v -479 h -550 q -309,0 -430,-125 -120,-125 -120,-450 v -309 h 947 V 3053 H 1275 V 0 H 697 V 3053 H 147 v 447 h 550 v 244 q 0,584 272,851 272,268 862,268 z"
               transform="scale(0.015625)" />
            <path
               id="DejaVuSans-60"
               d="M 1147,5119 2028,3950 H 1550 L 531,5119 Z"
               transform="scale(0.015625)" />
            <path
               id="DejaVuSans-5f"
               d="m 3263,-1063 v -446 H -63 v 446 z"
               transform="scale(0.015625)" />
            <path
               id="DejaVuSans-76"
               d="M 191,3500 H 800 L 1894,563 2988,3500 h 609 L 2284,0 h -781 z"
               transform="scale(0.015625)" />
          </defs>
          <use
             xlink:href="#DejaVuSans-55"
             id="use2468" />
          <use
             xlink:href="#DejaVuSans-4c"
             x="73.193359"
             id="use2470" />
          <use
             xlink:href="#DejaVuSans-20"
             x="128.90625"
             id="use2472" />
          <use
             xlink:href="#DejaVuSans-75"
             x="160.69336"
             id="use2474" />
          <use
             xlink:href="#DejaVuSans-73"
             x="224.07227"
             id="use2476" />
          <use
             xlink:href="#DejaVuSans-65"
             x="276.17188"
             id="use2478" />
          <use
             xlink:href="#DejaVuSans-20"
             x="337.69531"
             id="use2480" />
          <use
             xlink:href="#DejaVuSans-66"
             x="369.48242"
             id="use2482" />
          <use
             xlink:href="#DejaVuSans-72"
             x="404.6875"
             id="use2484" />
          <use
             xlink:href="#DejaVuSans-6f"
             x="443.55078"
             id="use2486" />
          <use
             xlink:href="#DejaVuSans-6d"
             x="504.73242"
             id="use2488" />
          <use
             xlink:href="#DejaVuSans-20"
             x="602.14453"
             id="use2490" />
          <use
             xlink:href="#DejaVuSans-60"
             x="633.93164"
             id="use2492" />
          <use
             xlink:href="#DejaVuSans-66"
             x="683.93164"
             id="use2494" />
          <use
             xlink:href="#DejaVuSans-72"
             x="719.13672"
             id="use2496" />
          <use
             xlink:href="#DejaVuSans-6f"
             x="758"
             id="use2498" />
          <use
             xlink:href="#DejaVuSans-6d"
             x="819.18164"
             id="use2500" />
          <use
             xlink:href="#DejaVuSans-5f"
             x="916.59375"
             id="use2502" />
          <use
             xlink:href="#DejaVuSans-76"
             x="966.59375"
             id="use2504" />
          <use
             xlink:href="#DejaVuSans-65"
             x="1025.7734"
             id="use2506" />
          <use
             xlink:href="#DejaVuSans-63"
             x="1087.2969"
             id="use2508" />
          <use
             xlink:href="#DejaVuSans-5f"
             x="1142.2773"
             id="use2510" />
          <use
             xlink:href="#DejaVuSans-6d"
             x="1192.2773"
             id="use2512" />
          <use
             xlink:href="#DejaVuSans-61"
             x="1289.6895"
             id="use2514" />
          <use
             xlink:href="#DejaVuSans-67"
             x="1350.9688"
             id="use2516" />
          <use
             xlink:href="#DejaVuSans-60"
             x="1414.4453"
             id="use2518" />
        </g>
      </g>
    </g>
    <g
       id="axes_3">
      <g
         id="patch_8">
        <path
           d="M 38.64,313.04 H 493.2 V 265.26 H 38.64 Z"
           style="fill:#ffffff"
           id="path2524" />
      </g>
      <g
         id="matplotlib.axis_5">
        <g
           id="xtick_13">
          <g
             id="line2d_24">
            <g
               id="g2529">
              <use
                 xlink:href="#m111339a6bb"
                 x="59.301819"
                 y="318.04001"
                 style="stroke:#000000;stroke-width:0.8"
                 id="use2527" />
            </g>
          </g>
          <g
             id="text_21">
            <!-- 0 -->
            <g
               transform="matrix(0.1,0,0,-0.1,56.120568,332.63844)"
               id="g2534">
              <use
                 xlink:href="#DejaVuSans-30"
                 id="use2532" />
            </g>
          </g>
        </g>
        <g
           id="xtick_14">
          <g
             id="line2d_25">
            <g
               id="g2540">
              <use
                 xlink:href="#m111339a6bb"
                 x="142.03181"
                 y="318.04001"
                 style="stroke:#000000;stroke-width:0.8"
                 id="use2538" />
            </g>
          </g>
          <g
             id="text_22">
            <!-- 2 -->
            <g
               transform="matrix(0.1,0,0,-0.1,138.85057,332.63844)"
               id="g2545">
              <use
                 xlink:href="#DejaVuSans-32"
                 id="use2543" />
            </g>
          </g>
        </g>
        <g
           id="xtick_15">
          <g
             id="line2d_26">
            <g
               id="g2551">
              <use
                 xlink:href="#m111339a6bb"
                 x="224.76183"
                 y="318.04001"
                 style="stroke:#000000;stroke-width:0.8"
                 id="use2549" />
            </g>
          </g>
          <g
             id="text_23">
            <!-- 4 -->
            <g
               transform="matrix(0.1,0,0,-0.1,221.58057,332.63844)"
               id="g2556">
              <use
                 xlink:href="#DejaVuSans-34"
                 id="use2554" />
            </g>
          </g>
        </g>
        <g
           id="xtick_16">
          <g
             id="line2d_27">
            <g
               id="g2562">
              <use
                 xlink:href="#m111339a6bb"
                 x="307.49182"
                 y="318.04001"
                 style="stroke:#000000;stroke-width:0.8"
                 id="use2560" />
            </g>
          </g>
          <g
             id="text_24">
            <!-- 6 -->
            <g
               transform="matrix(0.1,0,0,-0.1,304.31058,332.63844)"
               id="g2567">
              <use
                 xlink:href="#DejaVuSans-36"
                 id="use2565" />
            </g>
          </g>
        </g>
        <g
           id="xtick_17">
          <g
             id="line2d_28">
            <g
               id="g2573">
              <use
                 xlink:href="#m111339a6bb"
                 x="390.22183"
                 y="318.04001"
                 style="stroke:#000000;stroke-width:0.8"
                 id="use2571" />
            </g>
          </g>
          <g
             id="text_25">
            <!-- 8 -->
            <g
               transform="matrix(0.1,0,0,-0.1,387.04058,332.63844)"
               id="g2578">
              <use
                 xlink:href="#DejaVuSans-38"
                 id="use2576" />
            </g>
          </g>
        </g>
        <g
           id="xtick_18">
          <g
             id="line2d_29">
            <g
               id="g2584">
              <use
                 xlink:href="#m111339a6bb"
                 x="472.95184"
                 y="318.04001"
                 style="stroke:#000000;stroke-width:0.8"
                 id="use2582" />
            </g>
          </g>
          <g
             id="text_26">
            <!-- 10 -->
            <g
               transform="matrix(0.1,0,0,-0.1,466.58933,332.63844)"
               id="g2591">
              <use
                 xlink:href="#DejaVuSans-31"
                 id="use2587" />
              <use
                 xlink:href="#DejaVuSans-30"
                 x="63.623047"
                 id="use2589" />
            </g>
          </g>
        </g>
        <g
           id="text_27">
          <!-- Time (s) -->
          <g
             transform="matrix(0.1,0,0,-0.1,245.59109,346.31656)"
             id="g2616">
            <defs
               id="defs2598">
              <path
                 id="DejaVuSans-54"
                 d="M -19,4666 H 3928 V 4134 H 2272 V 0 H 1638 V 4134 H -19 Z"
                 transform="scale(0.015625)" />
              <path
                 id="DejaVuSans-28"
                 d="m 1984,4856 q -418,-718 -622,-1422 -203,-703 -203,-1425 0,-721 205,-1429 205,-708 620,-1424 h -500 q -468,735 -701,1444 -233,709 -233,1409 0,697 231,1403 232,707 703,1444 z"
                 transform="scale(0.015625)" />
              <path
                 id="DejaVuSans-29"
                 d="m 513,4856 h 500 q 468,-737 701,-1444 233,-706 233,-1403 0,-700 -233,-1409 -233,-709 -701,-1444 H 513 q 415,716 620,1424 205,708 205,1429 0,722 -205,1425 -205,704 -620,1422 z"
                 transform="scale(0.015625)" />
            </defs>
            <use
               xlink:href="#DejaVuSans-54"
               id="use2600" />
            <use
               xlink:href="#DejaVuSans-69"
               x="57.958984"
               id="use2602" />
            <use
               xlink:href="#DejaVuSans-6d"
               x="85.742188"
               id="use2604" />
            <use
               xlink:href="#DejaVuSans-65"
               x="183.1543"
               id="use2606" />
            <use
               xlink:href="#DejaVuSans-20"
               x="244.67773"
               id="use2608" />
            <use
               xlink:href="#DejaVuSans-28"
               x="276.46484"
               id="use2610" />
            <use
               xlink:href="#DejaVuSans-73"
               x="315.47852"
               id="use2612" />
            <use
               xlink:href="#DejaVuSans-29"
               x="367.57812"
               id="use2614" />
          </g>
        </g>
      </g>
      <g
         id="matplotlib.axis_6">
        <g
           id="ytick_7">
          <g
             id="line2d_30">
            <g
               id="g2622">
              <use
                 xlink:href="#mc0de7ce073"
                 x="33.639999"
                 y="310.86819"
                 style="stroke:#000000;stroke-width:0.8"
                 id="use2620" />
            </g>
          </g>
          <g
             id="text_28">
            <!-- 0 -->
            <g
               transform="matrix(0.1,0,0,-0.1,20.2775,314.6674)"
               id="g2627">
              <use
                 xlink:href="#DejaVuSans-30"
                 id="use2625" />
            </g>
          </g>
        </g>
        <g
           id="ytick_8">
          <g
             id="line2d_31">
            <g
               id="g2633">
              <use
                 xlink:href="#mc0de7ce073"
                 x="33.639999"
                 y="267.43182"
                 style="stroke:#000000;stroke-width:0.8"
                 id="use2631" />
            </g>
          </g>
          <g
             id="text_29">
            <!-- 1 -->
            <g
               transform="matrix(0.1,0,0,-0.1,20.2775,271.23104)"
               id="g2638">
              <use
                 xlink:href="#DejaVuSans-31"
                 id="use2636" />
            </g>
          </g>
        </g>
      </g>
      <g
         id="line2d_32">
        <path
           d="m 59.301818,267.43182 h 0.41365 v 43.43636 h 0.41365 v -43.43636 h 4.9638 v 43.43636 h 0.41365 v -43.43636 h 3.722851 v 43.43636 h 0.8273 v -43.43636 h 1.24095 v 43.43636 h 0.41365 v -43.43636 h 11.16855 v 43.43636 h 0.41365 v -43.43636 h 4.9638 v 43.43636 h 0.41365 v -43.43636 h 12.409501 v 43.43636 h 0.41365 v -43.43636 h 1.24095 v 43.43636 h 0.8273 v -43.43636 h 2.89555 v 43.43636 h 0.41365 v -43.43636 h 4.55015 v 43.43636 h 0.41365 v -43.43636 h 2.06825 v 43.43636 h 0.41365 v -43.43636 h 2.89555 v 43.43636 h 0.8273 v -43.43636 h 8.68665 v 43.43636 h 1.6546 v -43.43636 h 2.4819 v 43.43636 h 1.6546 v -43.43636 h 1.24095 v 43.43636 h 2.4819 v -43.43636 h 0.41365 v 43.43636 h 1.24095 v -43.43636 h 1.24095 v 43.43636 h 44.26055 v -43.43636 h 4.9638 v 43.43636 h 1.24095 v -43.43636 h 0.8273 v 43.43636 h 1.24095 v -43.43636 h 1.24095 v 43.43636 h 1.24095 v -43.43636 h 2.06825 v 43.43636 h 0.41365 v -43.43636 h 0.41365 v 43.43636 h 1.24095 v -43.43636 h 1.6546 v 43.43636 h 0.41365 v -43.43636 h 5.37745 v 43.43636 h 0.41365 v -43.43636 h 1.6546 v 43.43636 h 0.41365 v -43.43636 h 2.4819 v 43.43636 h 0.41365 v -43.43636 h 0.8273 v 43.43636 h 0.41365 v -43.43636 h 1.24095 v 43.43636 h 1.24095 v -43.43636 h 6.6184 v 43.43636 h 0.41365 v -43.43636 h 2.06825 v 43.43636 h 0.8273 v -43.43636 h 4.9638 v 43.43636 h 0.8273 v -43.43636 h 1.24095 v 43.43636 h 0.8273 v -43.43636 h 12.82315 v 43.43636 h 100.51696 v -43.43636 h 0.41365 v 43.43636 h 1.24095 v -43.43636 h 0.8273 v 43.43636 h 122.02675 v -43.43636 h 0.41365 v 43.43636 h 1.24095 v -43.43636 h 0.41365 v 0"
           clip-path="url(#pa32e87ece2)"
           style="fill:none;stroke:#d62728;stroke-linecap:square"
           id="path2643" />
      </g>
      <g
         id="patch_9">
        <path
           d="M 33.64,313.04 V 265.26"
           style="fill:none;stroke:#7f7f7f;stroke-width:0.8;stroke-linecap:square;stroke-linejoin:miter"
           id="path2646" />
      </g>
      <g
         id="patch_10">
        <path
           d="M 38.64,318.04 H 493.2"
           style="fill:none;stroke:#7f7f7f;stroke-width:0.8;stroke-linecap:square;stroke-linejoin:miter"
           id="path2649" />
      </g>
      <g
         id="text_30">
        <!-- UL use from `from_vec_mag_dblth` -->
        <g
           transform="matrix(0.11,0,0,-0.11,168.47289,259.26)"
           id="g2721">
          <defs
             id="defs2655">
            <path
               id="DejaVuSans-62"
               d="m 3116,1747 q 0,634 -261,995 -261,361 -717,361 -457,0 -718,-361 -261,-361 -261,-995 0,-634 261,-995 261,-361 718,-361 456,0 717,361 261,361 261,995 z M 1159,2969 q 182,312 458,463 277,152 661,152 638,0 1036,-506 399,-506 399,-1331 Q 3713,922 3314,415 2916,-91 2278,-91 1894,-91 1617,61 1341,213 1159,525 V 0 H 581 v 4863 h 578 z"
               transform="scale(0.015625)" />
            <path
               id="DejaVuSans-6c"
               d="m 603,4863 h 575 V 0 H 603 Z"
               transform="scale(0.015625)" />
            <path
               id="DejaVuSans-68"
               d="M 3513,2113 V 0 h -575 v 2094 q 0,497 -194,743 -194,247 -581,247 -466,0 -735,-297 -269,-296 -269,-809 V 0 H 581 v 4863 h 578 V 2956 q 207,316 486,472 280,156 646,156 603,0 912,-373 310,-373 310,-1098 z"
               transform="scale(0.015625)" />
          </defs>
          <use
             xlink:href="#DejaVuSans-55"
             id="use2657" />
          <use
             xlink:href="#DejaVuSans-4c"
             x="73.193359"
             id="use2659" />
          <use
             xlink:href="#DejaVuSans-20"
             x="128.90625"
             id="use2661" />
          <use
             xlink:href="#DejaVuSans-75"
             x="160.69336"
             id="use2663" />
          <use
             xlink:href="#DejaVuSans-73"
             x="224.07227"
             id="use2665" />
          <use
             xlink:href="#DejaVuSans-65"
             x="276.17188"
             id="use2667" />
          <use
             xlink:href="#DejaVuSans-20"
             x="337.69531"
             id="use2669" />
          <use
             xlink:href="#DejaVuSans-66"
             x="369.48242"
             id="use2671" />
          <use
             xlink:href="#DejaVuSans-72"
             x="404.6875"
             id="use2673" />
          <use
             xlink:href="#DejaVuSans-6f"
             x="443.55078"
             id="use2675" />
          <use
             xlink:href="#DejaVuSans-6d"
             x="504.73242"
             id="use2677" />
          <use
             xlink:href="#DejaVuSans-20"
             x="602.14453"
             id="use2679" />
          <use
             xlink:href="#DejaVuSans-60"
             x="633.93164"
             id="use2681" />
          <use
             xlink:href="#DejaVuSans-66"
             x="683.93164"
             id="use2683" />
          <use
             xlink:href="#DejaVuSans-72"
             x="719.13672"
             id="use2685" />
          <use
             xlink:href="#DejaVuSans-6f"
             x="758"
             id="use2687" />
          <use
             xlink:href="#DejaVuSans-6d"
             x="819.18164"
             id="use2689" />
          <use
             xlink:href="#DejaVuSans-5f"
             x="916.59375"
             id="use2691" />
          <use
             xlink:href="#DejaVuSans-76"
             x="966.59375"
             id="use2693" />
          <use
             xlink:href="#DejaVuSans-65"
             x="1025.7734"
             id="use2695" />
          <use
             xlink:href="#DejaVuSans-63"
             x="1087.2969"
             id="use2697" />
          <use
             xlink:href="#DejaVuSans-5f"
             x="1142.2773"
             id="use2699" />
          <use
             xlink:href="#DejaVuSans-6d"
             x="1192.2773"
             id="use2701" />
          <use
             xlink:href="#DejaVuSans-61"
             x="1289.6895"
             id="use2703" />
          <use
             xlink:href="#DejaVuSans-67"
             x="1350.9688"
             id="use2705" />
          <use
             xlink:href="#DejaVuSans-5f"
             x="1414.4453"
             id="use2707" />
          <use
             xlink:href="#DejaVuSans-64"
             x="1464.4453"
             id="use2709" />
          <use
             xlink:href="#DejaVuSans-62"
             x="1527.9219"
             id="use2711" />
          <use
             xlink:href="#DejaVuSans-6c"
             x="1591.3984"
             id="use2713" />
          <use
             xlink:href="#DejaVuSans-74"
             x="1619.1816"
             id="use2715" />
          <use
             xlink:href="#DejaVuSans-68"
             x="1658.3906"
             id="use2717" />
          <use
             xlink:href="#DejaVuSans-60"
             x="1721.7695"
             id="use2719" />
        </g>
      </g>
    </g>
  </g>
  <defs
     id="defs2735">
    <clipPath
       id="p9253371157">
      <rect
         x="38.639999"
         y="25.440001"
         width="454.56"
         height="95.559998"
         id="rect2726" />
    </clipPath>
    <clipPath
       id="p8402d2afc8">
      <rect
         x="38.639999"
         y="169.24001"
         width="454.56"
         height="47.779999"
         id="rect2729" />
    </clipPath>
    <clipPath
       id="pa32e87ece2">
      <rect
         x="38.639999"
         y="265.26001"
         width="454.56"
         height="47.779999"
         id="rect2732" />
    </clipPath>
  </defs>
</svg>
