<?xml version="1.0" encoding="utf-8" standalone="no"?>
<!DOCTYPE svg PUBLIC "-//W3C//DTD SVG 1.1//EN"
  "http://www.w3.org/Graphics/SVG/1.1/DTD/svg11.dtd">
<svg xmlns:xlink="http://www.w3.org/1999/xlink" width="504pt" height="288pt" viewBox="0 0 504 288" xmlns="http://www.w3.org/2000/svg" version="1.1">
 <metadata>
  <rdf:RDF xmlns:dc="http://purl.org/dc/elements/1.1/" xmlns:cc="http://creativecommons.org/ns#" xmlns:rdf="http://www.w3.org/1999/02/22-rdf-syntax-ns#">
   <cc:Work>
    <dc:type rdf:resource="http://purl.org/dc/dcmitype/StillImage"/>
    <dc:date>2024-07-09T08:55:42.109147</dc:date>
    <dc:format>image/svg+xml</dc:format>
    <dc:creator>
     <cc:Agent>
      <dc:title>Matplotlib v3.6.1, https://matplotlib.org/</dc:title>
     </cc:Agent>
    </dc:creator>
   </cc:Work>
  </rdf:RDF>
 </metadata>
 <defs>
  <style type="text/css">*{stroke-linejoin: round; stroke-linecap: butt}</style>
 </defs>
 <g id="figure_1">
  <g id="patch_1">
   <path d="M 0 288 
L 504 288 
L 504 0 
L 0 0 
z
" style="fill: #ffffff"/>
  </g>
  <g id="axes_1">
   <g id="patch_2">
    <path d="M 47.01 116.52 
L 493.2 116.52 
L 493.2 25.44 
L 47.01 25.44 
z
" style="fill: #ffffff"/>
   </g>
   <g id="matplotlib.axis_1">
    <g id="xtick_1">
     <g id="line2d_1">
      <defs>
       <path id="mf02a56d0ce" d="M 0 0 
L 0 3.5 
" style="stroke: #000000; stroke-width: 0.8"/>
      </defs>
      <g>
       <use xlink:href="#mf02a56d0ce" x="67.291364" y="121.52" style="stroke: #000000; stroke-width: 0.8"/>
      </g>
     </g>
     <g id="text_1">
      <!-- 0 -->
      <g transform="translate(64.110114 136.118437) scale(0.1 -0.1)">
       <defs>
        <path id="DejaVuSans-30" d="M 2034 4250 
Q 1547 4250 1301 3770 
Q 1056 3291 1056 2328 
Q 1056 1369 1301 889 
Q 1547 409 2034 409 
Q 2525 409 2770 889 
Q 3016 1369 3016 2328 
Q 3016 3291 2770 3770 
Q 2525 4250 2034 4250 
z
M 2034 4750 
Q 2819 4750 3233 4129 
Q 3647 3509 3647 2328 
Q 3647 1150 3233 529 
Q 2819 -91 2034 -91 
Q 1250 -91 836 529 
Q 422 1150 422 2328 
Q 422 3509 836 4129 
Q 1250 4750 2034 4750 
z
" transform="scale(0.015625)"/>
       </defs>
       <use xlink:href="#DejaVuSans-30"/>
      </g>
     </g>
    </g>
    <g id="xtick_2">
     <g id="line2d_2">
      <g>
       <use xlink:href="#mf02a56d0ce" x="134.952293" y="121.52" style="stroke: #000000; stroke-width: 0.8"/>
      </g>
     </g>
     <g id="text_2">
      <!-- 2 -->
      <g transform="translate(131.771043 136.118437) scale(0.1 -0.1)">
       <defs>
        <path id="DejaVuSans-32" d="M 1228 531 
L 3431 531 
L 3431 0 
L 469 0 
L 469 531 
Q 828 903 1448 1529 
Q 2069 2156 2228 2338 
Q 2531 2678 2651 2914 
Q 2772 3150 2772 3378 
Q 2772 3750 2511 3984 
Q 2250 4219 1831 4219 
Q 1534 4219 1204 4116 
Q 875 4013 500 3803 
L 500 4441 
Q 881 4594 1212 4672 
Q 1544 4750 1819 4750 
Q 2544 4750 2975 4387 
Q 3406 4025 3406 3419 
Q 3406 3131 3298 2873 
Q 3191 2616 2906 2266 
Q 2828 2175 2409 1742 
Q 1991 1309 1228 531 
z
" transform="scale(0.015625)"/>
       </defs>
       <use xlink:href="#DejaVuSans-32"/>
      </g>
     </g>
    </g>
    <g id="xtick_3">
     <g id="line2d_3">
      <g>
       <use xlink:href="#mf02a56d0ce" x="202.613223" y="121.52" style="stroke: #000000; stroke-width: 0.8"/>
      </g>
     </g>
     <g id="text_3">
      <!-- 4 -->
      <g transform="translate(199.431973 136.118437) scale(0.1 -0.1)">
       <defs>
        <path id="DejaVuSans-34" d="M 2419 4116 
L 825 1625 
L 2419 1625 
L 2419 4116 
z
M 2253 4666 
L 3047 4666 
L 3047 1625 
L 3713 1625 
L 3713 1100 
L 3047 1100 
L 3047 0 
L 2419 0 
L 2419 1100 
L 313 1100 
L 313 1709 
L 2253 4666 
z
" transform="scale(0.015625)"/>
       </defs>
       <use xlink:href="#DejaVuSans-34"/>
      </g>
     </g>
    </g>
    <g id="xtick_4">
     <g id="line2d_4">
      <g>
       <use xlink:href="#mf02a56d0ce" x="270.274152" y="121.52" style="stroke: #000000; stroke-width: 0.8"/>
      </g>
     </g>
     <g id="text_4">
      <!-- 6 -->
      <g transform="translate(267.092902 136.118437) scale(0.1 -0.1)">
       <defs>
        <path id="DejaVuSans-36" d="M 2113 2584 
Q 1688 2584 1439 2293 
Q 1191 2003 1191 1497 
Q 1191 994 1439 701 
Q 1688 409 2113 409 
Q 2538 409 2786 701 
Q 3034 994 3034 1497 
Q 3034 2003 2786 2293 
Q 2538 2584 2113 2584 
z
M 3366 4563 
L 3366 3988 
Q 3128 4100 2886 4159 
Q 2644 4219 2406 4219 
Q 1781 4219 1451 3797 
Q 1122 3375 1075 2522 
Q 1259 2794 1537 2939 
Q 1816 3084 2150 3084 
Q 2853 3084 3261 2657 
Q 3669 2231 3669 1497 
Q 3669 778 3244 343 
Q 2819 -91 2113 -91 
Q 1303 -91 875 529 
Q 447 1150 447 2328 
Q 447 3434 972 4092 
Q 1497 4750 2381 4750 
Q 2619 4750 2861 4703 
Q 3103 4656 3366 4563 
z
" transform="scale(0.015625)"/>
       </defs>
       <use xlink:href="#DejaVuSans-36"/>
      </g>
     </g>
    </g>
    <g id="xtick_5">
     <g id="line2d_5">
      <g>
       <use xlink:href="#mf02a56d0ce" x="337.935082" y="121.52" style="stroke: #000000; stroke-width: 0.8"/>
      </g>
     </g>
     <g id="text_5">
      <!-- 8 -->
      <g transform="translate(334.753832 136.118437) scale(0.1 -0.1)">
       <defs>
        <path id="DejaVuSans-38" d="M 2034 2216 
Q 1584 2216 1326 1975 
Q 1069 1734 1069 1313 
Q 1069 891 1326 650 
Q 1584 409 2034 409 
Q 2484 409 2743 651 
Q 3003 894 3003 1313 
Q 3003 1734 2745 1975 
Q 2488 2216 2034 2216 
z
M 1403 2484 
Q 997 2584 770 2862 
Q 544 3141 544 3541 
Q 544 4100 942 4425 
Q 1341 4750 2034 4750 
Q 2731 4750 3128 4425 
Q 3525 4100 3525 3541 
Q 3525 3141 3298 2862 
Q 3072 2584 2669 2484 
Q 3125 2378 3379 2068 
Q 3634 1759 3634 1313 
Q 3634 634 3220 271 
Q 2806 -91 2034 -91 
Q 1263 -91 848 271 
Q 434 634 434 1313 
Q 434 1759 690 2068 
Q 947 2378 1403 2484 
z
M 1172 3481 
Q 1172 3119 1398 2916 
Q 1625 2713 2034 2713 
Q 2441 2713 2670 2916 
Q 2900 3119 2900 3481 
Q 2900 3844 2670 4047 
Q 2441 4250 2034 4250 
Q 1625 4250 1398 4047 
Q 1172 3844 1172 3481 
z
" transform="scale(0.015625)"/>
       </defs>
       <use xlink:href="#DejaVuSans-38"/>
      </g>
     </g>
    </g>
    <g id="xtick_6">
     <g id="line2d_6">
      <g>
       <use xlink:href="#mf02a56d0ce" x="405.596011" y="121.52" style="stroke: #000000; stroke-width: 0.8"/>
      </g>
     </g>
     <g id="text_6">
      <!-- 10 -->
      <g transform="translate(399.233511 136.118437) scale(0.1 -0.1)">
       <defs>
        <path id="DejaVuSans-31" d="M 794 531 
L 1825 531 
L 1825 4091 
L 703 3866 
L 703 4441 
L 1819 4666 
L 2450 4666 
L 2450 531 
L 3481 531 
L 3481 0 
L 794 0 
L 794 531 
z
" transform="scale(0.015625)"/>
       </defs>
       <use xlink:href="#DejaVuSans-31"/>
       <use xlink:href="#DejaVuSans-30" x="63.623047"/>
      </g>
     </g>
    </g>
    <g id="xtick_7">
     <g id="line2d_7">
      <g>
       <use xlink:href="#mf02a56d0ce" x="473.256941" y="121.52" style="stroke: #000000; stroke-width: 0.8"/>
      </g>
     </g>
     <g id="text_7">
      <!-- 12 -->
      <g transform="translate(466.894441 136.118437) scale(0.1 -0.1)">
       <use xlink:href="#DejaVuSans-31"/>
       <use xlink:href="#DejaVuSans-32" x="63.623047"/>
      </g>
     </g>
    </g>
   </g>
   <g id="matplotlib.axis_2">
    <g id="ytick_1">
     <g id="line2d_8">
      <defs>
       <path id="m1217f4a381" d="M 0 0 
L -3.5 0 
" style="stroke: #000000; stroke-width: 0.8"/>
      </defs>
      <g>
       <use xlink:href="#m1217f4a381" x="42.01" y="112.38" style="stroke: #000000; stroke-width: 0.8"/>
      </g>
     </g>
     <g id="text_8">
      <!-- 0 -->
      <g transform="translate(28.6475 116.179219) scale(0.1 -0.1)">
       <use xlink:href="#DejaVuSans-30"/>
      </g>
     </g>
    </g>
    <g id="ytick_2">
     <g id="line2d_9">
      <g>
       <use xlink:href="#m1217f4a381" x="42.01" y="70.246396" style="stroke: #000000; stroke-width: 0.8"/>
      </g>
     </g>
     <g id="text_9">
      <!-- 1 -->
      <g transform="translate(28.6475 74.045615) scale(0.1 -0.1)">
       <use xlink:href="#DejaVuSans-31"/>
      </g>
     </g>
    </g>
    <g id="ytick_3">
     <g id="line2d_10">
      <g>
       <use xlink:href="#m1217f4a381" x="42.01" y="28.112792" style="stroke: #000000; stroke-width: 0.8"/>
      </g>
     </g>
     <g id="text_10">
      <!-- 2 -->
      <g transform="translate(28.6475 31.912011) scale(0.1 -0.1)">
       <use xlink:href="#DejaVuSans-32"/>
      </g>
     </g>
    </g>
   </g>
   <g id="line2d_11">
    <path d="M 67.291364 112.38 
L 134.952293 112.38 
L 135.290598 56.48567 
L 135.628902 82.126887 
L 136.305512 110.412765 
L 136.643816 107.032217 
L 136.982121 58.487001 
L 137.320426 76.481058 
L 137.65873 70.03218 
L 137.997035 41.798866 
L 138.33534 34.634703 
L 138.673644 95.399308 
L 139.011949 60.612781 
L 139.350254 91.88053 
L 139.688558 110.776986 
L 140.026863 53.685158 
L 140.365168 87.686585 
L 140.703472 82.881311 
L 141.380082 48.850733 
L 141.718386 64.452545 
L 142.056691 46.103216 
L 142.394995 91.674023 
L 142.7333 52.175838 
L 143.071605 98.423953 
L 143.409909 41.000058 
L 143.748214 61.058777 
L 144.086519 96.350374 
L 144.424823 42.172276 
L 144.763128 58.419452 
L 145.101433 93.701868 
L 145.439737 96.750512 
L 145.778042 74.559041 
L 146.116347 110.514406 
L 146.792956 81.755701 
L 147.131261 85.509743 
L 147.469565 79.228596 
L 147.80787 92.610351 
L 148.484479 51.39758 
L 148.822784 104.119721 
L 149.161088 76.180913 
L 149.499393 103.181646 
L 149.837698 62.681475 
L 150.176002 85.049928 
L 150.514307 73.547393 
L 150.852612 99.852723 
L 151.190916 102.527541 
L 151.529221 79.34558 
L 151.867526 88.429698 
L 152.20583 49.361104 
L 152.544135 61.356306 
L 152.88244 62.724477 
L 153.220744 52.753132 
L 153.559049 106.904916 
L 153.897353 76.332915 
L 154.235658 74.43189 
L 154.573963 50.266595 
L 154.912267 93.62019 
L 155.250572 97.002231 
L 155.588877 106.012196 
L 155.927181 111.342844 
L 156.265486 54.041987 
L 156.603791 70.582303 
L 156.942095 63.683284 
L 157.2804 95.011474 
L 157.618705 76.447635 
L 157.957009 108.485198 
L 158.633619 53.592798 
L 158.971923 60.001058 
L 159.310228 92.30172 
L 159.648532 55.657002 
L 159.986837 98.801592 
L 160.325142 57.116015 
L 160.663446 57.945665 
L 161.340056 76.419898 
L 161.67836 62.856708 
L 162.016665 95.898235 
L 162.35497 64.966357 
L 162.693274 78.118053 
L 163.031579 111.651302 
L 163.369884 93.404026 
L 163.708188 104.343938 
L 164.046493 59.516401 
L 164.384798 86.817508 
L 164.723102 86.003252 
L 165.061407 78.729275 
L 165.738016 105.287958 
L 166.076321 70.12818 
L 166.414625 102.7011 
L 166.75293 86.522591 
L 167.091235 101.128976 
L 167.429539 107.512944 
L 167.767844 69.849822 
L 168.106149 64.792082 
L 168.444453 65.783061 
L 168.782758 68.793266 
L 169.121063 75.487287 
L 169.459367 96.640848 
L 169.797672 108.582375 
L 170.135977 93.481277 
L 170.474281 101.70017 
L 171.150891 109.967897 
L 171.489195 79.92628 
L 171.8275 111.87369 
L 172.165804 78.562642 
L 172.504109 105.993038 
L 172.842414 108.957106 
L 173.180718 108.560936 
L 173.519023 84.019107 
L 173.857328 102.128711 
L 174.533937 89.563071 
L 174.872242 77.514113 
L 175.210546 83.229288 
L 175.548851 101.654986 
L 175.887156 107.218826 
L 176.22546 110.229627 
L 176.563765 100.794531 
L 176.90207 102.421073 
L 177.578679 86.991776 
L 177.916983 86.823976 
L 178.255288 102.082424 
L 178.593593 98.739256 
L 178.931897 105.951458 
L 179.270202 84.724536 
L 179.608507 110.409846 
L 179.946811 88.513278 
L 180.285116 86.037727 
L 180.623421 86.402088 
L 180.961725 103.817939 
L 181.30003 100.196144 
L 181.638335 93.46897 
L 181.976639 103.711189 
L 182.314944 100.747558 
L 182.653249 106.279212 
L 182.991553 98.329448 
L 183.329858 111.034951 
L 183.668162 88.588955 
L 184.006467 110.121766 
L 184.344772 97.363097 
L 184.683076 103.622411 
L 185.021381 96.12455 
L 185.359686 85.756552 
L 185.69799 94.721173 
L 186.036295 111.426628 
L 186.3746 100.945186 
L 186.712904 99.029298 
L 187.051209 98.553144 
L 187.389514 95.072412 
L 187.727818 105.436078 
L 188.066123 109.206119 
L 188.404428 102.85841 
L 188.742732 89.553096 
L 189.081037 107.984553 
L 189.419341 91.487372 
L 189.757646 100.015632 
L 190.095951 102.161783 
L 190.434255 92.981622 
L 190.77256 102.463364 
L 191.110865 96.986721 
L 191.449169 104.043728 
L 191.787474 93.821067 
L 192.125779 98.463477 
L 192.464083 98.520698 
L 192.802388 106.004696 
L 193.140693 97.925876 
L 193.478997 100.455192 
L 193.817302 107.963964 
L 194.155607 109.482007 
L 194.493911 98.278181 
L 194.832216 95.724009 
L 195.170521 104.579974 
L 195.508825 102.517436 
L 195.84713 98.352953 
L 196.185434 105.054431 
L 196.523739 97.44271 
L 196.862044 103.533131 
L 197.200348 100.034226 
L 197.538653 99.001437 
L 197.876958 100.63496 
L 198.215262 110.134484 
L 198.553567 103.718173 
L 198.891872 107.015942 
L 199.230176 111.554977 
L 199.568481 106.930707 
L 199.906786 109.133605 
L 200.24509 101.978322 
L 200.583395 111.981823 
L 200.9217 101.195306 
L 201.260004 108.338172 
L 201.598309 108.425111 
L 201.936613 112.203588 
L 202.274918 110.430656 
L 202.613223 112.38 
L 236.105383 112.38 
L 236.443688 111.842834 
L 236.781992 111.689063 
L 237.120297 111.341731 
L 237.458601 110.798237 
L 237.796906 111.632634 
L 238.135211 110.18189 
L 238.473515 110.206919 
L 238.81182 112.250213 
L 239.488429 111.055695 
L 239.826734 112.052965 
L 240.165039 111.234595 
L 240.503343 109.825194 
L 241.179953 110.018829 
L 241.518257 109.558924 
L 241.856562 111.529393 
L 242.194867 110.898703 
L 242.871476 108.234464 
L 243.88639 112.219369 
L 244.224694 108.459406 
L 244.562999 112.334827 
L 244.901304 110.164945 
L 245.239608 109.111273 
L 245.577913 106.494783 
L 245.916218 111.788704 
L 246.254522 109.60524 
L 246.592827 112.208174 
L 247.269436 107.68756 
L 247.607741 110.207851 
L 247.946046 110.695857 
L 248.28435 111.422162 
L 248.622655 107.456472 
L 248.96096 106.270826 
L 249.299264 106.301502 
L 249.637569 103.547561 
L 249.975873 112.354119 
L 250.314178 106.009453 
L 250.652483 106.306693 
L 250.990787 106.262384 
L 251.329092 102.107543 
L 251.667397 112.19523 
L 252.005701 104.554051 
L 252.344006 103.002847 
L 252.682311 106.356395 
L 253.020615 108.335836 
L 253.35892 102.568325 
L 253.697225 111.144362 
L 254.035529 106.629236 
L 254.373834 105.456494 
L 254.712139 102.925219 
L 255.050443 111.113406 
L 255.388748 109.134292 
L 256.065357 103.100463 
L 256.403662 98.88877 
L 256.741966 102.765876 
L 257.080271 110.262745 
L 257.418576 96.499614 
L 257.75688 97.970944 
L 258.095185 103.902073 
L 258.43349 96.513314 
L 258.771794 102.882344 
L 259.110099 95.865053 
L 259.448404 97.248867 
L 259.786708 94.388552 
L 260.125013 94.967373 
L 260.463318 111.685121 
L 260.801622 108.947614 
L 261.139927 104.598628 
L 261.478231 92.997993 
L 261.816536 106.164008 
L 262.154841 108.997039 
L 262.493145 93.370615 
L 262.83145 102.641459 
L 263.169755 92.23776 
L 263.508059 108.765483 
L 263.846364 97.219046 
L 264.184669 102.118197 
L 264.522973 110.56832 
L 264.861278 95.618984 
L 265.199583 106.331735 
L 265.537887 111.396318 
L 265.876192 110.868459 
L 266.214497 110.816238 
L 266.552801 88.787252 
L 266.891106 92.861246 
L 267.22941 88.336721 
L 267.567715 94.108971 
L 267.90602 97.80237 
L 268.244324 103.868856 
L 268.582629 84.084172 
L 268.920934 101.966176 
L 269.259238 98.659341 
L 269.597543 101.201296 
L 269.935848 83.036446 
L 270.274152 107.077228 
L 270.612457 102.289135 
L 270.950762 91.172014 
L 271.289066 110.383929 
L 271.627371 92.955292 
L 271.965676 96.905465 
L 272.30398 103.062564 
L 272.642285 104.460096 
L 272.98059 95.076186 
L 273.318894 99.854073 
L 273.657199 96.649036 
L 273.995503 100.611116 
L 274.333808 78.132739 
L 274.672113 107.615603 
L 275.010417 108.883317 
L 275.687027 90.537726 
L 276.025331 87.743362 
L 276.363636 97.366179 
L 276.701941 74.194539 
L 277.040245 98.785407 
L 277.37855 84.207053 
L 277.716855 87.212602 
L 278.393464 73.023836 
L 278.731769 76.133682 
L 279.070073 80.913067 
L 279.408378 83.348172 
L 279.746682 98.28928 
L 280.084987 106.11507 
L 280.423292 109.696546 
L 281.099901 93.496047 
L 281.438206 89.357169 
L 282.114815 69.287804 
L 282.45312 107.057533 
L 282.791424 107.48062 
L 283.129729 85.132338 
L 283.806338 72.479408 
L 284.144643 67.963113 
L 284.482948 65.29342 
L 284.821252 93.070683 
L 285.159557 93.852456 
L 285.497861 105.118225 
L 285.836166 78.445138 
L 286.174471 79.568779 
L 286.512775 68.955594 
L 286.85108 107.440707 
L 287.189385 86.895124 
L 287.527689 82.391294 
L 287.865994 99.814575 
L 288.204299 103.518414 
L 288.542603 66.963546 
L 288.880908 109.263451 
L 289.219213 87.131931 
L 289.557517 106.118809 
L 289.895822 87.490107 
L 290.234127 58.620298 
L 290.572431 88.966002 
L 290.910736 64.672711 
L 291.24904 105.803522 
L 291.92565 89.424178 
L 292.263954 89.492929 
L 292.602259 73.683399 
L 292.940564 92.376662 
L 293.278868 70.68352 
L 293.617173 74.792435 
L 293.955478 88.753097 
L 294.293782 86.657548 
L 294.632087 75.53387 
L 294.970392 108.153701 
L 295.308696 62.444791 
L 295.647001 72.458853 
L 295.985306 67.731086 
L 296.32361 79.174399 
L 296.661915 105.506595 
L 297.00022 87.030831 
L 297.338524 86.860768 
L 297.676829 92.052315 
L 298.015133 110.47274 
L 298.353438 65.164931 
L 298.691743 105.309818 
L 299.030047 73.117218 
L 299.368352 66.592489 
L 299.706657 70.82469 
L 300.044961 49.255838 
L 300.383266 105.545748 
L 300.721571 54.708739 
L 301.059875 110.428696 
L 301.39818 76.4401 
L 301.736485 85.083321 
L 302.074789 76.808741 
L 303.089703 111.063397 
L 303.428008 76.537489 
L 303.766312 53.810554 
L 304.104617 86.323996 
L 304.781226 106.706961 
L 305.119531 106.343812 
L 305.457836 96.646922 
L 305.79614 105.242217 
L 306.134445 93.384674 
L 306.47275 107.619307 
L 306.811054 107.639081 
L 307.149359 50.250534 
L 307.487664 100.569912 
L 307.825968 71.447862 
L 308.164273 55.594159 
L 308.840882 101.034304 
L 309.179187 97.55982 
L 309.517491 80.113179 
L 309.855796 72.873479 
L 310.194101 86.152969 
L 310.532405 53.522314 
L 310.87071 55.622522 
L 311.209015 42.071072 
L 311.547319 110.177301 
L 311.885624 44.014132 
L 312.223929 82.320242 
L 312.562233 44.909602 
L 312.900538 59.154676 
L 313.238843 36.073172 
L 313.577147 53.524132 
L 313.915452 84.039528 
L 314.253757 73.314327 
L 314.592061 82.951854 
L 314.930366 83.770299 
L 315.26867 91.869174 
L 315.94528 58.503047 
L 316.283584 90.406269 
L 316.621889 70.729491 
L 316.960194 103.033909 
L 317.298498 99.622308 
L 317.636803 108.635519 
L 317.975108 34.544525 
L 318.313412 112.069777 
L 318.651717 97.997773 
L 318.990022 62.91673 
L 319.328326 105.799186 
L 319.666631 40.911754 
L 320.004936 53.947522 
L 320.34324 33.759403 
L 320.681545 71.0042 
L 321.019849 87.85056 
L 321.358154 67.431405 
L 321.696459 36.109552 
L 322.034763 69.638388 
L 322.373068 90.413617 
L 322.711373 40.138951 
L 323.387982 112.265763 
L 323.726287 91.897519 
L 324.064591 86.027832 
L 324.402896 41.173995 
L 324.741201 74.315355 
L 325.079505 75.426301 
L 325.41781 84.411336 
L 325.756115 39.013987 
L 326.432724 29.58 
L 326.771029 80.900961 
L 327.109333 31.579996 
L 327.447638 46.098104 
L 327.785942 55.778403 
L 328.124247 91.850613 
L 328.462552 94.221487 
L 328.800856 98.441315 
L 329.139161 34.874158 
L 329.477466 87.665905 
L 329.81577 74.28326 
L 330.154075 70.828903 
L 330.49238 46.895338 
L 330.830684 41.311459 
L 331.168989 100.669267 
L 331.507294 76.423356 
L 331.845598 41.375474 
L 332.183903 43.456528 
L 332.522208 103.7503 
L 332.860512 99.202064 
L 333.198817 86.746258 
L 333.537121 106.030109 
L 333.875426 76.60089 
L 334.213731 103.314297 
L 334.552035 64.523235 
L 334.89034 91.61963 
L 335.228645 62.174994 
L 335.566949 102.490743 
L 335.905254 30.297015 
L 336.243559 33.976659 
L 336.581863 79.457052 
L 336.920168 92.040882 
L 337.258473 91.363303 
L 337.596777 71.833892 
L 337.935082 109.02785 
L 338.273387 58.801214 
L 338.611691 78.209989 
L 338.949996 80.8227 
L 339.2883 44.765378 
L 339.626605 53.203657 
L 339.96491 32.811258 
L 340.303214 83.067947 
L 340.641519 37.708392 
L 340.979824 48.3964 
L 341.318128 82.71427 
L 341.656433 60.847726 
L 341.994738 88.490687 
L 342.333042 40.091283 
L 342.671347 103.098504 
L 343.009652 94.868052 
L 343.347956 97.314583 
L 343.686261 79.259014 
L 344.024566 51.235258 
L 344.36287 69.220544 
L 344.701175 72.50272 
L 345.039479 112.335436 
L 345.377784 77.719855 
L 345.716089 107.211584 
L 346.054393 95.476744 
L 346.392698 36.850269 
L 346.731003 94.966827 
L 347.069307 43.134956 
L 347.407612 47.74609 
L 347.745917 99.596546 
L 348.084221 63.835 
L 348.422526 103.13148 
L 348.760831 54.313255 
L 349.099135 61.648796 
L 349.43744 47.92172 
L 349.775745 74.417798 
L 350.114049 40.117635 
L 350.452354 108.49224 
L 350.790659 89.367366 
L 351.128963 56.349961 
L 351.805572 98.903571 
L 352.143877 104.050135 
L 352.482182 49.062008 
L 352.820486 75.835767 
L 353.158791 44.442025 
L 353.497096 56.089676 
L 353.8354 81.026751 
L 354.173705 83.889596 
L 354.51201 73.176683 
L 354.850314 45.009932 
L 355.188619 56.699677 
L 355.526924 111.992174 
L 355.865228 60.317625 
L 356.203533 43.660148 
L 356.541838 59.474505 
L 356.880142 99.247017 
L 357.218447 76.638216 
L 357.556751 102.046832 
L 357.895056 86.043813 
L 358.233361 43.89886 
L 358.571665 45.173632 
L 358.90997 91.874806 
L 359.248275 87.857043 
L 359.586579 69.219846 
L 359.924884 43.406906 
L 360.263189 101.840888 
L 360.601493 94.138797 
L 360.939798 50.626414 
L 361.278103 77.760174 
L 361.616407 49.392595 
L 361.954712 99.440115 
L 362.293017 75.396565 
L 362.631321 89.832105 
L 362.969626 90.607205 
L 363.30793 81.788825 
L 363.646235 82.876527 
L 363.98454 88.154648 
L 364.322844 50.659014 
L 364.661149 63.266224 
L 364.999454 63.795668 
L 365.337758 93.119512 
L 366.014368 61.1551 
L 366.352672 60.354791 
L 366.690977 89.971921 
L 367.029282 62.516327 
L 367.367586 65.041658 
L 367.705891 103.328053 
L 368.044196 57.29981 
L 368.3825 84.469322 
L 368.720805 81.795615 
L 369.059109 84.352457 
L 369.397414 77.093955 
L 369.735719 74.011391 
L 370.074023 81.794464 
L 370.412328 59.489508 
L 371.088937 88.189189 
L 371.427242 87.428223 
L 371.765547 64.137015 
L 372.103851 91.797369 
L 372.780461 108.915684 
L 373.118765 61.615477 
L 373.45707 59.510965 
L 373.795375 105.513399 
L 374.133679 93.391903 
L 374.471984 102.493532 
L 374.810288 105.892352 
L 375.148593 62.366875 
L 375.486898 109.241604 
L 375.825202 58.671825 
L 376.163507 107.135526 
L 376.501812 65.777796 
L 376.840116 82.034618 
L 377.178421 92.821596 
L 377.516726 94.320564 
L 377.85503 72.736304 
L 378.193335 96.04263 
L 378.53164 78.511801 
L 378.869944 85.937622 
L 379.208249 87.791532 
L 379.546554 67.061899 
L 379.884858 84.717223 
L 380.223163 71.483264 
L 380.561468 76.794305 
L 380.899772 110.505002 
L 381.238077 75.10656 
L 381.576381 102.014663 
L 381.914686 69.591192 
L 382.252991 110.364323 
L 382.591295 96.87876 
L 382.9296 107.78022 
L 383.606209 75.248291 
L 383.944514 99.00301 
L 384.282819 105.672386 
L 384.621123 97.841767 
L 384.959428 76.895941 
L 385.297733 106.318574 
L 385.636037 102.658839 
L 385.974342 109.465158 
L 386.312647 82.801164 
L 386.650951 95.980876 
L 386.989256 99.613485 
L 387.32756 83.167924 
L 387.665865 98.863998 
L 388.00417 83.408821 
L 388.342474 80.271324 
L 388.680779 103.898285 
L 389.019084 74.84198 
L 389.357388 106.189678 
L 389.695693 101.412856 
L 390.033998 105.675502 
L 390.710607 94.880072 
L 391.048912 93.562682 
L 391.387216 81.974748 
L 391.725521 81.068024 
L 392.063826 104.722897 
L 392.40213 90.968592 
L 392.740435 108.593556 
L 393.078739 96.982742 
L 393.417044 101.69936 
L 393.755349 102.022763 
L 394.093653 96.785777 
L 394.431958 89.095027 
L 394.770263 110.200985 
L 395.108567 85.047034 
L 395.446872 89.833452 
L 395.785177 107.035872 
L 396.123481 84.322816 
L 396.461786 97.457841 
L 396.800091 83.31454 
L 397.138395 106.724352 
L 397.4767 97.256787 
L 397.815005 104.289233 
L 398.153309 104.021433 
L 398.829918 87.776998 
L 399.844832 98.107886 
L 400.183137 89.196 
L 400.521442 100.192814 
L 400.859746 91.085076 
L 401.198051 92.374099 
L 401.536356 107.331546 
L 401.87466 94.463219 
L 402.212965 112.101816 
L 402.55127 105.122053 
L 402.889574 107.304131 
L 403.566184 96.631094 
L 403.904488 110.328054 
L 404.581098 93.346393 
L 404.919402 107.82453 
L 405.257707 99.130579 
L 405.596011 100.989564 
L 405.934316 112.190202 
L 406.272621 103.572646 
L 406.610925 99.507373 
L 406.94923 111.596506 
L 407.287535 97.011452 
L 407.964144 111.865033 
L 408.302449 108.686127 
L 408.640753 96.999769 
L 409.317363 110.717446 
L 409.993972 105.61052 
L 410.332277 112.076161 
L 410.670581 106.540692 
L 411.008886 105.590029 
L 411.34719 109.075403 
L 411.685495 104.578702 
L 412.0238 102.627215 
L 412.362104 109.397791 
L 412.700409 104.719374 
L 413.038714 104.672931 
L 413.377018 101.229029 
L 413.715323 103.456685 
L 414.053628 102.897102 
L 414.730237 110.412955 
L 415.068542 102.088574 
L 415.406846 111.0787 
L 415.745151 107.765265 
L 416.083456 111.731764 
L 416.42176 103.644913 
L 416.760065 103.702526 
L 417.098369 106.096581 
L 417.436674 109.412339 
L 417.774979 110.287097 
L 418.113283 110.263153 
L 418.451588 111.395513 
L 418.789893 108.440432 
L 419.128197 111.351216 
L 419.466502 110.156653 
L 419.804807 108.125557 
L 420.143111 107.606584 
L 420.481416 112.226184 
L 420.819721 109.74917 
L 421.49633 107.527998 
L 421.834635 109.776666 
L 422.172939 107.271256 
L 422.511244 111.033548 
L 422.849548 112.314208 
L 423.187853 110.11818 
L 423.526158 111.231448 
L 423.864462 108.840263 
L 424.202767 111.422423 
L 424.541072 111.157952 
L 424.879376 109.406376 
L 425.217681 109.815341 
L 425.555986 110.472554 
L 425.89429 110.086275 
L 426.5709 112.364405 
L 426.909204 112.348385 
L 427.247509 111.032626 
L 427.585814 112.172531 
L 427.924118 112.259965 
L 428.262423 110.242929 
L 428.600728 110.592734 
L 428.939032 112.083263 
L 429.277337 112.378786 
L 429.615641 110.773129 
L 429.953946 111.937535 
L 430.292251 112.105406 
L 430.630555 111.433621 
L 430.96886 112.242335 
L 431.307165 112.072024 
L 431.645469 111.339164 
L 431.983774 111.756372 
L 432.660383 112.060382 
L 432.998688 111.819714 
L 433.336993 112.288695 
L 433.675297 111.822596 
L 434.351907 112.104737 
L 434.690211 112.363411 
L 435.028516 112.147481 
L 435.36682 112.12329 
L 436.04343 112.311887 
L 436.381734 112.361456 
L 437.058344 112.299857 
L 437.734953 112.346796 
L 439.088172 112.379638 
L 442.809523 112.333454 
L 443.486132 112.263467 
L 443.824437 112.317782 
L 444.162741 112.186385 
L 444.501046 112.248235 
L 444.839351 112.083324 
L 445.177655 112.357521 
L 445.51596 111.732486 
L 445.854265 111.731931 
L 446.192569 111.895211 
L 446.869178 111.363111 
L 447.207483 112.252629 
L 447.884092 111.026356 
L 448.222397 110.933288 
L 448.560702 111.428802 
L 448.899006 112.163286 
L 449.237311 111.32264 
L 449.575616 112.376 
L 449.91392 111.969122 
L 450.252225 110.278495 
L 450.59053 111.608671 
L 450.928834 110.800287 
L 451.267139 111.644492 
L 451.605444 109.757403 
L 451.943748 110.253258 
L 452.282053 111.366268 
L 452.620357 109.818551 
L 452.958662 112.012348 
L 453.296967 110.980714 
L 453.635271 111.553023 
L 453.973576 109.704093 
L 454.311881 111.960692 
L 454.650185 110.682317 
L 454.98849 111.145358 
L 455.326795 110.023765 
L 455.665099 110.683771 
L 456.003404 108.815549 
L 456.341709 112.251028 
L 456.680013 108.922791 
L 457.018318 111.074444 
L 457.356623 110.801319 
L 457.694927 107.505266 
L 458.033232 106.348939 
L 458.371537 110.311315 
L 458.709841 106.788932 
L 459.048146 111.652797 
L 459.38645 107.798109 
L 459.724755 106.773642 
L 460.06306 111.178028 
L 460.401364 108.993003 
L 460.739669 105.060976 
L 461.077974 111.504751 
L 461.416278 112.222473 
L 461.754583 107.086561 
L 462.092888 108.362443 
L 462.431192 104.80105 
L 462.769497 103.369619 
L 463.107802 109.379941 
L 463.784411 107.234957 
L 464.122716 105.991864 
L 464.46102 101.414652 
L 465.137629 107.813551 
L 465.475934 109.210687 
L 465.814239 100.750062 
L 466.152543 110.670624 
L 466.490848 103.079284 
L 466.829153 100.148228 
L 467.844067 109.564254 
L 468.182371 107.063918 
L 468.520676 101.928443 
L 468.858981 102.567143 
L 469.197285 98.059367 
L 469.873895 99.248739 
L 470.212199 97.412376 
L 470.550504 107.749467 
L 470.888808 106.063206 
L 471.227113 105.756725 
L 471.565418 102.416804 
L 471.903722 100.270461 
L 472.580332 112.013729 
L 472.918636 104.726331 
L 472.918636 104.726331 
" clip-path="url(#p6a39d61c1e)" style="fill: none; stroke: #1f77b4; stroke-opacity: 0.7; stroke-linecap: square"/>
   </g>
   <g id="line2d_12">
    <path d="M 67.291364 99.380605 
L 67.629668 73.079332 
L 67.967973 75.702659 
L 68.306278 77.219287 
L 68.644582 85.967002 
L 68.982887 98.598862 
L 69.659496 80.434054 
L 69.997801 108.55722 
L 70.336105 81.661424 
L 70.67441 110.818163 
L 71.012715 81.757477 
L 71.351019 82.427703 
L 71.689324 110.509478 
L 72.027629 89.642822 
L 72.365933 94.37347 
L 72.704238 106.364831 
L 73.042543 107.185945 
L 73.380847 85.632624 
L 73.719152 92.978363 
L 74.057457 79.19105 
L 74.395761 79.621607 
L 74.734066 79.682737 
L 75.072371 108.521664 
L 75.410675 82.244774 
L 75.74898 104.6248 
L 76.087284 98.037098 
L 76.425589 88.979737 
L 76.763894 106.17165 
L 77.102198 95.342285 
L 77.440503 106.864537 
L 77.778808 109.313287 
L 78.117112 109.013813 
L 78.455417 102.19426 
L 78.793722 112.24928 
L 79.132026 100.617459 
L 79.470331 94.253383 
L 80.14694 110.105981 
L 80.485245 110.742887 
L 80.82355 105.225173 
L 81.161854 108.089827 
L 81.500159 88.297805 
L 81.838463 108.664374 
L 82.176768 92.898087 
L 82.515073 98.426564 
L 82.853377 99.042478 
L 83.191682 100.575581 
L 83.529987 90.343151 
L 83.868291 104.264646 
L 84.206596 95.098109 
L 84.883205 103.993257 
L 85.22151 92.474145 
L 85.898119 109.988472 
L 86.574729 97.21969 
L 86.913033 99.168711 
L 87.251338 95.251667 
L 87.589643 107.622194 
L 87.927947 98.735066 
L 88.266252 104.262054 
L 88.604556 102.450349 
L 88.942861 96.171322 
L 89.281166 96.089651 
L 89.61947 98.335394 
L 89.957775 106.645497 
L 90.29608 98.496103 
L 91.310994 111.855673 
L 91.649298 101.327621 
L 91.987603 105.332455 
L 92.325908 101.590802 
L 92.664212 102.346242 
L 93.002517 101.978823 
L 93.340822 108.530788 
L 93.679126 102.36849 
L 94.017431 105.681956 
L 94.355735 106.74325 
L 94.69404 104.537214 
L 95.032345 112.138053 
L 95.370649 111.250228 
L 95.708954 109.236433 
L 96.047259 102.078801 
L 96.385563 110.954179 
L 96.723868 109.097287 
L 97.062173 111.886848 
L 97.400477 109.268467 
L 97.738782 109.455671 
L 98.077087 103.982799 
L 98.415391 105.101499 
L 99.092001 112.179166 
L 99.430305 105.846868 
L 99.76861 107.347962 
L 100.106914 111.255825 
L 100.445219 105.266301 
L 100.783524 111.687506 
L 101.121828 106.588196 
L 101.460133 110.480946 
L 101.798438 109.667216 
L 102.136742 107.597311 
L 102.475047 108.452209 
L 102.813352 107.141148 
L 103.151656 109.039431 
L 103.489961 111.873932 
L 103.828266 107.981596 
L 104.16657 108.705885 
L 104.504875 109.11691 
L 104.84318 112.143863 
L 105.181484 110.712248 
L 105.519789 111.705659 
L 105.858093 109.215999 
L 106.196398 109.805158 
L 106.534703 109.284473 
L 106.873007 109.152545 
L 107.211312 109.918921 
L 107.549617 109.379331 
L 108.226226 112.279277 
L 108.564531 112.343431 
L 109.24114 110.498931 
L 109.917749 110.440498 
L 110.256054 112.256806 
L 110.594359 112.301156 
L 110.932663 110.872936 
L 111.270968 111.911624 
L 111.609272 111.585008 
L 111.947577 111.084995 
L 112.285882 111.893206 
L 112.624186 111.636094 
L 112.962491 111.969955 
L 113.300796 111.663548 
L 113.977405 112.198395 
L 114.992319 112.090674 
L 115.668928 111.984216 
L 116.007233 112.130204 
L 116.345538 112.140152 
L 116.683842 112.336358 
L 117.698756 112.285657 
L 118.375365 112.356391 
L 122.773326 112.325202 
L 123.449935 112.219702 
L 123.78824 112.322413 
L 124.126544 112.180901 
L 124.803154 112.176225 
L 125.479763 111.938085 
L 125.818068 112.36045 
L 126.156372 112.291309 
L 126.494677 111.86971 
L 126.832982 112.316997 
L 127.171286 111.949958 
L 127.509591 112.178024 
L 127.847896 112.10345 
L 128.1862 111.606646 
L 128.524505 112.343779 
L 128.86281 111.243337 
L 129.201114 111.754396 
L 130.216028 111.250456 
L 130.892637 112.177973 
L 131.230942 111.702377 
L 131.569247 111.999567 
L 131.907551 111.044849 
L 132.245856 111.571268 
L 132.584161 109.80367 
L 132.922465 109.638114 
L 133.26077 110.52385 
L 133.599075 110.434199 
L 133.937379 109.115508 
L 134.613989 109.588866 
L 134.952293 111.181574 
L 135.290598 110.918255 
L 135.628902 111.538717 
L 135.967207 110.253696 
L 136.305512 107.870421 
L 136.643816 108.051087 
L 136.982121 111.795122 
L 137.320426 112.250476 
L 137.65873 107.576454 
L 138.33534 111.226209 
L 138.673644 108.352896 
L 139.011949 108.388298 
L 139.350254 111.596469 
L 139.688558 110.655427 
L 140.026863 111.967142 
L 140.365168 110.889063 
L 140.703472 111.408836 
L 141.041777 110.915333 
L 141.380082 107.017942 
L 141.718386 111.9806 
L 142.394995 111.22994 
L 142.7333 109.585631 
L 143.071605 109.665092 
L 143.409909 109.995007 
L 143.748214 105.162177 
L 144.086519 102.513106 
L 144.424823 106.955198 
L 144.763128 102.527051 
L 145.101433 108.130578 
L 145.439737 111.206851 
L 145.778042 107.768191 
L 146.116347 108.95364 
L 146.792956 104.392538 
L 147.131261 106.63797 
L 147.469565 100.452233 
L 147.80787 100.826513 
L 148.484479 105.684095 
L 148.822784 110.53822 
L 149.499393 102.082605 
L 149.837698 108.124066 
L 150.176002 110.792905 
L 150.514307 98.227549 
L 150.852612 101.094278 
L 151.190916 102.38311 
L 151.529221 99.239154 
L 151.867526 98.242694 
L 152.20583 104.037131 
L 152.544135 96.872924 
L 152.88244 95.93792 
L 153.220744 107.41392 
L 153.559049 101.057554 
L 153.897353 102.381602 
L 154.235658 101.975862 
L 154.573963 93.911798 
L 154.912267 106.259829 
L 155.250572 92.3045 
L 155.588877 93.63751 
L 155.927181 102.682577 
L 156.265486 94.799524 
L 156.603791 95.55724 
L 156.942095 97.300053 
L 157.2804 105.146097 
L 157.618705 107.863185 
L 157.957009 96.687496 
L 158.295314 92.362303 
L 158.633619 111.987876 
L 158.971923 96.625942 
L 159.310228 101.356033 
L 159.648532 89.678825 
L 159.986837 104.129648 
L 160.325142 100.026134 
L 160.663446 98.767967 
L 161.001751 108.61132 
L 161.340056 92.969199 
L 161.67836 89.439697 
L 162.016665 110.75742 
L 162.35497 104.099593 
L 162.693274 111.283701 
L 163.031579 84.433134 
L 163.369884 92.619673 
L 163.708188 83.433624 
L 164.046493 96.209144 
L 164.384798 87.651755 
L 164.723102 100.684416 
L 165.061407 101.183546 
L 165.399712 100.255318 
L 165.738016 91.023977 
L 166.076321 100.563579 
L 166.414625 82.411433 
L 166.75293 79.246397 
L 167.091235 111.342139 
L 167.429539 105.695266 
L 168.106149 110.882231 
L 168.782758 96.211573 
L 169.121063 81.741868 
L 169.459367 104.167391 
L 169.797672 93.885921 
L 170.135977 77.184171 
L 170.474281 86.839108 
L 170.812586 81.494641 
L 171.150891 90.825268 
L 171.489195 73.612235 
L 171.8275 88.856599 
L 172.165804 110.542202 
L 172.504109 104.301765 
L 173.519023 79.90757 
L 173.857328 94.828866 
L 174.195632 81.912017 
L 174.533937 78.15468 
L 174.872242 98.499408 
L 175.210546 69.123299 
L 175.548851 83.409792 
L 175.887156 72.723102 
L 176.22546 87.121636 
L 176.563765 78.374773 
L 176.90207 76.724483 
L 177.240374 69.971835 
L 177.578679 105.29689 
L 177.916983 85.84534 
L 178.255288 91.840705 
L 178.593593 67.732695 
L 178.931897 107.253481 
L 179.270202 64.04157 
L 179.608507 68.948216 
L 179.946811 108.68684 
L 180.285116 87.616401 
L 180.623421 75.891289 
L 180.961725 74.540207 
L 181.30003 65.538032 
L 181.638335 70.720066 
L 181.976639 96.058458 
L 182.653249 74.969714 
L 182.991553 104.944148 
L 183.329858 101.881706 
L 183.668162 86.153175 
L 184.006467 95.999475 
L 184.344772 64.66002 
L 185.021381 92.812443 
L 185.359686 64.405595 
L 185.69799 66.571659 
L 186.036295 55.167094 
L 186.3746 63.490784 
L 186.712904 88.304126 
L 187.051209 104.923945 
L 187.389514 62.894086 
L 187.727818 108.83918 
L 188.066123 91.490927 
L 188.404428 57.178031 
L 188.742732 54.349875 
L 189.081037 73.44739 
L 189.419341 70.265379 
L 189.757646 109.767755 
L 190.095951 80.531848 
L 190.434255 78.323995 
L 190.77256 91.074838 
L 191.110865 108.057666 
L 191.787474 89.562668 
L 192.125779 84.487806 
L 192.802388 65.559116 
L 193.140693 91.680671 
L 193.478997 90.827177 
L 193.817302 111.082939 
L 194.155607 109.673449 
L 194.493911 95.219372 
L 194.832216 62.856024 
L 195.170521 70.131082 
L 195.508825 60.358554 
L 195.84713 60.16008 
L 196.185434 53.923253 
L 196.523739 62.984316 
L 196.862044 44.924756 
L 197.200348 50.158412 
L 197.538653 71.575707 
L 197.876958 71.288145 
L 198.215262 109.975098 
L 198.553567 41.989674 
L 198.891872 103.063845 
L 199.230176 59.732674 
L 199.568481 53.746314 
L 199.906786 85.62544 
L 200.24509 98.203487 
L 200.583395 105.238513 
L 200.9217 58.028115 
L 201.260004 79.384457 
L 201.936613 45.131158 
L 202.274918 101.570413 
L 202.613223 112.38 
L 236.105383 112.38 
L 236.443688 38.041382 
L 236.781992 48.931036 
L 237.120297 42.459495 
L 237.458601 109.673206 
L 238.135211 70.171849 
L 238.473515 78.376996 
L 238.81182 93.509213 
L 239.150125 87.302977 
L 239.488429 35.517582 
L 239.826734 88.509718 
L 240.165039 83.720735 
L 240.503343 112.080194 
L 240.841648 44.227645 
L 241.179953 99.919433 
L 241.856562 91.929136 
L 242.194867 41.670298 
L 242.533171 95.916725 
L 242.871476 48.934967 
L 243.20978 48.255844 
L 243.548085 38.999395 
L 243.88639 103.255913 
L 244.224694 95.269745 
L 244.562999 54.034583 
L 244.901304 97.028513 
L 245.239608 90.015932 
L 245.577913 99.393352 
L 245.916218 98.968351 
L 246.254522 75.092432 
L 246.592827 103.912464 
L 246.931132 87.620638 
L 247.269436 79.649201 
L 247.607741 110.502471 
L 247.946046 82.774287 
L 248.28435 105.227749 
L 248.96096 50.052916 
L 249.299264 50.817264 
L 249.637569 106.34968 
L 249.975873 67.472521 
L 250.314178 50.266814 
L 250.652483 94.733945 
L 250.990787 56.091788 
L 251.329092 46.821951 
L 251.667397 53.278421 
L 252.005701 104.543718 
L 252.344006 111.72095 
L 252.682311 98.489252 
L 253.020615 92.862989 
L 253.35892 68.100745 
L 253.697225 84.881223 
L 254.035529 62.256988 
L 254.373834 87.328783 
L 254.712139 101.470964 
L 255.050443 90.388182 
L 255.388748 50.462612 
L 255.727052 45.570919 
L 256.065357 97.982906 
L 256.403662 57.931069 
L 256.741966 93.592429 
L 257.080271 51.697502 
L 257.418576 101.110926 
L 257.75688 67.268541 
L 258.095185 106.703898 
L 258.43349 47.066123 
L 258.771794 65.631071 
L 259.110099 56.499887 
L 259.448404 74.960176 
L 259.786708 81.060588 
L 260.125013 71.74871 
L 260.463318 78.020726 
L 260.801622 82.044633 
L 261.139927 63.569673 
L 261.478231 100.990997 
L 261.816536 101.502148 
L 262.154841 85.093885 
L 262.493145 92.230842 
L 262.83145 107.750834 
L 263.169755 59.954356 
L 263.508059 64.765187 
L 263.846364 79.018632 
L 264.184669 52.681453 
L 264.522973 107.981814 
L 264.861278 66.225509 
L 265.199583 96.445783 
L 265.537887 90.471778 
L 265.876192 99.431234 
L 266.214497 66.091303 
L 266.552801 103.974212 
L 266.891106 63.754478 
L 267.22941 74.342716 
L 267.567715 109.009671 
L 267.90602 66.391559 
L 268.244324 77.030403 
L 268.582629 61.779179 
L 269.259238 81.454062 
L 269.597543 66.609922 
L 269.935848 97.278996 
L 270.274152 82.895899 
L 270.612457 96.671133 
L 270.950762 60.97321 
L 271.289066 100.462258 
L 271.627371 111.557218 
L 271.965676 95.477993 
L 272.30398 86.521202 
L 272.642285 110.932129 
L 272.98059 84.062043 
L 273.318894 68.471191 
L 273.657199 77.278158 
L 273.995503 81.609038 
L 274.333808 65.558223 
L 274.672113 65.843425 
L 275.010417 72.694929 
L 275.348722 83.373329 
L 275.687027 89.303503 
L 276.025331 111.755576 
L 276.363636 84.20491 
L 276.701941 66.828382 
L 277.040245 75.0464 
L 277.37855 96.979761 
L 277.716855 105.569197 
L 278.055159 77.588625 
L 278.393464 79.682005 
L 278.731769 70.282941 
L 279.070073 74.665198 
L 279.408378 88.659245 
L 279.746682 108.098936 
L 280.084987 92.1472 
L 280.423292 99.385128 
L 280.761596 91.369233 
L 281.099901 100.1361 
L 281.438206 77.767592 
L 281.77651 78.825529 
L 282.114815 99.975735 
L 282.45312 89.056102 
L 282.791424 95.826477 
L 283.129729 77.779183 
L 283.468034 105.327423 
L 283.806338 86.408479 
L 284.144643 76.665575 
L 284.482948 106.002237 
L 284.821252 105.115274 
L 285.159557 87.71572 
L 285.497861 85.002361 
L 285.836166 95.3469 
L 286.174471 91.462797 
L 286.512775 105.171231 
L 286.85108 96.422126 
L 287.189385 108.673803 
L 287.527689 101.882742 
L 287.865994 103.196211 
L 288.204299 98.223274 
L 288.542603 83.144616 
L 288.880908 106.756234 
L 289.557517 93.780302 
L 289.895822 84.162613 
L 290.234127 108.464343 
L 290.572431 85.754929 
L 290.910736 110.061251 
L 291.24904 98.818676 
L 291.587345 99.736843 
L 291.92565 106.633385 
L 292.602259 100.285533 
L 292.940564 89.677623 
L 293.278868 87.691875 
L 293.617173 99.167152 
L 293.955478 90.561536 
L 294.632087 103.894121 
L 294.970392 107.733345 
L 295.308696 102.651162 
L 295.647001 100.265312 
L 295.985306 111.366854 
L 296.32361 109.10981 
L 296.661915 99.144997 
L 297.00022 107.501477 
L 297.338524 94.532533 
L 297.676829 105.530702 
L 298.015133 110.221839 
L 298.353438 110.690558 
L 298.691743 93.762517 
L 299.030047 110.077416 
L 299.368352 109.680767 
L 299.706657 96.158646 
L 300.044961 107.687349 
L 300.383266 100.321778 
L 300.721571 97.873439 
L 301.059875 101.803288 
L 301.39818 96.026686 
L 301.736485 100.51196 
L 302.074789 110.530093 
L 302.413094 103.403808 
L 302.751399 101.072312 
L 303.089703 100.01571 
L 303.428008 111.982727 
L 303.766312 101.761141 
L 304.104617 100.446938 
L 304.442922 101.822657 
L 304.781226 105.297963 
L 305.119531 106.191197 
L 305.457836 105.125319 
L 305.79614 103.290508 
L 306.134445 100.753617 
L 306.47275 104.791408 
L 306.811054 101.723801 
L 307.149359 104.168657 
L 307.487664 111.599632 
L 307.825968 106.804466 
L 308.164273 109.271954 
L 308.502578 109.366218 
L 308.840882 108.71726 
L 309.179187 109.227518 
L 309.517491 106.741288 
L 309.855796 105.901229 
L 310.194101 109.904063 
L 310.532405 111.218429 
L 310.87071 111.868745 
L 311.209015 107.521295 
L 311.547319 110.856041 
L 311.885624 112.306574 
L 312.223929 105.240702 
L 312.900538 111.71283 
L 313.238843 106.49419 
L 313.577147 105.741325 
L 314.253757 112.112246 
L 314.592061 111.665111 
L 314.930366 110.141399 
L 315.26867 107.374228 
L 315.606975 111.574089 
L 315.94528 108.063438 
L 316.283584 112.304565 
L 316.621889 110.166662 
L 316.960194 109.386844 
L 317.298498 112.111042 
L 317.636803 109.75632 
L 317.975108 108.522191 
L 318.313412 111.754051 
L 318.651717 109.658121 
L 318.990022 110.212128 
L 319.328326 111.752155 
L 319.666631 112.359976 
L 320.004936 112.351514 
L 320.681545 109.777638 
L 321.019849 110.696909 
L 321.358154 110.616956 
L 321.696459 111.230228 
L 322.034763 111.104509 
L 322.373068 112.119701 
L 322.711373 110.686219 
L 323.049677 111.00477 
L 323.387982 110.695482 
L 323.726287 111.912119 
L 324.402896 112.210824 
L 324.741201 111.176824 
L 325.079505 111.483465 
L 325.41781 112.204949 
L 325.756115 111.848904 
L 326.771029 112.264752 
L 327.109333 111.767159 
L 327.447638 112.207629 
L 327.785942 111.910678 
L 328.124247 112.347036 
L 328.462552 112.205998 
L 329.139161 112.378691 
L 329.477466 112.253978 
L 329.81577 112.358823 
L 330.49238 112.299541 
L 331.168989 112.322201 
L 332.860512 112.379886 
L 335.905254 112.315438 
L 336.581863 112.209388 
L 336.920168 112.244011 
L 337.596777 112.184732 
L 337.935082 112.38 
L 472.918636 112.38 
L 472.918636 112.38 
" clip-path="url(#p6a39d61c1e)" style="fill: none; stroke: #d62728; stroke-opacity: 0.7; stroke-linecap: square"/>
   </g>
   <g id="patch_3">
    <path d="M 42.01 116.52 
L 42.01 25.44 
" style="fill: none; stroke: #7f7f7f; stroke-width: 0.8; stroke-linejoin: miter; stroke-linecap: square"/>
   </g>
   <g id="patch_4">
    <path d="M 47.01 121.52 
L 493.2 121.52 
" style="fill: none; stroke: #7f7f7f; stroke-width: 0.8; stroke-linejoin: miter; stroke-linecap: square"/>
   </g>
   <g id="text_11">
    <!-- Intensity of Use (Right &amp; Left) -->
    <g transform="translate(188.437734 19.44) scale(0.11 -0.11)">
     <defs>
      <path id="DejaVuSans-49" d="M 628 4666 
L 1259 4666 
L 1259 0 
L 628 0 
L 628 4666 
z
" transform="scale(0.015625)"/>
      <path id="DejaVuSans-6e" d="M 3513 2113 
L 3513 0 
L 2938 0 
L 2938 2094 
Q 2938 2591 2744 2837 
Q 2550 3084 2163 3084 
Q 1697 3084 1428 2787 
Q 1159 2491 1159 1978 
L 1159 0 
L 581 0 
L 581 3500 
L 1159 3500 
L 1159 2956 
Q 1366 3272 1645 3428 
Q 1925 3584 2291 3584 
Q 2894 3584 3203 3211 
Q 3513 2838 3513 2113 
z
" transform="scale(0.015625)"/>
      <path id="DejaVuSans-74" d="M 1172 4494 
L 1172 3500 
L 2356 3500 
L 2356 3053 
L 1172 3053 
L 1172 1153 
Q 1172 725 1289 603 
Q 1406 481 1766 481 
L 2356 481 
L 2356 0 
L 1766 0 
Q 1100 0 847 248 
Q 594 497 594 1153 
L 594 3053 
L 172 3053 
L 172 3500 
L 594 3500 
L 594 4494 
L 1172 4494 
z
" transform="scale(0.015625)"/>
      <path id="DejaVuSans-65" d="M 3597 1894 
L 3597 1613 
L 953 1613 
Q 991 1019 1311 708 
Q 1631 397 2203 397 
Q 2534 397 2845 478 
Q 3156 559 3463 722 
L 3463 178 
Q 3153 47 2828 -22 
Q 2503 -91 2169 -91 
Q 1331 -91 842 396 
Q 353 884 353 1716 
Q 353 2575 817 3079 
Q 1281 3584 2069 3584 
Q 2775 3584 3186 3129 
Q 3597 2675 3597 1894 
z
M 3022 2063 
Q 3016 2534 2758 2815 
Q 2500 3097 2075 3097 
Q 1594 3097 1305 2825 
Q 1016 2553 972 2059 
L 3022 2063 
z
" transform="scale(0.015625)"/>
      <path id="DejaVuSans-73" d="M 2834 3397 
L 2834 2853 
Q 2591 2978 2328 3040 
Q 2066 3103 1784 3103 
Q 1356 3103 1142 2972 
Q 928 2841 928 2578 
Q 928 2378 1081 2264 
Q 1234 2150 1697 2047 
L 1894 2003 
Q 2506 1872 2764 1633 
Q 3022 1394 3022 966 
Q 3022 478 2636 193 
Q 2250 -91 1575 -91 
Q 1294 -91 989 -36 
Q 684 19 347 128 
L 347 722 
Q 666 556 975 473 
Q 1284 391 1588 391 
Q 1994 391 2212 530 
Q 2431 669 2431 922 
Q 2431 1156 2273 1281 
Q 2116 1406 1581 1522 
L 1381 1569 
Q 847 1681 609 1914 
Q 372 2147 372 2553 
Q 372 3047 722 3315 
Q 1072 3584 1716 3584 
Q 2034 3584 2315 3537 
Q 2597 3491 2834 3397 
z
" transform="scale(0.015625)"/>
      <path id="DejaVuSans-69" d="M 603 3500 
L 1178 3500 
L 1178 0 
L 603 0 
L 603 3500 
z
M 603 4863 
L 1178 4863 
L 1178 4134 
L 603 4134 
L 603 4863 
z
" transform="scale(0.015625)"/>
      <path id="DejaVuSans-79" d="M 2059 -325 
Q 1816 -950 1584 -1140 
Q 1353 -1331 966 -1331 
L 506 -1331 
L 506 -850 
L 844 -850 
Q 1081 -850 1212 -737 
Q 1344 -625 1503 -206 
L 1606 56 
L 191 3500 
L 800 3500 
L 1894 763 
L 2988 3500 
L 3597 3500 
L 2059 -325 
z
" transform="scale(0.015625)"/>
      <path id="DejaVuSans-20" transform="scale(0.015625)"/>
      <path id="DejaVuSans-6f" d="M 1959 3097 
Q 1497 3097 1228 2736 
Q 959 2375 959 1747 
Q 959 1119 1226 758 
Q 1494 397 1959 397 
Q 2419 397 2687 759 
Q 2956 1122 2956 1747 
Q 2956 2369 2687 2733 
Q 2419 3097 1959 3097 
z
M 1959 3584 
Q 2709 3584 3137 3096 
Q 3566 2609 3566 1747 
Q 3566 888 3137 398 
Q 2709 -91 1959 -91 
Q 1206 -91 779 398 
Q 353 888 353 1747 
Q 353 2609 779 3096 
Q 1206 3584 1959 3584 
z
" transform="scale(0.015625)"/>
      <path id="DejaVuSans-66" d="M 2375 4863 
L 2375 4384 
L 1825 4384 
Q 1516 4384 1395 4259 
Q 1275 4134 1275 3809 
L 1275 3500 
L 2222 3500 
L 2222 3053 
L 1275 3053 
L 1275 0 
L 697 0 
L 697 3053 
L 147 3053 
L 147 3500 
L 697 3500 
L 697 3744 
Q 697 4328 969 4595 
Q 1241 4863 1831 4863 
L 2375 4863 
z
" transform="scale(0.015625)"/>
      <path id="DejaVuSans-55" d="M 556 4666 
L 1191 4666 
L 1191 1831 
Q 1191 1081 1462 751 
Q 1734 422 2344 422 
Q 2950 422 3222 751 
Q 3494 1081 3494 1831 
L 3494 4666 
L 4128 4666 
L 4128 1753 
Q 4128 841 3676 375 
Q 3225 -91 2344 -91 
Q 1459 -91 1007 375 
Q 556 841 556 1753 
L 556 4666 
z
" transform="scale(0.015625)"/>
      <path id="DejaVuSans-28" d="M 1984 4856 
Q 1566 4138 1362 3434 
Q 1159 2731 1159 2009 
Q 1159 1288 1364 580 
Q 1569 -128 1984 -844 
L 1484 -844 
Q 1016 -109 783 600 
Q 550 1309 550 2009 
Q 550 2706 781 3412 
Q 1013 4119 1484 4856 
L 1984 4856 
z
" transform="scale(0.015625)"/>
      <path id="DejaVuSans-52" d="M 2841 2188 
Q 3044 2119 3236 1894 
Q 3428 1669 3622 1275 
L 4263 0 
L 3584 0 
L 2988 1197 
Q 2756 1666 2539 1819 
Q 2322 1972 1947 1972 
L 1259 1972 
L 1259 0 
L 628 0 
L 628 4666 
L 2053 4666 
Q 2853 4666 3247 4331 
Q 3641 3997 3641 3322 
Q 3641 2881 3436 2590 
Q 3231 2300 2841 2188 
z
M 1259 4147 
L 1259 2491 
L 2053 2491 
Q 2509 2491 2742 2702 
Q 2975 2913 2975 3322 
Q 2975 3731 2742 3939 
Q 2509 4147 2053 4147 
L 1259 4147 
z
" transform="scale(0.015625)"/>
      <path id="DejaVuSans-67" d="M 2906 1791 
Q 2906 2416 2648 2759 
Q 2391 3103 1925 3103 
Q 1463 3103 1205 2759 
Q 947 2416 947 1791 
Q 947 1169 1205 825 
Q 1463 481 1925 481 
Q 2391 481 2648 825 
Q 2906 1169 2906 1791 
z
M 3481 434 
Q 3481 -459 3084 -895 
Q 2688 -1331 1869 -1331 
Q 1566 -1331 1297 -1286 
Q 1028 -1241 775 -1147 
L 775 -588 
Q 1028 -725 1275 -790 
Q 1522 -856 1778 -856 
Q 2344 -856 2625 -561 
Q 2906 -266 2906 331 
L 2906 616 
Q 2728 306 2450 153 
Q 2172 0 1784 0 
Q 1141 0 747 490 
Q 353 981 353 1791 
Q 353 2603 747 3093 
Q 1141 3584 1784 3584 
Q 2172 3584 2450 3431 
Q 2728 3278 2906 2969 
L 2906 3500 
L 3481 3500 
L 3481 434 
z
" transform="scale(0.015625)"/>
      <path id="DejaVuSans-68" d="M 3513 2113 
L 3513 0 
L 2938 0 
L 2938 2094 
Q 2938 2591 2744 2837 
Q 2550 3084 2163 3084 
Q 1697 3084 1428 2787 
Q 1159 2491 1159 1978 
L 1159 0 
L 581 0 
L 581 4863 
L 1159 4863 
L 1159 2956 
Q 1366 3272 1645 3428 
Q 1925 3584 2291 3584 
Q 2894 3584 3203 3211 
Q 3513 2838 3513 2113 
z
" transform="scale(0.015625)"/>
      <path id="DejaVuSans-26" d="M 1556 2509 
Q 1272 2256 1139 2004 
Q 1006 1753 1006 1478 
Q 1006 1022 1337 719 
Q 1669 416 2169 416 
Q 2466 416 2725 514 
Q 2984 613 3213 813 
L 1556 2509 
z
M 1997 2859 
L 3584 1234 
Q 3769 1513 3872 1830 
Q 3975 2147 3994 2503 
L 4575 2503 
Q 4538 2091 4375 1687 
Q 4213 1284 3922 891 
L 4794 0 
L 4006 0 
L 3559 459 
Q 3234 181 2878 45 
Q 2522 -91 2113 -91 
Q 1359 -91 881 339 
Q 403 769 403 1441 
Q 403 1841 612 2192 
Q 822 2544 1241 2853 
Q 1091 3050 1012 3245 
Q 934 3441 934 3628 
Q 934 4134 1281 4442 
Q 1628 4750 2203 4750 
Q 2463 4750 2720 4694 
Q 2978 4638 3244 4525 
L 3244 3956 
Q 2972 4103 2725 4179 
Q 2478 4256 2266 4256 
Q 1938 4256 1733 4082 
Q 1528 3909 1528 3634 
Q 1528 3475 1620 3314 
Q 1713 3153 1997 2859 
z
" transform="scale(0.015625)"/>
      <path id="DejaVuSans-4c" d="M 628 4666 
L 1259 4666 
L 1259 531 
L 3531 531 
L 3531 0 
L 628 0 
L 628 4666 
z
" transform="scale(0.015625)"/>
      <path id="DejaVuSans-29" d="M 513 4856 
L 1013 4856 
Q 1481 4119 1714 3412 
Q 1947 2706 1947 2009 
Q 1947 1309 1714 600 
Q 1481 -109 1013 -844 
L 513 -844 
Q 928 -128 1133 580 
Q 1338 1288 1338 2009 
Q 1338 2731 1133 3434 
Q 928 4138 513 4856 
z
" transform="scale(0.015625)"/>
     </defs>
     <use xlink:href="#DejaVuSans-49"/>
     <use xlink:href="#DejaVuSans-6e" x="29.492188"/>
     <use xlink:href="#DejaVuSans-74" x="92.871094"/>
     <use xlink:href="#DejaVuSans-65" x="132.080078"/>
     <use xlink:href="#DejaVuSans-6e" x="193.603516"/>
     <use xlink:href="#DejaVuSans-73" x="256.982422"/>
     <use xlink:href="#DejaVuSans-69" x="309.082031"/>
     <use xlink:href="#DejaVuSans-74" x="336.865234"/>
     <use xlink:href="#DejaVuSans-79" x="376.074219"/>
     <use xlink:href="#DejaVuSans-20" x="435.253906"/>
     <use xlink:href="#DejaVuSans-6f" x="467.041016"/>
     <use xlink:href="#DejaVuSans-66" x="528.222656"/>
     <use xlink:href="#DejaVuSans-20" x="563.427734"/>
     <use xlink:href="#DejaVuSans-55" x="595.214844"/>
     <use xlink:href="#DejaVuSans-73" x="668.408203"/>
     <use xlink:href="#DejaVuSans-65" x="720.507812"/>
     <use xlink:href="#DejaVuSans-20" x="782.03125"/>
     <use xlink:href="#DejaVuSans-28" x="813.818359"/>
     <use xlink:href="#DejaVuSans-52" x="852.832031"/>
     <use xlink:href="#DejaVuSans-69" x="922.314453"/>
     <use xlink:href="#DejaVuSans-67" x="950.097656"/>
     <use xlink:href="#DejaVuSans-68" x="1013.574219"/>
     <use xlink:href="#DejaVuSans-74" x="1076.953125"/>
     <use xlink:href="#DejaVuSans-20" x="1116.162109"/>
     <use xlink:href="#DejaVuSans-26" x="1147.949219"/>
     <use xlink:href="#DejaVuSans-20" x="1225.927734"/>
     <use xlink:href="#DejaVuSans-4c" x="1257.714844"/>
     <use xlink:href="#DejaVuSans-65" x="1311.677734"/>
     <use xlink:href="#DejaVuSans-66" x="1373.201172"/>
     <use xlink:href="#DejaVuSans-74" x="1406.65625"/>
     <use xlink:href="#DejaVuSans-29" x="1445.865234"/>
    </g>
   </g>
   <g id="legend_1">
    <g id="line2d_13">
     <path d="M 429.867187 38.538437 
L 439.867187 38.538437 
L 449.867187 38.538437 
" style="fill: none; stroke: #1f77b4; stroke-opacity: 0.7; stroke-linecap: square"/>
    </g>
    <g id="text_12">
     <!-- Right -->
     <g transform="translate(457.867187 42.038437) scale(0.1 -0.1)">
      <use xlink:href="#DejaVuSans-52"/>
      <use xlink:href="#DejaVuSans-69" x="69.482422"/>
      <use xlink:href="#DejaVuSans-67" x="97.265625"/>
      <use xlink:href="#DejaVuSans-68" x="160.742188"/>
      <use xlink:href="#DejaVuSans-74" x="224.121094"/>
     </g>
    </g>
    <g id="line2d_14">
     <path d="M 429.867187 53.216562 
L 439.867187 53.216562 
L 449.867187 53.216562 
" style="fill: none; stroke: #d62728; stroke-opacity: 0.7; stroke-linecap: square"/>
    </g>
    <g id="text_13">
     <!-- Left -->
     <g transform="translate(457.867187 56.716562) scale(0.1 -0.1)">
      <use xlink:href="#DejaVuSans-4c"/>
      <use xlink:href="#DejaVuSans-65" x="53.962891"/>
      <use xlink:href="#DejaVuSans-66" x="115.486328"/>
      <use xlink:href="#DejaVuSans-74" x="148.941406"/>
     </g>
    </g>
   </g>
  </g>
  <g id="axes_2">
   <g id="patch_5">
    <path d="M 47.01 255.12 
L 493.2 255.12 
L 493.2 164.04 
L 47.01 164.04 
z
" style="fill: #ffffff"/>
   </g>
   <g id="matplotlib.axis_3">
    <g id="xtick_8">
     <g id="line2d_15">
      <g>
       <use xlink:href="#mf02a56d0ce" x="67.291364" y="260.12" style="stroke: #000000; stroke-width: 0.8"/>
      </g>
     </g>
     <g id="text_14">
      <!-- 0 -->
      <g transform="translate(64.110114 274.718437) scale(0.1 -0.1)">
       <use xlink:href="#DejaVuSans-30"/>
      </g>
     </g>
    </g>
    <g id="xtick_9">
     <g id="line2d_16">
      <g>
       <use xlink:href="#mf02a56d0ce" x="134.952293" y="260.12" style="stroke: #000000; stroke-width: 0.8"/>
      </g>
     </g>
     <g id="text_15">
      <!-- 2 -->
      <g transform="translate(131.771043 274.718437) scale(0.1 -0.1)">
       <use xlink:href="#DejaVuSans-32"/>
      </g>
     </g>
    </g>
    <g id="xtick_10">
     <g id="line2d_17">
      <g>
       <use xlink:href="#mf02a56d0ce" x="202.613223" y="260.12" style="stroke: #000000; stroke-width: 0.8"/>
      </g>
     </g>
     <g id="text_16">
      <!-- 4 -->
      <g transform="translate(199.431973 274.718437) scale(0.1 -0.1)">
       <use xlink:href="#DejaVuSans-34"/>
      </g>
     </g>
    </g>
    <g id="xtick_11">
     <g id="line2d_18">
      <g>
       <use xlink:href="#mf02a56d0ce" x="270.274152" y="260.12" style="stroke: #000000; stroke-width: 0.8"/>
      </g>
     </g>
     <g id="text_17">
      <!-- 6 -->
      <g transform="translate(267.092902 274.718437) scale(0.1 -0.1)">
       <use xlink:href="#DejaVuSans-36"/>
      </g>
     </g>
    </g>
    <g id="xtick_12">
     <g id="line2d_19">
      <g>
       <use xlink:href="#mf02a56d0ce" x="337.935082" y="260.12" style="stroke: #000000; stroke-width: 0.8"/>
      </g>
     </g>
     <g id="text_18">
      <!-- 8 -->
      <g transform="translate(334.753832 274.718437) scale(0.1 -0.1)">
       <use xlink:href="#DejaVuSans-38"/>
      </g>
     </g>
    </g>
    <g id="xtick_13">
     <g id="line2d_20">
      <g>
       <use xlink:href="#mf02a56d0ce" x="405.596011" y="260.12" style="stroke: #000000; stroke-width: 0.8"/>
      </g>
     </g>
     <g id="text_19">
      <!-- 10 -->
      <g transform="translate(399.233511 274.718437) scale(0.1 -0.1)">
       <use xlink:href="#DejaVuSans-31"/>
       <use xlink:href="#DejaVuSans-30" x="63.623047"/>
      </g>
     </g>
    </g>
    <g id="xtick_14">
     <g id="line2d_21">
      <g>
       <use xlink:href="#mf02a56d0ce" x="473.256941" y="260.12" style="stroke: #000000; stroke-width: 0.8"/>
      </g>
     </g>
     <g id="text_20">
      <!-- 12 -->
      <g transform="translate(466.894441 274.718437) scale(0.1 -0.1)">
       <use xlink:href="#DejaVuSans-31"/>
       <use xlink:href="#DejaVuSans-32" x="63.623047"/>
      </g>
     </g>
    </g>
   </g>
   <g id="matplotlib.axis_4">
    <g id="ytick_4">
     <g id="line2d_22">
      <g>
       <use xlink:href="#m1217f4a381" x="42.01" y="250.98" style="stroke: #000000; stroke-width: 0.8"/>
      </g>
     </g>
     <g id="text_21">
      <!-- 1 -->
      <g transform="translate(20.267813 254.779219) scale(0.1 -0.1)">
       <defs>
        <path id="DejaVuSans-2212" d="M 678 2272 
L 4684 2272 
L 4684 1741 
L 678 1741 
L 678 2272 
z
" transform="scale(0.015625)"/>
       </defs>
       <use xlink:href="#DejaVuSans-2212"/>
       <use xlink:href="#DejaVuSans-31" x="83.789062"/>
      </g>
     </g>
    </g>
    <g id="ytick_5">
     <g id="line2d_23">
      <g>
       <use xlink:href="#m1217f4a381" x="42.01" y="209.58" style="stroke: #000000; stroke-width: 0.8"/>
      </g>
     </g>
     <g id="text_22">
      <!-- 0 -->
      <g transform="translate(28.6475 213.379219) scale(0.1 -0.1)">
       <use xlink:href="#DejaVuSans-30"/>
      </g>
     </g>
    </g>
    <g id="ytick_6">
     <g id="line2d_24">
      <g>
       <use xlink:href="#m1217f4a381" x="42.01" y="168.18" style="stroke: #000000; stroke-width: 0.8"/>
      </g>
     </g>
     <g id="text_23">
      <!-- 1 -->
      <g transform="translate(28.6475 171.979219) scale(0.1 -0.1)">
       <use xlink:href="#DejaVuSans-31"/>
      </g>
     </g>
    </g>
   </g>
   <g id="line2d_25">
    <path d="M 67.291364 250.98 
L 134.952293 250.98 
L 135.290598 170.290195 
L 135.628902 170.420218 
L 135.967207 178.865028 
L 136.305512 225.830748 
L 136.643816 205.220946 
L 136.982121 169.068947 
L 137.320426 168.477669 
L 137.65873 176.615251 
L 137.997035 171.537174 
L 138.33534 169.390836 
L 138.673644 184.052404 
L 139.011949 174.107534 
L 139.350254 171.228271 
L 139.688558 211.092374 
L 140.026863 168.758345 
L 140.365168 172.894633 
L 140.703472 170.81908 
L 141.041777 170.783503 
L 141.380082 174.62462 
L 141.718386 168.864306 
L 142.056691 169.225135 
L 142.394995 172.536918 
L 142.7333 171.852685 
L 143.071605 181.664192 
L 143.409909 170.857118 
L 143.748214 178.389182 
L 144.086519 199.727822 
L 144.424823 174.118894 
L 144.763128 180.964509 
L 145.101433 183.526257 
L 145.439737 173.961043 
L 145.778042 177.179124 
L 146.116347 221.79018 
L 146.454651 191.39539 
L 146.792956 185.308507 
L 147.131261 182.758557 
L 147.80787 198.720644 
L 148.146174 183.415558 
L 148.484479 176.372002 
L 148.822784 183.275872 
L 149.161088 179.406058 
L 149.499393 211.913857 
L 149.837698 174.711273 
L 150.176002 172.72441 
L 150.852612 207.421499 
L 151.190916 209.881242 
L 151.529221 191.743741 
L 151.867526 198.91359 
L 152.20583 177.860107 
L 152.544135 187.479129 
L 152.88244 188.776877 
L 153.220744 174.545887 
L 153.559049 223.99169 
L 153.897353 186.159339 
L 154.235658 185.996392 
L 154.912267 188.547788 
L 155.250572 215.065702 
L 155.927181 242.980011 
L 156.265486 187.35403 
L 156.603791 191.941748 
L 156.942095 187.758002 
L 157.2804 192.525854 
L 157.618705 177.425979 
L 157.957009 234.515787 
L 158.633619 168.728635 
L 158.971923 187.325436 
L 159.310228 197.527863 
L 159.648532 191.846061 
L 159.986837 199.474913 
L 160.325142 183.307664 
L 160.663446 184.743358 
L 161.001751 174.462559 
L 161.340056 197.206334 
L 161.67836 194.39257 
L 162.016665 175.60085 
L 162.35497 180.49043 
L 162.693274 170.747254 
L 163.031579 248.875901 
L 163.369884 210.418289 
L 163.708188 232.988056 
L 164.046493 187.575342 
L 164.384798 208.893236 
L 164.723102 193.615646 
L 165.061407 188.851677 
L 165.399712 200.182694 
L 165.738016 230.338136 
L 166.076321 186.275645 
L 166.414625 230.766529 
L 166.75293 214.686447 
L 167.091235 175.172896 
L 167.429539 216.094303 
L 167.767844 175.17076 
L 168.106149 170.706506 
L 168.782758 190.583851 
L 169.121063 205.74561 
L 169.459367 196.570566 
L 169.797672 236.874152 
L 170.135977 222.052609 
L 170.474281 226.566076 
L 170.812586 237.441499 
L 171.150891 242.64673 
L 171.489195 213.250262 
L 171.8275 249.235391 
L 172.165804 172.447817 
L 172.504109 214.420496 
L 172.842414 236.886201 
L 173.180718 240.022775 
L 173.519023 212.378098 
L 173.857328 220.450045 
L 174.195632 220.890253 
L 174.533937 217.859957 
L 174.872242 191.757355 
L 175.210546 217.645306 
L 175.887156 241.444892 
L 176.22546 244.483863 
L 176.563765 229.938934 
L 176.90207 232.902412 
L 177.240374 227.14786 
L 177.578679 186.241515 
L 177.916983 210.357789 
L 178.255288 223.330006 
L 178.593593 231.602896 
L 178.931897 204.915052 
L 179.270202 220.847679 
L 179.608507 247.387009 
L 179.946811 179.275608 
L 180.285116 208.301143 
L 180.623421 216.546074 
L 180.961725 235.701761 
L 181.30003 233.888782 
L 181.638335 225.128781 
L 181.976639 222.257815 
L 182.314944 225.633439 
L 182.653249 239.370422 
L 182.991553 196.834798 
L 183.329858 241.576403 
L 183.668162 211.596106 
L 184.006467 240.948123 
L 184.344772 231.160725 
L 184.683076 233.47617 
L 185.021381 213.407742 
L 185.69799 227.942091 
L 186.036295 249.62287 
L 186.712904 221.443819 
L 187.051209 197.187373 
L 187.389514 229.524795 
L 187.727818 196.142526 
L 188.066123 240.058758 
L 188.404428 238.799155 
L 188.742732 227.604572 
L 189.081037 242.580292 
L 189.419341 223.524276 
L 189.757646 182.622109 
L 190.095951 230.867297 
L 190.434255 220.932217 
L 190.77256 224.681148 
L 191.110865 186.332581 
L 191.449169 220.76373 
L 191.787474 213.840841 
L 192.125779 223.419046 
L 192.464083 228.890048 
L 192.802388 241.056823 
L 193.140693 216.934938 
L 193.478997 221.486453 
L 193.817302 186.978327 
L 194.155607 208.165843 
L 194.493911 213.630698 
L 194.832216 230.141125 
L 195.170521 238.075789 
L 195.508825 237.784018 
L 195.84713 233.448035 
L 196.185434 241.759329 
L 196.523739 231.754904 
L 196.862044 241.379731 
L 197.200348 237.271187 
L 197.538653 230.535433 
L 197.876958 232.574503 
L 198.215262 210.99892 
L 198.553567 241.907517 
L 198.891872 220.7254 
L 199.230176 249.702482 
L 199.568481 243.939106 
L 199.906786 242.020236 
L 200.24509 215.938408 
L 200.583395 246.607254 
L 200.9217 236.849072 
L 201.260004 241.94417 
L 201.598309 245.151642 
L 201.936613 250.763361 
L 202.274918 238.32959 
M 236.443688 250.385985 
L 237.120297 249.76847 
L 237.458601 220.440589 
L 237.796906 248.617333 
L 238.135211 246.8814 
L 238.473515 246.006242 
L 238.81182 250.414421 
L 239.150125 248.687744 
L 239.488429 249.577556 
L 239.826734 249.86093 
L 240.165039 247.797964 
L 240.503343 176.876084 
L 240.841648 248.090762 
L 241.179953 237.789581 
L 241.518257 238.822477 
L 241.856562 247.673643 
L 242.194867 249.281015 
L 242.533171 238.006768 
L 242.871476 245.901623 
L 243.548085 249.381522 
L 243.88639 249.547513 
L 244.224694 235.544334 
L 244.562999 250.915943 
L 244.901304 240.539326 
L 245.239608 240.421238 
L 245.577913 225.158706 
L 245.916218 247.48364 
L 246.254522 245.245182 
L 246.592827 249.333215 
L 246.931132 243.380987 
L 247.269436 240.59784 
L 247.607741 206.568089 
L 247.946046 246.523379 
L 248.28435 241.200947 
L 248.622655 241.343672 
L 248.96096 243.588602 
L 249.299264 243.539278 
L 249.637569 201.774737 
L 249.975873 250.932308 
L 250.314178 243.277714 
L 250.652483 229.779185 
L 250.990787 242.863152 
L 251.329092 239.763414 
L 251.667397 250.721948 
L 252.344006 173.617249 
L 252.682311 225.935025 
L 253.020615 236.767771 
L 253.35892 235.960723 
L 253.697225 247.419432 
L 254.035529 242.457876 
L 254.373834 233.051267 
L 254.712139 212.536527 
L 255.050443 246.470922 
L 255.388748 246.855815 
L 255.727052 244.180459 
L 256.065357 218.528354 
L 256.403662 234.537975 
L 256.741966 222.951762 
L 257.080271 248.188449 
L 257.418576 202.548245 
L 257.75688 230.935317 
L 258.095185 201.384768 
L 258.43349 234.796796 
L 258.771794 236.998601 
L 259.786708 220.769781 
L 260.125013 226.140782 
L 260.463318 249.338654 
L 260.801622 242.56364 
L 261.139927 239.594981 
L 261.478231 198.826034 
L 262.154841 241.846722 
L 262.493145 210.785015 
L 262.83145 194.857528 
L 263.169755 227.997692 
L 263.508059 245.137994 
L 263.846364 225.108876 
L 264.184669 238.834874 
L 264.522973 226.82375 
L 264.861278 228.921652 
L 265.199583 228.198391 
L 265.537887 247.422022 
L 265.876192 242.324888 
L 266.214497 248.274194 
L 266.552801 189.930972 
L 266.891106 227.263366 
L 267.22941 218.912257 
L 267.567715 181.074903 
L 267.90602 231.050892 
L 268.244324 234.912722 
L 268.582629 221.284258 
L 268.920934 234.391276 
L 269.259238 225.534152 
L 269.597543 234.726857 
L 269.935848 196.313099 
L 270.274152 238.358298 
L 270.612457 218.595027 
L 270.950762 226.797301 
L 271.289066 239.101538 
L 271.627371 171.544682 
L 271.965676 211.405313 
L 272.30398 229.048041 
L 272.642285 180.977457 
L 272.98059 219.57491 
L 273.318894 232.602191 
L 273.657199 225.356315 
L 273.995503 228.072921 
L 274.333808 216.001502 
L 274.672113 243.290241 
L 275.010417 244.275192 
L 275.687027 210.717538 
L 276.025331 170.226718 
L 276.363636 222.196122 
L 276.701941 213.221862 
L 277.040245 228.877658 
L 277.37855 197.444323 
L 277.716855 185.814967 
L 278.055159 211.030625 
L 278.393464 205.754431 
L 278.731769 212.671783 
L 279.070073 213.318874 
L 279.408378 205.411893 
L 279.746682 187.474373 
L 280.084987 231.403372 
L 280.423292 236.808208 
L 280.761596 223.450017 
L 281.099901 200.74874 
L 281.438206 217.904915 
L 281.77651 209.051396 
L 282.114815 186.687002 
L 282.45312 235.59584 
L 282.791424 232.070267 
L 283.129729 214.502039 
L 283.468034 182.147783 
L 283.806338 200.82571 
L 284.144643 205.083856 
L 284.482948 178.057215 
L 284.821252 190.815597 
L 285.497861 233.621885 
L 285.836166 195.851121 
L 286.174471 200.415162 
L 286.512775 179.968439 
L 286.85108 231.40924 
L 287.189385 178.692568 
L 287.865994 203.142998 
L 288.204299 219.10367 
L 288.542603 200.606393 
L 288.880908 221.455863 
L 289.219213 195.28883 
L 289.557517 230.1269 
L 289.895822 212.173962 
L 290.234127 173.801402 
L 290.572431 212.236692 
L 290.910736 172.01785 
L 291.24904 223.939691 
L 291.92565 184.757678 
L 292.263954 192.266749 
L 292.602259 187.896496 
L 292.940564 212.196516 
L 293.617173 189.715726 
L 293.955478 207.932541 
L 294.293782 198.700478 
L 294.632087 183.679661 
L 294.970392 211.541327 
L 295.308696 181.681393 
L 295.647001 187.457027 
L 295.985306 170.017159 
L 296.32361 175.603327 
L 296.661915 222.677513 
L 297.00022 181.5433 
L 297.338524 202.256154 
L 297.676829 189.047728 
L 298.015133 212.135038 
L 298.353438 171.040387 
L 298.691743 228.190422 
L 299.030047 172.766847 
L 299.368352 172.789435 
L 299.706657 191.426897 
L 300.044961 173.909427 
L 300.383266 221.027539 
L 300.721571 184.821445 
L 301.059875 238.083468 
L 301.39818 194.073501 
L 301.736485 193.270789 
L 302.074789 172.273199 
L 302.751399 206.605856 
L 303.089703 243.011606 
L 303.428008 169.087681 
L 304.781226 214.153277 
L 305.119531 210.096831 
L 305.457836 194.310758 
L 305.79614 214.559318 
L 306.134445 199.617322 
L 306.47275 219.060306 
L 306.811054 225.485093 
L 307.149359 177.845786 
L 307.487664 173.31202 
L 307.825968 178.106409 
L 308.164273 172.476702 
L 308.502578 174.98863 
L 308.840882 188.386961 
L 309.179187 182.703474 
L 309.517491 180.497077 
L 309.855796 179.845518 
L 310.532405 169.782453 
L 310.87071 168.91918 
L 311.209015 173.532048 
L 311.547319 202.039779 
L 311.885624 168.268834 
L 312.223929 184.0711 
L 312.562233 172.818432 
L 312.900538 169.205035 
L 313.238843 174.109303 
L 313.577147 176.572795 
L 313.915452 175.931426 
L 314.253757 168.743644 
L 314.592061 170.143731 
L 314.930366 174.188635 
L 315.26867 184.423462 
L 315.606975 169.85242 
L 315.94528 174.321773 
L 316.283584 168.463278 
L 316.621889 172.358029 
L 316.960194 188.264961 
L 317.298498 169.889551 
L 317.636803 202.293571 
L 317.975108 172.090072 
L 318.313412 223.542243 
L 318.651717 181.35646 
L 318.990022 171.65658 
L 319.328326 175.391541 
L 319.666631 168.203193 
L 320.004936 168.220346 
L 320.34324 169.780427 
L 320.681545 173.079603 
L 321.019849 173.49654 
L 321.696459 169.409668 
L 322.034763 170.57931 
L 322.373068 169.149678 
L 322.711373 170.076874 
L 323.049677 171.733577 
L 323.387982 245.721479 
L 323.726287 170.029159 
L 324.402896 168.376255 
L 324.741201 170.717012 
L 325.079505 170.141231 
L 325.41781 168.695006 
L 325.756115 168.77508 
L 326.432724 168.299537 
L 326.771029 168.482033 
L 327.109333 168.803283 
L 327.447638 168.394769 
L 327.785942 168.860904 
L 328.124247 168.31274 
L 328.462552 168.965892 
L 328.800856 168.428273 
L 329.139161 168.181398 
L 329.477466 168.600072 
L 329.81577 168.226001 
L 330.154075 168.393104 
L 330.830684 168.197707 
L 331.168989 168.586654 
L 331.507294 168.247597 
L 332.183903 168.190321 
L 334.213731 168.404126 
L 334.552035 168.193364 
L 334.89034 168.410059 
L 335.228645 168.184186 
L 335.566949 168.847337 
L 335.905254 168.245074 
L 336.243559 168.341864 
L 336.581863 168.60687 
L 336.920168 168.729931 
L 337.258473 169.018936 
L 337.935082 168.18 
L 472.918636 168.18 
L 472.918636 168.18 
" clip-path="url(#p12ff59809d)" style="fill: none; stroke: #000000; stroke-opacity: 0.3; stroke-linecap: square"/>
   </g>
   <g id="line2d_26">
    <path d="M 67.291364 211.236 
L 75.74898 250.98 
L 84.206596 250.98 
L 92.664212 250.98 
L 101.121828 250.98 
L 109.579445 250.98 
L 118.037061 250.98 
L 126.494677 250.98 
L 134.952293 250.98 
L 143.409909 177.563125 
L 151.867526 188.720154 
L 160.325142 195.600014 
L 168.782758 196.773637 
L 177.240374 223.186717 
L 185.69799 221.166288 
L 194.155607 220.349782 
M 244.901304 242.567273 
L 253.35892 234.215412 
L 261.816536 230.44711 
L 270.274152 225.611466 
L 278.731769 214.823095 
L 287.189385 207.471107 
L 295.647001 199.838673 
L 304.104617 194.034283 
L 312.562233 188.070426 
L 321.019849 176.623145 
L 329.477466 172.312182 
L 337.935082 168.36105 
L 346.392698 168.18 
L 354.850314 168.18 
L 363.30793 168.18 
L 371.765547 168.18 
L 380.223163 168.18 
L 388.680779 168.18 
L 397.138395 168.18 
L 405.596011 168.18 
L 414.053628 168.18 
L 422.511244 168.18 
L 430.96886 168.18 
L 439.426476 168.18 
L 447.884092 168.18 
L 456.341709 168.18 
L 464.799325 168.18 
" clip-path="url(#p12ff59809d)" style="fill: none; stroke: #000000; stroke-linecap: square"/>
   </g>
   <g id="patch_6">
    <path d="M 42.01 255.12 
L 42.01 164.04 
" style="fill: none; stroke: #7f7f7f; stroke-width: 0.8; stroke-linejoin: miter; stroke-linecap: square"/>
   </g>
   <g id="patch_7">
    <path d="M 47.01 260.12 
L 493.2 260.12 
" style="fill: none; stroke: #7f7f7f; stroke-width: 0.8; stroke-linejoin: miter; stroke-linecap: square"/>
   </g>
   <g id="text_24">
    <!-- Laterality Index -->
    <g transform="translate(227.139687 158.04) scale(0.11 -0.11)">
     <defs>
      <path id="DejaVuSans-61" d="M 2194 1759 
Q 1497 1759 1228 1600 
Q 959 1441 959 1056 
Q 959 750 1161 570 
Q 1363 391 1709 391 
Q 2188 391 2477 730 
Q 2766 1069 2766 1631 
L 2766 1759 
L 2194 1759 
z
M 3341 1997 
L 3341 0 
L 2766 0 
L 2766 531 
Q 2569 213 2275 61 
Q 1981 -91 1556 -91 
Q 1019 -91 701 211 
Q 384 513 384 1019 
Q 384 1609 779 1909 
Q 1175 2209 1959 2209 
L 2766 2209 
L 2766 2266 
Q 2766 2663 2505 2880 
Q 2244 3097 1772 3097 
Q 1472 3097 1187 3025 
Q 903 2953 641 2809 
L 641 3341 
Q 956 3463 1253 3523 
Q 1550 3584 1831 3584 
Q 2591 3584 2966 3190 
Q 3341 2797 3341 1997 
z
" transform="scale(0.015625)"/>
      <path id="DejaVuSans-72" d="M 2631 2963 
Q 2534 3019 2420 3045 
Q 2306 3072 2169 3072 
Q 1681 3072 1420 2755 
Q 1159 2438 1159 1844 
L 1159 0 
L 581 0 
L 581 3500 
L 1159 3500 
L 1159 2956 
Q 1341 3275 1631 3429 
Q 1922 3584 2338 3584 
Q 2397 3584 2469 3576 
Q 2541 3569 2628 3553 
L 2631 2963 
z
" transform="scale(0.015625)"/>
      <path id="DejaVuSans-6c" d="M 603 4863 
L 1178 4863 
L 1178 0 
L 603 0 
L 603 4863 
z
" transform="scale(0.015625)"/>
      <path id="DejaVuSans-64" d="M 2906 2969 
L 2906 4863 
L 3481 4863 
L 3481 0 
L 2906 0 
L 2906 525 
Q 2725 213 2448 61 
Q 2172 -91 1784 -91 
Q 1150 -91 751 415 
Q 353 922 353 1747 
Q 353 2572 751 3078 
Q 1150 3584 1784 3584 
Q 2172 3584 2448 3432 
Q 2725 3281 2906 2969 
z
M 947 1747 
Q 947 1113 1208 752 
Q 1469 391 1925 391 
Q 2381 391 2643 752 
Q 2906 1113 2906 1747 
Q 2906 2381 2643 2742 
Q 2381 3103 1925 3103 
Q 1469 3103 1208 2742 
Q 947 2381 947 1747 
z
" transform="scale(0.015625)"/>
      <path id="DejaVuSans-78" d="M 3513 3500 
L 2247 1797 
L 3578 0 
L 2900 0 
L 1881 1375 
L 863 0 
L 184 0 
L 1544 1831 
L 300 3500 
L 978 3500 
L 1906 2253 
L 2834 3500 
L 3513 3500 
z
" transform="scale(0.015625)"/>
     </defs>
     <use xlink:href="#DejaVuSans-4c"/>
     <use xlink:href="#DejaVuSans-61" x="55.712891"/>
     <use xlink:href="#DejaVuSans-74" x="116.992188"/>
     <use xlink:href="#DejaVuSans-65" x="156.201172"/>
     <use xlink:href="#DejaVuSans-72" x="217.724609"/>
     <use xlink:href="#DejaVuSans-61" x="258.837891"/>
     <use xlink:href="#DejaVuSans-6c" x="320.117188"/>
     <use xlink:href="#DejaVuSans-69" x="347.900391"/>
     <use xlink:href="#DejaVuSans-74" x="375.683594"/>
     <use xlink:href="#DejaVuSans-79" x="414.892578"/>
     <use xlink:href="#DejaVuSans-20" x="474.072266"/>
     <use xlink:href="#DejaVuSans-49" x="505.859375"/>
     <use xlink:href="#DejaVuSans-6e" x="535.351562"/>
     <use xlink:href="#DejaVuSans-64" x="598.730469"/>
     <use xlink:href="#DejaVuSans-65" x="662.207031"/>
     <use xlink:href="#DejaVuSans-78" x="721.980469"/>
    </g>
   </g>
   <g id="legend_2">
    <g id="line2d_27">
     <path d="M 381.814062 177.138438 
L 391.814062 177.138438 
L 401.814062 177.138438 
" style="fill: none; stroke: #000000; stroke-opacity: 0.3; stroke-linecap: square"/>
    </g>
    <g id="text_25">
     <!-- Inst. Lat. Index -->
     <g transform="translate(409.814062 180.638438) scale(0.1 -0.1)">
      <defs>
       <path id="DejaVuSans-2e" d="M 684 794 
L 1344 794 
L 1344 0 
L 684 0 
L 684 794 
z
" transform="scale(0.015625)"/>
      </defs>
      <use xlink:href="#DejaVuSans-49"/>
      <use xlink:href="#DejaVuSans-6e" x="29.492188"/>
      <use xlink:href="#DejaVuSans-73" x="92.871094"/>
      <use xlink:href="#DejaVuSans-74" x="144.970703"/>
      <use xlink:href="#DejaVuSans-2e" x="184.179688"/>
      <use xlink:href="#DejaVuSans-20" x="215.966797"/>
      <use xlink:href="#DejaVuSans-4c" x="247.753906"/>
      <use xlink:href="#DejaVuSans-61" x="303.466797"/>
      <use xlink:href="#DejaVuSans-74" x="364.746094"/>
      <use xlink:href="#DejaVuSans-2e" x="403.955078"/>
      <use xlink:href="#DejaVuSans-20" x="435.742188"/>
      <use xlink:href="#DejaVuSans-49" x="467.529297"/>
      <use xlink:href="#DejaVuSans-6e" x="497.021484"/>
      <use xlink:href="#DejaVuSans-64" x="560.400391"/>
      <use xlink:href="#DejaVuSans-65" x="623.876953"/>
      <use xlink:href="#DejaVuSans-78" x="683.650391"/>
     </g>
    </g>
    <g id="line2d_28">
     <path d="M 381.814062 191.816563 
L 391.814062 191.816563 
L 401.814062 191.816563 
" style="fill: none; stroke: #000000; stroke-linecap: square"/>
    </g>
    <g id="text_26">
     <!-- Avg. Lat. Index -->
     <g transform="translate(409.814062 195.316563) scale(0.1 -0.1)">
      <defs>
       <path id="DejaVuSans-41" d="M 2188 4044 
L 1331 1722 
L 3047 1722 
L 2188 4044 
z
M 1831 4666 
L 2547 4666 
L 4325 0 
L 3669 0 
L 3244 1197 
L 1141 1197 
L 716 0 
L 50 0 
L 1831 4666 
z
" transform="scale(0.015625)"/>
       <path id="DejaVuSans-76" d="M 191 3500 
L 800 3500 
L 1894 563 
L 2988 3500 
L 3597 3500 
L 2284 0 
L 1503 0 
L 191 3500 
z
" transform="scale(0.015625)"/>
      </defs>
      <use xlink:href="#DejaVuSans-41"/>
      <use xlink:href="#DejaVuSans-76" x="62.533203"/>
      <use xlink:href="#DejaVuSans-67" x="121.712891"/>
      <use xlink:href="#DejaVuSans-2e" x="185.189453"/>
      <use xlink:href="#DejaVuSans-20" x="216.976562"/>
      <use xlink:href="#DejaVuSans-4c" x="248.763672"/>
      <use xlink:href="#DejaVuSans-61" x="304.476562"/>
      <use xlink:href="#DejaVuSans-74" x="365.755859"/>
      <use xlink:href="#DejaVuSans-2e" x="404.964844"/>
      <use xlink:href="#DejaVuSans-20" x="436.751953"/>
      <use xlink:href="#DejaVuSans-49" x="468.539062"/>
      <use xlink:href="#DejaVuSans-6e" x="498.03125"/>
      <use xlink:href="#DejaVuSans-64" x="561.410156"/>
      <use xlink:href="#DejaVuSans-65" x="624.886719"/>
      <use xlink:href="#DejaVuSans-78" x="684.660156"/>
     </g>
    </g>
   </g>
  </g>
 </g>
 <defs>
  <clipPath id="p6a39d61c1e">
   <rect x="47.01" y="25.44" width="446.19" height="91.08"/>
  </clipPath>
  <clipPath id="p12ff59809d">
   <rect x="47.01" y="164.04" width="446.19" height="91.08"/>
  </clipPath>
 </defs>
</svg>
