<?xml version="1.0" encoding="utf-8" standalone="no"?>
<!DOCTYPE svg PUBLIC "-//W3C//DTD SVG 1.1//EN"
  "http://www.w3.org/Graphics/SVG/1.1/DTD/svg11.dtd">
<svg xmlns:xlink="http://www.w3.org/1999/xlink" width="504pt" height="360pt" viewBox="0 0 504 360" xmlns="http://www.w3.org/2000/svg" version="1.1">
 <metadata>
  <rdf:RDF xmlns:dc="http://purl.org/dc/elements/1.1/" xmlns:cc="http://creativecommons.org/ns#" xmlns:rdf="http://www.w3.org/1999/02/22-rdf-syntax-ns#">
   <cc:Work>
    <dc:type rdf:resource="http://purl.org/dc/dcmitype/StillImage"/>
    <dc:date>2024-07-09T08:52:22.679087</dc:date>
    <dc:format>image/svg+xml</dc:format>
    <dc:creator>
     <cc:Agent>
      <dc:title>Matplotlib v3.6.1, https://matplotlib.org/</dc:title>
     </cc:Agent>
    </dc:creator>
   </cc:Work>
  </rdf:RDF>
 </metadata>
 <defs>
  <style type="text/css">*{stroke-linejoin: round; stroke-linecap: butt}</style>
 </defs>
 <g id="figure_1">
  <g id="patch_1">
   <path d="M 0 360 
L 504 360 
L 504 0 
L 0 0 
z
" style="fill: #ffffff"/>
  </g>
  <g id="axes_1">
   <g id="patch_2">
    <path d="M 38.64 121 
L 493.2 121 
L 493.2 25.44 
L 38.64 25.44 
z
" style="fill: #ffffff"/>
   </g>
   <g id="matplotlib.axis_1">
    <g id="xtick_1">
     <g id="line2d_1">
      <defs>
       <path id="ma194af7450" d="M 0 0 
L 0 3.5 
" style="stroke: #000000; stroke-width: 0.8"/>
      </defs>
      <g>
       <use xlink:href="#ma194af7450" x="47.381538" y="126" style="stroke: #000000; stroke-width: 0.8"/>
      </g>
     </g>
     <g id="text_1">
      <!-- 0 -->
      <g transform="translate(44.200288 140.598437) scale(0.1 -0.1)">
       <defs>
        <path id="DejaVuSans-30" d="M 2034 4250 
Q 1547 4250 1301 3770 
Q 1056 3291 1056 2328 
Q 1056 1369 1301 889 
Q 1547 409 2034 409 
Q 2525 409 2770 889 
Q 3016 1369 3016 2328 
Q 3016 3291 2770 3770 
Q 2525 4250 2034 4250 
z
M 2034 4750 
Q 2819 4750 3233 4129 
Q 3647 3509 3647 2328 
Q 3647 1150 3233 529 
Q 2819 -91 2034 -91 
Q 1250 -91 836 529 
Q 422 1150 422 2328 
Q 422 3509 836 4129 
Q 1250 4750 2034 4750 
z
" transform="scale(0.015625)"/>
       </defs>
       <use xlink:href="#DejaVuSans-30"/>
      </g>
     </g>
    </g>
    <g id="xtick_2">
     <g id="line2d_2">
      <g>
       <use xlink:href="#ma194af7450" x="134.796923" y="126" style="stroke: #000000; stroke-width: 0.8"/>
      </g>
     </g>
     <g id="text_2">
      <!-- 2 -->
      <g transform="translate(131.615673 140.598437) scale(0.1 -0.1)">
       <defs>
        <path id="DejaVuSans-32" d="M 1228 531 
L 3431 531 
L 3431 0 
L 469 0 
L 469 531 
Q 828 903 1448 1529 
Q 2069 2156 2228 2338 
Q 2531 2678 2651 2914 
Q 2772 3150 2772 3378 
Q 2772 3750 2511 3984 
Q 2250 4219 1831 4219 
Q 1534 4219 1204 4116 
Q 875 4013 500 3803 
L 500 4441 
Q 881 4594 1212 4672 
Q 1544 4750 1819 4750 
Q 2544 4750 2975 4387 
Q 3406 4025 3406 3419 
Q 3406 3131 3298 2873 
Q 3191 2616 2906 2266 
Q 2828 2175 2409 1742 
Q 1991 1309 1228 531 
z
" transform="scale(0.015625)"/>
       </defs>
       <use xlink:href="#DejaVuSans-32"/>
      </g>
     </g>
    </g>
    <g id="xtick_3">
     <g id="line2d_3">
      <g>
       <use xlink:href="#ma194af7450" x="222.212308" y="126" style="stroke: #000000; stroke-width: 0.8"/>
      </g>
     </g>
     <g id="text_3">
      <!-- 4 -->
      <g transform="translate(219.031058 140.598437) scale(0.1 -0.1)">
       <defs>
        <path id="DejaVuSans-34" d="M 2419 4116 
L 825 1625 
L 2419 1625 
L 2419 4116 
z
M 2253 4666 
L 3047 4666 
L 3047 1625 
L 3713 1625 
L 3713 1100 
L 3047 1100 
L 3047 0 
L 2419 0 
L 2419 1100 
L 313 1100 
L 313 1709 
L 2253 4666 
z
" transform="scale(0.015625)"/>
       </defs>
       <use xlink:href="#DejaVuSans-34"/>
      </g>
     </g>
    </g>
    <g id="xtick_4">
     <g id="line2d_4">
      <g>
       <use xlink:href="#ma194af7450" x="309.627692" y="126" style="stroke: #000000; stroke-width: 0.8"/>
      </g>
     </g>
     <g id="text_4">
      <!-- 6 -->
      <g transform="translate(306.446442 140.598437) scale(0.1 -0.1)">
       <defs>
        <path id="DejaVuSans-36" d="M 2113 2584 
Q 1688 2584 1439 2293 
Q 1191 2003 1191 1497 
Q 1191 994 1439 701 
Q 1688 409 2113 409 
Q 2538 409 2786 701 
Q 3034 994 3034 1497 
Q 3034 2003 2786 2293 
Q 2538 2584 2113 2584 
z
M 3366 4563 
L 3366 3988 
Q 3128 4100 2886 4159 
Q 2644 4219 2406 4219 
Q 1781 4219 1451 3797 
Q 1122 3375 1075 2522 
Q 1259 2794 1537 2939 
Q 1816 3084 2150 3084 
Q 2853 3084 3261 2657 
Q 3669 2231 3669 1497 
Q 3669 778 3244 343 
Q 2819 -91 2113 -91 
Q 1303 -91 875 529 
Q 447 1150 447 2328 
Q 447 3434 972 4092 
Q 1497 4750 2381 4750 
Q 2619 4750 2861 4703 
Q 3103 4656 3366 4563 
z
" transform="scale(0.015625)"/>
       </defs>
       <use xlink:href="#DejaVuSans-36"/>
      </g>
     </g>
    </g>
    <g id="xtick_5">
     <g id="line2d_5">
      <g>
       <use xlink:href="#ma194af7450" x="397.043077" y="126" style="stroke: #000000; stroke-width: 0.8"/>
      </g>
     </g>
     <g id="text_5">
      <!-- 8 -->
      <g transform="translate(393.861827 140.598437) scale(0.1 -0.1)">
       <defs>
        <path id="DejaVuSans-38" d="M 2034 2216 
Q 1584 2216 1326 1975 
Q 1069 1734 1069 1313 
Q 1069 891 1326 650 
Q 1584 409 2034 409 
Q 2484 409 2743 651 
Q 3003 894 3003 1313 
Q 3003 1734 2745 1975 
Q 2488 2216 2034 2216 
z
M 1403 2484 
Q 997 2584 770 2862 
Q 544 3141 544 3541 
Q 544 4100 942 4425 
Q 1341 4750 2034 4750 
Q 2731 4750 3128 4425 
Q 3525 4100 3525 3541 
Q 3525 3141 3298 2862 
Q 3072 2584 2669 2484 
Q 3125 2378 3379 2068 
Q 3634 1759 3634 1313 
Q 3634 634 3220 271 
Q 2806 -91 2034 -91 
Q 1263 -91 848 271 
Q 434 634 434 1313 
Q 434 1759 690 2068 
Q 947 2378 1403 2484 
z
M 1172 3481 
Q 1172 3119 1398 2916 
Q 1625 2713 2034 2713 
Q 2441 2713 2670 2916 
Q 2900 3119 2900 3481 
Q 2900 3844 2670 4047 
Q 2441 4250 2034 4250 
Q 1625 4250 1398 4047 
Q 1172 3844 1172 3481 
z
" transform="scale(0.015625)"/>
       </defs>
       <use xlink:href="#DejaVuSans-38"/>
      </g>
     </g>
    </g>
    <g id="xtick_6">
     <g id="line2d_6">
      <g>
       <use xlink:href="#ma194af7450" x="484.458462" y="126" style="stroke: #000000; stroke-width: 0.8"/>
      </g>
     </g>
     <g id="text_6">
      <!-- 10 -->
      <g transform="translate(478.095962 140.598437) scale(0.1 -0.1)">
       <defs>
        <path id="DejaVuSans-31" d="M 794 531 
L 1825 531 
L 1825 4091 
L 703 3866 
L 703 4441 
L 1819 4666 
L 2450 4666 
L 2450 531 
L 3481 531 
L 3481 0 
L 794 0 
L 794 531 
z
" transform="scale(0.015625)"/>
       </defs>
       <use xlink:href="#DejaVuSans-31"/>
       <use xlink:href="#DejaVuSans-30" x="63.623047"/>
      </g>
     </g>
    </g>
   </g>
   <g id="matplotlib.axis_2">
    <g id="ytick_1">
     <g id="line2d_7">
      <defs>
       <path id="mfc71b22ea5" d="M 0 0 
L -3.5 0 
" style="stroke: #000000; stroke-width: 0.8"/>
      </defs>
      <g>
       <use xlink:href="#mfc71b22ea5" x="33.64" y="116.656568" style="stroke: #000000; stroke-width: 0.8"/>
      </g>
     </g>
     <g id="text_7">
      <!-- 0 -->
      <g transform="translate(20.2775 120.455786) scale(0.1 -0.1)">
       <use xlink:href="#DejaVuSans-30"/>
      </g>
     </g>
    </g>
    <g id="ytick_2">
     <g id="line2d_8">
      <g>
       <use xlink:href="#mfc71b22ea5" x="33.64" y="87.233838" style="stroke: #000000; stroke-width: 0.8"/>
      </g>
     </g>
     <g id="text_8">
      <!-- 5 -->
      <g transform="translate(20.2775 91.033057) scale(0.1 -0.1)">
       <defs>
        <path id="DejaVuSans-35" d="M 691 4666 
L 3169 4666 
L 3169 4134 
L 1269 4134 
L 1269 2991 
Q 1406 3038 1543 3061 
Q 1681 3084 1819 3084 
Q 2600 3084 3056 2656 
Q 3513 2228 3513 1497 
Q 3513 744 3044 326 
Q 2575 -91 1722 -91 
Q 1428 -91 1123 -41 
Q 819 9 494 109 
L 494 744 
Q 775 591 1075 516 
Q 1375 441 1709 441 
Q 2250 441 2565 725 
Q 2881 1009 2881 1497 
Q 2881 1984 2565 2268 
Q 2250 2553 1709 2553 
Q 1456 2553 1204 2497 
Q 953 2441 691 2322 
L 691 4666 
z
" transform="scale(0.015625)"/>
       </defs>
       <use xlink:href="#DejaVuSans-35"/>
      </g>
     </g>
    </g>
    <g id="ytick_3">
     <g id="line2d_9">
      <g>
       <use xlink:href="#mfc71b22ea5" x="33.64" y="57.811108" style="stroke: #000000; stroke-width: 0.8"/>
      </g>
     </g>
     <g id="text_9">
      <!-- 10 -->
      <g transform="translate(13.915 61.610327) scale(0.1 -0.1)">
       <use xlink:href="#DejaVuSans-31"/>
       <use xlink:href="#DejaVuSans-30" x="63.623047"/>
      </g>
     </g>
    </g>
    <g id="ytick_4">
     <g id="line2d_10">
      <g>
       <use xlink:href="#mfc71b22ea5" x="33.64" y="28.388379" style="stroke: #000000; stroke-width: 0.8"/>
      </g>
     </g>
     <g id="text_10">
      <!-- 15 -->
      <g transform="translate(13.915 32.187597) scale(0.1 -0.1)">
       <use xlink:href="#DejaVuSans-31"/>
       <use xlink:href="#DejaVuSans-35" x="63.623047"/>
      </g>
     </g>
    </g>
   </g>
   <g id="line2d_11">
    <path d="M 47.381538 110.116566 
L 47.818615 89.455865 
L 48.255692 101.695428 
L 48.692769 65.306932 
L 49.129846 68.577936 
L 49.566923 70.035342 
L 50.004 66.295313 
L 50.441077 76.637791 
L 50.878154 71.751645 
L 51.315231 89.732596 
L 51.752308 67.72454 
L 52.189385 114.150627 
L 52.626462 77.302327 
L 53.063538 113.865331 
L 53.500615 71.636354 
L 53.937692 70.907164 
L 54.374769 78.442573 
L 54.811846 64.146491 
L 55.248923 90.844004 
L 55.686 89.352336 
L 56.123077 57.992371 
L 56.560154 91.667184 
L 56.997231 84.357984 
L 57.434308 65.785 
L 57.871385 112.155218 
L 58.308462 72.473095 
L 58.745538 90.171604 
L 59.182615 65.535198 
L 59.619692 79.690435 
L 60.056769 113.654168 
L 60.493846 79.751525 
L 60.930923 66.912431 
L 61.368 87.007792 
L 61.805077 66.464758 
L 62.242154 76.271161 
L 63.116308 111.31577 
L 63.553385 76.710954 
L 63.990462 85.284147 
L 64.427538 58.708881 
L 64.864615 91.568594 
L 65.301692 87.718533 
L 65.738769 69.514762 
L 66.175846 60.413123 
L 66.612923 33.748822 
L 67.05 106.897957 
L 67.487077 102.917943 
L 67.924154 83.177336 
L 68.798308 109.293225 
L 69.235385 95.454186 
L 69.672462 114.957569 
L 70.109538 74.948251 
L 70.546615 110.854332 
L 70.983692 96.280537 
L 71.857846 29.783636 
L 72.294923 111.566231 
L 72.732 65.433739 
L 73.169077 99.795554 
L 73.606154 47.789665 
L 74.043231 115.203842 
L 74.917385 44.155859 
L 75.354462 105.37006 
L 75.791538 90.516869 
L 76.228615 84.287578 
L 76.665692 109.224382 
L 77.102769 105.519538 
L 77.539846 93.180775 
L 77.976923 65.682232 
L 78.414 61.411512 
L 78.851077 30.200758 
L 79.288154 30.23757 
L 79.725231 110.043853 
L 80.162308 67.751523 
L 80.599385 74.000494 
L 81.036462 102.963654 
L 81.473538 76.435373 
L 81.910615 82.568665 
L 82.347692 57.4649 
L 82.784769 74.262359 
L 83.658923 31.629979 
L 84.096 96.553738 
L 84.533077 33.205067 
L 84.970154 106.950619 
L 85.407231 65.601243 
L 85.844308 109.028496 
L 86.281385 32.642569 
L 86.718462 86.780441 
L 87.155538 114.131122 
L 87.592615 59.643674 
L 88.466769 41.881086 
L 88.903846 64.156988 
L 89.340923 59.786562 
L 89.778 111.560784 
L 90.215077 51.127661 
L 90.652154 66.20893 
L 91.089231 71.961184 
L 91.526308 110.058674 
L 91.963385 93.544571 
L 92.400462 102.867993 
L 92.837538 103.77493 
L 93.274615 49.842383 
L 94.148769 74.273309 
L 95.022923 106.91114 
L 95.46 69.874188 
L 95.897077 115.967568 
L 96.334154 104.087017 
L 96.771231 45.792658 
L 97.208308 47.757306 
L 97.645385 93.33619 
L 98.082462 94.05814 
L 98.519538 94.509056 
L 98.956615 47.625664 
L 99.830769 54.963841 
L 100.267846 84.572078 
L 100.704923 53.296785 
L 101.142 61.510978 
L 101.579077 96.792098 
L 102.016154 50.349345 
L 102.453231 102.305233 
L 102.890308 82.773611 
L 103.327385 79.561599 
L 103.764462 88.766914 
L 104.201538 62.385254 
L 105.075692 86.076246 
L 105.512769 75.36068 
L 105.949846 95.073351 
L 106.386923 101.256449 
L 106.824 74.086615 
L 107.261077 101.872859 
L 107.698154 76.903441 
L 108.135231 101.137033 
L 108.572308 86.827849 
L 109.009385 68.506865 
L 109.446462 80.348343 
L 109.883538 108.546359 
L 110.320615 91.00828 
L 110.757692 62.690233 
L 111.194769 62.242425 
L 111.631846 105.320771 
L 112.068923 114.334998 
L 112.943077 73.221614 
L 113.380154 110.607089 
L 113.817231 102.068746 
L 114.254308 107.916683 
L 114.691385 76.946665 
L 115.128462 83.1261 
L 115.565538 96.238548 
L 116.002615 99.680723 
L 116.439692 111.652695 
L 116.876769 84.307465 
L 117.313846 85.586093 
L 117.750923 93.187815 
L 118.188 78.569199 
L 118.625077 77.78197 
L 119.062154 75.933494 
L 119.499231 82.385528 
L 119.936308 86.075989 
L 120.373385 106.129869 
L 120.810462 90.466697 
L 121.247538 97.60253 
L 121.684615 93.721947 
L 122.121692 80.713309 
L 122.558769 82.420238 
L 122.995846 112.910322 
L 123.432923 93.246071 
L 123.87 111.420143 
L 124.307077 91.294908 
L 124.744154 114.837121 
L 125.181231 113.212802 
L 125.618308 112.179356 
L 126.055385 115.614017 
L 126.492462 98.216851 
L 126.929538 91.252927 
L 127.366615 105.807813 
L 127.803692 93.712826 
L 128.240769 103.581959 
L 128.677846 105.369315 
L 129.114923 91.460026 
L 129.552 112.803942 
L 129.989077 93.583012 
L 130.426154 91.181884 
L 130.863231 98.609598 
L 131.300308 113.298555 
L 131.737385 115.778857 
L 132.174462 109.448093 
L 132.611538 99.691161 
L 133.485692 98.65523 
L 133.922769 102.210937 
L 134.359846 96.031634 
L 134.796923 115.735037 
L 135.234 107.428459 
L 135.671077 116.12734 
L 136.108154 112.319004 
L 136.545231 114.188471 
L 136.982308 98.298496 
L 137.419385 112.567668 
L 137.856462 116.033839 
L 138.293538 99.468481 
L 138.730615 101.185305 
L 139.167692 115.380139 
L 139.604769 101.266047 
L 140.041846 111.788933 
L 140.478923 98.867744 
L 140.916 100.222376 
L 141.353077 99.816139 
L 141.790154 108.872955 
L 142.227231 107.763376 
L 142.664308 102.85889 
L 143.101385 103.085834 
L 143.538462 111.569496 
L 143.975538 101.808758 
L 144.412615 102.448069 
L 144.849692 113.512024 
L 145.286769 109.502584 
L 145.723846 109.921691 
L 146.160923 111.401347 
L 146.598 111.041256 
L 147.035077 106.183063 
L 147.472154 109.396472 
L 147.909231 105.736284 
L 148.346308 116.412556 
L 148.783385 108.772236 
L 149.220462 104.418254 
L 149.657538 116.431218 
L 150.094615 104.873099 
L 150.531692 105.935911 
L 150.968769 109.192346 
L 151.405846 115.415761 
L 151.842923 109.128832 
L 152.28 113.845849 
L 152.717077 107.797793 
L 153.154154 112.690777 
L 153.591231 104.170396 
L 154.028308 107.291081 
L 154.465385 102.18163 
L 154.902462 112.030975 
L 155.339538 113.196169 
L 155.776615 102.653316 
L 156.213692 113.786067 
L 156.650769 108.143801 
L 157.087846 106.952224 
L 157.524923 102.516301 
L 157.962 105.681227 
L 158.399077 104.128371 
L 158.836154 107.33047 
L 159.273231 115.84184 
L 159.710308 115.936838 
L 160.147385 108.39458 
L 160.584462 108.74398 
L 161.021538 113.164628 
L 161.458615 105.638692 
L 161.895692 101.342192 
L 162.332769 109.968661 
L 162.769846 114.517631 
L 163.206923 105.704123 
L 163.644 111.437649 
L 164.081077 105.102841 
L 164.518154 112.345901 
L 164.955231 108.84418 
L 165.392308 115.703927 
L 165.829385 100.455241 
L 166.266462 101.080621 
L 166.703538 108.369232 
L 167.140615 101.691483 
L 167.577692 99.332799 
L 168.451846 108.242763 
L 168.888923 109.558689 
L 169.326 101.689458 
L 169.763077 104.11857 
L 170.200154 114.635362 
L 171.074308 109.359482 
L 171.511385 112.254354 
L 171.948462 106.680368 
L 172.385538 106.609585 
L 172.822615 98.152492 
L 173.259692 109.965673 
L 173.696769 98.750812 
L 174.133846 115.582307 
L 174.570923 113.368657 
L 175.008 108.107461 
L 175.445077 105.462539 
L 176.319231 114.869222 
L 176.756308 93.151682 
L 177.193385 110.755989 
L 177.630462 93.72486 
L 178.067538 101.952373 
L 178.504615 116.186963 
L 178.941692 93.271018 
L 179.378769 91.598941 
L 179.815846 115.1028 
L 180.252923 105.507151 
L 180.69 101.083604 
L 181.127077 91.902019 
L 181.564154 106.761555 
L 182.001231 95.929811 
L 182.438308 88.872702 
L 182.875385 108.550444 
L 183.312462 106.853467 
L 183.749538 94.845848 
L 184.186615 89.674714 
L 184.623692 103.7462 
L 185.060769 97.996161 
L 185.497846 110.205425 
L 185.934923 108.765543 
L 186.372 116.270441 
L 186.809077 111.085541 
L 187.246154 101.438236 
L 187.683231 116.106247 
L 188.120308 88.568679 
L 188.557385 112.67427 
L 188.994462 90.568491 
L 189.431538 104.768045 
L 189.868615 106.465907 
L 190.305692 95.445609 
L 191.179846 111.361728 
L 191.616923 96.178146 
L 192.054 114.168269 
L 192.491077 106.469925 
L 192.928154 77.864047 
L 193.365231 77.707739 
L 193.802308 104.519319 
L 194.239385 91.763122 
L 194.676462 74.974299 
L 195.113538 78.044268 
L 195.550615 79.993939 
L 195.987692 92.890051 
L 196.424769 110.82259 
L 196.861846 99.582843 
L 197.298923 104.182997 
L 197.736 74.427441 
L 198.173077 115.137394 
L 198.610154 72.051676 
L 199.047231 115.959228 
L 199.484308 96.424847 
L 199.921385 83.44866 
L 200.358462 99.197475 
L 200.795538 110.124576 
L 201.232615 93.67876 
L 201.669692 71.063486 
L 202.106769 113.964085 
L 202.543846 84.167332 
L 202.980923 90.174206 
L 203.418 75.949244 
L 203.855077 68.303442 
L 204.292154 105.485717 
L 204.729231 74.922309 
L 205.166308 79.305384 
L 205.603385 70.652412 
L 206.040462 98.387038 
L 206.477538 107.223498 
L 207.351692 69.219778 
L 207.788769 72.653255 
L 208.225846 77.436907 
L 208.662923 66.985485 
L 209.537077 101.267206 
L 209.974154 112.650578 
L 210.411231 77.994699 
L 210.848308 107.163599 
L 211.285385 73.141884 
L 211.722462 98.993705 
L 212.159538 65.442212 
L 212.596615 97.309271 
L 213.033692 90.688236 
L 213.470769 97.536921 
L 213.907846 64.591741 
L 214.782 109.977026 
L 215.219077 72.848367 
L 215.656154 73.98552 
L 216.093231 108.342585 
L 216.530308 80.534315 
L 216.967385 64.208312 
L 217.404462 106.841334 
L 217.841538 99.938769 
L 218.278615 106.690498 
L 218.715692 63.813019 
L 219.152769 79.06184 
L 219.589846 78.735964 
L 220.026923 108.059791 
L 220.464 68.370466 
L 220.901077 90.917462 
L 221.338154 100.142754 
L 221.775231 71.427815 
L 222.212308 75.299689 
L 222.649385 76.046543 
L 223.523538 104.596315 
L 223.960615 115.012055 
L 224.397692 109.964185 
L 224.834769 94.830576 
L 225.271846 108.160568 
L 225.708923 93.008273 
L 226.146 112.569728 
L 226.583077 92.551679 
L 227.020154 85.930329 
L 227.457231 76.973832 
L 227.894308 84.5861 
L 228.331385 84.560853 
L 228.768462 102.585904 
L 229.205538 72.651221 
L 229.642615 90.752618 
L 230.079692 93.497843 
L 230.516769 87.525941 
L 230.953846 107.204272 
L 231.390923 78.12022 
L 231.828 96.477497 
L 232.265077 101.661636 
L 233.139231 92.359462 
L 233.576308 80.567306 
L 234.013385 94.190023 
L 234.450462 111.52731 
L 234.887538 90.343875 
L 235.324615 112.010667 
L 235.761692 101.601051 
L 236.198769 109.0109 
L 236.635846 92.143521 
L 237.072923 88.63962 
L 237.51 112.320637 
L 237.947077 87.431221 
L 238.384154 90.900027 
L 238.821231 109.922289 
L 239.258308 84.988457 
L 239.695385 99.833839 
L 240.132462 96.443464 
L 240.569538 91.260503 
L 241.006615 114.306039 
L 241.443692 103.171055 
L 241.880769 96.50851 
L 242.317846 114.770647 
L 242.754923 108.669416 
L 243.192 94.988235 
L 243.629077 109.290882 
L 244.066154 107.893007 
L 244.503231 89.561091 
L 244.940308 113.224618 
L 245.377385 100.785791 
L 245.814462 102.188314 
L 246.688615 114.966034 
L 247.125692 93.20423 
L 247.562769 106.714723 
L 247.999846 102.570038 
L 248.436923 104.756524 
L 248.874 99.551175 
L 249.311077 107.749691 
L 249.748154 99.829507 
L 250.185231 105.872104 
L 250.622308 99.006002 
L 251.496462 97.967004 
L 251.933538 103.211877 
L 252.370615 110.451492 
L 252.807692 103.021285 
L 253.244769 116.493574 
L 253.681846 104.0985 
L 254.118923 105.925454 
L 254.556 103.179979 
L 254.993077 102.30377 
L 255.430154 114.855548 
L 255.867231 112.722729 
L 256.304308 112.239871 
L 256.741385 115.669774 
L 257.178462 106.161148 
L 257.615538 113.295034 
L 258.052615 110.913576 
L 258.489692 116.299553 
L 258.926769 110.526387 
L 259.363846 114.363119 
L 259.800923 110.434521 
L 260.238 115.11622 
L 260.675077 108.575662 
L 261.112154 110.234422 
L 261.549231 110.200929 
L 261.986308 113.022034 
L 262.423385 113.869791 
L 262.860462 112.837384 
L 263.297538 114.955072 
L 263.734615 110.916331 
L 264.608769 116.319932 
L 265.045846 110.236278 
L 265.482923 111.094513 
L 265.92 114.226548 
L 266.357077 111.325283 
L 266.794154 115.898118 
L 267.231231 112.653854 
L 267.668308 115.986728 
L 268.105385 115.553444 
L 268.542462 115.41551 
L 268.979538 115.586852 
L 269.416615 112.411872 
L 269.853692 115.839321 
L 270.290769 115.249298 
L 270.727846 113.566908 
L 271.164923 115.548491 
L 271.602 116.40348 
L 272.039077 113.305441 
L 272.476154 116.299615 
L 272.913231 116.130168 
L 273.350308 114.434641 
L 273.787385 113.669718 
L 274.224462 116.582475 
L 274.661538 115.480961 
L 275.098615 115.816964 
L 275.535692 114.677271 
L 275.972769 116.62485 
L 276.409846 116.376639 
L 276.846923 115.4053 
L 277.284 115.622253 
L 277.721077 116.396575 
L 278.158154 115.337044 
L 278.595231 115.639634 
L 279.032308 116.307838 
L 279.469385 115.299204 
L 279.906462 115.263241 
L 280.343538 116.188883 
L 281.217692 116.443823 
L 281.654769 115.425533 
L 282.091846 116.534879 
L 282.528923 116.033691 
L 282.966 116.063194 
L 283.403077 115.585192 
L 283.840154 115.455859 
L 284.277231 115.900639 
L 284.714308 115.818794 
L 285.151385 115.531143 
L 286.025538 116.435188 
L 287.336769 116.035857 
L 287.773846 116.389895 
L 288.210923 116.277355 
L 288.648 115.785293 
L 289.085077 116.177932 
L 289.522154 115.896837 
L 290.396308 116.258947 
L 291.270462 115.769998 
L 292.144615 116.027593 
L 292.581692 116.356176 
L 293.018769 115.925791 
L 293.455846 116.460239 
L 293.892923 116.393959 
L 294.33 115.91152 
L 294.767077 116.344591 
L 295.204154 116.547117 
L 295.641231 116.266883 
L 296.078308 116.137948 
L 296.515385 115.769192 
L 296.952462 116.113379 
L 297.389538 116.037288 
L 298.263692 115.623639 
L 298.700769 115.836803 
L 299.137846 115.421001 
L 299.574923 115.828757 
L 300.012 116.567657 
L 300.449077 116.581205 
L 300.886154 116.128559 
L 301.323231 116.631814 
L 302.197385 115.059019 
L 302.634462 115.04268 
L 303.071538 115.231602 
L 303.508615 116.561844 
L 303.945692 115.154978 
L 304.382769 115.996619 
L 305.256923 114.951739 
L 305.694 116.307857 
L 306.131077 114.841198 
L 306.568154 116.574248 
L 307.005231 115.298263 
L 307.442308 115.976376 
L 307.879385 115.082001 
L 308.753538 115.979764 
L 309.190615 114.702547 
L 309.627692 114.719752 
L 310.064769 116.577276 
L 310.501846 113.754766 
L 310.938923 116.469997 
L 311.376 114.965324 
L 311.813077 113.923548 
L 312.250154 113.403551 
L 312.687231 114.985745 
L 313.124308 113.440544 
L 313.561385 113.669544 
L 313.998462 115.710767 
L 314.435538 114.121083 
L 314.872615 115.885097 
L 315.309692 113.675667 
L 315.746769 113.782762 
L 316.183846 114.786476 
L 316.620923 115.349418 
L 317.058 112.780598 
L 317.495077 113.656219 
L 317.932154 116.529173 
L 318.369231 115.594937 
L 318.806308 113.432592 
L 319.243385 114.068481 
L 319.680462 111.273528 
L 320.117538 109.932064 
L 320.991692 114.357261 
L 321.428769 108.880949 
L 321.865846 108.794049 
L 322.302923 115.558482 
L 322.74 113.752362 
L 323.177077 113.130395 
L 323.614154 116.649393 
L 324.051231 109.464727 
L 324.488308 110.063392 
L 324.925385 115.488595 
L 325.362462 107.416665 
L 325.799538 108.565381 
L 326.236615 110.404797 
L 326.673692 115.341751 
L 327.547846 106.615954 
L 327.984923 108.432555 
L 328.422 108.436627 
L 328.859077 106.780752 
L 329.296154 104.14085 
L 329.733231 116.646045 
L 330.170308 113.867748 
L 330.607385 115.766316 
L 331.044462 113.075954 
L 331.481538 113.790932 
L 331.918615 115.490741 
L 332.355692 112.47411 
L 332.792769 107.163445 
L 333.229846 104.286403 
L 333.666923 115.449749 
L 334.104 109.64009 
L 334.541077 100.486507 
L 334.978154 112.772495 
L 335.415231 110.903117 
L 335.852308 111.114195 
L 336.289385 107.675161 
L 336.726462 110.390627 
L 337.163538 112.008939 
L 337.600615 111.866148 
L 338.037692 107.027748 
L 338.474769 100.479599 
L 338.911846 103.238737 
L 339.348923 97.741266 
L 339.786 115.425814 
L 340.660154 104.900475 
L 341.097231 102.107038 
L 341.534308 105.079731 
L 341.971385 97.209376 
L 342.408462 102.926099 
L 342.845538 112.054676 
L 343.282615 105.65866 
L 343.719692 113.574339 
L 344.156769 115.344425 
L 344.593846 112.801092 
L 345.030923 104.707484 
L 345.468 111.311648 
L 345.905077 97.810595 
L 346.342154 105.042929 
L 346.779231 101.736126 
L 347.216308 102.75308 
L 347.653385 105.274046 
L 348.090462 93.437648 
L 348.527538 111.951104 
L 348.964615 96.232888 
L 349.401692 114.959011 
L 349.838769 105.584663 
L 350.275846 105.06797 
L 350.712923 98.982926 
L 351.15 111.135944 
L 351.587077 115.85226 
L 352.024154 102.017158 
L 352.461231 110.63305 
L 352.898308 94.660172 
L 353.335385 111.386067 
L 353.772462 98.207559 
L 354.646615 115.599318 
L 355.083692 109.395548 
L 355.520769 97.451657 
L 355.957846 109.968859 
L 356.394923 100.178558 
L 356.832 113.053243 
L 357.269077 104.619413 
L 357.706154 106.865647 
L 358.143231 105.203071 
L 358.580308 116.131252 
L 359.017385 108.159483 
L 359.454462 94.16251 
L 359.891538 99.611042 
L 360.328615 101.229479 
L 360.765692 98.323857 
L 361.639846 105.320367 
L 362.076923 99.572691 
L 362.514 104.138322 
L 362.951077 110.191267 
L 363.388154 106.192264 
L 363.825231 111.29092 
L 364.262308 102.939862 
L 365.136462 111.404294 
L 365.573538 116.045338 
L 366.447692 101.000963 
L 366.884769 103.375954 
L 367.321846 97.162929 
L 367.758923 102.307982 
L 368.196 102.255038 
L 368.633077 101.174416 
L 369.070154 104.710627 
L 369.507231 100.137013 
L 369.944308 115.478228 
L 370.381385 99.331349 
L 370.818462 111.248423 
L 371.255538 101.438138 
L 371.692615 104.656778 
L 372.129692 115.858566 
L 372.566769 115.812335 
L 373.003846 106.300316 
L 373.440923 108.184812 
L 373.878 115.882584 
L 374.315077 110.087463 
L 374.752154 115.183546 
L 375.189231 100.724204 
L 375.626308 107.549214 
L 376.063385 106.79865 
L 376.500462 109.082834 
L 376.937538 115.348327 
L 377.374615 110.902341 
L 377.811692 110.273572 
L 378.248769 115.004566 
L 378.685846 106.388953 
L 379.122923 113.355629 
L 379.56 110.09311 
L 379.997077 115.331706 
L 380.434154 104.603743 
L 380.871231 116.555222 
L 381.308308 106.94275 
L 381.745385 110.822448 
L 382.182462 109.314036 
L 382.619538 107.01543 
L 383.056615 108.26978 
L 383.493692 113.945248 
L 383.930769 116.042313 
L 384.367846 108.604014 
L 385.242 108.693317 
L 385.679077 114.289389 
L 386.116154 113.871046 
L 386.553231 115.005439 
L 386.990308 108.661065 
L 387.427385 115.493913 
L 387.864462 110.144996 
L 388.301538 115.826658 
L 388.738615 113.877666 
L 389.175692 114.12839 
L 389.612769 110.353918 
L 390.049846 116.325997 
L 390.486923 114.700951 
L 390.924 111.364208 
L 391.361077 111.689888 
L 391.798154 112.58896 
L 392.235231 116.49177 
L 392.672308 114.012548 
L 393.109385 112.642854 
L 393.546462 115.084918 
L 393.983538 113.910912 
L 394.420615 114.525237 
L 394.857692 113.013622 
L 395.731846 114.220044 
L 396.168923 115.499641 
L 396.606 115.121816 
L 397.043077 114.521543 
L 397.480154 116.097654 
L 397.917231 114.155526 
L 398.354308 116.303575 
L 398.791385 115.536172 
L 399.228462 115.593509 
L 399.665538 116.339135 
L 400.102615 116.287196 
L 400.976769 115.227736 
L 401.413846 115.05082 
L 401.850923 115.730239 
L 402.288 115.87956 
L 402.725077 115.456195 
L 403.162154 115.681555 
L 403.599231 115.511944 
L 404.036308 115.983524 
L 404.910462 115.746521 
L 405.347538 116.589038 
L 405.784615 116.632631 
L 406.221692 116.298331 
L 406.658769 116.531126 
L 407.095846 116.10266 
L 407.532923 116.570531 
L 407.97 116.364138 
L 408.407077 116.654631 
L 408.844154 116.320206 
L 409.281231 116.438214 
L 409.718308 116.292097 
L 410.155385 116.635853 
L 411.466615 116.46736 
L 412.340769 116.639084 
L 414.963231 116.57392 
L 419.334 116.645214 
L 425.016 116.651267 
L 430.260923 116.613226 
L 431.572154 116.642873 
L 434.194615 116.510766 
L 435.942923 116.584886 
L 436.817077 116.414317 
L 437.254154 116.496298 
L 437.691231 116.397669 
L 438.128308 116.531868 
L 438.565385 116.484433 
L 439.002462 116.155278 
L 439.439538 116.648349 
L 439.876615 116.133929 
L 440.313692 116.218907 
L 440.750769 116.614755 
L 441.187846 116.09838 
L 441.624923 116.168748 
L 442.062 116.118019 
L 442.499077 116.622869 
L 442.936154 115.959234 
L 443.373231 116.386647 
L 443.810308 116.485967 
L 444.247385 115.521206 
L 445.995692 115.633695 
L 446.432769 116.006629 
L 446.869846 115.532553 
L 447.306923 116.432602 
L 447.744 115.586564 
L 448.181077 115.064716 
L 448.618154 115.722439 
L 449.055231 113.91811 
L 449.492308 113.909943 
L 449.929385 115.271855 
L 450.366462 115.25317 
L 450.803538 114.790883 
L 451.240615 116.162712 
L 451.677692 112.956927 
L 452.114769 114.907657 
L 452.551846 113.726838 
L 452.988923 115.760249 
L 453.426 116.492527 
L 453.863077 114.54547 
L 454.300154 116.486556 
L 454.737231 113.275133 
L 455.174308 113.568431 
L 455.611385 111.851473 
L 456.048462 110.621248 
L 456.485538 112.570169 
L 456.922615 109.950606 
L 457.359692 114.12926 
L 457.796769 111.202176 
L 458.233846 112.365528 
L 458.670923 116.487901 
L 459.108 113.273321 
L 459.545077 112.066005 
L 459.982154 108.270847 
L 460.419231 111.216871 
L 460.856308 112.69699 
L 461.293385 115.714571 
L 461.730462 116.44177 
L 462.167538 112.486044 
L 462.604615 111.071673 
L 463.041692 114.698144 
L 463.478769 106.798567 
L 463.915846 107.714328 
L 464.352923 116.4902 
L 464.79 106.587429 
L 465.227077 109.591212 
L 465.664154 107.842649 
L 466.101231 103.132959 
L 466.538308 113.156398 
L 466.975385 109.049347 
L 467.412462 107.364955 
L 467.849538 106.647629 
L 468.286615 106.918419 
L 468.723692 113.674741 
L 469.160769 105.836025 
L 470.034923 99.853442 
L 470.472 116.069872 
L 470.909077 116.054745 
L 471.346154 107.155401 
L 471.783231 102.69744 
L 472.220308 102.394368 
L 472.657385 98.39818 
L 473.094462 105.852347 
L 473.531538 110.502316 
L 473.968615 99.249305 
L 474.405692 100.277446 
L 474.842769 101.718615 
L 475.279846 114.133226 
L 475.716923 116.069163 
L 476.591077 101.908574 
L 477.028154 101.750808 
L 477.465231 115.870953 
L 477.902308 114.81687 
L 478.339385 115.299589 
L 478.776462 99.909796 
L 479.213538 93.974185 
L 479.650615 96.639362 
L 480.087692 114.670661 
L 480.524769 111.386215 
L 480.961846 95.404596 
L 481.398923 97.094885 
L 481.836 90.255217 
L 482.273077 102.606674 
L 482.710154 91.577187 
L 483.147231 101.880269 
L 483.584308 94.814372 
L 484.021385 99.029627 
L 484.021385 99.029627 
" clip-path="url(#pec01b6c89f)" style="fill: none; stroke: #1f77b4; stroke-opacity: 0.5; stroke-linecap: square"/>
   </g>
   <g id="line2d_12">
    <path d="M 38.64 99.00293 
L 493.2 99.00293 
" clip-path="url(#pec01b6c89f)" style="fill: none; stroke-dasharray: 5,5; stroke-dashoffset: 0; stroke: #000000"/>
   </g>
   <g id="line2d_13">
    <path d="M 38.64 110.772022 
L 493.2 110.772022 
" clip-path="url(#pec01b6c89f)" style="fill: none; stroke-dasharray: 2,5; stroke-dashoffset: 0; stroke: #d62728"/>
   </g>
   <g id="line2d_14">
    <path d="M 38.64 93.118384 
L 493.2 93.118384 
" clip-path="url(#pec01b6c89f)" style="fill: none; stroke-dasharray: 2,5; stroke-dashoffset: 0; stroke: #d62728"/>
   </g>
   <g id="patch_3">
    <path d="M 33.64 121 
L 33.64 25.44 
" style="fill: none; stroke: #7f7f7f; stroke-width: 0.8; stroke-linejoin: miter; stroke-linecap: square"/>
   </g>
   <g id="patch_4">
    <path d="M 38.64 126 
L 493.2 126 
" style="fill: none; stroke: #7f7f7f; stroke-width: 0.8; stroke-linejoin: miter; stroke-linecap: square"/>
   </g>
   <g id="text_11">
    <!-- Vector magnitude -->
    <g transform="translate(216.894375 19.44) scale(0.11 -0.11)">
     <defs>
      <path id="DejaVuSans-56" d="M 1831 0 
L 50 4666 
L 709 4666 
L 2188 738 
L 3669 4666 
L 4325 4666 
L 2547 0 
L 1831 0 
z
" transform="scale(0.015625)"/>
      <path id="DejaVuSans-65" d="M 3597 1894 
L 3597 1613 
L 953 1613 
Q 991 1019 1311 708 
Q 1631 397 2203 397 
Q 2534 397 2845 478 
Q 3156 559 3463 722 
L 3463 178 
Q 3153 47 2828 -22 
Q 2503 -91 2169 -91 
Q 1331 -91 842 396 
Q 353 884 353 1716 
Q 353 2575 817 3079 
Q 1281 3584 2069 3584 
Q 2775 3584 3186 3129 
Q 3597 2675 3597 1894 
z
M 3022 2063 
Q 3016 2534 2758 2815 
Q 2500 3097 2075 3097 
Q 1594 3097 1305 2825 
Q 1016 2553 972 2059 
L 3022 2063 
z
" transform="scale(0.015625)"/>
      <path id="DejaVuSans-63" d="M 3122 3366 
L 3122 2828 
Q 2878 2963 2633 3030 
Q 2388 3097 2138 3097 
Q 1578 3097 1268 2742 
Q 959 2388 959 1747 
Q 959 1106 1268 751 
Q 1578 397 2138 397 
Q 2388 397 2633 464 
Q 2878 531 3122 666 
L 3122 134 
Q 2881 22 2623 -34 
Q 2366 -91 2075 -91 
Q 1284 -91 818 406 
Q 353 903 353 1747 
Q 353 2603 823 3093 
Q 1294 3584 2113 3584 
Q 2378 3584 2631 3529 
Q 2884 3475 3122 3366 
z
" transform="scale(0.015625)"/>
      <path id="DejaVuSans-74" d="M 1172 4494 
L 1172 3500 
L 2356 3500 
L 2356 3053 
L 1172 3053 
L 1172 1153 
Q 1172 725 1289 603 
Q 1406 481 1766 481 
L 2356 481 
L 2356 0 
L 1766 0 
Q 1100 0 847 248 
Q 594 497 594 1153 
L 594 3053 
L 172 3053 
L 172 3500 
L 594 3500 
L 594 4494 
L 1172 4494 
z
" transform="scale(0.015625)"/>
      <path id="DejaVuSans-6f" d="M 1959 3097 
Q 1497 3097 1228 2736 
Q 959 2375 959 1747 
Q 959 1119 1226 758 
Q 1494 397 1959 397 
Q 2419 397 2687 759 
Q 2956 1122 2956 1747 
Q 2956 2369 2687 2733 
Q 2419 3097 1959 3097 
z
M 1959 3584 
Q 2709 3584 3137 3096 
Q 3566 2609 3566 1747 
Q 3566 888 3137 398 
Q 2709 -91 1959 -91 
Q 1206 -91 779 398 
Q 353 888 353 1747 
Q 353 2609 779 3096 
Q 1206 3584 1959 3584 
z
" transform="scale(0.015625)"/>
      <path id="DejaVuSans-72" d="M 2631 2963 
Q 2534 3019 2420 3045 
Q 2306 3072 2169 3072 
Q 1681 3072 1420 2755 
Q 1159 2438 1159 1844 
L 1159 0 
L 581 0 
L 581 3500 
L 1159 3500 
L 1159 2956 
Q 1341 3275 1631 3429 
Q 1922 3584 2338 3584 
Q 2397 3584 2469 3576 
Q 2541 3569 2628 3553 
L 2631 2963 
z
" transform="scale(0.015625)"/>
      <path id="DejaVuSans-20" transform="scale(0.015625)"/>
      <path id="DejaVuSans-6d" d="M 3328 2828 
Q 3544 3216 3844 3400 
Q 4144 3584 4550 3584 
Q 5097 3584 5394 3201 
Q 5691 2819 5691 2113 
L 5691 0 
L 5113 0 
L 5113 2094 
Q 5113 2597 4934 2840 
Q 4756 3084 4391 3084 
Q 3944 3084 3684 2787 
Q 3425 2491 3425 1978 
L 3425 0 
L 2847 0 
L 2847 2094 
Q 2847 2600 2669 2842 
Q 2491 3084 2119 3084 
Q 1678 3084 1418 2786 
Q 1159 2488 1159 1978 
L 1159 0 
L 581 0 
L 581 3500 
L 1159 3500 
L 1159 2956 
Q 1356 3278 1631 3431 
Q 1906 3584 2284 3584 
Q 2666 3584 2933 3390 
Q 3200 3197 3328 2828 
z
" transform="scale(0.015625)"/>
      <path id="DejaVuSans-61" d="M 2194 1759 
Q 1497 1759 1228 1600 
Q 959 1441 959 1056 
Q 959 750 1161 570 
Q 1363 391 1709 391 
Q 2188 391 2477 730 
Q 2766 1069 2766 1631 
L 2766 1759 
L 2194 1759 
z
M 3341 1997 
L 3341 0 
L 2766 0 
L 2766 531 
Q 2569 213 2275 61 
Q 1981 -91 1556 -91 
Q 1019 -91 701 211 
Q 384 513 384 1019 
Q 384 1609 779 1909 
Q 1175 2209 1959 2209 
L 2766 2209 
L 2766 2266 
Q 2766 2663 2505 2880 
Q 2244 3097 1772 3097 
Q 1472 3097 1187 3025 
Q 903 2953 641 2809 
L 641 3341 
Q 956 3463 1253 3523 
Q 1550 3584 1831 3584 
Q 2591 3584 2966 3190 
Q 3341 2797 3341 1997 
z
" transform="scale(0.015625)"/>
      <path id="DejaVuSans-67" d="M 2906 1791 
Q 2906 2416 2648 2759 
Q 2391 3103 1925 3103 
Q 1463 3103 1205 2759 
Q 947 2416 947 1791 
Q 947 1169 1205 825 
Q 1463 481 1925 481 
Q 2391 481 2648 825 
Q 2906 1169 2906 1791 
z
M 3481 434 
Q 3481 -459 3084 -895 
Q 2688 -1331 1869 -1331 
Q 1566 -1331 1297 -1286 
Q 1028 -1241 775 -1147 
L 775 -588 
Q 1028 -725 1275 -790 
Q 1522 -856 1778 -856 
Q 2344 -856 2625 -561 
Q 2906 -266 2906 331 
L 2906 616 
Q 2728 306 2450 153 
Q 2172 0 1784 0 
Q 1141 0 747 490 
Q 353 981 353 1791 
Q 353 2603 747 3093 
Q 1141 3584 1784 3584 
Q 2172 3584 2450 3431 
Q 2728 3278 2906 2969 
L 2906 3500 
L 3481 3500 
L 3481 434 
z
" transform="scale(0.015625)"/>
      <path id="DejaVuSans-6e" d="M 3513 2113 
L 3513 0 
L 2938 0 
L 2938 2094 
Q 2938 2591 2744 2837 
Q 2550 3084 2163 3084 
Q 1697 3084 1428 2787 
Q 1159 2491 1159 1978 
L 1159 0 
L 581 0 
L 581 3500 
L 1159 3500 
L 1159 2956 
Q 1366 3272 1645 3428 
Q 1925 3584 2291 3584 
Q 2894 3584 3203 3211 
Q 3513 2838 3513 2113 
z
" transform="scale(0.015625)"/>
      <path id="DejaVuSans-69" d="M 603 3500 
L 1178 3500 
L 1178 0 
L 603 0 
L 603 3500 
z
M 603 4863 
L 1178 4863 
L 1178 4134 
L 603 4134 
L 603 4863 
z
" transform="scale(0.015625)"/>
      <path id="DejaVuSans-75" d="M 544 1381 
L 544 3500 
L 1119 3500 
L 1119 1403 
Q 1119 906 1312 657 
Q 1506 409 1894 409 
Q 2359 409 2629 706 
Q 2900 1003 2900 1516 
L 2900 3500 
L 3475 3500 
L 3475 0 
L 2900 0 
L 2900 538 
Q 2691 219 2414 64 
Q 2138 -91 1772 -91 
Q 1169 -91 856 284 
Q 544 659 544 1381 
z
M 1991 3584 
L 1991 3584 
z
" transform="scale(0.015625)"/>
      <path id="DejaVuSans-64" d="M 2906 2969 
L 2906 4863 
L 3481 4863 
L 3481 0 
L 2906 0 
L 2906 525 
Q 2725 213 2448 61 
Q 2172 -91 1784 -91 
Q 1150 -91 751 415 
Q 353 922 353 1747 
Q 353 2572 751 3078 
Q 1150 3584 1784 3584 
Q 2172 3584 2448 3432 
Q 2725 3281 2906 2969 
z
M 947 1747 
Q 947 1113 1208 752 
Q 1469 391 1925 391 
Q 2381 391 2643 752 
Q 2906 1113 2906 1747 
Q 2906 2381 2643 2742 
Q 2381 3103 1925 3103 
Q 1469 3103 1208 2742 
Q 947 2381 947 1747 
z
" transform="scale(0.015625)"/>
     </defs>
     <use xlink:href="#DejaVuSans-56"/>
     <use xlink:href="#DejaVuSans-65" x="60.658203"/>
     <use xlink:href="#DejaVuSans-63" x="122.181641"/>
     <use xlink:href="#DejaVuSans-74" x="177.162109"/>
     <use xlink:href="#DejaVuSans-6f" x="216.371094"/>
     <use xlink:href="#DejaVuSans-72" x="277.552734"/>
     <use xlink:href="#DejaVuSans-20" x="318.666016"/>
     <use xlink:href="#DejaVuSans-6d" x="350.453125"/>
     <use xlink:href="#DejaVuSans-61" x="447.865234"/>
     <use xlink:href="#DejaVuSans-67" x="509.144531"/>
     <use xlink:href="#DejaVuSans-6e" x="572.621094"/>
     <use xlink:href="#DejaVuSans-69" x="636"/>
     <use xlink:href="#DejaVuSans-74" x="663.783203"/>
     <use xlink:href="#DejaVuSans-75" x="702.992188"/>
     <use xlink:href="#DejaVuSans-64" x="766.371094"/>
     <use xlink:href="#DejaVuSans-65" x="829.847656"/>
    </g>
   </g>
  </g>
  <g id="axes_2">
   <g id="patch_5">
    <path d="M 38.64 217.02 
L 493.2 217.02 
L 493.2 169.24 
L 38.64 169.24 
z
" style="fill: #ffffff"/>
   </g>
   <g id="matplotlib.axis_3">
    <g id="xtick_7">
     <g id="line2d_15">
      <g>
       <use xlink:href="#ma194af7450" x="59.301818" y="222.02" style="stroke: #000000; stroke-width: 0.8"/>
      </g>
     </g>
     <g id="text_12">
      <!-- 0 -->
      <g transform="translate(56.120568 236.618437) scale(0.1 -0.1)">
       <use xlink:href="#DejaVuSans-30"/>
      </g>
     </g>
    </g>
    <g id="xtick_8">
     <g id="line2d_16">
      <g>
       <use xlink:href="#ma194af7450" x="142.031821" y="222.02" style="stroke: #000000; stroke-width: 0.8"/>
      </g>
     </g>
     <g id="text_13">
      <!-- 2 -->
      <g transform="translate(138.850571 236.618437) scale(0.1 -0.1)">
       <use xlink:href="#DejaVuSans-32"/>
      </g>
     </g>
    </g>
    <g id="xtick_9">
     <g id="line2d_17">
      <g>
       <use xlink:href="#ma194af7450" x="224.761824" y="222.02" style="stroke: #000000; stroke-width: 0.8"/>
      </g>
     </g>
     <g id="text_14">
      <!-- 4 -->
      <g transform="translate(221.580574 236.618437) scale(0.1 -0.1)">
       <use xlink:href="#DejaVuSans-34"/>
      </g>
     </g>
    </g>
    <g id="xtick_10">
     <g id="line2d_18">
      <g>
       <use xlink:href="#ma194af7450" x="307.491826" y="222.02" style="stroke: #000000; stroke-width: 0.8"/>
      </g>
     </g>
     <g id="text_15">
      <!-- 6 -->
      <g transform="translate(304.310576 236.618437) scale(0.1 -0.1)">
       <use xlink:href="#DejaVuSans-36"/>
      </g>
     </g>
    </g>
    <g id="xtick_11">
     <g id="line2d_19">
      <g>
       <use xlink:href="#ma194af7450" x="390.221829" y="222.02" style="stroke: #000000; stroke-width: 0.8"/>
      </g>
     </g>
     <g id="text_16">
      <!-- 8 -->
      <g transform="translate(387.040579 236.618437) scale(0.1 -0.1)">
       <use xlink:href="#DejaVuSans-38"/>
      </g>
     </g>
    </g>
    <g id="xtick_12">
     <g id="line2d_20">
      <g>
       <use xlink:href="#ma194af7450" x="472.951832" y="222.02" style="stroke: #000000; stroke-width: 0.8"/>
      </g>
     </g>
     <g id="text_17">
      <!-- 10 -->
      <g transform="translate(466.589332 236.618437) scale(0.1 -0.1)">
       <use xlink:href="#DejaVuSans-31"/>
       <use xlink:href="#DejaVuSans-30" x="63.623047"/>
      </g>
     </g>
    </g>
   </g>
   <g id="matplotlib.axis_4">
    <g id="ytick_5">
     <g id="line2d_21">
      <g>
       <use xlink:href="#mfc71b22ea5" x="33.64" y="214.848182" style="stroke: #000000; stroke-width: 0.8"/>
      </g>
     </g>
     <g id="text_18">
      <!-- 0 -->
      <g transform="translate(20.2775 218.647401) scale(0.1 -0.1)">
       <use xlink:href="#DejaVuSans-30"/>
      </g>
     </g>
    </g>
    <g id="ytick_6">
     <g id="line2d_22">
      <g>
       <use xlink:href="#mfc71b22ea5" x="33.64" y="171.411818" style="stroke: #000000; stroke-width: 0.8"/>
      </g>
     </g>
     <g id="text_19">
      <!-- 1 -->
      <g transform="translate(20.2775 175.211037) scale(0.1 -0.1)">
       <use xlink:href="#DejaVuSans-31"/>
      </g>
     </g>
    </g>
   </g>
   <g id="line2d_23">
    <path d="M 59.301818 214.848182 
L 59.301818 171.411818 
L 59.715468 171.411818 
L 59.715468 214.848182 
L 60.129118 214.848182 
L 60.129118 171.411818 
L 63.438318 171.411818 
L 63.438318 214.848182 
L 63.851968 214.848182 
L 63.851968 171.411818 
L 64.265618 171.411818 
L 64.265618 214.848182 
L 64.679268 214.848182 
L 64.679268 171.411818 
L 68.815768 171.411818 
L 68.815768 214.848182 
L 69.229419 214.848182 
L 69.229419 171.411818 
L 70.884019 171.411818 
L 70.884019 214.848182 
L 71.297669 214.848182 
L 71.297669 171.411818 
L 73.779569 171.411818 
L 73.779569 214.848182 
L 74.193219 214.848182 
L 74.193219 171.411818 
L 77.502419 171.411818 
L 77.502419 214.848182 
L 78.329719 214.848182 
L 78.329719 171.411818 
L 79.157019 171.411818 
L 79.157019 214.848182 
L 79.570669 214.848182 
L 79.570669 171.411818 
L 79.984319 171.411818 
L 79.984319 214.848182 
L 80.397969 214.848182 
L 80.397969 171.411818 
L 80.811619 171.411818 
L 80.811619 214.848182 
L 81.225269 214.848182 
L 81.225269 171.411818 
L 82.466219 171.411818 
L 82.466219 214.848182 
L 82.879869 214.848182 
L 82.879869 171.411818 
L 83.293519 171.411818 
L 83.293519 214.848182 
L 83.707169 214.848182 
L 83.707169 171.411818 
L 84.120819 171.411818 
L 84.120819 214.848182 
L 84.534469 214.848182 
L 84.534469 171.411818 
L 85.361769 171.411818 
L 85.361769 214.848182 
L 85.775419 214.848182 
L 85.775419 171.411818 
L 86.602719 171.411818 
L 86.602719 214.848182 
L 87.430019 214.848182 
L 87.430019 171.411818 
L 89.498269 171.411818 
L 89.498269 214.848182 
L 89.911919 214.848182 
L 89.911919 171.411818 
L 90.739219 171.411818 
L 90.739219 214.848182 
L 91.152869 214.848182 
L 91.152869 171.411818 
L 94.462069 171.411818 
L 94.462069 214.848182 
L 94.875719 214.848182 
L 94.875719 171.411818 
L 95.289369 171.411818 
L 95.289369 214.848182 
L 95.703019 214.848182 
L 95.703019 171.411818 
L 96.530319 171.411818 
L 96.530319 214.848182 
L 96.943969 214.848182 
L 96.943969 171.411818 
L 99.012219 171.411818 
L 99.012219 214.848182 
L 99.42587 214.848182 
L 99.42587 171.411818 
L 100.66682 171.411818 
L 100.66682 214.848182 
L 101.08047 214.848182 
L 101.08047 171.411818 
L 101.49412 171.411818 
L 101.49412 214.848182 
L 102.32142 214.848182 
L 102.32142 171.411818 
L 103.97602 171.411818 
L 103.97602 214.848182 
L 104.38967 214.848182 
L 104.38967 171.411818 
L 104.80332 171.411818 
L 104.80332 214.848182 
L 105.63062 214.848182 
L 105.63062 171.411818 
L 111.00807 171.411818 
L 111.00807 214.848182 
L 111.42172 214.848182 
L 111.42172 171.411818 
L 114.73092 171.411818 
L 114.73092 214.848182 
L 115.14457 214.848182 
L 115.14457 171.411818 
L 115.55822 171.411818 
L 115.55822 214.848182 
L 115.97187 214.848182 
L 115.97187 171.411818 
L 116.38552 171.411818 
L 116.38552 214.848182 
L 116.79917 214.848182 
L 116.79917 171.411818 
L 118.04012 171.411818 
L 118.04012 214.848182 
L 118.45377 214.848182 
L 118.45377 171.411818 
L 119.69472 171.411818 
L 119.69472 214.848182 
L 120.52202 214.848182 
L 120.52202 171.411818 
L 121.34932 171.411818 
L 121.34932 214.848182 
L 122.59027 214.848182 
L 122.59027 171.411818 
L 123.83122 171.411818 
L 123.83122 214.848182 
L 124.65852 214.848182 
L 124.65852 171.411818 
L 127.96772 171.411818 
L 127.96772 214.848182 
L 128.38137 214.848182 
L 128.38137 171.411818 
L 130.449621 171.411818 
L 130.449621 214.848182 
L 130.863271 214.848182 
L 130.863271 171.411818 
L 131.276921 171.411818 
L 131.276921 214.848182 
L 131.690571 214.848182 
L 131.690571 171.411818 
L 132.104221 171.411818 
L 132.104221 214.848182 
L 133.758821 214.848182 
L 133.758821 171.411818 
L 134.586121 171.411818 
L 134.586121 214.848182 
L 134.999771 214.848182 
L 134.999771 171.411818 
L 135.413421 171.411818 
L 135.413421 214.848182 
L 136.240721 214.848182 
L 136.240721 171.411818 
L 136.654371 171.411818 
L 136.654371 214.848182 
L 137.068021 214.848182 
L 137.068021 171.411818 
L 138.308971 171.411818 
L 138.308971 214.848182 
L 140.377221 214.848182 
L 140.377221 171.411818 
L 140.790871 171.411818 
L 140.790871 214.848182 
L 141.204521 214.848182 
L 141.204521 171.411818 
L 141.618171 171.411818 
L 141.618171 214.848182 
L 143.686421 214.848182 
L 143.686421 171.411818 
L 144.100071 171.411818 
L 144.100071 214.848182 
L 146.995621 214.848182 
L 146.995621 171.411818 
L 147.409271 171.411818 
L 147.409271 214.848182 
L 177.605722 214.848182 
L 177.605722 171.411818 
L 178.019372 171.411818 
L 178.019372 214.848182 
L 178.433022 214.848182 
L 178.433022 171.411818 
L 178.846672 171.411818 
L 178.846672 214.848182 
L 181.328572 214.848182 
L 181.328572 171.411818 
L 181.742222 171.411818 
L 181.742222 214.848182 
L 182.155872 214.848182 
L 182.155872 171.411818 
L 182.569522 171.411818 
L 182.569522 214.848182 
L 183.396822 214.848182 
L 183.396822 171.411818 
L 184.224122 171.411818 
L 184.224122 214.848182 
L 185.465072 214.848182 
L 185.465072 171.411818 
L 185.878722 171.411818 
L 185.878722 214.848182 
L 186.292372 214.848182 
L 186.292372 171.411818 
L 187.119672 171.411818 
L 187.119672 214.848182 
L 187.946972 214.848182 
L 187.946972 171.411818 
L 188.774272 171.411818 
L 188.774272 214.848182 
L 189.187922 214.848182 
L 189.187922 171.411818 
L 189.601572 171.411818 
L 189.601572 214.848182 
L 192.083473 214.848182 
L 192.083473 171.411818 
L 192.497123 171.411818 
L 192.497123 214.848182 
L 192.910773 214.848182 
L 192.910773 171.411818 
L 193.324423 171.411818 
L 193.324423 214.848182 
L 194.151723 214.848182 
L 194.151723 171.411818 
L 194.565373 171.411818 
L 194.565373 214.848182 
L 195.392673 214.848182 
L 195.392673 171.411818 
L 195.806323 171.411818 
L 195.806323 214.848182 
L 196.633623 214.848182 
L 196.633623 171.411818 
L 197.460923 171.411818 
L 197.460923 214.848182 
L 197.874573 214.848182 
L 197.874573 171.411818 
L 199.942823 171.411818 
L 199.942823 214.848182 
L 201.183773 214.848182 
L 201.183773 171.411818 
L 201.597423 171.411818 
L 201.597423 214.848182 
L 202.011073 214.848182 
L 202.011073 171.411818 
L 202.424723 171.411818 
L 202.424723 214.848182 
L 202.838373 214.848182 
L 202.838373 171.411818 
L 203.665673 171.411818 
L 203.665673 214.848182 
L 204.492973 214.848182 
L 204.492973 171.411818 
L 205.320273 171.411818 
L 205.320273 214.848182 
L 205.733923 214.848182 
L 205.733923 171.411818 
L 207.388523 171.411818 
L 207.388523 214.848182 
L 207.802173 214.848182 
L 207.802173 171.411818 
L 209.456773 171.411818 
L 209.456773 214.848182 
L 209.870423 214.848182 
L 209.870423 171.411818 
L 212.352323 171.411818 
L 212.352323 214.848182 
L 213.179623 214.848182 
L 213.179623 171.411818 
L 213.593273 171.411818 
L 213.593273 214.848182 
L 214.006923 214.848182 
L 214.006923 171.411818 
L 217.316123 171.411818 
L 217.316123 214.848182 
L 217.729773 214.848182 
L 217.729773 171.411818 
L 218.557073 171.411818 
L 218.557073 214.848182 
L 218.970723 214.848182 
L 218.970723 171.411818 
L 219.798023 171.411818 
L 219.798023 214.848182 
L 221.038974 214.848182 
L 221.038974 171.411818 
L 222.279924 171.411818 
L 222.279924 214.848182 
L 222.693574 214.848182 
L 222.693574 171.411818 
L 223.520874 171.411818 
L 223.520874 214.848182 
L 223.934524 214.848182 
L 223.934524 171.411818 
L 225.589124 171.411818 
L 225.589124 214.848182 
L 226.830074 214.848182 
L 226.830074 171.411818 
L 227.243724 171.411818 
L 227.243724 214.848182 
L 227.657374 214.848182 
L 227.657374 171.411818 
L 228.071024 171.411818 
L 228.071024 214.848182 
L 228.484674 214.848182 
L 228.484674 171.411818 
L 230.552924 171.411818 
L 230.552924 214.848182 
L 230.966574 214.848182 
L 230.966574 171.411818 
L 232.621174 171.411818 
L 232.621174 214.848182 
L 233.034824 214.848182 
L 233.034824 171.411818 
L 233.862124 171.411818 
L 233.862124 214.848182 
L 234.275774 214.848182 
L 234.275774 171.411818 
L 235.930374 171.411818 
L 235.930374 214.848182 
L 236.344024 214.848182 
L 236.344024 171.411818 
L 236.757674 171.411818 
L 236.757674 214.848182 
L 237.998624 214.848182 
L 237.998624 171.411818 
L 238.825924 171.411818 
L 238.825924 214.848182 
L 239.239574 214.848182 
L 239.239574 171.411818 
L 240.066874 171.411818 
L 240.066874 214.848182 
L 240.480524 214.848182 
L 240.480524 171.411818 
L 240.894174 171.411818 
L 240.894174 214.848182 
L 241.307824 214.848182 
L 241.307824 171.411818 
L 242.135124 171.411818 
L 242.135124 214.848182 
L 242.962424 214.848182 
L 242.962424 171.411818 
L 243.376074 171.411818 
L 243.376074 214.848182 
L 244.203374 214.848182 
L 244.203374 171.411818 
L 244.617024 171.411818 
L 244.617024 214.848182 
L 245.444324 214.848182 
L 245.444324 171.411818 
L 245.857974 171.411818 
L 245.857974 214.848182 
L 247.926224 214.848182 
L 247.926224 171.411818 
L 248.339874 171.411818 
L 248.339874 214.848182 
L 251.649075 214.848182 
L 251.649075 171.411818 
L 252.476375 171.411818 
L 252.476375 214.848182 
L 335.206377 214.848182 
L 335.206377 171.411818 
L 335.620027 171.411818 
L 335.620027 214.848182 
L 337.688277 214.848182 
L 337.688277 171.411818 
L 338.101927 171.411818 
L 338.101927 214.848182 
L 341.411127 214.848182 
L 341.411127 171.411818 
L 341.824778 171.411818 
L 341.824778 214.848182 
L 343.479378 214.848182 
L 343.479378 171.411818 
L 343.893028 171.411818 
L 343.893028 214.848182 
L 344.306678 214.848182 
L 344.306678 171.411818 
L 344.720328 171.411818 
L 344.720328 214.848182 
L 345.961278 214.848182 
L 345.961278 171.411818 
L 346.374928 171.411818 
L 346.374928 214.848182 
L 348.029528 214.848182 
L 348.029528 171.411818 
L 348.443178 171.411818 
L 348.443178 214.848182 
L 348.856828 214.848182 
L 348.856828 171.411818 
L 349.270478 171.411818 
L 349.270478 214.848182 
L 350.511428 214.848182 
L 350.511428 171.411818 
L 350.925078 171.411818 
L 350.925078 214.848182 
L 354.234278 214.848182 
L 354.234278 171.411818 
L 354.647928 171.411818 
L 354.647928 214.848182 
L 355.475228 214.848182 
L 355.475228 171.411818 
L 355.888878 171.411818 
L 355.888878 214.848182 
L 361.679978 214.848182 
L 361.679978 171.411818 
L 362.093628 171.411818 
L 362.093628 214.848182 
L 461.369631 214.848182 
L 461.369631 171.411818 
L 461.783281 171.411818 
L 461.783281 214.848182 
L 467.574382 214.848182 
L 467.574382 171.411818 
L 468.401682 171.411818 
L 468.401682 214.848182 
L 469.228982 214.848182 
L 469.228982 171.411818 
L 470.469932 171.411818 
L 470.469932 214.848182 
L 470.883582 214.848182 
L 470.883582 171.411818 
L 471.297232 171.411818 
L 471.297232 214.848182 
L 471.710882 214.848182 
L 471.710882 171.411818 
L 472.124532 171.411818 
L 472.124532 214.848182 
L 472.538182 214.848182 
L 472.538182 214.848182 
" clip-path="url(#pcf62ac4ba1)" style="fill: none; stroke: #000000; stroke-linecap: square"/>
   </g>
   <g id="patch_6">
    <path d="M 33.64 217.02 
L 33.64 169.24 
" style="fill: none; stroke: #7f7f7f; stroke-width: 0.8; stroke-linejoin: miter; stroke-linecap: square"/>
   </g>
   <g id="patch_7">
    <path d="M 38.64 222.02 
L 493.2 222.02 
" style="fill: none; stroke: #7f7f7f; stroke-width: 0.8; stroke-linejoin: miter; stroke-linecap: square"/>
   </g>
   <g id="text_20">
    <!-- UL use from `from_vec_mag` -->
    <g transform="translate(185.375938 163.24) scale(0.11 -0.11)">
     <defs>
      <path id="DejaVuSans-55" d="M 556 4666 
L 1191 4666 
L 1191 1831 
Q 1191 1081 1462 751 
Q 1734 422 2344 422 
Q 2950 422 3222 751 
Q 3494 1081 3494 1831 
L 3494 4666 
L 4128 4666 
L 4128 1753 
Q 4128 841 3676 375 
Q 3225 -91 2344 -91 
Q 1459 -91 1007 375 
Q 556 841 556 1753 
L 556 4666 
z
" transform="scale(0.015625)"/>
      <path id="DejaVuSans-4c" d="M 628 4666 
L 1259 4666 
L 1259 531 
L 3531 531 
L 3531 0 
L 628 0 
L 628 4666 
z
" transform="scale(0.015625)"/>
      <path id="DejaVuSans-73" d="M 2834 3397 
L 2834 2853 
Q 2591 2978 2328 3040 
Q 2066 3103 1784 3103 
Q 1356 3103 1142 2972 
Q 928 2841 928 2578 
Q 928 2378 1081 2264 
Q 1234 2150 1697 2047 
L 1894 2003 
Q 2506 1872 2764 1633 
Q 3022 1394 3022 966 
Q 3022 478 2636 193 
Q 2250 -91 1575 -91 
Q 1294 -91 989 -36 
Q 684 19 347 128 
L 347 722 
Q 666 556 975 473 
Q 1284 391 1588 391 
Q 1994 391 2212 530 
Q 2431 669 2431 922 
Q 2431 1156 2273 1281 
Q 2116 1406 1581 1522 
L 1381 1569 
Q 847 1681 609 1914 
Q 372 2147 372 2553 
Q 372 3047 722 3315 
Q 1072 3584 1716 3584 
Q 2034 3584 2315 3537 
Q 2597 3491 2834 3397 
z
" transform="scale(0.015625)"/>
      <path id="DejaVuSans-66" d="M 2375 4863 
L 2375 4384 
L 1825 4384 
Q 1516 4384 1395 4259 
Q 1275 4134 1275 3809 
L 1275 3500 
L 2222 3500 
L 2222 3053 
L 1275 3053 
L 1275 0 
L 697 0 
L 697 3053 
L 147 3053 
L 147 3500 
L 697 3500 
L 697 3744 
Q 697 4328 969 4595 
Q 1241 4863 1831 4863 
L 2375 4863 
z
" transform="scale(0.015625)"/>
      <path id="DejaVuSans-60" d="M 1147 5119 
L 2028 3950 
L 1550 3950 
L 531 5119 
L 1147 5119 
z
" transform="scale(0.015625)"/>
      <path id="DejaVuSans-5f" d="M 3263 -1063 
L 3263 -1509 
L -63 -1509 
L -63 -1063 
L 3263 -1063 
z
" transform="scale(0.015625)"/>
      <path id="DejaVuSans-76" d="M 191 3500 
L 800 3500 
L 1894 563 
L 2988 3500 
L 3597 3500 
L 2284 0 
L 1503 0 
L 191 3500 
z
" transform="scale(0.015625)"/>
     </defs>
     <use xlink:href="#DejaVuSans-55"/>
     <use xlink:href="#DejaVuSans-4c" x="73.193359"/>
     <use xlink:href="#DejaVuSans-20" x="128.90625"/>
     <use xlink:href="#DejaVuSans-75" x="160.693359"/>
     <use xlink:href="#DejaVuSans-73" x="224.072266"/>
     <use xlink:href="#DejaVuSans-65" x="276.171875"/>
     <use xlink:href="#DejaVuSans-20" x="337.695312"/>
     <use xlink:href="#DejaVuSans-66" x="369.482422"/>
     <use xlink:href="#DejaVuSans-72" x="404.6875"/>
     <use xlink:href="#DejaVuSans-6f" x="443.550781"/>
     <use xlink:href="#DejaVuSans-6d" x="504.732422"/>
     <use xlink:href="#DejaVuSans-20" x="602.144531"/>
     <use xlink:href="#DejaVuSans-60" x="633.931641"/>
     <use xlink:href="#DejaVuSans-66" x="683.931641"/>
     <use xlink:href="#DejaVuSans-72" x="719.136719"/>
     <use xlink:href="#DejaVuSans-6f" x="758"/>
     <use xlink:href="#DejaVuSans-6d" x="819.181641"/>
     <use xlink:href="#DejaVuSans-5f" x="916.59375"/>
     <use xlink:href="#DejaVuSans-76" x="966.59375"/>
     <use xlink:href="#DejaVuSans-65" x="1025.773438"/>
     <use xlink:href="#DejaVuSans-63" x="1087.296875"/>
     <use xlink:href="#DejaVuSans-5f" x="1142.277344"/>
     <use xlink:href="#DejaVuSans-6d" x="1192.277344"/>
     <use xlink:href="#DejaVuSans-61" x="1289.689453"/>
     <use xlink:href="#DejaVuSans-67" x="1350.96875"/>
     <use xlink:href="#DejaVuSans-60" x="1414.445312"/>
    </g>
   </g>
  </g>
  <g id="axes_3">
   <g id="patch_8">
    <path d="M 38.64 313.04 
L 493.2 313.04 
L 493.2 265.26 
L 38.64 265.26 
z
" style="fill: #ffffff"/>
   </g>
   <g id="matplotlib.axis_5">
    <g id="xtick_13">
     <g id="line2d_24">
      <g>
       <use xlink:href="#ma194af7450" x="59.301818" y="318.04" style="stroke: #000000; stroke-width: 0.8"/>
      </g>
     </g>
     <g id="text_21">
      <!-- 0 -->
      <g transform="translate(56.120568 332.638437) scale(0.1 -0.1)">
       <use xlink:href="#DejaVuSans-30"/>
      </g>
     </g>
    </g>
    <g id="xtick_14">
     <g id="line2d_25">
      <g>
       <use xlink:href="#ma194af7450" x="142.031821" y="318.04" style="stroke: #000000; stroke-width: 0.8"/>
      </g>
     </g>
     <g id="text_22">
      <!-- 2 -->
      <g transform="translate(138.850571 332.638437) scale(0.1 -0.1)">
       <use xlink:href="#DejaVuSans-32"/>
      </g>
     </g>
    </g>
    <g id="xtick_15">
     <g id="line2d_26">
      <g>
       <use xlink:href="#ma194af7450" x="224.761824" y="318.04" style="stroke: #000000; stroke-width: 0.8"/>
      </g>
     </g>
     <g id="text_23">
      <!-- 4 -->
      <g transform="translate(221.580574 332.638437) scale(0.1 -0.1)">
       <use xlink:href="#DejaVuSans-34"/>
      </g>
     </g>
    </g>
    <g id="xtick_16">
     <g id="line2d_27">
      <g>
       <use xlink:href="#ma194af7450" x="307.491826" y="318.04" style="stroke: #000000; stroke-width: 0.8"/>
      </g>
     </g>
     <g id="text_24">
      <!-- 6 -->
      <g transform="translate(304.310576 332.638437) scale(0.1 -0.1)">
       <use xlink:href="#DejaVuSans-36"/>
      </g>
     </g>
    </g>
    <g id="xtick_17">
     <g id="line2d_28">
      <g>
       <use xlink:href="#ma194af7450" x="390.221829" y="318.04" style="stroke: #000000; stroke-width: 0.8"/>
      </g>
     </g>
     <g id="text_25">
      <!-- 8 -->
      <g transform="translate(387.040579 332.638437) scale(0.1 -0.1)">
       <use xlink:href="#DejaVuSans-38"/>
      </g>
     </g>
    </g>
    <g id="xtick_18">
     <g id="line2d_29">
      <g>
       <use xlink:href="#ma194af7450" x="472.951832" y="318.04" style="stroke: #000000; stroke-width: 0.8"/>
      </g>
     </g>
     <g id="text_26">
      <!-- 10 -->
      <g transform="translate(466.589332 332.638437) scale(0.1 -0.1)">
       <use xlink:href="#DejaVuSans-31"/>
       <use xlink:href="#DejaVuSans-30" x="63.623047"/>
      </g>
     </g>
    </g>
    <g id="text_27">
     <!-- Time (s) -->
     <g transform="translate(245.591094 346.316562) scale(0.1 -0.1)">
      <defs>
       <path id="DejaVuSans-54" d="M -19 4666 
L 3928 4666 
L 3928 4134 
L 2272 4134 
L 2272 0 
L 1638 0 
L 1638 4134 
L -19 4134 
L -19 4666 
z
" transform="scale(0.015625)"/>
       <path id="DejaVuSans-28" d="M 1984 4856 
Q 1566 4138 1362 3434 
Q 1159 2731 1159 2009 
Q 1159 1288 1364 580 
Q 1569 -128 1984 -844 
L 1484 -844 
Q 1016 -109 783 600 
Q 550 1309 550 2009 
Q 550 2706 781 3412 
Q 1013 4119 1484 4856 
L 1984 4856 
z
" transform="scale(0.015625)"/>
       <path id="DejaVuSans-29" d="M 513 4856 
L 1013 4856 
Q 1481 4119 1714 3412 
Q 1947 2706 1947 2009 
Q 1947 1309 1714 600 
Q 1481 -109 1013 -844 
L 513 -844 
Q 928 -128 1133 580 
Q 1338 1288 1338 2009 
Q 1338 2731 1133 3434 
Q 928 4138 513 4856 
z
" transform="scale(0.015625)"/>
      </defs>
      <use xlink:href="#DejaVuSans-54"/>
      <use xlink:href="#DejaVuSans-69" x="57.958984"/>
      <use xlink:href="#DejaVuSans-6d" x="85.742188"/>
      <use xlink:href="#DejaVuSans-65" x="183.154297"/>
      <use xlink:href="#DejaVuSans-20" x="244.677734"/>
      <use xlink:href="#DejaVuSans-28" x="276.464844"/>
      <use xlink:href="#DejaVuSans-73" x="315.478516"/>
      <use xlink:href="#DejaVuSans-29" x="367.578125"/>
     </g>
    </g>
   </g>
   <g id="matplotlib.axis_6">
    <g id="ytick_7">
     <g id="line2d_30">
      <g>
       <use xlink:href="#mfc71b22ea5" x="33.64" y="310.868182" style="stroke: #000000; stroke-width: 0.8"/>
      </g>
     </g>
     <g id="text_28">
      <!-- 0 -->
      <g transform="translate(20.2775 314.667401) scale(0.1 -0.1)">
       <use xlink:href="#DejaVuSans-30"/>
      </g>
     </g>
    </g>
    <g id="ytick_8">
     <g id="line2d_31">
      <g>
       <use xlink:href="#mfc71b22ea5" x="33.64" y="267.431818" style="stroke: #000000; stroke-width: 0.8"/>
      </g>
     </g>
     <g id="text_29">
      <!-- 1 -->
      <g transform="translate(20.2775 271.231037) scale(0.1 -0.1)">
       <use xlink:href="#DejaVuSans-31"/>
      </g>
     </g>
    </g>
   </g>
   <g id="line2d_32">
    <path d="M 59.301818 310.868182 
L 59.301818 267.431818 
L 63.438318 267.431818 
L 63.438318 310.868182 
L 63.851968 310.868182 
L 63.851968 267.431818 
L 64.265618 267.431818 
L 64.265618 310.868182 
L 64.679268 310.868182 
L 64.679268 267.431818 
L 68.815768 267.431818 
L 68.815768 310.868182 
L 69.229419 310.868182 
L 69.229419 267.431818 
L 70.884019 267.431818 
L 70.884019 310.868182 
L 71.297669 310.868182 
L 71.297669 267.431818 
L 73.779569 267.431818 
L 73.779569 310.868182 
L 74.193219 310.868182 
L 74.193219 267.431818 
L 79.984319 267.431818 
L 79.984319 310.868182 
L 80.397969 310.868182 
L 80.397969 267.431818 
L 80.811619 267.431818 
L 80.811619 310.868182 
L 81.638919 310.868182 
L 81.638919 267.431818 
L 82.466219 267.431818 
L 82.466219 310.868182 
L 82.879869 310.868182 
L 82.879869 267.431818 
L 84.120819 267.431818 
L 84.120819 310.868182 
L 84.534469 310.868182 
L 84.534469 267.431818 
L 96.530319 267.431818 
L 96.530319 310.868182 
L 96.943969 310.868182 
L 96.943969 267.431818 
L 99.012219 267.431818 
L 99.012219 310.868182 
L 99.42587 310.868182 
L 99.42587 267.431818 
L 104.80332 267.431818 
L 104.80332 310.868182 
L 105.63062 310.868182 
L 105.63062 267.431818 
L 120.10837 267.431818 
L 120.10837 310.868182 
L 120.52202 310.868182 
L 120.52202 267.431818 
L 124.24487 267.431818 
L 124.24487 310.868182 
L 124.65852 310.868182 
L 124.65852 267.431818 
L 130.449621 267.431818 
L 130.449621 310.868182 
L 131.690571 310.868182 
L 131.690571 267.431818 
L 132.104221 267.431818 
L 132.104221 310.868182 
L 134.172471 310.868182 
L 134.172471 267.431818 
L 136.654371 267.431818 
L 136.654371 310.868182 
L 137.481671 310.868182 
L 137.481671 267.431818 
L 138.308971 267.431818 
L 138.308971 310.868182 
L 183.810472 310.868182 
L 183.810472 267.431818 
L 184.224122 267.431818 
L 184.224122 310.868182 
L 185.465072 310.868182 
L 185.465072 267.431818 
L 190.428873 267.431818 
L 190.428873 310.868182 
L 192.083473 310.868182 
L 192.083473 267.431818 
L 192.497123 267.431818 
L 192.497123 310.868182 
L 192.910773 310.868182 
L 192.910773 267.431818 
L 194.979023 267.431818 
L 194.979023 310.868182 
L 196.633623 310.868182 
L 196.633623 267.431818 
L 199.942823 267.431818 
L 199.942823 310.868182 
L 201.183773 310.868182 
L 201.183773 267.431818 
L 201.597423 267.431818 
L 201.597423 310.868182 
L 202.011073 310.868182 
L 202.011073 267.431818 
L 202.424723 267.431818 
L 202.424723 310.868182 
L 203.252023 310.868182 
L 203.252023 267.431818 
L 205.320273 267.431818 
L 205.320273 310.868182 
L 205.733923 310.868182 
L 205.733923 267.431818 
L 212.765973 267.431818 
L 212.765973 310.868182 
L 213.179623 310.868182 
L 213.179623 267.431818 
L 226.002774 267.431818 
L 226.002774 310.868182 
L 227.657374 310.868182 
L 227.657374 267.431818 
L 228.071024 267.431818 
L 228.071024 310.868182 
L 228.484674 310.868182 
L 228.484674 267.431818 
L 235.930374 267.431818 
L 235.930374 310.868182 
L 236.344024 310.868182 
L 236.344024 267.431818 
L 236.757674 267.431818 
L 236.757674 310.868182 
L 237.998624 310.868182 
L 237.998624 267.431818 
L 238.825924 267.431818 
L 238.825924 310.868182 
L 239.239574 310.868182 
L 239.239574 267.431818 
L 242.135124 267.431818 
L 242.135124 310.868182 
L 245.444324 310.868182 
L 245.444324 267.431818 
L 245.857974 267.431818 
L 245.857974 310.868182 
L 470.056282 310.868182 
L 470.056282 267.431818 
L 472.538182 267.431818 
L 472.538182 267.431818 
" clip-path="url(#p23e3a877d0)" style="fill: none; stroke: #d62728; stroke-linecap: square"/>
   </g>
   <g id="patch_9">
    <path d="M 33.64 313.04 
L 33.64 265.26 
" style="fill: none; stroke: #7f7f7f; stroke-width: 0.8; stroke-linejoin: miter; stroke-linecap: square"/>
   </g>
   <g id="patch_10">
    <path d="M 38.64 318.04 
L 493.2 318.04 
" style="fill: none; stroke: #7f7f7f; stroke-width: 0.8; stroke-linejoin: miter; stroke-linecap: square"/>
   </g>
   <g id="text_30">
    <!-- UL use from `from_vec_mag_dblth` -->
    <g transform="translate(168.472891 259.26) scale(0.11 -0.11)">
     <defs>
      <path id="DejaVuSans-62" d="M 3116 1747 
Q 3116 2381 2855 2742 
Q 2594 3103 2138 3103 
Q 1681 3103 1420 2742 
Q 1159 2381 1159 1747 
Q 1159 1113 1420 752 
Q 1681 391 2138 391 
Q 2594 391 2855 752 
Q 3116 1113 3116 1747 
z
M 1159 2969 
Q 1341 3281 1617 3432 
Q 1894 3584 2278 3584 
Q 2916 3584 3314 3078 
Q 3713 2572 3713 1747 
Q 3713 922 3314 415 
Q 2916 -91 2278 -91 
Q 1894 -91 1617 61 
Q 1341 213 1159 525 
L 1159 0 
L 581 0 
L 581 4863 
L 1159 4863 
L 1159 2969 
z
" transform="scale(0.015625)"/>
      <path id="DejaVuSans-6c" d="M 603 4863 
L 1178 4863 
L 1178 0 
L 603 0 
L 603 4863 
z
" transform="scale(0.015625)"/>
      <path id="DejaVuSans-68" d="M 3513 2113 
L 3513 0 
L 2938 0 
L 2938 2094 
Q 2938 2591 2744 2837 
Q 2550 3084 2163 3084 
Q 1697 3084 1428 2787 
Q 1159 2491 1159 1978 
L 1159 0 
L 581 0 
L 581 4863 
L 1159 4863 
L 1159 2956 
Q 1366 3272 1645 3428 
Q 1925 3584 2291 3584 
Q 2894 3584 3203 3211 
Q 3513 2838 3513 2113 
z
" transform="scale(0.015625)"/>
     </defs>
     <use xlink:href="#DejaVuSans-55"/>
     <use xlink:href="#DejaVuSans-4c" x="73.193359"/>
     <use xlink:href="#DejaVuSans-20" x="128.90625"/>
     <use xlink:href="#DejaVuSans-75" x="160.693359"/>
     <use xlink:href="#DejaVuSans-73" x="224.072266"/>
     <use xlink:href="#DejaVuSans-65" x="276.171875"/>
     <use xlink:href="#DejaVuSans-20" x="337.695312"/>
     <use xlink:href="#DejaVuSans-66" x="369.482422"/>
     <use xlink:href="#DejaVuSans-72" x="404.6875"/>
     <use xlink:href="#DejaVuSans-6f" x="443.550781"/>
     <use xlink:href="#DejaVuSans-6d" x="504.732422"/>
     <use xlink:href="#DejaVuSans-20" x="602.144531"/>
     <use xlink:href="#DejaVuSans-60" x="633.931641"/>
     <use xlink:href="#DejaVuSans-66" x="683.931641"/>
     <use xlink:href="#DejaVuSans-72" x="719.136719"/>
     <use xlink:href="#DejaVuSans-6f" x="758"/>
     <use xlink:href="#DejaVuSans-6d" x="819.181641"/>
     <use xlink:href="#DejaVuSans-5f" x="916.59375"/>
     <use xlink:href="#DejaVuSans-76" x="966.59375"/>
     <use xlink:href="#DejaVuSans-65" x="1025.773438"/>
     <use xlink:href="#DejaVuSans-63" x="1087.296875"/>
     <use xlink:href="#DejaVuSans-5f" x="1142.277344"/>
     <use xlink:href="#DejaVuSans-6d" x="1192.277344"/>
     <use xlink:href="#DejaVuSans-61" x="1289.689453"/>
     <use xlink:href="#DejaVuSans-67" x="1350.96875"/>
     <use xlink:href="#DejaVuSans-5f" x="1414.445312"/>
     <use xlink:href="#DejaVuSans-64" x="1464.445312"/>
     <use xlink:href="#DejaVuSans-62" x="1527.921875"/>
     <use xlink:href="#DejaVuSans-6c" x="1591.398438"/>
     <use xlink:href="#DejaVuSans-74" x="1619.181641"/>
     <use xlink:href="#DejaVuSans-68" x="1658.390625"/>
     <use xlink:href="#DejaVuSans-60" x="1721.769531"/>
    </g>
   </g>
  </g>
 </g>
 <defs>
  <clipPath id="pec01b6c89f">
   <rect x="38.64" y="25.44" width="454.56" height="95.56"/>
  </clipPath>
  <clipPath id="pcf62ac4ba1">
   <rect x="38.64" y="169.24" width="454.56" height="47.78"/>
  </clipPath>
  <clipPath id="p23e3a877d0">
   <rect x="38.64" y="265.26" width="454.56" height="47.78"/>
  </clipPath>
 </defs>
</svg>
