<?xml version="1.0" encoding="utf-8" standalone="no"?>
<!DOCTYPE svg PUBLIC "-//W3C//DTD SVG 1.1//EN"
  "http://www.w3.org/Graphics/SVG/1.1/DTD/svg11.dtd">
<svg xmlns:xlink="http://www.w3.org/1999/xlink" width="504pt" height="504pt" viewBox="0 0 504 504" xmlns="http://www.w3.org/2000/svg" version="1.1">
 <metadata>
  <rdf:RDF xmlns:dc="http://purl.org/dc/elements/1.1/" xmlns:cc="http://creativecommons.org/ns#" xmlns:rdf="http://www.w3.org/1999/02/22-rdf-syntax-ns#">
   <cc:Work>
    <dc:type rdf:resource="http://purl.org/dc/dcmitype/StillImage"/>
    <dc:date>2024-07-09T08:55:24.052153</dc:date>
    <dc:format>image/svg+xml</dc:format>
    <dc:creator>
     <cc:Agent>
      <dc:title>Matplotlib v3.6.1, https://matplotlib.org/</dc:title>
     </cc:Agent>
    </dc:creator>
   </cc:Work>
  </rdf:RDF>
 </metadata>
 <defs>
  <style type="text/css">*{stroke-linejoin: round; stroke-linecap: butt}</style>
 </defs>
 <g id="figure_1">
  <g id="patch_1">
   <path d="M 0 504 
L 504 504 
L 504 0 
L 0 0 
z
" style="fill: #ffffff"/>
  </g>
  <g id="axes_1">
   <g id="patch_2">
    <path d="M 38.64 141.056 
L 493.2 141.056 
L 493.2 25.44 
L 38.64 25.44 
z
" style="fill: #ffffff"/>
   </g>
   <g id="matplotlib.axis_1">
    <g id="xtick_1">
     <g id="line2d_1">
      <defs>
       <path id="m16470562d4" d="M 0 0 
L 0 3.5 
" style="stroke: #000000; stroke-width: 0.8"/>
      </defs>
      <g>
       <use xlink:href="#m16470562d4" x="47.381538" y="146.056" style="stroke: #000000; stroke-width: 0.8"/>
      </g>
     </g>
     <g id="text_1">
      <!-- 0 -->
      <g transform="translate(44.200288 160.654437) scale(0.1 -0.1)">
       <defs>
        <path id="DejaVuSans-30" d="M 2034 4250 
Q 1547 4250 1301 3770 
Q 1056 3291 1056 2328 
Q 1056 1369 1301 889 
Q 1547 409 2034 409 
Q 2525 409 2770 889 
Q 3016 1369 3016 2328 
Q 3016 3291 2770 3770 
Q 2525 4250 2034 4250 
z
M 2034 4750 
Q 2819 4750 3233 4129 
Q 3647 3509 3647 2328 
Q 3647 1150 3233 529 
Q 2819 -91 2034 -91 
Q 1250 -91 836 529 
Q 422 1150 422 2328 
Q 422 3509 836 4129 
Q 1250 4750 2034 4750 
z
" transform="scale(0.015625)"/>
       </defs>
       <use xlink:href="#DejaVuSans-30"/>
      </g>
     </g>
    </g>
    <g id="xtick_2">
     <g id="line2d_2">
      <g>
       <use xlink:href="#m16470562d4" x="134.796923" y="146.056" style="stroke: #000000; stroke-width: 0.8"/>
      </g>
     </g>
     <g id="text_2">
      <!-- 2 -->
      <g transform="translate(131.615673 160.654437) scale(0.1 -0.1)">
       <defs>
        <path id="DejaVuSans-32" d="M 1228 531 
L 3431 531 
L 3431 0 
L 469 0 
L 469 531 
Q 828 903 1448 1529 
Q 2069 2156 2228 2338 
Q 2531 2678 2651 2914 
Q 2772 3150 2772 3378 
Q 2772 3750 2511 3984 
Q 2250 4219 1831 4219 
Q 1534 4219 1204 4116 
Q 875 4013 500 3803 
L 500 4441 
Q 881 4594 1212 4672 
Q 1544 4750 1819 4750 
Q 2544 4750 2975 4387 
Q 3406 4025 3406 3419 
Q 3406 3131 3298 2873 
Q 3191 2616 2906 2266 
Q 2828 2175 2409 1742 
Q 1991 1309 1228 531 
z
" transform="scale(0.015625)"/>
       </defs>
       <use xlink:href="#DejaVuSans-32"/>
      </g>
     </g>
    </g>
    <g id="xtick_3">
     <g id="line2d_3">
      <g>
       <use xlink:href="#m16470562d4" x="222.212308" y="146.056" style="stroke: #000000; stroke-width: 0.8"/>
      </g>
     </g>
     <g id="text_3">
      <!-- 4 -->
      <g transform="translate(219.031058 160.654437) scale(0.1 -0.1)">
       <defs>
        <path id="DejaVuSans-34" d="M 2419 4116 
L 825 1625 
L 2419 1625 
L 2419 4116 
z
M 2253 4666 
L 3047 4666 
L 3047 1625 
L 3713 1625 
L 3713 1100 
L 3047 1100 
L 3047 0 
L 2419 0 
L 2419 1100 
L 313 1100 
L 313 1709 
L 2253 4666 
z
" transform="scale(0.015625)"/>
       </defs>
       <use xlink:href="#DejaVuSans-34"/>
      </g>
     </g>
    </g>
    <g id="xtick_4">
     <g id="line2d_4">
      <g>
       <use xlink:href="#m16470562d4" x="309.627692" y="146.056" style="stroke: #000000; stroke-width: 0.8"/>
      </g>
     </g>
     <g id="text_4">
      <!-- 6 -->
      <g transform="translate(306.446442 160.654437) scale(0.1 -0.1)">
       <defs>
        <path id="DejaVuSans-36" d="M 2113 2584 
Q 1688 2584 1439 2293 
Q 1191 2003 1191 1497 
Q 1191 994 1439 701 
Q 1688 409 2113 409 
Q 2538 409 2786 701 
Q 3034 994 3034 1497 
Q 3034 2003 2786 2293 
Q 2538 2584 2113 2584 
z
M 3366 4563 
L 3366 3988 
Q 3128 4100 2886 4159 
Q 2644 4219 2406 4219 
Q 1781 4219 1451 3797 
Q 1122 3375 1075 2522 
Q 1259 2794 1537 2939 
Q 1816 3084 2150 3084 
Q 2853 3084 3261 2657 
Q 3669 2231 3669 1497 
Q 3669 778 3244 343 
Q 2819 -91 2113 -91 
Q 1303 -91 875 529 
Q 447 1150 447 2328 
Q 447 3434 972 4092 
Q 1497 4750 2381 4750 
Q 2619 4750 2861 4703 
Q 3103 4656 3366 4563 
z
" transform="scale(0.015625)"/>
       </defs>
       <use xlink:href="#DejaVuSans-36"/>
      </g>
     </g>
    </g>
    <g id="xtick_5">
     <g id="line2d_5">
      <g>
       <use xlink:href="#m16470562d4" x="397.043077" y="146.056" style="stroke: #000000; stroke-width: 0.8"/>
      </g>
     </g>
     <g id="text_5">
      <!-- 8 -->
      <g transform="translate(393.861827 160.654437) scale(0.1 -0.1)">
       <defs>
        <path id="DejaVuSans-38" d="M 2034 2216 
Q 1584 2216 1326 1975 
Q 1069 1734 1069 1313 
Q 1069 891 1326 650 
Q 1584 409 2034 409 
Q 2484 409 2743 651 
Q 3003 894 3003 1313 
Q 3003 1734 2745 1975 
Q 2488 2216 2034 2216 
z
M 1403 2484 
Q 997 2584 770 2862 
Q 544 3141 544 3541 
Q 544 4100 942 4425 
Q 1341 4750 2034 4750 
Q 2731 4750 3128 4425 
Q 3525 4100 3525 3541 
Q 3525 3141 3298 2862 
Q 3072 2584 2669 2484 
Q 3125 2378 3379 2068 
Q 3634 1759 3634 1313 
Q 3634 634 3220 271 
Q 2806 -91 2034 -91 
Q 1263 -91 848 271 
Q 434 634 434 1313 
Q 434 1759 690 2068 
Q 947 2378 1403 2484 
z
M 1172 3481 
Q 1172 3119 1398 2916 
Q 1625 2713 2034 2713 
Q 2441 2713 2670 2916 
Q 2900 3119 2900 3481 
Q 2900 3844 2670 4047 
Q 2441 4250 2034 4250 
Q 1625 4250 1398 4047 
Q 1172 3844 1172 3481 
z
" transform="scale(0.015625)"/>
       </defs>
       <use xlink:href="#DejaVuSans-38"/>
      </g>
     </g>
    </g>
    <g id="xtick_6">
     <g id="line2d_6">
      <g>
       <use xlink:href="#m16470562d4" x="484.458462" y="146.056" style="stroke: #000000; stroke-width: 0.8"/>
      </g>
     </g>
     <g id="text_6">
      <!-- 10 -->
      <g transform="translate(478.095962 160.654437) scale(0.1 -0.1)">
       <defs>
        <path id="DejaVuSans-31" d="M 794 531 
L 1825 531 
L 1825 4091 
L 703 3866 
L 703 4441 
L 1819 4666 
L 2450 4666 
L 2450 531 
L 3481 531 
L 3481 0 
L 794 0 
L 794 531 
z
" transform="scale(0.015625)"/>
       </defs>
       <use xlink:href="#DejaVuSans-31"/>
       <use xlink:href="#DejaVuSans-30" x="63.623047"/>
      </g>
     </g>
    </g>
   </g>
   <g id="matplotlib.axis_2">
    <g id="ytick_1">
     <g id="line2d_7">
      <defs>
       <path id="mfd8c4aacb2" d="M 0 0 
L -3.5 0 
" style="stroke: #000000; stroke-width: 0.8"/>
      </defs>
      <g>
       <use xlink:href="#mfd8c4aacb2" x="33.64" y="135.801654" style="stroke: #000000; stroke-width: 0.8"/>
      </g>
     </g>
     <g id="text_7">
      <!-- 0 -->
      <g transform="translate(20.2775 139.600872) scale(0.1 -0.1)">
       <use xlink:href="#DejaVuSans-30"/>
      </g>
     </g>
    </g>
    <g id="ytick_2">
     <g id="line2d_8">
      <g>
       <use xlink:href="#mfd8c4aacb2" x="33.64" y="100.050439" style="stroke: #000000; stroke-width: 0.8"/>
      </g>
     </g>
     <g id="text_8">
      <!-- 5 -->
      <g transform="translate(20.2775 103.849658) scale(0.1 -0.1)">
       <defs>
        <path id="DejaVuSans-35" d="M 691 4666 
L 3169 4666 
L 3169 4134 
L 1269 4134 
L 1269 2991 
Q 1406 3038 1543 3061 
Q 1681 3084 1819 3084 
Q 2600 3084 3056 2656 
Q 3513 2228 3513 1497 
Q 3513 744 3044 326 
Q 2575 -91 1722 -91 
Q 1428 -91 1123 -41 
Q 819 9 494 109 
L 494 744 
Q 775 591 1075 516 
Q 1375 441 1709 441 
Q 2250 441 2565 725 
Q 2881 1009 2881 1497 
Q 2881 1984 2565 2268 
Q 2250 2553 1709 2553 
Q 1456 2553 1204 2497 
Q 953 2441 691 2322 
L 691 4666 
z
" transform="scale(0.015625)"/>
       </defs>
       <use xlink:href="#DejaVuSans-35"/>
      </g>
     </g>
    </g>
    <g id="ytick_3">
     <g id="line2d_9">
      <g>
       <use xlink:href="#mfd8c4aacb2" x="33.64" y="64.299224" style="stroke: #000000; stroke-width: 0.8"/>
      </g>
     </g>
     <g id="text_9">
      <!-- 10 -->
      <g transform="translate(13.915 68.098443) scale(0.1 -0.1)">
       <use xlink:href="#DejaVuSans-31"/>
       <use xlink:href="#DejaVuSans-30" x="63.623047"/>
      </g>
     </g>
    </g>
    <g id="ytick_4">
     <g id="line2d_10">
      <g>
       <use xlink:href="#mfd8c4aacb2" x="33.64" y="28.54801" style="stroke: #000000; stroke-width: 0.8"/>
      </g>
     </g>
     <g id="text_10">
      <!-- 15 -->
      <g transform="translate(13.915 32.347229) scale(0.1 -0.1)">
       <use xlink:href="#DejaVuSans-31"/>
       <use xlink:href="#DejaVuSans-35" x="63.623047"/>
      </g>
     </g>
    </g>
   </g>
   <g id="line2d_11">
    <path d="M 47.381538 135.5229 
L 47.818615 81.445995 
L 48.255692 106.525656 
L 48.692769 108.381095 
L 49.129846 123.890848 
L 49.566923 110.625924 
L 50.004 104.943372 
L 50.441077 80.851213 
L 50.878154 95.970857 
L 51.315231 65.926962 
L 51.752308 73.455784 
L 52.189385 114.393842 
L 52.626462 128.428728 
L 53.500615 64.070188 
L 53.937692 65.11992 
L 54.374769 128.20161 
L 54.811846 92.310573 
L 55.248923 111.965482 
L 55.686 102.617482 
L 56.123077 120.486232 
L 56.560154 77.143043 
L 56.997231 116.760227 
L 57.434308 65.776578 
L 57.871385 78.398934 
L 58.308462 51.791862 
L 58.745538 50.134381 
L 59.182615 65.414661 
L 59.619692 116.645348 
L 60.056769 71.494807 
L 60.493846 60.241343 
L 60.930923 99.627411 
L 61.368 114.126025 
L 61.805077 100.505242 
L 62.242154 65.216363 
L 62.679231 84.375294 
L 63.116308 51.006972 
L 63.553385 109.904436 
L 63.990462 120.320545 
L 64.427538 93.591208 
L 64.864615 131.70742 
L 65.301692 115.030804 
L 65.738769 71.973853 
L 66.175846 106.522736 
L 66.612923 39.625335 
L 67.05 134.477252 
L 67.487077 63.913733 
L 67.924154 89.63616 
L 68.361231 78.259028 
L 68.798308 54.046757 
L 69.235385 100.367345 
L 69.672462 99.105901 
L 70.109538 47.728228 
L 70.546615 105.367607 
L 70.983692 34.572049 
L 71.420769 52.933946 
L 71.857846 81.289604 
L 72.294923 91.149209 
L 72.732 43.388752 
L 73.169077 107.467805 
L 73.606154 92.000165 
L 74.043231 51.259826 
L 74.480308 134.213693 
L 74.917385 61.560388 
L 75.791538 124.438366 
L 76.228615 53.995964 
L 76.665692 41.349183 
L 77.102769 84.152593 
L 77.539846 66.446106 
L 77.976923 99.564634 
L 78.414 42.659871 
L 78.851077 89.487286 
L 79.288154 76.746801 
L 79.725231 129.805118 
L 80.162308 110.161786 
L 80.599385 30.695273 
L 81.036462 36.65991 
L 81.473538 96.893044 
L 81.910615 55.540059 
L 82.347692 95.615405 
L 82.784769 48.750585 
L 83.221846 64.446752 
L 83.658923 134.558405 
L 84.096 44.865118 
L 84.533077 36.745253 
L 84.970154 41.922633 
L 85.407231 49.060376 
L 85.844308 39.684931 
L 86.281385 76.614467 
L 86.718462 58.748191 
L 87.155538 98.828891 
L 87.592615 88.26546 
L 88.029692 89.222501 
L 88.466769 43.84892 
L 88.903846 50.326749 
L 89.340923 78.732373 
L 89.778 89.782064 
L 90.215077 87.388674 
L 90.652154 32.248676 
L 91.089231 118.613552 
L 91.526308 80.477958 
L 91.963385 110.545747 
L 92.400462 101.158278 
L 92.837538 101.714761 
L 93.274615 128.38141 
L 93.711692 59.766793 
L 94.148769 109.135981 
L 94.585846 100.306838 
L 95.022923 116.109914 
L 95.46 127.647336 
L 95.897077 121.787455 
L 96.334154 92.729828 
L 96.771231 83.573533 
L 97.208308 99.421552 
L 97.645385 54.51797 
L 98.082462 108.667329 
L 98.519538 72.521574 
L 98.956615 110.339548 
L 99.393692 128.602798 
L 99.830769 47.841578 
L 100.267846 48.807779 
L 100.704923 74.270032 
L 101.142 78.961932 
L 101.579077 53.582811 
L 102.016154 56.616523 
L 102.453231 68.121937 
L 102.890308 90.888893 
L 103.327385 57.560025 
L 103.764462 74.661587 
L 104.201538 106.144027 
L 104.638615 106.915163 
L 105.075692 71.427508 
L 105.512769 93.315586 
L 105.949846 104.704809 
L 106.386923 64.250226 
L 106.824 95.463941 
L 107.261077 86.463466 
L 107.698154 107.515091 
L 108.135231 105.275371 
L 108.572308 92.931564 
L 109.009385 84.429417 
L 109.446462 94.610379 
L 109.883538 132.563965 
L 110.320615 114.359887 
L 110.757692 134.605473 
L 111.194769 87.346337 
L 111.631846 125.472749 
L 112.068923 134.842853 
L 112.506 130.148046 
L 112.943077 127.536402 
L 113.380154 83.580751 
L 114.254308 134.778907 
L 114.691385 78.259866 
L 115.128462 100.474142 
L 115.565538 111.176005 
L 116.002615 89.870832 
L 116.439692 88.871075 
L 117.313846 112.817589 
L 117.750923 105.314052 
L 118.188 100.79851 
L 118.625077 134.881283 
L 119.062154 120.973386 
L 119.499231 118.941705 
L 119.936308 129.661737 
L 120.373385 107.871567 
L 120.810462 128.23961 
L 121.247538 105.383364 
L 121.684615 126.075084 
L 122.121692 113.713189 
L 122.558769 96.959605 
L 122.995846 122.350967 
L 123.432923 118.941504 
L 124.307077 96.365585 
L 124.744154 104.478059 
L 125.181231 127.489416 
L 125.618308 103.625242 
L 126.055385 99.483714 
L 126.492462 127.265601 
L 126.929538 125.509249 
L 127.366615 132.26206 
L 127.803692 129.304432 
L 128.240769 129.492849 
L 128.677846 101.881084 
L 129.114923 128.46907 
L 129.552 122.192646 
L 130.426154 114.349091 
L 130.863231 111.403717 
L 131.300308 129.074319 
L 131.737385 125.248722 
L 132.174462 130.130633 
L 132.611538 113.224284 
L 133.048615 128.466322 
L 133.485692 132.67626 
L 133.922769 127.355377 
L 134.359846 114.576045 
L 134.796923 111.961964 
L 135.234 133.504899 
L 135.671077 132.948721 
L 136.108154 110.460403 
L 136.545231 111.733172 
L 136.982308 123.180217 
L 137.419385 122.905794 
L 137.856462 133.915041 
L 138.293538 117.107479 
L 138.730615 132.209142 
L 139.167692 119.468514 
L 139.604769 133.179263 
L 140.041846 118.307008 
L 140.478923 119.865757 
L 140.916 127.620631 
L 141.353077 129.881011 
L 141.790154 123.936397 
L 142.227231 124.162025 
L 142.664308 115.058531 
L 143.101385 129.239958 
L 143.538462 134.236511 
L 143.975538 127.264643 
L 144.412615 118.432549 
L 144.849692 133.848971 
L 145.286769 135.374219 
L 145.723846 121.915659 
L 146.160923 119.611709 
L 146.598 134.674309 
L 147.035077 121.397044 
L 147.472154 130.335391 
L 147.909231 133.354653 
L 148.346308 118.958376 
L 148.783385 121.385188 
L 149.657538 130.027511 
L 150.094615 125.862873 
L 150.531692 133.515338 
L 150.968769 133.996192 
L 151.405846 126.000301 
L 151.842923 131.718358 
L 152.28 129.612439 
L 152.717077 122.412417 
L 153.154154 131.808982 
L 154.028308 118.129321 
L 154.465385 126.616336 
L 154.902462 124.581724 
L 155.339538 127.74544 
L 155.776615 128.108473 
L 156.213692 132.158751 
L 156.650769 134.308207 
L 157.087846 122.152545 
L 157.524923 131.866911 
L 157.962 122.711359 
L 158.399077 121.15787 
L 158.836154 134.012554 
L 159.273231 131.042846 
L 159.710308 122.073168 
L 160.147385 117.578071 
L 160.584462 122.299849 
L 161.021538 131.316011 
L 161.458615 134.949446 
L 161.895692 134.046662 
L 162.332769 130.807881 
L 162.769846 116.765025 
L 163.206923 119.004806 
L 163.644 123.977799 
L 164.081077 119.067469 
L 164.518154 133.97967 
L 164.955231 115.807107 
L 165.392308 117.591302 
L 165.829385 133.081757 
L 166.266462 121.938107 
L 166.703538 135.147443 
L 167.140615 121.73798 
L 167.577692 120.484695 
L 168.014769 123.32698 
L 168.451846 114.388685 
L 168.888923 119.66385 
L 169.326 127.346351 
L 169.763077 122.56639 
L 170.200154 132.468452 
L 170.637231 124.746707 
L 171.074308 128.919293 
L 171.511385 135.143773 
L 171.948462 119.533003 
L 172.385538 132.659217 
L 172.822615 125.662918 
L 173.259692 131.178245 
L 173.696769 116.22197 
L 174.133846 128.302081 
L 174.570923 116.201148 
L 175.008 112.412346 
L 175.445077 134.465626 
L 176.319231 116.895067 
L 176.756308 122.644586 
L 177.193385 107.669101 
L 177.630462 110.329464 
L 178.067538 131.610966 
L 178.504615 115.527384 
L 178.941692 105.747178 
L 179.378769 106.221946 
L 179.815846 127.833717 
L 180.252923 106.55492 
L 180.69 122.759952 
L 181.127077 104.75237 
L 182.001231 127.570055 
L 182.438308 124.611341 
L 182.875385 109.192272 
L 183.312462 108.35038 
L 183.749538 107.040165 
L 184.186615 129.312259 
L 184.623692 104.414697 
L 185.060769 124.371985 
L 185.497846 108.739247 
L 185.934923 119.250757 
L 186.372 133.343101 
L 187.683231 107.334164 
L 188.120308 103.252669 
L 188.557385 109.748253 
L 188.994462 109.377946 
L 189.431538 132.061476 
L 189.868615 115.968389 
L 190.305692 133.08122 
L 191.179846 91.552391 
L 191.616923 119.427898 
L 192.054 122.187574 
L 192.491077 95.193368 
L 192.928154 105.559284 
L 193.365231 107.942461 
L 193.802308 118.583712 
L 194.239385 91.749957 
L 194.676462 111.188309 
L 195.113538 123.748627 
L 195.550615 102.026733 
L 195.987692 116.804922 
L 196.424769 104.95486 
L 196.861846 114.786781 
L 197.298923 93.11588 
L 197.736 123.27157 
L 198.173077 122.588999 
L 198.610154 114.190858 
L 199.047231 88.189091 
L 199.484308 103.987844 
L 199.921385 83.139348 
L 200.358462 90.181307 
L 200.795538 120.901004 
L 201.232615 107.344174 
L 201.669692 125.878411 
L 202.106769 125.241573 
L 202.543846 78.75427 
L 202.980923 93.177642 
L 203.418 83.553402 
L 203.855077 78.554109 
L 204.292154 76.245086 
L 204.729231 88.595731 
L 205.166308 125.141363 
L 205.603385 125.581929 
L 206.040462 77.482255 
L 206.477538 117.52735 
L 206.914615 135.001269 
L 207.351692 102.467351 
L 207.788769 111.138402 
L 208.225846 134.483717 
L 209.1 79.105847 
L 209.537077 99.332005 
L 209.974154 104.31294 
L 210.848308 129.266282 
L 211.285385 94.067133 
L 211.722462 131.545455 
L 212.596615 86.511434 
L 213.033692 107.266419 
L 213.470769 92.923573 
L 213.907846 114.678386 
L 214.344923 116.724542 
L 214.782 112.153592 
L 215.219077 91.206178 
L 215.656154 97.164106 
L 216.530308 84.689103 
L 216.967385 115.419321 
L 217.841538 86.620476 
L 218.278615 81.738629 
L 218.715692 97.500693 
L 219.152769 96.433226 
L 219.589846 129.080468 
L 220.026923 97.229098 
L 220.464 81.388394 
L 220.901077 98.037003 
L 221.338154 84.860349 
L 221.775231 91.767728 
L 222.649385 73.824414 
L 223.086462 97.15663 
L 223.523538 129.584785 
L 223.960615 91.462081 
L 224.397692 93.433917 
L 224.834769 104.046122 
L 225.271846 134.04243 
L 225.708923 107.550126 
L 226.146 114.836041 
L 226.583077 99.041267 
L 227.457231 118.165695 
L 227.894308 82.955762 
L 228.331385 135.334157 
L 228.768462 132.161029 
L 229.205538 99.82993 
L 229.642615 99.938943 
L 230.079692 103.551143 
L 230.516769 121.88408 
L 230.953846 129.785772 
L 231.390923 98.271872 
L 231.828 104.873601 
L 232.265077 86.753959 
L 232.702154 130.199909 
L 233.139231 122.897179 
L 233.576308 102.77977 
L 234.013385 125.194938 
L 234.450462 113.117592 
L 234.887538 117.608977 
L 235.324615 110.921889 
L 235.761692 133.933141 
L 236.198769 129.191346 
L 236.635846 135.646588 
L 237.072923 91.592893 
L 237.51 94.897574 
L 237.947077 104.463882 
L 238.384154 122.879916 
L 238.821231 102.385388 
L 239.695385 104.385447 
L 240.132462 133.71637 
L 240.569538 106.348807 
L 241.006615 130.896916 
L 241.443692 122.329355 
L 241.880769 130.387335 
L 242.317846 132.714625 
L 242.754923 110.291862 
L 243.192 127.651399 
L 243.629077 134.602561 
L 244.066154 120.58865 
L 244.503231 102.759095 
L 244.940308 129.542359 
L 245.377385 133.432693 
L 245.814462 128.224812 
L 246.251538 117.282673 
L 246.688615 130.753988 
L 247.125692 113.092191 
L 247.562769 124.434303 
L 247.999846 129.80372 
L 248.436923 118.234886 
L 248.874 122.057461 
L 249.311077 130.483021 
L 249.748154 125.065942 
L 250.185231 121.813258 
L 250.622308 115.365252 
L 251.059385 134.583645 
L 251.496462 113.71535 
L 251.933538 133.344536 
L 252.370615 124.733335 
L 252.807692 120.553135 
L 253.244769 124.943696 
L 253.681846 127.036046 
L 254.118923 122.134839 
L 254.556 122.4644 
L 254.993077 121.485851 
L 255.430154 127.263989 
L 255.867231 119.184376 
L 256.304308 122.917709 
L 256.741385 128.716861 
L 257.178462 131.050982 
L 257.615538 123.682964 
L 258.052615 133.66517 
L 258.489692 133.632986 
L 258.926769 131.877299 
L 259.363846 135.490308 
L 259.800923 133.283091 
L 260.238 133.83587 
L 260.675077 127.970716 
L 261.112154 130.401447 
L 261.549231 126.1572 
L 261.986308 132.770808 
L 262.423385 134.190197 
L 262.860462 133.846248 
L 263.297538 131.660678 
L 263.734615 133.002057 
L 264.171692 131.53658 
L 264.608769 132.969986 
L 265.045846 130.633249 
L 265.92 131.720899 
L 266.357077 130.157248 
L 266.794154 133.180432 
L 267.231231 133.782966 
L 267.668308 130.047889 
L 268.105385 131.798876 
L 268.542462 131.314446 
L 268.979538 134.721125 
L 269.416615 130.250449 
L 269.853692 132.127592 
L 270.290769 133.375078 
L 270.727846 131.225537 
L 271.164923 131.43548 
L 271.602 132.490033 
L 272.039077 134.24663 
L 272.476154 131.858422 
L 272.913231 134.972923 
L 273.350308 132.342174 
L 274.224462 134.030555 
L 274.661538 133.09735 
L 275.098615 134.018327 
L 275.535692 133.924558 
L 275.972769 132.868715 
L 276.409846 133.218307 
L 276.846923 134.268394 
L 277.284 133.885188 
L 277.721077 134.710677 
L 278.158154 134.671771 
L 278.595231 133.604047 
L 279.032308 134.69042 
L 279.469385 134.048987 
L 279.906462 133.998146 
L 280.343538 135.450574 
L 280.780615 134.414334 
L 281.217692 135.318673 
L 281.654769 134.838123 
L 282.091846 134.87736 
L 282.966 134.398039 
L 283.403077 135.084158 
L 283.840154 134.724224 
L 284.277231 135.742689 
L 285.151385 135.308139 
L 285.588462 135.767069 
L 286.025538 135.67396 
L 286.462615 134.699999 
L 286.899692 135.632454 
L 287.336769 135.594737 
L 287.773846 134.924208 
L 288.210923 135.331672 
L 288.648 135.444199 
L 289.085077 134.641113 
L 289.959231 135.777411 
L 290.396308 135.601287 
L 290.833385 135.13206 
L 291.270462 134.918561 
L 291.707538 135.768878 
L 292.144615 135.429494 
L 292.581692 134.68738 
L 293.018769 135.333757 
L 293.455846 135.746474 
L 293.892923 134.801532 
L 294.33 135.790453 
L 294.767077 134.760106 
L 295.204154 134.845153 
L 295.641231 135.174185 
L 296.078308 134.748514 
L 296.515385 134.66215 
L 296.952462 135.404723 
L 297.389538 134.586481 
L 297.826615 134.80915 
L 298.263692 134.58251 
L 298.700769 135.662976 
L 299.137846 134.835571 
L 299.574923 135.143969 
L 300.012 135.052846 
L 300.449077 134.362534 
L 300.886154 134.048352 
L 301.323231 134.702138 
L 301.760308 135.124333 
L 302.197385 134.761841 
L 302.634462 135.211045 
L 303.071538 135.415816 
L 303.508615 133.799092 
L 303.945692 133.664711 
L 304.382769 135.597364 
L 304.819846 133.445519 
L 305.256923 135.138635 
L 305.694 133.493514 
L 306.131077 134.310051 
L 306.568154 135.484579 
L 307.005231 135.356126 
L 307.442308 135.478292 
L 307.879385 134.09359 
L 308.316462 134.209182 
L 309.190615 132.2954 
L 309.627692 135.32085 
L 310.064769 132.718976 
L 310.501846 135.327908 
L 310.938923 132.17827 
L 311.376 133.93605 
L 311.813077 133.212628 
L 312.250154 133.947983 
L 312.687231 132.354699 
L 313.561385 134.308032 
L 313.998462 133.345655 
L 314.435538 133.570766 
L 314.872615 131.314857 
L 315.309692 135.279207 
L 315.746769 135.014543 
L 316.183846 131.552978 
L 316.620923 130.957394 
L 317.058 133.696369 
L 317.495077 135.685799 
L 317.932154 129.554628 
L 318.369231 135.191059 
L 318.806308 134.695014 
L 319.243385 131.935274 
L 319.680462 135.073849 
L 320.117538 129.62838 
L 320.554615 134.292327 
L 320.991692 135.670137 
L 321.428769 130.951398 
L 321.865846 131.657563 
L 322.302923 134.728208 
L 322.74 133.184332 
L 323.177077 134.896761 
L 323.614154 125.228702 
L 324.051231 124.804787 
L 324.488308 126.889327 
L 324.925385 127.096036 
L 325.362462 126.912494 
L 325.799538 124.38399 
L 326.236615 129.432027 
L 326.673692 122.657448 
L 327.110769 122.767798 
L 327.547846 123.134197 
L 327.984923 134.550238 
L 328.422 120.861066 
L 328.859077 127.103966 
L 329.733231 125.236172 
L 330.607385 132.417824 
L 331.044462 125.53382 
L 331.481538 130.915365 
L 331.918615 122.766004 
L 332.355692 126.390223 
L 332.792769 117.997035 
L 333.229846 135.447901 
L 333.666923 117.086164 
L 334.104 119.739021 
L 334.541077 125.123477 
L 334.978154 135.365399 
L 335.852308 119.32202 
L 336.289385 131.916999 
L 336.726462 129.222916 
L 337.163538 134.384209 
L 337.600615 120.231943 
L 338.037692 131.026993 
L 338.474769 132.034323 
L 338.911846 113.187444 
L 339.348923 114.18669 
L 339.786 116.942054 
L 340.223077 135.594621 
L 340.660154 120.819286 
L 341.097231 115.244427 
L 341.534308 118.846627 
L 341.971385 128.193432 
L 342.408462 128.945366 
L 342.845538 128.949249 
L 343.282615 118.906337 
L 343.719692 123.918089 
L 344.156769 124.133811 
L 344.593846 124.764922 
L 345.030923 114.666631 
L 345.468 132.442705 
L 345.905077 119.916357 
L 346.342154 133.647694 
L 346.779231 133.954102 
L 347.216308 123.63185 
L 347.653385 122.944029 
L 348.090462 122.883785 
L 348.527538 109.333906 
L 348.964615 128.948095 
L 349.401692 129.272312 
L 349.838769 123.88415 
L 350.275846 135.224981 
L 350.712923 133.159332 
L 351.15 120.69102 
L 351.587077 129.804696 
L 352.024154 130.128857 
L 352.461231 130.71774 
L 352.898308 107.442104 
L 353.335385 131.321372 
L 353.772462 120.474838 
L 354.209538 114.12299 
L 354.646615 111.877503 
L 355.083692 106.230652 
L 355.520769 118.539877 
L 355.957846 110.276454 
L 356.394923 116.299606 
L 356.832 120.067389 
L 357.269077 120.589789 
L 357.706154 131.375929 
L 358.143231 126.798387 
L 358.580308 134.423372 
L 359.017385 116.610425 
L 359.454462 107.900301 
L 359.891538 109.850108 
L 360.328615 122.308665 
L 360.765692 112.119724 
L 361.202769 122.859757 
L 361.639846 129.426785 
L 362.076923 116.592359 
L 362.514 107.533373 
L 362.951077 128.743191 
L 363.388154 115.367565 
L 363.825231 134.590277 
L 364.262308 111.09281 
L 364.699385 131.602013 
L 365.136462 120.841808 
L 365.573538 114.388453 
L 366.010615 121.689843 
L 366.447692 121.774375 
L 366.884769 118.838431 
L 367.321846 130.612417 
L 367.758923 115.381736 
L 368.196 117.572617 
L 368.633077 111.736029 
L 369.070154 122.39974 
L 369.507231 126.06479 
L 369.944308 117.003304 
L 370.381385 134.515165 
L 370.818462 122.716747 
L 371.255538 133.288538 
L 371.692615 118.657495 
L 372.129692 128.597155 
L 372.566769 133.518473 
L 373.003846 134.806798 
L 373.440923 134.57235 
L 373.878 115.570502 
L 374.315077 129.93281 
L 374.752154 123.031688 
L 375.189231 119.371835 
L 375.626308 118.585371 
L 376.063385 125.497747 
L 376.500462 118.4377 
L 376.937538 119.427296 
L 377.374615 131.159817 
L 377.811692 128.608293 
L 378.248769 129.09419 
L 378.685846 132.616322 
L 379.122923 125.338704 
L 379.56 124.368345 
L 379.997077 122.635162 
L 380.434154 130.964075 
L 380.871231 132.260147 
L 381.308308 129.846215 
L 381.745385 128.175494 
L 382.182462 133.635946 
L 382.619538 123.843585 
L 383.056615 131.361623 
L 383.493692 125.54389 
L 383.930769 126.040944 
L 384.367846 125.617348 
L 384.804923 132.518763 
L 385.242 132.860443 
L 385.679077 132.329264 
L 386.116154 126.149626 
L 386.553231 127.714599 
L 387.427385 135.13783 
L 387.864462 133.850587 
L 388.301538 129.70345 
L 388.738615 133.785074 
L 389.175692 132.857909 
L 389.612769 130.25492 
L 390.049846 130.486111 
L 390.486923 130.40258 
L 390.924 133.381681 
L 391.361077 130.458741 
L 391.798154 135.57314 
L 392.235231 133.210038 
L 392.672308 134.189706 
L 393.109385 132.32345 
L 393.546462 135.728362 
L 393.983538 132.102896 
L 394.420615 130.91384 
L 394.857692 132.971808 
L 395.294769 133.186184 
L 395.731846 132.746135 
L 396.168923 133.774548 
L 396.606 132.827551 
L 397.043077 132.182372 
L 397.480154 132.857827 
L 397.917231 134.63983 
L 398.791385 134.671629 
L 399.665538 135.182328 
L 400.102615 135.741408 
L 400.539692 134.104491 
L 400.976769 135.317846 
L 401.413846 134.41723 
L 402.288 134.37735 
L 402.725077 135.525261 
L 403.162154 134.408846 
L 403.599231 135.231413 
L 404.036308 134.514805 
L 404.473385 135.626187 
L 404.910462 134.734749 
L 405.784615 135.484993 
L 406.658769 135.14519 
L 407.095846 135.603102 
L 407.532923 135.25643 
L 407.97 135.490011 
L 408.407077 135.261146 
L 408.844154 135.720224 
L 409.718308 135.547418 
L 410.155385 135.637568 
L 410.592462 135.591233 
L 411.466615 135.779285 
L 417.148615 135.740209 
L 418.459846 135.760603 
L 421.519385 135.795976 
L 432.009231 135.766442 
L 432.446308 135.695942 
L 432.883385 135.739887 
L 433.757538 135.64296 
L 434.631692 135.772066 
L 435.068769 135.788141 
L 435.505846 135.565705 
L 435.942923 135.737868 
L 436.38 135.514825 
L 437.254154 135.677506 
L 437.691231 135.419335 
L 438.128308 135.423845 
L 438.565385 135.792261 
L 439.002462 135.222796 
L 439.439538 135.162804 
L 439.876615 135.724114 
L 440.313692 135.396884 
L 440.750769 135.695489 
L 441.187846 134.971348 
L 441.624923 135.569477 
L 442.062 135.050926 
L 442.499077 135.72529 
L 442.936154 135.142368 
L 443.373231 135.188471 
L 443.810308 134.588742 
L 444.247385 134.541286 
L 444.684462 135.101179 
L 445.121538 135.043944 
L 445.558615 134.070717 
L 445.995692 134.446385 
L 446.432769 133.54206 
L 446.869846 134.343095 
L 447.306923 133.240179 
L 447.744 133.221011 
L 448.618154 134.122631 
L 449.055231 134.64623 
L 449.492308 134.266305 
L 450.366462 134.60004 
L 450.803538 135.6644 
L 451.240615 133.095959 
L 451.677692 131.292226 
L 452.114769 132.402203 
L 452.551846 130.808388 
L 452.988923 134.218505 
L 453.426 132.516179 
L 453.863077 135.528405 
L 454.737231 129.429634 
L 455.174308 133.498013 
L 455.611385 131.450146 
L 456.048462 134.282871 
L 456.485538 128.927812 
L 456.922615 133.1824 
L 457.359692 134.837186 
L 457.796769 126.948209 
L 458.233846 128.584089 
L 458.670923 130.860046 
L 459.108 129.309596 
L 459.545077 130.037291 
L 459.982154 134.457944 
L 460.419231 132.247574 
L 461.293385 133.156665 
L 461.730462 127.430271 
L 462.167538 125.259682 
L 462.604615 123.8735 
L 463.041692 134.514946 
L 463.478769 132.648499 
L 463.915846 123.819729 
L 464.352923 123.472566 
L 464.79 130.44579 
L 465.227077 134.332004 
L 466.101231 126.413165 
L 466.538308 132.92716 
L 466.975385 121.969258 
L 467.412462 134.777876 
L 467.849538 124.852207 
L 468.286615 122.069897 
L 468.723692 120.852126 
L 469.160769 131.035295 
L 469.597846 116.513632 
L 470.034923 126.868623 
L 470.472 124.801615 
L 470.909077 131.663826 
L 471.346154 118.624229 
L 471.783231 133.571324 
L 472.220308 130.280525 
L 472.657385 128.913656 
L 473.094462 125.235929 
L 473.531538 113.021128 
L 473.968615 133.589204 
L 474.405692 130.762536 
L 474.842769 124.579098 
L 475.279846 115.377805 
L 475.716923 118.563541 
L 476.154 107.759734 
L 476.591077 119.245884 
L 477.028154 113.620694 
L 477.465231 127.91498 
L 477.902308 109.803813 
L 478.339385 129.629732 
L 478.776462 124.247263 
L 479.213538 117.422124 
L 479.650615 105.656248 
L 480.087692 121.82967 
L 480.524769 124.482558 
L 480.961846 117.357894 
L 481.398923 121.567206 
L 481.836 120.751077 
L 482.273077 114.16635 
L 482.710154 120.219179 
L 483.147231 107.916359 
L 483.584308 102.004869 
L 484.021385 112.253185 
L 484.021385 112.253185 
" clip-path="url(#pdeca64d6e5)" style="fill: none; stroke: #1f77b4; stroke-opacity: 0.5; stroke-linecap: square"/>
   </g>
   <g id="line2d_12">
    <path d="M 38.64 128.651411 
L 493.2 128.651411 
" clip-path="url(#pdeca64d6e5)" style="fill: none; stroke-dasharray: 2,5; stroke-dashoffset: 0; stroke: #d62728"/>
   </g>
   <g id="line2d_13">
    <path d="M 38.64 107.200682 
L 493.2 107.200682 
" clip-path="url(#pdeca64d6e5)" style="fill: none; stroke-dasharray: 2,5; stroke-dashoffset: 0; stroke: #d62728"/>
   </g>
   <g id="patch_3">
    <path d="M 33.64 141.056 
L 33.64 25.44 
" style="fill: none; stroke: #7f7f7f; stroke-width: 0.8; stroke-linejoin: miter; stroke-linecap: square"/>
   </g>
   <g id="patch_4">
    <path d="M 38.64 146.056 
L 493.2 146.056 
" style="fill: none; stroke: #7f7f7f; stroke-width: 0.8; stroke-linejoin: miter; stroke-linecap: square"/>
   </g>
   <g id="text_11">
    <!-- Vector magnitude -->
    <g transform="translate(216.894375 19.44) scale(0.11 -0.11)">
     <defs>
      <path id="DejaVuSans-56" d="M 1831 0 
L 50 4666 
L 709 4666 
L 2188 738 
L 3669 4666 
L 4325 4666 
L 2547 0 
L 1831 0 
z
" transform="scale(0.015625)"/>
      <path id="DejaVuSans-65" d="M 3597 1894 
L 3597 1613 
L 953 1613 
Q 991 1019 1311 708 
Q 1631 397 2203 397 
Q 2534 397 2845 478 
Q 3156 559 3463 722 
L 3463 178 
Q 3153 47 2828 -22 
Q 2503 -91 2169 -91 
Q 1331 -91 842 396 
Q 353 884 353 1716 
Q 353 2575 817 3079 
Q 1281 3584 2069 3584 
Q 2775 3584 3186 3129 
Q 3597 2675 3597 1894 
z
M 3022 2063 
Q 3016 2534 2758 2815 
Q 2500 3097 2075 3097 
Q 1594 3097 1305 2825 
Q 1016 2553 972 2059 
L 3022 2063 
z
" transform="scale(0.015625)"/>
      <path id="DejaVuSans-63" d="M 3122 3366 
L 3122 2828 
Q 2878 2963 2633 3030 
Q 2388 3097 2138 3097 
Q 1578 3097 1268 2742 
Q 959 2388 959 1747 
Q 959 1106 1268 751 
Q 1578 397 2138 397 
Q 2388 397 2633 464 
Q 2878 531 3122 666 
L 3122 134 
Q 2881 22 2623 -34 
Q 2366 -91 2075 -91 
Q 1284 -91 818 406 
Q 353 903 353 1747 
Q 353 2603 823 3093 
Q 1294 3584 2113 3584 
Q 2378 3584 2631 3529 
Q 2884 3475 3122 3366 
z
" transform="scale(0.015625)"/>
      <path id="DejaVuSans-74" d="M 1172 4494 
L 1172 3500 
L 2356 3500 
L 2356 3053 
L 1172 3053 
L 1172 1153 
Q 1172 725 1289 603 
Q 1406 481 1766 481 
L 2356 481 
L 2356 0 
L 1766 0 
Q 1100 0 847 248 
Q 594 497 594 1153 
L 594 3053 
L 172 3053 
L 172 3500 
L 594 3500 
L 594 4494 
L 1172 4494 
z
" transform="scale(0.015625)"/>
      <path id="DejaVuSans-6f" d="M 1959 3097 
Q 1497 3097 1228 2736 
Q 959 2375 959 1747 
Q 959 1119 1226 758 
Q 1494 397 1959 397 
Q 2419 397 2687 759 
Q 2956 1122 2956 1747 
Q 2956 2369 2687 2733 
Q 2419 3097 1959 3097 
z
M 1959 3584 
Q 2709 3584 3137 3096 
Q 3566 2609 3566 1747 
Q 3566 888 3137 398 
Q 2709 -91 1959 -91 
Q 1206 -91 779 398 
Q 353 888 353 1747 
Q 353 2609 779 3096 
Q 1206 3584 1959 3584 
z
" transform="scale(0.015625)"/>
      <path id="DejaVuSans-72" d="M 2631 2963 
Q 2534 3019 2420 3045 
Q 2306 3072 2169 3072 
Q 1681 3072 1420 2755 
Q 1159 2438 1159 1844 
L 1159 0 
L 581 0 
L 581 3500 
L 1159 3500 
L 1159 2956 
Q 1341 3275 1631 3429 
Q 1922 3584 2338 3584 
Q 2397 3584 2469 3576 
Q 2541 3569 2628 3553 
L 2631 2963 
z
" transform="scale(0.015625)"/>
      <path id="DejaVuSans-20" transform="scale(0.015625)"/>
      <path id="DejaVuSans-6d" d="M 3328 2828 
Q 3544 3216 3844 3400 
Q 4144 3584 4550 3584 
Q 5097 3584 5394 3201 
Q 5691 2819 5691 2113 
L 5691 0 
L 5113 0 
L 5113 2094 
Q 5113 2597 4934 2840 
Q 4756 3084 4391 3084 
Q 3944 3084 3684 2787 
Q 3425 2491 3425 1978 
L 3425 0 
L 2847 0 
L 2847 2094 
Q 2847 2600 2669 2842 
Q 2491 3084 2119 3084 
Q 1678 3084 1418 2786 
Q 1159 2488 1159 1978 
L 1159 0 
L 581 0 
L 581 3500 
L 1159 3500 
L 1159 2956 
Q 1356 3278 1631 3431 
Q 1906 3584 2284 3584 
Q 2666 3584 2933 3390 
Q 3200 3197 3328 2828 
z
" transform="scale(0.015625)"/>
      <path id="DejaVuSans-61" d="M 2194 1759 
Q 1497 1759 1228 1600 
Q 959 1441 959 1056 
Q 959 750 1161 570 
Q 1363 391 1709 391 
Q 2188 391 2477 730 
Q 2766 1069 2766 1631 
L 2766 1759 
L 2194 1759 
z
M 3341 1997 
L 3341 0 
L 2766 0 
L 2766 531 
Q 2569 213 2275 61 
Q 1981 -91 1556 -91 
Q 1019 -91 701 211 
Q 384 513 384 1019 
Q 384 1609 779 1909 
Q 1175 2209 1959 2209 
L 2766 2209 
L 2766 2266 
Q 2766 2663 2505 2880 
Q 2244 3097 1772 3097 
Q 1472 3097 1187 3025 
Q 903 2953 641 2809 
L 641 3341 
Q 956 3463 1253 3523 
Q 1550 3584 1831 3584 
Q 2591 3584 2966 3190 
Q 3341 2797 3341 1997 
z
" transform="scale(0.015625)"/>
      <path id="DejaVuSans-67" d="M 2906 1791 
Q 2906 2416 2648 2759 
Q 2391 3103 1925 3103 
Q 1463 3103 1205 2759 
Q 947 2416 947 1791 
Q 947 1169 1205 825 
Q 1463 481 1925 481 
Q 2391 481 2648 825 
Q 2906 1169 2906 1791 
z
M 3481 434 
Q 3481 -459 3084 -895 
Q 2688 -1331 1869 -1331 
Q 1566 -1331 1297 -1286 
Q 1028 -1241 775 -1147 
L 775 -588 
Q 1028 -725 1275 -790 
Q 1522 -856 1778 -856 
Q 2344 -856 2625 -561 
Q 2906 -266 2906 331 
L 2906 616 
Q 2728 306 2450 153 
Q 2172 0 1784 0 
Q 1141 0 747 490 
Q 353 981 353 1791 
Q 353 2603 747 3093 
Q 1141 3584 1784 3584 
Q 2172 3584 2450 3431 
Q 2728 3278 2906 2969 
L 2906 3500 
L 3481 3500 
L 3481 434 
z
" transform="scale(0.015625)"/>
      <path id="DejaVuSans-6e" d="M 3513 2113 
L 3513 0 
L 2938 0 
L 2938 2094 
Q 2938 2591 2744 2837 
Q 2550 3084 2163 3084 
Q 1697 3084 1428 2787 
Q 1159 2491 1159 1978 
L 1159 0 
L 581 0 
L 581 3500 
L 1159 3500 
L 1159 2956 
Q 1366 3272 1645 3428 
Q 1925 3584 2291 3584 
Q 2894 3584 3203 3211 
Q 3513 2838 3513 2113 
z
" transform="scale(0.015625)"/>
      <path id="DejaVuSans-69" d="M 603 3500 
L 1178 3500 
L 1178 0 
L 603 0 
L 603 3500 
z
M 603 4863 
L 1178 4863 
L 1178 4134 
L 603 4134 
L 603 4863 
z
" transform="scale(0.015625)"/>
      <path id="DejaVuSans-75" d="M 544 1381 
L 544 3500 
L 1119 3500 
L 1119 1403 
Q 1119 906 1312 657 
Q 1506 409 1894 409 
Q 2359 409 2629 706 
Q 2900 1003 2900 1516 
L 2900 3500 
L 3475 3500 
L 3475 0 
L 2900 0 
L 2900 538 
Q 2691 219 2414 64 
Q 2138 -91 1772 -91 
Q 1169 -91 856 284 
Q 544 659 544 1381 
z
M 1991 3584 
L 1991 3584 
z
" transform="scale(0.015625)"/>
      <path id="DejaVuSans-64" d="M 2906 2969 
L 2906 4863 
L 3481 4863 
L 3481 0 
L 2906 0 
L 2906 525 
Q 2725 213 2448 61 
Q 2172 -91 1784 -91 
Q 1150 -91 751 415 
Q 353 922 353 1747 
Q 353 2572 751 3078 
Q 1150 3584 1784 3584 
Q 2172 3584 2448 3432 
Q 2725 3281 2906 2969 
z
M 947 1747 
Q 947 1113 1208 752 
Q 1469 391 1925 391 
Q 2381 391 2643 752 
Q 2906 1113 2906 1747 
Q 2906 2381 2643 2742 
Q 2381 3103 1925 3103 
Q 1469 3103 1208 2742 
Q 947 2381 947 1747 
z
" transform="scale(0.015625)"/>
     </defs>
     <use xlink:href="#DejaVuSans-56"/>
     <use xlink:href="#DejaVuSans-65" x="60.658203"/>
     <use xlink:href="#DejaVuSans-63" x="122.181641"/>
     <use xlink:href="#DejaVuSans-74" x="177.162109"/>
     <use xlink:href="#DejaVuSans-6f" x="216.371094"/>
     <use xlink:href="#DejaVuSans-72" x="277.552734"/>
     <use xlink:href="#DejaVuSans-20" x="318.666016"/>
     <use xlink:href="#DejaVuSans-6d" x="350.453125"/>
     <use xlink:href="#DejaVuSans-61" x="447.865234"/>
     <use xlink:href="#DejaVuSans-67" x="509.144531"/>
     <use xlink:href="#DejaVuSans-6e" x="572.621094"/>
     <use xlink:href="#DejaVuSans-69" x="636"/>
     <use xlink:href="#DejaVuSans-74" x="663.783203"/>
     <use xlink:href="#DejaVuSans-75" x="702.992188"/>
     <use xlink:href="#DejaVuSans-64" x="766.371094"/>
     <use xlink:href="#DejaVuSans-65" x="829.847656"/>
    </g>
   </g>
  </g>
  <g id="axes_2">
   <g id="patch_5">
    <path d="M 38.64 246.384 
L 493.2 246.384 
L 493.2 188.576 
L 38.64 188.576 
z
" style="fill: #ffffff"/>
   </g>
   <g id="matplotlib.axis_3">
    <g id="xtick_7">
     <g id="line2d_14">
      <g>
       <use xlink:href="#m16470562d4" x="47.381538" y="251.384" style="stroke: #000000; stroke-width: 0.8"/>
      </g>
     </g>
     <g id="text_12">
      <!-- 0 -->
      <g transform="translate(44.200288 265.982438) scale(0.1 -0.1)">
       <use xlink:href="#DejaVuSans-30"/>
      </g>
     </g>
    </g>
    <g id="xtick_8">
     <g id="line2d_15">
      <g>
       <use xlink:href="#m16470562d4" x="134.796923" y="251.384" style="stroke: #000000; stroke-width: 0.8"/>
      </g>
     </g>
     <g id="text_13">
      <!-- 2 -->
      <g transform="translate(131.615673 265.982438) scale(0.1 -0.1)">
       <use xlink:href="#DejaVuSans-32"/>
      </g>
     </g>
    </g>
    <g id="xtick_9">
     <g id="line2d_16">
      <g>
       <use xlink:href="#m16470562d4" x="222.212308" y="251.384" style="stroke: #000000; stroke-width: 0.8"/>
      </g>
     </g>
     <g id="text_14">
      <!-- 4 -->
      <g transform="translate(219.031058 265.982438) scale(0.1 -0.1)">
       <use xlink:href="#DejaVuSans-34"/>
      </g>
     </g>
    </g>
    <g id="xtick_10">
     <g id="line2d_17">
      <g>
       <use xlink:href="#m16470562d4" x="309.627692" y="251.384" style="stroke: #000000; stroke-width: 0.8"/>
      </g>
     </g>
     <g id="text_15">
      <!-- 6 -->
      <g transform="translate(306.446442 265.982438) scale(0.1 -0.1)">
       <use xlink:href="#DejaVuSans-36"/>
      </g>
     </g>
    </g>
    <g id="xtick_11">
     <g id="line2d_18">
      <g>
       <use xlink:href="#m16470562d4" x="397.043077" y="251.384" style="stroke: #000000; stroke-width: 0.8"/>
      </g>
     </g>
     <g id="text_16">
      <!-- 8 -->
      <g transform="translate(393.861827 265.982438) scale(0.1 -0.1)">
       <use xlink:href="#DejaVuSans-38"/>
      </g>
     </g>
    </g>
    <g id="xtick_12">
     <g id="line2d_19">
      <g>
       <use xlink:href="#m16470562d4" x="484.458462" y="251.384" style="stroke: #000000; stroke-width: 0.8"/>
      </g>
     </g>
     <g id="text_17">
      <!-- 10 -->
      <g transform="translate(478.095962 265.982438) scale(0.1 -0.1)">
       <use xlink:href="#DejaVuSans-31"/>
       <use xlink:href="#DejaVuSans-30" x="63.623047"/>
      </g>
     </g>
    </g>
   </g>
   <g id="matplotlib.axis_4">
    <g id="ytick_5">
     <g id="line2d_20">
      <g>
       <use xlink:href="#mfd8c4aacb2" x="33.64" y="243.756364" style="stroke: #000000; stroke-width: 0.8"/>
      </g>
     </g>
     <g id="text_18">
      <!-- 0 -->
      <g transform="translate(20.2775 247.555582) scale(0.1 -0.1)">
       <use xlink:href="#DejaVuSans-30"/>
      </g>
     </g>
    </g>
    <g id="ytick_6">
     <g id="line2d_21">
      <g>
       <use xlink:href="#mfd8c4aacb2" x="33.64" y="191.203636" style="stroke: #000000; stroke-width: 0.8"/>
      </g>
     </g>
     <g id="text_19">
      <!-- 1 -->
      <g transform="translate(20.2775 195.002855) scale(0.1 -0.1)">
       <use xlink:href="#DejaVuSans-31"/>
      </g>
     </g>
    </g>
   </g>
   <g id="line2d_22">
    <path d="M 47.381538 243.756364 
L 47.381538 191.203636 
L 64.427538 191.203636 
L 64.427538 243.756364 
L 65.301692 243.756364 
L 65.301692 191.203636 
L 66.612923 191.203636 
L 66.612923 243.756364 
L 67.05 243.756364 
L 67.05 191.203636 
L 74.043231 191.203636 
L 74.043231 243.756364 
L 74.480308 243.756364 
L 74.480308 191.203636 
L 79.288154 191.203636 
L 79.288154 243.756364 
L 80.162308 243.756364 
L 80.162308 191.203636 
L 83.221846 191.203636 
L 83.221846 243.756364 
L 83.658923 243.756364 
L 83.658923 191.203636 
L 109.446462 191.203636 
L 109.446462 243.756364 
L 110.757692 243.756364 
L 110.757692 191.203636 
L 111.631846 191.203636 
L 111.631846 243.756364 
L 112.943077 243.756364 
L 112.943077 191.203636 
L 113.817231 191.203636 
L 113.817231 243.756364 
L 114.254308 243.756364 
L 114.254308 191.203636 
L 118.188 191.203636 
L 118.188 243.756364 
L 120.810462 243.756364 
L 120.810462 191.203636 
L 126.929538 191.203636 
L 126.929538 243.756364 
L 128.240769 243.756364 
L 128.240769 191.203636 
L 130.863231 191.203636 
L 130.863231 243.756364 
L 178.504615 243.756364 
L 178.504615 191.203636 
L 183.749538 191.203636 
L 183.749538 243.756364 
L 184.186615 243.756364 
L 184.186615 191.203636 
L 185.934923 191.203636 
L 185.934923 243.756364 
L 187.683231 243.756364 
L 187.683231 191.203636 
L 188.994462 191.203636 
L 188.994462 243.756364 
L 190.742769 243.756364 
L 190.742769 191.203636 
L 206.477538 191.203636 
L 206.477538 243.756364 
L 206.914615 243.756364 
L 206.914615 191.203636 
L 207.788769 191.203636 
L 207.788769 243.756364 
L 208.662923 243.756364 
L 208.662923 191.203636 
L 210.411231 191.203636 
L 210.411231 243.756364 
L 210.848308 243.756364 
L 210.848308 191.203636 
L 211.285385 191.203636 
L 211.285385 243.756364 
L 211.722462 243.756364 
L 211.722462 191.203636 
L 219.152769 191.203636 
L 219.152769 243.756364 
L 219.589846 243.756364 
L 219.589846 191.203636 
L 223.086462 191.203636 
L 223.086462 243.756364 
L 223.523538 243.756364 
L 223.523538 191.203636 
L 224.834769 191.203636 
L 224.834769 243.756364 
L 226.146 243.756364 
L 226.146 191.203636 
L 227.894308 191.203636 
L 227.894308 243.756364 
L 228.768462 243.756364 
L 228.768462 191.203636 
L 230.516769 191.203636 
L 230.516769 243.756364 
L 230.953846 243.756364 
L 230.953846 191.203636 
L 232.265077 191.203636 
L 232.265077 243.756364 
L 233.139231 243.756364 
L 233.139231 191.203636 
L 235.324615 191.203636 
L 235.324615 243.756364 
L 236.635846 243.756364 
L 236.635846 191.203636 
L 239.695385 191.203636 
L 239.695385 243.756364 
L 240.132462 243.756364 
L 240.132462 191.203636 
L 240.569538 191.203636 
L 240.569538 243.756364 
L 244.066154 243.756364 
L 244.066154 191.203636 
L 244.503231 191.203636 
L 244.503231 243.756364 
L 354.646615 243.756364 
L 354.646615 191.203636 
L 357.269077 191.203636 
L 357.269077 243.756364 
L 479.213538 243.756364 
L 479.213538 191.203636 
L 484.021385 191.203636 
L 484.021385 191.203636 
" clip-path="url(#p785fe137dc)" style="fill: none; stroke: #000000; stroke-opacity: 0.25; stroke-linecap: square"/>
   </g>
   <g id="line2d_23">
    <path d="M 47.381538 243.756364 
L 58.308462 191.203636 
L 62.679231 191.203636 
L 64.864615 193.305745 
L 67.05 197.509964 
L 75.791538 197.509964 
L 77.976923 193.305745 
L 80.162308 197.509964 
L 82.347692 197.509964 
L 84.533077 199.612073 
L 86.718462 197.509964 
L 88.903846 197.509964 
L 91.089231 193.305745 
L 93.274615 193.305745 
L 95.46 191.203636 
L 108.572308 191.203636 
L 112.943077 203.816291 
L 115.128462 205.9184 
L 117.313846 205.9184 
L 119.499231 212.224727 
L 121.684615 212.224727 
L 123.87 205.9184 
L 126.055385 203.816291 
L 128.240769 210.122618 
L 130.426154 203.816291 
L 132.611538 205.9184 
L 136.982308 226.939491 
L 139.167692 231.143709 
L 141.353077 241.654255 
L 143.538462 243.756364 
L 178.504615 243.756364 
L 182.875385 222.735273 
L 185.060769 214.326836 
L 187.246154 210.122618 
L 189.431538 203.816291 
L 191.616923 210.122618 
L 193.802308 210.122618 
L 195.987692 208.020509 
L 198.173077 201.714182 
L 200.358462 197.509964 
L 202.543846 191.203636 
L 204.729231 191.203636 
L 206.914615 193.305745 
L 209.1 197.509964 
L 213.470769 201.714182 
L 215.656154 201.714182 
L 222.212308 195.407855 
L 224.397692 195.407855 
L 226.583077 201.714182 
L 228.768462 205.9184 
L 230.953846 205.9184 
L 233.139231 210.122618 
L 235.324615 208.020509 
L 237.51 208.020509 
L 239.695385 203.816291 
L 244.066154 216.428945 
L 246.251538 224.837382 
L 248.436923 229.0416 
L 250.622308 239.552145 
L 252.807692 241.654255 
L 254.993077 241.654255 
L 257.178462 243.756364 
L 353.335385 243.756364 
L 355.520769 239.552145 
L 357.706154 231.143709 
L 364.262308 231.143709 
L 366.447692 235.347927 
L 368.633077 243.756364 
L 477.902308 243.756364 
L 480.087692 239.552145 
L 482.273077 229.0416 
L 482.273077 229.0416 
" clip-path="url(#p785fe137dc)" style="fill: none; stroke: #000000; stroke-linecap: square"/>
   </g>
   <g id="patch_6">
    <path d="M 33.64 246.384 
L 33.64 188.576 
" style="fill: none; stroke: #7f7f7f; stroke-width: 0.8; stroke-linejoin: miter; stroke-linecap: square"/>
   </g>
   <g id="patch_7">
    <path d="M 38.64 251.384 
L 493.2 251.384 
" style="fill: none; stroke: #7f7f7f; stroke-width: 0.8; stroke-linejoin: miter; stroke-linecap: square"/>
   </g>
   <g id="text_20">
    <!-- Instantaneous and Average inensity of use from u1 -->
    <g transform="translate(125.146641 182.576) scale(0.11 -0.11)">
     <defs>
      <path id="DejaVuSans-49" d="M 628 4666 
L 1259 4666 
L 1259 0 
L 628 0 
L 628 4666 
z
" transform="scale(0.015625)"/>
      <path id="DejaVuSans-73" d="M 2834 3397 
L 2834 2853 
Q 2591 2978 2328 3040 
Q 2066 3103 1784 3103 
Q 1356 3103 1142 2972 
Q 928 2841 928 2578 
Q 928 2378 1081 2264 
Q 1234 2150 1697 2047 
L 1894 2003 
Q 2506 1872 2764 1633 
Q 3022 1394 3022 966 
Q 3022 478 2636 193 
Q 2250 -91 1575 -91 
Q 1294 -91 989 -36 
Q 684 19 347 128 
L 347 722 
Q 666 556 975 473 
Q 1284 391 1588 391 
Q 1994 391 2212 530 
Q 2431 669 2431 922 
Q 2431 1156 2273 1281 
Q 2116 1406 1581 1522 
L 1381 1569 
Q 847 1681 609 1914 
Q 372 2147 372 2553 
Q 372 3047 722 3315 
Q 1072 3584 1716 3584 
Q 2034 3584 2315 3537 
Q 2597 3491 2834 3397 
z
" transform="scale(0.015625)"/>
      <path id="DejaVuSans-41" d="M 2188 4044 
L 1331 1722 
L 3047 1722 
L 2188 4044 
z
M 1831 4666 
L 2547 4666 
L 4325 0 
L 3669 0 
L 3244 1197 
L 1141 1197 
L 716 0 
L 50 0 
L 1831 4666 
z
" transform="scale(0.015625)"/>
      <path id="DejaVuSans-76" d="M 191 3500 
L 800 3500 
L 1894 563 
L 2988 3500 
L 3597 3500 
L 2284 0 
L 1503 0 
L 191 3500 
z
" transform="scale(0.015625)"/>
      <path id="DejaVuSans-79" d="M 2059 -325 
Q 1816 -950 1584 -1140 
Q 1353 -1331 966 -1331 
L 506 -1331 
L 506 -850 
L 844 -850 
Q 1081 -850 1212 -737 
Q 1344 -625 1503 -206 
L 1606 56 
L 191 3500 
L 800 3500 
L 1894 763 
L 2988 3500 
L 3597 3500 
L 2059 -325 
z
" transform="scale(0.015625)"/>
      <path id="DejaVuSans-66" d="M 2375 4863 
L 2375 4384 
L 1825 4384 
Q 1516 4384 1395 4259 
Q 1275 4134 1275 3809 
L 1275 3500 
L 2222 3500 
L 2222 3053 
L 1275 3053 
L 1275 0 
L 697 0 
L 697 3053 
L 147 3053 
L 147 3500 
L 697 3500 
L 697 3744 
Q 697 4328 969 4595 
Q 1241 4863 1831 4863 
L 2375 4863 
z
" transform="scale(0.015625)"/>
     </defs>
     <use xlink:href="#DejaVuSans-49"/>
     <use xlink:href="#DejaVuSans-6e" x="29.492188"/>
     <use xlink:href="#DejaVuSans-73" x="92.871094"/>
     <use xlink:href="#DejaVuSans-74" x="144.970703"/>
     <use xlink:href="#DejaVuSans-61" x="184.179688"/>
     <use xlink:href="#DejaVuSans-6e" x="245.458984"/>
     <use xlink:href="#DejaVuSans-74" x="308.837891"/>
     <use xlink:href="#DejaVuSans-61" x="348.046875"/>
     <use xlink:href="#DejaVuSans-6e" x="409.326172"/>
     <use xlink:href="#DejaVuSans-65" x="472.705078"/>
     <use xlink:href="#DejaVuSans-6f" x="534.228516"/>
     <use xlink:href="#DejaVuSans-75" x="595.410156"/>
     <use xlink:href="#DejaVuSans-73" x="658.789062"/>
     <use xlink:href="#DejaVuSans-20" x="710.888672"/>
     <use xlink:href="#DejaVuSans-61" x="742.675781"/>
     <use xlink:href="#DejaVuSans-6e" x="803.955078"/>
     <use xlink:href="#DejaVuSans-64" x="867.333984"/>
     <use xlink:href="#DejaVuSans-20" x="930.810547"/>
     <use xlink:href="#DejaVuSans-41" x="962.597656"/>
     <use xlink:href="#DejaVuSans-76" x="1025.130859"/>
     <use xlink:href="#DejaVuSans-65" x="1084.310547"/>
     <use xlink:href="#DejaVuSans-72" x="1145.833984"/>
     <use xlink:href="#DejaVuSans-61" x="1186.947266"/>
     <use xlink:href="#DejaVuSans-67" x="1248.226562"/>
     <use xlink:href="#DejaVuSans-65" x="1311.703125"/>
     <use xlink:href="#DejaVuSans-20" x="1373.226562"/>
     <use xlink:href="#DejaVuSans-69" x="1405.013672"/>
     <use xlink:href="#DejaVuSans-6e" x="1432.796875"/>
     <use xlink:href="#DejaVuSans-65" x="1496.175781"/>
     <use xlink:href="#DejaVuSans-6e" x="1557.699219"/>
     <use xlink:href="#DejaVuSans-73" x="1621.078125"/>
     <use xlink:href="#DejaVuSans-69" x="1673.177734"/>
     <use xlink:href="#DejaVuSans-74" x="1700.960938"/>
     <use xlink:href="#DejaVuSans-79" x="1740.169922"/>
     <use xlink:href="#DejaVuSans-20" x="1799.349609"/>
     <use xlink:href="#DejaVuSans-6f" x="1831.136719"/>
     <use xlink:href="#DejaVuSans-66" x="1892.318359"/>
     <use xlink:href="#DejaVuSans-20" x="1927.523438"/>
     <use xlink:href="#DejaVuSans-75" x="1959.310547"/>
     <use xlink:href="#DejaVuSans-73" x="2022.689453"/>
     <use xlink:href="#DejaVuSans-65" x="2074.789062"/>
     <use xlink:href="#DejaVuSans-20" x="2136.3125"/>
     <use xlink:href="#DejaVuSans-66" x="2168.099609"/>
     <use xlink:href="#DejaVuSans-72" x="2203.304688"/>
     <use xlink:href="#DejaVuSans-6f" x="2242.167969"/>
     <use xlink:href="#DejaVuSans-6d" x="2303.349609"/>
     <use xlink:href="#DejaVuSans-20" x="2400.761719"/>
     <use xlink:href="#DejaVuSans-75" x="2432.548828"/>
     <use xlink:href="#DejaVuSans-31" x="2495.927734"/>
    </g>
   </g>
   <g id="legend_1">
    <g id="line2d_24">
     <path d="M 396.573437 201.674437 
L 396.573437 201.674437 
L 406.573437 201.674437 
L 406.573437 201.674437 
L 416.573437 201.674437 
" style="fill: none; stroke: #000000; stroke-opacity: 0.25; stroke-linecap: square"/>
    </g>
    <g id="text_21">
     <!-- UL Use -->
     <g transform="translate(424.573437 205.174437) scale(0.1 -0.1)">
      <defs>
       <path id="DejaVuSans-55" d="M 556 4666 
L 1191 4666 
L 1191 1831 
Q 1191 1081 1462 751 
Q 1734 422 2344 422 
Q 2950 422 3222 751 
Q 3494 1081 3494 1831 
L 3494 4666 
L 4128 4666 
L 4128 1753 
Q 4128 841 3676 375 
Q 3225 -91 2344 -91 
Q 1459 -91 1007 375 
Q 556 841 556 1753 
L 556 4666 
z
" transform="scale(0.015625)"/>
       <path id="DejaVuSans-4c" d="M 628 4666 
L 1259 4666 
L 1259 531 
L 3531 531 
L 3531 0 
L 628 0 
L 628 4666 
z
" transform="scale(0.015625)"/>
      </defs>
      <use xlink:href="#DejaVuSans-55"/>
      <use xlink:href="#DejaVuSans-4c" x="73.193359"/>
      <use xlink:href="#DejaVuSans-20" x="128.90625"/>
      <use xlink:href="#DejaVuSans-55" x="160.693359"/>
      <use xlink:href="#DejaVuSans-73" x="233.886719"/>
      <use xlink:href="#DejaVuSans-65" x="285.986328"/>
     </g>
    </g>
    <g id="line2d_25">
     <path d="M 396.573437 216.352562 
L 406.573437 216.352562 
L 416.573437 216.352562 
" style="fill: none; stroke: #000000; stroke-linecap: square"/>
    </g>
    <g id="text_22">
     <!-- Avg. UL Use -->
     <g transform="translate(424.573437 219.852562) scale(0.1 -0.1)">
      <defs>
       <path id="DejaVuSans-2e" d="M 684 794 
L 1344 794 
L 1344 0 
L 684 0 
L 684 794 
z
" transform="scale(0.015625)"/>
      </defs>
      <use xlink:href="#DejaVuSans-41"/>
      <use xlink:href="#DejaVuSans-76" x="62.533203"/>
      <use xlink:href="#DejaVuSans-67" x="121.712891"/>
      <use xlink:href="#DejaVuSans-2e" x="185.189453"/>
      <use xlink:href="#DejaVuSans-20" x="216.976562"/>
      <use xlink:href="#DejaVuSans-55" x="248.763672"/>
      <use xlink:href="#DejaVuSans-4c" x="321.957031"/>
      <use xlink:href="#DejaVuSans-20" x="377.669922"/>
      <use xlink:href="#DejaVuSans-55" x="409.457031"/>
      <use xlink:href="#DejaVuSans-73" x="482.650391"/>
      <use xlink:href="#DejaVuSans-65" x="534.75"/>
     </g>
    </g>
   </g>
  </g>
  <g id="axes_3">
   <g id="patch_8">
    <path d="M 38.64 351.712 
L 493.2 351.712 
L 493.2 293.904 
L 38.64 293.904 
z
" style="fill: #ffffff"/>
   </g>
   <g id="matplotlib.axis_5">
    <g id="xtick_13">
     <g id="line2d_26">
      <g>
       <use xlink:href="#m16470562d4" x="47.381538" y="356.712" style="stroke: #000000; stroke-width: 0.8"/>
      </g>
     </g>
     <g id="text_23">
      <!-- 0 -->
      <g transform="translate(44.200288 371.310438) scale(0.1 -0.1)">
       <use xlink:href="#DejaVuSans-30"/>
      </g>
     </g>
    </g>
    <g id="xtick_14">
     <g id="line2d_27">
      <g>
       <use xlink:href="#m16470562d4" x="134.796923" y="356.712" style="stroke: #000000; stroke-width: 0.8"/>
      </g>
     </g>
     <g id="text_24">
      <!-- 2 -->
      <g transform="translate(131.615673 371.310438) scale(0.1 -0.1)">
       <use xlink:href="#DejaVuSans-32"/>
      </g>
     </g>
    </g>
    <g id="xtick_15">
     <g id="line2d_28">
      <g>
       <use xlink:href="#m16470562d4" x="222.212308" y="356.712" style="stroke: #000000; stroke-width: 0.8"/>
      </g>
     </g>
     <g id="text_25">
      <!-- 4 -->
      <g transform="translate(219.031058 371.310438) scale(0.1 -0.1)">
       <use xlink:href="#DejaVuSans-34"/>
      </g>
     </g>
    </g>
    <g id="xtick_16">
     <g id="line2d_29">
      <g>
       <use xlink:href="#m16470562d4" x="309.627692" y="356.712" style="stroke: #000000; stroke-width: 0.8"/>
      </g>
     </g>
     <g id="text_26">
      <!-- 6 -->
      <g transform="translate(306.446442 371.310438) scale(0.1 -0.1)">
       <use xlink:href="#DejaVuSans-36"/>
      </g>
     </g>
    </g>
    <g id="xtick_17">
     <g id="line2d_30">
      <g>
       <use xlink:href="#m16470562d4" x="397.043077" y="356.712" style="stroke: #000000; stroke-width: 0.8"/>
      </g>
     </g>
     <g id="text_27">
      <!-- 8 -->
      <g transform="translate(393.861827 371.310438) scale(0.1 -0.1)">
       <use xlink:href="#DejaVuSans-38"/>
      </g>
     </g>
    </g>
    <g id="xtick_18">
     <g id="line2d_31">
      <g>
       <use xlink:href="#m16470562d4" x="484.458462" y="356.712" style="stroke: #000000; stroke-width: 0.8"/>
      </g>
     </g>
     <g id="text_28">
      <!-- 10 -->
      <g transform="translate(478.095962 371.310438) scale(0.1 -0.1)">
       <use xlink:href="#DejaVuSans-31"/>
       <use xlink:href="#DejaVuSans-30" x="63.623047"/>
      </g>
     </g>
    </g>
   </g>
   <g id="matplotlib.axis_6">
    <g id="ytick_7">
     <g id="line2d_32">
      <g>
       <use xlink:href="#mfd8c4aacb2" x="33.64" y="349.084364" style="stroke: #000000; stroke-width: 0.8"/>
      </g>
     </g>
     <g id="text_29">
      <!-- 0 -->
      <g transform="translate(20.2775 352.883582) scale(0.1 -0.1)">
       <use xlink:href="#DejaVuSans-30"/>
      </g>
     </g>
    </g>
    <g id="ytick_8">
     <g id="line2d_33">
      <g>
       <use xlink:href="#mfd8c4aacb2" x="33.64" y="313.333464" style="stroke: #000000; stroke-width: 0.8"/>
      </g>
     </g>
     <g id="text_30">
      <!-- 10 -->
      <g transform="translate(13.915 317.132683) scale(0.1 -0.1)">
       <use xlink:href="#DejaVuSans-31"/>
       <use xlink:href="#DejaVuSans-30" x="63.623047"/>
      </g>
     </g>
    </g>
   </g>
   <g id="line2d_34">
    <path d="M 47.381538 349.084364 
L 47.818615 321.906774 
L 48.255692 334.446494 
L 48.692769 335.374205 
L 49.129846 343.129013 
L 49.566923 336.49661 
L 50.004 333.655359 
L 50.441077 321.609386 
L 50.878154 329.169141 
L 51.315231 314.147326 
L 51.752308 317.911703 
L 52.189385 338.380552 
L 52.626462 345.397933 
L 53.500615 313.218947 
L 53.937692 313.743808 
L 54.374769 345.284375 
L 54.811846 327.339015 
L 55.248923 337.166383 
L 55.686 332.492424 
L 56.123077 341.42672 
L 56.560154 319.755317 
L 56.997231 339.563734 
L 57.434308 314.072134 
L 57.871385 320.383257 
L 58.308462 307.079838 
L 58.745538 306.251105 
L 59.182615 313.891177 
L 59.619692 339.506295 
L 60.056769 316.931224 
L 60.493846 311.304541 
L 60.930923 330.997402 
L 61.368 338.246645 
L 61.805077 331.436313 
L 62.242154 313.792029 
L 62.679231 323.37141 
L 63.116308 306.687396 
L 63.553385 336.135869 
L 63.990462 341.343877 
L 64.427538 327.979327 
L 64.864615 349.084364 
L 65.301692 349.084364 
L 65.738769 317.170744 
L 66.175846 334.445034 
L 66.612923 300.996628 
L 67.05 349.084364 
L 67.487077 313.14072 
L 67.924154 326.00182 
L 68.361231 320.313305 
L 68.798308 308.207276 
L 69.235385 331.367365 
L 69.672462 330.736649 
L 70.109538 305.048039 
L 70.546615 333.867474 
L 70.983692 298.470008 
L 71.420769 307.650875 
L 71.857846 321.828579 
L 72.294923 326.758338 
L 72.732 302.87832 
L 73.169077 334.917564 
L 73.606154 327.183812 
L 74.043231 306.813823 
L 74.480308 349.084364 
L 74.917385 311.964058 
L 75.791538 343.40277 
L 76.228615 308.181879 
L 76.665692 301.858545 
L 77.102769 323.260061 
L 77.539846 314.406895 
L 77.976923 330.966013 
L 78.414 302.513883 
L 78.851077 325.927384 
L 79.288154 319.557198 
L 79.725231 349.084364 
L 80.162308 349.084364 
L 80.599385 296.531636 
L 81.036462 299.513929 
L 81.473538 329.63023 
L 81.910615 308.95392 
L 82.347692 328.991416 
L 82.784769 305.559213 
L 83.221846 313.407227 
L 83.658923 349.084364 
L 84.096 303.616497 
L 84.533077 299.5566 
L 84.970154 302.145267 
L 85.407231 305.714107 
L 85.844308 301.026426 
L 86.281385 319.491031 
L 86.718462 310.557972 
L 87.155538 330.598145 
L 87.592615 325.316476 
L 88.029692 325.794993 
L 88.466769 303.108402 
L 88.903846 306.347288 
L 89.340923 320.549975 
L 89.778 326.074771 
L 90.215077 324.878087 
L 90.652154 297.308331 
L 91.089231 340.490389 
L 91.526308 321.422759 
L 91.963385 336.456522 
L 92.400462 331.762828 
L 92.837538 332.041068 
L 93.274615 345.374274 
L 93.711692 311.067268 
L 94.148769 335.751645 
L 94.585846 331.337112 
L 95.022923 339.238581 
L 95.46 345.007241 
L 95.897077 342.077326 
L 96.334154 327.548641 
L 96.771231 322.970534 
L 97.208308 330.894473 
L 97.645385 308.44288 
L 98.082462 335.517321 
L 98.519538 317.444603 
L 98.956615 336.353423 
L 99.393692 345.484967 
L 99.830769 305.104713 
L 100.267846 305.58781 
L 100.704923 318.318824 
L 101.142 320.664753 
L 101.579077 307.975305 
L 102.016154 309.492147 
L 102.453231 315.244804 
L 102.890308 326.628181 
L 103.327385 309.963894 
L 103.764462 318.5146 
L 104.201538 334.255681 
L 104.638615 334.641246 
L 105.075692 316.897575 
L 105.512769 327.841517 
L 105.949846 333.536078 
L 106.386923 313.308965 
L 106.824 328.915685 
L 107.261077 324.415487 
L 107.698154 334.941207 
L 108.135231 333.821357 
L 108.572308 327.649508 
L 109.009385 323.398472 
L 109.446462 328.488908 
L 109.883538 349.084364 
L 110.757692 349.084364 
L 111.194769 324.856919 
L 111.631846 343.919957 
L 112.068923 349.084364 
L 112.943077 349.084364 
L 113.380154 322.974143 
L 114.254308 349.084364 
L 114.691385 320.313723 
L 115.128462 331.420764 
L 115.565538 336.771648 
L 116.002615 326.119155 
L 116.439692 325.619281 
L 117.313846 337.592433 
L 117.750923 333.840697 
L 118.188 331.582946 
L 118.625077 349.084364 
L 120.810462 349.084364 
L 121.247538 333.875353 
L 121.684615 344.221121 
L 122.121692 338.040229 
L 122.558769 329.66351 
L 122.995846 342.35908 
L 123.432923 340.654363 
L 124.307077 329.366503 
L 124.744154 333.422704 
L 125.181231 344.928281 
L 125.618308 332.996299 
L 126.055385 330.925554 
L 126.492462 344.816375 
L 126.929538 343.938207 
L 127.366615 349.084364 
L 128.240769 349.084364 
L 128.677846 332.124228 
L 129.114923 345.418104 
L 129.552 342.27992 
L 130.426154 338.358177 
L 130.863231 336.885503 
L 131.300308 349.084364 
L 178.504615 349.084364 
L 178.941692 334.057258 
L 179.378769 334.29464 
L 179.815846 345.100431 
L 180.252923 334.461126 
L 180.69 342.56357 
L 181.127077 333.559858 
L 182.001231 344.968601 
L 182.438308 343.489256 
L 182.875385 335.77979 
L 183.312462 335.358848 
L 183.749538 334.703746 
L 184.186615 349.084364 
L 184.623692 333.391024 
L 185.060769 343.36958 
L 185.497846 335.553279 
L 185.934923 340.808988 
L 186.372 349.084364 
L 187.683231 349.084364 
L 188.120308 332.810015 
L 188.557385 336.057778 
L 188.994462 335.872626 
L 189.431538 349.084364 
L 190.742769 349.084364 
L 191.179846 326.959928 
L 191.616923 340.897558 
L 192.054 342.277384 
L 192.491077 328.7804 
L 192.928154 333.963312 
L 193.365231 335.15489 
L 193.802308 340.475469 
L 194.239385 327.05871 
L 194.676462 336.7778 
L 195.113538 343.057904 
L 195.550615 332.197052 
L 195.987692 339.586082 
L 196.424769 333.661103 
L 196.861846 338.57702 
L 197.298923 327.741665 
L 197.736 342.819377 
L 198.173077 342.478095 
L 198.610154 338.279061 
L 199.047231 325.278292 
L 199.484308 333.177599 
L 199.921385 322.753443 
L 200.358462 326.274391 
L 200.795538 341.634104 
L 201.232615 334.855749 
L 201.669692 344.122786 
L 202.106769 343.80437 
L 202.543846 320.560923 
L 202.980923 327.772546 
L 203.418 322.960468 
L 203.855077 320.460843 
L 204.292154 319.306342 
L 204.729231 325.48161 
L 205.166308 343.754265 
L 205.603385 343.974546 
L 206.040462 319.924921 
L 206.477538 339.947292 
L 206.914615 349.084364 
L 207.351692 332.417359 
L 207.788769 336.752847 
L 208.225846 349.084364 
L 208.662923 349.084364 
L 209.1 320.73671 
L 209.537077 330.8497 
L 209.974154 333.340145 
L 210.411231 339.184012 
L 210.848308 349.084364 
L 211.285385 328.217287 
L 211.722462 349.084364 
L 212.159538 334.452757 
L 212.596615 324.439471 
L 213.033692 334.816872 
L 213.470769 327.645512 
L 213.907846 338.522823 
L 214.344923 339.545892 
L 214.782 337.260437 
L 215.219077 326.786822 
L 215.656154 329.76576 
L 216.530308 323.528313 
L 216.967385 338.893287 
L 217.841538 324.493991 
L 218.278615 322.05309 
L 218.715692 329.934052 
L 219.152769 329.400324 
L 219.589846 349.084364 
L 220.026923 329.798256 
L 220.464 321.877974 
L 220.901077 330.202205 
L 221.338154 323.613936 
L 221.775231 327.067595 
L 222.649385 318.096017 
L 223.086462 329.762022 
L 223.523538 349.084364 
L 223.960615 326.914773 
L 224.397692 327.900682 
L 224.834769 333.206738 
L 225.271846 349.084364 
L 226.146 349.084364 
L 226.583077 330.704332 
L 227.457231 340.266462 
L 227.894308 322.661651 
L 228.331385 349.084364 
L 228.768462 349.084364 
L 229.205538 331.09866 
L 229.642615 331.153166 
L 230.079692 332.95925 
L 230.953846 349.084364 
L 231.390923 330.319638 
L 231.828 333.620474 
L 232.265077 324.560733 
L 232.702154 349.084364 
L 233.139231 349.084364 
L 233.576308 332.573567 
L 234.013385 343.781053 
L 234.450462 337.742433 
L 234.887538 339.988105 
L 235.324615 336.644591 
L 235.761692 349.084364 
L 236.635846 349.084364 
L 237.072923 326.980178 
L 237.51 328.632504 
L 237.947077 333.415616 
L 238.384154 342.623552 
L 238.821231 332.376378 
L 239.695385 333.376399 
L 240.132462 349.084364 
L 240.569538 334.35807 
L 241.006615 349.084364 
L 244.066154 349.084364 
L 244.503231 332.56323 
L 244.940308 349.084364 
L 354.646615 349.084364 
L 355.083692 334.298993 
L 355.520769 340.453552 
L 355.957846 336.321876 
L 356.394923 339.333426 
L 356.832 341.2173 
L 357.269077 341.478498 
L 357.706154 349.084364 
L 479.213538 349.084364 
L 479.650615 334.011794 
L 480.087692 342.098433 
L 480.524769 343.424866 
L 480.961846 339.862565 
L 481.398923 341.967203 
L 481.836 341.559142 
L 482.273077 338.266807 
L 482.710154 341.293195 
L 483.147231 335.141839 
L 483.584308 332.18612 
L 484.021385 337.310233 
L 484.021385 337.310233 
" clip-path="url(#pb53d329848)" style="fill: none; stroke: #000000; stroke-opacity: 0.25; stroke-linecap: square"/>
   </g>
   <g id="line2d_35">
    <path d="M 47.381538 349.084364 
L 49.566923 334.270619 
L 51.752308 328.784601 
L 53.937692 328.396092 
L 56.123077 330.482515 
L 58.308462 328.420183 
L 60.493846 325.081433 
L 62.679231 325.935468 
L 64.864615 325.934909 
L 67.05 322.333695 
L 69.235385 322.250796 
L 71.420769 321.700282 
L 73.606154 320.596774 
L 75.791538 319.631743 
L 82.347692 317.944336 
L 84.533077 314.445158 
L 86.718462 311.425788 
L 88.903846 311.993602 
L 91.089231 313.54843 
L 93.274615 317.858277 
L 95.46 322.754438 
L 97.645385 326.4744 
L 99.830769 328.423989 
L 102.016154 326.533481 
L 104.201538 324.035469 
L 106.386923 322.58841 
L 108.572308 323.300786 
L 110.757692 322.477364 
L 112.943077 326.381055 
L 115.128462 328.255533 
L 117.313846 329.98151 
L 119.499231 330.356506 
L 121.684615 332.103779 
L 123.87 333.2604 
L 126.055385 334.650517 
L 128.240769 336.86384 
L 130.426154 338.040433 
L 132.611538 337.864292 
L 134.796923 338.126912 
L 136.982308 340.501314 
L 139.167692 339.209322 
L 141.353077 336.885503 
L 143.538462 349.084364 
L 178.504615 349.084364 
L 180.69 338.095405 
L 182.875385 338.776272 
L 185.060769 338.184708 
L 187.246154 338.184262 
L 191.616923 337.066816 
L 193.802308 336.027177 
L 195.987692 335.781716 
L 198.173077 335.860208 
L 200.358462 334.464842 
L 202.543846 335.013879 
L 204.729231 332.427093 
L 206.914615 332.483367 
L 209.1 331.101385 
L 211.285385 331.907563 
L 213.470769 330.321775 
L 215.656154 333.116772 
L 217.841538 331.369486 
L 220.026923 330.910818 
L 222.212308 329.286757 
L 224.397692 328.474535 
L 226.583077 327.347182 
L 228.768462 327.828717 
L 233.139231 330.651262 
L 235.324615 334.028026 
L 237.51 333.539886 
L 239.695385 334.048345 
L 241.880769 333.996244 
L 244.066154 335.033774 
L 246.251538 333.030283 
L 248.436923 334.522838 
L 250.622308 333.46065 
L 252.807692 332.56323 
L 254.993077 332.56323 
L 257.178462 349.084364 
L 353.335385 349.084364 
L 355.520769 337.376272 
L 357.706154 338.850608 
L 364.262308 338.850608 
L 366.447692 339.587775 
L 368.633077 349.084364 
L 477.902308 349.084364 
L 480.087692 338.055114 
L 482.273077 340.170116 
L 482.273077 340.170116 
" clip-path="url(#pb53d329848)" style="fill: none; stroke: #000000; stroke-linecap: square"/>
   </g>
   <g id="patch_9">
    <path d="M 33.64 351.712 
L 33.64 293.904 
" style="fill: none; stroke: #7f7f7f; stroke-width: 0.8; stroke-linejoin: miter; stroke-linecap: square"/>
   </g>
   <g id="patch_10">
    <path d="M 38.64 356.712 
L 493.2 356.712 
" style="fill: none; stroke: #7f7f7f; stroke-width: 0.8; stroke-linejoin: miter; stroke-linecap: square"/>
   </g>
   <g id="text_31">
    <!-- Instantaneous and Average intensity of use from u2 -->
    <g transform="translate(122.990469 287.904) scale(0.11 -0.11)">
     <use xlink:href="#DejaVuSans-49"/>
     <use xlink:href="#DejaVuSans-6e" x="29.492188"/>
     <use xlink:href="#DejaVuSans-73" x="92.871094"/>
     <use xlink:href="#DejaVuSans-74" x="144.970703"/>
     <use xlink:href="#DejaVuSans-61" x="184.179688"/>
     <use xlink:href="#DejaVuSans-6e" x="245.458984"/>
     <use xlink:href="#DejaVuSans-74" x="308.837891"/>
     <use xlink:href="#DejaVuSans-61" x="348.046875"/>
     <use xlink:href="#DejaVuSans-6e" x="409.326172"/>
     <use xlink:href="#DejaVuSans-65" x="472.705078"/>
     <use xlink:href="#DejaVuSans-6f" x="534.228516"/>
     <use xlink:href="#DejaVuSans-75" x="595.410156"/>
     <use xlink:href="#DejaVuSans-73" x="658.789062"/>
     <use xlink:href="#DejaVuSans-20" x="710.888672"/>
     <use xlink:href="#DejaVuSans-61" x="742.675781"/>
     <use xlink:href="#DejaVuSans-6e" x="803.955078"/>
     <use xlink:href="#DejaVuSans-64" x="867.333984"/>
     <use xlink:href="#DejaVuSans-20" x="930.810547"/>
     <use xlink:href="#DejaVuSans-41" x="962.597656"/>
     <use xlink:href="#DejaVuSans-76" x="1025.130859"/>
     <use xlink:href="#DejaVuSans-65" x="1084.310547"/>
     <use xlink:href="#DejaVuSans-72" x="1145.833984"/>
     <use xlink:href="#DejaVuSans-61" x="1186.947266"/>
     <use xlink:href="#DejaVuSans-67" x="1248.226562"/>
     <use xlink:href="#DejaVuSans-65" x="1311.703125"/>
     <use xlink:href="#DejaVuSans-20" x="1373.226562"/>
     <use xlink:href="#DejaVuSans-69" x="1405.013672"/>
     <use xlink:href="#DejaVuSans-6e" x="1432.796875"/>
     <use xlink:href="#DejaVuSans-74" x="1496.175781"/>
     <use xlink:href="#DejaVuSans-65" x="1535.384766"/>
     <use xlink:href="#DejaVuSans-6e" x="1596.908203"/>
     <use xlink:href="#DejaVuSans-73" x="1660.287109"/>
     <use xlink:href="#DejaVuSans-69" x="1712.386719"/>
     <use xlink:href="#DejaVuSans-74" x="1740.169922"/>
     <use xlink:href="#DejaVuSans-79" x="1779.378906"/>
     <use xlink:href="#DejaVuSans-20" x="1838.558594"/>
     <use xlink:href="#DejaVuSans-6f" x="1870.345703"/>
     <use xlink:href="#DejaVuSans-66" x="1931.527344"/>
     <use xlink:href="#DejaVuSans-20" x="1966.732422"/>
     <use xlink:href="#DejaVuSans-75" x="1998.519531"/>
     <use xlink:href="#DejaVuSans-73" x="2061.898438"/>
     <use xlink:href="#DejaVuSans-65" x="2113.998047"/>
     <use xlink:href="#DejaVuSans-20" x="2175.521484"/>
     <use xlink:href="#DejaVuSans-66" x="2207.308594"/>
     <use xlink:href="#DejaVuSans-72" x="2242.513672"/>
     <use xlink:href="#DejaVuSans-6f" x="2281.376953"/>
     <use xlink:href="#DejaVuSans-6d" x="2342.558594"/>
     <use xlink:href="#DejaVuSans-20" x="2439.970703"/>
     <use xlink:href="#DejaVuSans-75" x="2471.757812"/>
     <use xlink:href="#DejaVuSans-32" x="2535.136719"/>
    </g>
   </g>
   <g id="legend_2">
    <g id="line2d_36">
     <path d="M 387.798437 307.002438 
L 397.798437 307.002438 
L 407.798437 307.002438 
" style="fill: none; stroke: #000000; stroke-opacity: 0.25; stroke-linecap: square"/>
    </g>
    <g id="text_32">
     <!-- Inst. Intensity -->
     <g transform="translate(415.798437 310.502438) scale(0.1 -0.1)">
      <use xlink:href="#DejaVuSans-49"/>
      <use xlink:href="#DejaVuSans-6e" x="29.492188"/>
      <use xlink:href="#DejaVuSans-73" x="92.871094"/>
      <use xlink:href="#DejaVuSans-74" x="144.970703"/>
      <use xlink:href="#DejaVuSans-2e" x="184.179688"/>
      <use xlink:href="#DejaVuSans-20" x="215.966797"/>
      <use xlink:href="#DejaVuSans-49" x="247.753906"/>
      <use xlink:href="#DejaVuSans-6e" x="277.246094"/>
      <use xlink:href="#DejaVuSans-74" x="340.625"/>
      <use xlink:href="#DejaVuSans-65" x="379.833984"/>
      <use xlink:href="#DejaVuSans-6e" x="441.357422"/>
      <use xlink:href="#DejaVuSans-73" x="504.736328"/>
      <use xlink:href="#DejaVuSans-69" x="556.835938"/>
      <use xlink:href="#DejaVuSans-74" x="584.619141"/>
      <use xlink:href="#DejaVuSans-79" x="623.828125"/>
     </g>
    </g>
    <g id="line2d_37">
     <path d="M 387.798437 321.680563 
L 397.798437 321.680563 
L 407.798437 321.680563 
" style="fill: none; stroke: #000000; stroke-linecap: square"/>
    </g>
    <g id="text_33">
     <!-- Avg. Intensity -->
     <g transform="translate(415.798437 325.180563) scale(0.1 -0.1)">
      <use xlink:href="#DejaVuSans-41"/>
      <use xlink:href="#DejaVuSans-76" x="62.533203"/>
      <use xlink:href="#DejaVuSans-67" x="121.712891"/>
      <use xlink:href="#DejaVuSans-2e" x="185.189453"/>
      <use xlink:href="#DejaVuSans-20" x="216.976562"/>
      <use xlink:href="#DejaVuSans-49" x="248.763672"/>
      <use xlink:href="#DejaVuSans-6e" x="278.255859"/>
      <use xlink:href="#DejaVuSans-74" x="341.634766"/>
      <use xlink:href="#DejaVuSans-65" x="380.84375"/>
      <use xlink:href="#DejaVuSans-6e" x="442.367188"/>
      <use xlink:href="#DejaVuSans-73" x="505.746094"/>
      <use xlink:href="#DejaVuSans-69" x="557.845703"/>
      <use xlink:href="#DejaVuSans-74" x="585.628906"/>
      <use xlink:href="#DejaVuSans-79" x="624.837891"/>
     </g>
    </g>
   </g>
  </g>
  <g id="axes_4">
   <g id="patch_11">
    <path d="M 38.64 457.04 
L 493.2 457.04 
L 493.2 399.232 
L 38.64 399.232 
z
" style="fill: #ffffff"/>
   </g>
   <g id="matplotlib.axis_7">
    <g id="xtick_19">
     <g id="line2d_38">
      <g>
       <use xlink:href="#m16470562d4" x="47.381538" y="462.04" style="stroke: #000000; stroke-width: 0.8"/>
      </g>
     </g>
     <g id="text_34">
      <!-- 0 -->
      <g transform="translate(44.200288 476.638438) scale(0.1 -0.1)">
       <use xlink:href="#DejaVuSans-30"/>
      </g>
     </g>
    </g>
    <g id="xtick_20">
     <g id="line2d_39">
      <g>
       <use xlink:href="#m16470562d4" x="134.796923" y="462.04" style="stroke: #000000; stroke-width: 0.8"/>
      </g>
     </g>
     <g id="text_35">
      <!-- 2 -->
      <g transform="translate(131.615673 476.638438) scale(0.1 -0.1)">
       <use xlink:href="#DejaVuSans-32"/>
      </g>
     </g>
    </g>
    <g id="xtick_21">
     <g id="line2d_40">
      <g>
       <use xlink:href="#m16470562d4" x="222.212308" y="462.04" style="stroke: #000000; stroke-width: 0.8"/>
      </g>
     </g>
     <g id="text_36">
      <!-- 4 -->
      <g transform="translate(219.031058 476.638438) scale(0.1 -0.1)">
       <use xlink:href="#DejaVuSans-34"/>
      </g>
     </g>
    </g>
    <g id="xtick_22">
     <g id="line2d_41">
      <g>
       <use xlink:href="#m16470562d4" x="309.627692" y="462.04" style="stroke: #000000; stroke-width: 0.8"/>
      </g>
     </g>
     <g id="text_37">
      <!-- 6 -->
      <g transform="translate(306.446442 476.638438) scale(0.1 -0.1)">
       <use xlink:href="#DejaVuSans-36"/>
      </g>
     </g>
    </g>
    <g id="xtick_23">
     <g id="line2d_42">
      <g>
       <use xlink:href="#m16470562d4" x="397.043077" y="462.04" style="stroke: #000000; stroke-width: 0.8"/>
      </g>
     </g>
     <g id="text_38">
      <!-- 8 -->
      <g transform="translate(393.861827 476.638438) scale(0.1 -0.1)">
       <use xlink:href="#DejaVuSans-38"/>
      </g>
     </g>
    </g>
    <g id="xtick_24">
     <g id="line2d_43">
      <g>
       <use xlink:href="#m16470562d4" x="484.458462" y="462.04" style="stroke: #000000; stroke-width: 0.8"/>
      </g>
     </g>
     <g id="text_39">
      <!-- 10 -->
      <g transform="translate(478.095962 476.638438) scale(0.1 -0.1)">
       <use xlink:href="#DejaVuSans-31"/>
       <use xlink:href="#DejaVuSans-30" x="63.623047"/>
      </g>
     </g>
    </g>
    <g id="text_40">
     <!-- Time (s) -->
     <g transform="translate(245.591094 490.316563) scale(0.1 -0.1)">
      <defs>
       <path id="DejaVuSans-54" d="M -19 4666 
L 3928 4666 
L 3928 4134 
L 2272 4134 
L 2272 0 
L 1638 0 
L 1638 4134 
L -19 4134 
L -19 4666 
z
" transform="scale(0.015625)"/>
       <path id="DejaVuSans-28" d="M 1984 4856 
Q 1566 4138 1362 3434 
Q 1159 2731 1159 2009 
Q 1159 1288 1364 580 
Q 1569 -128 1984 -844 
L 1484 -844 
Q 1016 -109 783 600 
Q 550 1309 550 2009 
Q 550 2706 781 3412 
Q 1013 4119 1484 4856 
L 1984 4856 
z
" transform="scale(0.015625)"/>
       <path id="DejaVuSans-29" d="M 513 4856 
L 1013 4856 
Q 1481 4119 1714 3412 
Q 1947 2706 1947 2009 
Q 1947 1309 1714 600 
Q 1481 -109 1013 -844 
L 513 -844 
Q 928 -128 1133 580 
Q 1338 1288 1338 2009 
Q 1338 2731 1133 3434 
Q 928 4138 513 4856 
z
" transform="scale(0.015625)"/>
      </defs>
      <use xlink:href="#DejaVuSans-54"/>
      <use xlink:href="#DejaVuSans-69" x="57.958984"/>
      <use xlink:href="#DejaVuSans-6d" x="85.742188"/>
      <use xlink:href="#DejaVuSans-65" x="183.154297"/>
      <use xlink:href="#DejaVuSans-20" x="244.677734"/>
      <use xlink:href="#DejaVuSans-28" x="276.464844"/>
      <use xlink:href="#DejaVuSans-73" x="315.478516"/>
      <use xlink:href="#DejaVuSans-29" x="367.578125"/>
     </g>
    </g>
   </g>
   <g id="matplotlib.axis_8">
    <g id="ytick_9">
     <g id="line2d_44">
      <g>
       <use xlink:href="#mfd8c4aacb2" x="33.64" y="454.412364" style="stroke: #000000; stroke-width: 0.8"/>
      </g>
     </g>
     <g id="text_41">
      <!-- 0 -->
      <g transform="translate(20.2775 458.211582) scale(0.1 -0.1)">
       <use xlink:href="#DejaVuSans-30"/>
      </g>
     </g>
    </g>
    <g id="ytick_10">
     <g id="line2d_45">
      <g>
       <use xlink:href="#mfd8c4aacb2" x="33.64" y="399.338788" style="stroke: #000000; stroke-width: 0.8"/>
      </g>
     </g>
     <g id="text_42">
      <!-- 10 -->
      <g transform="translate(13.915 403.138007) scale(0.1 -0.1)">
       <use xlink:href="#DejaVuSans-31"/>
       <use xlink:href="#DejaVuSans-30" x="63.623047"/>
      </g>
     </g>
    </g>
   </g>
   <g id="line2d_46">
    <path d="M 47.381538 454.412364 
L 49.566923 449.848306 
L 51.752308 441.903805 
L 53.937692 435.290432 
L 56.123077 431.48773 
L 58.308462 422.579589 
L 60.493846 417.436309 
L 64.864615 420.177524 
L 67.05 418.148539 
L 69.235385 418.036158 
L 71.420769 417.289869 
L 73.606154 415.793927 
L 75.791538 414.48571 
L 77.976923 410.042486 
L 80.162308 412.947014 
L 82.347692 412.198222 
L 84.533077 409.589097 
L 86.718462 403.361527 
L 88.903846 404.131269 
L 91.089231 401.859636 
L 93.274615 408.233303 
L 97.645385 419.582149 
L 99.830769 422.585453 
L 102.016154 419.673161 
L 104.201538 415.825022 
L 106.386923 413.595855 
L 108.572308 414.693256 
L 110.757692 418.343299 
L 112.943077 427.832114 
L 115.128462 431.310145 
L 117.313846 433.224506 
L 119.499231 437.10242 
L 121.684615 438.717404 
L 123.87 436.861275 
L 126.055385 437.513715 
L 128.240769 442.364055 
L 130.426154 441.482511 
L 132.611538 441.967664 
L 134.796923 445.634897 
L 136.982308 450.181316 
L 139.167692 450.761409 
L 141.353077 453.660679 
L 143.538462 454.412364 
L 178.504615 454.412364 
L 180.69 451.026708 
L 185.060769 445.009566 
L 187.246154 443.665869 
L 189.431538 441.04627 
L 191.616923 442.564171 
L 195.987692 440.477482 
L 198.173077 438.115117 
L 200.358462 434.593802 
L 202.543846 432.737052 
L 204.729231 428.752158 
L 206.914615 429.861787 
L 209.1 430.034222 
L 211.285385 432.185517 
L 213.470769 431.289638 
L 215.656154 434.734148 
L 217.841538 431.489242 
L 220.026923 429.775885 
L 222.212308 426.354357 
L 224.397692 425.203241 
L 226.583077 427.623794 
L 228.768462 430.836744 
L 230.953846 432.448148 
L 233.139231 436.239026 
L 235.324615 438.640444 
L 237.51 438.129104 
L 239.695385 436.808713 
L 241.880769 439.53687 
L 244.066154 443.157138 
L 246.251538 445.509202 
L 248.436923 448.131473 
L 250.622308 452.486921 
L 252.807692 453.394344 
L 254.993077 453.394344 
L 257.178462 454.412364 
L 353.335385 454.412364 
L 355.520769 452.969476 
L 357.706154 450.628786 
L 364.262308 450.628786 
L 366.447692 452.071674 
L 368.633077 454.412364 
L 477.902308 454.412364 
L 480.087692 453.053136 
L 482.273077 450.56734 
L 482.273077 450.56734 
" clip-path="url(#p046cf6469a)" style="fill: none; stroke: #000000; stroke-width: 3; stroke-linecap: square"/>
   </g>
   <g id="line2d_47">
    <path d="M 47.381538 454.412364 
L 49.566923 449.848306 
L 51.752308 441.903805 
L 53.937692 435.290432 
L 56.123077 431.48773 
L 58.308462 422.579589 
L 60.493846 417.436309 
L 64.864615 420.177524 
L 67.05 418.148539 
L 69.235385 418.036158 
L 71.420769 417.289869 
L 73.606154 415.793927 
L 75.791538 414.48571 
L 77.976923 410.042486 
L 80.162308 412.947014 
L 82.347692 412.198222 
L 84.533077 409.589097 
L 86.718462 403.361527 
L 88.903846 404.131269 
L 91.089231 401.859636 
L 93.274615 408.233303 
L 97.645385 419.582149 
L 99.830769 422.585453 
L 102.016154 419.673161 
L 104.201538 415.825022 
L 106.386923 413.595855 
L 108.572308 414.693256 
L 110.757692 418.343299 
L 112.943077 427.832114 
L 115.128462 431.310145 
L 117.313846 433.224506 
L 119.499231 437.10242 
L 121.684615 438.717404 
L 123.87 436.861275 
L 126.055385 437.513715 
L 128.240769 442.364055 
L 130.426154 441.482511 
L 132.611538 441.967664 
L 134.796923 445.634897 
L 136.982308 450.181316 
L 139.167692 450.761409 
L 141.353077 453.660679 
L 143.538462 454.412364 
L 178.504615 454.412364 
L 180.69 451.026708 
L 185.060769 445.009566 
L 187.246154 443.665869 
L 189.431538 441.04627 
L 191.616923 442.564171 
L 195.987692 440.477482 
L 198.173077 438.115117 
L 200.358462 434.593802 
L 202.543846 432.737052 
L 204.729231 428.752158 
L 206.914615 429.861787 
L 209.1 430.034222 
L 211.285385 432.185517 
L 213.470769 431.289638 
L 215.656154 434.734148 
L 217.841538 431.489242 
L 220.026923 429.775885 
L 222.212308 426.354357 
L 224.397692 425.203241 
L 226.583077 427.623794 
L 228.768462 430.836744 
L 230.953846 432.448148 
L 233.139231 436.239026 
L 235.324615 438.640444 
L 237.51 438.129104 
L 239.695385 436.808713 
L 241.880769 439.53687 
L 244.066154 443.157138 
L 246.251538 445.509202 
L 248.436923 448.131473 
L 250.622308 452.486921 
L 252.807692 453.394344 
L 254.993077 453.394344 
L 257.178462 454.412364 
L 353.335385 454.412364 
L 355.520769 452.969476 
L 357.706154 450.628786 
L 364.262308 450.628786 
L 366.447692 452.071674 
L 368.633077 454.412364 
L 477.902308 454.412364 
L 480.087692 453.053136 
L 482.273077 450.56734 
L 482.273077 450.56734 
" clip-path="url(#p046cf6469a)" style="fill: none; stroke: #ffff00; stroke-linecap: square"/>
   </g>
   <g id="patch_12">
    <path d="M 33.64 457.04 
L 33.64 399.232 
" style="fill: none; stroke: #7f7f7f; stroke-width: 0.8; stroke-linejoin: miter; stroke-linecap: square"/>
   </g>
   <g id="patch_13">
    <path d="M 38.64 462.04 
L 493.2 462.04 
" style="fill: none; stroke: #7f7f7f; stroke-width: 0.8; stroke-linejoin: miter; stroke-linecap: square"/>
   </g>
   <g id="text_43">
    <!-- Average UL Activity -->
    <g transform="translate(212.178984 393.232) scale(0.11 -0.11)">
     <use xlink:href="#DejaVuSans-41"/>
     <use xlink:href="#DejaVuSans-76" x="62.533203"/>
     <use xlink:href="#DejaVuSans-65" x="121.712891"/>
     <use xlink:href="#DejaVuSans-72" x="183.236328"/>
     <use xlink:href="#DejaVuSans-61" x="224.349609"/>
     <use xlink:href="#DejaVuSans-67" x="285.628906"/>
     <use xlink:href="#DejaVuSans-65" x="349.105469"/>
     <use xlink:href="#DejaVuSans-20" x="410.628906"/>
     <use xlink:href="#DejaVuSans-55" x="442.416016"/>
     <use xlink:href="#DejaVuSans-4c" x="515.609375"/>
     <use xlink:href="#DejaVuSans-20" x="571.322266"/>
     <use xlink:href="#DejaVuSans-41" x="603.109375"/>
     <use xlink:href="#DejaVuSans-63" x="669.767578"/>
     <use xlink:href="#DejaVuSans-74" x="724.748047"/>
     <use xlink:href="#DejaVuSans-69" x="763.957031"/>
     <use xlink:href="#DejaVuSans-76" x="791.740234"/>
     <use xlink:href="#DejaVuSans-69" x="850.919922"/>
     <use xlink:href="#DejaVuSans-74" x="878.703125"/>
     <use xlink:href="#DejaVuSans-79" x="917.912109"/>
    </g>
   </g>
   <g id="legend_3">
    <g id="line2d_48">
     <path d="M 293.653125 412.330438 
L 303.653125 412.330438 
L 313.653125 412.330438 
" style="fill: none; stroke: #000000; stroke-width: 3; stroke-linecap: square"/>
    </g>
    <g id="text_44">
     <!-- Moving avg. of int. of use -->
     <g transform="translate(321.653125 415.830438) scale(0.1 -0.1)">
      <defs>
       <path id="DejaVuSans-4d" d="M 628 4666 
L 1569 4666 
L 2759 1491 
L 3956 4666 
L 4897 4666 
L 4897 0 
L 4281 0 
L 4281 4097 
L 3078 897 
L 2444 897 
L 1241 4097 
L 1241 0 
L 628 0 
L 628 4666 
z
" transform="scale(0.015625)"/>
      </defs>
      <use xlink:href="#DejaVuSans-4d"/>
      <use xlink:href="#DejaVuSans-6f" x="86.279297"/>
      <use xlink:href="#DejaVuSans-76" x="147.460938"/>
      <use xlink:href="#DejaVuSans-69" x="206.640625"/>
      <use xlink:href="#DejaVuSans-6e" x="234.423828"/>
      <use xlink:href="#DejaVuSans-67" x="297.802734"/>
      <use xlink:href="#DejaVuSans-20" x="361.279297"/>
      <use xlink:href="#DejaVuSans-61" x="393.066406"/>
      <use xlink:href="#DejaVuSans-76" x="454.345703"/>
      <use xlink:href="#DejaVuSans-67" x="513.525391"/>
      <use xlink:href="#DejaVuSans-2e" x="577.001953"/>
      <use xlink:href="#DejaVuSans-20" x="608.789062"/>
      <use xlink:href="#DejaVuSans-6f" x="640.576172"/>
      <use xlink:href="#DejaVuSans-66" x="701.757812"/>
      <use xlink:href="#DejaVuSans-20" x="736.962891"/>
      <use xlink:href="#DejaVuSans-69" x="768.75"/>
      <use xlink:href="#DejaVuSans-6e" x="796.533203"/>
      <use xlink:href="#DejaVuSans-74" x="859.912109"/>
      <use xlink:href="#DejaVuSans-2e" x="899.121094"/>
      <use xlink:href="#DejaVuSans-20" x="930.908203"/>
      <use xlink:href="#DejaVuSans-6f" x="962.695312"/>
      <use xlink:href="#DejaVuSans-66" x="1023.876953"/>
      <use xlink:href="#DejaVuSans-20" x="1059.082031"/>
      <use xlink:href="#DejaVuSans-75" x="1090.869141"/>
      <use xlink:href="#DejaVuSans-73" x="1154.248047"/>
      <use xlink:href="#DejaVuSans-65" x="1206.347656"/>
     </g>
    </g>
    <g id="line2d_49">
     <path d="M 293.653125 427.008563 
L 303.653125 427.008563 
L 313.653125 427.008563 
" style="fill: none; stroke: #ffff00; stroke-linecap: square"/>
    </g>
    <g id="text_45">
     <!-- Product of avg. int. and avg. use -->
     <g transform="translate(321.653125 430.508563) scale(0.1 -0.1)">
      <defs>
       <path id="DejaVuSans-50" d="M 1259 4147 
L 1259 2394 
L 2053 2394 
Q 2494 2394 2734 2622 
Q 2975 2850 2975 3272 
Q 2975 3691 2734 3919 
Q 2494 4147 2053 4147 
L 1259 4147 
z
M 628 4666 
L 2053 4666 
Q 2838 4666 3239 4311 
Q 3641 3956 3641 3272 
Q 3641 2581 3239 2228 
Q 2838 1875 2053 1875 
L 1259 1875 
L 1259 0 
L 628 0 
L 628 4666 
z
" transform="scale(0.015625)"/>
      </defs>
      <use xlink:href="#DejaVuSans-50"/>
      <use xlink:href="#DejaVuSans-72" x="58.552734"/>
      <use xlink:href="#DejaVuSans-6f" x="97.416016"/>
      <use xlink:href="#DejaVuSans-64" x="158.597656"/>
      <use xlink:href="#DejaVuSans-75" x="222.074219"/>
      <use xlink:href="#DejaVuSans-63" x="285.453125"/>
      <use xlink:href="#DejaVuSans-74" x="340.433594"/>
      <use xlink:href="#DejaVuSans-20" x="379.642578"/>
      <use xlink:href="#DejaVuSans-6f" x="411.429688"/>
      <use xlink:href="#DejaVuSans-66" x="472.611328"/>
      <use xlink:href="#DejaVuSans-20" x="507.816406"/>
      <use xlink:href="#DejaVuSans-61" x="539.603516"/>
      <use xlink:href="#DejaVuSans-76" x="600.882812"/>
      <use xlink:href="#DejaVuSans-67" x="660.0625"/>
      <use xlink:href="#DejaVuSans-2e" x="723.539062"/>
      <use xlink:href="#DejaVuSans-20" x="755.326172"/>
      <use xlink:href="#DejaVuSans-69" x="787.113281"/>
      <use xlink:href="#DejaVuSans-6e" x="814.896484"/>
      <use xlink:href="#DejaVuSans-74" x="878.275391"/>
      <use xlink:href="#DejaVuSans-2e" x="917.484375"/>
      <use xlink:href="#DejaVuSans-20" x="949.271484"/>
      <use xlink:href="#DejaVuSans-61" x="981.058594"/>
      <use xlink:href="#DejaVuSans-6e" x="1042.337891"/>
      <use xlink:href="#DejaVuSans-64" x="1105.716797"/>
      <use xlink:href="#DejaVuSans-20" x="1169.193359"/>
      <use xlink:href="#DejaVuSans-61" x="1200.980469"/>
      <use xlink:href="#DejaVuSans-76" x="1262.259766"/>
      <use xlink:href="#DejaVuSans-67" x="1321.439453"/>
      <use xlink:href="#DejaVuSans-2e" x="1384.916016"/>
      <use xlink:href="#DejaVuSans-20" x="1416.703125"/>
      <use xlink:href="#DejaVuSans-75" x="1448.490234"/>
      <use xlink:href="#DejaVuSans-73" x="1511.869141"/>
      <use xlink:href="#DejaVuSans-65" x="1563.96875"/>
     </g>
    </g>
   </g>
  </g>
 </g>
 <defs>
  <clipPath id="pdeca64d6e5">
   <rect x="38.64" y="25.44" width="454.56" height="115.616"/>
  </clipPath>
  <clipPath id="p785fe137dc">
   <rect x="38.64" y="188.576" width="454.56" height="57.808"/>
  </clipPath>
  <clipPath id="pb53d329848">
   <rect x="38.64" y="293.904" width="454.56" height="57.808"/>
  </clipPath>
  <clipPath id="p046cf6469a">
   <rect x="38.64" y="399.232" width="454.56" height="57.808"/>
  </clipPath>
 </defs>
</svg>
