<?xml version="1.0" encoding="utf-8" standalone="no"?>
<!DOCTYPE svg PUBLIC "-//W3C//DTD SVG 1.1//EN"
  "http://www.w3.org/Graphics/SVG/1.1/DTD/svg11.dtd">
<svg xmlns:xlink="http://www.w3.org/1999/xlink" width="504pt" height="360pt" viewBox="0 0 504 360" xmlns="http://www.w3.org/2000/svg" version="1.1">
 <metadata>
  <rdf:RDF xmlns:dc="http://purl.org/dc/elements/1.1/" xmlns:cc="http://creativecommons.org/ns#" xmlns:rdf="http://www.w3.org/1999/02/22-rdf-syntax-ns#">
   <cc:Work>
    <dc:type rdf:resource="http://purl.org/dc/dcmitype/StillImage"/>
    <dc:date>2024-07-09T08:55:20.994147</dc:date>
    <dc:format>image/svg+xml</dc:format>
    <dc:creator>
     <cc:Agent>
      <dc:title>Matplotlib v3.6.1, https://matplotlib.org/</dc:title>
     </cc:Agent>
    </dc:creator>
   </cc:Work>
  </rdf:RDF>
 </metadata>
 <defs>
  <style type="text/css">*{stroke-linejoin: round; stroke-linecap: butt}</style>
 </defs>
 <g id="figure_1">
  <g id="patch_1">
   <path d="M 0 360 
L 504 360 
L 504 0 
L 0 0 
z
" style="fill: #ffffff"/>
  </g>
  <g id="axes_1">
   <g id="patch_2">
    <path d="M 35.49 121.72 
L 493.2 121.72 
L 493.2 25.44 
L 35.49 25.44 
z
" style="fill: #ffffff"/>
   </g>
   <g id="matplotlib.axis_1">
    <g id="xtick_1">
     <g id="line2d_1">
      <defs>
       <path id="m3af7fa0dd9" d="M 0 0 
L 0 3.5 
" style="stroke: #000000; stroke-width: 0.8"/>
      </defs>
      <g>
       <use xlink:href="#m3af7fa0dd9" x="44.292115" y="126.72" style="stroke: #000000; stroke-width: 0.8"/>
      </g>
     </g>
     <g id="text_1">
      <!-- 0 -->
      <g transform="translate(41.110865 141.318437) scale(0.1 -0.1)">
       <defs>
        <path id="DejaVuSans-30" d="M 2034 4250 
Q 1547 4250 1301 3770 
Q 1056 3291 1056 2328 
Q 1056 1369 1301 889 
Q 1547 409 2034 409 
Q 2525 409 2770 889 
Q 3016 1369 3016 2328 
Q 3016 3291 2770 3770 
Q 2525 4250 2034 4250 
z
M 2034 4750 
Q 2819 4750 3233 4129 
Q 3647 3509 3647 2328 
Q 3647 1150 3233 529 
Q 2819 -91 2034 -91 
Q 1250 -91 836 529 
Q 422 1150 422 2328 
Q 422 3509 836 4129 
Q 1250 4750 2034 4750 
z
" transform="scale(0.015625)"/>
       </defs>
       <use xlink:href="#DejaVuSans-30"/>
      </g>
     </g>
    </g>
    <g id="xtick_2">
     <g id="line2d_2">
      <g>
       <use xlink:href="#m3af7fa0dd9" x="132.313269" y="126.72" style="stroke: #000000; stroke-width: 0.8"/>
      </g>
     </g>
     <g id="text_2">
      <!-- 2 -->
      <g transform="translate(129.132019 141.318437) scale(0.1 -0.1)">
       <defs>
        <path id="DejaVuSans-32" d="M 1228 531 
L 3431 531 
L 3431 0 
L 469 0 
L 469 531 
Q 828 903 1448 1529 
Q 2069 2156 2228 2338 
Q 2531 2678 2651 2914 
Q 2772 3150 2772 3378 
Q 2772 3750 2511 3984 
Q 2250 4219 1831 4219 
Q 1534 4219 1204 4116 
Q 875 4013 500 3803 
L 500 4441 
Q 881 4594 1212 4672 
Q 1544 4750 1819 4750 
Q 2544 4750 2975 4387 
Q 3406 4025 3406 3419 
Q 3406 3131 3298 2873 
Q 3191 2616 2906 2266 
Q 2828 2175 2409 1742 
Q 1991 1309 1228 531 
z
" transform="scale(0.015625)"/>
       </defs>
       <use xlink:href="#DejaVuSans-32"/>
      </g>
     </g>
    </g>
    <g id="xtick_3">
     <g id="line2d_3">
      <g>
       <use xlink:href="#m3af7fa0dd9" x="220.334423" y="126.72" style="stroke: #000000; stroke-width: 0.8"/>
      </g>
     </g>
     <g id="text_3">
      <!-- 4 -->
      <g transform="translate(217.153173 141.318437) scale(0.1 -0.1)">
       <defs>
        <path id="DejaVuSans-34" d="M 2419 4116 
L 825 1625 
L 2419 1625 
L 2419 4116 
z
M 2253 4666 
L 3047 4666 
L 3047 1625 
L 3713 1625 
L 3713 1100 
L 3047 1100 
L 3047 0 
L 2419 0 
L 2419 1100 
L 313 1100 
L 313 1709 
L 2253 4666 
z
" transform="scale(0.015625)"/>
       </defs>
       <use xlink:href="#DejaVuSans-34"/>
      </g>
     </g>
    </g>
    <g id="xtick_4">
     <g id="line2d_4">
      <g>
       <use xlink:href="#m3af7fa0dd9" x="308.355577" y="126.72" style="stroke: #000000; stroke-width: 0.8"/>
      </g>
     </g>
     <g id="text_4">
      <!-- 6 -->
      <g transform="translate(305.174327 141.318437) scale(0.1 -0.1)">
       <defs>
        <path id="DejaVuSans-36" d="M 2113 2584 
Q 1688 2584 1439 2293 
Q 1191 2003 1191 1497 
Q 1191 994 1439 701 
Q 1688 409 2113 409 
Q 2538 409 2786 701 
Q 3034 994 3034 1497 
Q 3034 2003 2786 2293 
Q 2538 2584 2113 2584 
z
M 3366 4563 
L 3366 3988 
Q 3128 4100 2886 4159 
Q 2644 4219 2406 4219 
Q 1781 4219 1451 3797 
Q 1122 3375 1075 2522 
Q 1259 2794 1537 2939 
Q 1816 3084 2150 3084 
Q 2853 3084 3261 2657 
Q 3669 2231 3669 1497 
Q 3669 778 3244 343 
Q 2819 -91 2113 -91 
Q 1303 -91 875 529 
Q 447 1150 447 2328 
Q 447 3434 972 4092 
Q 1497 4750 2381 4750 
Q 2619 4750 2861 4703 
Q 3103 4656 3366 4563 
z
" transform="scale(0.015625)"/>
       </defs>
       <use xlink:href="#DejaVuSans-36"/>
      </g>
     </g>
    </g>
    <g id="xtick_5">
     <g id="line2d_5">
      <g>
       <use xlink:href="#m3af7fa0dd9" x="396.376731" y="126.72" style="stroke: #000000; stroke-width: 0.8"/>
      </g>
     </g>
     <g id="text_5">
      <!-- 8 -->
      <g transform="translate(393.195481 141.318437) scale(0.1 -0.1)">
       <defs>
        <path id="DejaVuSans-38" d="M 2034 2216 
Q 1584 2216 1326 1975 
Q 1069 1734 1069 1313 
Q 1069 891 1326 650 
Q 1584 409 2034 409 
Q 2484 409 2743 651 
Q 3003 894 3003 1313 
Q 3003 1734 2745 1975 
Q 2488 2216 2034 2216 
z
M 1403 2484 
Q 997 2584 770 2862 
Q 544 3141 544 3541 
Q 544 4100 942 4425 
Q 1341 4750 2034 4750 
Q 2731 4750 3128 4425 
Q 3525 4100 3525 3541 
Q 3525 3141 3298 2862 
Q 3072 2584 2669 2484 
Q 3125 2378 3379 2068 
Q 3634 1759 3634 1313 
Q 3634 634 3220 271 
Q 2806 -91 2034 -91 
Q 1263 -91 848 271 
Q 434 634 434 1313 
Q 434 1759 690 2068 
Q 947 2378 1403 2484 
z
M 1172 3481 
Q 1172 3119 1398 2916 
Q 1625 2713 2034 2713 
Q 2441 2713 2670 2916 
Q 2900 3119 2900 3481 
Q 2900 3844 2670 4047 
Q 2441 4250 2034 4250 
Q 1625 4250 1398 4047 
Q 1172 3844 1172 3481 
z
" transform="scale(0.015625)"/>
       </defs>
       <use xlink:href="#DejaVuSans-38"/>
      </g>
     </g>
    </g>
    <g id="xtick_6">
     <g id="line2d_6">
      <g>
       <use xlink:href="#m3af7fa0dd9" x="484.397885" y="126.72" style="stroke: #000000; stroke-width: 0.8"/>
      </g>
     </g>
     <g id="text_6">
      <!-- 10 -->
      <g transform="translate(478.035385 141.318437) scale(0.1 -0.1)">
       <defs>
        <path id="DejaVuSans-31" d="M 794 531 
L 1825 531 
L 1825 4091 
L 703 3866 
L 703 4441 
L 1819 4666 
L 2450 4666 
L 2450 531 
L 3481 531 
L 3481 0 
L 794 0 
L 794 531 
z
" transform="scale(0.015625)"/>
       </defs>
       <use xlink:href="#DejaVuSans-31"/>
       <use xlink:href="#DejaVuSans-30" x="63.623047"/>
      </g>
     </g>
    </g>
   </g>
   <g id="matplotlib.axis_2">
    <g id="ytick_1">
     <g id="line2d_7">
      <defs>
       <path id="mee997523db" d="M 0 0 
L -3.5 0 
" style="stroke: #000000; stroke-width: 0.8"/>
      </defs>
      <g>
       <use xlink:href="#mee997523db" x="30.49" y="117.343857" style="stroke: #000000; stroke-width: 0.8"/>
      </g>
     </g>
     <g id="text_7">
      <!-- 0 -->
      <g transform="translate(17.1275 121.143075) scale(0.1 -0.1)">
       <use xlink:href="#DejaVuSans-30"/>
      </g>
     </g>
    </g>
    <g id="ytick_2">
     <g id="line2d_8">
      <g>
       <use xlink:href="#mee997523db" x="30.49" y="88.550953" style="stroke: #000000; stroke-width: 0.8"/>
      </g>
     </g>
     <g id="text_8">
      <!-- 5 -->
      <g transform="translate(17.1275 92.350172) scale(0.1 -0.1)">
       <defs>
        <path id="DejaVuSans-35" d="M 691 4666 
L 3169 4666 
L 3169 4134 
L 1269 4134 
L 1269 2991 
Q 1406 3038 1543 3061 
Q 1681 3084 1819 3084 
Q 2600 3084 3056 2656 
Q 3513 2228 3513 1497 
Q 3513 744 3044 326 
Q 2575 -91 1722 -91 
Q 1428 -91 1123 -41 
Q 819 9 494 109 
L 494 744 
Q 775 591 1075 516 
Q 1375 441 1709 441 
Q 2250 441 2565 725 
Q 2881 1009 2881 1497 
Q 2881 1984 2565 2268 
Q 2250 2553 1709 2553 
Q 1456 2553 1204 2497 
Q 953 2441 691 2322 
L 691 4666 
z
" transform="scale(0.015625)"/>
       </defs>
       <use xlink:href="#DejaVuSans-35"/>
      </g>
     </g>
    </g>
    <g id="ytick_3">
     <g id="line2d_9">
      <g>
       <use xlink:href="#mee997523db" x="30.49" y="59.758049" style="stroke: #000000; stroke-width: 0.8"/>
      </g>
     </g>
     <g id="text_9">
      <!-- 10 -->
      <g transform="translate(10.765 63.557268) scale(0.1 -0.1)">
       <use xlink:href="#DejaVuSans-31"/>
       <use xlink:href="#DejaVuSans-30" x="63.623047"/>
      </g>
     </g>
    </g>
    <g id="ytick_4">
     <g id="line2d_10">
      <g>
       <use xlink:href="#mee997523db" x="30.49" y="30.965146" style="stroke: #000000; stroke-width: 0.8"/>
      </g>
     </g>
     <g id="text_10">
      <!-- 15 -->
      <g transform="translate(10.765 34.764364) scale(0.1 -0.1)">
       <use xlink:href="#DejaVuSans-31"/>
       <use xlink:href="#DejaVuSans-35" x="63.623047"/>
      </g>
     </g>
    </g>
   </g>
   <g id="line2d_11">
    <path d="M 44.292115 81.053009 
L 44.732221 69.422294 
L 45.172327 117.121509 
L 45.612433 116.753356 
L 46.052538 97.92225 
L 46.492644 104.999239 
L 46.93275 100.048896 
L 47.812962 66.138446 
L 48.253067 74.676548 
L 48.693173 93.434875 
L 49.133279 101.024611 
L 50.01349 63.557474 
L 50.453596 70.952021 
L 50.893702 114.797853 
L 51.333808 68.879074 
L 51.773913 110.452225 
L 52.214019 87.291545 
L 52.654125 96.462535 
L 53.094231 86.519275 
L 53.534337 52.156111 
L 53.974442 110.755565 
L 54.414548 97.111412 
L 54.854654 104.621009 
L 55.29476 115.715713 
L 55.734865 66.812163 
L 56.615077 97.09755 
L 57.055183 73.977595 
L 57.495288 89.979262 
L 57.935394 114.532838 
L 58.3755 56.230137 
L 59.255712 84.775003 
L 59.695817 80.91489 
L 60.135923 112.665735 
L 60.576029 41.14837 
L 61.016135 109.135673 
L 61.45624 62.608513 
L 61.896346 89.981334 
L 62.336452 75.909677 
L 62.776558 70.243747 
L 63.216663 73.086921 
L 63.656769 66.265895 
L 64.096875 40.899637 
L 64.536981 95.737969 
L 65.417192 44.458721 
L 65.857298 72.509898 
L 66.297404 36.501474 
L 66.73751 51.254587 
L 67.177615 114.206924 
L 67.617721 69.335109 
L 68.057827 102.312323 
L 68.497933 58.651421 
L 68.938038 58.45135 
L 69.378144 63.021054 
L 69.81825 110.882387 
L 70.258356 95.091669 
L 70.698462 84.293617 
L 71.138567 88.157271 
L 71.578673 58.307281 
L 72.018779 110.397411 
L 72.458885 29.816364 
L 72.89899 101.09677 
L 73.339096 41.689131 
L 73.779202 77.269877 
L 74.219308 51.046901 
L 74.659413 63.288301 
L 75.099519 94.696925 
L 75.539625 94.126899 
L 75.979731 94.866711 
L 76.419837 72.744958 
L 76.859942 86.182082 
L 77.300048 70.489923 
L 77.740154 30.135143 
L 78.18026 93.922182 
L 78.620365 79.19921 
L 79.060471 105.41075 
L 79.500577 75.289982 
L 79.940683 89.483944 
L 80.380788 31.777311 
L 80.820894 88.104367 
L 81.261 79.554902 
L 81.701106 108.593103 
L 82.141212 113.007565 
L 82.581317 45.222375 
L 83.021423 60.657583 
L 83.461529 109.879709 
L 83.901635 37.60594 
L 84.34174 39.940427 
L 84.781846 89.446355 
L 85.221952 53.102718 
L 85.662058 43.040034 
L 86.102163 100.626008 
L 86.542269 54.971775 
L 86.982375 79.087978 
L 87.422481 34.328401 
L 87.862587 72.015115 
L 88.302692 99.571355 
L 88.742798 105.296932 
L 89.182904 64.253942 
L 89.62301 47.489725 
L 90.063115 109.627009 
L 90.503221 114.267217 
L 90.943327 72.532192 
L 91.383433 46.900756 
L 91.823538 48.00987 
L 92.263644 101.971951 
L 92.70375 37.993069 
L 93.143856 57.051157 
L 93.583962 66.000774 
L 94.024067 96.153307 
L 94.464173 115.892759 
L 94.904279 106.990177 
L 95.344385 67.941096 
L 95.78449 45.331466 
L 96.224596 46.007524 
L 96.664702 87.585125 
L 97.104808 54.956671 
L 97.544913 62.996848 
L 97.985019 98.12385 
L 98.425125 53.172918 
L 98.865231 87.493496 
L 99.305337 70.841127 
L 99.745442 101.410212 
L 100.185548 65.881907 
L 100.625654 97.55581 
L 101.06576 76.619813 
L 101.505865 88.712402 
L 101.945971 84.337497 
L 102.826183 115.969438 
L 103.266288 74.556916 
L 103.706394 74.93689 
L 104.1465 96.583558 
L 104.586606 92.584132 
L 105.026712 81.808422 
L 105.466817 98.834618 
L 105.906923 65.309933 
L 106.347029 64.44266 
L 106.787135 94.271487 
L 107.22724 83.437685 
L 107.667346 100.654747 
L 108.107452 80.418753 
L 108.547558 92.583722 
L 108.987663 83.41457 
L 109.427769 67.23002 
L 109.867875 83.716615 
L 110.307981 106.089028 
L 110.748087 79.4165 
L 111.188192 104.706831 
L 111.628298 89.20949 
L 112.068404 115.470881 
L 112.50851 115.738834 
L 112.948615 108.764731 
L 113.388721 115.061155 
L 113.828827 86.790242 
L 114.268933 76.493668 
L 114.709038 86.468063 
L 115.149144 84.604715 
L 115.58925 81.710214 
L 116.029356 85.454082 
L 116.469462 112.169679 
L 116.909567 81.000527 
L 117.349673 109.962 
L 117.789779 105.613006 
L 118.229885 87.23464 
L 118.66999 99.645171 
L 119.110096 103.515043 
L 119.550202 91.795983 
L 119.990308 95.878034 
L 120.430413 83.557564 
L 120.870519 92.716841 
L 121.310625 110.371106 
L 121.750731 90.526862 
L 122.190837 86.887336 
L 123.071048 111.314441 
L 123.511154 92.234454 
L 123.95126 96.990791 
L 124.391365 105.153832 
L 124.831471 89.747622 
L 125.271577 91.648512 
L 125.711683 109.908148 
L 126.151788 90.645917 
L 126.591894 109.241437 
L 127.032 95.356621 
L 127.472106 104.326784 
L 127.912212 116.228011 
L 128.352317 113.699006 
L 128.792423 102.189204 
L 129.232529 104.436965 
L 129.672635 96.288043 
L 130.11274 111.885234 
L 130.552846 112.443344 
L 130.992952 95.429795 
L 131.433058 109.911729 
L 131.873163 102.697162 
L 132.313269 101.240755 
L 132.753375 117.303012 
L 133.193481 110.434225 
L 133.633587 98.872105 
L 134.073692 99.03676 
L 134.513798 115.859036 
L 134.953904 115.074043 
L 135.39401 107.862887 
L 135.834115 110.918796 
L 136.274221 108.57349 
L 136.714327 108.649568 
L 137.154433 109.322932 
L 137.594538 108.672975 
L 138.034644 100.188765 
L 138.914856 110.109679 
L 139.354962 104.185903 
L 139.795067 113.460729 
L 140.235173 101.156144 
L 140.675279 110.189137 
L 141.115385 107.839448 
L 141.55549 107.489982 
L 141.995596 102.292091 
L 142.435702 112.027468 
L 142.875808 102.181555 
L 143.315913 102.210661 
L 143.756019 110.258009 
L 144.196125 103.114203 
L 144.636231 107.750882 
L 145.076337 107.477424 
L 145.516442 112.602065 
L 145.956548 116.270898 
L 146.396654 105.512857 
L 146.83676 103.291094 
L 147.276865 106.198527 
L 147.716971 104.453581 
L 148.157077 117.04118 
L 148.597183 112.999859 
L 149.037288 112.280095 
L 149.477394 115.348743 
L 149.9175 109.622966 
L 150.357606 110.102834 
L 150.797712 114.261171 
L 151.237817 114.829874 
L 151.677923 105.918124 
L 152.118029 113.294102 
L 152.558135 108.388123 
L 152.99824 114.025838 
L 153.438346 108.953415 
L 153.878452 111.256222 
L 154.318558 111.673718 
L 155.638875 102.926754 
L 156.078981 113.527185 
L 156.519087 114.777131 
L 156.959192 113.516418 
L 157.399298 110.065742 
L 157.839404 109.251921 
L 158.27951 105.407625 
L 158.719615 117.068817 
L 159.599827 106.803924 
L 160.039933 105.944524 
L 160.480038 102.98594 
L 160.920144 112.261957 
L 161.36025 106.846721 
L 161.800356 103.482793 
L 162.240462 114.248606 
L 162.680567 111.100978 
L 163.120673 101.235158 
L 163.560779 113.020637 
L 164.000885 113.693072 
L 164.44099 101.781599 
L 164.881096 110.476982 
L 165.321202 108.709324 
L 165.761308 115.215735 
L 166.201413 107.093624 
L 166.641519 101.561781 
L 167.081625 110.006963 
L 167.521731 103.053949 
L 167.961837 108.694522 
L 168.401942 111.808878 
L 168.842048 103.336619 
L 169.282154 104.174011 
L 169.72226 107.044435 
L 170.162365 117.013815 
L 170.602471 113.696352 
L 171.042577 114.415649 
L 171.482683 98.211005 
L 171.922788 116.743601 
L 172.362894 103.417227 
L 172.803 105.792475 
L 173.243106 103.216807 
L 173.683212 99.357601 
L 174.123317 103.505366 
L 174.563423 100.228317 
L 175.003529 113.846572 
L 175.443635 101.025506 
L 176.323846 94.919909 
L 177.204058 108.349175 
L 177.644163 94.534005 
L 178.524375 105.895771 
L 178.964481 97.648097 
L 179.404587 100.751236 
L 179.844692 111.167141 
L 180.284798 100.203161 
L 180.724904 92.013147 
L 181.16501 88.888512 
L 181.605115 110.351695 
L 182.045221 100.812983 
L 182.485327 109.17305 
L 182.925433 108.464261 
L 183.365538 94.578323 
L 183.805644 112.823745 
L 184.24575 115.620813 
L 184.685856 95.951882 
L 185.125962 85.375968 
L 185.566067 111.247839 
L 186.006173 98.522076 
L 186.446279 109.621863 
L 186.886385 83.368989 
L 187.32649 109.590791 
L 187.766596 116.684419 
L 188.206702 93.353336 
L 188.646808 114.364214 
L 189.086913 106.856395 
L 189.527019 111.039949 
L 189.967125 95.41138 
L 190.407231 103.988821 
L 190.847337 116.223309 
L 191.287442 81.493751 
L 191.727548 103.680138 
L 192.167654 116.502071 
L 192.60776 85.163449 
L 193.047865 93.257482 
L 193.487971 78.243013 
L 193.928077 115.272702 
L 194.368183 81.545044 
L 194.808288 110.95035 
L 195.248394 107.258511 
L 195.6885 85.647867 
L 196.128606 73.942677 
L 196.568712 106.647572 
L 197.008817 100.594867 
L 197.448923 78.58998 
L 197.889029 73.446554 
L 198.76924 94.518759 
L 199.209346 89.877243 
L 199.649452 95.152191 
L 200.089558 74.049056 
L 200.529663 75.175034 
L 200.969769 71.013773 
L 201.409875 83.180964 
L 202.290087 116.476289 
L 202.730192 107.643797 
L 203.170298 73.146965 
L 203.610404 115.292985 
L 204.05051 71.4722 
L 204.490615 105.026622 
L 204.930721 92.92229 
L 205.370827 77.718031 
L 205.810933 76.65814 
L 206.251038 94.035005 
L 206.691144 85.492223 
L 207.13125 98.785992 
L 207.571356 76.128915 
L 208.011462 75.830932 
L 208.451567 114.980238 
L 208.891673 69.440326 
L 209.331779 91.459416 
L 209.771885 74.508311 
L 210.21199 103.162314 
L 210.652096 95.554372 
L 211.092202 111.622415 
L 211.532308 79.494077 
L 211.972413 99.595034 
L 212.412519 107.806544 
L 212.852625 81.057148 
L 213.292731 89.795389 
L 213.732837 78.000252 
L 214.172942 85.184377 
L 214.613048 104.389238 
L 215.053154 71.847661 
L 215.49326 112.626552 
L 215.933365 110.881879 
L 216.373471 107.943408 
L 216.813577 99.879834 
L 217.253683 101.274516 
L 217.693788 69.548948 
L 218.133894 116.64492 
L 218.574 100.183332 
L 219.014106 105.541561 
L 219.454212 84.330016 
L 219.894317 100.517647 
L 220.334423 103.498434 
L 220.774529 85.89563 
L 221.65474 113.976524 
L 222.094846 116.29543 
L 222.534952 113.939257 
L 222.975058 116.613363 
L 223.415163 81.557787 
L 223.855269 93.564165 
L 224.295375 95.735618 
L 224.735481 80.158451 
L 225.175587 110.798248 
L 225.615692 107.798815 
L 226.055798 75.266198 
L 226.495904 94.39775 
L 226.93601 108.141954 
L 227.376115 96.534749 
L 227.816221 111.485499 
L 228.256327 104.74988 
L 228.696433 101.388709 
L 229.136538 99.360862 
L 230.01675 81.248489 
L 230.456856 108.94032 
L 230.896962 90.010565 
L 231.337067 79.961005 
L 231.777173 98.25051 
L 232.217279 102.296698 
L 232.657385 88.045194 
L 233.09749 109.148427 
L 233.537596 110.05789 
L 233.977702 94.168082 
L 234.417808 111.119727 
L 234.857913 90.660194 
L 235.738125 93.100701 
L 236.178231 110.626245 
L 236.618337 116.701471 
L 237.058442 106.012836 
L 237.498548 108.760051 
L 237.938654 97.951125 
L 238.37876 93.36655 
L 238.818865 86.213966 
L 239.258971 105.402813 
L 239.699077 88.778861 
L 240.139183 94.76436 
L 240.579288 108.536578 
L 241.019394 109.209616 
L 241.4595 104.85655 
L 241.899606 111.086273 
L 242.339712 110.7637 
L 242.779817 97.650813 
L 243.219923 111.409535 
L 243.660029 106.262045 
L 244.100135 92.27257 
L 244.54024 103.967247 
L 244.980346 98.337158 
L 245.420452 109.874886 
L 245.860558 107.813831 
L 246.300663 112.096667 
L 246.740769 102.777532 
L 247.180875 108.217035 
L 247.620981 97.885481 
L 248.061087 109.964246 
L 248.501192 109.062165 
L 249.381404 99.414691 
L 249.82151 103.201846 
L 250.261615 105.33638 
L 250.701721 103.377404 
L 251.581933 114.474163 
L 252.022038 109.433289 
L 252.462144 107.328487 
L 252.90225 111.894517 
L 253.342356 109.900328 
L 253.782462 106.799446 
L 254.222567 110.30428 
L 254.662673 104.205682 
L 255.102779 105.437103 
L 255.98299 106.648525 
L 256.423096 111.929893 
L 256.863202 110.745753 
L 257.743413 116.336573 
L 258.183519 113.640314 
L 258.623625 108.095821 
L 259.503837 114.680752 
L 259.943942 111.766386 
L 260.384048 115.273925 
L 260.824154 111.632023 
L 261.26426 115.166033 
L 261.704365 111.370272 
L 262.144471 111.160895 
L 262.584577 114.018606 
L 263.024683 110.529061 
L 263.464788 115.706764 
L 263.904894 115.200007 
L 264.345 115.536474 
L 264.785106 112.656772 
L 265.225212 114.439749 
L 265.665317 113.563486 
L 266.105423 116.143719 
L 266.545529 116.86527 
L 266.985635 114.068792 
L 267.42574 115.41945 
L 267.865846 113.93919 
L 268.305952 115.185527 
L 268.746058 113.995798 
L 269.186163 113.989649 
L 269.626269 114.45716 
L 270.066375 116.791645 
L 270.506481 114.962939 
L 270.946587 114.274099 
L 271.386692 114.747783 
L 271.826798 114.551319 
L 272.266904 115.915962 
L 272.70701 115.518737 
L 273.147115 115.736729 
L 273.587221 116.469467 
L 274.027327 116.898297 
L 274.467433 115.51509 
L 274.907538 115.782017 
L 275.347644 116.234902 
L 275.78775 115.321721 
L 276.227856 116.634968 
L 276.667962 117.102529 
L 277.108067 116.785178 
L 277.548173 116.137468 
L 277.988279 115.803529 
L 278.428385 115.960338 
L 278.86849 117.235669 
L 279.308596 116.036579 
L 279.748702 116.405233 
L 280.188808 116.48967 
L 280.628913 117.000724 
L 281.069019 116.786507 
L 281.509125 117.104146 
L 281.949231 116.655485 
L 282.389337 117.016845 
L 282.829442 117.024083 
L 283.709654 117.290547 
L 284.14976 116.330631 
L 284.589865 116.689156 
L 285.029971 117.327876 
L 285.470077 116.619358 
L 285.910183 117.080348 
L 286.350288 116.423316 
L 286.790394 117.123222 
L 287.2305 116.560719 
L 287.670606 116.883477 
L 288.110712 116.980116 
L 288.550817 116.863067 
L 288.990923 116.45539 
L 289.871135 117.205545 
L 290.31124 116.915196 
L 290.751346 117.218777 
L 291.191452 117.214133 
L 291.631558 117.0893 
L 292.071663 117.177119 
L 292.511769 116.83816 
L 292.951875 117.282905 
L 293.832087 116.711955 
L 294.272192 117.337349 
L 294.712298 116.374214 
L 295.152404 116.439534 
L 295.59251 116.950075 
L 296.032615 117.149197 
L 296.472721 116.600879 
L 296.912827 117.318256 
L 297.352933 117.001003 
L 297.793038 116.174735 
L 298.233144 117.199802 
L 299.113356 116.202397 
L 299.553462 116.432065 
L 299.993567 116.493555 
L 300.433673 116.025444 
L 300.873779 116.514107 
L 301.313885 115.837504 
L 301.75399 116.366055 
L 302.194096 116.053852 
L 302.634202 116.540365 
L 303.074308 115.984821 
L 303.514413 116.65229 
L 303.954519 116.808918 
L 304.394625 116.451282 
L 304.834731 115.738017 
L 305.274837 117.165129 
L 305.714942 116.291828 
L 306.155048 115.878848 
L 306.595154 116.672737 
L 307.03526 115.81658 
L 307.475365 115.472518 
L 307.915471 117.068664 
L 308.355577 114.894947 
L 308.795683 115.029135 
L 309.235788 114.656673 
L 309.675894 116.478449 
L 310.116 115.868385 
L 310.556106 115.824958 
L 310.996212 116.616324 
L 311.436317 115.388749 
L 311.876423 115.525412 
L 312.316529 116.86193 
L 312.756635 113.228408 
L 313.19674 117.311288 
L 313.636846 115.679077 
L 314.076952 113.093276 
L 314.517058 113.060322 
L 314.957163 114.767928 
L 315.397269 113.664793 
L 315.837375 117.230224 
L 316.717587 111.839854 
L 317.157692 112.116023 
L 317.597798 110.918496 
L 318.037904 115.811549 
L 318.47801 115.119553 
L 318.918115 114.061904 
L 319.358221 117.173699 
L 320.238433 112.712479 
L 320.678538 114.589526 
L 321.118644 110.798499 
L 321.55875 116.055457 
L 321.998856 115.068266 
L 322.438962 115.272815 
L 322.879067 113.247681 
L 323.319173 113.415144 
L 323.759279 116.931699 
L 324.199385 109.789575 
L 324.63949 111.723433 
L 325.079596 112.884785 
L 325.519702 108.735983 
L 325.959808 106.381544 
L 326.399913 109.132883 
L 326.840019 109.605853 
L 327.280125 105.595008 
L 327.720231 106.957652 
L 328.160337 112.212853 
L 328.600442 110.753723 
L 329.040548 115.145601 
L 329.480654 107.049899 
L 330.360865 111.693734 
L 330.800971 115.44269 
L 331.241077 113.964126 
L 331.681183 111.137694 
L 332.561394 102.963511 
L 333.0015 104.684897 
L 333.441606 102.138177 
L 333.881712 111.366185 
L 334.321817 102.686966 
L 334.761923 104.380378 
L 335.202029 102.820738 
L 335.642135 106.714261 
L 336.08224 102.636405 
L 336.522346 115.6225 
L 336.962452 103.732323 
L 337.402558 107.31593 
L 337.842663 102.852563 
L 338.282769 99.715098 
L 338.722875 114.288647 
L 339.162981 102.452121 
L 339.603087 102.984579 
L 340.043192 108.338156 
L 340.483298 111.229636 
L 340.923404 112.827969 
L 341.36351 98.669451 
L 341.803615 101.085075 
L 342.243721 117.112103 
L 342.683827 96.640137 
L 343.123933 112.049965 
L 343.564038 111.528821 
L 344.004144 100.12389 
L 344.44425 102.040667 
L 344.884356 113.016043 
L 345.324462 107.95515 
L 345.764567 115.514134 
L 346.204673 107.276069 
L 346.644779 114.312965 
L 347.084885 103.468985 
L 347.52499 106.692897 
L 347.965096 96.387762 
L 348.405202 102.876701 
L 348.845308 111.210452 
L 349.725519 95.567665 
L 350.165625 103.224315 
L 350.605731 113.939934 
L 351.045837 97.831535 
L 351.485942 98.692967 
L 351.926048 112.836357 
L 352.366154 109.835028 
L 352.80626 113.184083 
L 353.246365 96.285023 
L 353.686471 100.429948 
L 354.126577 101.117798 
L 354.566683 93.961011 
L 355.446894 113.169257 
L 355.887 113.976655 
L 356.327106 94.255379 
L 356.767212 113.345967 
L 357.207317 113.510833 
L 357.647423 115.500475 
L 358.087529 101.485854 
L 358.527635 96.720734 
L 358.96774 96.181025 
L 359.407846 114.579759 
L 359.847952 102.734771 
L 360.288058 115.362109 
L 360.728163 104.144413 
L 361.168269 96.800957 
L 361.608375 112.300333 
L 362.048481 114.858617 
L 362.488587 109.798474 
L 362.928692 96.447739 
L 363.368798 103.725423 
L 363.808904 105.074136 
L 364.24901 113.864255 
L 364.689115 97.068337 
L 365.129221 101.192452 
L 365.569327 103.823391 
L 366.009433 102.902437 
L 366.449538 101.191686 
L 366.889644 109.098352 
L 367.32975 113.657824 
L 367.769856 114.501791 
L 368.209962 113.550316 
L 368.650067 111.093219 
L 369.090173 109.604707 
L 369.530279 99.507356 
L 369.970385 105.176594 
L 370.41049 106.275572 
L 370.850596 114.236122 
L 371.290702 101.164998 
L 371.730808 109.271373 
L 372.170913 103.191536 
L 372.611019 110.582352 
L 373.051125 110.253304 
L 373.491231 116.896956 
L 373.931337 105.888458 
L 374.371442 106.539406 
L 374.811548 106.637122 
L 375.251654 115.741206 
L 375.69176 111.91882 
L 376.131865 102.917949 
L 376.571971 115.66777 
L 377.012077 104.873959 
L 377.452183 107.700285 
L 377.892288 106.987016 
L 378.332394 108.052998 
L 378.7725 106.855608 
L 379.212606 106.444747 
L 380.092817 114.520108 
L 380.532923 108.384591 
L 380.973029 111.445038 
L 381.413135 111.248694 
L 381.85324 114.89932 
L 382.293346 113.930781 
L 382.733452 112.407799 
L 383.173558 116.203546 
L 383.613663 109.669262 
L 384.053769 111.298013 
L 384.493875 116.029415 
L 384.933981 111.475672 
L 385.374087 111.745431 
L 385.814192 114.231655 
L 386.254298 112.627863 
L 386.694404 113.513495 
L 387.13451 111.278362 
L 387.574615 114.783202 
L 388.014721 115.753515 
L 388.454827 112.136305 
L 388.894933 116.628246 
L 389.335038 114.263297 
L 389.775144 113.226777 
L 390.21525 111.780973 
L 390.655356 115.859162 
L 391.095462 116.211031 
L 391.535567 115.753518 
L 391.975673 113.893975 
L 392.855885 116.603844 
L 393.29599 116.855182 
L 393.736096 116.655912 
L 394.176202 116.980922 
L 394.616308 115.796434 
L 395.056413 114.25749 
L 395.496519 115.313622 
L 395.936625 115.435844 
L 396.376731 115.34451 
L 396.816837 115.003005 
L 397.256942 116.145783 
L 397.697048 115.234762 
L 398.137154 116.41462 
L 398.57726 115.954837 
L 399.017365 117.276569 
L 399.457471 115.609007 
L 399.897577 117.229923 
L 400.337683 117.093765 
L 400.777788 115.948596 
L 401.217894 116.142448 
L 401.658 117.292323 
L 402.098106 116.072158 
L 402.538212 117.3253 
L 402.978317 117.268535 
L 403.418423 117.037438 
L 404.298635 117.20823 
L 404.73874 116.563184 
L 405.178846 117.206558 
L 406.059058 116.757381 
L 406.499163 117.322399 
L 409.139798 117.137893 
L 409.579904 117.310592 
L 410.460115 117.097128 
L 411.340327 117.331046 
L 412.220538 117.25003 
L 413.540856 117.333322 
L 414.861173 117.269594 
L 417.501808 117.315484 
L 420.582548 117.342573 
L 426.303923 117.332015 
L 435.546144 117.161759 
L 436.426356 117.134165 
L 436.866462 117.212362 
L 437.306567 117.168432 
L 437.746673 117.281909 
L 438.186779 116.967235 
L 439.06699 117.099859 
L 439.947202 116.769029 
L 440.387308 117.044766 
L 440.827413 116.773542 
L 441.267519 116.951268 
L 441.707625 117.290745 
L 442.147731 116.613864 
L 442.587837 117.287515 
L 443.027942 117.296757 
L 443.468048 116.449791 
L 443.908154 116.304911 
L 444.34826 117.096712 
L 444.788365 116.135056 
L 445.228471 117.009782 
L 445.668577 116.549371 
L 446.548788 116.368825 
L 446.988894 115.835454 
L 447.869106 116.906506 
L 448.309212 114.950249 
L 449.189423 116.125254 
L 449.629529 114.766521 
L 450.069635 114.567789 
L 450.50974 116.523551 
L 450.949846 116.812351 
L 451.389952 114.29953 
L 451.830058 113.507812 
L 452.270163 116.019705 
L 452.710269 113.786823 
L 453.150375 113.696088 
L 453.590481 114.995709 
L 454.030587 116.669648 
L 454.470692 116.772164 
L 454.910798 112.276858 
L 455.79101 114.916235 
L 456.231115 117.338699 
L 456.671221 110.971787 
L 457.551433 113.219542 
L 457.991538 113.236121 
L 458.431644 114.587397 
L 458.87175 109.805025 
L 459.311856 112.877503 
L 459.751962 114.29049 
L 460.632173 116.297941 
L 461.072279 113.020932 
L 461.512385 112.454559 
L 461.95249 115.368155 
L 462.392596 114.864424 
L 462.832702 109.384262 
L 463.272808 109.390852 
L 463.712913 114.351508 
L 464.153019 113.596978 
L 464.593125 111.569329 
L 465.033231 112.102505 
L 465.473337 111.812653 
L 465.913442 108.98753 
L 466.353548 110.819179 
L 466.793654 116.695426 
L 467.23376 105.831965 
L 467.673865 109.314346 
L 468.113971 116.50593 
L 468.554077 107.489714 
L 468.994183 116.500611 
L 469.434288 116.722643 
L 469.874394 116.11597 
L 470.3145 111.734803 
L 470.754606 110.895681 
L 471.194712 111.019217 
L 471.634817 115.925996 
L 472.074923 109.269835 
L 472.515029 109.85271 
L 472.955135 98.106289 
L 473.39524 115.535996 
L 473.835346 103.220346 
L 474.275452 98.582436 
L 474.715558 115.152992 
L 475.155663 101.01539 
L 475.595769 114.031723 
L 476.035875 111.489905 
L 476.475981 102.537763 
L 476.916087 112.87612 
L 477.356192 113.270729 
L 477.796298 100.771494 
L 478.236404 104.349373 
L 478.67651 93.253732 
L 479.116615 114.280791 
L 479.556721 97.634147 
L 479.996827 97.26351 
L 480.877038 112.29596 
L 481.317144 107.522526 
L 481.75725 91.294867 
L 482.197356 115.626084 
L 482.637462 90.370698 
L 483.077567 113.981215 
L 483.517673 97.912848 
L 483.957779 105.301715 
L 483.957779 105.301715 
" clip-path="url(#pa62c74af78)" style="fill: none; stroke: #1f77b4; stroke-opacity: 0.5; stroke-linecap: square"/>
   </g>
   <g id="line2d_12">
    <path d="M 35.49 100.068114 
L 493.2 100.068114 
" clip-path="url(#pa62c74af78)" style="fill: none; stroke-dasharray: 5,5; stroke-dashoffset: 0; stroke: #000000"/>
   </g>
   <g id="line2d_13">
    <path d="M 35.49 111.585276 
L 493.2 111.585276 
" clip-path="url(#pa62c74af78)" style="fill: none; stroke-dasharray: 2,5; stroke-dashoffset: 0; stroke: #d62728"/>
   </g>
   <g id="line2d_14">
    <path d="M 35.49 94.309534 
L 493.2 94.309534 
" clip-path="url(#pa62c74af78)" style="fill: none; stroke-dasharray: 2,5; stroke-dashoffset: 0; stroke: #d62728"/>
   </g>
   <g id="patch_3">
    <path d="M 30.49 121.72 
L 30.49 25.44 
" style="fill: none; stroke: #7f7f7f; stroke-width: 0.8; stroke-linejoin: miter; stroke-linecap: square"/>
   </g>
   <g id="patch_4">
    <path d="M 35.49 126.72 
L 493.2 126.72 
" style="fill: none; stroke: #7f7f7f; stroke-width: 0.8; stroke-linejoin: miter; stroke-linecap: square"/>
   </g>
   <g id="text_11">
    <!-- Vector magnitude -->
    <g transform="translate(215.319375 19.44) scale(0.11 -0.11)">
     <defs>
      <path id="DejaVuSans-56" d="M 1831 0 
L 50 4666 
L 709 4666 
L 2188 738 
L 3669 4666 
L 4325 4666 
L 2547 0 
L 1831 0 
z
" transform="scale(0.015625)"/>
      <path id="DejaVuSans-65" d="M 3597 1894 
L 3597 1613 
L 953 1613 
Q 991 1019 1311 708 
Q 1631 397 2203 397 
Q 2534 397 2845 478 
Q 3156 559 3463 722 
L 3463 178 
Q 3153 47 2828 -22 
Q 2503 -91 2169 -91 
Q 1331 -91 842 396 
Q 353 884 353 1716 
Q 353 2575 817 3079 
Q 1281 3584 2069 3584 
Q 2775 3584 3186 3129 
Q 3597 2675 3597 1894 
z
M 3022 2063 
Q 3016 2534 2758 2815 
Q 2500 3097 2075 3097 
Q 1594 3097 1305 2825 
Q 1016 2553 972 2059 
L 3022 2063 
z
" transform="scale(0.015625)"/>
      <path id="DejaVuSans-63" d="M 3122 3366 
L 3122 2828 
Q 2878 2963 2633 3030 
Q 2388 3097 2138 3097 
Q 1578 3097 1268 2742 
Q 959 2388 959 1747 
Q 959 1106 1268 751 
Q 1578 397 2138 397 
Q 2388 397 2633 464 
Q 2878 531 3122 666 
L 3122 134 
Q 2881 22 2623 -34 
Q 2366 -91 2075 -91 
Q 1284 -91 818 406 
Q 353 903 353 1747 
Q 353 2603 823 3093 
Q 1294 3584 2113 3584 
Q 2378 3584 2631 3529 
Q 2884 3475 3122 3366 
z
" transform="scale(0.015625)"/>
      <path id="DejaVuSans-74" d="M 1172 4494 
L 1172 3500 
L 2356 3500 
L 2356 3053 
L 1172 3053 
L 1172 1153 
Q 1172 725 1289 603 
Q 1406 481 1766 481 
L 2356 481 
L 2356 0 
L 1766 0 
Q 1100 0 847 248 
Q 594 497 594 1153 
L 594 3053 
L 172 3053 
L 172 3500 
L 594 3500 
L 594 4494 
L 1172 4494 
z
" transform="scale(0.015625)"/>
      <path id="DejaVuSans-6f" d="M 1959 3097 
Q 1497 3097 1228 2736 
Q 959 2375 959 1747 
Q 959 1119 1226 758 
Q 1494 397 1959 397 
Q 2419 397 2687 759 
Q 2956 1122 2956 1747 
Q 2956 2369 2687 2733 
Q 2419 3097 1959 3097 
z
M 1959 3584 
Q 2709 3584 3137 3096 
Q 3566 2609 3566 1747 
Q 3566 888 3137 398 
Q 2709 -91 1959 -91 
Q 1206 -91 779 398 
Q 353 888 353 1747 
Q 353 2609 779 3096 
Q 1206 3584 1959 3584 
z
" transform="scale(0.015625)"/>
      <path id="DejaVuSans-72" d="M 2631 2963 
Q 2534 3019 2420 3045 
Q 2306 3072 2169 3072 
Q 1681 3072 1420 2755 
Q 1159 2438 1159 1844 
L 1159 0 
L 581 0 
L 581 3500 
L 1159 3500 
L 1159 2956 
Q 1341 3275 1631 3429 
Q 1922 3584 2338 3584 
Q 2397 3584 2469 3576 
Q 2541 3569 2628 3553 
L 2631 2963 
z
" transform="scale(0.015625)"/>
      <path id="DejaVuSans-20" transform="scale(0.015625)"/>
      <path id="DejaVuSans-6d" d="M 3328 2828 
Q 3544 3216 3844 3400 
Q 4144 3584 4550 3584 
Q 5097 3584 5394 3201 
Q 5691 2819 5691 2113 
L 5691 0 
L 5113 0 
L 5113 2094 
Q 5113 2597 4934 2840 
Q 4756 3084 4391 3084 
Q 3944 3084 3684 2787 
Q 3425 2491 3425 1978 
L 3425 0 
L 2847 0 
L 2847 2094 
Q 2847 2600 2669 2842 
Q 2491 3084 2119 3084 
Q 1678 3084 1418 2786 
Q 1159 2488 1159 1978 
L 1159 0 
L 581 0 
L 581 3500 
L 1159 3500 
L 1159 2956 
Q 1356 3278 1631 3431 
Q 1906 3584 2284 3584 
Q 2666 3584 2933 3390 
Q 3200 3197 3328 2828 
z
" transform="scale(0.015625)"/>
      <path id="DejaVuSans-61" d="M 2194 1759 
Q 1497 1759 1228 1600 
Q 959 1441 959 1056 
Q 959 750 1161 570 
Q 1363 391 1709 391 
Q 2188 391 2477 730 
Q 2766 1069 2766 1631 
L 2766 1759 
L 2194 1759 
z
M 3341 1997 
L 3341 0 
L 2766 0 
L 2766 531 
Q 2569 213 2275 61 
Q 1981 -91 1556 -91 
Q 1019 -91 701 211 
Q 384 513 384 1019 
Q 384 1609 779 1909 
Q 1175 2209 1959 2209 
L 2766 2209 
L 2766 2266 
Q 2766 2663 2505 2880 
Q 2244 3097 1772 3097 
Q 1472 3097 1187 3025 
Q 903 2953 641 2809 
L 641 3341 
Q 956 3463 1253 3523 
Q 1550 3584 1831 3584 
Q 2591 3584 2966 3190 
Q 3341 2797 3341 1997 
z
" transform="scale(0.015625)"/>
      <path id="DejaVuSans-67" d="M 2906 1791 
Q 2906 2416 2648 2759 
Q 2391 3103 1925 3103 
Q 1463 3103 1205 2759 
Q 947 2416 947 1791 
Q 947 1169 1205 825 
Q 1463 481 1925 481 
Q 2391 481 2648 825 
Q 2906 1169 2906 1791 
z
M 3481 434 
Q 3481 -459 3084 -895 
Q 2688 -1331 1869 -1331 
Q 1566 -1331 1297 -1286 
Q 1028 -1241 775 -1147 
L 775 -588 
Q 1028 -725 1275 -790 
Q 1522 -856 1778 -856 
Q 2344 -856 2625 -561 
Q 2906 -266 2906 331 
L 2906 616 
Q 2728 306 2450 153 
Q 2172 0 1784 0 
Q 1141 0 747 490 
Q 353 981 353 1791 
Q 353 2603 747 3093 
Q 1141 3584 1784 3584 
Q 2172 3584 2450 3431 
Q 2728 3278 2906 2969 
L 2906 3500 
L 3481 3500 
L 3481 434 
z
" transform="scale(0.015625)"/>
      <path id="DejaVuSans-6e" d="M 3513 2113 
L 3513 0 
L 2938 0 
L 2938 2094 
Q 2938 2591 2744 2837 
Q 2550 3084 2163 3084 
Q 1697 3084 1428 2787 
Q 1159 2491 1159 1978 
L 1159 0 
L 581 0 
L 581 3500 
L 1159 3500 
L 1159 2956 
Q 1366 3272 1645 3428 
Q 1925 3584 2291 3584 
Q 2894 3584 3203 3211 
Q 3513 2838 3513 2113 
z
" transform="scale(0.015625)"/>
      <path id="DejaVuSans-69" d="M 603 3500 
L 1178 3500 
L 1178 0 
L 603 0 
L 603 3500 
z
M 603 4863 
L 1178 4863 
L 1178 4134 
L 603 4134 
L 603 4863 
z
" transform="scale(0.015625)"/>
      <path id="DejaVuSans-75" d="M 544 1381 
L 544 3500 
L 1119 3500 
L 1119 1403 
Q 1119 906 1312 657 
Q 1506 409 1894 409 
Q 2359 409 2629 706 
Q 2900 1003 2900 1516 
L 2900 3500 
L 3475 3500 
L 3475 0 
L 2900 0 
L 2900 538 
Q 2691 219 2414 64 
Q 2138 -91 1772 -91 
Q 1169 -91 856 284 
Q 544 659 544 1381 
z
M 1991 3584 
L 1991 3584 
z
" transform="scale(0.015625)"/>
      <path id="DejaVuSans-64" d="M 2906 2969 
L 2906 4863 
L 3481 4863 
L 3481 0 
L 2906 0 
L 2906 525 
Q 2725 213 2448 61 
Q 2172 -91 1784 -91 
Q 1150 -91 751 415 
Q 353 922 353 1747 
Q 353 2572 751 3078 
Q 1150 3584 1784 3584 
Q 2172 3584 2448 3432 
Q 2725 3281 2906 2969 
z
M 947 1747 
Q 947 1113 1208 752 
Q 1469 391 1925 391 
Q 2381 391 2643 752 
Q 2906 1113 2906 1747 
Q 2906 2381 2643 2742 
Q 2381 3103 1925 3103 
Q 1469 3103 1208 2742 
Q 947 2381 947 1747 
z
" transform="scale(0.015625)"/>
     </defs>
     <use xlink:href="#DejaVuSans-56"/>
     <use xlink:href="#DejaVuSans-65" x="60.658203"/>
     <use xlink:href="#DejaVuSans-63" x="122.181641"/>
     <use xlink:href="#DejaVuSans-74" x="177.162109"/>
     <use xlink:href="#DejaVuSans-6f" x="216.371094"/>
     <use xlink:href="#DejaVuSans-72" x="277.552734"/>
     <use xlink:href="#DejaVuSans-20" x="318.666016"/>
     <use xlink:href="#DejaVuSans-6d" x="350.453125"/>
     <use xlink:href="#DejaVuSans-61" x="447.865234"/>
     <use xlink:href="#DejaVuSans-67" x="509.144531"/>
     <use xlink:href="#DejaVuSans-6e" x="572.621094"/>
     <use xlink:href="#DejaVuSans-69" x="636"/>
     <use xlink:href="#DejaVuSans-74" x="663.783203"/>
     <use xlink:href="#DejaVuSans-75" x="702.992188"/>
     <use xlink:href="#DejaVuSans-64" x="766.371094"/>
     <use xlink:href="#DejaVuSans-65" x="829.847656"/>
    </g>
   </g>
  </g>
  <g id="axes_2">
   <g id="patch_5">
    <path d="M 35.49 217.38 
L 493.2 217.38 
L 493.2 169.24 
L 35.49 169.24 
z
" style="fill: #ffffff"/>
   </g>
   <g id="matplotlib.axis_3">
    <g id="xtick_7">
     <g id="line2d_15">
      <g>
       <use xlink:href="#m3af7fa0dd9" x="44.292115" y="222.38" style="stroke: #000000; stroke-width: 0.8"/>
      </g>
     </g>
     <g id="text_12">
      <!-- 0 -->
      <g transform="translate(41.110865 236.978437) scale(0.1 -0.1)">
       <use xlink:href="#DejaVuSans-30"/>
      </g>
     </g>
    </g>
    <g id="xtick_8">
     <g id="line2d_16">
      <g>
       <use xlink:href="#m3af7fa0dd9" x="132.313269" y="222.38" style="stroke: #000000; stroke-width: 0.8"/>
      </g>
     </g>
     <g id="text_13">
      <!-- 2 -->
      <g transform="translate(129.132019 236.978437) scale(0.1 -0.1)">
       <use xlink:href="#DejaVuSans-32"/>
      </g>
     </g>
    </g>
    <g id="xtick_9">
     <g id="line2d_17">
      <g>
       <use xlink:href="#m3af7fa0dd9" x="220.334423" y="222.38" style="stroke: #000000; stroke-width: 0.8"/>
      </g>
     </g>
     <g id="text_14">
      <!-- 4 -->
      <g transform="translate(217.153173 236.978437) scale(0.1 -0.1)">
       <use xlink:href="#DejaVuSans-34"/>
      </g>
     </g>
    </g>
    <g id="xtick_10">
     <g id="line2d_18">
      <g>
       <use xlink:href="#m3af7fa0dd9" x="308.355577" y="222.38" style="stroke: #000000; stroke-width: 0.8"/>
      </g>
     </g>
     <g id="text_15">
      <!-- 6 -->
      <g transform="translate(305.174327 236.978437) scale(0.1 -0.1)">
       <use xlink:href="#DejaVuSans-36"/>
      </g>
     </g>
    </g>
    <g id="xtick_11">
     <g id="line2d_19">
      <g>
       <use xlink:href="#m3af7fa0dd9" x="396.376731" y="222.38" style="stroke: #000000; stroke-width: 0.8"/>
      </g>
     </g>
     <g id="text_16">
      <!-- 8 -->
      <g transform="translate(393.195481 236.978437) scale(0.1 -0.1)">
       <use xlink:href="#DejaVuSans-38"/>
      </g>
     </g>
    </g>
    <g id="xtick_12">
     <g id="line2d_20">
      <g>
       <use xlink:href="#m3af7fa0dd9" x="484.397885" y="222.38" style="stroke: #000000; stroke-width: 0.8"/>
      </g>
     </g>
     <g id="text_17">
      <!-- 10 -->
      <g transform="translate(478.035385 236.978437) scale(0.1 -0.1)">
       <use xlink:href="#DejaVuSans-31"/>
       <use xlink:href="#DejaVuSans-30" x="63.623047"/>
      </g>
     </g>
    </g>
   </g>
   <g id="matplotlib.axis_4">
    <g id="ytick_5">
     <g id="line2d_21">
      <g>
       <use xlink:href="#mee997523db" x="30.49" y="215.191818" style="stroke: #000000; stroke-width: 0.8"/>
      </g>
     </g>
     <g id="text_18">
      <!-- 0 -->
      <g transform="translate(17.1275 218.991037) scale(0.1 -0.1)">
       <use xlink:href="#DejaVuSans-30"/>
      </g>
     </g>
    </g>
    <g id="ytick_6">
     <g id="line2d_22">
      <g>
       <use xlink:href="#mee997523db" x="30.49" y="186.398987" style="stroke: #000000; stroke-width: 0.8"/>
      </g>
     </g>
     <g id="text_19">
      <!-- 10 -->
      <g transform="translate(10.765 190.198206) scale(0.1 -0.1)">
       <use xlink:href="#DejaVuSans-31"/>
       <use xlink:href="#DejaVuSans-30" x="63.623047"/>
      </g>
     </g>
    </g>
   </g>
   <g id="line2d_23">
    <path d="M 44.292115 197.04644 
L 44.732221 191.231097 
L 45.172327 215.191818 
L 45.612433 215.191818 
L 46.052538 205.481039 
L 46.492644 215.191818 
L 47.812962 189.589178 
L 48.253067 193.858218 
L 48.693173 203.237357 
L 49.133279 215.191818 
L 49.573385 198.015219 
L 50.01349 188.298694 
L 50.453596 191.995959 
L 50.893702 215.191818 
L 51.333808 190.959488 
L 51.773913 215.191818 
L 52.214019 200.1657 
L 52.654125 204.751183 
L 53.094231 199.779566 
L 53.534337 182.598027 
L 53.974442 215.191818 
L 54.414548 205.075621 
L 54.854654 215.191818 
L 55.29476 215.191818 
L 55.734865 189.926035 
L 56.615077 205.06869 
L 57.055183 193.508742 
L 57.495288 201.509555 
L 57.935394 215.191818 
L 58.3755 184.635035 
L 59.255712 198.907433 
L 59.695817 196.977381 
L 60.135923 215.191818 
L 60.576029 177.094171 
L 61.016135 215.191818 
L 61.45624 187.824215 
L 61.896346 201.510591 
L 62.336452 194.47478 
L 62.776558 191.641822 
L 63.216663 193.063406 
L 63.656769 189.652902 
L 64.096875 176.969805 
L 64.536981 204.388902 
L 65.417192 178.749342 
L 65.857298 192.774895 
L 66.297404 174.770729 
L 66.73751 182.147267 
L 67.177615 215.191818 
L 67.617721 191.187505 
L 68.057827 215.191818 
L 68.497933 185.845674 
L 68.938038 185.745639 
L 69.378144 188.030485 
L 69.81825 215.191818 
L 70.258356 204.065752 
L 70.698462 198.66674 
L 71.138567 200.598562 
L 71.578673 185.673605 
L 72.018779 215.191818 
L 72.458885 171.428182 
L 72.89899 215.191818 
L 73.339096 177.36455 
L 73.779202 195.154879 
L 74.219308 182.043424 
L 74.659413 188.164109 
L 75.099519 203.868381 
L 75.539625 203.583369 
L 75.979731 203.953273 
L 76.419837 192.892425 
L 76.859942 199.61097 
L 77.300048 191.76491 
L 77.740154 171.587571 
L 78.18026 203.48101 
L 78.620365 196.119543 
L 79.060471 215.191818 
L 79.500577 194.164934 
L 79.940683 201.261897 
L 80.380788 172.408653 
L 80.820894 200.57211 
L 81.261 196.297388 
L 81.701106 215.191818 
L 82.141212 215.191818 
L 82.581317 179.131168 
L 83.021423 186.848753 
L 83.461529 215.191818 
L 83.901635 175.32296 
L 84.34174 176.490201 
L 84.781846 201.243103 
L 85.221952 183.07133 
L 85.662058 178.040001 
L 86.102163 215.191818 
L 86.542269 184.005856 
L 86.982375 196.063927 
L 87.422481 173.684195 
L 87.862587 192.527505 
L 88.302692 206.30559 
L 88.742798 215.191818 
L 89.182904 188.646927 
L 89.62301 180.26484 
L 90.063115 215.191818 
L 90.503221 215.191818 
L 90.943327 192.786042 
L 91.383433 179.970357 
L 91.823538 180.524912 
L 92.263644 215.191818 
L 92.70375 175.516524 
L 93.143856 185.045544 
L 93.583962 189.520342 
L 94.024067 204.59657 
L 94.464173 215.191818 
L 94.904279 215.191818 
L 95.344385 190.4905 
L 95.78449 179.185713 
L 96.224596 179.523742 
L 96.664702 200.31249 
L 97.104808 183.998304 
L 97.544913 188.018382 
L 97.985019 205.581839 
L 98.425125 183.106429 
L 98.865231 200.266676 
L 99.305337 191.940512 
L 99.745442 215.191818 
L 100.185548 189.460908 
L 100.625654 205.29782 
L 101.06576 194.829848 
L 101.505865 200.876127 
L 101.945971 198.68868 
L 102.386077 215.191818 
L 102.826183 215.191818 
L 103.266288 193.798402 
L 103.706394 193.988388 
L 104.1465 204.811695 
L 104.586606 202.811987 
L 105.026712 197.424146 
L 105.466817 205.937222 
L 105.906923 189.174922 
L 106.347029 188.741287 
L 106.787135 203.655663 
L 107.22724 198.238775 
L 107.667346 215.191818 
L 108.107452 196.729313 
L 108.547558 202.811782 
L 108.987663 198.227218 
L 109.427769 190.134963 
L 109.867875 198.37824 
L 110.307981 215.191818 
L 110.748087 196.228187 
L 111.188192 215.191818 
L 111.628298 201.12467 
L 112.068404 215.191818 
L 113.388721 215.191818 
L 113.828827 199.915049 
L 114.268933 194.766775 
L 114.709038 199.75396 
L 115.149144 198.822288 
L 115.58925 197.375042 
L 116.029356 199.246971 
L 116.469462 215.191818 
L 116.909567 197.020199 
L 117.349673 215.191818 
L 117.789779 215.191818 
L 118.229885 200.137248 
L 118.66999 206.342497 
L 119.110096 215.191818 
L 119.550202 202.417914 
L 119.990308 204.458934 
L 120.430413 198.298714 
L 120.870519 202.878341 
L 121.310625 215.191818 
L 121.750731 201.783355 
L 122.190837 199.963596 
L 122.630942 206.241367 
L 123.071048 215.191818 
L 123.511154 202.637149 
L 123.95126 205.015311 
L 124.391365 215.191818 
L 124.831471 201.393736 
L 125.271577 202.344178 
L 125.711683 215.191818 
L 126.151788 201.842882 
L 126.591894 215.191818 
L 127.032 204.198228 
L 127.472106 215.191818 
L 129.232529 215.191818 
L 129.672635 204.663938 
L 130.11274 215.191818 
L 130.552846 215.191818 
L 130.992952 204.234815 
L 131.433058 215.191818 
L 133.193481 215.191818 
L 133.633587 205.955965 
L 134.073692 206.038293 
L 134.513798 215.191818 
L 171.042577 215.191818 
L 171.482683 205.625416 
L 171.922788 215.191818 
L 173.243106 215.191818 
L 173.683212 206.198713 
L 174.123317 215.191818 
L 175.443635 215.191818 
L 175.88374 205.657055 
L 176.323846 203.979873 
L 176.763952 215.191818 
L 177.204058 215.191818 
L 177.644163 203.786921 
L 178.084269 215.191818 
L 178.524375 215.191818 
L 178.964481 205.343963 
L 179.404587 215.191818 
L 180.284798 215.191818 
L 180.724904 202.526495 
L 181.16501 200.964182 
L 181.605115 215.191818 
L 182.925433 215.191818 
L 183.365538 203.80908 
L 183.805644 215.191818 
L 184.24575 215.191818 
L 184.685856 204.495858 
L 185.125962 199.207914 
L 185.566067 215.191818 
L 186.006173 205.780952 
L 186.446279 215.191818 
L 186.886385 198.204427 
L 187.32649 215.191818 
L 187.766596 215.191818 
L 188.206702 203.196588 
L 188.646808 215.191818 
L 189.527019 215.191818 
L 189.967125 204.225607 
L 190.407231 215.191818 
L 190.847337 215.191818 
L 191.287442 197.26681 
L 191.727548 215.191818 
L 192.167654 215.191818 
L 192.60776 199.101655 
L 193.047865 203.148661 
L 193.487971 195.641446 
L 193.928077 215.191818 
L 194.368183 197.292457 
L 194.808288 215.191818 
L 195.248394 215.191818 
L 195.6885 199.343863 
L 196.128606 193.491283 
L 196.568712 215.191818 
L 197.008817 215.191818 
L 197.448923 195.814929 
L 197.889029 193.243222 
L 198.76924 203.779298 
L 199.209346 201.458546 
L 199.649452 204.096013 
L 200.089558 193.544472 
L 200.529663 194.10746 
L 200.969769 192.026835 
L 201.409875 198.110415 
L 201.849981 215.191818 
L 202.730192 215.191818 
L 203.170298 193.093428 
L 203.610404 215.191818 
L 204.05051 192.256048 
L 204.490615 215.191818 
L 204.930721 202.981066 
L 205.370827 195.378955 
L 205.810933 194.849011 
L 206.251038 203.537422 
L 206.691144 199.266042 
L 207.13125 205.912909 
L 207.571356 194.584399 
L 208.011462 194.435408 
L 208.451567 215.191818 
L 208.891673 191.240113 
L 209.331779 202.249631 
L 209.771885 193.774099 
L 210.21199 215.191818 
L 210.652096 204.297103 
L 211.092202 215.191818 
L 211.532308 196.266976 
L 212.412519 215.191818 
L 212.852625 197.048509 
L 213.292731 201.417619 
L 213.732837 195.520065 
L 214.172942 199.112119 
L 214.613048 215.191818 
L 215.053154 192.443777 
L 215.49326 215.191818 
L 216.373471 215.191818 
L 216.813577 206.459829 
L 217.253683 215.191818 
L 217.693788 191.294424 
L 218.133894 215.191818 
L 219.014106 215.191818 
L 219.454212 198.684939 
L 219.894317 215.191818 
L 220.334423 215.191818 
L 220.774529 199.467745 
L 221.214635 206.028263 
L 221.65474 215.191818 
L 222.975058 215.191818 
L 223.415163 197.298829 
L 223.855269 203.302002 
L 224.295375 204.387726 
L 224.735481 196.599162 
L 225.175587 215.191818 
L 225.615692 215.191818 
L 226.055798 194.153042 
L 226.93601 215.191818 
L 227.376115 204.78729 
L 227.816221 215.191818 
L 228.696433 215.191818 
L 229.136538 206.200344 
L 230.01675 197.14418 
L 230.456856 215.191818 
L 230.896962 201.525207 
L 231.337067 196.500439 
L 232.217279 215.191818 
L 232.657385 200.542524 
L 233.09749 215.191818 
L 233.537596 215.191818 
L 233.977702 203.60396 
L 234.417808 215.191818 
L 234.857913 201.85002 
L 235.738125 203.070271 
L 236.178231 215.191818 
L 237.498548 215.191818 
L 237.938654 205.495477 
L 238.37876 203.203195 
L 238.818865 199.626912 
L 239.258971 215.191818 
L 239.699077 200.909356 
L 240.139183 203.902098 
L 240.579288 215.191818 
L 242.339712 215.191818 
L 242.779817 205.345321 
L 243.219923 215.191818 
L 243.660029 215.191818 
L 244.100135 202.656206 
L 244.54024 215.191818 
L 244.980346 205.688493 
L 245.420452 215.191818 
L 247.180875 215.191818 
L 247.620981 205.462655 
L 248.061087 215.191818 
L 248.941298 215.191818 
L 249.381404 206.227258 
L 249.82151 215.191818 
L 337.842663 215.191818 
L 338.282769 206.377461 
L 338.722875 215.191818 
L 340.923404 215.191818 
L 341.36351 205.854639 
L 341.803615 215.191818 
L 342.243721 215.191818 
L 342.683827 204.839984 
L 343.123933 215.191818 
L 347.52499 215.191818 
L 347.965096 204.713797 
L 348.405202 215.191818 
L 349.285413 215.191818 
L 349.725519 204.30375 
L 350.165625 215.191818 
L 350.605731 215.191818 
L 351.045837 205.435682 
L 351.485942 205.866397 
L 351.926048 215.191818 
L 352.80626 215.191818 
L 353.246365 204.662428 
L 353.686471 215.191818 
L 354.126577 215.191818 
L 354.566683 203.500425 
L 355.006788 215.191818 
L 355.887 215.191818 
L 356.327106 203.647609 
L 356.767212 215.191818 
L 358.087529 215.191818 
L 358.527635 204.880283 
L 358.96774 204.610429 
L 359.407846 215.191818 
L 360.728163 215.191818 
L 361.168269 204.920394 
L 361.608375 215.191818 
L 362.488587 215.191818 
L 362.928692 204.743786 
L 363.368798 215.191818 
L 364.24901 215.191818 
L 364.689115 205.054084 
L 365.129221 215.191818 
L 369.090173 215.191818 
L 369.530279 206.27359 
L 369.970385 215.191818 
L 472.515029 215.191818 
L 472.955135 205.573059 
L 473.39524 215.191818 
L 473.835346 215.191818 
L 474.275452 205.811132 
L 474.715558 215.191818 
L 478.236404 215.191818 
L 478.67651 203.146786 
L 479.116615 215.191818 
L 479.556721 205.336988 
L 479.996827 205.15167 
L 480.436933 215.191818 
L 481.317144 215.191818 
L 481.75725 202.167356 
L 482.197356 215.191818 
L 482.637462 201.705273 
L 483.077567 215.191818 
L 483.517673 205.476338 
L 483.957779 215.191818 
L 483.957779 215.191818 
" clip-path="url(#p6ac548b4fe)" style="fill: none; stroke: #000000; stroke-opacity: 0.25; stroke-linecap: square"/>
   </g>
   <g id="line2d_24">
    <path d="M 44.292115 197.04644 
L 46.492644 197.919526 
L 48.693173 198.243085 
L 50.893702 196.750414 
L 53.094231 197.327366 
L 55.29476 196.908606 
L 57.495288 196.952453 
L 59.695817 195.633985 
L 61.896346 194.973936 
L 64.096875 192.614611 
L 66.297404 191.503389 
L 68.497933 189.199197 
L 70.698462 189.449567 
L 72.89899 189.013135 
L 75.099519 189.052767 
L 77.300048 191.589485 
L 79.500577 192.28392 
L 81.701106 191.999702 
L 86.102163 190.392278 
L 88.302692 188.431385 
L 90.503221 187.343689 
L 92.70375 185.024677 
L 94.904279 187.127987 
L 97.104808 187.524731 
L 99.305337 188.384034 
L 101.505865 190.516647 
L 103.706394 192.926361 
L 105.906923 194.523851 
L 108.107452 196.827572 
L 110.307981 197.700869 
L 112.50851 197.828085 
L 114.709038 198.270325 
L 116.909567 197.715905 
L 119.110096 198.685673 
L 121.310625 199.919119 
L 125.711683 201.551579 
L 127.912212 202.663563 
L 130.11274 202.724117 
L 132.313269 203.119869 
L 134.513798 203.965261 
L 136.714327 204.48902 
L 138.914856 205.223253 
L 141.115385 205.409691 
L 143.315913 205.997129 
L 145.516442 215.191818 
L 169.72226 215.191818 
L 171.922788 205.625416 
L 174.123317 205.912065 
L 176.323846 205.365264 
L 180.724904 204.731205 
L 187.32649 202.679977 
L 189.527019 202.614384 
L 193.928077 201.279909 
L 196.128606 199.699432 
L 198.329135 198.362812 
L 200.529663 198.383934 
L 204.930721 197.07666 
L 207.13125 197.891294 
L 209.331779 197.731972 
L 211.532308 197.309404 
L 213.732837 198.127696 
L 215.933365 198.202866 
L 218.133894 197.7641 
L 222.534952 199.435884 
L 224.735481 199.55262 
L 226.93601 200.126796 
L 229.136538 201.329831 
L 231.337067 200.913178 
L 233.537596 200.962584 
L 237.938654 202.350938 
L 240.139183 201.814408 
L 242.339712 202.761348 
L 244.54024 202.926242 
L 246.740769 203.353382 
L 248.941298 203.349279 
L 251.141827 205.075986 
L 253.342356 205.075986 
L 255.542885 205.792802 
L 257.743413 205.844956 
L 259.943942 206.227258 
L 262.144471 215.191818 
L 336.962452 215.191818 
L 339.162981 206.377461 
L 341.36351 206.11605 
L 343.564038 205.690695 
L 345.764567 205.690695 
L 347.965096 205.44647 
L 350.165625 204.928043 
L 352.366154 205.031922 
L 354.566683 204.74708 
L 356.767212 204.590012 
L 361.168269 204.690456 
L 363.368798 204.423622 
L 367.769856 204.841795 
L 369.970385 205.247964 
L 372.170913 205.357153 
L 374.371442 205.663837 
L 376.571971 206.27359 
L 378.7725 206.27359 
L 380.973029 215.191818 
L 471.194712 215.191818 
L 473.39524 205.573059 
L 475.595769 205.692095 
L 477.796298 205.692095 
L 479.996827 205.003927 
L 482.197356 204.531165 
L 482.197356 204.531165 
" clip-path="url(#p6ac548b4fe)" style="fill: none; stroke: #000000; stroke-linecap: square"/>
   </g>
   <g id="patch_6">
    <path d="M 30.49 217.38 
L 30.49 169.24 
" style="fill: none; stroke: #7f7f7f; stroke-width: 0.8; stroke-linejoin: miter; stroke-linecap: square"/>
   </g>
   <g id="patch_7">
    <path d="M 35.49 222.38 
L 493.2 222.38 
" style="fill: none; stroke: #7f7f7f; stroke-width: 0.8; stroke-linejoin: miter; stroke-linecap: square"/>
   </g>
   <g id="text_20">
    <!-- Instantaneous and Average intensity of use from u1 -->
    <g transform="translate(121.415469 163.24) scale(0.11 -0.11)">
     <defs>
      <path id="DejaVuSans-49" d="M 628 4666 
L 1259 4666 
L 1259 0 
L 628 0 
L 628 4666 
z
" transform="scale(0.015625)"/>
      <path id="DejaVuSans-73" d="M 2834 3397 
L 2834 2853 
Q 2591 2978 2328 3040 
Q 2066 3103 1784 3103 
Q 1356 3103 1142 2972 
Q 928 2841 928 2578 
Q 928 2378 1081 2264 
Q 1234 2150 1697 2047 
L 1894 2003 
Q 2506 1872 2764 1633 
Q 3022 1394 3022 966 
Q 3022 478 2636 193 
Q 2250 -91 1575 -91 
Q 1294 -91 989 -36 
Q 684 19 347 128 
L 347 722 
Q 666 556 975 473 
Q 1284 391 1588 391 
Q 1994 391 2212 530 
Q 2431 669 2431 922 
Q 2431 1156 2273 1281 
Q 2116 1406 1581 1522 
L 1381 1569 
Q 847 1681 609 1914 
Q 372 2147 372 2553 
Q 372 3047 722 3315 
Q 1072 3584 1716 3584 
Q 2034 3584 2315 3537 
Q 2597 3491 2834 3397 
z
" transform="scale(0.015625)"/>
      <path id="DejaVuSans-41" d="M 2188 4044 
L 1331 1722 
L 3047 1722 
L 2188 4044 
z
M 1831 4666 
L 2547 4666 
L 4325 0 
L 3669 0 
L 3244 1197 
L 1141 1197 
L 716 0 
L 50 0 
L 1831 4666 
z
" transform="scale(0.015625)"/>
      <path id="DejaVuSans-76" d="M 191 3500 
L 800 3500 
L 1894 563 
L 2988 3500 
L 3597 3500 
L 2284 0 
L 1503 0 
L 191 3500 
z
" transform="scale(0.015625)"/>
      <path id="DejaVuSans-79" d="M 2059 -325 
Q 1816 -950 1584 -1140 
Q 1353 -1331 966 -1331 
L 506 -1331 
L 506 -850 
L 844 -850 
Q 1081 -850 1212 -737 
Q 1344 -625 1503 -206 
L 1606 56 
L 191 3500 
L 800 3500 
L 1894 763 
L 2988 3500 
L 3597 3500 
L 2059 -325 
z
" transform="scale(0.015625)"/>
      <path id="DejaVuSans-66" d="M 2375 4863 
L 2375 4384 
L 1825 4384 
Q 1516 4384 1395 4259 
Q 1275 4134 1275 3809 
L 1275 3500 
L 2222 3500 
L 2222 3053 
L 1275 3053 
L 1275 0 
L 697 0 
L 697 3053 
L 147 3053 
L 147 3500 
L 697 3500 
L 697 3744 
Q 697 4328 969 4595 
Q 1241 4863 1831 4863 
L 2375 4863 
z
" transform="scale(0.015625)"/>
     </defs>
     <use xlink:href="#DejaVuSans-49"/>
     <use xlink:href="#DejaVuSans-6e" x="29.492188"/>
     <use xlink:href="#DejaVuSans-73" x="92.871094"/>
     <use xlink:href="#DejaVuSans-74" x="144.970703"/>
     <use xlink:href="#DejaVuSans-61" x="184.179688"/>
     <use xlink:href="#DejaVuSans-6e" x="245.458984"/>
     <use xlink:href="#DejaVuSans-74" x="308.837891"/>
     <use xlink:href="#DejaVuSans-61" x="348.046875"/>
     <use xlink:href="#DejaVuSans-6e" x="409.326172"/>
     <use xlink:href="#DejaVuSans-65" x="472.705078"/>
     <use xlink:href="#DejaVuSans-6f" x="534.228516"/>
     <use xlink:href="#DejaVuSans-75" x="595.410156"/>
     <use xlink:href="#DejaVuSans-73" x="658.789062"/>
     <use xlink:href="#DejaVuSans-20" x="710.888672"/>
     <use xlink:href="#DejaVuSans-61" x="742.675781"/>
     <use xlink:href="#DejaVuSans-6e" x="803.955078"/>
     <use xlink:href="#DejaVuSans-64" x="867.333984"/>
     <use xlink:href="#DejaVuSans-20" x="930.810547"/>
     <use xlink:href="#DejaVuSans-41" x="962.597656"/>
     <use xlink:href="#DejaVuSans-76" x="1025.130859"/>
     <use xlink:href="#DejaVuSans-65" x="1084.310547"/>
     <use xlink:href="#DejaVuSans-72" x="1145.833984"/>
     <use xlink:href="#DejaVuSans-61" x="1186.947266"/>
     <use xlink:href="#DejaVuSans-67" x="1248.226562"/>
     <use xlink:href="#DejaVuSans-65" x="1311.703125"/>
     <use xlink:href="#DejaVuSans-20" x="1373.226562"/>
     <use xlink:href="#DejaVuSans-69" x="1405.013672"/>
     <use xlink:href="#DejaVuSans-6e" x="1432.796875"/>
     <use xlink:href="#DejaVuSans-74" x="1496.175781"/>
     <use xlink:href="#DejaVuSans-65" x="1535.384766"/>
     <use xlink:href="#DejaVuSans-6e" x="1596.908203"/>
     <use xlink:href="#DejaVuSans-73" x="1660.287109"/>
     <use xlink:href="#DejaVuSans-69" x="1712.386719"/>
     <use xlink:href="#DejaVuSans-74" x="1740.169922"/>
     <use xlink:href="#DejaVuSans-79" x="1779.378906"/>
     <use xlink:href="#DejaVuSans-20" x="1838.558594"/>
     <use xlink:href="#DejaVuSans-6f" x="1870.345703"/>
     <use xlink:href="#DejaVuSans-66" x="1931.527344"/>
     <use xlink:href="#DejaVuSans-20" x="1966.732422"/>
     <use xlink:href="#DejaVuSans-75" x="1998.519531"/>
     <use xlink:href="#DejaVuSans-73" x="2061.898438"/>
     <use xlink:href="#DejaVuSans-65" x="2113.998047"/>
     <use xlink:href="#DejaVuSans-20" x="2175.521484"/>
     <use xlink:href="#DejaVuSans-66" x="2207.308594"/>
     <use xlink:href="#DejaVuSans-72" x="2242.513672"/>
     <use xlink:href="#DejaVuSans-6f" x="2281.376953"/>
     <use xlink:href="#DejaVuSans-6d" x="2342.558594"/>
     <use xlink:href="#DejaVuSans-20" x="2439.970703"/>
     <use xlink:href="#DejaVuSans-75" x="2471.757812"/>
     <use xlink:href="#DejaVuSans-31" x="2535.136719"/>
    </g>
   </g>
   <g id="legend_1">
    <g id="line2d_25">
     <path d="M 387.798437 182.338437 
L 397.798437 182.338437 
L 407.798437 182.338437 
" style="fill: none; stroke: #000000; stroke-opacity: 0.25; stroke-linecap: square"/>
    </g>
    <g id="text_21">
     <!-- Inst. Intensity -->
     <g transform="translate(415.798437 185.838437) scale(0.1 -0.1)">
      <defs>
       <path id="DejaVuSans-2e" d="M 684 794 
L 1344 794 
L 1344 0 
L 684 0 
L 684 794 
z
" transform="scale(0.015625)"/>
      </defs>
      <use xlink:href="#DejaVuSans-49"/>
      <use xlink:href="#DejaVuSans-6e" x="29.492188"/>
      <use xlink:href="#DejaVuSans-73" x="92.871094"/>
      <use xlink:href="#DejaVuSans-74" x="144.970703"/>
      <use xlink:href="#DejaVuSans-2e" x="184.179688"/>
      <use xlink:href="#DejaVuSans-20" x="215.966797"/>
      <use xlink:href="#DejaVuSans-49" x="247.753906"/>
      <use xlink:href="#DejaVuSans-6e" x="277.246094"/>
      <use xlink:href="#DejaVuSans-74" x="340.625"/>
      <use xlink:href="#DejaVuSans-65" x="379.833984"/>
      <use xlink:href="#DejaVuSans-6e" x="441.357422"/>
      <use xlink:href="#DejaVuSans-73" x="504.736328"/>
      <use xlink:href="#DejaVuSans-69" x="556.835938"/>
      <use xlink:href="#DejaVuSans-74" x="584.619141"/>
      <use xlink:href="#DejaVuSans-79" x="623.828125"/>
     </g>
    </g>
    <g id="line2d_26">
     <path d="M 387.798437 197.016562 
L 397.798437 197.016562 
L 407.798437 197.016562 
" style="fill: none; stroke: #000000; stroke-linecap: square"/>
    </g>
    <g id="text_22">
     <!-- Avg. Intensity -->
     <g transform="translate(415.798437 200.516562) scale(0.1 -0.1)">
      <use xlink:href="#DejaVuSans-41"/>
      <use xlink:href="#DejaVuSans-76" x="62.533203"/>
      <use xlink:href="#DejaVuSans-67" x="121.712891"/>
      <use xlink:href="#DejaVuSans-2e" x="185.189453"/>
      <use xlink:href="#DejaVuSans-20" x="216.976562"/>
      <use xlink:href="#DejaVuSans-49" x="248.763672"/>
      <use xlink:href="#DejaVuSans-6e" x="278.255859"/>
      <use xlink:href="#DejaVuSans-74" x="341.634766"/>
      <use xlink:href="#DejaVuSans-65" x="380.84375"/>
      <use xlink:href="#DejaVuSans-6e" x="442.367188"/>
      <use xlink:href="#DejaVuSans-73" x="505.746094"/>
      <use xlink:href="#DejaVuSans-69" x="557.845703"/>
      <use xlink:href="#DejaVuSans-74" x="585.628906"/>
      <use xlink:href="#DejaVuSans-79" x="624.837891"/>
     </g>
    </g>
   </g>
  </g>
  <g id="axes_3">
   <g id="patch_8">
    <path d="M 35.49 313.04 
L 493.2 313.04 
L 493.2 264.9 
L 35.49 264.9 
z
" style="fill: #ffffff"/>
   </g>
   <g id="matplotlib.axis_5">
    <g id="xtick_13">
     <g id="line2d_27">
      <g>
       <use xlink:href="#m3af7fa0dd9" x="44.292115" y="318.04" style="stroke: #000000; stroke-width: 0.8"/>
      </g>
     </g>
     <g id="text_23">
      <!-- 0 -->
      <g transform="translate(41.110865 332.638437) scale(0.1 -0.1)">
       <use xlink:href="#DejaVuSans-30"/>
      </g>
     </g>
    </g>
    <g id="xtick_14">
     <g id="line2d_28">
      <g>
       <use xlink:href="#m3af7fa0dd9" x="132.313269" y="318.04" style="stroke: #000000; stroke-width: 0.8"/>
      </g>
     </g>
     <g id="text_24">
      <!-- 2 -->
      <g transform="translate(129.132019 332.638437) scale(0.1 -0.1)">
       <use xlink:href="#DejaVuSans-32"/>
      </g>
     </g>
    </g>
    <g id="xtick_15">
     <g id="line2d_29">
      <g>
       <use xlink:href="#m3af7fa0dd9" x="220.334423" y="318.04" style="stroke: #000000; stroke-width: 0.8"/>
      </g>
     </g>
     <g id="text_25">
      <!-- 4 -->
      <g transform="translate(217.153173 332.638437) scale(0.1 -0.1)">
       <use xlink:href="#DejaVuSans-34"/>
      </g>
     </g>
    </g>
    <g id="xtick_16">
     <g id="line2d_30">
      <g>
       <use xlink:href="#m3af7fa0dd9" x="308.355577" y="318.04" style="stroke: #000000; stroke-width: 0.8"/>
      </g>
     </g>
     <g id="text_26">
      <!-- 6 -->
      <g transform="translate(305.174327 332.638437) scale(0.1 -0.1)">
       <use xlink:href="#DejaVuSans-36"/>
      </g>
     </g>
    </g>
    <g id="xtick_17">
     <g id="line2d_31">
      <g>
       <use xlink:href="#m3af7fa0dd9" x="396.376731" y="318.04" style="stroke: #000000; stroke-width: 0.8"/>
      </g>
     </g>
     <g id="text_27">
      <!-- 8 -->
      <g transform="translate(393.195481 332.638437) scale(0.1 -0.1)">
       <use xlink:href="#DejaVuSans-38"/>
      </g>
     </g>
    </g>
    <g id="xtick_18">
     <g id="line2d_32">
      <g>
       <use xlink:href="#m3af7fa0dd9" x="484.397885" y="318.04" style="stroke: #000000; stroke-width: 0.8"/>
      </g>
     </g>
     <g id="text_28">
      <!-- 10 -->
      <g transform="translate(478.035385 332.638437) scale(0.1 -0.1)">
       <use xlink:href="#DejaVuSans-31"/>
       <use xlink:href="#DejaVuSans-30" x="63.623047"/>
      </g>
     </g>
    </g>
    <g id="text_29">
     <!-- Time (s) -->
     <g transform="translate(244.016094 346.316562) scale(0.1 -0.1)">
      <defs>
       <path id="DejaVuSans-54" d="M -19 4666 
L 3928 4666 
L 3928 4134 
L 2272 4134 
L 2272 0 
L 1638 0 
L 1638 4134 
L -19 4134 
L -19 4666 
z
" transform="scale(0.015625)"/>
       <path id="DejaVuSans-28" d="M 1984 4856 
Q 1566 4138 1362 3434 
Q 1159 2731 1159 2009 
Q 1159 1288 1364 580 
Q 1569 -128 1984 -844 
L 1484 -844 
Q 1016 -109 783 600 
Q 550 1309 550 2009 
Q 550 2706 781 3412 
Q 1013 4119 1484 4856 
L 1984 4856 
z
" transform="scale(0.015625)"/>
       <path id="DejaVuSans-29" d="M 513 4856 
L 1013 4856 
Q 1481 4119 1714 3412 
Q 1947 2706 1947 2009 
Q 1947 1309 1714 600 
Q 1481 -109 1013 -844 
L 513 -844 
Q 928 -128 1133 580 
Q 1338 1288 1338 2009 
Q 1338 2731 1133 3434 
Q 928 4138 513 4856 
z
" transform="scale(0.015625)"/>
      </defs>
      <use xlink:href="#DejaVuSans-54"/>
      <use xlink:href="#DejaVuSans-69" x="57.958984"/>
      <use xlink:href="#DejaVuSans-6d" x="85.742188"/>
      <use xlink:href="#DejaVuSans-65" x="183.154297"/>
      <use xlink:href="#DejaVuSans-20" x="244.677734"/>
      <use xlink:href="#DejaVuSans-28" x="276.464844"/>
      <use xlink:href="#DejaVuSans-73" x="315.478516"/>
      <use xlink:href="#DejaVuSans-29" x="367.578125"/>
     </g>
    </g>
   </g>
   <g id="matplotlib.axis_6">
    <g id="ytick_7">
     <g id="line2d_33">
      <g>
       <use xlink:href="#mee997523db" x="30.49" y="310.851818" style="stroke: #000000; stroke-width: 0.8"/>
      </g>
     </g>
     <g id="text_30">
      <!-- 0 -->
      <g transform="translate(17.1275 314.651037) scale(0.1 -0.1)">
       <use xlink:href="#DejaVuSans-30"/>
      </g>
     </g>
    </g>
    <g id="ytick_8">
     <g id="line2d_34">
      <g>
       <use xlink:href="#mee997523db" x="30.49" y="282.058987" style="stroke: #000000; stroke-width: 0.8"/>
      </g>
     </g>
     <g id="text_31">
      <!-- 10 -->
      <g transform="translate(10.765 285.858206) scale(0.1 -0.1)">
       <use xlink:href="#DejaVuSans-31"/>
       <use xlink:href="#DejaVuSans-30" x="63.623047"/>
      </g>
     </g>
    </g>
   </g>
   <g id="line2d_35">
    <path d="M 44.292115 292.70644 
L 44.732221 286.891097 
L 45.172327 310.851818 
L 46.93275 310.851818 
L 47.372856 294.61699 
L 47.812962 285.249178 
L 48.253067 289.518218 
L 48.693173 298.897357 
L 49.133279 302.692216 
L 50.01349 283.958694 
L 50.453596 287.655959 
L 50.893702 310.851818 
L 51.333808 286.619488 
L 51.773913 307.406011 
L 52.214019 295.8257 
L 52.654125 300.411183 
L 53.094231 295.439566 
L 53.534337 278.258027 
L 53.974442 307.55768 
L 54.414548 300.735621 
L 54.854654 304.49041 
L 55.29476 310.851818 
L 55.734865 285.586035 
L 56.615077 300.72869 
L 57.055183 289.168742 
L 57.495288 297.169555 
L 57.935394 310.851818 
L 58.3755 280.295035 
L 59.255712 294.567433 
L 59.695817 292.637381 
L 60.135923 310.851818 
L 60.576029 272.754171 
L 61.016135 306.747737 
L 61.45624 283.484215 
L 61.896346 297.170591 
L 62.336452 290.13478 
L 62.776558 287.301822 
L 63.216663 288.723406 
L 63.656769 285.312902 
L 64.096875 272.629805 
L 64.536981 300.048902 
L 65.417192 274.409342 
L 65.857298 288.434895 
L 66.297404 270.430729 
L 66.73751 277.807267 
L 67.177615 310.851818 
L 67.617721 286.847505 
L 68.057827 303.33607 
L 68.497933 281.505674 
L 68.938038 281.405639 
L 69.378144 283.690485 
L 69.81825 307.621092 
L 70.258356 299.725752 
L 70.698462 294.32674 
L 71.138567 296.258562 
L 71.578673 281.333605 
L 72.018779 307.378604 
L 72.458885 267.088182 
L 72.89899 302.728295 
L 73.339096 273.02455 
L 73.779202 290.814879 
L 74.219308 277.703424 
L 74.659413 283.824109 
L 75.099519 299.528381 
L 75.539625 299.243369 
L 75.979731 299.613273 
L 76.419837 288.552425 
L 76.859942 295.27097 
L 77.300048 287.42491 
L 77.740154 267.247571 
L 78.18026 299.14101 
L 78.620365 291.779543 
L 79.060471 304.88528 
L 79.500577 289.824934 
L 79.940683 296.921897 
L 80.380788 268.068653 
L 80.820894 296.23211 
L 81.261 291.957388 
L 81.701106 306.476452 
L 82.141212 310.851818 
L 82.581317 274.791168 
L 83.021423 282.508753 
L 83.461529 307.119754 
L 83.901635 270.98296 
L 84.34174 272.150201 
L 84.781846 296.903103 
L 85.221952 278.73133 
L 85.662058 273.700001 
L 86.102163 302.492915 
L 86.542269 279.665856 
L 86.982375 291.723927 
L 87.422481 269.344195 
L 87.862587 288.187505 
L 88.302692 301.96559 
L 88.742798 304.828371 
L 89.182904 284.306927 
L 89.62301 275.92484 
L 90.063115 306.993404 
L 90.503221 310.851818 
L 90.943327 288.446042 
L 91.383433 275.630357 
L 91.823538 276.184912 
L 92.263644 303.165885 
L 92.70375 271.176524 
L 93.143856 280.705544 
L 93.583962 285.180342 
L 94.024067 300.25657 
L 94.464173 310.851818 
L 94.904279 310.851818 
L 95.344385 286.1505 
L 95.78449 274.845713 
L 96.224596 275.183742 
L 96.664702 295.97249 
L 97.104808 279.658304 
L 97.544913 283.678382 
L 97.985019 301.241839 
L 98.425125 278.766429 
L 98.865231 295.926676 
L 99.305337 287.600512 
L 99.745442 302.885016 
L 100.185548 285.120908 
L 100.625654 300.95782 
L 101.06576 290.489848 
L 101.505865 296.536127 
L 101.945971 294.34868 
L 102.826183 310.851818 
L 103.266288 289.458402 
L 103.706394 289.648388 
L 104.1465 300.471695 
L 104.586606 298.471987 
L 105.026712 293.084146 
L 105.466817 301.597222 
L 105.906923 284.834922 
L 106.347029 284.401287 
L 106.787135 299.315663 
L 107.22724 293.898775 
L 107.667346 302.507285 
L 108.107452 292.389313 
L 108.547558 298.471782 
L 108.987663 293.887218 
L 109.427769 285.794963 
L 109.867875 294.03824 
L 110.307981 305.224418 
L 110.748087 291.888187 
L 111.188192 304.533322 
L 111.628298 296.78467 
L 112.068404 310.851818 
L 113.388721 310.851818 
L 113.828827 295.575049 
L 114.268933 290.426775 
L 114.709038 295.41396 
L 115.149144 294.482288 
L 115.58925 293.035042 
L 116.029356 294.906971 
L 116.469462 310.851818 
L 116.909567 292.680199 
L 117.349673 307.160899 
L 117.789779 304.986408 
L 118.229885 295.797248 
L 118.66999 302.002497 
L 119.110096 303.937429 
L 119.550202 298.077914 
L 119.990308 300.118934 
L 120.430413 293.958714 
L 120.870519 298.538341 
L 121.310625 307.365452 
L 121.750731 297.443355 
L 122.190837 295.623596 
L 123.071048 307.837118 
L 123.511154 298.297149 
L 123.95126 300.675311 
L 124.391365 304.756821 
L 124.831471 297.053736 
L 125.271577 298.004178 
L 125.711683 307.133973 
L 126.151788 297.502882 
L 126.591894 306.800618 
L 127.032 299.858228 
L 127.472106 304.343298 
L 127.912212 310.851818 
L 180.284798 310.851818 
L 180.724904 298.186495 
L 181.16501 296.624182 
L 181.605115 307.355746 
L 182.045221 302.586402 
L 182.485327 306.766425 
L 182.925433 306.412032 
L 183.365538 299.46908 
L 183.805644 310.851818 
L 184.685856 310.851818 
L 185.125962 294.867914 
L 185.566067 307.803817 
L 186.006173 301.440952 
L 186.446279 306.990831 
L 186.886385 293.864427 
L 187.32649 306.975295 
L 187.766596 310.851818 
L 188.206702 298.856588 
L 188.646808 310.851818 
L 190.847337 310.851818 
L 191.287442 292.92681 
L 191.727548 304.019976 
L 192.167654 310.851818 
L 192.60776 294.761655 
L 193.047865 298.808661 
L 193.487971 291.301446 
L 193.928077 310.851818 
L 194.368183 292.952457 
L 194.808288 307.655073 
L 195.248394 305.809158 
L 195.6885 295.003863 
L 196.128606 289.151283 
L 196.568712 305.503689 
L 197.008817 302.477345 
L 197.448923 291.474929 
L 197.889029 288.903222 
L 198.76924 299.439298 
L 199.209346 297.118546 
L 199.649452 299.756013 
L 200.089558 289.204472 
L 200.529663 289.76746 
L 200.969769 287.686835 
L 201.409875 293.770415 
L 202.290087 310.851818 
L 202.730192 310.851818 
L 203.170298 288.753428 
L 203.610404 310.851818 
L 204.05051 287.916048 
L 204.490615 304.693216 
L 204.930721 298.641066 
L 205.370827 291.038955 
L 205.810933 290.509011 
L 206.251038 299.197422 
L 206.691144 294.926042 
L 207.13125 301.572909 
L 207.571356 290.244399 
L 208.011462 290.095408 
L 208.451567 310.851818 
L 208.891673 286.900113 
L 209.331779 297.909631 
L 209.771885 289.434099 
L 210.21199 303.761065 
L 210.652096 299.957103 
L 211.092202 310.851818 
L 211.532308 291.926976 
L 211.972413 301.977429 
L 212.412519 306.083174 
L 212.852625 292.708509 
L 213.292731 297.077619 
L 213.732837 291.180065 
L 214.172942 294.772119 
L 214.613048 304.374525 
L 215.053154 288.103777 
L 215.49326 310.851818 
L 217.253683 310.851818 
L 217.693788 286.954424 
L 218.133894 310.851818 
L 219.014106 310.851818 
L 219.454212 294.344939 
L 219.894317 302.438734 
L 220.334423 303.929124 
L 220.774529 295.127745 
L 221.214635 301.688263 
L 221.65474 310.851818 
L 222.975058 310.851818 
L 223.415163 292.958829 
L 223.855269 298.962002 
L 224.295375 300.047726 
L 224.735481 292.259162 
L 225.175587 307.579022 
L 225.615692 306.079309 
L 226.055798 289.813042 
L 226.495904 299.378794 
L 226.93601 306.250879 
L 227.376115 300.44729 
L 227.816221 307.922647 
L 228.256327 304.554846 
L 228.696433 302.874265 
L 229.136538 301.860344 
L 230.01675 292.80418 
L 230.456856 306.65006 
L 230.896962 297.185207 
L 231.337067 292.160439 
L 231.777173 301.305169 
L 232.217279 303.328258 
L 232.657385 296.202524 
L 233.09749 306.754114 
L 233.537596 307.208844 
L 233.977702 299.26396 
L 234.417808 307.739761 
L 234.857913 297.51002 
L 235.738125 298.730271 
L 236.178231 307.493021 
L 236.618337 310.851818 
L 237.938654 310.851818 
L 238.37876 298.863195 
L 238.818865 295.286912 
L 239.258971 304.881312 
L 239.699077 296.569356 
L 240.139183 299.562098 
L 240.579288 306.44819 
L 241.019394 306.784708 
L 241.4595 304.608181 
L 241.899606 307.723034 
L 242.339712 307.561748 
L 242.779817 301.005321 
L 243.219923 307.884665 
L 243.660029 305.310927 
L 244.100135 298.316206 
L 244.54024 304.16353 
L 244.980346 301.348493 
L 245.420452 307.117342 
L 245.860558 306.086817 
L 246.300663 310.851818 
L 354.126577 310.851818 
L 354.566683 299.160425 
L 355.006788 304.01005 
L 355.446894 310.851818 
L 355.887 310.851818 
L 356.327106 299.307609 
L 356.767212 310.851818 
L 478.236404 310.851818 
L 478.67651 298.806786 
L 479.116615 310.851818 
L 481.317144 310.851818 
L 481.75725 297.827356 
L 482.197356 310.851818 
L 482.637462 297.365273 
L 483.077567 310.851818 
L 483.957779 310.851818 
L 483.957779 310.851818 
" clip-path="url(#p359d5e8ba1)" style="fill: none; stroke: #d62728; stroke-opacity: 0.25; stroke-linecap: square"/>
   </g>
   <g id="line2d_36">
    <path d="M 44.292115 292.70644 
L 46.492644 289.798769 
L 48.693173 291.313213 
L 50.893702 291.586137 
L 53.094231 293.437554 
L 55.29476 294.438812 
L 57.495288 294.526299 
L 59.695817 293.883548 
L 61.896346 293.527849 
L 66.297404 288.014882 
L 68.497933 286.693989 
L 70.698462 287.821575 
L 72.89899 288.105282 
L 75.099519 288.138308 
L 77.300048 290.25224 
L 79.500577 290.777423 
L 81.701106 290.492895 
L 83.901635 289.289073 
L 86.102163 289.250832 
L 88.302692 287.616754 
L 90.503221 287.912056 
L 92.70375 285.95324 
L 94.904279 286.712015 
L 97.104808 286.158979 
L 101.505865 287.64176 
L 103.706394 289.855819 
L 105.906923 291.214398 
L 108.107452 293.74363 
L 110.307981 295.002079 
L 112.50851 295.330289 
L 114.709038 295.38147 
L 116.909567 294.98277 
L 119.110096 297.051378 
L 121.310625 298.083515 
L 123.511154 298.616668 
L 125.711683 299.823956 
L 127.912212 301.215644 
L 130.11274 300.804789 
L 132.313269 301.230831 
L 134.513798 301.792116 
L 136.714327 302.126257 
L 138.914856 310.851818 
L 178.524375 310.851818 
L 180.724904 298.186495 
L 182.925433 302.988547 
L 185.125962 301.533534 
L 187.32649 302.2572 
L 191.727548 301.797365 
L 193.928077 299.391342 
L 196.128606 299.270143 
L 198.329135 297.115836 
L 200.529663 296.514129 
L 202.730192 296.075014 
L 204.930721 296.03215 
L 207.13125 295.426355 
L 209.331779 294.377283 
L 211.532308 294.58582 
L 213.732837 295.295622 
L 215.933365 295.416683 
L 218.133894 294.909437 
L 220.334423 296.81398 
L 222.534952 297.197175 
L 224.735481 296.612413 
L 229.136538 300.448261 
L 231.337067 299.711215 
L 235.738125 301.164822 
L 237.938654 301.310121 
L 240.139183 300.238858 
L 242.339712 302.476692 
L 244.54024 302.566298 
L 246.740769 303.527108 
L 248.941298 303.30678 
L 251.141827 304.950705 
L 253.342356 303.904163 
L 255.542885 304.850884 
L 257.743413 310.851818 
L 352.366154 310.851818 
L 354.566683 299.160425 
L 356.767212 300.826028 
L 363.368798 300.826028 
L 365.569327 301.658829 
L 367.769856 310.851818 
L 477.796298 310.851818 
L 479.996827 298.806786 
L 482.197356 298.317071 
L 482.197356 298.317071 
" clip-path="url(#p359d5e8ba1)" style="fill: none; stroke: #d62728; stroke-linecap: square"/>
   </g>
   <g id="patch_9">
    <path d="M 30.49 313.04 
L 30.49 264.9 
" style="fill: none; stroke: #7f7f7f; stroke-width: 0.8; stroke-linejoin: miter; stroke-linecap: square"/>
   </g>
   <g id="patch_10">
    <path d="M 35.49 318.04 
L 493.2 318.04 
" style="fill: none; stroke: #7f7f7f; stroke-width: 0.8; stroke-linejoin: miter; stroke-linecap: square"/>
   </g>
   <g id="text_32">
    <!-- Instantaneous and Average intensity of use from u2 -->
    <g transform="translate(121.415469 258.9) scale(0.11 -0.11)">
     <use xlink:href="#DejaVuSans-49"/>
     <use xlink:href="#DejaVuSans-6e" x="29.492188"/>
     <use xlink:href="#DejaVuSans-73" x="92.871094"/>
     <use xlink:href="#DejaVuSans-74" x="144.970703"/>
     <use xlink:href="#DejaVuSans-61" x="184.179688"/>
     <use xlink:href="#DejaVuSans-6e" x="245.458984"/>
     <use xlink:href="#DejaVuSans-74" x="308.837891"/>
     <use xlink:href="#DejaVuSans-61" x="348.046875"/>
     <use xlink:href="#DejaVuSans-6e" x="409.326172"/>
     <use xlink:href="#DejaVuSans-65" x="472.705078"/>
     <use xlink:href="#DejaVuSans-6f" x="534.228516"/>
     <use xlink:href="#DejaVuSans-75" x="595.410156"/>
     <use xlink:href="#DejaVuSans-73" x="658.789062"/>
     <use xlink:href="#DejaVuSans-20" x="710.888672"/>
     <use xlink:href="#DejaVuSans-61" x="742.675781"/>
     <use xlink:href="#DejaVuSans-6e" x="803.955078"/>
     <use xlink:href="#DejaVuSans-64" x="867.333984"/>
     <use xlink:href="#DejaVuSans-20" x="930.810547"/>
     <use xlink:href="#DejaVuSans-41" x="962.597656"/>
     <use xlink:href="#DejaVuSans-76" x="1025.130859"/>
     <use xlink:href="#DejaVuSans-65" x="1084.310547"/>
     <use xlink:href="#DejaVuSans-72" x="1145.833984"/>
     <use xlink:href="#DejaVuSans-61" x="1186.947266"/>
     <use xlink:href="#DejaVuSans-67" x="1248.226562"/>
     <use xlink:href="#DejaVuSans-65" x="1311.703125"/>
     <use xlink:href="#DejaVuSans-20" x="1373.226562"/>
     <use xlink:href="#DejaVuSans-69" x="1405.013672"/>
     <use xlink:href="#DejaVuSans-6e" x="1432.796875"/>
     <use xlink:href="#DejaVuSans-74" x="1496.175781"/>
     <use xlink:href="#DejaVuSans-65" x="1535.384766"/>
     <use xlink:href="#DejaVuSans-6e" x="1596.908203"/>
     <use xlink:href="#DejaVuSans-73" x="1660.287109"/>
     <use xlink:href="#DejaVuSans-69" x="1712.386719"/>
     <use xlink:href="#DejaVuSans-74" x="1740.169922"/>
     <use xlink:href="#DejaVuSans-79" x="1779.378906"/>
     <use xlink:href="#DejaVuSans-20" x="1838.558594"/>
     <use xlink:href="#DejaVuSans-6f" x="1870.345703"/>
     <use xlink:href="#DejaVuSans-66" x="1931.527344"/>
     <use xlink:href="#DejaVuSans-20" x="1966.732422"/>
     <use xlink:href="#DejaVuSans-75" x="1998.519531"/>
     <use xlink:href="#DejaVuSans-73" x="2061.898438"/>
     <use xlink:href="#DejaVuSans-65" x="2113.998047"/>
     <use xlink:href="#DejaVuSans-20" x="2175.521484"/>
     <use xlink:href="#DejaVuSans-66" x="2207.308594"/>
     <use xlink:href="#DejaVuSans-72" x="2242.513672"/>
     <use xlink:href="#DejaVuSans-6f" x="2281.376953"/>
     <use xlink:href="#DejaVuSans-6d" x="2342.558594"/>
     <use xlink:href="#DejaVuSans-20" x="2439.970703"/>
     <use xlink:href="#DejaVuSans-75" x="2471.757812"/>
     <use xlink:href="#DejaVuSans-32" x="2535.136719"/>
    </g>
   </g>
   <g id="legend_2">
    <g id="line2d_37">
     <path d="M 387.798437 277.998438 
L 397.798437 277.998438 
L 407.798437 277.998438 
" style="fill: none; stroke: #d62728; stroke-opacity: 0.25; stroke-linecap: square"/>
    </g>
    <g id="text_33">
     <!-- Inst. Intensity -->
     <g transform="translate(415.798437 281.498438) scale(0.1 -0.1)">
      <use xlink:href="#DejaVuSans-49"/>
      <use xlink:href="#DejaVuSans-6e" x="29.492188"/>
      <use xlink:href="#DejaVuSans-73" x="92.871094"/>
      <use xlink:href="#DejaVuSans-74" x="144.970703"/>
      <use xlink:href="#DejaVuSans-2e" x="184.179688"/>
      <use xlink:href="#DejaVuSans-20" x="215.966797"/>
      <use xlink:href="#DejaVuSans-49" x="247.753906"/>
      <use xlink:href="#DejaVuSans-6e" x="277.246094"/>
      <use xlink:href="#DejaVuSans-74" x="340.625"/>
      <use xlink:href="#DejaVuSans-65" x="379.833984"/>
      <use xlink:href="#DejaVuSans-6e" x="441.357422"/>
      <use xlink:href="#DejaVuSans-73" x="504.736328"/>
      <use xlink:href="#DejaVuSans-69" x="556.835938"/>
      <use xlink:href="#DejaVuSans-74" x="584.619141"/>
      <use xlink:href="#DejaVuSans-79" x="623.828125"/>
     </g>
    </g>
    <g id="line2d_38">
     <path d="M 387.798437 292.676562 
L 397.798437 292.676562 
L 407.798437 292.676562 
" style="fill: none; stroke: #d62728; stroke-linecap: square"/>
    </g>
    <g id="text_34">
     <!-- Avg. Intensity -->
     <g transform="translate(415.798437 296.176562) scale(0.1 -0.1)">
      <use xlink:href="#DejaVuSans-41"/>
      <use xlink:href="#DejaVuSans-76" x="62.533203"/>
      <use xlink:href="#DejaVuSans-67" x="121.712891"/>
      <use xlink:href="#DejaVuSans-2e" x="185.189453"/>
      <use xlink:href="#DejaVuSans-20" x="216.976562"/>
      <use xlink:href="#DejaVuSans-49" x="248.763672"/>
      <use xlink:href="#DejaVuSans-6e" x="278.255859"/>
      <use xlink:href="#DejaVuSans-74" x="341.634766"/>
      <use xlink:href="#DejaVuSans-65" x="380.84375"/>
      <use xlink:href="#DejaVuSans-6e" x="442.367188"/>
      <use xlink:href="#DejaVuSans-73" x="505.746094"/>
      <use xlink:href="#DejaVuSans-69" x="557.845703"/>
      <use xlink:href="#DejaVuSans-74" x="585.628906"/>
      <use xlink:href="#DejaVuSans-79" x="624.837891"/>
     </g>
    </g>
   </g>
  </g>
 </g>
 <defs>
  <clipPath id="pa62c74af78">
   <rect x="35.49" y="25.44" width="457.71" height="96.28"/>
  </clipPath>
  <clipPath id="p6ac548b4fe">
   <rect x="35.49" y="169.24" width="457.71" height="48.14"/>
  </clipPath>
  <clipPath id="p359d5e8ba1">
   <rect x="35.49" y="264.9" width="457.71" height="48.14"/>
  </clipPath>
 </defs>
</svg>
